G04 #@! TF.GenerationSoftware,KiCad,Pcbnew,(5.0.2-4-g3082e92af)*
G04 #@! TF.CreationDate,2019-02-04T02:23:37+02:00*
G04 #@! TF.ProjectId,My Piano Controller Note Module 3 (5-note_ 5V pots),4d792050-6961-46e6-9f20-436f6e74726f,rev?*
G04 #@! TF.SameCoordinates,Original*
G04 #@! TF.FileFunction,Legend,Top*
G04 #@! TF.FilePolarity,Positive*
%FSLAX46Y46*%
G04 Gerber Fmt 4.6, Leading zero omitted, Abs format (unit mm)*
G04 Created by KiCad (PCBNEW (5.0.2-4-g3082e92af)) date 2019 February 04, Monday 02:23:37*
%MOMM*%
%LPD*%
G01*
G04 APERTURE LIST*
%ADD10C,0.100000*%
%ADD11C,0.300000*%
%ADD12C,0.152400*%
%ADD13C,0.150000*%
%ADD14C,0.120000*%
G04 APERTURE END LIST*
D10*
X144506190Y-47085238D02*
X144506190Y-47323333D01*
X144744285Y-47347142D01*
X144720476Y-47323333D01*
X144696666Y-47275714D01*
X144696666Y-47156666D01*
X144720476Y-47109047D01*
X144744285Y-47085238D01*
X144791904Y-47061428D01*
X144910952Y-47061428D01*
X144958571Y-47085238D01*
X144982380Y-47109047D01*
X145006190Y-47156666D01*
X145006190Y-47275714D01*
X144982380Y-47323333D01*
X144958571Y-47347142D01*
X144506190Y-46918571D02*
X145006190Y-46751904D01*
X144506190Y-46585238D01*
X134346190Y-47085238D02*
X134346190Y-47323333D01*
X134584285Y-47347142D01*
X134560476Y-47323333D01*
X134536666Y-47275714D01*
X134536666Y-47156666D01*
X134560476Y-47109047D01*
X134584285Y-47085238D01*
X134631904Y-47061428D01*
X134750952Y-47061428D01*
X134798571Y-47085238D01*
X134822380Y-47109047D01*
X134846190Y-47156666D01*
X134846190Y-47275714D01*
X134822380Y-47323333D01*
X134798571Y-47347142D01*
X134346190Y-46918571D02*
X134846190Y-46751904D01*
X134346190Y-46585238D01*
X124186190Y-47085238D02*
X124186190Y-47323333D01*
X124424285Y-47347142D01*
X124400476Y-47323333D01*
X124376666Y-47275714D01*
X124376666Y-47156666D01*
X124400476Y-47109047D01*
X124424285Y-47085238D01*
X124471904Y-47061428D01*
X124590952Y-47061428D01*
X124638571Y-47085238D01*
X124662380Y-47109047D01*
X124686190Y-47156666D01*
X124686190Y-47275714D01*
X124662380Y-47323333D01*
X124638571Y-47347142D01*
X124186190Y-46918571D02*
X124686190Y-46751904D01*
X124186190Y-46585238D01*
X114026190Y-47085238D02*
X114026190Y-47323333D01*
X114264285Y-47347142D01*
X114240476Y-47323333D01*
X114216666Y-47275714D01*
X114216666Y-47156666D01*
X114240476Y-47109047D01*
X114264285Y-47085238D01*
X114311904Y-47061428D01*
X114430952Y-47061428D01*
X114478571Y-47085238D01*
X114502380Y-47109047D01*
X114526190Y-47156666D01*
X114526190Y-47275714D01*
X114502380Y-47323333D01*
X114478571Y-47347142D01*
X114026190Y-46918571D02*
X114526190Y-46751904D01*
X114026190Y-46585238D01*
X103866190Y-47085238D02*
X103866190Y-47323333D01*
X104104285Y-47347142D01*
X104080476Y-47323333D01*
X104056666Y-47275714D01*
X104056666Y-47156666D01*
X104080476Y-47109047D01*
X104104285Y-47085238D01*
X104151904Y-47061428D01*
X104270952Y-47061428D01*
X104318571Y-47085238D01*
X104342380Y-47109047D01*
X104366190Y-47156666D01*
X104366190Y-47275714D01*
X104342380Y-47323333D01*
X104318571Y-47347142D01*
X103866190Y-46918571D02*
X104366190Y-46751904D01*
X103866190Y-46585238D01*
X149610000Y-47370952D02*
X149586190Y-47418571D01*
X149586190Y-47490000D01*
X149610000Y-47561428D01*
X149657619Y-47609047D01*
X149705238Y-47632857D01*
X149800476Y-47656666D01*
X149871904Y-47656666D01*
X149967142Y-47632857D01*
X150014761Y-47609047D01*
X150062380Y-47561428D01*
X150086190Y-47490000D01*
X150086190Y-47442380D01*
X150062380Y-47370952D01*
X150038571Y-47347142D01*
X149871904Y-47347142D01*
X149871904Y-47442380D01*
X150086190Y-47132857D02*
X149586190Y-47132857D01*
X150086190Y-46847142D01*
X149586190Y-46847142D01*
X150086190Y-46609047D02*
X149586190Y-46609047D01*
X149586190Y-46490000D01*
X149610000Y-46418571D01*
X149657619Y-46370952D01*
X149705238Y-46347142D01*
X149800476Y-46323333D01*
X149871904Y-46323333D01*
X149967142Y-46347142D01*
X150014761Y-46370952D01*
X150062380Y-46418571D01*
X150086190Y-46490000D01*
X150086190Y-46609047D01*
X139450000Y-47370952D02*
X139426190Y-47418571D01*
X139426190Y-47490000D01*
X139450000Y-47561428D01*
X139497619Y-47609047D01*
X139545238Y-47632857D01*
X139640476Y-47656666D01*
X139711904Y-47656666D01*
X139807142Y-47632857D01*
X139854761Y-47609047D01*
X139902380Y-47561428D01*
X139926190Y-47490000D01*
X139926190Y-47442380D01*
X139902380Y-47370952D01*
X139878571Y-47347142D01*
X139711904Y-47347142D01*
X139711904Y-47442380D01*
X139926190Y-47132857D02*
X139426190Y-47132857D01*
X139926190Y-46847142D01*
X139426190Y-46847142D01*
X139926190Y-46609047D02*
X139426190Y-46609047D01*
X139426190Y-46490000D01*
X139450000Y-46418571D01*
X139497619Y-46370952D01*
X139545238Y-46347142D01*
X139640476Y-46323333D01*
X139711904Y-46323333D01*
X139807142Y-46347142D01*
X139854761Y-46370952D01*
X139902380Y-46418571D01*
X139926190Y-46490000D01*
X139926190Y-46609047D01*
X129290000Y-47370952D02*
X129266190Y-47418571D01*
X129266190Y-47490000D01*
X129290000Y-47561428D01*
X129337619Y-47609047D01*
X129385238Y-47632857D01*
X129480476Y-47656666D01*
X129551904Y-47656666D01*
X129647142Y-47632857D01*
X129694761Y-47609047D01*
X129742380Y-47561428D01*
X129766190Y-47490000D01*
X129766190Y-47442380D01*
X129742380Y-47370952D01*
X129718571Y-47347142D01*
X129551904Y-47347142D01*
X129551904Y-47442380D01*
X129766190Y-47132857D02*
X129266190Y-47132857D01*
X129766190Y-46847142D01*
X129266190Y-46847142D01*
X129766190Y-46609047D02*
X129266190Y-46609047D01*
X129266190Y-46490000D01*
X129290000Y-46418571D01*
X129337619Y-46370952D01*
X129385238Y-46347142D01*
X129480476Y-46323333D01*
X129551904Y-46323333D01*
X129647142Y-46347142D01*
X129694761Y-46370952D01*
X129742380Y-46418571D01*
X129766190Y-46490000D01*
X129766190Y-46609047D01*
X119130000Y-47370952D02*
X119106190Y-47418571D01*
X119106190Y-47490000D01*
X119130000Y-47561428D01*
X119177619Y-47609047D01*
X119225238Y-47632857D01*
X119320476Y-47656666D01*
X119391904Y-47656666D01*
X119487142Y-47632857D01*
X119534761Y-47609047D01*
X119582380Y-47561428D01*
X119606190Y-47490000D01*
X119606190Y-47442380D01*
X119582380Y-47370952D01*
X119558571Y-47347142D01*
X119391904Y-47347142D01*
X119391904Y-47442380D01*
X119606190Y-47132857D02*
X119106190Y-47132857D01*
X119606190Y-46847142D01*
X119106190Y-46847142D01*
X119606190Y-46609047D02*
X119106190Y-46609047D01*
X119106190Y-46490000D01*
X119130000Y-46418571D01*
X119177619Y-46370952D01*
X119225238Y-46347142D01*
X119320476Y-46323333D01*
X119391904Y-46323333D01*
X119487142Y-46347142D01*
X119534761Y-46370952D01*
X119582380Y-46418571D01*
X119606190Y-46490000D01*
X119606190Y-46609047D01*
X108970000Y-47370952D02*
X108946190Y-47418571D01*
X108946190Y-47490000D01*
X108970000Y-47561428D01*
X109017619Y-47609047D01*
X109065238Y-47632857D01*
X109160476Y-47656666D01*
X109231904Y-47656666D01*
X109327142Y-47632857D01*
X109374761Y-47609047D01*
X109422380Y-47561428D01*
X109446190Y-47490000D01*
X109446190Y-47442380D01*
X109422380Y-47370952D01*
X109398571Y-47347142D01*
X109231904Y-47347142D01*
X109231904Y-47442380D01*
X109446190Y-47132857D02*
X108946190Y-47132857D01*
X109446190Y-46847142D01*
X108946190Y-46847142D01*
X109446190Y-46609047D02*
X108946190Y-46609047D01*
X108946190Y-46490000D01*
X108970000Y-46418571D01*
X109017619Y-46370952D01*
X109065238Y-46347142D01*
X109160476Y-46323333D01*
X109231904Y-46323333D01*
X109327142Y-46347142D01*
X109374761Y-46370952D01*
X109422380Y-46418571D01*
X109446190Y-46490000D01*
X109446190Y-46609047D01*
X148494761Y-100056190D02*
X148256666Y-100056190D01*
X148232857Y-100294285D01*
X148256666Y-100270476D01*
X148304285Y-100246666D01*
X148423333Y-100246666D01*
X148470952Y-100270476D01*
X148494761Y-100294285D01*
X148518571Y-100341904D01*
X148518571Y-100460952D01*
X148494761Y-100508571D01*
X148470952Y-100532380D01*
X148423333Y-100556190D01*
X148304285Y-100556190D01*
X148256666Y-100532380D01*
X148232857Y-100508571D01*
X148661428Y-100056190D02*
X148828095Y-100556190D01*
X148994761Y-100056190D01*
X145311904Y-100056190D02*
X145621428Y-100056190D01*
X145454761Y-100246666D01*
X145526190Y-100246666D01*
X145573809Y-100270476D01*
X145597619Y-100294285D01*
X145621428Y-100341904D01*
X145621428Y-100460952D01*
X145597619Y-100508571D01*
X145573809Y-100532380D01*
X145526190Y-100556190D01*
X145383333Y-100556190D01*
X145335714Y-100532380D01*
X145311904Y-100508571D01*
X145835714Y-100508571D02*
X145859523Y-100532380D01*
X145835714Y-100556190D01*
X145811904Y-100532380D01*
X145835714Y-100508571D01*
X145835714Y-100556190D01*
X146026190Y-100056190D02*
X146335714Y-100056190D01*
X146169047Y-100246666D01*
X146240476Y-100246666D01*
X146288095Y-100270476D01*
X146311904Y-100294285D01*
X146335714Y-100341904D01*
X146335714Y-100460952D01*
X146311904Y-100508571D01*
X146288095Y-100532380D01*
X146240476Y-100556190D01*
X146097619Y-100556190D01*
X146050000Y-100532380D01*
X146026190Y-100508571D01*
X146478571Y-100056190D02*
X146645238Y-100556190D01*
X146811904Y-100056190D01*
X143129047Y-100080000D02*
X143081428Y-100056190D01*
X143010000Y-100056190D01*
X142938571Y-100080000D01*
X142890952Y-100127619D01*
X142867142Y-100175238D01*
X142843333Y-100270476D01*
X142843333Y-100341904D01*
X142867142Y-100437142D01*
X142890952Y-100484761D01*
X142938571Y-100532380D01*
X143010000Y-100556190D01*
X143057619Y-100556190D01*
X143129047Y-100532380D01*
X143152857Y-100508571D01*
X143152857Y-100341904D01*
X143057619Y-100341904D01*
X143367142Y-100556190D02*
X143367142Y-100056190D01*
X143652857Y-100556190D01*
X143652857Y-100056190D01*
X143890952Y-100556190D02*
X143890952Y-100056190D01*
X144010000Y-100056190D01*
X144081428Y-100080000D01*
X144129047Y-100127619D01*
X144152857Y-100175238D01*
X144176666Y-100270476D01*
X144176666Y-100341904D01*
X144152857Y-100437142D01*
X144129047Y-100484761D01*
X144081428Y-100532380D01*
X144010000Y-100556190D01*
X143890952Y-100556190D01*
X148494761Y-108946190D02*
X148256666Y-108946190D01*
X148232857Y-109184285D01*
X148256666Y-109160476D01*
X148304285Y-109136666D01*
X148423333Y-109136666D01*
X148470952Y-109160476D01*
X148494761Y-109184285D01*
X148518571Y-109231904D01*
X148518571Y-109350952D01*
X148494761Y-109398571D01*
X148470952Y-109422380D01*
X148423333Y-109446190D01*
X148304285Y-109446190D01*
X148256666Y-109422380D01*
X148232857Y-109398571D01*
X148661428Y-108946190D02*
X148828095Y-109446190D01*
X148994761Y-108946190D01*
X145311904Y-108946190D02*
X145621428Y-108946190D01*
X145454761Y-109136666D01*
X145526190Y-109136666D01*
X145573809Y-109160476D01*
X145597619Y-109184285D01*
X145621428Y-109231904D01*
X145621428Y-109350952D01*
X145597619Y-109398571D01*
X145573809Y-109422380D01*
X145526190Y-109446190D01*
X145383333Y-109446190D01*
X145335714Y-109422380D01*
X145311904Y-109398571D01*
X145835714Y-109398571D02*
X145859523Y-109422380D01*
X145835714Y-109446190D01*
X145811904Y-109422380D01*
X145835714Y-109398571D01*
X145835714Y-109446190D01*
X146026190Y-108946190D02*
X146335714Y-108946190D01*
X146169047Y-109136666D01*
X146240476Y-109136666D01*
X146288095Y-109160476D01*
X146311904Y-109184285D01*
X146335714Y-109231904D01*
X146335714Y-109350952D01*
X146311904Y-109398571D01*
X146288095Y-109422380D01*
X146240476Y-109446190D01*
X146097619Y-109446190D01*
X146050000Y-109422380D01*
X146026190Y-109398571D01*
X146478571Y-108946190D02*
X146645238Y-109446190D01*
X146811904Y-108946190D01*
X143129047Y-108970000D02*
X143081428Y-108946190D01*
X143010000Y-108946190D01*
X142938571Y-108970000D01*
X142890952Y-109017619D01*
X142867142Y-109065238D01*
X142843333Y-109160476D01*
X142843333Y-109231904D01*
X142867142Y-109327142D01*
X142890952Y-109374761D01*
X142938571Y-109422380D01*
X143010000Y-109446190D01*
X143057619Y-109446190D01*
X143129047Y-109422380D01*
X143152857Y-109398571D01*
X143152857Y-109231904D01*
X143057619Y-109231904D01*
X143367142Y-109446190D02*
X143367142Y-108946190D01*
X143652857Y-109446190D01*
X143652857Y-108946190D01*
X143890952Y-109446190D02*
X143890952Y-108946190D01*
X144010000Y-108946190D01*
X144081428Y-108970000D01*
X144129047Y-109017619D01*
X144152857Y-109065238D01*
X144176666Y-109160476D01*
X144176666Y-109231904D01*
X144152857Y-109327142D01*
X144129047Y-109374761D01*
X144081428Y-109422380D01*
X144010000Y-109446190D01*
X143890952Y-109446190D01*
D11*
X102928333Y-100855714D02*
X102861666Y-100927142D01*
X102661666Y-100998571D01*
X102528333Y-100998571D01*
X102328333Y-100927142D01*
X102195000Y-100784285D01*
X102128333Y-100641428D01*
X102061666Y-100355714D01*
X102061666Y-100141428D01*
X102128333Y-99855714D01*
X102195000Y-99712857D01*
X102328333Y-99570000D01*
X102528333Y-99498571D01*
X102661666Y-99498571D01*
X102861666Y-99570000D01*
X102928333Y-99641428D01*
X103395000Y-99998571D02*
X103728333Y-100998571D01*
X104061666Y-99998571D02*
X103728333Y-100998571D01*
X103595000Y-101355714D01*
X103528333Y-101427142D01*
X103395000Y-101498571D01*
X104595000Y-100998571D02*
X104595000Y-99498571D01*
X104595000Y-100070000D02*
X104728333Y-99998571D01*
X104995000Y-99998571D01*
X105128333Y-100070000D01*
X105195000Y-100141428D01*
X105261666Y-100284285D01*
X105261666Y-100712857D01*
X105195000Y-100855714D01*
X105128333Y-100927142D01*
X104995000Y-100998571D01*
X104728333Y-100998571D01*
X104595000Y-100927142D01*
X106395000Y-100927142D02*
X106261666Y-100998571D01*
X105995000Y-100998571D01*
X105861666Y-100927142D01*
X105795000Y-100784285D01*
X105795000Y-100212857D01*
X105861666Y-100070000D01*
X105995000Y-99998571D01*
X106261666Y-99998571D01*
X106395000Y-100070000D01*
X106461666Y-100212857D01*
X106461666Y-100355714D01*
X105795000Y-100498571D01*
X107061666Y-100998571D02*
X107061666Y-99998571D01*
X107061666Y-100284285D02*
X107128333Y-100141428D01*
X107195000Y-100070000D01*
X107328333Y-99998571D01*
X107461666Y-99998571D01*
X108661666Y-99570000D02*
X108528333Y-99498571D01*
X108328333Y-99498571D01*
X108128333Y-99570000D01*
X107995000Y-99712857D01*
X107928333Y-99855714D01*
X107861666Y-100141428D01*
X107861666Y-100355714D01*
X107928333Y-100641428D01*
X107995000Y-100784285D01*
X108128333Y-100927142D01*
X108328333Y-100998571D01*
X108461666Y-100998571D01*
X108661666Y-100927142D01*
X108728333Y-100855714D01*
X108728333Y-100355714D01*
X108461666Y-100355714D01*
X109861666Y-100927142D02*
X109728333Y-100998571D01*
X109461666Y-100998571D01*
X109328333Y-100927142D01*
X109261666Y-100784285D01*
X109261666Y-100212857D01*
X109328333Y-100070000D01*
X109461666Y-99998571D01*
X109728333Y-99998571D01*
X109861666Y-100070000D01*
X109928333Y-100212857D01*
X109928333Y-100355714D01*
X109261666Y-100498571D01*
X110528333Y-99998571D02*
X110528333Y-100998571D01*
X110528333Y-100141428D02*
X110595000Y-100070000D01*
X110728333Y-99998571D01*
X110928333Y-99998571D01*
X111061666Y-100070000D01*
X111128333Y-100212857D01*
X111128333Y-100998571D01*
X112328333Y-100927142D02*
X112195000Y-100998571D01*
X111928333Y-100998571D01*
X111795000Y-100927142D01*
X111728333Y-100784285D01*
X111728333Y-100212857D01*
X111795000Y-100070000D01*
X111928333Y-99998571D01*
X112195000Y-99998571D01*
X112328333Y-100070000D01*
X112395000Y-100212857D01*
X112395000Y-100355714D01*
X111728333Y-100498571D01*
X102128333Y-103548571D02*
X102128333Y-102048571D01*
X102661666Y-102048571D01*
X102795000Y-102120000D01*
X102861666Y-102191428D01*
X102928333Y-102334285D01*
X102928333Y-102548571D01*
X102861666Y-102691428D01*
X102795000Y-102762857D01*
X102661666Y-102834285D01*
X102128333Y-102834285D01*
X103528333Y-103548571D02*
X103528333Y-102548571D01*
X103528333Y-102048571D02*
X103461666Y-102120000D01*
X103528333Y-102191428D01*
X103595000Y-102120000D01*
X103528333Y-102048571D01*
X103528333Y-102191428D01*
X104795000Y-103548571D02*
X104795000Y-102762857D01*
X104728333Y-102620000D01*
X104595000Y-102548571D01*
X104328333Y-102548571D01*
X104195000Y-102620000D01*
X104795000Y-103477142D02*
X104661666Y-103548571D01*
X104328333Y-103548571D01*
X104195000Y-103477142D01*
X104128333Y-103334285D01*
X104128333Y-103191428D01*
X104195000Y-103048571D01*
X104328333Y-102977142D01*
X104661666Y-102977142D01*
X104795000Y-102905714D01*
X105461666Y-102548571D02*
X105461666Y-103548571D01*
X105461666Y-102691428D02*
X105528333Y-102620000D01*
X105661666Y-102548571D01*
X105861666Y-102548571D01*
X105995000Y-102620000D01*
X106061666Y-102762857D01*
X106061666Y-103548571D01*
X106928333Y-103548571D02*
X106795000Y-103477142D01*
X106728333Y-103405714D01*
X106661666Y-103262857D01*
X106661666Y-102834285D01*
X106728333Y-102691428D01*
X106795000Y-102620000D01*
X106928333Y-102548571D01*
X107128333Y-102548571D01*
X107261666Y-102620000D01*
X107328333Y-102691428D01*
X107395000Y-102834285D01*
X107395000Y-103262857D01*
X107328333Y-103405714D01*
X107261666Y-103477142D01*
X107128333Y-103548571D01*
X106928333Y-103548571D01*
X102128333Y-106098571D02*
X102128333Y-104598571D01*
X102928333Y-106098571D02*
X102328333Y-105241428D01*
X102928333Y-104598571D02*
X102128333Y-105455714D01*
X104061666Y-106027142D02*
X103928333Y-106098571D01*
X103661666Y-106098571D01*
X103528333Y-106027142D01*
X103461666Y-105884285D01*
X103461666Y-105312857D01*
X103528333Y-105170000D01*
X103661666Y-105098571D01*
X103928333Y-105098571D01*
X104061666Y-105170000D01*
X104128333Y-105312857D01*
X104128333Y-105455714D01*
X103461666Y-105598571D01*
X104595000Y-105098571D02*
X104928333Y-106098571D01*
X105261666Y-105098571D02*
X104928333Y-106098571D01*
X104795000Y-106455714D01*
X104728333Y-106527142D01*
X104595000Y-106598571D01*
X106861666Y-106098571D02*
X106861666Y-104598571D01*
X107328333Y-105670000D01*
X107795000Y-104598571D01*
X107795000Y-106098571D01*
X108661666Y-106098571D02*
X108528333Y-106027142D01*
X108461666Y-105955714D01*
X108395000Y-105812857D01*
X108395000Y-105384285D01*
X108461666Y-105241428D01*
X108528333Y-105170000D01*
X108661666Y-105098571D01*
X108861666Y-105098571D01*
X108995000Y-105170000D01*
X109061666Y-105241428D01*
X109128333Y-105384285D01*
X109128333Y-105812857D01*
X109061666Y-105955714D01*
X108995000Y-106027142D01*
X108861666Y-106098571D01*
X108661666Y-106098571D01*
X110328333Y-106098571D02*
X110328333Y-104598571D01*
X110328333Y-106027142D02*
X110195000Y-106098571D01*
X109928333Y-106098571D01*
X109795000Y-106027142D01*
X109728333Y-105955714D01*
X109661666Y-105812857D01*
X109661666Y-105384285D01*
X109728333Y-105241428D01*
X109795000Y-105170000D01*
X109928333Y-105098571D01*
X110195000Y-105098571D01*
X110328333Y-105170000D01*
X111595000Y-105098571D02*
X111595000Y-106098571D01*
X110995000Y-105098571D02*
X110995000Y-105884285D01*
X111061666Y-106027142D01*
X111195000Y-106098571D01*
X111395000Y-106098571D01*
X111528333Y-106027142D01*
X111595000Y-105955714D01*
X112461666Y-106098571D02*
X112328333Y-106027142D01*
X112261666Y-105884285D01*
X112261666Y-104598571D01*
X113528333Y-106027142D02*
X113395000Y-106098571D01*
X113128333Y-106098571D01*
X112995000Y-106027142D01*
X112928333Y-105884285D01*
X112928333Y-105312857D01*
X112995000Y-105170000D01*
X113128333Y-105098571D01*
X113395000Y-105098571D01*
X113528333Y-105170000D01*
X113595000Y-105312857D01*
X113595000Y-105455714D01*
X112928333Y-105598571D01*
D10*
G04 #@! TO.C,CMP1*
X115874800Y-74726800D02*
G75*
G02X116484400Y-74726800I304800J0D01*
G01*
D12*
X116484400Y-74726800D02*
X117348000Y-74726800D01*
X115874800Y-74726800D02*
X116484400Y-74726800D01*
X115036600Y-74726800D02*
X115874800Y-74726800D01*
X117348000Y-65989200D02*
X115036600Y-65989200D01*
G04 #@! TO.C,CMP2*
X108712000Y-65989200D02*
X106400600Y-65989200D01*
X106400600Y-74726800D02*
X107238800Y-74726800D01*
X107238800Y-74726800D02*
X107848400Y-74726800D01*
X107848400Y-74726800D02*
X108712000Y-74726800D01*
D10*
X107238800Y-74726800D02*
G75*
G02X107848400Y-74726800I304800J0D01*
G01*
G04 #@! TO.C,CMP3*
X146354800Y-74726800D02*
G75*
G02X146964400Y-74726800I304800J0D01*
G01*
D12*
X146964400Y-74726800D02*
X147828000Y-74726800D01*
X146354800Y-74726800D02*
X146964400Y-74726800D01*
X145516600Y-74726800D02*
X146354800Y-74726800D01*
X147828000Y-65989200D02*
X145516600Y-65989200D01*
G04 #@! TO.C,CMP4*
X139192000Y-65989200D02*
X136880600Y-65989200D01*
X136880600Y-74726800D02*
X137718800Y-74726800D01*
X137718800Y-74726800D02*
X138328400Y-74726800D01*
X138328400Y-74726800D02*
X139192000Y-74726800D01*
D10*
X137718800Y-74726800D02*
G75*
G02X138328400Y-74726800I304800J0D01*
G01*
D13*
G04 #@! TO.C,COMM1*
X125730000Y-69520000D02*
X125130000Y-68920000D01*
X126330000Y-68920000D02*
X125730000Y-69520000D01*
X125130000Y-68920000D02*
X126330000Y-68920000D01*
X131570000Y-68470000D02*
X131570000Y-68970000D01*
X131670000Y-68970000D02*
X131470000Y-68970000D01*
X131670000Y-68470000D02*
X131670000Y-68970000D01*
X131470000Y-68470000D02*
X131670000Y-68470000D01*
X131570000Y-113910000D02*
X131570000Y-114410000D01*
X131670000Y-114410000D02*
X131470000Y-114410000D01*
X131670000Y-113910000D02*
X131670000Y-114410000D01*
X131470000Y-113910000D02*
X131670000Y-113910000D01*
X131570000Y-91190000D02*
X131570000Y-91690000D01*
X131670000Y-91690000D02*
X131470000Y-91690000D01*
X131670000Y-91190000D02*
X131670000Y-91690000D01*
X131470000Y-91190000D02*
X131670000Y-91190000D01*
X123830000Y-93665000D02*
X122530000Y-93665000D01*
X123830000Y-115630000D02*
X123830000Y-93665000D01*
X130170000Y-115630000D02*
X123830000Y-115630000D01*
X130170000Y-67250000D02*
X130170000Y-115630000D01*
X123830000Y-67250000D02*
X130170000Y-67250000D01*
X123830000Y-89215000D02*
X123830000Y-67250000D01*
X122530000Y-89215000D02*
X123830000Y-89215000D01*
X122530000Y-116830000D02*
X122530000Y-66050000D01*
X131470000Y-116830000D02*
X122530000Y-116830000D01*
X131470000Y-66050000D02*
X131470000Y-116830000D01*
X122530000Y-66050000D02*
X131470000Y-66050000D01*
D14*
G04 #@! TO.C,J1*
X110550000Y-43120000D02*
X110550000Y-44450000D01*
X109220000Y-43120000D02*
X110550000Y-43120000D01*
X107950000Y-43120000D02*
X107950000Y-45780000D01*
X107950000Y-45780000D02*
X102810000Y-45780000D01*
X107950000Y-43120000D02*
X102810000Y-43120000D01*
X102810000Y-43120000D02*
X102810000Y-45780000D01*
G04 #@! TO.C,J2*
X112970000Y-43120000D02*
X112970000Y-45780000D01*
X118110000Y-43120000D02*
X112970000Y-43120000D01*
X118110000Y-45780000D02*
X112970000Y-45780000D01*
X118110000Y-43120000D02*
X118110000Y-45780000D01*
X119380000Y-43120000D02*
X120710000Y-43120000D01*
X120710000Y-43120000D02*
X120710000Y-44450000D01*
G04 #@! TO.C,J3*
X141030000Y-43120000D02*
X141030000Y-44450000D01*
X139700000Y-43120000D02*
X141030000Y-43120000D01*
X138430000Y-43120000D02*
X138430000Y-45780000D01*
X138430000Y-45780000D02*
X133290000Y-45780000D01*
X138430000Y-43120000D02*
X133290000Y-43120000D01*
X133290000Y-43120000D02*
X133290000Y-45780000D01*
G04 #@! TO.C,J4*
X143450000Y-43120000D02*
X143450000Y-45780000D01*
X148590000Y-43120000D02*
X143450000Y-43120000D01*
X148590000Y-45780000D02*
X143450000Y-45780000D01*
X148590000Y-43120000D02*
X148590000Y-45780000D01*
X149860000Y-43120000D02*
X151190000Y-43120000D01*
X151190000Y-43120000D02*
X151190000Y-44450000D01*
G04 #@! TO.C,J5*
X130870000Y-43120000D02*
X130870000Y-44450000D01*
X129540000Y-43120000D02*
X130870000Y-43120000D01*
X128270000Y-43120000D02*
X128270000Y-45780000D01*
X128270000Y-45780000D02*
X123130000Y-45780000D01*
X128270000Y-43120000D02*
X123130000Y-43120000D01*
X123130000Y-43120000D02*
X123130000Y-45780000D01*
G04 #@! TO.C,R1*
X145280000Y-95930000D02*
X144280000Y-95930000D01*
X144280000Y-94570000D02*
X145280000Y-94570000D01*
G04 #@! TO.C,R11*
X118288000Y-75520000D02*
X119288000Y-75520000D01*
X119288000Y-76880000D02*
X118288000Y-76880000D01*
G04 #@! TO.C,R12*
X119288000Y-78912000D02*
X118288000Y-78912000D01*
X118288000Y-77552000D02*
X119288000Y-77552000D01*
G04 #@! TO.C,R13*
X114716000Y-76880000D02*
X113716000Y-76880000D01*
X113716000Y-75520000D02*
X114716000Y-75520000D01*
G04 #@! TO.C,R14*
X113716000Y-77552000D02*
X114716000Y-77552000D01*
X114716000Y-78912000D02*
X113716000Y-78912000D01*
G04 #@! TO.C,R18*
X106180000Y-46945000D02*
X107180000Y-46945000D01*
X107180000Y-48305000D02*
X106180000Y-48305000D01*
G04 #@! TO.C,R21*
X109144000Y-75520000D02*
X110144000Y-75520000D01*
X110144000Y-76880000D02*
X109144000Y-76880000D01*
G04 #@! TO.C,R22*
X110144000Y-78912000D02*
X109144000Y-78912000D01*
X109144000Y-77552000D02*
X110144000Y-77552000D01*
G04 #@! TO.C,R23*
X105572000Y-76880000D02*
X104572000Y-76880000D01*
X104572000Y-75520000D02*
X105572000Y-75520000D01*
G04 #@! TO.C,R24*
X104572000Y-77552000D02*
X105572000Y-77552000D01*
X105572000Y-78912000D02*
X104572000Y-78912000D01*
G04 #@! TO.C,R28*
X117170000Y-48305000D02*
X116170000Y-48305000D01*
X116170000Y-46945000D02*
X117170000Y-46945000D01*
G04 #@! TO.C,R31*
X149260000Y-76880000D02*
X148260000Y-76880000D01*
X148260000Y-75520000D02*
X149260000Y-75520000D01*
G04 #@! TO.C,R32*
X149260000Y-78912000D02*
X148260000Y-78912000D01*
X148260000Y-77552000D02*
X149260000Y-77552000D01*
G04 #@! TO.C,R33*
X143688000Y-75520000D02*
X144688000Y-75520000D01*
X144688000Y-76880000D02*
X143688000Y-76880000D01*
G04 #@! TO.C,R34*
X144688000Y-78912000D02*
X143688000Y-78912000D01*
X143688000Y-77552000D02*
X144688000Y-77552000D01*
G04 #@! TO.C,R38*
X136490000Y-46945000D02*
X137490000Y-46945000D01*
X137490000Y-48305000D02*
X136490000Y-48305000D01*
G04 #@! TO.C,R41*
X139116000Y-77552000D02*
X140116000Y-77552000D01*
X140116000Y-78912000D02*
X139116000Y-78912000D01*
G04 #@! TO.C,R42*
X140116000Y-76880000D02*
X139116000Y-76880000D01*
X139116000Y-75520000D02*
X140116000Y-75520000D01*
G04 #@! TO.C,R43*
X135628000Y-78912000D02*
X134628000Y-78912000D01*
X134628000Y-77552000D02*
X135628000Y-77552000D01*
G04 #@! TO.C,R44*
X135544000Y-76880000D02*
X134544000Y-76880000D01*
X134544000Y-75520000D02*
X135544000Y-75520000D01*
G04 #@! TO.C,R48*
X146650000Y-46945000D02*
X147650000Y-46945000D01*
X147650000Y-48305000D02*
X146650000Y-48305000D01*
G04 #@! TO.C,R58*
X127330000Y-48305000D02*
X126330000Y-48305000D01*
X126330000Y-46945000D02*
X127330000Y-46945000D01*
G04 #@! TO.C,RV11*
X110911000Y-52345000D02*
X109299000Y-53955000D01*
X111051000Y-52486000D02*
X109440000Y-54096000D01*
X111505000Y-49600000D02*
X111505000Y-54551000D01*
X101855000Y-49600000D02*
X101855000Y-54551000D01*
X101855000Y-54551000D02*
X111505000Y-54551000D01*
X101855000Y-49600000D02*
X111505000Y-49600000D01*
X110195121Y-54374052D02*
G75*
G02X109046000Y-52980000I-20121J1154052D01*
G01*
X110134691Y-52065704D02*
G75*
G02X110175000Y-54375000I40309J-1154296D01*
G01*
G04 #@! TO.C,RV12*
X110134691Y-57145704D02*
G75*
G02X110175000Y-59455000I40309J-1154296D01*
G01*
X110195121Y-59454052D02*
G75*
G02X109046000Y-58060000I-20121J1154052D01*
G01*
X101855000Y-54680000D02*
X111505000Y-54680000D01*
X101855000Y-59631000D02*
X111505000Y-59631000D01*
X101855000Y-54680000D02*
X101855000Y-59631000D01*
X111505000Y-54680000D02*
X111505000Y-59631000D01*
X111051000Y-57566000D02*
X109440000Y-59176000D01*
X110911000Y-57425000D02*
X109299000Y-59035000D01*
G04 #@! TO.C,RV13*
X110911000Y-62505000D02*
X109299000Y-64115000D01*
X111051000Y-62646000D02*
X109440000Y-64256000D01*
X111505000Y-59760000D02*
X111505000Y-64711000D01*
X101855000Y-59760000D02*
X101855000Y-64711000D01*
X101855000Y-64711000D02*
X111505000Y-64711000D01*
X101855000Y-59760000D02*
X111505000Y-59760000D01*
X110195121Y-64534052D02*
G75*
G02X109046000Y-63140000I-20121J1154052D01*
G01*
X110134691Y-62225704D02*
G75*
G02X110175000Y-64535000I40309J-1154296D01*
G01*
G04 #@! TO.C,RV21*
X120294691Y-52065704D02*
G75*
G02X120335000Y-54375000I40309J-1154296D01*
G01*
X120355121Y-54374052D02*
G75*
G02X119206000Y-52980000I-20121J1154052D01*
G01*
X112015000Y-49600000D02*
X121665000Y-49600000D01*
X112015000Y-54551000D02*
X121665000Y-54551000D01*
X112015000Y-49600000D02*
X112015000Y-54551000D01*
X121665000Y-49600000D02*
X121665000Y-54551000D01*
X121211000Y-52486000D02*
X119600000Y-54096000D01*
X121071000Y-52345000D02*
X119459000Y-53955000D01*
G04 #@! TO.C,RV22*
X121071000Y-57425000D02*
X119459000Y-59035000D01*
X121211000Y-57566000D02*
X119600000Y-59176000D01*
X121665000Y-54680000D02*
X121665000Y-59631000D01*
X112015000Y-54680000D02*
X112015000Y-59631000D01*
X112015000Y-59631000D02*
X121665000Y-59631000D01*
X112015000Y-54680000D02*
X121665000Y-54680000D01*
X120355121Y-59454052D02*
G75*
G02X119206000Y-58060000I-20121J1154052D01*
G01*
X120294691Y-57145704D02*
G75*
G02X120335000Y-59455000I40309J-1154296D01*
G01*
G04 #@! TO.C,RV23*
X120294691Y-62225704D02*
G75*
G02X120335000Y-64535000I40309J-1154296D01*
G01*
X120355121Y-64534052D02*
G75*
G02X119206000Y-63140000I-20121J1154052D01*
G01*
X112015000Y-59760000D02*
X121665000Y-59760000D01*
X112015000Y-64711000D02*
X121665000Y-64711000D01*
X112015000Y-59760000D02*
X112015000Y-64711000D01*
X121665000Y-59760000D02*
X121665000Y-64711000D01*
X121211000Y-62646000D02*
X119600000Y-64256000D01*
X121071000Y-62505000D02*
X119459000Y-64115000D01*
G04 #@! TO.C,RV31*
X141391000Y-52345000D02*
X139779000Y-53955000D01*
X141531000Y-52486000D02*
X139920000Y-54096000D01*
X141985000Y-49600000D02*
X141985000Y-54551000D01*
X132335000Y-49600000D02*
X132335000Y-54551000D01*
X132335000Y-54551000D02*
X141985000Y-54551000D01*
X132335000Y-49600000D02*
X141985000Y-49600000D01*
X140675121Y-54374052D02*
G75*
G02X139526000Y-52980000I-20121J1154052D01*
G01*
X140614691Y-52065704D02*
G75*
G02X140655000Y-54375000I40309J-1154296D01*
G01*
G04 #@! TO.C,RV32*
X140614691Y-57145704D02*
G75*
G02X140655000Y-59455000I40309J-1154296D01*
G01*
X140675121Y-59454052D02*
G75*
G02X139526000Y-58060000I-20121J1154052D01*
G01*
X132335000Y-54680000D02*
X141985000Y-54680000D01*
X132335000Y-59631000D02*
X141985000Y-59631000D01*
X132335000Y-54680000D02*
X132335000Y-59631000D01*
X141985000Y-54680000D02*
X141985000Y-59631000D01*
X141531000Y-57566000D02*
X139920000Y-59176000D01*
X141391000Y-57425000D02*
X139779000Y-59035000D01*
G04 #@! TO.C,RV33*
X141391000Y-62505000D02*
X139779000Y-64115000D01*
X141531000Y-62646000D02*
X139920000Y-64256000D01*
X141985000Y-59760000D02*
X141985000Y-64711000D01*
X132335000Y-59760000D02*
X132335000Y-64711000D01*
X132335000Y-64711000D02*
X141985000Y-64711000D01*
X132335000Y-59760000D02*
X141985000Y-59760000D01*
X140675121Y-64534052D02*
G75*
G02X139526000Y-63140000I-20121J1154052D01*
G01*
X140614691Y-62225704D02*
G75*
G02X140655000Y-64535000I40309J-1154296D01*
G01*
G04 #@! TO.C,RV41*
X150774691Y-52065704D02*
G75*
G02X150815000Y-54375000I40309J-1154296D01*
G01*
X150835121Y-54374052D02*
G75*
G02X149686000Y-52980000I-20121J1154052D01*
G01*
X142495000Y-49600000D02*
X152145000Y-49600000D01*
X142495000Y-54551000D02*
X152145000Y-54551000D01*
X142495000Y-49600000D02*
X142495000Y-54551000D01*
X152145000Y-49600000D02*
X152145000Y-54551000D01*
X151691000Y-52486000D02*
X150080000Y-54096000D01*
X151551000Y-52345000D02*
X149939000Y-53955000D01*
G04 #@! TO.C,RV42*
X151551000Y-57425000D02*
X149939000Y-59035000D01*
X151691000Y-57566000D02*
X150080000Y-59176000D01*
X152145000Y-54680000D02*
X152145000Y-59631000D01*
X142495000Y-54680000D02*
X142495000Y-59631000D01*
X142495000Y-59631000D02*
X152145000Y-59631000D01*
X142495000Y-54680000D02*
X152145000Y-54680000D01*
X150835121Y-59454052D02*
G75*
G02X149686000Y-58060000I-20121J1154052D01*
G01*
X150774691Y-57145704D02*
G75*
G02X150815000Y-59455000I40309J-1154296D01*
G01*
G04 #@! TO.C,RV43*
X150774691Y-62225704D02*
G75*
G02X150815000Y-64535000I40309J-1154296D01*
G01*
X150835121Y-64534052D02*
G75*
G02X149686000Y-63140000I-20121J1154052D01*
G01*
X142495000Y-59760000D02*
X152145000Y-59760000D01*
X142495000Y-64711000D02*
X152145000Y-64711000D01*
X142495000Y-59760000D02*
X142495000Y-64711000D01*
X152145000Y-59760000D02*
X152145000Y-64711000D01*
X151691000Y-62646000D02*
X150080000Y-64256000D01*
X151551000Y-62505000D02*
X149939000Y-64115000D01*
G04 #@! TO.C,RV51*
X131231000Y-52345000D02*
X129619000Y-53955000D01*
X131371000Y-52486000D02*
X129760000Y-54096000D01*
X131825000Y-49600000D02*
X131825000Y-54551000D01*
X122175000Y-49600000D02*
X122175000Y-54551000D01*
X122175000Y-54551000D02*
X131825000Y-54551000D01*
X122175000Y-49600000D02*
X131825000Y-49600000D01*
X130515121Y-54374052D02*
G75*
G02X129366000Y-52980000I-20121J1154052D01*
G01*
X130454691Y-52065704D02*
G75*
G02X130495000Y-54375000I40309J-1154296D01*
G01*
G04 #@! TO.C,RV52*
X131231000Y-57425000D02*
X129619000Y-59035000D01*
X131371000Y-57566000D02*
X129760000Y-59176000D01*
X131825000Y-54680000D02*
X131825000Y-59631000D01*
X122175000Y-54680000D02*
X122175000Y-59631000D01*
X122175000Y-59631000D02*
X131825000Y-59631000D01*
X122175000Y-54680000D02*
X131825000Y-54680000D01*
X130515121Y-59454052D02*
G75*
G02X129366000Y-58060000I-20121J1154052D01*
G01*
X130454691Y-57145704D02*
G75*
G02X130495000Y-59455000I40309J-1154296D01*
G01*
G04 #@! TO.C,RV53*
X130454691Y-62225704D02*
G75*
G02X130495000Y-64535000I40309J-1154296D01*
G01*
X130515121Y-64534052D02*
G75*
G02X129366000Y-63140000I-20121J1154052D01*
G01*
X122175000Y-59760000D02*
X131825000Y-59760000D01*
X122175000Y-64711000D02*
X131825000Y-64711000D01*
X122175000Y-59760000D02*
X122175000Y-64711000D01*
X131825000Y-59760000D02*
X131825000Y-64711000D01*
X131371000Y-62646000D02*
X129760000Y-64256000D01*
X131231000Y-62505000D02*
X129619000Y-64115000D01*
D10*
G04 #@! TO.C,TX1*
X120802400Y-86664800D02*
G75*
G02X120802400Y-86055200I0J304800D01*
G01*
D12*
X120015000Y-79756000D02*
G75*
G02X120015000Y-80162400I0J-203200D01*
G01*
X120015000Y-80162400D02*
G75*
G02X120015000Y-79756000I0J203200D01*
G01*
X120802400Y-82550000D02*
X120624600Y-82550000D01*
X120802400Y-86055200D02*
X120802400Y-82550000D01*
X120802400Y-86664800D02*
X120802400Y-86055200D01*
X120802400Y-90170000D02*
X120802400Y-86664800D01*
X107797600Y-90170000D02*
X107975400Y-90170000D01*
X107797600Y-82550000D02*
X107797600Y-90170000D01*
X107975400Y-82550000D02*
X107797600Y-82550000D01*
X120624600Y-90170000D02*
X120802400Y-90170000D01*
G04 #@! TO.C,TX2*
X146024600Y-90170000D02*
X146202400Y-90170000D01*
X133375400Y-82550000D02*
X133197600Y-82550000D01*
X133197600Y-82550000D02*
X133197600Y-90170000D01*
X133197600Y-90170000D02*
X133375400Y-90170000D01*
X146202400Y-90170000D02*
X146202400Y-86664800D01*
X146202400Y-86664800D02*
X146202400Y-86055200D01*
X146202400Y-86055200D02*
X146202400Y-82550000D01*
X146202400Y-82550000D02*
X146024600Y-82550000D01*
X145415000Y-80162400D02*
G75*
G02X145415000Y-79756000I0J203200D01*
G01*
X145415000Y-79756000D02*
G75*
G02X145415000Y-80162400I0J-203200D01*
G01*
D10*
X146202400Y-86664800D02*
G75*
G02X146202400Y-86055200I0J304800D01*
G01*
D14*
G04 #@! TO.C,SEL2*
X133290000Y-93920000D02*
X134620000Y-93920000D01*
X133290000Y-95250000D02*
X133290000Y-93920000D01*
X135890000Y-93920000D02*
X138490000Y-93920000D01*
X135890000Y-96520000D02*
X135890000Y-93920000D01*
X133290000Y-96520000D02*
X135890000Y-96520000D01*
X138490000Y-93920000D02*
X138490000Y-116900000D01*
X133290000Y-96520000D02*
X133290000Y-116900000D01*
X133290000Y-116900000D02*
X138490000Y-116900000D01*
G04 #@! TO.C,SEL1*
X115510000Y-93920000D02*
X116840000Y-93920000D01*
X115510000Y-95250000D02*
X115510000Y-93920000D01*
X118110000Y-93920000D02*
X120710000Y-93920000D01*
X118110000Y-96520000D02*
X118110000Y-93920000D01*
X115510000Y-96520000D02*
X118110000Y-96520000D01*
X120710000Y-93920000D02*
X120710000Y-116900000D01*
X115510000Y-96520000D02*
X115510000Y-116900000D01*
X115510000Y-116900000D02*
X120710000Y-116900000D01*
G04 #@! TO.C,PWR1*
X140660000Y-101390000D02*
X140660000Y-103890000D01*
X143160000Y-101390000D02*
X140660000Y-101390000D01*
X150310000Y-106890000D02*
X146010000Y-106890000D01*
X150310000Y-103940000D02*
X150310000Y-106890000D01*
X151060000Y-103940000D02*
X150310000Y-103940000D01*
X141710000Y-106890000D02*
X146010000Y-106890000D01*
X141710000Y-103940000D02*
X141710000Y-106890000D01*
X140960000Y-103940000D02*
X141710000Y-103940000D01*
X151060000Y-101690000D02*
X149260000Y-101690000D01*
X151060000Y-102440000D02*
X151060000Y-101690000D01*
X149260000Y-102440000D02*
X151060000Y-102440000D01*
X149260000Y-101690000D02*
X149260000Y-102440000D01*
X142760000Y-101690000D02*
X140960000Y-101690000D01*
X142760000Y-102440000D02*
X142760000Y-101690000D01*
X140960000Y-102440000D02*
X142760000Y-102440000D01*
X140960000Y-101690000D02*
X140960000Y-102440000D01*
X147760000Y-101690000D02*
X144260000Y-101690000D01*
X147760000Y-102440000D02*
X147760000Y-101690000D01*
X144260000Y-102440000D02*
X147760000Y-102440000D01*
X144260000Y-101690000D02*
X144260000Y-102440000D01*
X151060000Y-101690000D02*
X140960000Y-101690000D01*
X151060000Y-107640000D02*
X151060000Y-101690000D01*
X140960000Y-107640000D02*
X151060000Y-107640000D01*
X140960000Y-101690000D02*
X140960000Y-107640000D01*
G04 #@! TO.C,PWR2*
X140960000Y-110580000D02*
X140960000Y-116530000D01*
X140960000Y-116530000D02*
X151060000Y-116530000D01*
X151060000Y-116530000D02*
X151060000Y-110580000D01*
X151060000Y-110580000D02*
X140960000Y-110580000D01*
X144260000Y-110580000D02*
X144260000Y-111330000D01*
X144260000Y-111330000D02*
X147760000Y-111330000D01*
X147760000Y-111330000D02*
X147760000Y-110580000D01*
X147760000Y-110580000D02*
X144260000Y-110580000D01*
X140960000Y-110580000D02*
X140960000Y-111330000D01*
X140960000Y-111330000D02*
X142760000Y-111330000D01*
X142760000Y-111330000D02*
X142760000Y-110580000D01*
X142760000Y-110580000D02*
X140960000Y-110580000D01*
X149260000Y-110580000D02*
X149260000Y-111330000D01*
X149260000Y-111330000D02*
X151060000Y-111330000D01*
X151060000Y-111330000D02*
X151060000Y-110580000D01*
X151060000Y-110580000D02*
X149260000Y-110580000D01*
X140960000Y-112830000D02*
X141710000Y-112830000D01*
X141710000Y-112830000D02*
X141710000Y-115780000D01*
X141710000Y-115780000D02*
X146010000Y-115780000D01*
X151060000Y-112830000D02*
X150310000Y-112830000D01*
X150310000Y-112830000D02*
X150310000Y-115780000D01*
X150310000Y-115780000D02*
X146010000Y-115780000D01*
X143160000Y-110280000D02*
X140660000Y-110280000D01*
X140660000Y-110280000D02*
X140660000Y-112780000D01*
G04 #@! TD*
M02*
