G04 #@! TF.GenerationSoftware,KiCad,Pcbnew,(5.0.2-4-g3082e92af)*
G04 #@! TF.CreationDate,2019-02-04T02:23:37+02:00*
G04 #@! TF.ProjectId,My Piano Controller Note Module 3 (5-note_ 5V pots),4d792050-6961-46e6-9f20-436f6e74726f,rev?*
G04 #@! TF.SameCoordinates,Original*
G04 #@! TF.FileFunction,Copper,L2,Bot*
G04 #@! TF.FilePolarity,Positive*
%FSLAX46Y46*%
G04 Gerber Fmt 4.6, Leading zero omitted, Abs format (unit mm)*
G04 Created by KiCad (PCBNEW (5.0.2-4-g3082e92af)) date 2019 February 04, Monday 02:23:37*
%MOMM*%
%LPD*%
G01*
G04 APERTURE LIST*
G04 #@! TA.AperFunction,ComponentPad*
%ADD10C,1.700000*%
G04 #@! TD*
G04 #@! TA.AperFunction,ComponentPad*
%ADD11R,1.700000X1.700000*%
G04 #@! TD*
G04 #@! TA.AperFunction,ComponentPad*
%ADD12O,1.700000X1.700000*%
G04 #@! TD*
G04 #@! TA.AperFunction,ComponentPad*
%ADD13C,1.440000*%
G04 #@! TD*
G04 #@! TA.AperFunction,ComponentPad*
%ADD14C,1.750000*%
G04 #@! TD*
G04 #@! TA.AperFunction,ComponentPad*
%ADD15R,1.750000X1.750000*%
G04 #@! TD*
G04 #@! TA.AperFunction,SMDPad,CuDef*
%ADD16R,0.750000X1.200000*%
G04 #@! TD*
G04 #@! TA.AperFunction,SMDPad,CuDef*
%ADD17R,1.200000X0.750000*%
G04 #@! TD*
G04 #@! TA.AperFunction,ViaPad*
%ADD18C,0.800000*%
G04 #@! TD*
G04 #@! TA.AperFunction,Conductor*
%ADD19C,0.250000*%
G04 #@! TD*
G04 #@! TA.AperFunction,Conductor*
%ADD20C,0.254000*%
G04 #@! TD*
G04 APERTURE END LIST*
D10*
G04 #@! TO.P,COMM1,34*
G04 #@! TO.N,Net-(COMM1-Pad34)*
X128270000Y-111760000D03*
G04 #@! TO.P,COMM1,33*
G04 #@! TO.N,Net-(COMM1-Pad33)*
X125730000Y-111760000D03*
G04 #@! TO.P,COMM1,32*
G04 #@! TO.N,Net-(COMM1-Pad32)*
X128270000Y-109220000D03*
G04 #@! TO.P,COMM1,31*
G04 #@! TO.N,Net-(COMM1-Pad31)*
X125730000Y-109220000D03*
G04 #@! TO.P,COMM1,30*
G04 #@! TO.N,Net-(COMM1-Pad30)*
X128270000Y-106680000D03*
G04 #@! TO.P,COMM1,29*
G04 #@! TO.N,Net-(COMM1-Pad29)*
X125730000Y-106680000D03*
G04 #@! TO.P,COMM1,28*
G04 #@! TO.N,Net-(COMM1-Pad28)*
X128270000Y-104140000D03*
G04 #@! TO.P,COMM1,27*
G04 #@! TO.N,Net-(COMM1-Pad27)*
X125730000Y-104140000D03*
G04 #@! TO.P,COMM1,26*
G04 #@! TO.N,Net-(COMM1-Pad26)*
X128270000Y-101600000D03*
G04 #@! TO.P,COMM1,25*
G04 #@! TO.N,Net-(COMM1-Pad25)*
X125730000Y-101600000D03*
G04 #@! TO.P,COMM1,24*
G04 #@! TO.N,Net-(COMM1-Pad24)*
X128270000Y-99060000D03*
G04 #@! TO.P,COMM1,23*
G04 #@! TO.N,Net-(COMM1-Pad23)*
X125730000Y-99060000D03*
G04 #@! TO.P,COMM1,22*
G04 #@! TO.N,Net-(COMM1-Pad22)*
X128270000Y-96520000D03*
G04 #@! TO.P,COMM1,21*
G04 #@! TO.N,Net-(COMM1-Pad21)*
X125730000Y-96520000D03*
G04 #@! TO.P,COMM1,20*
G04 #@! TO.N,Net-(COMM1-Pad20)*
X128270000Y-93980000D03*
G04 #@! TO.P,COMM1,19*
G04 #@! TO.N,Net-(COMM1-Pad19)*
X125730000Y-93980000D03*
G04 #@! TO.P,COMM1,18*
G04 #@! TO.N,Net-(COMM1-Pad18)*
X128270000Y-91440000D03*
G04 #@! TO.P,COMM1,17*
G04 #@! TO.N,Net-(COMM1-Pad17)*
X125730000Y-91440000D03*
G04 #@! TO.P,COMM1,16*
G04 #@! TO.N,GND*
X128270000Y-88900000D03*
G04 #@! TO.P,COMM1,15*
G04 #@! TO.N,Net-(COMM1-Pad15)*
X125730000Y-88900000D03*
G04 #@! TO.P,COMM1,14*
G04 #@! TO.N,Net-(COMM1-Pad14)*
X128270000Y-86360000D03*
G04 #@! TO.P,COMM1,13*
G04 #@! TO.N,Net-(COMM1-Pad13)*
X125730000Y-86360000D03*
G04 #@! TO.P,COMM1,12*
G04 #@! TO.N,Net-(COMM1-Pad12)*
X128270000Y-83820000D03*
G04 #@! TO.P,COMM1,11*
G04 #@! TO.N,Net-(COMM1-Pad11)*
X125730000Y-83820000D03*
G04 #@! TO.P,COMM1,10*
G04 #@! TO.N,Net-(COMM1-Pad10)*
X128270000Y-81280000D03*
G04 #@! TO.P,COMM1,9*
G04 #@! TO.N,Net-(COMM1-Pad9)*
X125730000Y-81280000D03*
G04 #@! TO.P,COMM1,8*
G04 #@! TO.N,Net-(COMM1-Pad8)*
X128270000Y-78740000D03*
G04 #@! TO.P,COMM1,7*
G04 #@! TO.N,Net-(COMM1-Pad7)*
X125730000Y-78740000D03*
G04 #@! TO.P,COMM1,6*
G04 #@! TO.N,Net-(COMM1-Pad6)*
X128270000Y-76200000D03*
G04 #@! TO.P,COMM1,5*
G04 #@! TO.N,Net-(COMM1-Pad5)*
X125730000Y-76200000D03*
G04 #@! TO.P,COMM1,4*
G04 #@! TO.N,Net-(COMM1-Pad4)*
X128270000Y-73660000D03*
G04 #@! TO.P,COMM1,3*
G04 #@! TO.N,Net-(COMM1-Pad3)*
X125730000Y-73660000D03*
G04 #@! TO.P,COMM1,2*
G04 #@! TO.N,Net-(COMM1-Pad2)*
X128270000Y-71120000D03*
D11*
G04 #@! TO.P,COMM1,1*
G04 #@! TO.N,Net-(COMM1-Pad1)*
X125730000Y-71120000D03*
G04 #@! TD*
D12*
G04 #@! TO.P,J1,3*
G04 #@! TO.N,+5V*
X104140000Y-44450000D03*
G04 #@! TO.P,J1,2*
G04 #@! TO.N,Net-(CMP1-Pad4)*
X106680000Y-44450000D03*
D11*
G04 #@! TO.P,J1,1*
G04 #@! TO.N,GND*
X109220000Y-44450000D03*
G04 #@! TD*
G04 #@! TO.P,J2,1*
G04 #@! TO.N,GND*
X119380000Y-44450000D03*
D12*
G04 #@! TO.P,J2,2*
G04 #@! TO.N,Net-(CMP1-Pad10)*
X116840000Y-44450000D03*
G04 #@! TO.P,J2,3*
G04 #@! TO.N,+5V*
X114300000Y-44450000D03*
G04 #@! TD*
G04 #@! TO.P,J3,3*
G04 #@! TO.N,+5V*
X134620000Y-44450000D03*
G04 #@! TO.P,J3,2*
G04 #@! TO.N,Net-(CMP2-Pad10)*
X137160000Y-44450000D03*
D11*
G04 #@! TO.P,J3,1*
G04 #@! TO.N,GND*
X139700000Y-44450000D03*
G04 #@! TD*
G04 #@! TO.P,J4,1*
G04 #@! TO.N,GND*
X149860000Y-44450000D03*
D12*
G04 #@! TO.P,J4,2*
G04 #@! TO.N,Net-(CMP3-Pad10)*
X147320000Y-44450000D03*
G04 #@! TO.P,J4,3*
G04 #@! TO.N,+5V*
X144780000Y-44450000D03*
G04 #@! TD*
G04 #@! TO.P,J5,3*
G04 #@! TO.N,+5V*
X124460000Y-44450000D03*
G04 #@! TO.P,J5,2*
G04 #@! TO.N,Net-(CMP4-Pad10)*
X127000000Y-44450000D03*
D11*
G04 #@! TO.P,J5,1*
G04 #@! TO.N,GND*
X129540000Y-44450000D03*
G04 #@! TD*
D13*
G04 #@! TO.P,RV11,3*
G04 #@! TO.N,GND*
X104140000Y-52070000D03*
G04 #@! TO.P,RV11,2*
G04 #@! TO.N,Net-(CMP1-Pad7)*
X106680000Y-52070000D03*
G04 #@! TO.P,RV11,1*
G04 #@! TO.N,+5V*
X109220000Y-52070000D03*
G04 #@! TD*
G04 #@! TO.P,RV12,1*
G04 #@! TO.N,+5V*
X109220000Y-57150000D03*
G04 #@! TO.P,RV12,2*
G04 #@! TO.N,Net-(CMP1-Pad5)*
X106680000Y-57150000D03*
G04 #@! TO.P,RV12,3*
G04 #@! TO.N,GND*
X104140000Y-57150000D03*
G04 #@! TD*
G04 #@! TO.P,RV13,3*
G04 #@! TO.N,GND*
X104140000Y-62230000D03*
G04 #@! TO.P,RV13,2*
G04 #@! TO.N,Net-(CMP1-Pad9)*
X106680000Y-62230000D03*
G04 #@! TO.P,RV13,1*
G04 #@! TO.N,+5V*
X109220000Y-62230000D03*
G04 #@! TD*
G04 #@! TO.P,RV21,1*
G04 #@! TO.N,+5V*
X119380000Y-52070000D03*
G04 #@! TO.P,RV21,2*
G04 #@! TO.N,Net-(CMP1-Pad11)*
X116840000Y-52070000D03*
G04 #@! TO.P,RV21,3*
G04 #@! TO.N,GND*
X114300000Y-52070000D03*
G04 #@! TD*
G04 #@! TO.P,RV22,3*
G04 #@! TO.N,GND*
X114300000Y-57150000D03*
G04 #@! TO.P,RV22,2*
G04 #@! TO.N,Net-(CMP2-Pad7)*
X116840000Y-57150000D03*
G04 #@! TO.P,RV22,1*
G04 #@! TO.N,+5V*
X119380000Y-57150000D03*
G04 #@! TD*
G04 #@! TO.P,RV23,1*
G04 #@! TO.N,+5V*
X119380000Y-62230000D03*
G04 #@! TO.P,RV23,2*
G04 #@! TO.N,Net-(CMP2-Pad5)*
X116840000Y-62230000D03*
G04 #@! TO.P,RV23,3*
G04 #@! TO.N,GND*
X114300000Y-62230000D03*
G04 #@! TD*
G04 #@! TO.P,RV31,3*
G04 #@! TO.N,GND*
X134620000Y-52070000D03*
G04 #@! TO.P,RV31,2*
G04 #@! TO.N,Net-(CMP2-Pad9)*
X137160000Y-52070000D03*
G04 #@! TO.P,RV31,1*
G04 #@! TO.N,+5V*
X139700000Y-52070000D03*
G04 #@! TD*
G04 #@! TO.P,RV32,1*
G04 #@! TO.N,+5V*
X139700000Y-57150000D03*
G04 #@! TO.P,RV32,2*
G04 #@! TO.N,Net-(CMP2-Pad11)*
X137160000Y-57150000D03*
G04 #@! TO.P,RV32,3*
G04 #@! TO.N,GND*
X134620000Y-57150000D03*
G04 #@! TD*
G04 #@! TO.P,RV33,3*
G04 #@! TO.N,GND*
X134620000Y-62230000D03*
G04 #@! TO.P,RV33,2*
G04 #@! TO.N,Net-(CMP3-Pad7)*
X137160000Y-62230000D03*
G04 #@! TO.P,RV33,1*
G04 #@! TO.N,+5V*
X139700000Y-62230000D03*
G04 #@! TD*
G04 #@! TO.P,RV41,1*
G04 #@! TO.N,+5V*
X149860000Y-52070000D03*
G04 #@! TO.P,RV41,2*
G04 #@! TO.N,Net-(CMP3-Pad5)*
X147320000Y-52070000D03*
G04 #@! TO.P,RV41,3*
G04 #@! TO.N,GND*
X144780000Y-52070000D03*
G04 #@! TD*
G04 #@! TO.P,RV42,3*
G04 #@! TO.N,GND*
X144780000Y-57150000D03*
G04 #@! TO.P,RV42,2*
G04 #@! TO.N,Net-(CMP3-Pad9)*
X147320000Y-57150000D03*
G04 #@! TO.P,RV42,1*
G04 #@! TO.N,+5V*
X149860000Y-57150000D03*
G04 #@! TD*
G04 #@! TO.P,RV43,1*
G04 #@! TO.N,+5V*
X149860000Y-62230000D03*
G04 #@! TO.P,RV43,2*
G04 #@! TO.N,Net-(CMP3-Pad11)*
X147320000Y-62230000D03*
G04 #@! TO.P,RV43,3*
G04 #@! TO.N,GND*
X144780000Y-62230000D03*
G04 #@! TD*
G04 #@! TO.P,RV51,3*
G04 #@! TO.N,GND*
X124460000Y-52070000D03*
G04 #@! TO.P,RV51,2*
G04 #@! TO.N,Net-(CMP4-Pad7)*
X127000000Y-52070000D03*
G04 #@! TO.P,RV51,1*
G04 #@! TO.N,+5V*
X129540000Y-52070000D03*
G04 #@! TD*
G04 #@! TO.P,RV52,3*
G04 #@! TO.N,GND*
X124460000Y-57150000D03*
G04 #@! TO.P,RV52,2*
G04 #@! TO.N,Net-(CMP4-Pad5)*
X127000000Y-57150000D03*
G04 #@! TO.P,RV52,1*
G04 #@! TO.N,+5V*
X129540000Y-57150000D03*
G04 #@! TD*
G04 #@! TO.P,RV53,1*
G04 #@! TO.N,+5V*
X129540000Y-62230000D03*
G04 #@! TO.P,RV53,2*
G04 #@! TO.N,Net-(CMP4-Pad11)*
X127000000Y-62230000D03*
G04 #@! TO.P,RV53,3*
G04 #@! TO.N,GND*
X124460000Y-62230000D03*
G04 #@! TD*
D12*
G04 #@! TO.P,SEL2,18*
G04 #@! TO.N,Net-(R1-Pad2)*
X137160000Y-115570000D03*
G04 #@! TO.P,SEL2,17*
G04 #@! TO.N,Net-(COMM1-Pad34)*
X134620000Y-115570000D03*
G04 #@! TO.P,SEL2,16*
G04 #@! TO.N,Net-(R1-Pad2)*
X137160000Y-113030000D03*
G04 #@! TO.P,SEL2,15*
G04 #@! TO.N,Net-(COMM1-Pad32)*
X134620000Y-113030000D03*
G04 #@! TO.P,SEL2,14*
G04 #@! TO.N,Net-(R1-Pad2)*
X137160000Y-110490000D03*
G04 #@! TO.P,SEL2,13*
G04 #@! TO.N,Net-(COMM1-Pad30)*
X134620000Y-110490000D03*
G04 #@! TO.P,SEL2,12*
G04 #@! TO.N,Net-(R1-Pad2)*
X137160000Y-107950000D03*
G04 #@! TO.P,SEL2,11*
G04 #@! TO.N,Net-(COMM1-Pad28)*
X134620000Y-107950000D03*
G04 #@! TO.P,SEL2,10*
G04 #@! TO.N,Net-(R1-Pad2)*
X137160000Y-105410000D03*
G04 #@! TO.P,SEL2,9*
G04 #@! TO.N,Net-(COMM1-Pad26)*
X134620000Y-105410000D03*
G04 #@! TO.P,SEL2,8*
G04 #@! TO.N,Net-(R1-Pad2)*
X137160000Y-102870000D03*
G04 #@! TO.P,SEL2,7*
G04 #@! TO.N,Net-(COMM1-Pad24)*
X134620000Y-102870000D03*
G04 #@! TO.P,SEL2,6*
G04 #@! TO.N,Net-(R1-Pad2)*
X137160000Y-100330000D03*
G04 #@! TO.P,SEL2,5*
G04 #@! TO.N,Net-(COMM1-Pad22)*
X134620000Y-100330000D03*
G04 #@! TO.P,SEL2,4*
G04 #@! TO.N,Net-(R1-Pad2)*
X137160000Y-97790000D03*
G04 #@! TO.P,SEL2,3*
G04 #@! TO.N,Net-(COMM1-Pad20)*
X134620000Y-97790000D03*
G04 #@! TO.P,SEL2,2*
G04 #@! TO.N,Net-(R1-Pad2)*
X137160000Y-95250000D03*
D11*
G04 #@! TO.P,SEL2,1*
G04 #@! TO.N,Net-(COMM1-Pad18)*
X134620000Y-95250000D03*
G04 #@! TD*
D12*
G04 #@! TO.P,SEL1,18*
G04 #@! TO.N,Net-(COMM1-Pad33)*
X119380000Y-115570000D03*
G04 #@! TO.P,SEL1,17*
G04 #@! TO.N,Net-(R1-Pad2)*
X116840000Y-115570000D03*
G04 #@! TO.P,SEL1,16*
G04 #@! TO.N,Net-(COMM1-Pad31)*
X119380000Y-113030000D03*
G04 #@! TO.P,SEL1,15*
G04 #@! TO.N,Net-(R1-Pad2)*
X116840000Y-113030000D03*
G04 #@! TO.P,SEL1,14*
G04 #@! TO.N,Net-(COMM1-Pad29)*
X119380000Y-110490000D03*
G04 #@! TO.P,SEL1,13*
G04 #@! TO.N,Net-(R1-Pad2)*
X116840000Y-110490000D03*
G04 #@! TO.P,SEL1,12*
G04 #@! TO.N,Net-(COMM1-Pad27)*
X119380000Y-107950000D03*
G04 #@! TO.P,SEL1,11*
G04 #@! TO.N,Net-(R1-Pad2)*
X116840000Y-107950000D03*
G04 #@! TO.P,SEL1,10*
G04 #@! TO.N,Net-(COMM1-Pad25)*
X119380000Y-105410000D03*
G04 #@! TO.P,SEL1,9*
G04 #@! TO.N,Net-(R1-Pad2)*
X116840000Y-105410000D03*
G04 #@! TO.P,SEL1,8*
G04 #@! TO.N,Net-(COMM1-Pad23)*
X119380000Y-102870000D03*
G04 #@! TO.P,SEL1,7*
G04 #@! TO.N,Net-(R1-Pad2)*
X116840000Y-102870000D03*
G04 #@! TO.P,SEL1,6*
G04 #@! TO.N,Net-(COMM1-Pad21)*
X119380000Y-100330000D03*
G04 #@! TO.P,SEL1,5*
G04 #@! TO.N,Net-(R1-Pad2)*
X116840000Y-100330000D03*
G04 #@! TO.P,SEL1,4*
G04 #@! TO.N,Net-(COMM1-Pad19)*
X119380000Y-97790000D03*
G04 #@! TO.P,SEL1,3*
G04 #@! TO.N,Net-(R1-Pad2)*
X116840000Y-97790000D03*
G04 #@! TO.P,SEL1,2*
G04 #@! TO.N,Net-(COMM1-Pad17)*
X119380000Y-95250000D03*
D11*
G04 #@! TO.P,SEL1,1*
G04 #@! TO.N,Net-(R1-Pad2)*
X116840000Y-95250000D03*
G04 #@! TD*
D14*
G04 #@! TO.P,PWR1,3*
G04 #@! TO.N,+5V*
X148510000Y-104140000D03*
G04 #@! TO.P,PWR1,2*
G04 #@! TO.N,+3V3*
X146010000Y-104140000D03*
D15*
G04 #@! TO.P,PWR1,1*
G04 #@! TO.N,GND*
X143510000Y-104140000D03*
G04 #@! TD*
G04 #@! TO.P,PWR2,1*
G04 #@! TO.N,GND*
X143510000Y-113030000D03*
D14*
G04 #@! TO.P,PWR2,2*
G04 #@! TO.N,+3V3*
X146010000Y-113030000D03*
G04 #@! TO.P,PWR2,3*
G04 #@! TO.N,+5V*
X148510000Y-113030000D03*
G04 #@! TD*
D16*
G04 #@! TO.P,C1,1*
G04 #@! TO.N,GND*
X107696000Y-75560000D03*
G04 #@! TO.P,C1,2*
G04 #@! TO.N,+5V*
X107696000Y-73660000D03*
G04 #@! TD*
G04 #@! TO.P,C2,2*
G04 #@! TO.N,GND*
X116332000Y-75560000D03*
G04 #@! TO.P,C2,1*
G04 #@! TO.N,+5V*
X116332000Y-73660000D03*
G04 #@! TD*
G04 #@! TO.P,C3,1*
G04 #@! TO.N,GND*
X138176000Y-75560000D03*
G04 #@! TO.P,C3,2*
G04 #@! TO.N,+5V*
X138176000Y-73660000D03*
G04 #@! TD*
G04 #@! TO.P,C4,2*
G04 #@! TO.N,+5V*
X146812000Y-73726000D03*
G04 #@! TO.P,C4,1*
G04 #@! TO.N,GND*
X146812000Y-75626000D03*
G04 #@! TD*
D17*
G04 #@! TO.P,C5,1*
G04 #@! TO.N,GND*
X142118000Y-80010000D03*
G04 #@! TO.P,C5,2*
G04 #@! TO.N,+3V3*
X144018000Y-80010000D03*
G04 #@! TD*
G04 #@! TO.P,C6,2*
G04 #@! TO.N,+3V3*
X117470000Y-83820000D03*
G04 #@! TO.P,C6,1*
G04 #@! TO.N,GND*
X115570000Y-83820000D03*
G04 #@! TD*
D18*
G04 #@! TO.N,Net-(CMP1-Pad4)*
X115146000Y-64348800D03*
G04 #@! TO.N,Net-(CMP1-Pad7)*
X117238600Y-64322500D03*
G04 #@! TO.N,Net-(CMP1-Pad5)*
X116950400Y-68668500D03*
G04 #@! TO.N,+5V*
X146812000Y-71628000D03*
X138176000Y-71628000D03*
X116332000Y-71628000D03*
X107696000Y-71628000D03*
G04 #@! TO.N,Net-(CMP2-Pad9)*
X107031700Y-67611500D03*
G04 #@! TO.N,Net-(CMP2-Pad11)*
X106796500Y-70071500D03*
G04 #@! TO.N,Net-(CMP3-Pad7)*
X148789300Y-65486600D03*
G04 #@! TO.N,Net-(COMM1-Pad15)*
X108585000Y-89433800D03*
G04 #@! TO.N,Net-(COMM1-Pad13)*
X119684300Y-86363100D03*
G04 #@! TO.N,Net-(COMM1-Pad11)*
X118240800Y-85090900D03*
G04 #@! TO.N,Net-(COMM1-Pad9)*
X117378200Y-85817100D03*
X127000000Y-85090000D03*
G04 #@! TO.N,Net-(COMM1-Pad8)*
X132592700Y-81336400D03*
G04 #@! TO.N,+3V3*
X146050000Y-80188700D03*
X135890000Y-83820000D03*
X119432319Y-83695022D03*
G04 #@! TD*
D19*
G04 #@! TO.N,GND*
X116332000Y-75560000D02*
X116332000Y-76022600D01*
G04 #@! TO.N,Net-(CMP1-Pad4)*
X106680000Y-44450000D02*
X105503000Y-43273000D01*
X105503000Y-43273000D02*
X103636600Y-43273000D01*
X103636600Y-43273000D02*
X102964200Y-43945400D01*
X102964200Y-43945400D02*
X102964200Y-47181700D01*
X102964200Y-47181700D02*
X105634600Y-49852100D01*
X105634600Y-49852100D02*
X105634600Y-52554400D01*
X105634600Y-52554400D02*
X106870500Y-53790300D01*
X106870500Y-53790300D02*
X107427800Y-53790300D01*
X107427800Y-53790300D02*
X111760000Y-58122500D01*
X111760000Y-58122500D02*
X111760000Y-61179700D01*
X111760000Y-61179700D02*
X114929100Y-64348800D01*
X114929100Y-64348800D02*
X115146000Y-64348800D01*
G04 #@! TO.N,Net-(CMP1-Pad7)*
X106680000Y-52070000D02*
X115676800Y-61066800D01*
X115676800Y-61066800D02*
X115676800Y-62760700D01*
X115676800Y-62760700D02*
X117238600Y-64322500D01*
G04 #@! TO.N,Net-(CMP1-Pad5)*
X106680000Y-57150000D02*
X107950000Y-58420000D01*
X107950000Y-58420000D02*
X107950000Y-62475900D01*
X107950000Y-62475900D02*
X114142600Y-68668500D01*
X114142600Y-68668500D02*
X116950400Y-68668500D01*
G04 #@! TO.N,+5V*
X146812000Y-72677000D02*
X146812000Y-71628000D01*
X146812000Y-73726000D02*
X146812000Y-72677000D01*
X139700000Y-52070000D02*
X135207600Y-47577600D01*
X135207600Y-47577600D02*
X134032400Y-47577600D01*
X134032400Y-47577600D02*
X129540000Y-52070000D01*
X134032400Y-44450000D02*
X134032400Y-47577600D01*
X144780000Y-47784900D02*
X143985100Y-47784900D01*
X143985100Y-47784900D02*
X139700000Y-52070000D01*
X134032400Y-44450000D02*
X133444700Y-44450000D01*
X134620000Y-44450000D02*
X134032400Y-44450000D01*
X109220000Y-57150000D02*
X109220000Y-62230000D01*
X149860000Y-52070000D02*
X145574900Y-47784900D01*
X145574900Y-47784900D02*
X144780000Y-47784900D01*
X144780000Y-47784900D02*
X144780000Y-44450000D01*
X133444700Y-44450000D02*
X132269400Y-43274700D01*
X132269400Y-43274700D02*
X126443200Y-43274700D01*
X126443200Y-43274700D02*
X125635300Y-44082600D01*
X125635300Y-44082600D02*
X125635300Y-44450000D01*
X124460000Y-44450000D02*
X125635300Y-44450000D01*
X146812000Y-71628000D02*
X149860000Y-68580000D01*
X149860000Y-68580000D02*
X149860000Y-62230000D01*
X146812000Y-71628000D02*
X138176000Y-71628000D01*
X109220000Y-48351900D02*
X108849900Y-48351900D01*
X108849900Y-48351900D02*
X105315300Y-44817300D01*
X105315300Y-44817300D02*
X105315300Y-44450000D01*
X114300000Y-45625300D02*
X111573400Y-48351900D01*
X111573400Y-48351900D02*
X109220000Y-48351900D01*
X109220000Y-48351900D02*
X109220000Y-52070000D01*
X104140000Y-44450000D02*
X105315300Y-44450000D01*
X119380000Y-48354700D02*
X119380000Y-52070000D01*
X123284700Y-44450000D02*
X119380000Y-48354700D01*
X119380000Y-48354700D02*
X117029400Y-48354700D01*
X117029400Y-48354700D02*
X114300000Y-45625300D01*
X114300000Y-44450000D02*
X114300000Y-45625300D01*
X124460000Y-44450000D02*
X123284700Y-44450000D01*
X138176000Y-71628000D02*
X138176000Y-73660000D01*
X116332000Y-73660000D02*
X116332000Y-71628000D01*
X107696000Y-73660000D02*
X107696000Y-71628000D01*
X147512001Y-74651001D02*
X146812000Y-73951000D01*
X147512001Y-79817999D02*
X147512001Y-74651001D01*
X146812000Y-73951000D02*
X146812000Y-73726000D01*
X147320000Y-87630000D02*
X144780000Y-85090000D01*
X144780000Y-82550000D02*
X147512001Y-79817999D01*
X148510000Y-104140000D02*
X147320000Y-102950000D01*
X144780000Y-85090000D02*
X144780000Y-82550000D01*
X147320000Y-102950000D02*
X147320000Y-87630000D01*
G04 #@! TO.N,Net-(CMP2-Pad9)*
X137160000Y-52070000D02*
X135890000Y-53340000D01*
X135890000Y-53340000D02*
X135890000Y-57396600D01*
X135890000Y-57396600D02*
X123871800Y-69414800D01*
X123871800Y-69414800D02*
X108835000Y-69414800D01*
X108835000Y-69414800D02*
X107031700Y-67611500D01*
G04 #@! TO.N,Net-(CMP2-Pad11)*
X137160000Y-57150000D02*
X124238500Y-70071500D01*
X124238500Y-70071500D02*
X106796500Y-70071500D01*
G04 #@! TO.N,Net-(CMP3-Pad7)*
X137160000Y-62230000D02*
X140416600Y-65486600D01*
X140416600Y-65486600D02*
X148789300Y-65486600D01*
G04 #@! TO.N,Net-(COMM1-Pad34)*
X132080000Y-115570000D02*
X128270000Y-111760000D01*
X134620000Y-115570000D02*
X132080000Y-115570000D01*
G04 #@! TO.N,Net-(COMM1-Pad33)*
X119380000Y-115570000D02*
X121920000Y-115570000D01*
X121920000Y-115570000D02*
X125730000Y-111760000D01*
G04 #@! TO.N,Net-(COMM1-Pad32)*
X132080000Y-113030000D02*
X134620000Y-113030000D01*
X128270000Y-109220000D02*
X132080000Y-113030000D01*
G04 #@! TO.N,Net-(COMM1-Pad31)*
X119380000Y-113030000D02*
X121920000Y-113030000D01*
X121920000Y-113030000D02*
X125730000Y-109220000D01*
G04 #@! TO.N,Net-(COMM1-Pad30)*
X132080000Y-110490000D02*
X134620000Y-110490000D01*
X128270000Y-106680000D02*
X132080000Y-110490000D01*
G04 #@! TO.N,Net-(COMM1-Pad29)*
X119380000Y-110490000D02*
X121920000Y-110490000D01*
X121920000Y-110490000D02*
X125730000Y-106680000D01*
G04 #@! TO.N,Net-(COMM1-Pad28)*
X132080000Y-107950000D02*
X134620000Y-107950000D01*
X128270000Y-104140000D02*
X132080000Y-107950000D01*
G04 #@! TO.N,Net-(COMM1-Pad27)*
X119380000Y-107950000D02*
X121920000Y-107950000D01*
X121920000Y-107950000D02*
X125730000Y-104140000D01*
G04 #@! TO.N,Net-(COMM1-Pad26)*
X132080000Y-105410000D02*
X134620000Y-105410000D01*
X128270000Y-101600000D02*
X132080000Y-105410000D01*
G04 #@! TO.N,Net-(COMM1-Pad25)*
X119380000Y-105410000D02*
X121920000Y-105410000D01*
X121920000Y-105410000D02*
X125730000Y-101600000D01*
G04 #@! TO.N,Net-(COMM1-Pad24)*
X134620000Y-102870000D02*
X132080000Y-102870000D01*
X132080000Y-102870000D02*
X128270000Y-99060000D01*
G04 #@! TO.N,Net-(COMM1-Pad23)*
X119380000Y-102870000D02*
X121920000Y-102870000D01*
X121920000Y-102870000D02*
X125730000Y-99060000D01*
G04 #@! TO.N,Net-(COMM1-Pad22)*
X132080000Y-100330000D02*
X134620000Y-100330000D01*
X128270000Y-96520000D02*
X132080000Y-100330000D01*
G04 #@! TO.N,Net-(COMM1-Pad21)*
X119380000Y-100330000D02*
X121920000Y-100330000D01*
X121920000Y-100330000D02*
X125730000Y-96520000D01*
G04 #@! TO.N,Net-(COMM1-Pad20)*
X132080000Y-97790000D02*
X134620000Y-97790000D01*
X128270000Y-93980000D02*
X132080000Y-97790000D01*
G04 #@! TO.N,Net-(COMM1-Pad19)*
X119380000Y-97790000D02*
X121920000Y-97790000D01*
X121920000Y-97790000D02*
X125730000Y-93980000D01*
G04 #@! TO.N,Net-(COMM1-Pad18)*
X132080000Y-95250000D02*
X134620000Y-95250000D01*
X128270000Y-91440000D02*
X132080000Y-95250000D01*
G04 #@! TO.N,Net-(COMM1-Pad17)*
X120555300Y-95250000D02*
X121920000Y-95250000D01*
X121920000Y-95250000D02*
X125730000Y-91440000D01*
X119380000Y-95250000D02*
X120555300Y-95250000D01*
G04 #@! TO.N,Net-(COMM1-Pad15)*
X125730000Y-88900000D02*
X125579800Y-88749800D01*
X125579800Y-88749800D02*
X109269000Y-88749800D01*
X109269000Y-88749800D02*
X108585000Y-89433800D01*
G04 #@! TO.N,Net-(COMM1-Pad13)*
X119684300Y-86363100D02*
X125726900Y-86363100D01*
X125726900Y-86363100D02*
X125730000Y-86360000D01*
G04 #@! TO.N,Net-(COMM1-Pad11)*
X125730000Y-83820000D02*
X124459100Y-85090900D01*
X124459100Y-85090900D02*
X118240800Y-85090900D01*
G04 #@! TO.N,Net-(COMM1-Pad9)*
X124548311Y-85638099D02*
X125096410Y-85090000D01*
X119336299Y-85638099D02*
X124548311Y-85638099D01*
X119157298Y-85817100D02*
X119336299Y-85638099D01*
X117378200Y-85817100D02*
X119157298Y-85817100D01*
X125096410Y-85090000D02*
X127000000Y-85090000D01*
G04 #@! TO.N,Net-(COMM1-Pad8)*
X132592700Y-81336400D02*
X129996300Y-78740000D01*
X129996300Y-78740000D02*
X128270000Y-78740000D01*
G04 #@! TO.N,+3V3*
X144196700Y-80188700D02*
X144018000Y-80010000D01*
X146050000Y-80188700D02*
X144196700Y-80188700D01*
X144018000Y-80635000D02*
X144018000Y-80010000D01*
X140833000Y-83820000D02*
X144018000Y-80635000D01*
X135890000Y-83820000D02*
X140833000Y-83820000D01*
X135890000Y-83820000D02*
X132549002Y-83820000D01*
X119307341Y-83820000D02*
X119432319Y-83695022D01*
X117470000Y-83820000D02*
X119307341Y-83820000D01*
X131279002Y-82550000D02*
X132549002Y-83820000D01*
X120577341Y-82550000D02*
X131279002Y-82550000D01*
X119432319Y-83695022D02*
X120577341Y-82550000D01*
G04 #@! TD*
D20*
G04 #@! TO.N,GND*
G36*
X103088671Y-42725071D02*
X103046271Y-42788527D01*
X102479730Y-43355069D01*
X102416271Y-43397471D01*
X102248296Y-43648864D01*
X102204200Y-43870549D01*
X102204200Y-43870553D01*
X102189312Y-43945400D01*
X102204200Y-44020247D01*
X102204201Y-47106848D01*
X102189312Y-47181700D01*
X102248297Y-47478237D01*
X102316167Y-47579811D01*
X102416272Y-47729629D01*
X102479728Y-47772029D01*
X104874600Y-50166902D01*
X104874600Y-50988663D01*
X104845869Y-50882389D01*
X104337658Y-50702667D01*
X103799356Y-50731108D01*
X103434131Y-50882389D01*
X103369831Y-51120226D01*
X104140000Y-51890395D01*
X104154143Y-51876253D01*
X104333748Y-52055858D01*
X104319605Y-52070000D01*
X104333748Y-52084143D01*
X104154143Y-52263748D01*
X104140000Y-52249605D01*
X103369831Y-53019774D01*
X103434131Y-53257611D01*
X103942342Y-53437333D01*
X104480644Y-53408892D01*
X104845869Y-53257611D01*
X104910168Y-53019776D01*
X105025337Y-53134945D01*
X105075169Y-53085113D01*
X105086672Y-53102329D01*
X105150128Y-53144729D01*
X106280170Y-54274772D01*
X106322571Y-54338229D01*
X106573963Y-54506204D01*
X106795648Y-54550300D01*
X106795652Y-54550300D01*
X106870500Y-54565188D01*
X106945348Y-54550300D01*
X107112999Y-54550300D01*
X108531318Y-55968620D01*
X108452454Y-56001286D01*
X108071286Y-56382454D01*
X107950000Y-56675265D01*
X107828714Y-56382454D01*
X107447546Y-56001286D01*
X106949526Y-55795000D01*
X106410474Y-55795000D01*
X105912454Y-56001286D01*
X105531286Y-56382454D01*
X105416675Y-56659151D01*
X105327611Y-56444131D01*
X105089774Y-56379831D01*
X104319605Y-57150000D01*
X105089774Y-57920169D01*
X105327611Y-57855869D01*
X105409649Y-57623886D01*
X105531286Y-57917546D01*
X105912454Y-58298714D01*
X106410474Y-58505000D01*
X106949526Y-58505000D01*
X106957073Y-58501874D01*
X107190000Y-58734802D01*
X107190001Y-60974608D01*
X106949526Y-60875000D01*
X106410474Y-60875000D01*
X105912454Y-61081286D01*
X105531286Y-61462454D01*
X105416675Y-61739151D01*
X105327611Y-61524131D01*
X105089774Y-61459831D01*
X104319605Y-62230000D01*
X105089774Y-63000169D01*
X105327611Y-62935869D01*
X105409649Y-62703886D01*
X105531286Y-62997546D01*
X105912454Y-63378714D01*
X106410474Y-63585000D01*
X106949526Y-63585000D01*
X107447546Y-63378714D01*
X107612779Y-63213481D01*
X113054098Y-68654800D01*
X109149803Y-68654800D01*
X108066700Y-67571698D01*
X108066700Y-67405626D01*
X107909131Y-67025220D01*
X107617980Y-66734069D01*
X107237574Y-66576500D01*
X106825826Y-66576500D01*
X106445420Y-66734069D01*
X106154269Y-67025220D01*
X105996700Y-67405626D01*
X105996700Y-67817374D01*
X106154269Y-68197780D01*
X106445420Y-68488931D01*
X106825826Y-68646500D01*
X106991898Y-68646500D01*
X107656898Y-69311500D01*
X107500211Y-69311500D01*
X107382780Y-69194069D01*
X107002374Y-69036500D01*
X106590626Y-69036500D01*
X106210220Y-69194069D01*
X105919069Y-69485220D01*
X105761500Y-69865626D01*
X105761500Y-70277374D01*
X105919069Y-70657780D01*
X106210220Y-70948931D01*
X106590626Y-71106500D01*
X106791736Y-71106500D01*
X106661000Y-71422126D01*
X106661000Y-71833874D01*
X106818569Y-72214280D01*
X106936001Y-72331712D01*
X106936001Y-72553541D01*
X106863191Y-72602191D01*
X106722843Y-72812235D01*
X106673560Y-73060000D01*
X106673560Y-74260000D01*
X106722843Y-74507765D01*
X106783873Y-74599102D01*
X106782673Y-74600302D01*
X106686000Y-74833691D01*
X106686000Y-75274250D01*
X106844750Y-75433000D01*
X107569000Y-75433000D01*
X107569000Y-75413000D01*
X107823000Y-75413000D01*
X107823000Y-75433000D01*
X108547250Y-75433000D01*
X108706000Y-75274250D01*
X108706000Y-74833691D01*
X108609327Y-74600302D01*
X108608127Y-74599102D01*
X108669157Y-74507765D01*
X108718440Y-74260000D01*
X108718440Y-73060000D01*
X108669157Y-72812235D01*
X108528809Y-72602191D01*
X108456000Y-72553541D01*
X108456000Y-72331711D01*
X108573431Y-72214280D01*
X108731000Y-71833874D01*
X108731000Y-71422126D01*
X108573431Y-71041720D01*
X108363211Y-70831500D01*
X115664789Y-70831500D01*
X115454569Y-71041720D01*
X115297000Y-71422126D01*
X115297000Y-71833874D01*
X115454569Y-72214280D01*
X115572001Y-72331712D01*
X115572001Y-72553541D01*
X115499191Y-72602191D01*
X115358843Y-72812235D01*
X115309560Y-73060000D01*
X115309560Y-74260000D01*
X115358843Y-74507765D01*
X115419873Y-74599102D01*
X115418673Y-74600302D01*
X115322000Y-74833691D01*
X115322000Y-75274250D01*
X115480750Y-75433000D01*
X116205000Y-75433000D01*
X116205000Y-75413000D01*
X116459000Y-75413000D01*
X116459000Y-75433000D01*
X117183250Y-75433000D01*
X117342000Y-75274250D01*
X117342000Y-74833691D01*
X117245327Y-74600302D01*
X117244127Y-74599102D01*
X117305157Y-74507765D01*
X117354440Y-74260000D01*
X117354440Y-73060000D01*
X117305157Y-72812235D01*
X117164809Y-72602191D01*
X117092000Y-72553541D01*
X117092000Y-72331711D01*
X117209431Y-72214280D01*
X117367000Y-71833874D01*
X117367000Y-71422126D01*
X117209431Y-71041720D01*
X116999211Y-70831500D01*
X124163653Y-70831500D01*
X124232560Y-70845206D01*
X124232560Y-71970000D01*
X124281843Y-72217765D01*
X124422191Y-72427809D01*
X124632235Y-72568157D01*
X124706887Y-72583006D01*
X124471078Y-72818815D01*
X124245000Y-73364615D01*
X124245000Y-73955385D01*
X124471078Y-74501185D01*
X124888815Y-74918922D01*
X124915560Y-74930000D01*
X124888815Y-74941078D01*
X124471078Y-75358815D01*
X124245000Y-75904615D01*
X124245000Y-76495385D01*
X124471078Y-77041185D01*
X124888815Y-77458922D01*
X124915560Y-77470000D01*
X124888815Y-77481078D01*
X124471078Y-77898815D01*
X124245000Y-78444615D01*
X124245000Y-79035385D01*
X124471078Y-79581185D01*
X124888815Y-79998922D01*
X124915560Y-80010000D01*
X124888815Y-80021078D01*
X124471078Y-80438815D01*
X124245000Y-80984615D01*
X124245000Y-81575385D01*
X124333897Y-81790000D01*
X120652189Y-81790000D01*
X120577341Y-81775112D01*
X120502493Y-81790000D01*
X120502489Y-81790000D01*
X120280804Y-81834096D01*
X120029412Y-82002071D01*
X119987012Y-82065527D01*
X119392518Y-82660022D01*
X119226445Y-82660022D01*
X118846039Y-82817591D01*
X118603630Y-83060000D01*
X118576459Y-83060000D01*
X118527809Y-82987191D01*
X118317765Y-82846843D01*
X118070000Y-82797560D01*
X116870000Y-82797560D01*
X116622235Y-82846843D01*
X116530898Y-82907873D01*
X116529698Y-82906673D01*
X116296309Y-82810000D01*
X115855750Y-82810000D01*
X115697000Y-82968750D01*
X115697000Y-83693000D01*
X115717000Y-83693000D01*
X115717000Y-83947000D01*
X115697000Y-83947000D01*
X115697000Y-84671250D01*
X115855750Y-84830000D01*
X116296309Y-84830000D01*
X116529698Y-84733327D01*
X116530898Y-84732127D01*
X116622235Y-84793157D01*
X116870000Y-84842440D01*
X117026652Y-84842440D01*
X116791920Y-84939669D01*
X116500769Y-85230820D01*
X116343200Y-85611226D01*
X116343200Y-86022974D01*
X116500769Y-86403380D01*
X116791920Y-86694531D01*
X117172326Y-86852100D01*
X117584074Y-86852100D01*
X117964480Y-86694531D01*
X118081911Y-86577100D01*
X118652666Y-86577100D01*
X118806869Y-86949380D01*
X119098020Y-87240531D01*
X119478426Y-87398100D01*
X119890174Y-87398100D01*
X120270580Y-87240531D01*
X120388011Y-87123100D01*
X124438734Y-87123100D01*
X124471078Y-87201185D01*
X124888815Y-87618922D01*
X124915560Y-87630000D01*
X124888815Y-87641078D01*
X124540093Y-87989800D01*
X109343846Y-87989800D01*
X109268999Y-87974912D01*
X109194152Y-87989800D01*
X109194148Y-87989800D01*
X108972463Y-88033896D01*
X108721071Y-88201871D01*
X108678671Y-88265327D01*
X108545198Y-88398800D01*
X108379126Y-88398800D01*
X107998720Y-88556369D01*
X107707569Y-88847520D01*
X107550000Y-89227926D01*
X107550000Y-89639674D01*
X107707569Y-90020080D01*
X107998720Y-90311231D01*
X108379126Y-90468800D01*
X108790874Y-90468800D01*
X109171280Y-90311231D01*
X109462431Y-90020080D01*
X109620000Y-89639674D01*
X109620000Y-89509800D01*
X124375235Y-89509800D01*
X124471078Y-89741185D01*
X124888815Y-90158922D01*
X124915560Y-90170000D01*
X124888815Y-90181078D01*
X124471078Y-90598815D01*
X124245000Y-91144615D01*
X124245000Y-91735385D01*
X124278628Y-91816570D01*
X121605199Y-94490000D01*
X120658178Y-94490000D01*
X120450625Y-94179375D01*
X119959418Y-93851161D01*
X119526256Y-93765000D01*
X119233744Y-93765000D01*
X118800582Y-93851161D01*
X118309375Y-94179375D01*
X118297184Y-94197619D01*
X118288157Y-94152235D01*
X118147809Y-93942191D01*
X117937765Y-93801843D01*
X117690000Y-93752560D01*
X115990000Y-93752560D01*
X115742235Y-93801843D01*
X115532191Y-93942191D01*
X115391843Y-94152235D01*
X115342560Y-94400000D01*
X115342560Y-96100000D01*
X115391843Y-96347765D01*
X115532191Y-96557809D01*
X115742235Y-96698157D01*
X115787619Y-96707184D01*
X115769375Y-96719375D01*
X115441161Y-97210582D01*
X115325908Y-97790000D01*
X115441161Y-98369418D01*
X115769375Y-98860625D01*
X116067761Y-99060000D01*
X115769375Y-99259375D01*
X115441161Y-99750582D01*
X115325908Y-100330000D01*
X115441161Y-100909418D01*
X115769375Y-101400625D01*
X116067761Y-101600000D01*
X115769375Y-101799375D01*
X115441161Y-102290582D01*
X115325908Y-102870000D01*
X115441161Y-103449418D01*
X115769375Y-103940625D01*
X116067761Y-104140000D01*
X115769375Y-104339375D01*
X115441161Y-104830582D01*
X115325908Y-105410000D01*
X115441161Y-105989418D01*
X115769375Y-106480625D01*
X116067761Y-106680000D01*
X115769375Y-106879375D01*
X115441161Y-107370582D01*
X115325908Y-107950000D01*
X115441161Y-108529418D01*
X115769375Y-109020625D01*
X116067761Y-109220000D01*
X115769375Y-109419375D01*
X115441161Y-109910582D01*
X115325908Y-110490000D01*
X115441161Y-111069418D01*
X115769375Y-111560625D01*
X116067761Y-111760000D01*
X115769375Y-111959375D01*
X115441161Y-112450582D01*
X115325908Y-113030000D01*
X115441161Y-113609418D01*
X115769375Y-114100625D01*
X116067761Y-114300000D01*
X115769375Y-114499375D01*
X115441161Y-114990582D01*
X115325908Y-115570000D01*
X115441161Y-116149418D01*
X115769375Y-116640625D01*
X116260582Y-116968839D01*
X116693744Y-117055000D01*
X116986256Y-117055000D01*
X117419418Y-116968839D01*
X117910625Y-116640625D01*
X118110000Y-116342239D01*
X118309375Y-116640625D01*
X118800582Y-116968839D01*
X119233744Y-117055000D01*
X119526256Y-117055000D01*
X119959418Y-116968839D01*
X120450625Y-116640625D01*
X120658178Y-116330000D01*
X121845153Y-116330000D01*
X121920000Y-116344888D01*
X121994847Y-116330000D01*
X121994852Y-116330000D01*
X122216537Y-116285904D01*
X122467929Y-116117929D01*
X122510331Y-116054470D01*
X125353430Y-113211372D01*
X125434615Y-113245000D01*
X126025385Y-113245000D01*
X126571185Y-113018922D01*
X126988922Y-112601185D01*
X127000000Y-112574440D01*
X127011078Y-112601185D01*
X127428815Y-113018922D01*
X127974615Y-113245000D01*
X128565385Y-113245000D01*
X128646571Y-113211372D01*
X131489671Y-116054473D01*
X131532071Y-116117929D01*
X131595527Y-116160329D01*
X131783462Y-116285904D01*
X131831605Y-116295480D01*
X132005148Y-116330000D01*
X132005152Y-116330000D01*
X132080000Y-116344888D01*
X132154848Y-116330000D01*
X133341822Y-116330000D01*
X133549375Y-116640625D01*
X134040582Y-116968839D01*
X134473744Y-117055000D01*
X134766256Y-117055000D01*
X135199418Y-116968839D01*
X135690625Y-116640625D01*
X135890000Y-116342239D01*
X136089375Y-116640625D01*
X136580582Y-116968839D01*
X137013744Y-117055000D01*
X137306256Y-117055000D01*
X137739418Y-116968839D01*
X138230625Y-116640625D01*
X138558839Y-116149418D01*
X138674092Y-115570000D01*
X138558839Y-114990582D01*
X138230625Y-114499375D01*
X137932239Y-114300000D01*
X138230625Y-114100625D01*
X138558839Y-113609418D01*
X138617252Y-113315750D01*
X142000000Y-113315750D01*
X142000000Y-114031310D01*
X142096673Y-114264699D01*
X142275302Y-114443327D01*
X142508691Y-114540000D01*
X143224250Y-114540000D01*
X143383000Y-114381250D01*
X143383000Y-113157000D01*
X142158750Y-113157000D01*
X142000000Y-113315750D01*
X138617252Y-113315750D01*
X138674092Y-113030000D01*
X138558839Y-112450582D01*
X138276940Y-112028690D01*
X142000000Y-112028690D01*
X142000000Y-112744250D01*
X142158750Y-112903000D01*
X143383000Y-112903000D01*
X143383000Y-111678750D01*
X143637000Y-111678750D01*
X143637000Y-112903000D01*
X143657000Y-112903000D01*
X143657000Y-113157000D01*
X143637000Y-113157000D01*
X143637000Y-114381250D01*
X143795750Y-114540000D01*
X144511309Y-114540000D01*
X144744698Y-114443327D01*
X144923327Y-114264699D01*
X144977779Y-114133241D01*
X145154654Y-114310116D01*
X145709642Y-114540000D01*
X146310358Y-114540000D01*
X146865346Y-114310116D01*
X147260000Y-113915462D01*
X147654654Y-114310116D01*
X148209642Y-114540000D01*
X148810358Y-114540000D01*
X149365346Y-114310116D01*
X149790116Y-113885346D01*
X150020000Y-113330358D01*
X150020000Y-112729642D01*
X149790116Y-112174654D01*
X149365346Y-111749884D01*
X148810358Y-111520000D01*
X148209642Y-111520000D01*
X147654654Y-111749884D01*
X147260000Y-112144538D01*
X146865346Y-111749884D01*
X146310358Y-111520000D01*
X145709642Y-111520000D01*
X145154654Y-111749884D01*
X144977779Y-111926759D01*
X144923327Y-111795301D01*
X144744698Y-111616673D01*
X144511309Y-111520000D01*
X143795750Y-111520000D01*
X143637000Y-111678750D01*
X143383000Y-111678750D01*
X143224250Y-111520000D01*
X142508691Y-111520000D01*
X142275302Y-111616673D01*
X142096673Y-111795301D01*
X142000000Y-112028690D01*
X138276940Y-112028690D01*
X138230625Y-111959375D01*
X137932239Y-111760000D01*
X138230625Y-111560625D01*
X138558839Y-111069418D01*
X138674092Y-110490000D01*
X138558839Y-109910582D01*
X138230625Y-109419375D01*
X137932239Y-109220000D01*
X138230625Y-109020625D01*
X138558839Y-108529418D01*
X138674092Y-107950000D01*
X138558839Y-107370582D01*
X138230625Y-106879375D01*
X137932239Y-106680000D01*
X138230625Y-106480625D01*
X138558839Y-105989418D01*
X138674092Y-105410000D01*
X138558839Y-104830582D01*
X138288339Y-104425750D01*
X142000000Y-104425750D01*
X142000000Y-105141310D01*
X142096673Y-105374699D01*
X142275302Y-105553327D01*
X142508691Y-105650000D01*
X143224250Y-105650000D01*
X143383000Y-105491250D01*
X143383000Y-104267000D01*
X142158750Y-104267000D01*
X142000000Y-104425750D01*
X138288339Y-104425750D01*
X138230625Y-104339375D01*
X137932239Y-104140000D01*
X138230625Y-103940625D01*
X138558839Y-103449418D01*
X138620646Y-103138690D01*
X142000000Y-103138690D01*
X142000000Y-103854250D01*
X142158750Y-104013000D01*
X143383000Y-104013000D01*
X143383000Y-102788750D01*
X143224250Y-102630000D01*
X142508691Y-102630000D01*
X142275302Y-102726673D01*
X142096673Y-102905301D01*
X142000000Y-103138690D01*
X138620646Y-103138690D01*
X138674092Y-102870000D01*
X138558839Y-102290582D01*
X138230625Y-101799375D01*
X137932239Y-101600000D01*
X138230625Y-101400625D01*
X138558839Y-100909418D01*
X138674092Y-100330000D01*
X138558839Y-99750582D01*
X138230625Y-99259375D01*
X137932239Y-99060000D01*
X138230625Y-98860625D01*
X138558839Y-98369418D01*
X138674092Y-97790000D01*
X138558839Y-97210582D01*
X138230625Y-96719375D01*
X137932239Y-96520000D01*
X138230625Y-96320625D01*
X138558839Y-95829418D01*
X138674092Y-95250000D01*
X138558839Y-94670582D01*
X138230625Y-94179375D01*
X137739418Y-93851161D01*
X137306256Y-93765000D01*
X137013744Y-93765000D01*
X136580582Y-93851161D01*
X136089375Y-94179375D01*
X136077184Y-94197619D01*
X136068157Y-94152235D01*
X135927809Y-93942191D01*
X135717765Y-93801843D01*
X135470000Y-93752560D01*
X133770000Y-93752560D01*
X133522235Y-93801843D01*
X133312191Y-93942191D01*
X133171843Y-94152235D01*
X133122560Y-94400000D01*
X133122560Y-94490000D01*
X132394802Y-94490000D01*
X129721372Y-91816571D01*
X129755000Y-91735385D01*
X129755000Y-91144615D01*
X129528922Y-90598815D01*
X129111185Y-90181078D01*
X129064753Y-90161845D01*
X129134353Y-89943958D01*
X128397000Y-89206605D01*
X128397000Y-88900000D01*
X128449605Y-88900000D01*
X129313958Y-89764353D01*
X129565259Y-89684080D01*
X129766718Y-89128721D01*
X129740315Y-88538542D01*
X129565259Y-88115920D01*
X129313958Y-88035647D01*
X128449605Y-88900000D01*
X128397000Y-88900000D01*
X128397000Y-88593395D01*
X129134353Y-87856042D01*
X129064753Y-87638155D01*
X129111185Y-87618922D01*
X129528922Y-87201185D01*
X129755000Y-86655385D01*
X129755000Y-86064615D01*
X129528922Y-85518815D01*
X129111185Y-85101078D01*
X129084440Y-85090000D01*
X129111185Y-85078922D01*
X129528922Y-84661185D01*
X129755000Y-84115385D01*
X129755000Y-83524615D01*
X129666103Y-83310000D01*
X130964201Y-83310000D01*
X131958673Y-84304473D01*
X132001073Y-84367929D01*
X132252465Y-84535904D01*
X132474150Y-84580000D01*
X132474154Y-84580000D01*
X132549001Y-84594888D01*
X132623848Y-84580000D01*
X135186289Y-84580000D01*
X135303720Y-84697431D01*
X135684126Y-84855000D01*
X136095874Y-84855000D01*
X136476280Y-84697431D01*
X136593711Y-84580000D01*
X140758153Y-84580000D01*
X140833000Y-84594888D01*
X140907847Y-84580000D01*
X140907852Y-84580000D01*
X141129537Y-84535904D01*
X141380929Y-84367929D01*
X141423331Y-84304470D01*
X144502473Y-81225329D01*
X144565929Y-81182929D01*
X144673914Y-81021318D01*
X144865765Y-80983157D01*
X144917333Y-80948700D01*
X145306499Y-80948700D01*
X144295528Y-81959671D01*
X144232072Y-82002071D01*
X144189672Y-82065527D01*
X144189671Y-82065528D01*
X144064097Y-82253463D01*
X144005112Y-82550000D01*
X144020001Y-82624852D01*
X144020000Y-85015153D01*
X144005112Y-85090000D01*
X144020000Y-85164847D01*
X144020000Y-85164851D01*
X144064096Y-85386536D01*
X144232071Y-85637929D01*
X144295530Y-85680331D01*
X146560001Y-87944804D01*
X146560000Y-102733405D01*
X146310358Y-102630000D01*
X145709642Y-102630000D01*
X145154654Y-102859884D01*
X144977779Y-103036759D01*
X144923327Y-102905301D01*
X144744698Y-102726673D01*
X144511309Y-102630000D01*
X143795750Y-102630000D01*
X143637000Y-102788750D01*
X143637000Y-104013000D01*
X143657000Y-104013000D01*
X143657000Y-104267000D01*
X143637000Y-104267000D01*
X143637000Y-105491250D01*
X143795750Y-105650000D01*
X144511309Y-105650000D01*
X144744698Y-105553327D01*
X144923327Y-105374699D01*
X144977779Y-105243241D01*
X145154654Y-105420116D01*
X145709642Y-105650000D01*
X146310358Y-105650000D01*
X146865346Y-105420116D01*
X147260000Y-105025462D01*
X147654654Y-105420116D01*
X148209642Y-105650000D01*
X148810358Y-105650000D01*
X149365346Y-105420116D01*
X149790116Y-104995346D01*
X150020000Y-104440358D01*
X150020000Y-103839642D01*
X149790116Y-103284654D01*
X149365346Y-102859884D01*
X148810358Y-102630000D01*
X148209642Y-102630000D01*
X148114295Y-102669494D01*
X148080000Y-102635199D01*
X148080000Y-87704846D01*
X148094888Y-87629999D01*
X148080000Y-87555152D01*
X148080000Y-87555148D01*
X148035904Y-87333463D01*
X147947519Y-87201185D01*
X147910329Y-87145526D01*
X147910327Y-87145524D01*
X147867929Y-87082071D01*
X147804476Y-87039673D01*
X145540000Y-84775199D01*
X145540000Y-83375431D01*
X147625000Y-83375431D01*
X147625000Y-84264569D01*
X147965259Y-85086026D01*
X148593974Y-85714741D01*
X149415431Y-86055000D01*
X150304569Y-86055000D01*
X151126026Y-85714741D01*
X151754741Y-85086026D01*
X152095000Y-84264569D01*
X152095000Y-83375431D01*
X151754741Y-82553974D01*
X151126026Y-81925259D01*
X150304569Y-81585000D01*
X149415431Y-81585000D01*
X148593974Y-81925259D01*
X147965259Y-82553974D01*
X147625000Y-83375431D01*
X145540000Y-83375431D01*
X145540000Y-82864801D01*
X147996474Y-80408328D01*
X148059930Y-80365928D01*
X148227905Y-80114536D01*
X148272001Y-79892851D01*
X148272001Y-79892846D01*
X148286889Y-79817999D01*
X148272001Y-79743152D01*
X148272001Y-74725848D01*
X148286889Y-74651001D01*
X148272001Y-74576154D01*
X148272001Y-74576149D01*
X148227905Y-74354464D01*
X148059930Y-74103072D01*
X147996474Y-74060672D01*
X147834440Y-73898638D01*
X147834440Y-73126000D01*
X147785157Y-72878235D01*
X147644809Y-72668191D01*
X147572000Y-72619541D01*
X147572000Y-72331711D01*
X147689431Y-72214280D01*
X147847000Y-71833874D01*
X147847000Y-71667801D01*
X150344473Y-69170329D01*
X150407929Y-69127929D01*
X150575904Y-68876537D01*
X150620000Y-68654852D01*
X150620000Y-68654847D01*
X150634888Y-68580000D01*
X150620000Y-68505153D01*
X150620000Y-63381840D01*
X150627546Y-63378714D01*
X151008714Y-62997546D01*
X151215000Y-62499526D01*
X151215000Y-61960474D01*
X151008714Y-61462454D01*
X150627546Y-61081286D01*
X150129526Y-60875000D01*
X149590474Y-60875000D01*
X149092454Y-61081286D01*
X148711286Y-61462454D01*
X148590000Y-61755265D01*
X148468714Y-61462454D01*
X148087546Y-61081286D01*
X147589526Y-60875000D01*
X147050474Y-60875000D01*
X146552454Y-61081286D01*
X146171286Y-61462454D01*
X146056675Y-61739151D01*
X145967611Y-61524131D01*
X145729774Y-61459831D01*
X144959605Y-62230000D01*
X145729774Y-63000169D01*
X145967611Y-62935869D01*
X146049649Y-62703886D01*
X146171286Y-62997546D01*
X146552454Y-63378714D01*
X147050474Y-63585000D01*
X147589526Y-63585000D01*
X148087546Y-63378714D01*
X148468714Y-62997546D01*
X148590000Y-62704735D01*
X148711286Y-62997546D01*
X149092454Y-63378714D01*
X149100001Y-63381840D01*
X149100001Y-64495021D01*
X148995174Y-64451600D01*
X148583426Y-64451600D01*
X148203020Y-64609169D01*
X148085589Y-64726600D01*
X140731402Y-64726600D01*
X139589802Y-63585000D01*
X139969526Y-63585000D01*
X140467546Y-63378714D01*
X140666486Y-63179774D01*
X144009831Y-63179774D01*
X144074131Y-63417611D01*
X144582342Y-63597333D01*
X145120644Y-63568892D01*
X145485869Y-63417611D01*
X145550169Y-63179774D01*
X144780000Y-62409605D01*
X144009831Y-63179774D01*
X140666486Y-63179774D01*
X140848714Y-62997546D01*
X141055000Y-62499526D01*
X141055000Y-62032342D01*
X143412667Y-62032342D01*
X143441108Y-62570644D01*
X143592389Y-62935869D01*
X143830226Y-63000169D01*
X144600395Y-62230000D01*
X143830226Y-61459831D01*
X143592389Y-61524131D01*
X143412667Y-62032342D01*
X141055000Y-62032342D01*
X141055000Y-61960474D01*
X140848714Y-61462454D01*
X140666486Y-61280226D01*
X144009831Y-61280226D01*
X144780000Y-62050395D01*
X145550169Y-61280226D01*
X145485869Y-61042389D01*
X144977658Y-60862667D01*
X144439356Y-60891108D01*
X144074131Y-61042389D01*
X144009831Y-61280226D01*
X140666486Y-61280226D01*
X140467546Y-61081286D01*
X139969526Y-60875000D01*
X139430474Y-60875000D01*
X138932454Y-61081286D01*
X138551286Y-61462454D01*
X138430000Y-61755265D01*
X138308714Y-61462454D01*
X137927546Y-61081286D01*
X137429526Y-60875000D01*
X136890474Y-60875000D01*
X136392454Y-61081286D01*
X136011286Y-61462454D01*
X135896675Y-61739151D01*
X135807611Y-61524131D01*
X135569774Y-61459831D01*
X134799605Y-62230000D01*
X135569774Y-63000169D01*
X135807611Y-62935869D01*
X135889649Y-62703886D01*
X136011286Y-62997546D01*
X136392454Y-63378714D01*
X136890474Y-63585000D01*
X137429526Y-63585000D01*
X137437073Y-63581874D01*
X139826271Y-65971073D01*
X139868671Y-66034529D01*
X140120063Y-66202504D01*
X140341748Y-66246600D01*
X140341753Y-66246600D01*
X140416600Y-66261488D01*
X140491447Y-66246600D01*
X148085589Y-66246600D01*
X148203020Y-66364031D01*
X148583426Y-66521600D01*
X148995174Y-66521600D01*
X149100000Y-66478180D01*
X149100000Y-68265198D01*
X146772199Y-70593000D01*
X146606126Y-70593000D01*
X146225720Y-70750569D01*
X146108289Y-70868000D01*
X138879711Y-70868000D01*
X138762280Y-70750569D01*
X138381874Y-70593000D01*
X137970126Y-70593000D01*
X137589720Y-70750569D01*
X137298569Y-71041720D01*
X137141000Y-71422126D01*
X137141000Y-71833874D01*
X137298569Y-72214280D01*
X137416000Y-72331711D01*
X137416000Y-72553541D01*
X137343191Y-72602191D01*
X137202843Y-72812235D01*
X137153560Y-73060000D01*
X137153560Y-74260000D01*
X137202843Y-74507765D01*
X137263873Y-74599102D01*
X137262673Y-74600302D01*
X137166000Y-74833691D01*
X137166000Y-75274250D01*
X137324750Y-75433000D01*
X138049000Y-75433000D01*
X138049000Y-75413000D01*
X138303000Y-75413000D01*
X138303000Y-75433000D01*
X139027250Y-75433000D01*
X139186000Y-75274250D01*
X139186000Y-74833691D01*
X139089327Y-74600302D01*
X139088127Y-74599102D01*
X139149157Y-74507765D01*
X139198440Y-74260000D01*
X139198440Y-73060000D01*
X139149157Y-72812235D01*
X139008809Y-72602191D01*
X138936000Y-72553541D01*
X138936000Y-72388000D01*
X146052000Y-72388000D01*
X146052000Y-72619541D01*
X145979191Y-72668191D01*
X145838843Y-72878235D01*
X145789560Y-73126000D01*
X145789560Y-74326000D01*
X145838843Y-74573765D01*
X145899873Y-74665102D01*
X145898673Y-74666302D01*
X145802000Y-74899691D01*
X145802000Y-75340250D01*
X145960750Y-75499000D01*
X146685000Y-75499000D01*
X146685000Y-75479000D01*
X146752002Y-75479000D01*
X146752002Y-75773000D01*
X146685000Y-75773000D01*
X146685000Y-75753000D01*
X145960750Y-75753000D01*
X145802000Y-75911750D01*
X145802000Y-76352309D01*
X145898673Y-76585698D01*
X146077301Y-76764327D01*
X146310690Y-76861000D01*
X146526250Y-76861000D01*
X146684998Y-76702252D01*
X146684998Y-76861000D01*
X146752002Y-76861000D01*
X146752001Y-79426990D01*
X146636280Y-79311269D01*
X146255874Y-79153700D01*
X145844126Y-79153700D01*
X145463720Y-79311269D01*
X145346289Y-79428700D01*
X145224405Y-79428700D01*
X145216157Y-79387235D01*
X145075809Y-79177191D01*
X144865765Y-79036843D01*
X144618000Y-78987560D01*
X143418000Y-78987560D01*
X143170235Y-79036843D01*
X143078898Y-79097873D01*
X143077698Y-79096673D01*
X142844309Y-79000000D01*
X142403750Y-79000000D01*
X142245000Y-79158750D01*
X142245000Y-79883000D01*
X142265000Y-79883000D01*
X142265000Y-80137000D01*
X142245000Y-80137000D01*
X142245000Y-80861250D01*
X142403750Y-81020000D01*
X142558198Y-81020000D01*
X140518199Y-83060000D01*
X136593711Y-83060000D01*
X136476280Y-82942569D01*
X136095874Y-82785000D01*
X135684126Y-82785000D01*
X135303720Y-82942569D01*
X135186289Y-83060000D01*
X132863804Y-83060000D01*
X132025564Y-82221761D01*
X132386826Y-82371400D01*
X132798574Y-82371400D01*
X133178980Y-82213831D01*
X133470131Y-81922680D01*
X133627700Y-81542274D01*
X133627700Y-81130526D01*
X133470131Y-80750120D01*
X133178980Y-80458969D01*
X132798574Y-80301400D01*
X132632502Y-80301400D01*
X132626852Y-80295750D01*
X140883000Y-80295750D01*
X140883000Y-80511310D01*
X140979673Y-80744699D01*
X141158302Y-80923327D01*
X141391691Y-81020000D01*
X141832250Y-81020000D01*
X141991000Y-80861250D01*
X141991000Y-80137000D01*
X141041750Y-80137000D01*
X140883000Y-80295750D01*
X132626852Y-80295750D01*
X131839792Y-79508690D01*
X140883000Y-79508690D01*
X140883000Y-79724250D01*
X141041750Y-79883000D01*
X141991000Y-79883000D01*
X141991000Y-79158750D01*
X141832250Y-79000000D01*
X141391691Y-79000000D01*
X141158302Y-79096673D01*
X140979673Y-79275301D01*
X140883000Y-79508690D01*
X131839792Y-79508690D01*
X130586631Y-78255530D01*
X130544229Y-78192071D01*
X130292837Y-78024096D01*
X130071152Y-77980000D01*
X130071147Y-77980000D01*
X129996300Y-77965112D01*
X129921453Y-77980000D01*
X129562550Y-77980000D01*
X129528922Y-77898815D01*
X129111185Y-77481078D01*
X129084440Y-77470000D01*
X129111185Y-77458922D01*
X129528922Y-77041185D01*
X129755000Y-76495385D01*
X129755000Y-75904615D01*
X129730618Y-75845750D01*
X137166000Y-75845750D01*
X137166000Y-76286309D01*
X137262673Y-76519698D01*
X137441301Y-76698327D01*
X137674690Y-76795000D01*
X137890250Y-76795000D01*
X138049000Y-76636250D01*
X138049000Y-75687000D01*
X138303000Y-75687000D01*
X138303000Y-76636250D01*
X138461750Y-76795000D01*
X138677310Y-76795000D01*
X138910699Y-76698327D01*
X139089327Y-76519698D01*
X139186000Y-76286309D01*
X139186000Y-75845750D01*
X139027250Y-75687000D01*
X138303000Y-75687000D01*
X138049000Y-75687000D01*
X137324750Y-75687000D01*
X137166000Y-75845750D01*
X129730618Y-75845750D01*
X129528922Y-75358815D01*
X129111185Y-74941078D01*
X129084440Y-74930000D01*
X129111185Y-74918922D01*
X129528922Y-74501185D01*
X129755000Y-73955385D01*
X129755000Y-73364615D01*
X129528922Y-72818815D01*
X129111185Y-72401078D01*
X129084440Y-72390000D01*
X129111185Y-72378922D01*
X129528922Y-71961185D01*
X129755000Y-71415385D01*
X129755000Y-70824615D01*
X129528922Y-70278815D01*
X129111185Y-69861078D01*
X128565385Y-69635000D01*
X127974615Y-69635000D01*
X127428815Y-69861078D01*
X127193006Y-70096887D01*
X127178157Y-70022235D01*
X127037809Y-69812191D01*
X126827765Y-69671843D01*
X126580000Y-69622560D01*
X125762241Y-69622560D01*
X132205027Y-63179774D01*
X133849831Y-63179774D01*
X133914131Y-63417611D01*
X134422342Y-63597333D01*
X134960644Y-63568892D01*
X135325869Y-63417611D01*
X135390169Y-63179774D01*
X134620000Y-62409605D01*
X133849831Y-63179774D01*
X132205027Y-63179774D01*
X133257675Y-62127127D01*
X133281108Y-62570644D01*
X133432389Y-62935869D01*
X133670226Y-63000169D01*
X134440395Y-62230000D01*
X134426253Y-62215858D01*
X134605858Y-62036253D01*
X134620000Y-62050395D01*
X135390169Y-61280226D01*
X135325869Y-61042389D01*
X134817658Y-60862667D01*
X134505650Y-60879152D01*
X136882928Y-58501874D01*
X136890474Y-58505000D01*
X137429526Y-58505000D01*
X137927546Y-58298714D01*
X138308714Y-57917546D01*
X138430000Y-57624735D01*
X138551286Y-57917546D01*
X138932454Y-58298714D01*
X139430474Y-58505000D01*
X139969526Y-58505000D01*
X140467546Y-58298714D01*
X140666486Y-58099774D01*
X144009831Y-58099774D01*
X144074131Y-58337611D01*
X144582342Y-58517333D01*
X145120644Y-58488892D01*
X145485869Y-58337611D01*
X145550169Y-58099774D01*
X144780000Y-57329605D01*
X144009831Y-58099774D01*
X140666486Y-58099774D01*
X140848714Y-57917546D01*
X141055000Y-57419526D01*
X141055000Y-56952342D01*
X143412667Y-56952342D01*
X143441108Y-57490644D01*
X143592389Y-57855869D01*
X143830226Y-57920169D01*
X144600395Y-57150000D01*
X144959605Y-57150000D01*
X145729774Y-57920169D01*
X145967611Y-57855869D01*
X146049649Y-57623886D01*
X146171286Y-57917546D01*
X146552454Y-58298714D01*
X147050474Y-58505000D01*
X147589526Y-58505000D01*
X148087546Y-58298714D01*
X148468714Y-57917546D01*
X148590000Y-57624735D01*
X148711286Y-57917546D01*
X149092454Y-58298714D01*
X149590474Y-58505000D01*
X150129526Y-58505000D01*
X150627546Y-58298714D01*
X151008714Y-57917546D01*
X151215000Y-57419526D01*
X151215000Y-56880474D01*
X151008714Y-56382454D01*
X150627546Y-56001286D01*
X150129526Y-55795000D01*
X149590474Y-55795000D01*
X149092454Y-56001286D01*
X148711286Y-56382454D01*
X148590000Y-56675265D01*
X148468714Y-56382454D01*
X148087546Y-56001286D01*
X147589526Y-55795000D01*
X147050474Y-55795000D01*
X146552454Y-56001286D01*
X146171286Y-56382454D01*
X146056675Y-56659151D01*
X145967611Y-56444131D01*
X145729774Y-56379831D01*
X144959605Y-57150000D01*
X144600395Y-57150000D01*
X143830226Y-56379831D01*
X143592389Y-56444131D01*
X143412667Y-56952342D01*
X141055000Y-56952342D01*
X141055000Y-56880474D01*
X140848714Y-56382454D01*
X140666486Y-56200226D01*
X144009831Y-56200226D01*
X144780000Y-56970395D01*
X145550169Y-56200226D01*
X145485869Y-55962389D01*
X144977658Y-55782667D01*
X144439356Y-55811108D01*
X144074131Y-55962389D01*
X144009831Y-56200226D01*
X140666486Y-56200226D01*
X140467546Y-56001286D01*
X139969526Y-55795000D01*
X139430474Y-55795000D01*
X138932454Y-56001286D01*
X138551286Y-56382454D01*
X138430000Y-56675265D01*
X138308714Y-56382454D01*
X137927546Y-56001286D01*
X137429526Y-55795000D01*
X136890474Y-55795000D01*
X136650000Y-55894607D01*
X136650000Y-53654801D01*
X136882927Y-53421874D01*
X136890474Y-53425000D01*
X137429526Y-53425000D01*
X137927546Y-53218714D01*
X138308714Y-52837546D01*
X138430000Y-52544735D01*
X138551286Y-52837546D01*
X138932454Y-53218714D01*
X139430474Y-53425000D01*
X139969526Y-53425000D01*
X140467546Y-53218714D01*
X140666486Y-53019774D01*
X144009831Y-53019774D01*
X144074131Y-53257611D01*
X144582342Y-53437333D01*
X145120644Y-53408892D01*
X145485869Y-53257611D01*
X145550169Y-53019774D01*
X144780000Y-52249605D01*
X144009831Y-53019774D01*
X140666486Y-53019774D01*
X140848714Y-52837546D01*
X141055000Y-52339526D01*
X141055000Y-51872342D01*
X143412667Y-51872342D01*
X143441108Y-52410644D01*
X143592389Y-52775869D01*
X143830226Y-52840169D01*
X144600395Y-52070000D01*
X143830226Y-51299831D01*
X143592389Y-51364131D01*
X143412667Y-51872342D01*
X141055000Y-51872342D01*
X141055000Y-51800474D01*
X141051874Y-51792927D01*
X141724575Y-51120226D01*
X144009831Y-51120226D01*
X144780000Y-51890395D01*
X145550169Y-51120226D01*
X145485869Y-50882389D01*
X144977658Y-50702667D01*
X144439356Y-50731108D01*
X144074131Y-50882389D01*
X144009831Y-51120226D01*
X141724575Y-51120226D01*
X144299902Y-48544900D01*
X144705148Y-48544900D01*
X144780000Y-48559789D01*
X144854852Y-48544900D01*
X145260099Y-48544900D01*
X147430198Y-50715000D01*
X147050474Y-50715000D01*
X146552454Y-50921286D01*
X146171286Y-51302454D01*
X146056675Y-51579151D01*
X145967611Y-51364131D01*
X145729774Y-51299831D01*
X144959605Y-52070000D01*
X145729774Y-52840169D01*
X145967611Y-52775869D01*
X146049649Y-52543886D01*
X146171286Y-52837546D01*
X146552454Y-53218714D01*
X147050474Y-53425000D01*
X147589526Y-53425000D01*
X148087546Y-53218714D01*
X148468714Y-52837546D01*
X148590000Y-52544735D01*
X148711286Y-52837546D01*
X149092454Y-53218714D01*
X149590474Y-53425000D01*
X150129526Y-53425000D01*
X150627546Y-53218714D01*
X151008714Y-52837546D01*
X151215000Y-52339526D01*
X151215000Y-51800474D01*
X151008714Y-51302454D01*
X150627546Y-50921286D01*
X150129526Y-50715000D01*
X149590474Y-50715000D01*
X149582928Y-50718126D01*
X146165231Y-47300430D01*
X146122829Y-47236971D01*
X145871437Y-47068996D01*
X145649752Y-47024900D01*
X145649747Y-47024900D01*
X145574900Y-47010012D01*
X145540000Y-47016954D01*
X145540000Y-45728178D01*
X145850625Y-45520625D01*
X146050000Y-45222239D01*
X146249375Y-45520625D01*
X146740582Y-45848839D01*
X147173744Y-45935000D01*
X147466256Y-45935000D01*
X147899418Y-45848839D01*
X148390625Y-45520625D01*
X148405096Y-45498967D01*
X148471673Y-45659698D01*
X148650301Y-45838327D01*
X148883690Y-45935000D01*
X149574250Y-45935000D01*
X149733000Y-45776250D01*
X149733000Y-44577000D01*
X149987000Y-44577000D01*
X149987000Y-45776250D01*
X150145750Y-45935000D01*
X150836310Y-45935000D01*
X151069699Y-45838327D01*
X151248327Y-45659698D01*
X151345000Y-45426309D01*
X151345000Y-44735750D01*
X151186250Y-44577000D01*
X149987000Y-44577000D01*
X149733000Y-44577000D01*
X149713000Y-44577000D01*
X149713000Y-44323000D01*
X149733000Y-44323000D01*
X149733000Y-43123750D01*
X149987000Y-43123750D01*
X149987000Y-44323000D01*
X151186250Y-44323000D01*
X151345000Y-44164250D01*
X151345000Y-43473691D01*
X151248327Y-43240302D01*
X151069699Y-43061673D01*
X150836310Y-42965000D01*
X150145750Y-42965000D01*
X149987000Y-43123750D01*
X149733000Y-43123750D01*
X149574250Y-42965000D01*
X148883690Y-42965000D01*
X148650301Y-43061673D01*
X148471673Y-43240302D01*
X148405096Y-43401033D01*
X148390625Y-43379375D01*
X147899418Y-43051161D01*
X147466256Y-42965000D01*
X147173744Y-42965000D01*
X146740582Y-43051161D01*
X146249375Y-43379375D01*
X146050000Y-43677761D01*
X145850625Y-43379375D01*
X145359418Y-43051161D01*
X144926256Y-42965000D01*
X144633744Y-42965000D01*
X144200582Y-43051161D01*
X143709375Y-43379375D01*
X143381161Y-43870582D01*
X143265908Y-44450000D01*
X143381161Y-45029418D01*
X143709375Y-45520625D01*
X144020001Y-45728178D01*
X144020000Y-47016954D01*
X143985100Y-47010012D01*
X143910252Y-47024900D01*
X143910248Y-47024900D01*
X143688563Y-47068996D01*
X143437171Y-47236971D01*
X143394771Y-47300427D01*
X139977073Y-50718126D01*
X139969526Y-50715000D01*
X139430474Y-50715000D01*
X139422928Y-50718126D01*
X135797931Y-47093130D01*
X135755529Y-47029671D01*
X135504137Y-46861696D01*
X135282452Y-46817600D01*
X135282447Y-46817600D01*
X135207600Y-46802712D01*
X135132753Y-46817600D01*
X134792400Y-46817600D01*
X134792400Y-45929800D01*
X135199418Y-45848839D01*
X135690625Y-45520625D01*
X135890000Y-45222239D01*
X136089375Y-45520625D01*
X136580582Y-45848839D01*
X137013744Y-45935000D01*
X137306256Y-45935000D01*
X137739418Y-45848839D01*
X138230625Y-45520625D01*
X138245096Y-45498967D01*
X138311673Y-45659698D01*
X138490301Y-45838327D01*
X138723690Y-45935000D01*
X139414250Y-45935000D01*
X139573000Y-45776250D01*
X139573000Y-44577000D01*
X139827000Y-44577000D01*
X139827000Y-45776250D01*
X139985750Y-45935000D01*
X140676310Y-45935000D01*
X140909699Y-45838327D01*
X141088327Y-45659698D01*
X141185000Y-45426309D01*
X141185000Y-44735750D01*
X141026250Y-44577000D01*
X139827000Y-44577000D01*
X139573000Y-44577000D01*
X139553000Y-44577000D01*
X139553000Y-44323000D01*
X139573000Y-44323000D01*
X139573000Y-43123750D01*
X139827000Y-43123750D01*
X139827000Y-44323000D01*
X141026250Y-44323000D01*
X141185000Y-44164250D01*
X141185000Y-43473691D01*
X141088327Y-43240302D01*
X140909699Y-43061673D01*
X140676310Y-42965000D01*
X139985750Y-42965000D01*
X139827000Y-43123750D01*
X139573000Y-43123750D01*
X139414250Y-42965000D01*
X138723690Y-42965000D01*
X138490301Y-43061673D01*
X138311673Y-43240302D01*
X138245096Y-43401033D01*
X138230625Y-43379375D01*
X137739418Y-43051161D01*
X137306256Y-42965000D01*
X137013744Y-42965000D01*
X136580582Y-43051161D01*
X136089375Y-43379375D01*
X135890000Y-43677761D01*
X135690625Y-43379375D01*
X135199418Y-43051161D01*
X134766256Y-42965000D01*
X134473744Y-42965000D01*
X134040582Y-43051161D01*
X133549375Y-43379375D01*
X133509121Y-43439619D01*
X132859731Y-42790230D01*
X132817329Y-42726771D01*
X132620120Y-42595000D01*
X152985000Y-42595000D01*
X152985001Y-117425000D01*
X101015000Y-117425000D01*
X101015000Y-83375431D01*
X101905000Y-83375431D01*
X101905000Y-84264569D01*
X102245259Y-85086026D01*
X102873974Y-85714741D01*
X103695431Y-86055000D01*
X104584569Y-86055000D01*
X105406026Y-85714741D01*
X106034741Y-85086026D01*
X106375000Y-84264569D01*
X106375000Y-84105750D01*
X114335000Y-84105750D01*
X114335000Y-84321310D01*
X114431673Y-84554699D01*
X114610302Y-84733327D01*
X114843691Y-84830000D01*
X115284250Y-84830000D01*
X115443000Y-84671250D01*
X115443000Y-83947000D01*
X114493750Y-83947000D01*
X114335000Y-84105750D01*
X106375000Y-84105750D01*
X106375000Y-83375431D01*
X106351498Y-83318690D01*
X114335000Y-83318690D01*
X114335000Y-83534250D01*
X114493750Y-83693000D01*
X115443000Y-83693000D01*
X115443000Y-82968750D01*
X115284250Y-82810000D01*
X114843691Y-82810000D01*
X114610302Y-82906673D01*
X114431673Y-83085301D01*
X114335000Y-83318690D01*
X106351498Y-83318690D01*
X106034741Y-82553974D01*
X105406026Y-81925259D01*
X104584569Y-81585000D01*
X103695431Y-81585000D01*
X102873974Y-81925259D01*
X102245259Y-82553974D01*
X101905000Y-83375431D01*
X101015000Y-83375431D01*
X101015000Y-75845750D01*
X106686000Y-75845750D01*
X106686000Y-76286309D01*
X106782673Y-76519698D01*
X106961301Y-76698327D01*
X107194690Y-76795000D01*
X107410250Y-76795000D01*
X107569000Y-76636250D01*
X107569000Y-75687000D01*
X107823000Y-75687000D01*
X107823000Y-76636250D01*
X107981750Y-76795000D01*
X108197310Y-76795000D01*
X108430699Y-76698327D01*
X108609327Y-76519698D01*
X108706000Y-76286309D01*
X108706000Y-75845750D01*
X115322000Y-75845750D01*
X115322000Y-76286309D01*
X115418673Y-76519698D01*
X115597301Y-76698327D01*
X115830690Y-76795000D01*
X116046250Y-76795000D01*
X116205000Y-76636250D01*
X116205000Y-75687000D01*
X116459000Y-75687000D01*
X116459000Y-76636250D01*
X116617750Y-76795000D01*
X116833310Y-76795000D01*
X117066699Y-76698327D01*
X117245327Y-76519698D01*
X117342000Y-76286309D01*
X117342000Y-75845750D01*
X117183250Y-75687000D01*
X116459000Y-75687000D01*
X116205000Y-75687000D01*
X115480750Y-75687000D01*
X115322000Y-75845750D01*
X108706000Y-75845750D01*
X108547250Y-75687000D01*
X107823000Y-75687000D01*
X107569000Y-75687000D01*
X106844750Y-75687000D01*
X106686000Y-75845750D01*
X101015000Y-75845750D01*
X101015000Y-63179774D01*
X103369831Y-63179774D01*
X103434131Y-63417611D01*
X103942342Y-63597333D01*
X104480644Y-63568892D01*
X104845869Y-63417611D01*
X104910169Y-63179774D01*
X104140000Y-62409605D01*
X103369831Y-63179774D01*
X101015000Y-63179774D01*
X101015000Y-62032342D01*
X102772667Y-62032342D01*
X102801108Y-62570644D01*
X102952389Y-62935869D01*
X103190226Y-63000169D01*
X103960395Y-62230000D01*
X103190226Y-61459831D01*
X102952389Y-61524131D01*
X102772667Y-62032342D01*
X101015000Y-62032342D01*
X101015000Y-61280226D01*
X103369831Y-61280226D01*
X104140000Y-62050395D01*
X104910169Y-61280226D01*
X104845869Y-61042389D01*
X104337658Y-60862667D01*
X103799356Y-60891108D01*
X103434131Y-61042389D01*
X103369831Y-61280226D01*
X101015000Y-61280226D01*
X101015000Y-58099774D01*
X103369831Y-58099774D01*
X103434131Y-58337611D01*
X103942342Y-58517333D01*
X104480644Y-58488892D01*
X104845869Y-58337611D01*
X104910169Y-58099774D01*
X104140000Y-57329605D01*
X103369831Y-58099774D01*
X101015000Y-58099774D01*
X101015000Y-56952342D01*
X102772667Y-56952342D01*
X102801108Y-57490644D01*
X102952389Y-57855869D01*
X103190226Y-57920169D01*
X103960395Y-57150000D01*
X103190226Y-56379831D01*
X102952389Y-56444131D01*
X102772667Y-56952342D01*
X101015000Y-56952342D01*
X101015000Y-56200226D01*
X103369831Y-56200226D01*
X104140000Y-56970395D01*
X104910169Y-56200226D01*
X104845869Y-55962389D01*
X104337658Y-55782667D01*
X103799356Y-55811108D01*
X103434131Y-55962389D01*
X103369831Y-56200226D01*
X101015000Y-56200226D01*
X101015000Y-51872342D01*
X102772667Y-51872342D01*
X102801108Y-52410644D01*
X102952389Y-52775869D01*
X103190226Y-52840169D01*
X103960395Y-52070000D01*
X103190226Y-51299831D01*
X102952389Y-51364131D01*
X102772667Y-51872342D01*
X101015000Y-51872342D01*
X101015000Y-42595000D01*
X103283336Y-42595000D01*
X103088671Y-42725071D01*
X103088671Y-42725071D01*
G37*
X103088671Y-42725071D02*
X103046271Y-42788527D01*
X102479730Y-43355069D01*
X102416271Y-43397471D01*
X102248296Y-43648864D01*
X102204200Y-43870549D01*
X102204200Y-43870553D01*
X102189312Y-43945400D01*
X102204200Y-44020247D01*
X102204201Y-47106848D01*
X102189312Y-47181700D01*
X102248297Y-47478237D01*
X102316167Y-47579811D01*
X102416272Y-47729629D01*
X102479728Y-47772029D01*
X104874600Y-50166902D01*
X104874600Y-50988663D01*
X104845869Y-50882389D01*
X104337658Y-50702667D01*
X103799356Y-50731108D01*
X103434131Y-50882389D01*
X103369831Y-51120226D01*
X104140000Y-51890395D01*
X104154143Y-51876253D01*
X104333748Y-52055858D01*
X104319605Y-52070000D01*
X104333748Y-52084143D01*
X104154143Y-52263748D01*
X104140000Y-52249605D01*
X103369831Y-53019774D01*
X103434131Y-53257611D01*
X103942342Y-53437333D01*
X104480644Y-53408892D01*
X104845869Y-53257611D01*
X104910168Y-53019776D01*
X105025337Y-53134945D01*
X105075169Y-53085113D01*
X105086672Y-53102329D01*
X105150128Y-53144729D01*
X106280170Y-54274772D01*
X106322571Y-54338229D01*
X106573963Y-54506204D01*
X106795648Y-54550300D01*
X106795652Y-54550300D01*
X106870500Y-54565188D01*
X106945348Y-54550300D01*
X107112999Y-54550300D01*
X108531318Y-55968620D01*
X108452454Y-56001286D01*
X108071286Y-56382454D01*
X107950000Y-56675265D01*
X107828714Y-56382454D01*
X107447546Y-56001286D01*
X106949526Y-55795000D01*
X106410474Y-55795000D01*
X105912454Y-56001286D01*
X105531286Y-56382454D01*
X105416675Y-56659151D01*
X105327611Y-56444131D01*
X105089774Y-56379831D01*
X104319605Y-57150000D01*
X105089774Y-57920169D01*
X105327611Y-57855869D01*
X105409649Y-57623886D01*
X105531286Y-57917546D01*
X105912454Y-58298714D01*
X106410474Y-58505000D01*
X106949526Y-58505000D01*
X106957073Y-58501874D01*
X107190000Y-58734802D01*
X107190001Y-60974608D01*
X106949526Y-60875000D01*
X106410474Y-60875000D01*
X105912454Y-61081286D01*
X105531286Y-61462454D01*
X105416675Y-61739151D01*
X105327611Y-61524131D01*
X105089774Y-61459831D01*
X104319605Y-62230000D01*
X105089774Y-63000169D01*
X105327611Y-62935869D01*
X105409649Y-62703886D01*
X105531286Y-62997546D01*
X105912454Y-63378714D01*
X106410474Y-63585000D01*
X106949526Y-63585000D01*
X107447546Y-63378714D01*
X107612779Y-63213481D01*
X113054098Y-68654800D01*
X109149803Y-68654800D01*
X108066700Y-67571698D01*
X108066700Y-67405626D01*
X107909131Y-67025220D01*
X107617980Y-66734069D01*
X107237574Y-66576500D01*
X106825826Y-66576500D01*
X106445420Y-66734069D01*
X106154269Y-67025220D01*
X105996700Y-67405626D01*
X105996700Y-67817374D01*
X106154269Y-68197780D01*
X106445420Y-68488931D01*
X106825826Y-68646500D01*
X106991898Y-68646500D01*
X107656898Y-69311500D01*
X107500211Y-69311500D01*
X107382780Y-69194069D01*
X107002374Y-69036500D01*
X106590626Y-69036500D01*
X106210220Y-69194069D01*
X105919069Y-69485220D01*
X105761500Y-69865626D01*
X105761500Y-70277374D01*
X105919069Y-70657780D01*
X106210220Y-70948931D01*
X106590626Y-71106500D01*
X106791736Y-71106500D01*
X106661000Y-71422126D01*
X106661000Y-71833874D01*
X106818569Y-72214280D01*
X106936001Y-72331712D01*
X106936001Y-72553541D01*
X106863191Y-72602191D01*
X106722843Y-72812235D01*
X106673560Y-73060000D01*
X106673560Y-74260000D01*
X106722843Y-74507765D01*
X106783873Y-74599102D01*
X106782673Y-74600302D01*
X106686000Y-74833691D01*
X106686000Y-75274250D01*
X106844750Y-75433000D01*
X107569000Y-75433000D01*
X107569000Y-75413000D01*
X107823000Y-75413000D01*
X107823000Y-75433000D01*
X108547250Y-75433000D01*
X108706000Y-75274250D01*
X108706000Y-74833691D01*
X108609327Y-74600302D01*
X108608127Y-74599102D01*
X108669157Y-74507765D01*
X108718440Y-74260000D01*
X108718440Y-73060000D01*
X108669157Y-72812235D01*
X108528809Y-72602191D01*
X108456000Y-72553541D01*
X108456000Y-72331711D01*
X108573431Y-72214280D01*
X108731000Y-71833874D01*
X108731000Y-71422126D01*
X108573431Y-71041720D01*
X108363211Y-70831500D01*
X115664789Y-70831500D01*
X115454569Y-71041720D01*
X115297000Y-71422126D01*
X115297000Y-71833874D01*
X115454569Y-72214280D01*
X115572001Y-72331712D01*
X115572001Y-72553541D01*
X115499191Y-72602191D01*
X115358843Y-72812235D01*
X115309560Y-73060000D01*
X115309560Y-74260000D01*
X115358843Y-74507765D01*
X115419873Y-74599102D01*
X115418673Y-74600302D01*
X115322000Y-74833691D01*
X115322000Y-75274250D01*
X115480750Y-75433000D01*
X116205000Y-75433000D01*
X116205000Y-75413000D01*
X116459000Y-75413000D01*
X116459000Y-75433000D01*
X117183250Y-75433000D01*
X117342000Y-75274250D01*
X117342000Y-74833691D01*
X117245327Y-74600302D01*
X117244127Y-74599102D01*
X117305157Y-74507765D01*
X117354440Y-74260000D01*
X117354440Y-73060000D01*
X117305157Y-72812235D01*
X117164809Y-72602191D01*
X117092000Y-72553541D01*
X117092000Y-72331711D01*
X117209431Y-72214280D01*
X117367000Y-71833874D01*
X117367000Y-71422126D01*
X117209431Y-71041720D01*
X116999211Y-70831500D01*
X124163653Y-70831500D01*
X124232560Y-70845206D01*
X124232560Y-71970000D01*
X124281843Y-72217765D01*
X124422191Y-72427809D01*
X124632235Y-72568157D01*
X124706887Y-72583006D01*
X124471078Y-72818815D01*
X124245000Y-73364615D01*
X124245000Y-73955385D01*
X124471078Y-74501185D01*
X124888815Y-74918922D01*
X124915560Y-74930000D01*
X124888815Y-74941078D01*
X124471078Y-75358815D01*
X124245000Y-75904615D01*
X124245000Y-76495385D01*
X124471078Y-77041185D01*
X124888815Y-77458922D01*
X124915560Y-77470000D01*
X124888815Y-77481078D01*
X124471078Y-77898815D01*
X124245000Y-78444615D01*
X124245000Y-79035385D01*
X124471078Y-79581185D01*
X124888815Y-79998922D01*
X124915560Y-80010000D01*
X124888815Y-80021078D01*
X124471078Y-80438815D01*
X124245000Y-80984615D01*
X124245000Y-81575385D01*
X124333897Y-81790000D01*
X120652189Y-81790000D01*
X120577341Y-81775112D01*
X120502493Y-81790000D01*
X120502489Y-81790000D01*
X120280804Y-81834096D01*
X120029412Y-82002071D01*
X119987012Y-82065527D01*
X119392518Y-82660022D01*
X119226445Y-82660022D01*
X118846039Y-82817591D01*
X118603630Y-83060000D01*
X118576459Y-83060000D01*
X118527809Y-82987191D01*
X118317765Y-82846843D01*
X118070000Y-82797560D01*
X116870000Y-82797560D01*
X116622235Y-82846843D01*
X116530898Y-82907873D01*
X116529698Y-82906673D01*
X116296309Y-82810000D01*
X115855750Y-82810000D01*
X115697000Y-82968750D01*
X115697000Y-83693000D01*
X115717000Y-83693000D01*
X115717000Y-83947000D01*
X115697000Y-83947000D01*
X115697000Y-84671250D01*
X115855750Y-84830000D01*
X116296309Y-84830000D01*
X116529698Y-84733327D01*
X116530898Y-84732127D01*
X116622235Y-84793157D01*
X116870000Y-84842440D01*
X117026652Y-84842440D01*
X116791920Y-84939669D01*
X116500769Y-85230820D01*
X116343200Y-85611226D01*
X116343200Y-86022974D01*
X116500769Y-86403380D01*
X116791920Y-86694531D01*
X117172326Y-86852100D01*
X117584074Y-86852100D01*
X117964480Y-86694531D01*
X118081911Y-86577100D01*
X118652666Y-86577100D01*
X118806869Y-86949380D01*
X119098020Y-87240531D01*
X119478426Y-87398100D01*
X119890174Y-87398100D01*
X120270580Y-87240531D01*
X120388011Y-87123100D01*
X124438734Y-87123100D01*
X124471078Y-87201185D01*
X124888815Y-87618922D01*
X124915560Y-87630000D01*
X124888815Y-87641078D01*
X124540093Y-87989800D01*
X109343846Y-87989800D01*
X109268999Y-87974912D01*
X109194152Y-87989800D01*
X109194148Y-87989800D01*
X108972463Y-88033896D01*
X108721071Y-88201871D01*
X108678671Y-88265327D01*
X108545198Y-88398800D01*
X108379126Y-88398800D01*
X107998720Y-88556369D01*
X107707569Y-88847520D01*
X107550000Y-89227926D01*
X107550000Y-89639674D01*
X107707569Y-90020080D01*
X107998720Y-90311231D01*
X108379126Y-90468800D01*
X108790874Y-90468800D01*
X109171280Y-90311231D01*
X109462431Y-90020080D01*
X109620000Y-89639674D01*
X109620000Y-89509800D01*
X124375235Y-89509800D01*
X124471078Y-89741185D01*
X124888815Y-90158922D01*
X124915560Y-90170000D01*
X124888815Y-90181078D01*
X124471078Y-90598815D01*
X124245000Y-91144615D01*
X124245000Y-91735385D01*
X124278628Y-91816570D01*
X121605199Y-94490000D01*
X120658178Y-94490000D01*
X120450625Y-94179375D01*
X119959418Y-93851161D01*
X119526256Y-93765000D01*
X119233744Y-93765000D01*
X118800582Y-93851161D01*
X118309375Y-94179375D01*
X118297184Y-94197619D01*
X118288157Y-94152235D01*
X118147809Y-93942191D01*
X117937765Y-93801843D01*
X117690000Y-93752560D01*
X115990000Y-93752560D01*
X115742235Y-93801843D01*
X115532191Y-93942191D01*
X115391843Y-94152235D01*
X115342560Y-94400000D01*
X115342560Y-96100000D01*
X115391843Y-96347765D01*
X115532191Y-96557809D01*
X115742235Y-96698157D01*
X115787619Y-96707184D01*
X115769375Y-96719375D01*
X115441161Y-97210582D01*
X115325908Y-97790000D01*
X115441161Y-98369418D01*
X115769375Y-98860625D01*
X116067761Y-99060000D01*
X115769375Y-99259375D01*
X115441161Y-99750582D01*
X115325908Y-100330000D01*
X115441161Y-100909418D01*
X115769375Y-101400625D01*
X116067761Y-101600000D01*
X115769375Y-101799375D01*
X115441161Y-102290582D01*
X115325908Y-102870000D01*
X115441161Y-103449418D01*
X115769375Y-103940625D01*
X116067761Y-104140000D01*
X115769375Y-104339375D01*
X115441161Y-104830582D01*
X115325908Y-105410000D01*
X115441161Y-105989418D01*
X115769375Y-106480625D01*
X116067761Y-106680000D01*
X115769375Y-106879375D01*
X115441161Y-107370582D01*
X115325908Y-107950000D01*
X115441161Y-108529418D01*
X115769375Y-109020625D01*
X116067761Y-109220000D01*
X115769375Y-109419375D01*
X115441161Y-109910582D01*
X115325908Y-110490000D01*
X115441161Y-111069418D01*
X115769375Y-111560625D01*
X116067761Y-111760000D01*
X115769375Y-111959375D01*
X115441161Y-112450582D01*
X115325908Y-113030000D01*
X115441161Y-113609418D01*
X115769375Y-114100625D01*
X116067761Y-114300000D01*
X115769375Y-114499375D01*
X115441161Y-114990582D01*
X115325908Y-115570000D01*
X115441161Y-116149418D01*
X115769375Y-116640625D01*
X116260582Y-116968839D01*
X116693744Y-117055000D01*
X116986256Y-117055000D01*
X117419418Y-116968839D01*
X117910625Y-116640625D01*
X118110000Y-116342239D01*
X118309375Y-116640625D01*
X118800582Y-116968839D01*
X119233744Y-117055000D01*
X119526256Y-117055000D01*
X119959418Y-116968839D01*
X120450625Y-116640625D01*
X120658178Y-116330000D01*
X121845153Y-116330000D01*
X121920000Y-116344888D01*
X121994847Y-116330000D01*
X121994852Y-116330000D01*
X122216537Y-116285904D01*
X122467929Y-116117929D01*
X122510331Y-116054470D01*
X125353430Y-113211372D01*
X125434615Y-113245000D01*
X126025385Y-113245000D01*
X126571185Y-113018922D01*
X126988922Y-112601185D01*
X127000000Y-112574440D01*
X127011078Y-112601185D01*
X127428815Y-113018922D01*
X127974615Y-113245000D01*
X128565385Y-113245000D01*
X128646571Y-113211372D01*
X131489671Y-116054473D01*
X131532071Y-116117929D01*
X131595527Y-116160329D01*
X131783462Y-116285904D01*
X131831605Y-116295480D01*
X132005148Y-116330000D01*
X132005152Y-116330000D01*
X132080000Y-116344888D01*
X132154848Y-116330000D01*
X133341822Y-116330000D01*
X133549375Y-116640625D01*
X134040582Y-116968839D01*
X134473744Y-117055000D01*
X134766256Y-117055000D01*
X135199418Y-116968839D01*
X135690625Y-116640625D01*
X135890000Y-116342239D01*
X136089375Y-116640625D01*
X136580582Y-116968839D01*
X137013744Y-117055000D01*
X137306256Y-117055000D01*
X137739418Y-116968839D01*
X138230625Y-116640625D01*
X138558839Y-116149418D01*
X138674092Y-115570000D01*
X138558839Y-114990582D01*
X138230625Y-114499375D01*
X137932239Y-114300000D01*
X138230625Y-114100625D01*
X138558839Y-113609418D01*
X138617252Y-113315750D01*
X142000000Y-113315750D01*
X142000000Y-114031310D01*
X142096673Y-114264699D01*
X142275302Y-114443327D01*
X142508691Y-114540000D01*
X143224250Y-114540000D01*
X143383000Y-114381250D01*
X143383000Y-113157000D01*
X142158750Y-113157000D01*
X142000000Y-113315750D01*
X138617252Y-113315750D01*
X138674092Y-113030000D01*
X138558839Y-112450582D01*
X138276940Y-112028690D01*
X142000000Y-112028690D01*
X142000000Y-112744250D01*
X142158750Y-112903000D01*
X143383000Y-112903000D01*
X143383000Y-111678750D01*
X143637000Y-111678750D01*
X143637000Y-112903000D01*
X143657000Y-112903000D01*
X143657000Y-113157000D01*
X143637000Y-113157000D01*
X143637000Y-114381250D01*
X143795750Y-114540000D01*
X144511309Y-114540000D01*
X144744698Y-114443327D01*
X144923327Y-114264699D01*
X144977779Y-114133241D01*
X145154654Y-114310116D01*
X145709642Y-114540000D01*
X146310358Y-114540000D01*
X146865346Y-114310116D01*
X147260000Y-113915462D01*
X147654654Y-114310116D01*
X148209642Y-114540000D01*
X148810358Y-114540000D01*
X149365346Y-114310116D01*
X149790116Y-113885346D01*
X150020000Y-113330358D01*
X150020000Y-112729642D01*
X149790116Y-112174654D01*
X149365346Y-111749884D01*
X148810358Y-111520000D01*
X148209642Y-111520000D01*
X147654654Y-111749884D01*
X147260000Y-112144538D01*
X146865346Y-111749884D01*
X146310358Y-111520000D01*
X145709642Y-111520000D01*
X145154654Y-111749884D01*
X144977779Y-111926759D01*
X144923327Y-111795301D01*
X144744698Y-111616673D01*
X144511309Y-111520000D01*
X143795750Y-111520000D01*
X143637000Y-111678750D01*
X143383000Y-111678750D01*
X143224250Y-111520000D01*
X142508691Y-111520000D01*
X142275302Y-111616673D01*
X142096673Y-111795301D01*
X142000000Y-112028690D01*
X138276940Y-112028690D01*
X138230625Y-111959375D01*
X137932239Y-111760000D01*
X138230625Y-111560625D01*
X138558839Y-111069418D01*
X138674092Y-110490000D01*
X138558839Y-109910582D01*
X138230625Y-109419375D01*
X137932239Y-109220000D01*
X138230625Y-109020625D01*
X138558839Y-108529418D01*
X138674092Y-107950000D01*
X138558839Y-107370582D01*
X138230625Y-106879375D01*
X137932239Y-106680000D01*
X138230625Y-106480625D01*
X138558839Y-105989418D01*
X138674092Y-105410000D01*
X138558839Y-104830582D01*
X138288339Y-104425750D01*
X142000000Y-104425750D01*
X142000000Y-105141310D01*
X142096673Y-105374699D01*
X142275302Y-105553327D01*
X142508691Y-105650000D01*
X143224250Y-105650000D01*
X143383000Y-105491250D01*
X143383000Y-104267000D01*
X142158750Y-104267000D01*
X142000000Y-104425750D01*
X138288339Y-104425750D01*
X138230625Y-104339375D01*
X137932239Y-104140000D01*
X138230625Y-103940625D01*
X138558839Y-103449418D01*
X138620646Y-103138690D01*
X142000000Y-103138690D01*
X142000000Y-103854250D01*
X142158750Y-104013000D01*
X143383000Y-104013000D01*
X143383000Y-102788750D01*
X143224250Y-102630000D01*
X142508691Y-102630000D01*
X142275302Y-102726673D01*
X142096673Y-102905301D01*
X142000000Y-103138690D01*
X138620646Y-103138690D01*
X138674092Y-102870000D01*
X138558839Y-102290582D01*
X138230625Y-101799375D01*
X137932239Y-101600000D01*
X138230625Y-101400625D01*
X138558839Y-100909418D01*
X138674092Y-100330000D01*
X138558839Y-99750582D01*
X138230625Y-99259375D01*
X137932239Y-99060000D01*
X138230625Y-98860625D01*
X138558839Y-98369418D01*
X138674092Y-97790000D01*
X138558839Y-97210582D01*
X138230625Y-96719375D01*
X137932239Y-96520000D01*
X138230625Y-96320625D01*
X138558839Y-95829418D01*
X138674092Y-95250000D01*
X138558839Y-94670582D01*
X138230625Y-94179375D01*
X137739418Y-93851161D01*
X137306256Y-93765000D01*
X137013744Y-93765000D01*
X136580582Y-93851161D01*
X136089375Y-94179375D01*
X136077184Y-94197619D01*
X136068157Y-94152235D01*
X135927809Y-93942191D01*
X135717765Y-93801843D01*
X135470000Y-93752560D01*
X133770000Y-93752560D01*
X133522235Y-93801843D01*
X133312191Y-93942191D01*
X133171843Y-94152235D01*
X133122560Y-94400000D01*
X133122560Y-94490000D01*
X132394802Y-94490000D01*
X129721372Y-91816571D01*
X129755000Y-91735385D01*
X129755000Y-91144615D01*
X129528922Y-90598815D01*
X129111185Y-90181078D01*
X129064753Y-90161845D01*
X129134353Y-89943958D01*
X128397000Y-89206605D01*
X128397000Y-88900000D01*
X128449605Y-88900000D01*
X129313958Y-89764353D01*
X129565259Y-89684080D01*
X129766718Y-89128721D01*
X129740315Y-88538542D01*
X129565259Y-88115920D01*
X129313958Y-88035647D01*
X128449605Y-88900000D01*
X128397000Y-88900000D01*
X128397000Y-88593395D01*
X129134353Y-87856042D01*
X129064753Y-87638155D01*
X129111185Y-87618922D01*
X129528922Y-87201185D01*
X129755000Y-86655385D01*
X129755000Y-86064615D01*
X129528922Y-85518815D01*
X129111185Y-85101078D01*
X129084440Y-85090000D01*
X129111185Y-85078922D01*
X129528922Y-84661185D01*
X129755000Y-84115385D01*
X129755000Y-83524615D01*
X129666103Y-83310000D01*
X130964201Y-83310000D01*
X131958673Y-84304473D01*
X132001073Y-84367929D01*
X132252465Y-84535904D01*
X132474150Y-84580000D01*
X132474154Y-84580000D01*
X132549001Y-84594888D01*
X132623848Y-84580000D01*
X135186289Y-84580000D01*
X135303720Y-84697431D01*
X135684126Y-84855000D01*
X136095874Y-84855000D01*
X136476280Y-84697431D01*
X136593711Y-84580000D01*
X140758153Y-84580000D01*
X140833000Y-84594888D01*
X140907847Y-84580000D01*
X140907852Y-84580000D01*
X141129537Y-84535904D01*
X141380929Y-84367929D01*
X141423331Y-84304470D01*
X144502473Y-81225329D01*
X144565929Y-81182929D01*
X144673914Y-81021318D01*
X144865765Y-80983157D01*
X144917333Y-80948700D01*
X145306499Y-80948700D01*
X144295528Y-81959671D01*
X144232072Y-82002071D01*
X144189672Y-82065527D01*
X144189671Y-82065528D01*
X144064097Y-82253463D01*
X144005112Y-82550000D01*
X144020001Y-82624852D01*
X144020000Y-85015153D01*
X144005112Y-85090000D01*
X144020000Y-85164847D01*
X144020000Y-85164851D01*
X144064096Y-85386536D01*
X144232071Y-85637929D01*
X144295530Y-85680331D01*
X146560001Y-87944804D01*
X146560000Y-102733405D01*
X146310358Y-102630000D01*
X145709642Y-102630000D01*
X145154654Y-102859884D01*
X144977779Y-103036759D01*
X144923327Y-102905301D01*
X144744698Y-102726673D01*
X144511309Y-102630000D01*
X143795750Y-102630000D01*
X143637000Y-102788750D01*
X143637000Y-104013000D01*
X143657000Y-104013000D01*
X143657000Y-104267000D01*
X143637000Y-104267000D01*
X143637000Y-105491250D01*
X143795750Y-105650000D01*
X144511309Y-105650000D01*
X144744698Y-105553327D01*
X144923327Y-105374699D01*
X144977779Y-105243241D01*
X145154654Y-105420116D01*
X145709642Y-105650000D01*
X146310358Y-105650000D01*
X146865346Y-105420116D01*
X147260000Y-105025462D01*
X147654654Y-105420116D01*
X148209642Y-105650000D01*
X148810358Y-105650000D01*
X149365346Y-105420116D01*
X149790116Y-104995346D01*
X150020000Y-104440358D01*
X150020000Y-103839642D01*
X149790116Y-103284654D01*
X149365346Y-102859884D01*
X148810358Y-102630000D01*
X148209642Y-102630000D01*
X148114295Y-102669494D01*
X148080000Y-102635199D01*
X148080000Y-87704846D01*
X148094888Y-87629999D01*
X148080000Y-87555152D01*
X148080000Y-87555148D01*
X148035904Y-87333463D01*
X147947519Y-87201185D01*
X147910329Y-87145526D01*
X147910327Y-87145524D01*
X147867929Y-87082071D01*
X147804476Y-87039673D01*
X145540000Y-84775199D01*
X145540000Y-83375431D01*
X147625000Y-83375431D01*
X147625000Y-84264569D01*
X147965259Y-85086026D01*
X148593974Y-85714741D01*
X149415431Y-86055000D01*
X150304569Y-86055000D01*
X151126026Y-85714741D01*
X151754741Y-85086026D01*
X152095000Y-84264569D01*
X152095000Y-83375431D01*
X151754741Y-82553974D01*
X151126026Y-81925259D01*
X150304569Y-81585000D01*
X149415431Y-81585000D01*
X148593974Y-81925259D01*
X147965259Y-82553974D01*
X147625000Y-83375431D01*
X145540000Y-83375431D01*
X145540000Y-82864801D01*
X147996474Y-80408328D01*
X148059930Y-80365928D01*
X148227905Y-80114536D01*
X148272001Y-79892851D01*
X148272001Y-79892846D01*
X148286889Y-79817999D01*
X148272001Y-79743152D01*
X148272001Y-74725848D01*
X148286889Y-74651001D01*
X148272001Y-74576154D01*
X148272001Y-74576149D01*
X148227905Y-74354464D01*
X148059930Y-74103072D01*
X147996474Y-74060672D01*
X147834440Y-73898638D01*
X147834440Y-73126000D01*
X147785157Y-72878235D01*
X147644809Y-72668191D01*
X147572000Y-72619541D01*
X147572000Y-72331711D01*
X147689431Y-72214280D01*
X147847000Y-71833874D01*
X147847000Y-71667801D01*
X150344473Y-69170329D01*
X150407929Y-69127929D01*
X150575904Y-68876537D01*
X150620000Y-68654852D01*
X150620000Y-68654847D01*
X150634888Y-68580000D01*
X150620000Y-68505153D01*
X150620000Y-63381840D01*
X150627546Y-63378714D01*
X151008714Y-62997546D01*
X151215000Y-62499526D01*
X151215000Y-61960474D01*
X151008714Y-61462454D01*
X150627546Y-61081286D01*
X150129526Y-60875000D01*
X149590474Y-60875000D01*
X149092454Y-61081286D01*
X148711286Y-61462454D01*
X148590000Y-61755265D01*
X148468714Y-61462454D01*
X148087546Y-61081286D01*
X147589526Y-60875000D01*
X147050474Y-60875000D01*
X146552454Y-61081286D01*
X146171286Y-61462454D01*
X146056675Y-61739151D01*
X145967611Y-61524131D01*
X145729774Y-61459831D01*
X144959605Y-62230000D01*
X145729774Y-63000169D01*
X145967611Y-62935869D01*
X146049649Y-62703886D01*
X146171286Y-62997546D01*
X146552454Y-63378714D01*
X147050474Y-63585000D01*
X147589526Y-63585000D01*
X148087546Y-63378714D01*
X148468714Y-62997546D01*
X148590000Y-62704735D01*
X148711286Y-62997546D01*
X149092454Y-63378714D01*
X149100001Y-63381840D01*
X149100001Y-64495021D01*
X148995174Y-64451600D01*
X148583426Y-64451600D01*
X148203020Y-64609169D01*
X148085589Y-64726600D01*
X140731402Y-64726600D01*
X139589802Y-63585000D01*
X139969526Y-63585000D01*
X140467546Y-63378714D01*
X140666486Y-63179774D01*
X144009831Y-63179774D01*
X144074131Y-63417611D01*
X144582342Y-63597333D01*
X145120644Y-63568892D01*
X145485869Y-63417611D01*
X145550169Y-63179774D01*
X144780000Y-62409605D01*
X144009831Y-63179774D01*
X140666486Y-63179774D01*
X140848714Y-62997546D01*
X141055000Y-62499526D01*
X141055000Y-62032342D01*
X143412667Y-62032342D01*
X143441108Y-62570644D01*
X143592389Y-62935869D01*
X143830226Y-63000169D01*
X144600395Y-62230000D01*
X143830226Y-61459831D01*
X143592389Y-61524131D01*
X143412667Y-62032342D01*
X141055000Y-62032342D01*
X141055000Y-61960474D01*
X140848714Y-61462454D01*
X140666486Y-61280226D01*
X144009831Y-61280226D01*
X144780000Y-62050395D01*
X145550169Y-61280226D01*
X145485869Y-61042389D01*
X144977658Y-60862667D01*
X144439356Y-60891108D01*
X144074131Y-61042389D01*
X144009831Y-61280226D01*
X140666486Y-61280226D01*
X140467546Y-61081286D01*
X139969526Y-60875000D01*
X139430474Y-60875000D01*
X138932454Y-61081286D01*
X138551286Y-61462454D01*
X138430000Y-61755265D01*
X138308714Y-61462454D01*
X137927546Y-61081286D01*
X137429526Y-60875000D01*
X136890474Y-60875000D01*
X136392454Y-61081286D01*
X136011286Y-61462454D01*
X135896675Y-61739151D01*
X135807611Y-61524131D01*
X135569774Y-61459831D01*
X134799605Y-62230000D01*
X135569774Y-63000169D01*
X135807611Y-62935869D01*
X135889649Y-62703886D01*
X136011286Y-62997546D01*
X136392454Y-63378714D01*
X136890474Y-63585000D01*
X137429526Y-63585000D01*
X137437073Y-63581874D01*
X139826271Y-65971073D01*
X139868671Y-66034529D01*
X140120063Y-66202504D01*
X140341748Y-66246600D01*
X140341753Y-66246600D01*
X140416600Y-66261488D01*
X140491447Y-66246600D01*
X148085589Y-66246600D01*
X148203020Y-66364031D01*
X148583426Y-66521600D01*
X148995174Y-66521600D01*
X149100000Y-66478180D01*
X149100000Y-68265198D01*
X146772199Y-70593000D01*
X146606126Y-70593000D01*
X146225720Y-70750569D01*
X146108289Y-70868000D01*
X138879711Y-70868000D01*
X138762280Y-70750569D01*
X138381874Y-70593000D01*
X137970126Y-70593000D01*
X137589720Y-70750569D01*
X137298569Y-71041720D01*
X137141000Y-71422126D01*
X137141000Y-71833874D01*
X137298569Y-72214280D01*
X137416000Y-72331711D01*
X137416000Y-72553541D01*
X137343191Y-72602191D01*
X137202843Y-72812235D01*
X137153560Y-73060000D01*
X137153560Y-74260000D01*
X137202843Y-74507765D01*
X137263873Y-74599102D01*
X137262673Y-74600302D01*
X137166000Y-74833691D01*
X137166000Y-75274250D01*
X137324750Y-75433000D01*
X138049000Y-75433000D01*
X138049000Y-75413000D01*
X138303000Y-75413000D01*
X138303000Y-75433000D01*
X139027250Y-75433000D01*
X139186000Y-75274250D01*
X139186000Y-74833691D01*
X139089327Y-74600302D01*
X139088127Y-74599102D01*
X139149157Y-74507765D01*
X139198440Y-74260000D01*
X139198440Y-73060000D01*
X139149157Y-72812235D01*
X139008809Y-72602191D01*
X138936000Y-72553541D01*
X138936000Y-72388000D01*
X146052000Y-72388000D01*
X146052000Y-72619541D01*
X145979191Y-72668191D01*
X145838843Y-72878235D01*
X145789560Y-73126000D01*
X145789560Y-74326000D01*
X145838843Y-74573765D01*
X145899873Y-74665102D01*
X145898673Y-74666302D01*
X145802000Y-74899691D01*
X145802000Y-75340250D01*
X145960750Y-75499000D01*
X146685000Y-75499000D01*
X146685000Y-75479000D01*
X146752002Y-75479000D01*
X146752002Y-75773000D01*
X146685000Y-75773000D01*
X146685000Y-75753000D01*
X145960750Y-75753000D01*
X145802000Y-75911750D01*
X145802000Y-76352309D01*
X145898673Y-76585698D01*
X146077301Y-76764327D01*
X146310690Y-76861000D01*
X146526250Y-76861000D01*
X146684998Y-76702252D01*
X146684998Y-76861000D01*
X146752002Y-76861000D01*
X146752001Y-79426990D01*
X146636280Y-79311269D01*
X146255874Y-79153700D01*
X145844126Y-79153700D01*
X145463720Y-79311269D01*
X145346289Y-79428700D01*
X145224405Y-79428700D01*
X145216157Y-79387235D01*
X145075809Y-79177191D01*
X144865765Y-79036843D01*
X144618000Y-78987560D01*
X143418000Y-78987560D01*
X143170235Y-79036843D01*
X143078898Y-79097873D01*
X143077698Y-79096673D01*
X142844309Y-79000000D01*
X142403750Y-79000000D01*
X142245000Y-79158750D01*
X142245000Y-79883000D01*
X142265000Y-79883000D01*
X142265000Y-80137000D01*
X142245000Y-80137000D01*
X142245000Y-80861250D01*
X142403750Y-81020000D01*
X142558198Y-81020000D01*
X140518199Y-83060000D01*
X136593711Y-83060000D01*
X136476280Y-82942569D01*
X136095874Y-82785000D01*
X135684126Y-82785000D01*
X135303720Y-82942569D01*
X135186289Y-83060000D01*
X132863804Y-83060000D01*
X132025564Y-82221761D01*
X132386826Y-82371400D01*
X132798574Y-82371400D01*
X133178980Y-82213831D01*
X133470131Y-81922680D01*
X133627700Y-81542274D01*
X133627700Y-81130526D01*
X133470131Y-80750120D01*
X133178980Y-80458969D01*
X132798574Y-80301400D01*
X132632502Y-80301400D01*
X132626852Y-80295750D01*
X140883000Y-80295750D01*
X140883000Y-80511310D01*
X140979673Y-80744699D01*
X141158302Y-80923327D01*
X141391691Y-81020000D01*
X141832250Y-81020000D01*
X141991000Y-80861250D01*
X141991000Y-80137000D01*
X141041750Y-80137000D01*
X140883000Y-80295750D01*
X132626852Y-80295750D01*
X131839792Y-79508690D01*
X140883000Y-79508690D01*
X140883000Y-79724250D01*
X141041750Y-79883000D01*
X141991000Y-79883000D01*
X141991000Y-79158750D01*
X141832250Y-79000000D01*
X141391691Y-79000000D01*
X141158302Y-79096673D01*
X140979673Y-79275301D01*
X140883000Y-79508690D01*
X131839792Y-79508690D01*
X130586631Y-78255530D01*
X130544229Y-78192071D01*
X130292837Y-78024096D01*
X130071152Y-77980000D01*
X130071147Y-77980000D01*
X129996300Y-77965112D01*
X129921453Y-77980000D01*
X129562550Y-77980000D01*
X129528922Y-77898815D01*
X129111185Y-77481078D01*
X129084440Y-77470000D01*
X129111185Y-77458922D01*
X129528922Y-77041185D01*
X129755000Y-76495385D01*
X129755000Y-75904615D01*
X129730618Y-75845750D01*
X137166000Y-75845750D01*
X137166000Y-76286309D01*
X137262673Y-76519698D01*
X137441301Y-76698327D01*
X137674690Y-76795000D01*
X137890250Y-76795000D01*
X138049000Y-76636250D01*
X138049000Y-75687000D01*
X138303000Y-75687000D01*
X138303000Y-76636250D01*
X138461750Y-76795000D01*
X138677310Y-76795000D01*
X138910699Y-76698327D01*
X139089327Y-76519698D01*
X139186000Y-76286309D01*
X139186000Y-75845750D01*
X139027250Y-75687000D01*
X138303000Y-75687000D01*
X138049000Y-75687000D01*
X137324750Y-75687000D01*
X137166000Y-75845750D01*
X129730618Y-75845750D01*
X129528922Y-75358815D01*
X129111185Y-74941078D01*
X129084440Y-74930000D01*
X129111185Y-74918922D01*
X129528922Y-74501185D01*
X129755000Y-73955385D01*
X129755000Y-73364615D01*
X129528922Y-72818815D01*
X129111185Y-72401078D01*
X129084440Y-72390000D01*
X129111185Y-72378922D01*
X129528922Y-71961185D01*
X129755000Y-71415385D01*
X129755000Y-70824615D01*
X129528922Y-70278815D01*
X129111185Y-69861078D01*
X128565385Y-69635000D01*
X127974615Y-69635000D01*
X127428815Y-69861078D01*
X127193006Y-70096887D01*
X127178157Y-70022235D01*
X127037809Y-69812191D01*
X126827765Y-69671843D01*
X126580000Y-69622560D01*
X125762241Y-69622560D01*
X132205027Y-63179774D01*
X133849831Y-63179774D01*
X133914131Y-63417611D01*
X134422342Y-63597333D01*
X134960644Y-63568892D01*
X135325869Y-63417611D01*
X135390169Y-63179774D01*
X134620000Y-62409605D01*
X133849831Y-63179774D01*
X132205027Y-63179774D01*
X133257675Y-62127127D01*
X133281108Y-62570644D01*
X133432389Y-62935869D01*
X133670226Y-63000169D01*
X134440395Y-62230000D01*
X134426253Y-62215858D01*
X134605858Y-62036253D01*
X134620000Y-62050395D01*
X135390169Y-61280226D01*
X135325869Y-61042389D01*
X134817658Y-60862667D01*
X134505650Y-60879152D01*
X136882928Y-58501874D01*
X136890474Y-58505000D01*
X137429526Y-58505000D01*
X137927546Y-58298714D01*
X138308714Y-57917546D01*
X138430000Y-57624735D01*
X138551286Y-57917546D01*
X138932454Y-58298714D01*
X139430474Y-58505000D01*
X139969526Y-58505000D01*
X140467546Y-58298714D01*
X140666486Y-58099774D01*
X144009831Y-58099774D01*
X144074131Y-58337611D01*
X144582342Y-58517333D01*
X145120644Y-58488892D01*
X145485869Y-58337611D01*
X145550169Y-58099774D01*
X144780000Y-57329605D01*
X144009831Y-58099774D01*
X140666486Y-58099774D01*
X140848714Y-57917546D01*
X141055000Y-57419526D01*
X141055000Y-56952342D01*
X143412667Y-56952342D01*
X143441108Y-57490644D01*
X143592389Y-57855869D01*
X143830226Y-57920169D01*
X144600395Y-57150000D01*
X144959605Y-57150000D01*
X145729774Y-57920169D01*
X145967611Y-57855869D01*
X146049649Y-57623886D01*
X146171286Y-57917546D01*
X146552454Y-58298714D01*
X147050474Y-58505000D01*
X147589526Y-58505000D01*
X148087546Y-58298714D01*
X148468714Y-57917546D01*
X148590000Y-57624735D01*
X148711286Y-57917546D01*
X149092454Y-58298714D01*
X149590474Y-58505000D01*
X150129526Y-58505000D01*
X150627546Y-58298714D01*
X151008714Y-57917546D01*
X151215000Y-57419526D01*
X151215000Y-56880474D01*
X151008714Y-56382454D01*
X150627546Y-56001286D01*
X150129526Y-55795000D01*
X149590474Y-55795000D01*
X149092454Y-56001286D01*
X148711286Y-56382454D01*
X148590000Y-56675265D01*
X148468714Y-56382454D01*
X148087546Y-56001286D01*
X147589526Y-55795000D01*
X147050474Y-55795000D01*
X146552454Y-56001286D01*
X146171286Y-56382454D01*
X146056675Y-56659151D01*
X145967611Y-56444131D01*
X145729774Y-56379831D01*
X144959605Y-57150000D01*
X144600395Y-57150000D01*
X143830226Y-56379831D01*
X143592389Y-56444131D01*
X143412667Y-56952342D01*
X141055000Y-56952342D01*
X141055000Y-56880474D01*
X140848714Y-56382454D01*
X140666486Y-56200226D01*
X144009831Y-56200226D01*
X144780000Y-56970395D01*
X145550169Y-56200226D01*
X145485869Y-55962389D01*
X144977658Y-55782667D01*
X144439356Y-55811108D01*
X144074131Y-55962389D01*
X144009831Y-56200226D01*
X140666486Y-56200226D01*
X140467546Y-56001286D01*
X139969526Y-55795000D01*
X139430474Y-55795000D01*
X138932454Y-56001286D01*
X138551286Y-56382454D01*
X138430000Y-56675265D01*
X138308714Y-56382454D01*
X137927546Y-56001286D01*
X137429526Y-55795000D01*
X136890474Y-55795000D01*
X136650000Y-55894607D01*
X136650000Y-53654801D01*
X136882927Y-53421874D01*
X136890474Y-53425000D01*
X137429526Y-53425000D01*
X137927546Y-53218714D01*
X138308714Y-52837546D01*
X138430000Y-52544735D01*
X138551286Y-52837546D01*
X138932454Y-53218714D01*
X139430474Y-53425000D01*
X139969526Y-53425000D01*
X140467546Y-53218714D01*
X140666486Y-53019774D01*
X144009831Y-53019774D01*
X144074131Y-53257611D01*
X144582342Y-53437333D01*
X145120644Y-53408892D01*
X145485869Y-53257611D01*
X145550169Y-53019774D01*
X144780000Y-52249605D01*
X144009831Y-53019774D01*
X140666486Y-53019774D01*
X140848714Y-52837546D01*
X141055000Y-52339526D01*
X141055000Y-51872342D01*
X143412667Y-51872342D01*
X143441108Y-52410644D01*
X143592389Y-52775869D01*
X143830226Y-52840169D01*
X144600395Y-52070000D01*
X143830226Y-51299831D01*
X143592389Y-51364131D01*
X143412667Y-51872342D01*
X141055000Y-51872342D01*
X141055000Y-51800474D01*
X141051874Y-51792927D01*
X141724575Y-51120226D01*
X144009831Y-51120226D01*
X144780000Y-51890395D01*
X145550169Y-51120226D01*
X145485869Y-50882389D01*
X144977658Y-50702667D01*
X144439356Y-50731108D01*
X144074131Y-50882389D01*
X144009831Y-51120226D01*
X141724575Y-51120226D01*
X144299902Y-48544900D01*
X144705148Y-48544900D01*
X144780000Y-48559789D01*
X144854852Y-48544900D01*
X145260099Y-48544900D01*
X147430198Y-50715000D01*
X147050474Y-50715000D01*
X146552454Y-50921286D01*
X146171286Y-51302454D01*
X146056675Y-51579151D01*
X145967611Y-51364131D01*
X145729774Y-51299831D01*
X144959605Y-52070000D01*
X145729774Y-52840169D01*
X145967611Y-52775869D01*
X146049649Y-52543886D01*
X146171286Y-52837546D01*
X146552454Y-53218714D01*
X147050474Y-53425000D01*
X147589526Y-53425000D01*
X148087546Y-53218714D01*
X148468714Y-52837546D01*
X148590000Y-52544735D01*
X148711286Y-52837546D01*
X149092454Y-53218714D01*
X149590474Y-53425000D01*
X150129526Y-53425000D01*
X150627546Y-53218714D01*
X151008714Y-52837546D01*
X151215000Y-52339526D01*
X151215000Y-51800474D01*
X151008714Y-51302454D01*
X150627546Y-50921286D01*
X150129526Y-50715000D01*
X149590474Y-50715000D01*
X149582928Y-50718126D01*
X146165231Y-47300430D01*
X146122829Y-47236971D01*
X145871437Y-47068996D01*
X145649752Y-47024900D01*
X145649747Y-47024900D01*
X145574900Y-47010012D01*
X145540000Y-47016954D01*
X145540000Y-45728178D01*
X145850625Y-45520625D01*
X146050000Y-45222239D01*
X146249375Y-45520625D01*
X146740582Y-45848839D01*
X147173744Y-45935000D01*
X147466256Y-45935000D01*
X147899418Y-45848839D01*
X148390625Y-45520625D01*
X148405096Y-45498967D01*
X148471673Y-45659698D01*
X148650301Y-45838327D01*
X148883690Y-45935000D01*
X149574250Y-45935000D01*
X149733000Y-45776250D01*
X149733000Y-44577000D01*
X149987000Y-44577000D01*
X149987000Y-45776250D01*
X150145750Y-45935000D01*
X150836310Y-45935000D01*
X151069699Y-45838327D01*
X151248327Y-45659698D01*
X151345000Y-45426309D01*
X151345000Y-44735750D01*
X151186250Y-44577000D01*
X149987000Y-44577000D01*
X149733000Y-44577000D01*
X149713000Y-44577000D01*
X149713000Y-44323000D01*
X149733000Y-44323000D01*
X149733000Y-43123750D01*
X149987000Y-43123750D01*
X149987000Y-44323000D01*
X151186250Y-44323000D01*
X151345000Y-44164250D01*
X151345000Y-43473691D01*
X151248327Y-43240302D01*
X151069699Y-43061673D01*
X150836310Y-42965000D01*
X150145750Y-42965000D01*
X149987000Y-43123750D01*
X149733000Y-43123750D01*
X149574250Y-42965000D01*
X148883690Y-42965000D01*
X148650301Y-43061673D01*
X148471673Y-43240302D01*
X148405096Y-43401033D01*
X148390625Y-43379375D01*
X147899418Y-43051161D01*
X147466256Y-42965000D01*
X147173744Y-42965000D01*
X146740582Y-43051161D01*
X146249375Y-43379375D01*
X146050000Y-43677761D01*
X145850625Y-43379375D01*
X145359418Y-43051161D01*
X144926256Y-42965000D01*
X144633744Y-42965000D01*
X144200582Y-43051161D01*
X143709375Y-43379375D01*
X143381161Y-43870582D01*
X143265908Y-44450000D01*
X143381161Y-45029418D01*
X143709375Y-45520625D01*
X144020001Y-45728178D01*
X144020000Y-47016954D01*
X143985100Y-47010012D01*
X143910252Y-47024900D01*
X143910248Y-47024900D01*
X143688563Y-47068996D01*
X143437171Y-47236971D01*
X143394771Y-47300427D01*
X139977073Y-50718126D01*
X139969526Y-50715000D01*
X139430474Y-50715000D01*
X139422928Y-50718126D01*
X135797931Y-47093130D01*
X135755529Y-47029671D01*
X135504137Y-46861696D01*
X135282452Y-46817600D01*
X135282447Y-46817600D01*
X135207600Y-46802712D01*
X135132753Y-46817600D01*
X134792400Y-46817600D01*
X134792400Y-45929800D01*
X135199418Y-45848839D01*
X135690625Y-45520625D01*
X135890000Y-45222239D01*
X136089375Y-45520625D01*
X136580582Y-45848839D01*
X137013744Y-45935000D01*
X137306256Y-45935000D01*
X137739418Y-45848839D01*
X138230625Y-45520625D01*
X138245096Y-45498967D01*
X138311673Y-45659698D01*
X138490301Y-45838327D01*
X138723690Y-45935000D01*
X139414250Y-45935000D01*
X139573000Y-45776250D01*
X139573000Y-44577000D01*
X139827000Y-44577000D01*
X139827000Y-45776250D01*
X139985750Y-45935000D01*
X140676310Y-45935000D01*
X140909699Y-45838327D01*
X141088327Y-45659698D01*
X141185000Y-45426309D01*
X141185000Y-44735750D01*
X141026250Y-44577000D01*
X139827000Y-44577000D01*
X139573000Y-44577000D01*
X139553000Y-44577000D01*
X139553000Y-44323000D01*
X139573000Y-44323000D01*
X139573000Y-43123750D01*
X139827000Y-43123750D01*
X139827000Y-44323000D01*
X141026250Y-44323000D01*
X141185000Y-44164250D01*
X141185000Y-43473691D01*
X141088327Y-43240302D01*
X140909699Y-43061673D01*
X140676310Y-42965000D01*
X139985750Y-42965000D01*
X139827000Y-43123750D01*
X139573000Y-43123750D01*
X139414250Y-42965000D01*
X138723690Y-42965000D01*
X138490301Y-43061673D01*
X138311673Y-43240302D01*
X138245096Y-43401033D01*
X138230625Y-43379375D01*
X137739418Y-43051161D01*
X137306256Y-42965000D01*
X137013744Y-42965000D01*
X136580582Y-43051161D01*
X136089375Y-43379375D01*
X135890000Y-43677761D01*
X135690625Y-43379375D01*
X135199418Y-43051161D01*
X134766256Y-42965000D01*
X134473744Y-42965000D01*
X134040582Y-43051161D01*
X133549375Y-43379375D01*
X133509121Y-43439619D01*
X132859731Y-42790230D01*
X132817329Y-42726771D01*
X132620120Y-42595000D01*
X152985000Y-42595000D01*
X152985001Y-117425000D01*
X101015000Y-117425000D01*
X101015000Y-83375431D01*
X101905000Y-83375431D01*
X101905000Y-84264569D01*
X102245259Y-85086026D01*
X102873974Y-85714741D01*
X103695431Y-86055000D01*
X104584569Y-86055000D01*
X105406026Y-85714741D01*
X106034741Y-85086026D01*
X106375000Y-84264569D01*
X106375000Y-84105750D01*
X114335000Y-84105750D01*
X114335000Y-84321310D01*
X114431673Y-84554699D01*
X114610302Y-84733327D01*
X114843691Y-84830000D01*
X115284250Y-84830000D01*
X115443000Y-84671250D01*
X115443000Y-83947000D01*
X114493750Y-83947000D01*
X114335000Y-84105750D01*
X106375000Y-84105750D01*
X106375000Y-83375431D01*
X106351498Y-83318690D01*
X114335000Y-83318690D01*
X114335000Y-83534250D01*
X114493750Y-83693000D01*
X115443000Y-83693000D01*
X115443000Y-82968750D01*
X115284250Y-82810000D01*
X114843691Y-82810000D01*
X114610302Y-82906673D01*
X114431673Y-83085301D01*
X114335000Y-83318690D01*
X106351498Y-83318690D01*
X106034741Y-82553974D01*
X105406026Y-81925259D01*
X104584569Y-81585000D01*
X103695431Y-81585000D01*
X102873974Y-81925259D01*
X102245259Y-82553974D01*
X101905000Y-83375431D01*
X101015000Y-83375431D01*
X101015000Y-75845750D01*
X106686000Y-75845750D01*
X106686000Y-76286309D01*
X106782673Y-76519698D01*
X106961301Y-76698327D01*
X107194690Y-76795000D01*
X107410250Y-76795000D01*
X107569000Y-76636250D01*
X107569000Y-75687000D01*
X107823000Y-75687000D01*
X107823000Y-76636250D01*
X107981750Y-76795000D01*
X108197310Y-76795000D01*
X108430699Y-76698327D01*
X108609327Y-76519698D01*
X108706000Y-76286309D01*
X108706000Y-75845750D01*
X115322000Y-75845750D01*
X115322000Y-76286309D01*
X115418673Y-76519698D01*
X115597301Y-76698327D01*
X115830690Y-76795000D01*
X116046250Y-76795000D01*
X116205000Y-76636250D01*
X116205000Y-75687000D01*
X116459000Y-75687000D01*
X116459000Y-76636250D01*
X116617750Y-76795000D01*
X116833310Y-76795000D01*
X117066699Y-76698327D01*
X117245327Y-76519698D01*
X117342000Y-76286309D01*
X117342000Y-75845750D01*
X117183250Y-75687000D01*
X116459000Y-75687000D01*
X116205000Y-75687000D01*
X115480750Y-75687000D01*
X115322000Y-75845750D01*
X108706000Y-75845750D01*
X108547250Y-75687000D01*
X107823000Y-75687000D01*
X107569000Y-75687000D01*
X106844750Y-75687000D01*
X106686000Y-75845750D01*
X101015000Y-75845750D01*
X101015000Y-63179774D01*
X103369831Y-63179774D01*
X103434131Y-63417611D01*
X103942342Y-63597333D01*
X104480644Y-63568892D01*
X104845869Y-63417611D01*
X104910169Y-63179774D01*
X104140000Y-62409605D01*
X103369831Y-63179774D01*
X101015000Y-63179774D01*
X101015000Y-62032342D01*
X102772667Y-62032342D01*
X102801108Y-62570644D01*
X102952389Y-62935869D01*
X103190226Y-63000169D01*
X103960395Y-62230000D01*
X103190226Y-61459831D01*
X102952389Y-61524131D01*
X102772667Y-62032342D01*
X101015000Y-62032342D01*
X101015000Y-61280226D01*
X103369831Y-61280226D01*
X104140000Y-62050395D01*
X104910169Y-61280226D01*
X104845869Y-61042389D01*
X104337658Y-60862667D01*
X103799356Y-60891108D01*
X103434131Y-61042389D01*
X103369831Y-61280226D01*
X101015000Y-61280226D01*
X101015000Y-58099774D01*
X103369831Y-58099774D01*
X103434131Y-58337611D01*
X103942342Y-58517333D01*
X104480644Y-58488892D01*
X104845869Y-58337611D01*
X104910169Y-58099774D01*
X104140000Y-57329605D01*
X103369831Y-58099774D01*
X101015000Y-58099774D01*
X101015000Y-56952342D01*
X102772667Y-56952342D01*
X102801108Y-57490644D01*
X102952389Y-57855869D01*
X103190226Y-57920169D01*
X103960395Y-57150000D01*
X103190226Y-56379831D01*
X102952389Y-56444131D01*
X102772667Y-56952342D01*
X101015000Y-56952342D01*
X101015000Y-56200226D01*
X103369831Y-56200226D01*
X104140000Y-56970395D01*
X104910169Y-56200226D01*
X104845869Y-55962389D01*
X104337658Y-55782667D01*
X103799356Y-55811108D01*
X103434131Y-55962389D01*
X103369831Y-56200226D01*
X101015000Y-56200226D01*
X101015000Y-51872342D01*
X102772667Y-51872342D01*
X102801108Y-52410644D01*
X102952389Y-52775869D01*
X103190226Y-52840169D01*
X103960395Y-52070000D01*
X103190226Y-51299831D01*
X102952389Y-51364131D01*
X102772667Y-51872342D01*
X101015000Y-51872342D01*
X101015000Y-42595000D01*
X103283336Y-42595000D01*
X103088671Y-42725071D01*
G36*
X132854371Y-44934473D02*
X132896771Y-44997929D01*
X133148163Y-45165904D01*
X133272400Y-45190616D01*
X133272401Y-47262797D01*
X129817073Y-50718126D01*
X129809526Y-50715000D01*
X129270474Y-50715000D01*
X128772454Y-50921286D01*
X128391286Y-51302454D01*
X128270000Y-51595265D01*
X128148714Y-51302454D01*
X127767546Y-50921286D01*
X127269526Y-50715000D01*
X126730474Y-50715000D01*
X126232454Y-50921286D01*
X125851286Y-51302454D01*
X125736675Y-51579151D01*
X125647611Y-51364131D01*
X125409774Y-51299831D01*
X124639605Y-52070000D01*
X125409774Y-52840169D01*
X125647611Y-52775869D01*
X125729649Y-52543886D01*
X125851286Y-52837546D01*
X126232454Y-53218714D01*
X126730474Y-53425000D01*
X127269526Y-53425000D01*
X127767546Y-53218714D01*
X128148714Y-52837546D01*
X128270000Y-52544735D01*
X128391286Y-52837546D01*
X128772454Y-53218714D01*
X129270474Y-53425000D01*
X129809526Y-53425000D01*
X130307546Y-53218714D01*
X130688714Y-52837546D01*
X130895000Y-52339526D01*
X130895000Y-51872342D01*
X133252667Y-51872342D01*
X133281108Y-52410644D01*
X133432389Y-52775869D01*
X133670226Y-52840169D01*
X134440395Y-52070000D01*
X133670226Y-51299831D01*
X133432389Y-51364131D01*
X133252667Y-51872342D01*
X130895000Y-51872342D01*
X130895000Y-51800474D01*
X130891874Y-51792927D01*
X131564575Y-51120226D01*
X133849831Y-51120226D01*
X134620000Y-51890395D01*
X135390169Y-51120226D01*
X135325869Y-50882389D01*
X134817658Y-50702667D01*
X134279356Y-50731108D01*
X133914131Y-50882389D01*
X133849831Y-51120226D01*
X131564575Y-51120226D01*
X134347202Y-48337600D01*
X134892799Y-48337600D01*
X137270198Y-50715000D01*
X136890474Y-50715000D01*
X136392454Y-50921286D01*
X136011286Y-51302454D01*
X135896675Y-51579151D01*
X135807611Y-51364131D01*
X135569774Y-51299831D01*
X134799605Y-52070000D01*
X134813748Y-52084143D01*
X134634143Y-52263748D01*
X134620000Y-52249605D01*
X133849831Y-53019774D01*
X133914131Y-53257611D01*
X134422342Y-53437333D01*
X134960644Y-53408892D01*
X135116014Y-53344536D01*
X135130000Y-53414847D01*
X135130001Y-55893123D01*
X134817658Y-55782667D01*
X134279356Y-55811108D01*
X133914131Y-55962389D01*
X133849831Y-56200226D01*
X134620000Y-56970395D01*
X134634143Y-56956253D01*
X134813748Y-57135858D01*
X134799605Y-57150000D01*
X134813748Y-57164143D01*
X134634143Y-57343748D01*
X134620000Y-57329605D01*
X133849831Y-58099774D01*
X133905630Y-58306167D01*
X130706472Y-61505326D01*
X130688714Y-61462454D01*
X130307546Y-61081286D01*
X129809526Y-60875000D01*
X129270474Y-60875000D01*
X128772454Y-61081286D01*
X128391286Y-61462454D01*
X128270000Y-61755265D01*
X128148714Y-61462454D01*
X127767546Y-61081286D01*
X127269526Y-60875000D01*
X126730474Y-60875000D01*
X126232454Y-61081286D01*
X125851286Y-61462454D01*
X125736675Y-61739151D01*
X125647611Y-61524131D01*
X125409774Y-61459831D01*
X124639605Y-62230000D01*
X125409774Y-63000169D01*
X125647611Y-62935869D01*
X125729649Y-62703886D01*
X125851286Y-62997546D01*
X126232454Y-63378714D01*
X126730474Y-63585000D01*
X127269526Y-63585000D01*
X127767546Y-63378714D01*
X128148714Y-62997546D01*
X128270000Y-62704735D01*
X128391286Y-62997546D01*
X128772454Y-63378714D01*
X128815326Y-63396472D01*
X123556999Y-68654800D01*
X117985400Y-68654800D01*
X117985400Y-68462626D01*
X117827831Y-68082220D01*
X117536680Y-67791069D01*
X117156274Y-67633500D01*
X116744526Y-67633500D01*
X116364120Y-67791069D01*
X116246689Y-67908500D01*
X114457402Y-67908500D01*
X109945169Y-63396267D01*
X109987546Y-63378714D01*
X110368714Y-62997546D01*
X110575000Y-62499526D01*
X110575000Y-61960474D01*
X110368714Y-61462454D01*
X109987546Y-61081286D01*
X109980000Y-61078160D01*
X109980000Y-58301840D01*
X109987546Y-58298714D01*
X110368714Y-57917546D01*
X110401380Y-57838682D01*
X111000000Y-58437302D01*
X111000001Y-61104848D01*
X110985112Y-61179700D01*
X111044097Y-61476237D01*
X111136635Y-61614729D01*
X111212072Y-61727629D01*
X111275528Y-61770029D01*
X114146941Y-64641443D01*
X114268569Y-64935080D01*
X114559720Y-65226231D01*
X114940126Y-65383800D01*
X115351874Y-65383800D01*
X115732280Y-65226231D01*
X116023431Y-64935080D01*
X116181000Y-64554674D01*
X116181000Y-64339702D01*
X116203600Y-64362302D01*
X116203600Y-64528374D01*
X116361169Y-64908780D01*
X116652320Y-65199931D01*
X117032726Y-65357500D01*
X117444474Y-65357500D01*
X117824880Y-65199931D01*
X118116031Y-64908780D01*
X118273600Y-64528374D01*
X118273600Y-64116626D01*
X118116031Y-63736220D01*
X117824880Y-63445069D01*
X117624281Y-63361979D01*
X117988714Y-62997546D01*
X118110000Y-62704735D01*
X118231286Y-62997546D01*
X118612454Y-63378714D01*
X119110474Y-63585000D01*
X119649526Y-63585000D01*
X120147546Y-63378714D01*
X120346486Y-63179774D01*
X123689831Y-63179774D01*
X123754131Y-63417611D01*
X124262342Y-63597333D01*
X124800644Y-63568892D01*
X125165869Y-63417611D01*
X125230169Y-63179774D01*
X124460000Y-62409605D01*
X123689831Y-63179774D01*
X120346486Y-63179774D01*
X120528714Y-62997546D01*
X120735000Y-62499526D01*
X120735000Y-62032342D01*
X123092667Y-62032342D01*
X123121108Y-62570644D01*
X123272389Y-62935869D01*
X123510226Y-63000169D01*
X124280395Y-62230000D01*
X123510226Y-61459831D01*
X123272389Y-61524131D01*
X123092667Y-62032342D01*
X120735000Y-62032342D01*
X120735000Y-61960474D01*
X120528714Y-61462454D01*
X120346486Y-61280226D01*
X123689831Y-61280226D01*
X124460000Y-62050395D01*
X125230169Y-61280226D01*
X125165869Y-61042389D01*
X124657658Y-60862667D01*
X124119356Y-60891108D01*
X123754131Y-61042389D01*
X123689831Y-61280226D01*
X120346486Y-61280226D01*
X120147546Y-61081286D01*
X119649526Y-60875000D01*
X119110474Y-60875000D01*
X118612454Y-61081286D01*
X118231286Y-61462454D01*
X118110000Y-61755265D01*
X117988714Y-61462454D01*
X117607546Y-61081286D01*
X117109526Y-60875000D01*
X116570474Y-60875000D01*
X116425484Y-60935057D01*
X116392704Y-60770263D01*
X116224729Y-60518871D01*
X116161273Y-60476471D01*
X114197127Y-58512325D01*
X114640644Y-58488892D01*
X115005869Y-58337611D01*
X115070169Y-58099774D01*
X114300000Y-57329605D01*
X114285858Y-57343748D01*
X114106253Y-57164143D01*
X114120395Y-57150000D01*
X114479605Y-57150000D01*
X115249774Y-57920169D01*
X115487611Y-57855869D01*
X115569649Y-57623886D01*
X115691286Y-57917546D01*
X116072454Y-58298714D01*
X116570474Y-58505000D01*
X117109526Y-58505000D01*
X117607546Y-58298714D01*
X117988714Y-57917546D01*
X118110000Y-57624735D01*
X118231286Y-57917546D01*
X118612454Y-58298714D01*
X119110474Y-58505000D01*
X119649526Y-58505000D01*
X120147546Y-58298714D01*
X120346486Y-58099774D01*
X123689831Y-58099774D01*
X123754131Y-58337611D01*
X124262342Y-58517333D01*
X124800644Y-58488892D01*
X125165869Y-58337611D01*
X125230169Y-58099774D01*
X124460000Y-57329605D01*
X123689831Y-58099774D01*
X120346486Y-58099774D01*
X120528714Y-57917546D01*
X120735000Y-57419526D01*
X120735000Y-56952342D01*
X123092667Y-56952342D01*
X123121108Y-57490644D01*
X123272389Y-57855869D01*
X123510226Y-57920169D01*
X124280395Y-57150000D01*
X124639605Y-57150000D01*
X125409774Y-57920169D01*
X125647611Y-57855869D01*
X125729649Y-57623886D01*
X125851286Y-57917546D01*
X126232454Y-58298714D01*
X126730474Y-58505000D01*
X127269526Y-58505000D01*
X127767546Y-58298714D01*
X128148714Y-57917546D01*
X128270000Y-57624735D01*
X128391286Y-57917546D01*
X128772454Y-58298714D01*
X129270474Y-58505000D01*
X129809526Y-58505000D01*
X130307546Y-58298714D01*
X130688714Y-57917546D01*
X130895000Y-57419526D01*
X130895000Y-56952342D01*
X133252667Y-56952342D01*
X133281108Y-57490644D01*
X133432389Y-57855869D01*
X133670226Y-57920169D01*
X134440395Y-57150000D01*
X133670226Y-56379831D01*
X133432389Y-56444131D01*
X133252667Y-56952342D01*
X130895000Y-56952342D01*
X130895000Y-56880474D01*
X130688714Y-56382454D01*
X130307546Y-56001286D01*
X129809526Y-55795000D01*
X129270474Y-55795000D01*
X128772454Y-56001286D01*
X128391286Y-56382454D01*
X128270000Y-56675265D01*
X128148714Y-56382454D01*
X127767546Y-56001286D01*
X127269526Y-55795000D01*
X126730474Y-55795000D01*
X126232454Y-56001286D01*
X125851286Y-56382454D01*
X125736675Y-56659151D01*
X125647611Y-56444131D01*
X125409774Y-56379831D01*
X124639605Y-57150000D01*
X124280395Y-57150000D01*
X123510226Y-56379831D01*
X123272389Y-56444131D01*
X123092667Y-56952342D01*
X120735000Y-56952342D01*
X120735000Y-56880474D01*
X120528714Y-56382454D01*
X120346486Y-56200226D01*
X123689831Y-56200226D01*
X124460000Y-56970395D01*
X125230169Y-56200226D01*
X125165869Y-55962389D01*
X124657658Y-55782667D01*
X124119356Y-55811108D01*
X123754131Y-55962389D01*
X123689831Y-56200226D01*
X120346486Y-56200226D01*
X120147546Y-56001286D01*
X119649526Y-55795000D01*
X119110474Y-55795000D01*
X118612454Y-56001286D01*
X118231286Y-56382454D01*
X118110000Y-56675265D01*
X117988714Y-56382454D01*
X117607546Y-56001286D01*
X117109526Y-55795000D01*
X116570474Y-55795000D01*
X116072454Y-56001286D01*
X115691286Y-56382454D01*
X115576675Y-56659151D01*
X115487611Y-56444131D01*
X115249774Y-56379831D01*
X114479605Y-57150000D01*
X114120395Y-57150000D01*
X113350226Y-56379831D01*
X113112389Y-56444131D01*
X112932667Y-56952342D01*
X112949152Y-57264350D01*
X111885028Y-56200226D01*
X113529831Y-56200226D01*
X114300000Y-56970395D01*
X115070169Y-56200226D01*
X115005869Y-55962389D01*
X114497658Y-55782667D01*
X113959356Y-55811108D01*
X113594131Y-55962389D01*
X113529831Y-56200226D01*
X111885028Y-56200226D01*
X109109801Y-53425000D01*
X109489526Y-53425000D01*
X109987546Y-53218714D01*
X110186486Y-53019774D01*
X113529831Y-53019774D01*
X113594131Y-53257611D01*
X114102342Y-53437333D01*
X114640644Y-53408892D01*
X115005869Y-53257611D01*
X115070169Y-53019774D01*
X114300000Y-52249605D01*
X113529831Y-53019774D01*
X110186486Y-53019774D01*
X110368714Y-52837546D01*
X110575000Y-52339526D01*
X110575000Y-51872342D01*
X112932667Y-51872342D01*
X112961108Y-52410644D01*
X113112389Y-52775869D01*
X113350226Y-52840169D01*
X114120395Y-52070000D01*
X113350226Y-51299831D01*
X113112389Y-51364131D01*
X112932667Y-51872342D01*
X110575000Y-51872342D01*
X110575000Y-51800474D01*
X110368714Y-51302454D01*
X110186486Y-51120226D01*
X113529831Y-51120226D01*
X114300000Y-51890395D01*
X115070169Y-51120226D01*
X115005869Y-50882389D01*
X114497658Y-50702667D01*
X113959356Y-50731108D01*
X113594131Y-50882389D01*
X113529831Y-51120226D01*
X110186486Y-51120226D01*
X109987546Y-50921286D01*
X109980000Y-50918160D01*
X109980000Y-49111900D01*
X111498553Y-49111900D01*
X111573400Y-49126788D01*
X111648247Y-49111900D01*
X111648252Y-49111900D01*
X111869937Y-49067804D01*
X112121329Y-48899829D01*
X112163731Y-48836370D01*
X114300000Y-46700102D01*
X116439073Y-48839176D01*
X116481471Y-48902629D01*
X116544924Y-48945027D01*
X116544926Y-48945029D01*
X116670302Y-49028802D01*
X116732863Y-49070604D01*
X116954548Y-49114700D01*
X116954552Y-49114700D01*
X117029399Y-49129588D01*
X117104246Y-49114700D01*
X118620000Y-49114700D01*
X118620001Y-50918160D01*
X118612454Y-50921286D01*
X118231286Y-51302454D01*
X118110000Y-51595265D01*
X117988714Y-51302454D01*
X117607546Y-50921286D01*
X117109526Y-50715000D01*
X116570474Y-50715000D01*
X116072454Y-50921286D01*
X115691286Y-51302454D01*
X115576675Y-51579151D01*
X115487611Y-51364131D01*
X115249774Y-51299831D01*
X114479605Y-52070000D01*
X115249774Y-52840169D01*
X115487611Y-52775869D01*
X115569649Y-52543886D01*
X115691286Y-52837546D01*
X116072454Y-53218714D01*
X116570474Y-53425000D01*
X117109526Y-53425000D01*
X117607546Y-53218714D01*
X117988714Y-52837546D01*
X118110000Y-52544735D01*
X118231286Y-52837546D01*
X118612454Y-53218714D01*
X119110474Y-53425000D01*
X119649526Y-53425000D01*
X120147546Y-53218714D01*
X120346486Y-53019774D01*
X123689831Y-53019774D01*
X123754131Y-53257611D01*
X124262342Y-53437333D01*
X124800644Y-53408892D01*
X125165869Y-53257611D01*
X125230169Y-53019774D01*
X124460000Y-52249605D01*
X123689831Y-53019774D01*
X120346486Y-53019774D01*
X120528714Y-52837546D01*
X120735000Y-52339526D01*
X120735000Y-51872342D01*
X123092667Y-51872342D01*
X123121108Y-52410644D01*
X123272389Y-52775869D01*
X123510226Y-52840169D01*
X124280395Y-52070000D01*
X123510226Y-51299831D01*
X123272389Y-51364131D01*
X123092667Y-51872342D01*
X120735000Y-51872342D01*
X120735000Y-51800474D01*
X120528714Y-51302454D01*
X120346486Y-51120226D01*
X123689831Y-51120226D01*
X124460000Y-51890395D01*
X125230169Y-51120226D01*
X125165869Y-50882389D01*
X124657658Y-50702667D01*
X124119356Y-50731108D01*
X123754131Y-50882389D01*
X123689831Y-51120226D01*
X120346486Y-51120226D01*
X120147546Y-50921286D01*
X120140000Y-50918160D01*
X120140000Y-48669501D01*
X123349121Y-45460381D01*
X123389375Y-45520625D01*
X123880582Y-45848839D01*
X124313744Y-45935000D01*
X124606256Y-45935000D01*
X125039418Y-45848839D01*
X125530625Y-45520625D01*
X125730000Y-45222239D01*
X125929375Y-45520625D01*
X126420582Y-45848839D01*
X126853744Y-45935000D01*
X127146256Y-45935000D01*
X127579418Y-45848839D01*
X128070625Y-45520625D01*
X128085096Y-45498967D01*
X128151673Y-45659698D01*
X128330301Y-45838327D01*
X128563690Y-45935000D01*
X129254250Y-45935000D01*
X129413000Y-45776250D01*
X129413000Y-44577000D01*
X129667000Y-44577000D01*
X129667000Y-45776250D01*
X129825750Y-45935000D01*
X130516310Y-45935000D01*
X130749699Y-45838327D01*
X130928327Y-45659698D01*
X131025000Y-45426309D01*
X131025000Y-44735750D01*
X130866250Y-44577000D01*
X129667000Y-44577000D01*
X129413000Y-44577000D01*
X129393000Y-44577000D01*
X129393000Y-44323000D01*
X129413000Y-44323000D01*
X129413000Y-44303000D01*
X129667000Y-44303000D01*
X129667000Y-44323000D01*
X130866250Y-44323000D01*
X131025000Y-44164250D01*
X131025000Y-44034700D01*
X131954599Y-44034700D01*
X132854371Y-44934473D01*
X132854371Y-44934473D01*
G37*
X132854371Y-44934473D02*
X132896771Y-44997929D01*
X133148163Y-45165904D01*
X133272400Y-45190616D01*
X133272401Y-47262797D01*
X129817073Y-50718126D01*
X129809526Y-50715000D01*
X129270474Y-50715000D01*
X128772454Y-50921286D01*
X128391286Y-51302454D01*
X128270000Y-51595265D01*
X128148714Y-51302454D01*
X127767546Y-50921286D01*
X127269526Y-50715000D01*
X126730474Y-50715000D01*
X126232454Y-50921286D01*
X125851286Y-51302454D01*
X125736675Y-51579151D01*
X125647611Y-51364131D01*
X125409774Y-51299831D01*
X124639605Y-52070000D01*
X125409774Y-52840169D01*
X125647611Y-52775869D01*
X125729649Y-52543886D01*
X125851286Y-52837546D01*
X126232454Y-53218714D01*
X126730474Y-53425000D01*
X127269526Y-53425000D01*
X127767546Y-53218714D01*
X128148714Y-52837546D01*
X128270000Y-52544735D01*
X128391286Y-52837546D01*
X128772454Y-53218714D01*
X129270474Y-53425000D01*
X129809526Y-53425000D01*
X130307546Y-53218714D01*
X130688714Y-52837546D01*
X130895000Y-52339526D01*
X130895000Y-51872342D01*
X133252667Y-51872342D01*
X133281108Y-52410644D01*
X133432389Y-52775869D01*
X133670226Y-52840169D01*
X134440395Y-52070000D01*
X133670226Y-51299831D01*
X133432389Y-51364131D01*
X133252667Y-51872342D01*
X130895000Y-51872342D01*
X130895000Y-51800474D01*
X130891874Y-51792927D01*
X131564575Y-51120226D01*
X133849831Y-51120226D01*
X134620000Y-51890395D01*
X135390169Y-51120226D01*
X135325869Y-50882389D01*
X134817658Y-50702667D01*
X134279356Y-50731108D01*
X133914131Y-50882389D01*
X133849831Y-51120226D01*
X131564575Y-51120226D01*
X134347202Y-48337600D01*
X134892799Y-48337600D01*
X137270198Y-50715000D01*
X136890474Y-50715000D01*
X136392454Y-50921286D01*
X136011286Y-51302454D01*
X135896675Y-51579151D01*
X135807611Y-51364131D01*
X135569774Y-51299831D01*
X134799605Y-52070000D01*
X134813748Y-52084143D01*
X134634143Y-52263748D01*
X134620000Y-52249605D01*
X133849831Y-53019774D01*
X133914131Y-53257611D01*
X134422342Y-53437333D01*
X134960644Y-53408892D01*
X135116014Y-53344536D01*
X135130000Y-53414847D01*
X135130001Y-55893123D01*
X134817658Y-55782667D01*
X134279356Y-55811108D01*
X133914131Y-55962389D01*
X133849831Y-56200226D01*
X134620000Y-56970395D01*
X134634143Y-56956253D01*
X134813748Y-57135858D01*
X134799605Y-57150000D01*
X134813748Y-57164143D01*
X134634143Y-57343748D01*
X134620000Y-57329605D01*
X133849831Y-58099774D01*
X133905630Y-58306167D01*
X130706472Y-61505326D01*
X130688714Y-61462454D01*
X130307546Y-61081286D01*
X129809526Y-60875000D01*
X129270474Y-60875000D01*
X128772454Y-61081286D01*
X128391286Y-61462454D01*
X128270000Y-61755265D01*
X128148714Y-61462454D01*
X127767546Y-61081286D01*
X127269526Y-60875000D01*
X126730474Y-60875000D01*
X126232454Y-61081286D01*
X125851286Y-61462454D01*
X125736675Y-61739151D01*
X125647611Y-61524131D01*
X125409774Y-61459831D01*
X124639605Y-62230000D01*
X125409774Y-63000169D01*
X125647611Y-62935869D01*
X125729649Y-62703886D01*
X125851286Y-62997546D01*
X126232454Y-63378714D01*
X126730474Y-63585000D01*
X127269526Y-63585000D01*
X127767546Y-63378714D01*
X128148714Y-62997546D01*
X128270000Y-62704735D01*
X128391286Y-62997546D01*
X128772454Y-63378714D01*
X128815326Y-63396472D01*
X123556999Y-68654800D01*
X117985400Y-68654800D01*
X117985400Y-68462626D01*
X117827831Y-68082220D01*
X117536680Y-67791069D01*
X117156274Y-67633500D01*
X116744526Y-67633500D01*
X116364120Y-67791069D01*
X116246689Y-67908500D01*
X114457402Y-67908500D01*
X109945169Y-63396267D01*
X109987546Y-63378714D01*
X110368714Y-62997546D01*
X110575000Y-62499526D01*
X110575000Y-61960474D01*
X110368714Y-61462454D01*
X109987546Y-61081286D01*
X109980000Y-61078160D01*
X109980000Y-58301840D01*
X109987546Y-58298714D01*
X110368714Y-57917546D01*
X110401380Y-57838682D01*
X111000000Y-58437302D01*
X111000001Y-61104848D01*
X110985112Y-61179700D01*
X111044097Y-61476237D01*
X111136635Y-61614729D01*
X111212072Y-61727629D01*
X111275528Y-61770029D01*
X114146941Y-64641443D01*
X114268569Y-64935080D01*
X114559720Y-65226231D01*
X114940126Y-65383800D01*
X115351874Y-65383800D01*
X115732280Y-65226231D01*
X116023431Y-64935080D01*
X116181000Y-64554674D01*
X116181000Y-64339702D01*
X116203600Y-64362302D01*
X116203600Y-64528374D01*
X116361169Y-64908780D01*
X116652320Y-65199931D01*
X117032726Y-65357500D01*
X117444474Y-65357500D01*
X117824880Y-65199931D01*
X118116031Y-64908780D01*
X118273600Y-64528374D01*
X118273600Y-64116626D01*
X118116031Y-63736220D01*
X117824880Y-63445069D01*
X117624281Y-63361979D01*
X117988714Y-62997546D01*
X118110000Y-62704735D01*
X118231286Y-62997546D01*
X118612454Y-63378714D01*
X119110474Y-63585000D01*
X119649526Y-63585000D01*
X120147546Y-63378714D01*
X120346486Y-63179774D01*
X123689831Y-63179774D01*
X123754131Y-63417611D01*
X124262342Y-63597333D01*
X124800644Y-63568892D01*
X125165869Y-63417611D01*
X125230169Y-63179774D01*
X124460000Y-62409605D01*
X123689831Y-63179774D01*
X120346486Y-63179774D01*
X120528714Y-62997546D01*
X120735000Y-62499526D01*
X120735000Y-62032342D01*
X123092667Y-62032342D01*
X123121108Y-62570644D01*
X123272389Y-62935869D01*
X123510226Y-63000169D01*
X124280395Y-62230000D01*
X123510226Y-61459831D01*
X123272389Y-61524131D01*
X123092667Y-62032342D01*
X120735000Y-62032342D01*
X120735000Y-61960474D01*
X120528714Y-61462454D01*
X120346486Y-61280226D01*
X123689831Y-61280226D01*
X124460000Y-62050395D01*
X125230169Y-61280226D01*
X125165869Y-61042389D01*
X124657658Y-60862667D01*
X124119356Y-60891108D01*
X123754131Y-61042389D01*
X123689831Y-61280226D01*
X120346486Y-61280226D01*
X120147546Y-61081286D01*
X119649526Y-60875000D01*
X119110474Y-60875000D01*
X118612454Y-61081286D01*
X118231286Y-61462454D01*
X118110000Y-61755265D01*
X117988714Y-61462454D01*
X117607546Y-61081286D01*
X117109526Y-60875000D01*
X116570474Y-60875000D01*
X116425484Y-60935057D01*
X116392704Y-60770263D01*
X116224729Y-60518871D01*
X116161273Y-60476471D01*
X114197127Y-58512325D01*
X114640644Y-58488892D01*
X115005869Y-58337611D01*
X115070169Y-58099774D01*
X114300000Y-57329605D01*
X114285858Y-57343748D01*
X114106253Y-57164143D01*
X114120395Y-57150000D01*
X114479605Y-57150000D01*
X115249774Y-57920169D01*
X115487611Y-57855869D01*
X115569649Y-57623886D01*
X115691286Y-57917546D01*
X116072454Y-58298714D01*
X116570474Y-58505000D01*
X117109526Y-58505000D01*
X117607546Y-58298714D01*
X117988714Y-57917546D01*
X118110000Y-57624735D01*
X118231286Y-57917546D01*
X118612454Y-58298714D01*
X119110474Y-58505000D01*
X119649526Y-58505000D01*
X120147546Y-58298714D01*
X120346486Y-58099774D01*
X123689831Y-58099774D01*
X123754131Y-58337611D01*
X124262342Y-58517333D01*
X124800644Y-58488892D01*
X125165869Y-58337611D01*
X125230169Y-58099774D01*
X124460000Y-57329605D01*
X123689831Y-58099774D01*
X120346486Y-58099774D01*
X120528714Y-57917546D01*
X120735000Y-57419526D01*
X120735000Y-56952342D01*
X123092667Y-56952342D01*
X123121108Y-57490644D01*
X123272389Y-57855869D01*
X123510226Y-57920169D01*
X124280395Y-57150000D01*
X124639605Y-57150000D01*
X125409774Y-57920169D01*
X125647611Y-57855869D01*
X125729649Y-57623886D01*
X125851286Y-57917546D01*
X126232454Y-58298714D01*
X126730474Y-58505000D01*
X127269526Y-58505000D01*
X127767546Y-58298714D01*
X128148714Y-57917546D01*
X128270000Y-57624735D01*
X128391286Y-57917546D01*
X128772454Y-58298714D01*
X129270474Y-58505000D01*
X129809526Y-58505000D01*
X130307546Y-58298714D01*
X130688714Y-57917546D01*
X130895000Y-57419526D01*
X130895000Y-56952342D01*
X133252667Y-56952342D01*
X133281108Y-57490644D01*
X133432389Y-57855869D01*
X133670226Y-57920169D01*
X134440395Y-57150000D01*
X133670226Y-56379831D01*
X133432389Y-56444131D01*
X133252667Y-56952342D01*
X130895000Y-56952342D01*
X130895000Y-56880474D01*
X130688714Y-56382454D01*
X130307546Y-56001286D01*
X129809526Y-55795000D01*
X129270474Y-55795000D01*
X128772454Y-56001286D01*
X128391286Y-56382454D01*
X128270000Y-56675265D01*
X128148714Y-56382454D01*
X127767546Y-56001286D01*
X127269526Y-55795000D01*
X126730474Y-55795000D01*
X126232454Y-56001286D01*
X125851286Y-56382454D01*
X125736675Y-56659151D01*
X125647611Y-56444131D01*
X125409774Y-56379831D01*
X124639605Y-57150000D01*
X124280395Y-57150000D01*
X123510226Y-56379831D01*
X123272389Y-56444131D01*
X123092667Y-56952342D01*
X120735000Y-56952342D01*
X120735000Y-56880474D01*
X120528714Y-56382454D01*
X120346486Y-56200226D01*
X123689831Y-56200226D01*
X124460000Y-56970395D01*
X125230169Y-56200226D01*
X125165869Y-55962389D01*
X124657658Y-55782667D01*
X124119356Y-55811108D01*
X123754131Y-55962389D01*
X123689831Y-56200226D01*
X120346486Y-56200226D01*
X120147546Y-56001286D01*
X119649526Y-55795000D01*
X119110474Y-55795000D01*
X118612454Y-56001286D01*
X118231286Y-56382454D01*
X118110000Y-56675265D01*
X117988714Y-56382454D01*
X117607546Y-56001286D01*
X117109526Y-55795000D01*
X116570474Y-55795000D01*
X116072454Y-56001286D01*
X115691286Y-56382454D01*
X115576675Y-56659151D01*
X115487611Y-56444131D01*
X115249774Y-56379831D01*
X114479605Y-57150000D01*
X114120395Y-57150000D01*
X113350226Y-56379831D01*
X113112389Y-56444131D01*
X112932667Y-56952342D01*
X112949152Y-57264350D01*
X111885028Y-56200226D01*
X113529831Y-56200226D01*
X114300000Y-56970395D01*
X115070169Y-56200226D01*
X115005869Y-55962389D01*
X114497658Y-55782667D01*
X113959356Y-55811108D01*
X113594131Y-55962389D01*
X113529831Y-56200226D01*
X111885028Y-56200226D01*
X109109801Y-53425000D01*
X109489526Y-53425000D01*
X109987546Y-53218714D01*
X110186486Y-53019774D01*
X113529831Y-53019774D01*
X113594131Y-53257611D01*
X114102342Y-53437333D01*
X114640644Y-53408892D01*
X115005869Y-53257611D01*
X115070169Y-53019774D01*
X114300000Y-52249605D01*
X113529831Y-53019774D01*
X110186486Y-53019774D01*
X110368714Y-52837546D01*
X110575000Y-52339526D01*
X110575000Y-51872342D01*
X112932667Y-51872342D01*
X112961108Y-52410644D01*
X113112389Y-52775869D01*
X113350226Y-52840169D01*
X114120395Y-52070000D01*
X113350226Y-51299831D01*
X113112389Y-51364131D01*
X112932667Y-51872342D01*
X110575000Y-51872342D01*
X110575000Y-51800474D01*
X110368714Y-51302454D01*
X110186486Y-51120226D01*
X113529831Y-51120226D01*
X114300000Y-51890395D01*
X115070169Y-51120226D01*
X115005869Y-50882389D01*
X114497658Y-50702667D01*
X113959356Y-50731108D01*
X113594131Y-50882389D01*
X113529831Y-51120226D01*
X110186486Y-51120226D01*
X109987546Y-50921286D01*
X109980000Y-50918160D01*
X109980000Y-49111900D01*
X111498553Y-49111900D01*
X111573400Y-49126788D01*
X111648247Y-49111900D01*
X111648252Y-49111900D01*
X111869937Y-49067804D01*
X112121329Y-48899829D01*
X112163731Y-48836370D01*
X114300000Y-46700102D01*
X116439073Y-48839176D01*
X116481471Y-48902629D01*
X116544924Y-48945027D01*
X116544926Y-48945029D01*
X116670302Y-49028802D01*
X116732863Y-49070604D01*
X116954548Y-49114700D01*
X116954552Y-49114700D01*
X117029399Y-49129588D01*
X117104246Y-49114700D01*
X118620000Y-49114700D01*
X118620001Y-50918160D01*
X118612454Y-50921286D01*
X118231286Y-51302454D01*
X118110000Y-51595265D01*
X117988714Y-51302454D01*
X117607546Y-50921286D01*
X117109526Y-50715000D01*
X116570474Y-50715000D01*
X116072454Y-50921286D01*
X115691286Y-51302454D01*
X115576675Y-51579151D01*
X115487611Y-51364131D01*
X115249774Y-51299831D01*
X114479605Y-52070000D01*
X115249774Y-52840169D01*
X115487611Y-52775869D01*
X115569649Y-52543886D01*
X115691286Y-52837546D01*
X116072454Y-53218714D01*
X116570474Y-53425000D01*
X117109526Y-53425000D01*
X117607546Y-53218714D01*
X117988714Y-52837546D01*
X118110000Y-52544735D01*
X118231286Y-52837546D01*
X118612454Y-53218714D01*
X119110474Y-53425000D01*
X119649526Y-53425000D01*
X120147546Y-53218714D01*
X120346486Y-53019774D01*
X123689831Y-53019774D01*
X123754131Y-53257611D01*
X124262342Y-53437333D01*
X124800644Y-53408892D01*
X125165869Y-53257611D01*
X125230169Y-53019774D01*
X124460000Y-52249605D01*
X123689831Y-53019774D01*
X120346486Y-53019774D01*
X120528714Y-52837546D01*
X120735000Y-52339526D01*
X120735000Y-51872342D01*
X123092667Y-51872342D01*
X123121108Y-52410644D01*
X123272389Y-52775869D01*
X123510226Y-52840169D01*
X124280395Y-52070000D01*
X123510226Y-51299831D01*
X123272389Y-51364131D01*
X123092667Y-51872342D01*
X120735000Y-51872342D01*
X120735000Y-51800474D01*
X120528714Y-51302454D01*
X120346486Y-51120226D01*
X123689831Y-51120226D01*
X124460000Y-51890395D01*
X125230169Y-51120226D01*
X125165869Y-50882389D01*
X124657658Y-50702667D01*
X124119356Y-50731108D01*
X123754131Y-50882389D01*
X123689831Y-51120226D01*
X120346486Y-51120226D01*
X120147546Y-50921286D01*
X120140000Y-50918160D01*
X120140000Y-48669501D01*
X123349121Y-45460381D01*
X123389375Y-45520625D01*
X123880582Y-45848839D01*
X124313744Y-45935000D01*
X124606256Y-45935000D01*
X125039418Y-45848839D01*
X125530625Y-45520625D01*
X125730000Y-45222239D01*
X125929375Y-45520625D01*
X126420582Y-45848839D01*
X126853744Y-45935000D01*
X127146256Y-45935000D01*
X127579418Y-45848839D01*
X128070625Y-45520625D01*
X128085096Y-45498967D01*
X128151673Y-45659698D01*
X128330301Y-45838327D01*
X128563690Y-45935000D01*
X129254250Y-45935000D01*
X129413000Y-45776250D01*
X129413000Y-44577000D01*
X129667000Y-44577000D01*
X129667000Y-45776250D01*
X129825750Y-45935000D01*
X130516310Y-45935000D01*
X130749699Y-45838327D01*
X130928327Y-45659698D01*
X131025000Y-45426309D01*
X131025000Y-44735750D01*
X130866250Y-44577000D01*
X129667000Y-44577000D01*
X129413000Y-44577000D01*
X129393000Y-44577000D01*
X129393000Y-44323000D01*
X129413000Y-44323000D01*
X129413000Y-44303000D01*
X129667000Y-44303000D01*
X129667000Y-44323000D01*
X130866250Y-44323000D01*
X131025000Y-44164250D01*
X131025000Y-44034700D01*
X131954599Y-44034700D01*
X132854371Y-44934473D01*
G36*
X114402873Y-60867675D02*
X113959356Y-60891108D01*
X113594131Y-61042389D01*
X113529831Y-61280226D01*
X114300000Y-62050395D01*
X114314143Y-62036253D01*
X114493748Y-62215858D01*
X114479605Y-62230000D01*
X114493748Y-62244143D01*
X114314143Y-62423748D01*
X114300000Y-62409605D01*
X114285858Y-62423748D01*
X114106253Y-62244143D01*
X114120395Y-62230000D01*
X113350226Y-61459831D01*
X113165007Y-61509906D01*
X112520000Y-60864899D01*
X112520000Y-58984802D01*
X114402873Y-60867675D01*
X114402873Y-60867675D01*
G37*
X114402873Y-60867675D02*
X113959356Y-60891108D01*
X113594131Y-61042389D01*
X113529831Y-61280226D01*
X114300000Y-62050395D01*
X114314143Y-62036253D01*
X114493748Y-62215858D01*
X114479605Y-62230000D01*
X114493748Y-62244143D01*
X114314143Y-62423748D01*
X114300000Y-62409605D01*
X114285858Y-62423748D01*
X114106253Y-62244143D01*
X114120395Y-62230000D01*
X113350226Y-61459831D01*
X113165007Y-61509906D01*
X112520000Y-60864899D01*
X112520000Y-58984802D01*
X114402873Y-60867675D01*
G36*
X125895271Y-42726771D02*
X125852871Y-42790227D01*
X125370629Y-43272469D01*
X125039418Y-43051161D01*
X124606256Y-42965000D01*
X124313744Y-42965000D01*
X123880582Y-43051161D01*
X123389375Y-43379375D01*
X123177526Y-43696429D01*
X123036305Y-43724520D01*
X122988162Y-43734096D01*
X122858208Y-43820929D01*
X122736771Y-43902071D01*
X122694372Y-43965526D01*
X119065199Y-47594700D01*
X117344203Y-47594700D01*
X115310380Y-45560879D01*
X115370625Y-45520625D01*
X115570000Y-45222239D01*
X115769375Y-45520625D01*
X116260582Y-45848839D01*
X116693744Y-45935000D01*
X116986256Y-45935000D01*
X117419418Y-45848839D01*
X117910625Y-45520625D01*
X117925096Y-45498967D01*
X117991673Y-45659698D01*
X118170301Y-45838327D01*
X118403690Y-45935000D01*
X119094250Y-45935000D01*
X119253000Y-45776250D01*
X119253000Y-44577000D01*
X119507000Y-44577000D01*
X119507000Y-45776250D01*
X119665750Y-45935000D01*
X120356310Y-45935000D01*
X120589699Y-45838327D01*
X120768327Y-45659698D01*
X120865000Y-45426309D01*
X120865000Y-44735750D01*
X120706250Y-44577000D01*
X119507000Y-44577000D01*
X119253000Y-44577000D01*
X119233000Y-44577000D01*
X119233000Y-44323000D01*
X119253000Y-44323000D01*
X119253000Y-43123750D01*
X119507000Y-43123750D01*
X119507000Y-44323000D01*
X120706250Y-44323000D01*
X120865000Y-44164250D01*
X120865000Y-43473691D01*
X120768327Y-43240302D01*
X120589699Y-43061673D01*
X120356310Y-42965000D01*
X119665750Y-42965000D01*
X119507000Y-43123750D01*
X119253000Y-43123750D01*
X119094250Y-42965000D01*
X118403690Y-42965000D01*
X118170301Y-43061673D01*
X117991673Y-43240302D01*
X117925096Y-43401033D01*
X117910625Y-43379375D01*
X117419418Y-43051161D01*
X116986256Y-42965000D01*
X116693744Y-42965000D01*
X116260582Y-43051161D01*
X115769375Y-43379375D01*
X115570000Y-43677761D01*
X115370625Y-43379375D01*
X114879418Y-43051161D01*
X114446256Y-42965000D01*
X114153744Y-42965000D01*
X113720582Y-43051161D01*
X113229375Y-43379375D01*
X112901161Y-43870582D01*
X112785908Y-44450000D01*
X112901161Y-45029418D01*
X113229375Y-45520625D01*
X113289619Y-45560879D01*
X111258599Y-47591900D01*
X109294852Y-47591900D01*
X109220000Y-47577011D01*
X109161458Y-47588656D01*
X107356663Y-45783862D01*
X107750625Y-45520625D01*
X107765096Y-45498967D01*
X107831673Y-45659698D01*
X108010301Y-45838327D01*
X108243690Y-45935000D01*
X108934250Y-45935000D01*
X109093000Y-45776250D01*
X109093000Y-44577000D01*
X109347000Y-44577000D01*
X109347000Y-45776250D01*
X109505750Y-45935000D01*
X110196310Y-45935000D01*
X110429699Y-45838327D01*
X110608327Y-45659698D01*
X110705000Y-45426309D01*
X110705000Y-44735750D01*
X110546250Y-44577000D01*
X109347000Y-44577000D01*
X109093000Y-44577000D01*
X109073000Y-44577000D01*
X109073000Y-44323000D01*
X109093000Y-44323000D01*
X109093000Y-43123750D01*
X109347000Y-43123750D01*
X109347000Y-44323000D01*
X110546250Y-44323000D01*
X110705000Y-44164250D01*
X110705000Y-43473691D01*
X110608327Y-43240302D01*
X110429699Y-43061673D01*
X110196310Y-42965000D01*
X109505750Y-42965000D01*
X109347000Y-43123750D01*
X109093000Y-43123750D01*
X108934250Y-42965000D01*
X108243690Y-42965000D01*
X108010301Y-43061673D01*
X107831673Y-43240302D01*
X107765096Y-43401033D01*
X107750625Y-43379375D01*
X107259418Y-43051161D01*
X106826256Y-42965000D01*
X106533744Y-42965000D01*
X106313592Y-43008791D01*
X106093331Y-42788530D01*
X106050929Y-42725071D01*
X105856264Y-42595000D01*
X126092480Y-42595000D01*
X125895271Y-42726771D01*
X125895271Y-42726771D01*
G37*
X125895271Y-42726771D02*
X125852871Y-42790227D01*
X125370629Y-43272469D01*
X125039418Y-43051161D01*
X124606256Y-42965000D01*
X124313744Y-42965000D01*
X123880582Y-43051161D01*
X123389375Y-43379375D01*
X123177526Y-43696429D01*
X123036305Y-43724520D01*
X122988162Y-43734096D01*
X122858208Y-43820929D01*
X122736771Y-43902071D01*
X122694372Y-43965526D01*
X119065199Y-47594700D01*
X117344203Y-47594700D01*
X115310380Y-45560879D01*
X115370625Y-45520625D01*
X115570000Y-45222239D01*
X115769375Y-45520625D01*
X116260582Y-45848839D01*
X116693744Y-45935000D01*
X116986256Y-45935000D01*
X117419418Y-45848839D01*
X117910625Y-45520625D01*
X117925096Y-45498967D01*
X117991673Y-45659698D01*
X118170301Y-45838327D01*
X118403690Y-45935000D01*
X119094250Y-45935000D01*
X119253000Y-45776250D01*
X119253000Y-44577000D01*
X119507000Y-44577000D01*
X119507000Y-45776250D01*
X119665750Y-45935000D01*
X120356310Y-45935000D01*
X120589699Y-45838327D01*
X120768327Y-45659698D01*
X120865000Y-45426309D01*
X120865000Y-44735750D01*
X120706250Y-44577000D01*
X119507000Y-44577000D01*
X119253000Y-44577000D01*
X119233000Y-44577000D01*
X119233000Y-44323000D01*
X119253000Y-44323000D01*
X119253000Y-43123750D01*
X119507000Y-43123750D01*
X119507000Y-44323000D01*
X120706250Y-44323000D01*
X120865000Y-44164250D01*
X120865000Y-43473691D01*
X120768327Y-43240302D01*
X120589699Y-43061673D01*
X120356310Y-42965000D01*
X119665750Y-42965000D01*
X119507000Y-43123750D01*
X119253000Y-43123750D01*
X119094250Y-42965000D01*
X118403690Y-42965000D01*
X118170301Y-43061673D01*
X117991673Y-43240302D01*
X117925096Y-43401033D01*
X117910625Y-43379375D01*
X117419418Y-43051161D01*
X116986256Y-42965000D01*
X116693744Y-42965000D01*
X116260582Y-43051161D01*
X115769375Y-43379375D01*
X115570000Y-43677761D01*
X115370625Y-43379375D01*
X114879418Y-43051161D01*
X114446256Y-42965000D01*
X114153744Y-42965000D01*
X113720582Y-43051161D01*
X113229375Y-43379375D01*
X112901161Y-43870582D01*
X112785908Y-44450000D01*
X112901161Y-45029418D01*
X113229375Y-45520625D01*
X113289619Y-45560879D01*
X111258599Y-47591900D01*
X109294852Y-47591900D01*
X109220000Y-47577011D01*
X109161458Y-47588656D01*
X107356663Y-45783862D01*
X107750625Y-45520625D01*
X107765096Y-45498967D01*
X107831673Y-45659698D01*
X108010301Y-45838327D01*
X108243690Y-45935000D01*
X108934250Y-45935000D01*
X109093000Y-45776250D01*
X109093000Y-44577000D01*
X109347000Y-44577000D01*
X109347000Y-45776250D01*
X109505750Y-45935000D01*
X110196310Y-45935000D01*
X110429699Y-45838327D01*
X110608327Y-45659698D01*
X110705000Y-45426309D01*
X110705000Y-44735750D01*
X110546250Y-44577000D01*
X109347000Y-44577000D01*
X109093000Y-44577000D01*
X109073000Y-44577000D01*
X109073000Y-44323000D01*
X109093000Y-44323000D01*
X109093000Y-43123750D01*
X109347000Y-43123750D01*
X109347000Y-44323000D01*
X110546250Y-44323000D01*
X110705000Y-44164250D01*
X110705000Y-43473691D01*
X110608327Y-43240302D01*
X110429699Y-43061673D01*
X110196310Y-42965000D01*
X109505750Y-42965000D01*
X109347000Y-43123750D01*
X109093000Y-43123750D01*
X108934250Y-42965000D01*
X108243690Y-42965000D01*
X108010301Y-43061673D01*
X107831673Y-43240302D01*
X107765096Y-43401033D01*
X107750625Y-43379375D01*
X107259418Y-43051161D01*
X106826256Y-42965000D01*
X106533744Y-42965000D01*
X106313592Y-43008791D01*
X106093331Y-42788530D01*
X106050929Y-42725071D01*
X105856264Y-42595000D01*
X126092480Y-42595000D01*
X125895271Y-42726771D01*
G04 #@! TD*
M02*
