G04 #@! TF.GenerationSoftware,KiCad,Pcbnew,(5.0.2-4-g3082e92af)*
G04 #@! TF.CreationDate,2019-02-04T02:23:37+02:00*
G04 #@! TF.ProjectId,My Piano Controller Note Module 3 (5-note_ 5V pots),4d792050-6961-46e6-9f20-436f6e74726f,rev?*
G04 #@! TF.SameCoordinates,Original*
G04 #@! TF.FileFunction,Copper,L1,Top*
G04 #@! TF.FilePolarity,Positive*
%FSLAX46Y46*%
G04 Gerber Fmt 4.6, Leading zero omitted, Abs format (unit mm)*
G04 Created by KiCad (PCBNEW (5.0.2-4-g3082e92af)) date 2019 February 04, Monday 02:23:37*
%MOMM*%
%LPD*%
G01*
G04 APERTURE LIST*
G04 #@! TA.AperFunction,SMDPad,CuDef*
%ADD10R,2.057400X0.609600*%
G04 #@! TD*
G04 #@! TA.AperFunction,ComponentPad*
%ADD11C,1.700000*%
G04 #@! TD*
G04 #@! TA.AperFunction,ComponentPad*
%ADD12R,1.700000X1.700000*%
G04 #@! TD*
G04 #@! TA.AperFunction,ComponentPad*
%ADD13O,1.700000X1.700000*%
G04 #@! TD*
G04 #@! TA.AperFunction,SMDPad,CuDef*
%ADD14R,1.200000X0.900000*%
G04 #@! TD*
G04 #@! TA.AperFunction,ComponentPad*
%ADD15C,1.440000*%
G04 #@! TD*
G04 #@! TA.AperFunction,SMDPad,CuDef*
%ADD16R,0.558800X1.981200*%
G04 #@! TD*
G04 #@! TA.AperFunction,ComponentPad*
%ADD17C,1.750000*%
G04 #@! TD*
G04 #@! TA.AperFunction,ComponentPad*
%ADD18R,1.750000X1.750000*%
G04 #@! TD*
G04 #@! TA.AperFunction,ViaPad*
%ADD19C,0.800000*%
G04 #@! TD*
G04 #@! TA.AperFunction,Conductor*
%ADD20C,0.250000*%
G04 #@! TD*
G04 #@! TA.AperFunction,Conductor*
%ADD21C,1.000000*%
G04 #@! TD*
G04 #@! TA.AperFunction,Conductor*
%ADD22C,0.254000*%
G04 #@! TD*
G04 APERTURE END LIST*
D10*
G04 #@! TO.P,CMP1,14*
G04 #@! TO.N,Net-(CMP1-Pad14)*
X113792000Y-74168000D03*
G04 #@! TO.P,CMP1,13*
G04 #@! TO.N,Net-(CMP1-Pad13)*
X113792000Y-72898000D03*
G04 #@! TO.P,CMP1,12*
G04 #@! TO.N,GND*
X113792000Y-71628000D03*
G04 #@! TO.P,CMP1,11*
G04 #@! TO.N,Net-(CMP1-Pad11)*
X113792000Y-70358000D03*
G04 #@! TO.P,CMP1,10*
G04 #@! TO.N,Net-(CMP1-Pad10)*
X113792000Y-69088000D03*
G04 #@! TO.P,CMP1,9*
G04 #@! TO.N,Net-(CMP1-Pad9)*
X113792000Y-67818000D03*
G04 #@! TO.P,CMP1,8*
G04 #@! TO.N,Net-(CMP1-Pad4)*
X113792000Y-66548000D03*
G04 #@! TO.P,CMP1,7*
G04 #@! TO.N,Net-(CMP1-Pad7)*
X118592600Y-66548000D03*
G04 #@! TO.P,CMP1,6*
G04 #@! TO.N,Net-(CMP1-Pad4)*
X118592600Y-67818000D03*
G04 #@! TO.P,CMP1,5*
G04 #@! TO.N,Net-(CMP1-Pad5)*
X118592600Y-69088000D03*
G04 #@! TO.P,CMP1,4*
G04 #@! TO.N,Net-(CMP1-Pad4)*
X118592600Y-70358000D03*
G04 #@! TO.P,CMP1,3*
G04 #@! TO.N,+5V*
X118592600Y-71628000D03*
G04 #@! TO.P,CMP1,2*
G04 #@! TO.N,Net-(CMP1-Pad2)*
X118592600Y-72898000D03*
G04 #@! TO.P,CMP1,1*
G04 #@! TO.N,Net-(CMP1-Pad1)*
X118592600Y-74168000D03*
G04 #@! TD*
G04 #@! TO.P,CMP2,1*
G04 #@! TO.N,Net-(CMP2-Pad1)*
X109956600Y-74168000D03*
G04 #@! TO.P,CMP2,2*
G04 #@! TO.N,Net-(CMP2-Pad2)*
X109956600Y-72898000D03*
G04 #@! TO.P,CMP2,3*
G04 #@! TO.N,+5V*
X109956600Y-71628000D03*
G04 #@! TO.P,CMP2,4*
G04 #@! TO.N,Net-(CMP1-Pad10)*
X109956600Y-70358000D03*
G04 #@! TO.P,CMP2,5*
G04 #@! TO.N,Net-(CMP2-Pad5)*
X109956600Y-69088000D03*
G04 #@! TO.P,CMP2,6*
G04 #@! TO.N,Net-(CMP1-Pad10)*
X109956600Y-67818000D03*
G04 #@! TO.P,CMP2,7*
G04 #@! TO.N,Net-(CMP2-Pad7)*
X109956600Y-66548000D03*
G04 #@! TO.P,CMP2,8*
G04 #@! TO.N,Net-(CMP2-Pad10)*
X105156000Y-66548000D03*
G04 #@! TO.P,CMP2,9*
G04 #@! TO.N,Net-(CMP2-Pad9)*
X105156000Y-67818000D03*
G04 #@! TO.P,CMP2,10*
G04 #@! TO.N,Net-(CMP2-Pad10)*
X105156000Y-69088000D03*
G04 #@! TO.P,CMP2,11*
G04 #@! TO.N,Net-(CMP2-Pad11)*
X105156000Y-70358000D03*
G04 #@! TO.P,CMP2,12*
G04 #@! TO.N,GND*
X105156000Y-71628000D03*
G04 #@! TO.P,CMP2,13*
G04 #@! TO.N,Net-(CMP2-Pad13)*
X105156000Y-72898000D03*
G04 #@! TO.P,CMP2,14*
G04 #@! TO.N,Net-(CMP2-Pad14)*
X105156000Y-74168000D03*
G04 #@! TD*
G04 #@! TO.P,CMP3,14*
G04 #@! TO.N,Net-(CMP3-Pad14)*
X144272000Y-74168000D03*
G04 #@! TO.P,CMP3,13*
G04 #@! TO.N,Net-(CMP3-Pad13)*
X144272000Y-72898000D03*
G04 #@! TO.P,CMP3,12*
G04 #@! TO.N,GND*
X144272000Y-71628000D03*
G04 #@! TO.P,CMP3,11*
G04 #@! TO.N,Net-(CMP3-Pad11)*
X144272000Y-70358000D03*
G04 #@! TO.P,CMP3,10*
G04 #@! TO.N,Net-(CMP3-Pad10)*
X144272000Y-69088000D03*
G04 #@! TO.P,CMP3,9*
G04 #@! TO.N,Net-(CMP3-Pad9)*
X144272000Y-67818000D03*
G04 #@! TO.P,CMP3,8*
G04 #@! TO.N,Net-(CMP3-Pad10)*
X144272000Y-66548000D03*
G04 #@! TO.P,CMP3,7*
G04 #@! TO.N,Net-(CMP3-Pad7)*
X149072600Y-66548000D03*
G04 #@! TO.P,CMP3,6*
G04 #@! TO.N,Net-(CMP2-Pad10)*
X149072600Y-67818000D03*
G04 #@! TO.P,CMP3,5*
G04 #@! TO.N,Net-(CMP3-Pad5)*
X149072600Y-69088000D03*
G04 #@! TO.P,CMP3,4*
G04 #@! TO.N,Net-(CMP3-Pad10)*
X149072600Y-70358000D03*
G04 #@! TO.P,CMP3,3*
G04 #@! TO.N,+5V*
X149072600Y-71628000D03*
G04 #@! TO.P,CMP3,2*
G04 #@! TO.N,Net-(CMP3-Pad2)*
X149072600Y-72898000D03*
G04 #@! TO.P,CMP3,1*
G04 #@! TO.N,Net-(CMP3-Pad1)*
X149072600Y-74168000D03*
G04 #@! TD*
G04 #@! TO.P,CMP4,1*
G04 #@! TO.N,Net-(CMP4-Pad1)*
X140436600Y-74168000D03*
G04 #@! TO.P,CMP4,2*
G04 #@! TO.N,Net-(CMP4-Pad2)*
X140436600Y-72898000D03*
G04 #@! TO.P,CMP4,3*
G04 #@! TO.N,+5V*
X140436600Y-71628000D03*
G04 #@! TO.P,CMP4,4*
G04 #@! TO.N,Net-(CMP4-Pad10)*
X140436600Y-70358000D03*
G04 #@! TO.P,CMP4,5*
G04 #@! TO.N,Net-(CMP4-Pad5)*
X140436600Y-69088000D03*
G04 #@! TO.P,CMP4,6*
G04 #@! TO.N,Net-(CMP4-Pad10)*
X140436600Y-67818000D03*
G04 #@! TO.P,CMP4,7*
G04 #@! TO.N,Net-(CMP4-Pad7)*
X140436600Y-66548000D03*
G04 #@! TO.P,CMP4,8*
G04 #@! TO.N,GND*
X135636000Y-66548000D03*
G04 #@! TO.P,CMP4,9*
X135636000Y-67818000D03*
G04 #@! TO.P,CMP4,10*
G04 #@! TO.N,Net-(CMP4-Pad10)*
X135636000Y-69088000D03*
G04 #@! TO.P,CMP4,11*
G04 #@! TO.N,Net-(CMP4-Pad11)*
X135636000Y-70358000D03*
G04 #@! TO.P,CMP4,12*
G04 #@! TO.N,GND*
X135636000Y-71628000D03*
G04 #@! TO.P,CMP4,13*
G04 #@! TO.N,Net-(CMP4-Pad13)*
X135636000Y-72898000D03*
G04 #@! TO.P,CMP4,14*
G04 #@! TO.N,Net-(CMP4-Pad14)*
X135636000Y-74168000D03*
G04 #@! TD*
D11*
G04 #@! TO.P,COMM1,34*
G04 #@! TO.N,Net-(COMM1-Pad34)*
X128270000Y-111760000D03*
G04 #@! TO.P,COMM1,33*
G04 #@! TO.N,Net-(COMM1-Pad33)*
X125730000Y-111760000D03*
G04 #@! TO.P,COMM1,32*
G04 #@! TO.N,Net-(COMM1-Pad32)*
X128270000Y-109220000D03*
G04 #@! TO.P,COMM1,31*
G04 #@! TO.N,Net-(COMM1-Pad31)*
X125730000Y-109220000D03*
G04 #@! TO.P,COMM1,30*
G04 #@! TO.N,Net-(COMM1-Pad30)*
X128270000Y-106680000D03*
G04 #@! TO.P,COMM1,29*
G04 #@! TO.N,Net-(COMM1-Pad29)*
X125730000Y-106680000D03*
G04 #@! TO.P,COMM1,28*
G04 #@! TO.N,Net-(COMM1-Pad28)*
X128270000Y-104140000D03*
G04 #@! TO.P,COMM1,27*
G04 #@! TO.N,Net-(COMM1-Pad27)*
X125730000Y-104140000D03*
G04 #@! TO.P,COMM1,26*
G04 #@! TO.N,Net-(COMM1-Pad26)*
X128270000Y-101600000D03*
G04 #@! TO.P,COMM1,25*
G04 #@! TO.N,Net-(COMM1-Pad25)*
X125730000Y-101600000D03*
G04 #@! TO.P,COMM1,24*
G04 #@! TO.N,Net-(COMM1-Pad24)*
X128270000Y-99060000D03*
G04 #@! TO.P,COMM1,23*
G04 #@! TO.N,Net-(COMM1-Pad23)*
X125730000Y-99060000D03*
G04 #@! TO.P,COMM1,22*
G04 #@! TO.N,Net-(COMM1-Pad22)*
X128270000Y-96520000D03*
G04 #@! TO.P,COMM1,21*
G04 #@! TO.N,Net-(COMM1-Pad21)*
X125730000Y-96520000D03*
G04 #@! TO.P,COMM1,20*
G04 #@! TO.N,Net-(COMM1-Pad20)*
X128270000Y-93980000D03*
G04 #@! TO.P,COMM1,19*
G04 #@! TO.N,Net-(COMM1-Pad19)*
X125730000Y-93980000D03*
G04 #@! TO.P,COMM1,18*
G04 #@! TO.N,Net-(COMM1-Pad18)*
X128270000Y-91440000D03*
G04 #@! TO.P,COMM1,17*
G04 #@! TO.N,Net-(COMM1-Pad17)*
X125730000Y-91440000D03*
G04 #@! TO.P,COMM1,16*
G04 #@! TO.N,GND*
X128270000Y-88900000D03*
G04 #@! TO.P,COMM1,15*
G04 #@! TO.N,Net-(COMM1-Pad15)*
X125730000Y-88900000D03*
G04 #@! TO.P,COMM1,14*
G04 #@! TO.N,Net-(COMM1-Pad14)*
X128270000Y-86360000D03*
G04 #@! TO.P,COMM1,13*
G04 #@! TO.N,Net-(COMM1-Pad13)*
X125730000Y-86360000D03*
G04 #@! TO.P,COMM1,12*
G04 #@! TO.N,Net-(COMM1-Pad12)*
X128270000Y-83820000D03*
G04 #@! TO.P,COMM1,11*
G04 #@! TO.N,Net-(COMM1-Pad11)*
X125730000Y-83820000D03*
G04 #@! TO.P,COMM1,10*
G04 #@! TO.N,Net-(COMM1-Pad10)*
X128270000Y-81280000D03*
G04 #@! TO.P,COMM1,9*
G04 #@! TO.N,Net-(COMM1-Pad9)*
X125730000Y-81280000D03*
G04 #@! TO.P,COMM1,8*
G04 #@! TO.N,Net-(COMM1-Pad8)*
X128270000Y-78740000D03*
G04 #@! TO.P,COMM1,7*
G04 #@! TO.N,Net-(COMM1-Pad7)*
X125730000Y-78740000D03*
G04 #@! TO.P,COMM1,6*
G04 #@! TO.N,Net-(COMM1-Pad6)*
X128270000Y-76200000D03*
G04 #@! TO.P,COMM1,5*
G04 #@! TO.N,Net-(COMM1-Pad5)*
X125730000Y-76200000D03*
G04 #@! TO.P,COMM1,4*
G04 #@! TO.N,Net-(COMM1-Pad4)*
X128270000Y-73660000D03*
G04 #@! TO.P,COMM1,3*
G04 #@! TO.N,Net-(COMM1-Pad3)*
X125730000Y-73660000D03*
G04 #@! TO.P,COMM1,2*
G04 #@! TO.N,Net-(COMM1-Pad2)*
X128270000Y-71120000D03*
D12*
G04 #@! TO.P,COMM1,1*
G04 #@! TO.N,Net-(COMM1-Pad1)*
X125730000Y-71120000D03*
G04 #@! TD*
D13*
G04 #@! TO.P,J1,3*
G04 #@! TO.N,+5V*
X104140000Y-44450000D03*
G04 #@! TO.P,J1,2*
G04 #@! TO.N,Net-(CMP1-Pad4)*
X106680000Y-44450000D03*
D12*
G04 #@! TO.P,J1,1*
G04 #@! TO.N,GND*
X109220000Y-44450000D03*
G04 #@! TD*
G04 #@! TO.P,J2,1*
G04 #@! TO.N,GND*
X119380000Y-44450000D03*
D13*
G04 #@! TO.P,J2,2*
G04 #@! TO.N,Net-(CMP1-Pad10)*
X116840000Y-44450000D03*
G04 #@! TO.P,J2,3*
G04 #@! TO.N,+5V*
X114300000Y-44450000D03*
G04 #@! TD*
G04 #@! TO.P,J3,3*
G04 #@! TO.N,+5V*
X134620000Y-44450000D03*
G04 #@! TO.P,J3,2*
G04 #@! TO.N,Net-(CMP2-Pad10)*
X137160000Y-44450000D03*
D12*
G04 #@! TO.P,J3,1*
G04 #@! TO.N,GND*
X139700000Y-44450000D03*
G04 #@! TD*
G04 #@! TO.P,J4,1*
G04 #@! TO.N,GND*
X149860000Y-44450000D03*
D13*
G04 #@! TO.P,J4,2*
G04 #@! TO.N,Net-(CMP3-Pad10)*
X147320000Y-44450000D03*
G04 #@! TO.P,J4,3*
G04 #@! TO.N,+5V*
X144780000Y-44450000D03*
G04 #@! TD*
G04 #@! TO.P,J5,3*
G04 #@! TO.N,+5V*
X124460000Y-44450000D03*
G04 #@! TO.P,J5,2*
G04 #@! TO.N,Net-(CMP4-Pad10)*
X127000000Y-44450000D03*
D12*
G04 #@! TO.P,J5,1*
G04 #@! TO.N,GND*
X129540000Y-44450000D03*
G04 #@! TD*
D14*
G04 #@! TO.P,R1,2*
G04 #@! TO.N,Net-(R1-Pad2)*
X143680000Y-95250000D03*
G04 #@! TO.P,R1,1*
G04 #@! TO.N,+3V3*
X145880000Y-95250000D03*
G04 #@! TD*
G04 #@! TO.P,R11,2*
G04 #@! TO.N,Net-(CMP1-Pad1)*
X119888000Y-76200000D03*
G04 #@! TO.P,R11,1*
G04 #@! TO.N,+3V3*
X117688000Y-76200000D03*
G04 #@! TD*
G04 #@! TO.P,R12,1*
G04 #@! TO.N,+3V3*
X117688000Y-78232000D03*
G04 #@! TO.P,R12,2*
G04 #@! TO.N,Net-(CMP1-Pad2)*
X119888000Y-78232000D03*
G04 #@! TD*
G04 #@! TO.P,R13,2*
G04 #@! TO.N,Net-(CMP1-Pad14)*
X113116000Y-76200000D03*
G04 #@! TO.P,R13,1*
G04 #@! TO.N,+3V3*
X115316000Y-76200000D03*
G04 #@! TD*
G04 #@! TO.P,R14,1*
G04 #@! TO.N,+3V3*
X115316000Y-78232000D03*
G04 #@! TO.P,R14,2*
G04 #@! TO.N,Net-(CMP1-Pad13)*
X113116000Y-78232000D03*
G04 #@! TD*
G04 #@! TO.P,R18,2*
G04 #@! TO.N,GND*
X107780000Y-47625000D03*
G04 #@! TO.P,R18,1*
G04 #@! TO.N,Net-(CMP1-Pad4)*
X105580000Y-47625000D03*
G04 #@! TD*
G04 #@! TO.P,R21,1*
G04 #@! TO.N,Net-(CMP2-Pad2)*
X110744000Y-76200000D03*
G04 #@! TO.P,R21,2*
G04 #@! TO.N,+3V3*
X108544000Y-76200000D03*
G04 #@! TD*
G04 #@! TO.P,R22,2*
G04 #@! TO.N,+3V3*
X108544000Y-78232000D03*
G04 #@! TO.P,R22,1*
G04 #@! TO.N,Net-(CMP2-Pad1)*
X110744000Y-78232000D03*
G04 #@! TD*
G04 #@! TO.P,R23,1*
G04 #@! TO.N,Net-(CMP2-Pad13)*
X103972000Y-76200000D03*
G04 #@! TO.P,R23,2*
G04 #@! TO.N,+3V3*
X106172000Y-76200000D03*
G04 #@! TD*
G04 #@! TO.P,R24,2*
G04 #@! TO.N,+3V3*
X106172000Y-78232000D03*
G04 #@! TO.P,R24,1*
G04 #@! TO.N,Net-(CMP2-Pad14)*
X103972000Y-78232000D03*
G04 #@! TD*
G04 #@! TO.P,R28,1*
G04 #@! TO.N,Net-(CMP1-Pad10)*
X115570000Y-47625000D03*
G04 #@! TO.P,R28,2*
G04 #@! TO.N,GND*
X117770000Y-47625000D03*
G04 #@! TD*
G04 #@! TO.P,R31,1*
G04 #@! TO.N,+3V3*
X147660000Y-76200000D03*
G04 #@! TO.P,R31,2*
G04 #@! TO.N,Net-(CMP3-Pad1)*
X149860000Y-76200000D03*
G04 #@! TD*
G04 #@! TO.P,R32,1*
G04 #@! TO.N,+3V3*
X147660000Y-78232000D03*
G04 #@! TO.P,R32,2*
G04 #@! TO.N,Net-(CMP3-Pad2)*
X149860000Y-78232000D03*
G04 #@! TD*
G04 #@! TO.P,R33,1*
G04 #@! TO.N,+3V3*
X145288000Y-76200000D03*
G04 #@! TO.P,R33,2*
G04 #@! TO.N,Net-(CMP3-Pad14)*
X143088000Y-76200000D03*
G04 #@! TD*
G04 #@! TO.P,R34,2*
G04 #@! TO.N,Net-(CMP3-Pad13)*
X143088000Y-78232000D03*
G04 #@! TO.P,R34,1*
G04 #@! TO.N,+3V3*
X145288000Y-78232000D03*
G04 #@! TD*
G04 #@! TO.P,R38,2*
G04 #@! TO.N,GND*
X138090000Y-47625000D03*
G04 #@! TO.P,R38,1*
G04 #@! TO.N,Net-(CMP2-Pad10)*
X135890000Y-47625000D03*
G04 #@! TD*
G04 #@! TO.P,R41,1*
G04 #@! TO.N,Net-(CMP4-Pad2)*
X140716000Y-78232000D03*
G04 #@! TO.P,R41,2*
G04 #@! TO.N,+3V3*
X138516000Y-78232000D03*
G04 #@! TD*
G04 #@! TO.P,R42,2*
G04 #@! TO.N,+3V3*
X138516000Y-76200000D03*
G04 #@! TO.P,R42,1*
G04 #@! TO.N,Net-(CMP4-Pad1)*
X140716000Y-76200000D03*
G04 #@! TD*
G04 #@! TO.P,R43,1*
G04 #@! TO.N,Net-(CMP4-Pad13)*
X134028000Y-78232000D03*
G04 #@! TO.P,R43,2*
G04 #@! TO.N,+3V3*
X136228000Y-78232000D03*
G04 #@! TD*
G04 #@! TO.P,R44,1*
G04 #@! TO.N,Net-(CMP4-Pad14)*
X133944000Y-76200000D03*
G04 #@! TO.P,R44,2*
G04 #@! TO.N,+3V3*
X136144000Y-76200000D03*
G04 #@! TD*
G04 #@! TO.P,R48,2*
G04 #@! TO.N,GND*
X148250000Y-47625000D03*
G04 #@! TO.P,R48,1*
G04 #@! TO.N,Net-(CMP3-Pad10)*
X146050000Y-47625000D03*
G04 #@! TD*
G04 #@! TO.P,R58,1*
G04 #@! TO.N,Net-(CMP4-Pad10)*
X125730000Y-47625000D03*
G04 #@! TO.P,R58,2*
G04 #@! TO.N,GND*
X127930000Y-47625000D03*
G04 #@! TD*
D15*
G04 #@! TO.P,RV11,3*
G04 #@! TO.N,GND*
X104140000Y-52070000D03*
G04 #@! TO.P,RV11,2*
G04 #@! TO.N,Net-(CMP1-Pad7)*
X106680000Y-52070000D03*
G04 #@! TO.P,RV11,1*
G04 #@! TO.N,+5V*
X109220000Y-52070000D03*
G04 #@! TD*
G04 #@! TO.P,RV12,1*
G04 #@! TO.N,+5V*
X109220000Y-57150000D03*
G04 #@! TO.P,RV12,2*
G04 #@! TO.N,Net-(CMP1-Pad5)*
X106680000Y-57150000D03*
G04 #@! TO.P,RV12,3*
G04 #@! TO.N,GND*
X104140000Y-57150000D03*
G04 #@! TD*
G04 #@! TO.P,RV13,3*
G04 #@! TO.N,GND*
X104140000Y-62230000D03*
G04 #@! TO.P,RV13,2*
G04 #@! TO.N,Net-(CMP1-Pad9)*
X106680000Y-62230000D03*
G04 #@! TO.P,RV13,1*
G04 #@! TO.N,+5V*
X109220000Y-62230000D03*
G04 #@! TD*
G04 #@! TO.P,RV21,1*
G04 #@! TO.N,+5V*
X119380000Y-52070000D03*
G04 #@! TO.P,RV21,2*
G04 #@! TO.N,Net-(CMP1-Pad11)*
X116840000Y-52070000D03*
G04 #@! TO.P,RV21,3*
G04 #@! TO.N,GND*
X114300000Y-52070000D03*
G04 #@! TD*
G04 #@! TO.P,RV22,3*
G04 #@! TO.N,GND*
X114300000Y-57150000D03*
G04 #@! TO.P,RV22,2*
G04 #@! TO.N,Net-(CMP2-Pad7)*
X116840000Y-57150000D03*
G04 #@! TO.P,RV22,1*
G04 #@! TO.N,+5V*
X119380000Y-57150000D03*
G04 #@! TD*
G04 #@! TO.P,RV23,1*
G04 #@! TO.N,+5V*
X119380000Y-62230000D03*
G04 #@! TO.P,RV23,2*
G04 #@! TO.N,Net-(CMP2-Pad5)*
X116840000Y-62230000D03*
G04 #@! TO.P,RV23,3*
G04 #@! TO.N,GND*
X114300000Y-62230000D03*
G04 #@! TD*
G04 #@! TO.P,RV31,3*
G04 #@! TO.N,GND*
X134620000Y-52070000D03*
G04 #@! TO.P,RV31,2*
G04 #@! TO.N,Net-(CMP2-Pad9)*
X137160000Y-52070000D03*
G04 #@! TO.P,RV31,1*
G04 #@! TO.N,+5V*
X139700000Y-52070000D03*
G04 #@! TD*
G04 #@! TO.P,RV32,1*
G04 #@! TO.N,+5V*
X139700000Y-57150000D03*
G04 #@! TO.P,RV32,2*
G04 #@! TO.N,Net-(CMP2-Pad11)*
X137160000Y-57150000D03*
G04 #@! TO.P,RV32,3*
G04 #@! TO.N,GND*
X134620000Y-57150000D03*
G04 #@! TD*
G04 #@! TO.P,RV33,3*
G04 #@! TO.N,GND*
X134620000Y-62230000D03*
G04 #@! TO.P,RV33,2*
G04 #@! TO.N,Net-(CMP3-Pad7)*
X137160000Y-62230000D03*
G04 #@! TO.P,RV33,1*
G04 #@! TO.N,+5V*
X139700000Y-62230000D03*
G04 #@! TD*
G04 #@! TO.P,RV41,1*
G04 #@! TO.N,+5V*
X149860000Y-52070000D03*
G04 #@! TO.P,RV41,2*
G04 #@! TO.N,Net-(CMP3-Pad5)*
X147320000Y-52070000D03*
G04 #@! TO.P,RV41,3*
G04 #@! TO.N,GND*
X144780000Y-52070000D03*
G04 #@! TD*
G04 #@! TO.P,RV42,3*
G04 #@! TO.N,GND*
X144780000Y-57150000D03*
G04 #@! TO.P,RV42,2*
G04 #@! TO.N,Net-(CMP3-Pad9)*
X147320000Y-57150000D03*
G04 #@! TO.P,RV42,1*
G04 #@! TO.N,+5V*
X149860000Y-57150000D03*
G04 #@! TD*
G04 #@! TO.P,RV43,1*
G04 #@! TO.N,+5V*
X149860000Y-62230000D03*
G04 #@! TO.P,RV43,2*
G04 #@! TO.N,Net-(CMP3-Pad11)*
X147320000Y-62230000D03*
G04 #@! TO.P,RV43,3*
G04 #@! TO.N,GND*
X144780000Y-62230000D03*
G04 #@! TD*
G04 #@! TO.P,RV51,3*
G04 #@! TO.N,GND*
X124460000Y-52070000D03*
G04 #@! TO.P,RV51,2*
G04 #@! TO.N,Net-(CMP4-Pad7)*
X127000000Y-52070000D03*
G04 #@! TO.P,RV51,1*
G04 #@! TO.N,+5V*
X129540000Y-52070000D03*
G04 #@! TD*
G04 #@! TO.P,RV52,3*
G04 #@! TO.N,GND*
X124460000Y-57150000D03*
G04 #@! TO.P,RV52,2*
G04 #@! TO.N,Net-(CMP4-Pad5)*
X127000000Y-57150000D03*
G04 #@! TO.P,RV52,1*
G04 #@! TO.N,+5V*
X129540000Y-57150000D03*
G04 #@! TD*
G04 #@! TO.P,RV53,1*
G04 #@! TO.N,+5V*
X129540000Y-62230000D03*
G04 #@! TO.P,RV53,2*
G04 #@! TO.N,Net-(CMP4-Pad11)*
X127000000Y-62230000D03*
G04 #@! TO.P,RV53,3*
G04 #@! TO.N,GND*
X124460000Y-62230000D03*
G04 #@! TD*
D16*
G04 #@! TO.P,TX1,20*
G04 #@! TO.N,+3V3*
X120015000Y-91033600D03*
G04 #@! TO.P,TX1,19*
G04 #@! TO.N,Net-(R1-Pad2)*
X118745000Y-91033600D03*
G04 #@! TO.P,TX1,18*
G04 #@! TO.N,Net-(COMM1-Pad1)*
X117475000Y-91033600D03*
G04 #@! TO.P,TX1,17*
G04 #@! TO.N,Net-(COMM1-Pad3)*
X116205000Y-91033600D03*
G04 #@! TO.P,TX1,16*
G04 #@! TO.N,Net-(COMM1-Pad5)*
X114935000Y-91033600D03*
G04 #@! TO.P,TX1,15*
G04 #@! TO.N,Net-(COMM1-Pad7)*
X113665000Y-91033600D03*
G04 #@! TO.P,TX1,14*
G04 #@! TO.N,Net-(COMM1-Pad9)*
X112395000Y-91033600D03*
G04 #@! TO.P,TX1,13*
G04 #@! TO.N,Net-(COMM1-Pad11)*
X111125000Y-91033600D03*
G04 #@! TO.P,TX1,12*
G04 #@! TO.N,Net-(COMM1-Pad13)*
X109855000Y-91033600D03*
G04 #@! TO.P,TX1,11*
G04 #@! TO.N,Net-(COMM1-Pad15)*
X108585000Y-91033600D03*
G04 #@! TO.P,TX1,10*
G04 #@! TO.N,GND*
X108585000Y-81686400D03*
G04 #@! TO.P,TX1,9*
G04 #@! TO.N,Net-(CMP2-Pad14)*
X109855000Y-81686400D03*
G04 #@! TO.P,TX1,8*
G04 #@! TO.N,Net-(CMP2-Pad13)*
X111125000Y-81686400D03*
G04 #@! TO.P,TX1,7*
G04 #@! TO.N,Net-(CMP2-Pad1)*
X112395000Y-81686400D03*
G04 #@! TO.P,TX1,6*
G04 #@! TO.N,Net-(CMP2-Pad2)*
X113665000Y-81686400D03*
G04 #@! TO.P,TX1,5*
G04 #@! TO.N,Net-(CMP1-Pad13)*
X114935000Y-81686400D03*
G04 #@! TO.P,TX1,4*
G04 #@! TO.N,Net-(CMP1-Pad14)*
X116205000Y-81686400D03*
G04 #@! TO.P,TX1,3*
G04 #@! TO.N,Net-(CMP1-Pad2)*
X117475000Y-81686400D03*
G04 #@! TO.P,TX1,2*
G04 #@! TO.N,Net-(CMP1-Pad1)*
X118745000Y-81686400D03*
G04 #@! TO.P,TX1,1*
G04 #@! TO.N,+3V3*
X120015000Y-81686400D03*
G04 #@! TD*
G04 #@! TO.P,TX2,1*
G04 #@! TO.N,+3V3*
X145415000Y-81686400D03*
G04 #@! TO.P,TX2,2*
G04 #@! TO.N,Net-(CMP3-Pad1)*
X144145000Y-81686400D03*
G04 #@! TO.P,TX2,3*
G04 #@! TO.N,Net-(CMP3-Pad2)*
X142875000Y-81686400D03*
G04 #@! TO.P,TX2,4*
G04 #@! TO.N,Net-(CMP3-Pad14)*
X141605000Y-81686400D03*
G04 #@! TO.P,TX2,5*
G04 #@! TO.N,Net-(CMP3-Pad13)*
X140335000Y-81686400D03*
G04 #@! TO.P,TX2,6*
G04 #@! TO.N,Net-(CMP4-Pad2)*
X139065000Y-81686400D03*
G04 #@! TO.P,TX2,7*
G04 #@! TO.N,Net-(CMP4-Pad1)*
X137795000Y-81686400D03*
G04 #@! TO.P,TX2,8*
G04 #@! TO.N,Net-(CMP4-Pad13)*
X136525000Y-81686400D03*
G04 #@! TO.P,TX2,9*
G04 #@! TO.N,Net-(CMP4-Pad14)*
X135255000Y-81686400D03*
G04 #@! TO.P,TX2,10*
G04 #@! TO.N,GND*
X133985000Y-81686400D03*
G04 #@! TO.P,TX2,11*
G04 #@! TO.N,Net-(TX2-Pad11)*
X133985000Y-91033600D03*
G04 #@! TO.P,TX2,12*
G04 #@! TO.N,Net-(COMM1-Pad2)*
X135255000Y-91033600D03*
G04 #@! TO.P,TX2,13*
G04 #@! TO.N,Net-(COMM1-Pad4)*
X136525000Y-91033600D03*
G04 #@! TO.P,TX2,14*
G04 #@! TO.N,Net-(COMM1-Pad6)*
X137795000Y-91033600D03*
G04 #@! TO.P,TX2,15*
G04 #@! TO.N,Net-(COMM1-Pad8)*
X139065000Y-91033600D03*
G04 #@! TO.P,TX2,16*
G04 #@! TO.N,Net-(COMM1-Pad10)*
X140335000Y-91033600D03*
G04 #@! TO.P,TX2,17*
G04 #@! TO.N,Net-(COMM1-Pad12)*
X141605000Y-91033600D03*
G04 #@! TO.P,TX2,18*
G04 #@! TO.N,Net-(COMM1-Pad14)*
X142875000Y-91033600D03*
G04 #@! TO.P,TX2,19*
G04 #@! TO.N,Net-(R1-Pad2)*
X144145000Y-91033600D03*
G04 #@! TO.P,TX2,20*
G04 #@! TO.N,+3V3*
X145415000Y-91033600D03*
G04 #@! TD*
D13*
G04 #@! TO.P,SEL2,18*
G04 #@! TO.N,Net-(R1-Pad2)*
X137160000Y-115570000D03*
G04 #@! TO.P,SEL2,17*
G04 #@! TO.N,Net-(COMM1-Pad34)*
X134620000Y-115570000D03*
G04 #@! TO.P,SEL2,16*
G04 #@! TO.N,Net-(R1-Pad2)*
X137160000Y-113030000D03*
G04 #@! TO.P,SEL2,15*
G04 #@! TO.N,Net-(COMM1-Pad32)*
X134620000Y-113030000D03*
G04 #@! TO.P,SEL2,14*
G04 #@! TO.N,Net-(R1-Pad2)*
X137160000Y-110490000D03*
G04 #@! TO.P,SEL2,13*
G04 #@! TO.N,Net-(COMM1-Pad30)*
X134620000Y-110490000D03*
G04 #@! TO.P,SEL2,12*
G04 #@! TO.N,Net-(R1-Pad2)*
X137160000Y-107950000D03*
G04 #@! TO.P,SEL2,11*
G04 #@! TO.N,Net-(COMM1-Pad28)*
X134620000Y-107950000D03*
G04 #@! TO.P,SEL2,10*
G04 #@! TO.N,Net-(R1-Pad2)*
X137160000Y-105410000D03*
G04 #@! TO.P,SEL2,9*
G04 #@! TO.N,Net-(COMM1-Pad26)*
X134620000Y-105410000D03*
G04 #@! TO.P,SEL2,8*
G04 #@! TO.N,Net-(R1-Pad2)*
X137160000Y-102870000D03*
G04 #@! TO.P,SEL2,7*
G04 #@! TO.N,Net-(COMM1-Pad24)*
X134620000Y-102870000D03*
G04 #@! TO.P,SEL2,6*
G04 #@! TO.N,Net-(R1-Pad2)*
X137160000Y-100330000D03*
G04 #@! TO.P,SEL2,5*
G04 #@! TO.N,Net-(COMM1-Pad22)*
X134620000Y-100330000D03*
G04 #@! TO.P,SEL2,4*
G04 #@! TO.N,Net-(R1-Pad2)*
X137160000Y-97790000D03*
G04 #@! TO.P,SEL2,3*
G04 #@! TO.N,Net-(COMM1-Pad20)*
X134620000Y-97790000D03*
G04 #@! TO.P,SEL2,2*
G04 #@! TO.N,Net-(R1-Pad2)*
X137160000Y-95250000D03*
D12*
G04 #@! TO.P,SEL2,1*
G04 #@! TO.N,Net-(COMM1-Pad18)*
X134620000Y-95250000D03*
G04 #@! TD*
D13*
G04 #@! TO.P,SEL1,18*
G04 #@! TO.N,Net-(COMM1-Pad33)*
X119380000Y-115570000D03*
G04 #@! TO.P,SEL1,17*
G04 #@! TO.N,Net-(R1-Pad2)*
X116840000Y-115570000D03*
G04 #@! TO.P,SEL1,16*
G04 #@! TO.N,Net-(COMM1-Pad31)*
X119380000Y-113030000D03*
G04 #@! TO.P,SEL1,15*
G04 #@! TO.N,Net-(R1-Pad2)*
X116840000Y-113030000D03*
G04 #@! TO.P,SEL1,14*
G04 #@! TO.N,Net-(COMM1-Pad29)*
X119380000Y-110490000D03*
G04 #@! TO.P,SEL1,13*
G04 #@! TO.N,Net-(R1-Pad2)*
X116840000Y-110490000D03*
G04 #@! TO.P,SEL1,12*
G04 #@! TO.N,Net-(COMM1-Pad27)*
X119380000Y-107950000D03*
G04 #@! TO.P,SEL1,11*
G04 #@! TO.N,Net-(R1-Pad2)*
X116840000Y-107950000D03*
G04 #@! TO.P,SEL1,10*
G04 #@! TO.N,Net-(COMM1-Pad25)*
X119380000Y-105410000D03*
G04 #@! TO.P,SEL1,9*
G04 #@! TO.N,Net-(R1-Pad2)*
X116840000Y-105410000D03*
G04 #@! TO.P,SEL1,8*
G04 #@! TO.N,Net-(COMM1-Pad23)*
X119380000Y-102870000D03*
G04 #@! TO.P,SEL1,7*
G04 #@! TO.N,Net-(R1-Pad2)*
X116840000Y-102870000D03*
G04 #@! TO.P,SEL1,6*
G04 #@! TO.N,Net-(COMM1-Pad21)*
X119380000Y-100330000D03*
G04 #@! TO.P,SEL1,5*
G04 #@! TO.N,Net-(R1-Pad2)*
X116840000Y-100330000D03*
G04 #@! TO.P,SEL1,4*
G04 #@! TO.N,Net-(COMM1-Pad19)*
X119380000Y-97790000D03*
G04 #@! TO.P,SEL1,3*
G04 #@! TO.N,Net-(R1-Pad2)*
X116840000Y-97790000D03*
G04 #@! TO.P,SEL1,2*
G04 #@! TO.N,Net-(COMM1-Pad17)*
X119380000Y-95250000D03*
D12*
G04 #@! TO.P,SEL1,1*
G04 #@! TO.N,Net-(R1-Pad2)*
X116840000Y-95250000D03*
G04 #@! TD*
D17*
G04 #@! TO.P,PWR1,3*
G04 #@! TO.N,+5V*
X148510000Y-104140000D03*
G04 #@! TO.P,PWR1,2*
G04 #@! TO.N,+3V3*
X146010000Y-104140000D03*
D18*
G04 #@! TO.P,PWR1,1*
G04 #@! TO.N,GND*
X143510000Y-104140000D03*
G04 #@! TD*
G04 #@! TO.P,PWR2,1*
G04 #@! TO.N,GND*
X143510000Y-113030000D03*
D17*
G04 #@! TO.P,PWR2,2*
G04 #@! TO.N,+3V3*
X146010000Y-113030000D03*
G04 #@! TO.P,PWR2,3*
G04 #@! TO.N,+5V*
X148510000Y-113030000D03*
G04 #@! TD*
D19*
G04 #@! TO.N,Net-(CMP1-Pad4)*
X115146000Y-64348800D03*
G04 #@! TO.N,Net-(CMP1-Pad7)*
X117238600Y-64322500D03*
G04 #@! TO.N,Net-(CMP1-Pad5)*
X116950400Y-68668500D03*
G04 #@! TO.N,+5V*
X146812000Y-71628000D03*
X138176000Y-71628000D03*
X116332000Y-71628000D03*
X107696000Y-71628000D03*
G04 #@! TO.N,Net-(CMP2-Pad9)*
X107031700Y-67611500D03*
G04 #@! TO.N,Net-(CMP2-Pad11)*
X106796500Y-70071500D03*
G04 #@! TO.N,Net-(CMP3-Pad7)*
X148789300Y-65486600D03*
G04 #@! TO.N,Net-(COMM1-Pad15)*
X108585000Y-89433800D03*
G04 #@! TO.N,Net-(COMM1-Pad13)*
X119684300Y-86363100D03*
G04 #@! TO.N,Net-(COMM1-Pad11)*
X118240800Y-85090900D03*
G04 #@! TO.N,Net-(COMM1-Pad9)*
X117378200Y-85817100D03*
X127000000Y-85090000D03*
G04 #@! TO.N,Net-(COMM1-Pad8)*
X132592700Y-81336400D03*
G04 #@! TO.N,+3V3*
X146050000Y-80188700D03*
X135890000Y-83820000D03*
X119432319Y-83695022D03*
G04 #@! TD*
D20*
G04 #@! TO.N,Net-(CMP1-Pad14)*
X113116000Y-76200000D02*
X113116000Y-76975300D01*
X116205000Y-81686400D02*
X116205000Y-80370500D01*
X116205000Y-80370500D02*
X115933700Y-80370500D01*
X115933700Y-80370500D02*
X114390600Y-78827400D01*
X114390600Y-78827400D02*
X114390600Y-77959200D01*
X114390600Y-77959200D02*
X113406700Y-76975300D01*
X113406700Y-76975300D02*
X113116000Y-76975300D01*
X113116000Y-76200000D02*
X113116000Y-74844000D01*
X113116000Y-74844000D02*
X113792000Y-74168000D01*
G04 #@! TO.N,Net-(CMP1-Pad13)*
X114935000Y-81686400D02*
X114935000Y-80370500D01*
X113116000Y-78232000D02*
X113116000Y-79007300D01*
X114935000Y-80370500D02*
X114479200Y-80370500D01*
X114479200Y-80370500D02*
X113116000Y-79007300D01*
X113792000Y-72898000D02*
X112438000Y-72898000D01*
X113116000Y-78232000D02*
X113116000Y-77456700D01*
X113116000Y-77456700D02*
X112858300Y-77456700D01*
X112858300Y-77456700D02*
X112190600Y-76789000D01*
X112190600Y-76789000D02*
X112190600Y-73145400D01*
X112190600Y-73145400D02*
X112438000Y-72898000D01*
G04 #@! TO.N,GND*
X134620000Y-51870300D02*
X134620000Y-52070000D01*
X138090000Y-47237300D02*
X138090000Y-47625000D01*
X142442200Y-71469400D02*
X142442200Y-67797500D01*
X142442200Y-67797500D02*
X141832600Y-67187900D01*
X141832600Y-67187900D02*
X137620100Y-67187900D01*
X137620100Y-67187900D02*
X136990000Y-67818000D01*
X142918000Y-71628000D02*
X142600800Y-71628000D01*
X142600800Y-71628000D02*
X142442200Y-71469400D01*
X142442200Y-71469400D02*
X141646700Y-72264900D01*
X141646700Y-72264900D02*
X138979700Y-72264900D01*
X138979700Y-72264900D02*
X138886900Y-72357700D01*
X138886900Y-72357700D02*
X137719700Y-72357700D01*
X137719700Y-72357700D02*
X136990000Y-71628000D01*
X135636000Y-71628000D02*
X136990000Y-71628000D01*
X135636000Y-67818000D02*
X136990000Y-67818000D01*
X144780000Y-52070000D02*
X144780000Y-51870300D01*
X105156000Y-71628000D02*
X106510000Y-71628000D01*
X113792000Y-71628000D02*
X112438000Y-71628000D01*
X112438000Y-71628000D02*
X111807900Y-72258100D01*
X111807900Y-72258100D02*
X108506300Y-72258100D01*
X108506300Y-72258100D02*
X108401100Y-72363300D01*
X108401100Y-72363300D02*
X107245300Y-72363300D01*
X107245300Y-72363300D02*
X106510000Y-71628000D01*
X144272000Y-71628000D02*
X142918000Y-71628000D01*
X135636000Y-66548000D02*
X134959000Y-66548000D01*
X143510000Y-113030000D02*
X143510000Y-104140000D01*
X133985000Y-80975200D02*
X133019800Y-80010000D01*
X133985000Y-81686400D02*
X133985000Y-80975200D01*
X135636000Y-71628000D02*
X134112000Y-71628000D01*
X134112000Y-71628000D02*
X133350000Y-72390000D01*
G04 #@! TO.N,Net-(CMP1-Pad11)*
X116840000Y-52070000D02*
X118110000Y-53340000D01*
X118110000Y-53340000D02*
X118110000Y-62759100D01*
X118110000Y-62759100D02*
X119946700Y-64595800D01*
X119946700Y-64595800D02*
X119946700Y-70801900D01*
X119946700Y-70801900D02*
X119760400Y-70988200D01*
X119760400Y-70988200D02*
X117372400Y-70988200D01*
X117372400Y-70988200D02*
X116742200Y-70358000D01*
X116742200Y-70358000D02*
X113792000Y-70358000D01*
G04 #@! TO.N,Net-(CMP1-Pad10)*
X108602600Y-67818000D02*
X108602600Y-66019200D01*
X108602600Y-66019200D02*
X111760700Y-62861100D01*
X111760700Y-62861100D02*
X111760700Y-52209600D01*
X111760700Y-52209600D02*
X115570000Y-48400300D01*
X109956600Y-70358000D02*
X108602600Y-70358000D01*
X108602600Y-67818000D02*
X108602600Y-70358000D01*
X108715200Y-67818000D02*
X108602600Y-67818000D01*
X115570000Y-47625000D02*
X115570000Y-48400300D01*
X109956600Y-67818000D02*
X108715200Y-67818000D01*
X113792000Y-69088000D02*
X112438000Y-69088000D01*
X109956600Y-70358000D02*
X111310600Y-70358000D01*
X111310600Y-70358000D02*
X112438000Y-69230600D01*
X112438000Y-69230600D02*
X112438000Y-69088000D01*
X115570000Y-47625000D02*
X115570000Y-46849700D01*
X116840000Y-44450000D02*
X116840000Y-45625300D01*
X115570000Y-46849700D02*
X115615600Y-46849700D01*
X115615600Y-46849700D02*
X116840000Y-45625300D01*
G04 #@! TO.N,Net-(CMP1-Pad9)*
X113792000Y-67818000D02*
X115146000Y-67818000D01*
X106680000Y-62230000D02*
X108146400Y-63696400D01*
X108146400Y-63696400D02*
X108146400Y-70540400D01*
X108146400Y-70540400D02*
X108594200Y-70988200D01*
X108594200Y-70988200D02*
X111326300Y-70988200D01*
X111326300Y-70988200D02*
X112593500Y-69721000D01*
X112593500Y-69721000D02*
X115016400Y-69721000D01*
X115016400Y-69721000D02*
X115146000Y-69591400D01*
X115146000Y-69591400D02*
X115146000Y-67818000D01*
G04 #@! TO.N,Net-(CMP1-Pad4)*
X115146000Y-64348800D02*
X115146000Y-66548000D01*
X116216600Y-67818000D02*
X118592600Y-67818000D01*
X115146000Y-66548000D02*
X116216600Y-67618600D01*
X116216600Y-67618600D02*
X116216600Y-67818000D01*
X116216600Y-67818000D02*
X116216600Y-69032400D01*
X116216600Y-69032400D02*
X117542200Y-70358000D01*
X117542200Y-70358000D02*
X118592600Y-70358000D01*
X113792000Y-66548000D02*
X115146000Y-66548000D01*
X106680000Y-44450000D02*
X106680000Y-45625300D01*
X105580000Y-47625000D02*
X105580000Y-46725300D01*
X105580000Y-46725300D02*
X106680000Y-45625300D01*
G04 #@! TO.N,Net-(CMP1-Pad7)*
X117238600Y-64322500D02*
X117238600Y-66548000D01*
X118592600Y-66548000D02*
X117238600Y-66548000D01*
G04 #@! TO.N,Net-(CMP1-Pad5)*
X118592600Y-69088000D02*
X117238600Y-69088000D01*
X117238600Y-69088000D02*
X117238600Y-68956700D01*
X117238600Y-68956700D02*
X116950400Y-68668500D01*
G04 #@! TO.N,+5V*
X109957000Y-71628000D02*
X111783100Y-71628000D01*
X111783100Y-71628000D02*
X112413300Y-70997800D01*
X112413300Y-70997800D02*
X116745000Y-70997800D01*
X116745000Y-70997800D02*
X117375200Y-71628000D01*
X117375200Y-71628000D02*
X117377100Y-71628000D01*
X116332000Y-71628000D02*
X117375200Y-71628000D01*
X117377100Y-71628000D02*
X117380800Y-71628000D01*
X118593000Y-71628000D02*
X119757500Y-71628000D01*
X119757500Y-71628000D02*
X120449600Y-70935900D01*
X120449600Y-70935900D02*
X120449600Y-63299600D01*
X120449600Y-63299600D02*
X119380000Y-62230000D01*
X118592600Y-71628000D02*
X118593000Y-71628000D01*
X117380800Y-71628000D02*
X118592600Y-71628000D01*
X119380000Y-57150000D02*
X119380000Y-62230000D01*
X109956600Y-71628000D02*
X109957000Y-71628000D01*
D21*
X148510000Y-113030000D02*
X148510000Y-104140000D01*
D20*
X139700000Y-57150000D02*
X139700000Y-52070000D01*
X139700000Y-62230000D02*
X139700000Y-57150000D01*
X129540000Y-57150000D02*
X129540000Y-52070000D01*
X129540000Y-62230000D02*
X129540000Y-57150000D01*
X109220000Y-57150000D02*
X109220000Y-52070000D01*
X119380000Y-52070000D02*
X119380000Y-57150000D01*
X149860000Y-52070000D02*
X149860000Y-57150000D01*
X149860000Y-62230000D02*
X149860000Y-57150000D01*
X107696000Y-71628000D02*
X109956600Y-71628000D01*
X140436600Y-71628000D02*
X138176000Y-71628000D01*
X149072600Y-71628000D02*
X149073000Y-71628000D01*
X146812000Y-71628000D02*
X149072600Y-71628000D01*
X140437000Y-71628000D02*
X140436600Y-71628000D01*
G04 #@! TO.N,Net-(CMP1-Pad2)*
X119888000Y-78232000D02*
X119888000Y-79007300D01*
X117475000Y-81686400D02*
X117475000Y-83002300D01*
X117475000Y-83002300D02*
X119218400Y-83002300D01*
X119218400Y-83002300D02*
X119349800Y-82870900D01*
X119349800Y-82870900D02*
X119349800Y-79545500D01*
X119349800Y-79545500D02*
X119888000Y-79007300D01*
X119888000Y-77844300D02*
X119888000Y-78232000D01*
X119888000Y-77844300D02*
X119888000Y-77456700D01*
X118592600Y-72898000D02*
X119946600Y-72898000D01*
X119888000Y-77456700D02*
X120178700Y-77456700D01*
X120178700Y-77456700D02*
X120821000Y-76814400D01*
X120821000Y-76814400D02*
X120821000Y-73772400D01*
X120821000Y-73772400D02*
X119946600Y-72898000D01*
G04 #@! TO.N,Net-(CMP1-Pad1)*
X119888000Y-76200000D02*
X119888000Y-76975300D01*
X118745000Y-81686400D02*
X118745000Y-77827600D01*
X118745000Y-77827600D02*
X119597300Y-76975300D01*
X119597300Y-76975300D02*
X119888000Y-76975300D01*
X118592600Y-74168000D02*
X119946600Y-74168000D01*
X119888000Y-76200000D02*
X119888000Y-75424700D01*
X119888000Y-75424700D02*
X119946600Y-75366100D01*
X119946600Y-75366100D02*
X119946600Y-74168000D01*
G04 #@! TO.N,Net-(CMP2-Pad1)*
X109956600Y-74168000D02*
X108602600Y-74168000D01*
X110744000Y-78619600D02*
X109818600Y-77694200D01*
X109818600Y-77694200D02*
X109818600Y-75938100D01*
X109818600Y-75938100D02*
X108602600Y-74722100D01*
X108602600Y-74722100D02*
X108602600Y-74168000D01*
X110744000Y-78619600D02*
X110744000Y-79007300D01*
X110744000Y-78232000D02*
X110744000Y-78619600D01*
X112395000Y-81686400D02*
X112395000Y-80370500D01*
X112395000Y-80370500D02*
X111031800Y-79007300D01*
X111031800Y-79007300D02*
X110744000Y-79007300D01*
G04 #@! TO.N,Net-(CMP2-Pad2)*
X109956600Y-72898000D02*
X111310600Y-72898000D01*
X110744000Y-76468800D02*
X111310600Y-75902200D01*
X111310600Y-75902200D02*
X111310600Y-72898000D01*
X110744000Y-76200000D02*
X110744000Y-76468800D01*
X110744000Y-76587600D02*
X110744000Y-76975300D01*
X110744000Y-76587600D02*
X110744000Y-76468800D01*
X113665000Y-81686400D02*
X113665000Y-80370500D01*
X113665000Y-80370500D02*
X111740200Y-78445700D01*
X111740200Y-78445700D02*
X111740200Y-77680800D01*
X111740200Y-77680800D02*
X111034700Y-76975300D01*
X111034700Y-76975300D02*
X110744000Y-76975300D01*
G04 #@! TO.N,Net-(CMP2-Pad5)*
X116840000Y-62230000D02*
X116198700Y-62230000D01*
X116198700Y-62230000D02*
X114226100Y-64202600D01*
X114226100Y-64202600D02*
X114226100Y-64318900D01*
X114226100Y-64318900D02*
X111310600Y-67234400D01*
X111310600Y-67234400D02*
X111310600Y-69088000D01*
X109956600Y-69088000D02*
X111310600Y-69088000D01*
G04 #@! TO.N,Net-(CMP2-Pad7)*
X109956600Y-66548000D02*
X111310600Y-66548000D01*
X116840000Y-57150000D02*
X115780400Y-56090400D01*
X115780400Y-56090400D02*
X113847100Y-56090400D01*
X113847100Y-56090400D02*
X112559300Y-57378200D01*
X112559300Y-57378200D02*
X112559300Y-65299300D01*
X112559300Y-65299300D02*
X111310600Y-66548000D01*
G04 #@! TO.N,Net-(CMP2-Pad10)*
X105156000Y-66548000D02*
X106510000Y-66548000D01*
X135890000Y-47344300D02*
X135805700Y-47344300D01*
X135805700Y-47344300D02*
X131722200Y-43260800D01*
X131722200Y-43260800D02*
X116297100Y-43260800D01*
X116297100Y-43260800D02*
X115570000Y-43987900D01*
X115570000Y-43987900D02*
X115570000Y-45150300D01*
X115570000Y-45150300D02*
X110860100Y-49860200D01*
X110860100Y-49860200D02*
X110860100Y-56992200D01*
X110860100Y-56992200D02*
X107937700Y-59914600D01*
X107937700Y-59914600D02*
X107463600Y-59914600D01*
X107463600Y-59914600D02*
X105616200Y-61762000D01*
X105616200Y-61762000D02*
X105616200Y-65024100D01*
X105616200Y-65024100D02*
X106510000Y-65917900D01*
X106510000Y-65917900D02*
X106510000Y-66548000D01*
X135890000Y-47344300D02*
X135890000Y-46849700D01*
X135890000Y-47625000D02*
X135890000Y-47344300D01*
X137160000Y-44450000D02*
X137160000Y-45625300D01*
X135890000Y-46849700D02*
X135935600Y-46849700D01*
X135935600Y-46849700D02*
X137160000Y-45625300D01*
X105156000Y-66548000D02*
X103802000Y-66548000D01*
X105156000Y-69088000D02*
X103802000Y-69088000D01*
X103802000Y-69088000D02*
X103802000Y-66548000D01*
X149072600Y-67818000D02*
X150426600Y-67818000D01*
X137160000Y-44450000D02*
X138335300Y-44450000D01*
X138335300Y-44450000D02*
X138335300Y-43642000D01*
X138335300Y-43642000D02*
X138702700Y-43274600D01*
X138702700Y-43274600D02*
X150902600Y-43274600D01*
X150902600Y-43274600D02*
X151086000Y-43458000D01*
X151086000Y-43458000D02*
X151086000Y-67158600D01*
X151086000Y-67158600D02*
X150426600Y-67818000D01*
G04 #@! TO.N,Net-(CMP2-Pad9)*
X105156000Y-67818000D02*
X106510000Y-67818000D01*
X107031700Y-67611500D02*
X106716500Y-67611500D01*
X106716500Y-67611500D02*
X106510000Y-67818000D01*
G04 #@! TO.N,Net-(CMP2-Pad11)*
X106796500Y-70071500D02*
X106510000Y-70358000D01*
X105156000Y-70358000D02*
X106510000Y-70358000D01*
G04 #@! TO.N,Net-(CMP2-Pad13)*
X103972000Y-75812300D02*
X103972000Y-76200000D01*
X103972000Y-75812300D02*
X103972000Y-75424700D01*
X105156000Y-72898000D02*
X103802000Y-72898000D01*
X103972000Y-75424700D02*
X103802000Y-75254700D01*
X103802000Y-75254700D02*
X103802000Y-72898000D01*
X109381700Y-83002300D02*
X111125000Y-83002300D01*
X109220000Y-82840600D02*
X109381700Y-83002300D01*
X109067300Y-80370500D02*
X109220000Y-80523200D01*
X105779490Y-80010000D02*
X106139990Y-80370500D01*
X103111999Y-79007001D02*
X104407001Y-79007001D01*
X106139990Y-80370500D02*
X109067300Y-80370500D01*
X104407001Y-79007001D02*
X105410000Y-80010000D01*
X111125000Y-83002300D02*
X111125000Y-81686400D01*
X103023300Y-77633300D02*
X103023300Y-78918302D01*
X109220000Y-80523200D02*
X109220000Y-82840600D01*
X103972000Y-76200000D02*
X103972000Y-76975300D01*
X105410000Y-80010000D02*
X105779490Y-80010000D01*
X103681300Y-76975300D02*
X103023300Y-77633300D01*
X103023300Y-78918302D02*
X103111999Y-79007001D01*
X103972000Y-76975300D02*
X103681300Y-76975300D01*
G04 #@! TO.N,Net-(CMP2-Pad14)*
X105156000Y-78232000D02*
X105156000Y-74168000D01*
X109855000Y-80370500D02*
X109404700Y-79920200D01*
X109404700Y-79920200D02*
X106326100Y-79920200D01*
X106326100Y-79920200D02*
X105156000Y-78750100D01*
X105156000Y-78750100D02*
X105156000Y-78232000D01*
X104897300Y-78232000D02*
X105156000Y-78232000D01*
X103972000Y-78232000D02*
X104897300Y-78232000D01*
X109855000Y-81686400D02*
X109855000Y-80370500D01*
G04 #@! TO.N,Net-(CMP3-Pad14)*
X143558300Y-76200000D02*
X143558300Y-74881700D01*
X143558300Y-74881700D02*
X144272000Y-74168000D01*
X141605000Y-80370500D02*
X142422700Y-79552800D01*
X142422700Y-79552800D02*
X143278200Y-79552800D01*
X143278200Y-79552800D02*
X144028600Y-78802400D01*
X144028600Y-78802400D02*
X144028600Y-76670300D01*
X144028600Y-76670300D02*
X143558300Y-76200000D01*
X143088000Y-76200000D02*
X143558300Y-76200000D01*
X141605000Y-81686400D02*
X141605000Y-80370500D01*
G04 #@! TO.N,Net-(CMP3-Pad13)*
X142587000Y-78118500D02*
X142155300Y-77686900D01*
X142155300Y-77686900D02*
X142155300Y-75356900D01*
X142155300Y-75356900D02*
X142918000Y-74594200D01*
X142918000Y-74594200D02*
X142918000Y-72898000D01*
X143088000Y-78619600D02*
X142587000Y-78118500D01*
X140335000Y-80370500D02*
X142587000Y-78118500D01*
X140335000Y-81686400D02*
X140335000Y-80370500D01*
X144272000Y-72898000D02*
X142918000Y-72898000D01*
X143088000Y-78232000D02*
X143088000Y-78619600D01*
G04 #@! TO.N,Net-(CMP3-Pad11)*
X145626000Y-70358000D02*
X147021600Y-68962400D01*
X147021600Y-68962400D02*
X147021600Y-62528400D01*
X147021600Y-62528400D02*
X147320000Y-62230000D01*
X144272000Y-70358000D02*
X145626000Y-70358000D01*
G04 #@! TO.N,Net-(CMP3-Pad10)*
X149072600Y-70358000D02*
X147056200Y-70358000D01*
X147056200Y-70358000D02*
X146426000Y-70988200D01*
X146426000Y-70988200D02*
X143047300Y-70988200D01*
X143047300Y-70988200D02*
X142918000Y-70858900D01*
X142918000Y-70858900D02*
X142918000Y-69088000D01*
X144272000Y-69088000D02*
X142918000Y-69088000D01*
X142918000Y-66548000D02*
X142918000Y-69088000D01*
X146050000Y-48400300D02*
X142918000Y-51532300D01*
X142918000Y-51532300D02*
X142918000Y-66548000D01*
X146050000Y-47625000D02*
X146050000Y-48400300D01*
X146050000Y-47625000D02*
X146050000Y-47344300D01*
X144272000Y-66548000D02*
X142918000Y-66548000D01*
X146050000Y-47344300D02*
X146050000Y-46849700D01*
X147320000Y-44450000D02*
X147320000Y-45625300D01*
X146050000Y-46849700D02*
X146095600Y-46849700D01*
X146095600Y-46849700D02*
X147320000Y-45625300D01*
G04 #@! TO.N,Net-(CMP3-Pad9)*
X144272000Y-67818000D02*
X145626000Y-67818000D01*
X147320000Y-57150000D02*
X146231200Y-58238800D01*
X146231200Y-58238800D02*
X146231200Y-67212800D01*
X146231200Y-67212800D02*
X145626000Y-67818000D01*
G04 #@! TO.N,Net-(CMP3-Pad7)*
X148789300Y-65486600D02*
X149072600Y-65769900D01*
X149072600Y-65769900D02*
X149072600Y-66548000D01*
G04 #@! TO.N,Net-(CMP3-Pad5)*
X149072600Y-69088000D02*
X147718600Y-69088000D01*
X147320000Y-52070000D02*
X148402900Y-53152900D01*
X148402900Y-53152900D02*
X148402900Y-63876700D01*
X148402900Y-63876700D02*
X147718600Y-64561000D01*
X147718600Y-64561000D02*
X147718600Y-69088000D01*
G04 #@! TO.N,Net-(CMP3-Pad2)*
X149860000Y-78232000D02*
X149860000Y-79007300D01*
X142875000Y-81686400D02*
X142875000Y-83002300D01*
X148496800Y-80370500D02*
X149860000Y-79007300D01*
X149860000Y-78232000D02*
X149860000Y-77456700D01*
X149860000Y-77456700D02*
X150150700Y-77456700D01*
X150150700Y-77456700D02*
X150785400Y-76822000D01*
X150785400Y-76822000D02*
X150785400Y-73256800D01*
X150785400Y-73256800D02*
X150426600Y-72898000D01*
X149072600Y-72898000D02*
X150426600Y-72898000D01*
X148496800Y-80370500D02*
X146959500Y-80370500D01*
X146959500Y-80370500D02*
X146050000Y-81280000D01*
X146050000Y-82906402D02*
X145954102Y-83002300D01*
X145954102Y-83002300D02*
X142875000Y-83002300D01*
X146050000Y-81280000D02*
X146050000Y-82906402D01*
G04 #@! TO.N,Net-(CMP3-Pad1)*
X149860000Y-76200000D02*
X149860000Y-76975300D01*
X144145000Y-81686400D02*
X144145000Y-80370500D01*
X144145000Y-80370500D02*
X145051800Y-79463700D01*
X145051800Y-79463700D02*
X147952000Y-79463700D01*
X147952000Y-79463700D02*
X148585400Y-78830300D01*
X148585400Y-78830300D02*
X148585400Y-77959200D01*
X148585400Y-77959200D02*
X149569300Y-76975300D01*
X149569300Y-76975300D02*
X149860000Y-76975300D01*
X149860000Y-76200000D02*
X149860000Y-74955400D01*
X149860000Y-74955400D02*
X149072600Y-74168000D01*
G04 #@! TO.N,Net-(CMP4-Pad1)*
X140716000Y-76200000D02*
X140716000Y-76975300D01*
X137795000Y-81686400D02*
X137795000Y-80370500D01*
X137795000Y-80370500D02*
X137946200Y-80370500D01*
X137946200Y-80370500D02*
X139441400Y-78875300D01*
X139441400Y-78875300D02*
X139441400Y-77959200D01*
X139441400Y-77959200D02*
X140425300Y-76975300D01*
X140425300Y-76975300D02*
X140716000Y-76975300D01*
X140716000Y-76200000D02*
X140716000Y-74447400D01*
X140716000Y-74447400D02*
X140436600Y-74168000D01*
G04 #@! TO.N,Net-(CMP4-Pad2)*
X140716000Y-78232000D02*
X140716000Y-79007300D01*
X139065000Y-81686400D02*
X139065000Y-80370500D01*
X139065000Y-80370500D02*
X140428200Y-79007300D01*
X140428200Y-79007300D02*
X140716000Y-79007300D01*
X140716000Y-78232000D02*
X140716000Y-77456700D01*
X140436600Y-72898000D02*
X141790600Y-72898000D01*
X141790600Y-72898000D02*
X141790600Y-74706200D01*
X141790600Y-74706200D02*
X141698600Y-74798200D01*
X141698600Y-74798200D02*
X141698600Y-76764800D01*
X141698600Y-76764800D02*
X141006700Y-77456700D01*
X141006700Y-77456700D02*
X140716000Y-77456700D01*
G04 #@! TO.N,Net-(CMP4-Pad5)*
X140436600Y-69088000D02*
X139082600Y-69088000D01*
X127000000Y-57150000D02*
X125889400Y-58260600D01*
X125889400Y-58260600D02*
X125889400Y-62602500D01*
X125889400Y-62602500D02*
X134277900Y-70991000D01*
X134277900Y-70991000D02*
X137179600Y-70991000D01*
X137179600Y-70991000D02*
X139082600Y-69088000D01*
G04 #@! TO.N,Net-(CMP4-Pad7)*
X140436600Y-66548000D02*
X139082600Y-66548000D01*
X127000000Y-52070000D02*
X128047600Y-51022400D01*
X128047600Y-51022400D02*
X129975700Y-51022400D01*
X129975700Y-51022400D02*
X135665400Y-56712100D01*
X135665400Y-56712100D02*
X135665400Y-63130800D01*
X135665400Y-63130800D02*
X139082600Y-66548000D01*
G04 #@! TO.N,Net-(CMP4-Pad13)*
X134221800Y-77456700D02*
X134028000Y-77456700D01*
X136990000Y-72898000D02*
X136990000Y-74623600D01*
X136990000Y-74623600D02*
X136815400Y-74798200D01*
X136815400Y-74798200D02*
X136016900Y-74798200D01*
X136016900Y-74798200D02*
X134934300Y-75880800D01*
X134934300Y-75880800D02*
X134934300Y-76744200D01*
X134934300Y-76744200D02*
X134221800Y-77456700D01*
X136525000Y-80370500D02*
X135165200Y-79010700D01*
X135165200Y-79010700D02*
X135165200Y-78400100D01*
X135165200Y-78400100D02*
X134221800Y-77456700D01*
X136525000Y-81686400D02*
X136525000Y-80370500D01*
X134028000Y-78232000D02*
X134028000Y-77456700D01*
X135636000Y-72898000D02*
X136990000Y-72898000D01*
G04 #@! TO.N,Net-(CMP4-Pad14)*
X133944000Y-76200000D02*
X133944000Y-76975300D01*
X135255000Y-81686400D02*
X135255000Y-80370500D01*
X135255000Y-80370500D02*
X134650300Y-80370500D01*
X134650300Y-80370500D02*
X133072900Y-78793100D01*
X133072900Y-78793100D02*
X133072900Y-77652600D01*
X133072900Y-77652600D02*
X133750200Y-76975300D01*
X133750200Y-76975300D02*
X133944000Y-76975300D01*
X135636000Y-74168000D02*
X134282000Y-74168000D01*
X133944000Y-76200000D02*
X133944000Y-75424700D01*
X133944000Y-75424700D02*
X133944000Y-74506000D01*
X133944000Y-74506000D02*
X134282000Y-74168000D01*
G04 #@! TO.N,Net-(COMM1-Pad15)*
X108585000Y-91033600D02*
X108585000Y-89433800D01*
G04 #@! TO.N,Net-(COMM1-Pad14)*
X128270000Y-86360000D02*
X132415200Y-90505200D01*
X132415200Y-90505200D02*
X132415200Y-91889900D01*
X132415200Y-91889900D02*
X134231500Y-93706200D01*
X134231500Y-93706200D02*
X141518300Y-93706200D01*
X141518300Y-93706200D02*
X142875000Y-92349500D01*
X142875000Y-91033600D02*
X142875000Y-92349500D01*
G04 #@! TO.N,Net-(COMM1-Pad13)*
X109855000Y-91033600D02*
X109855000Y-89717700D01*
X109855000Y-89717700D02*
X115235300Y-84337400D01*
X115235300Y-84337400D02*
X118519100Y-84337400D01*
X118519100Y-84337400D02*
X119684300Y-85502600D01*
X119684300Y-85502600D02*
X119684300Y-86363100D01*
G04 #@! TO.N,Net-(COMM1-Pad12)*
X128270000Y-83820000D02*
X132865500Y-88415500D01*
X132865500Y-88415500D02*
X132865500Y-91682800D01*
X132865500Y-91682800D02*
X134438600Y-93255900D01*
X134438600Y-93255900D02*
X140698600Y-93255900D01*
X140698600Y-93255900D02*
X141605000Y-92349500D01*
X141605000Y-91033600D02*
X141605000Y-92349500D01*
G04 #@! TO.N,Net-(COMM1-Pad11)*
X111125000Y-89717700D02*
X115751700Y-85091000D01*
X115751700Y-85091000D02*
X118240800Y-85091000D01*
X118240800Y-85091000D02*
X118240800Y-85090900D01*
X111125000Y-91033600D02*
X111125000Y-89717700D01*
G04 #@! TO.N,Net-(COMM1-Pad10)*
X140335000Y-91033600D02*
X140335000Y-92349500D01*
X140335000Y-92349500D02*
X139878900Y-92805600D01*
X139878900Y-92805600D02*
X135251400Y-92805600D01*
X135251400Y-92805600D02*
X134650200Y-92204400D01*
X134650200Y-92204400D02*
X134650200Y-87660200D01*
X134650200Y-87660200D02*
X128270000Y-81280000D01*
G04 #@! TO.N,Net-(COMM1-Pad9)*
X112395000Y-89717700D02*
X116295600Y-85817100D01*
X116295600Y-85817100D02*
X117378200Y-85817100D01*
X112395000Y-91033600D02*
X112395000Y-89717700D01*
X127000000Y-82550000D02*
X125730000Y-81280000D01*
X127000000Y-85090000D02*
X127000000Y-82550000D01*
G04 #@! TO.N,Net-(COMM1-Pad8)*
X139065000Y-91033600D02*
X139065000Y-88696300D01*
X139065000Y-88696300D02*
X132592700Y-82224000D01*
X132592700Y-82224000D02*
X132592700Y-81336400D01*
G04 #@! TO.N,Net-(COMM1-Pad7)*
X113665000Y-91033600D02*
X113665000Y-92349500D01*
X113665000Y-92349500D02*
X115065100Y-93749600D01*
X115065100Y-93749600D02*
X120956900Y-93749600D01*
X120956900Y-93749600D02*
X124365400Y-90341100D01*
X124365400Y-90341100D02*
X124365400Y-80104600D01*
X124365400Y-80104600D02*
X125730000Y-78740000D01*
G04 #@! TO.N,Net-(COMM1-Pad6)*
X128270000Y-76200000D02*
X130601400Y-78531400D01*
X130601400Y-78531400D02*
X130601400Y-82143400D01*
X130601400Y-82143400D02*
X135890200Y-87432200D01*
X135890200Y-87432200D02*
X135890200Y-92135500D01*
X135890200Y-92135500D02*
X136104200Y-92349500D01*
X136104200Y-92349500D02*
X137795000Y-92349500D01*
X137795000Y-91033600D02*
X137795000Y-92349500D01*
G04 #@! TO.N,Net-(COMM1-Pad5)*
X125730000Y-76200000D02*
X123177300Y-78752700D01*
X123177300Y-78752700D02*
X123177300Y-90892300D01*
X123177300Y-90892300D02*
X120776700Y-93292900D01*
X120776700Y-93292900D02*
X115878400Y-93292900D01*
X115878400Y-93292900D02*
X114935000Y-92349500D01*
X114935000Y-91033600D02*
X114935000Y-92349500D01*
G04 #@! TO.N,Net-(COMM1-Pad4)*
X128270000Y-73660000D02*
X131051700Y-76441700D01*
X131051700Y-76441700D02*
X131051700Y-81319900D01*
X131051700Y-81319900D02*
X136525000Y-86793200D01*
X136525000Y-86793200D02*
X136525000Y-89717700D01*
X136525000Y-91033600D02*
X136525000Y-89717700D01*
G04 #@! TO.N,Net-(COMM1-Pad3)*
X116205000Y-92349500D02*
X116655300Y-92799800D01*
X116655300Y-92799800D02*
X120632900Y-92799800D01*
X120632900Y-92799800D02*
X121394400Y-92038300D01*
X121394400Y-92038300D02*
X121394400Y-77995600D01*
X121394400Y-77995600D02*
X125730000Y-73660000D01*
X116205000Y-91033600D02*
X116205000Y-92349500D01*
G04 #@! TO.N,Net-(COMM1-Pad2)*
X128270000Y-71120000D02*
X127085700Y-72304300D01*
X127085700Y-72304300D02*
X127085700Y-76775300D01*
X127085700Y-76775300D02*
X127685800Y-77375400D01*
X127685800Y-77375400D02*
X128567700Y-77375400D01*
X128567700Y-77375400D02*
X130151000Y-78958700D01*
X130151000Y-78958700D02*
X130151000Y-82329900D01*
X130151000Y-82329900D02*
X135255000Y-87433900D01*
X135255000Y-87433900D02*
X135255000Y-91033600D01*
G04 #@! TO.N,Net-(COMM1-Pad1)*
X117475000Y-91033600D02*
X117475000Y-92349500D01*
X125730000Y-71120000D02*
X125730000Y-72295300D01*
X117475000Y-92349500D02*
X120446300Y-92349500D01*
X120446300Y-92349500D02*
X120867400Y-91928400D01*
X120867400Y-91928400D02*
X120867400Y-77885700D01*
X120867400Y-77885700D02*
X124554700Y-74198400D01*
X124554700Y-74198400D02*
X124554700Y-73103200D01*
X124554700Y-73103200D02*
X125362600Y-72295300D01*
X125362600Y-72295300D02*
X125730000Y-72295300D01*
G04 #@! TO.N,+3V3*
X120015000Y-89717700D02*
X120409600Y-89323100D01*
X120409600Y-89323100D02*
X120409600Y-84341600D01*
X120409600Y-84341600D02*
X120142000Y-84074000D01*
X147197400Y-78232000D02*
X147660000Y-77769400D01*
X147660000Y-77769400D02*
X147660000Y-76200000D01*
X147197400Y-78232000D02*
X146734700Y-78232000D01*
X147660000Y-78232000D02*
X147197400Y-78232000D01*
X145288000Y-78425800D02*
X146540900Y-78425800D01*
X146540900Y-78425800D02*
X146734700Y-78232000D01*
X145288000Y-78425800D02*
X145288000Y-78619600D01*
X145288000Y-78232000D02*
X145288000Y-78425800D01*
X142270200Y-80497600D02*
X142581000Y-80186800D01*
X142581000Y-80186800D02*
X143618600Y-80186800D01*
X143618600Y-80186800D02*
X145185800Y-78619600D01*
X145185800Y-78619600D02*
X145288000Y-78619600D01*
X136228000Y-79007300D02*
X137129800Y-79909100D01*
X137129800Y-79909100D02*
X137129800Y-82811800D01*
X136228000Y-78232000D02*
X136228000Y-79007300D01*
X136228000Y-77645600D02*
X136228000Y-78232000D01*
X136144000Y-76975300D02*
X136228000Y-77059300D01*
X136228000Y-77059300D02*
X136228000Y-77645600D01*
X138516000Y-77645600D02*
X138516000Y-76975300D01*
X138516000Y-78232000D02*
X138516000Y-77645600D01*
X136228000Y-77645600D02*
X138516000Y-77645600D01*
X145542000Y-81813400D02*
X145415000Y-81686400D01*
X120015000Y-91033600D02*
X120015000Y-89717700D01*
X145880000Y-94474700D02*
X145415000Y-94009700D01*
X145415000Y-94009700D02*
X145415000Y-91033600D01*
X145288000Y-76200000D02*
X145288000Y-78232000D01*
X116762700Y-78232000D02*
X116241300Y-78232000D01*
X115316000Y-78232000D02*
X116241300Y-78232000D01*
X116809800Y-83053100D02*
X116809800Y-79054400D01*
X116809800Y-79054400D02*
X116762700Y-79007300D01*
X116762700Y-79007300D02*
X116762700Y-78232000D01*
X108544000Y-79007300D02*
X109956200Y-79007300D01*
X109956200Y-79007300D02*
X111319400Y-80370500D01*
X111319400Y-80370500D02*
X111539200Y-80370500D01*
X111539200Y-80370500D02*
X111759200Y-80590500D01*
X111759200Y-80590500D02*
X111759200Y-82788200D01*
X111759200Y-82788200D02*
X112024100Y-83053100D01*
X112024100Y-83053100D02*
X116809800Y-83053100D01*
X120142000Y-83525600D02*
X120142000Y-81813400D01*
X120142000Y-81813400D02*
X120015000Y-81686400D01*
X115316000Y-78232000D02*
X115316000Y-76200000D01*
X117688000Y-78232000D02*
X116762700Y-78232000D01*
X117688000Y-78232000D02*
X117688000Y-76200000D01*
X106172000Y-76200000D02*
X106172000Y-78232000D01*
X106172000Y-78232000D02*
X107097300Y-78232000D01*
X108544000Y-78619600D02*
X107484900Y-78619600D01*
X107484900Y-78619600D02*
X107097300Y-78232000D01*
X108544000Y-78619600D02*
X108544000Y-79007300D01*
X108544000Y-78232000D02*
X108544000Y-78619600D01*
X108544000Y-76200000D02*
X108544000Y-78232000D01*
X138516000Y-76200000D02*
X138516000Y-76975300D01*
X136144000Y-76200000D02*
X136144000Y-76975300D01*
X145880000Y-95250000D02*
X145880000Y-94474700D01*
X145880000Y-95250000D02*
X145880000Y-96025300D01*
X146010000Y-104140000D02*
X146010000Y-96155300D01*
X146010000Y-96155300D02*
X145880000Y-96025300D01*
D21*
X146010000Y-113030000D02*
X146010000Y-104140000D01*
D20*
X145415000Y-90322400D02*
X143992600Y-88900000D01*
X145415000Y-91033600D02*
X145415000Y-90322400D01*
X139905110Y-88900000D02*
X137160000Y-86154890D01*
X143992600Y-88900000D02*
X139905110Y-88900000D01*
X137160000Y-82842000D02*
X137320300Y-83002300D01*
X137129800Y-82811800D02*
X137160000Y-82842000D01*
X145415000Y-80823700D02*
X146050000Y-80188700D01*
X145415000Y-81686400D02*
X145415000Y-80823700D01*
X137320300Y-83002300D02*
X142270200Y-83002300D01*
X142270200Y-83002300D02*
X142270200Y-80497600D01*
X137160000Y-83820000D02*
X137160000Y-82842000D01*
X137160000Y-86154890D02*
X137160000Y-83820000D01*
X135890000Y-83820000D02*
X137160000Y-83820000D01*
X119432319Y-83695022D02*
X120017022Y-83695022D01*
X120017022Y-83695022D02*
X120142000Y-83820000D01*
X120142000Y-83820000D02*
X120142000Y-83525600D01*
X120142000Y-84074000D02*
X120142000Y-83820000D01*
X117531312Y-83695022D02*
X116889390Y-83053100D01*
X116889390Y-83053100D02*
X116809800Y-83053100D01*
X119432319Y-83695022D02*
X117531312Y-83695022D01*
G04 #@! TO.N,Net-(R1-Pad2)*
X116840000Y-95250000D02*
X115664700Y-95250000D01*
X115664700Y-95250000D02*
X113060200Y-92645500D01*
X113060200Y-92645500D02*
X113060200Y-89903400D01*
X113060200Y-89903400D02*
X113245900Y-89717700D01*
X113245900Y-89717700D02*
X118745000Y-89717700D01*
X116840000Y-97790000D02*
X116840000Y-95250000D01*
X118745000Y-91033600D02*
X118745000Y-89717700D01*
X116840000Y-114243600D02*
X116840000Y-115570000D01*
X116840000Y-113030000D02*
X116840000Y-114243600D01*
X137160000Y-96025300D02*
X137160000Y-95250000D01*
X137160000Y-97790000D02*
X137160000Y-96025300D01*
X137160000Y-96025300D02*
X143680000Y-96025300D01*
X143680000Y-95250000D02*
X143680000Y-96025300D01*
X137160000Y-100330000D02*
X137160000Y-97790000D01*
X143680000Y-95250000D02*
X143680000Y-94474700D01*
X144145000Y-91033600D02*
X144145000Y-94009700D01*
X144145000Y-94009700D02*
X143680000Y-94474700D01*
X137160000Y-110490000D02*
X137160000Y-113030000D01*
X137160000Y-107950000D02*
X137160000Y-110490000D01*
X137160000Y-105410000D02*
X137160000Y-107950000D01*
X137160000Y-102870000D02*
X137160000Y-105410000D01*
X137160000Y-100330000D02*
X137160000Y-102870000D01*
X116840000Y-110490000D02*
X116840000Y-113030000D01*
X116840000Y-107950000D02*
X116840000Y-110490000D01*
X116840000Y-105410000D02*
X116840000Y-107950000D01*
X116840000Y-102870000D02*
X116840000Y-105410000D01*
X116840000Y-100330000D02*
X116840000Y-102870000D01*
X116840000Y-97790000D02*
X116840000Y-100330000D01*
X137160000Y-114232081D02*
X137160000Y-115570000D01*
X137160000Y-113030000D02*
X137160000Y-114232081D01*
X137148481Y-114243600D02*
X137160000Y-114232081D01*
X135890000Y-114300000D02*
X136310001Y-113879999D01*
X136310001Y-113879999D02*
X137160000Y-113030000D01*
X118110000Y-114300000D02*
X135890000Y-114300000D01*
X116840000Y-113030000D02*
X118110000Y-114300000D01*
G04 #@! TO.N,Net-(CMP4-Pad10)*
X125730000Y-47625000D02*
X125730000Y-46849700D01*
X127000000Y-44450000D02*
X127000000Y-45625300D01*
X125730000Y-46849700D02*
X125775600Y-46849700D01*
X125775600Y-46849700D02*
X127000000Y-45625300D01*
X134282000Y-69088000D02*
X128494600Y-63300600D01*
X128494600Y-63300600D02*
X128494600Y-57150000D01*
X128494600Y-57150000D02*
X125730000Y-54385400D01*
X125730000Y-54385400D02*
X125730000Y-47625000D01*
X140436600Y-70358000D02*
X141790600Y-70358000D01*
X140436600Y-67818000D02*
X141790600Y-67818000D01*
X141790600Y-67818000D02*
X141790600Y-70358000D01*
X139872200Y-67818000D02*
X140436600Y-67818000D01*
X139872200Y-67818000D02*
X139082600Y-67818000D01*
X135636000Y-69088000D02*
X134282000Y-69088000D01*
X136313000Y-69088000D02*
X135636000Y-69088000D01*
X136313000Y-69088000D02*
X136990000Y-69088000D01*
X139082600Y-67818000D02*
X137812600Y-69088000D01*
X137812600Y-69088000D02*
X136990000Y-69088000D01*
G04 #@! TO.N,Net-(CMP4-Pad11)*
X135636000Y-70358000D02*
X134282000Y-70358000D01*
X127000000Y-62230000D02*
X127000000Y-63076000D01*
X127000000Y-63076000D02*
X134282000Y-70358000D01*
G04 #@! TD*
D22*
G04 #@! TO.N,GND*
G36*
X115749171Y-42712871D02*
X115706771Y-42776327D01*
X115210629Y-43272469D01*
X114879418Y-43051161D01*
X114446256Y-42965000D01*
X114153744Y-42965000D01*
X113720582Y-43051161D01*
X113229375Y-43379375D01*
X112901161Y-43870582D01*
X112785908Y-44450000D01*
X112901161Y-45029418D01*
X113229375Y-45520625D01*
X113720582Y-45848839D01*
X113784037Y-45861461D01*
X110375630Y-49269869D01*
X110312171Y-49312271D01*
X110144196Y-49563664D01*
X110100100Y-49785349D01*
X110100100Y-49785353D01*
X110085212Y-49860200D01*
X110100100Y-49935047D01*
X110100100Y-51033840D01*
X109987546Y-50921286D01*
X109489526Y-50715000D01*
X108950474Y-50715000D01*
X108452454Y-50921286D01*
X108071286Y-51302454D01*
X107950000Y-51595265D01*
X107828714Y-51302454D01*
X107447546Y-50921286D01*
X106949526Y-50715000D01*
X106410474Y-50715000D01*
X105912454Y-50921286D01*
X105531286Y-51302454D01*
X105416675Y-51579151D01*
X105327611Y-51364131D01*
X105089774Y-51299831D01*
X104319605Y-52070000D01*
X105089774Y-52840169D01*
X105327611Y-52775869D01*
X105409649Y-52543886D01*
X105531286Y-52837546D01*
X105912454Y-53218714D01*
X106410474Y-53425000D01*
X106949526Y-53425000D01*
X107447546Y-53218714D01*
X107828714Y-52837546D01*
X107950000Y-52544735D01*
X108071286Y-52837546D01*
X108452454Y-53218714D01*
X108460001Y-53221840D01*
X108460000Y-55998160D01*
X108452454Y-56001286D01*
X108071286Y-56382454D01*
X107950000Y-56675265D01*
X107828714Y-56382454D01*
X107447546Y-56001286D01*
X106949526Y-55795000D01*
X106410474Y-55795000D01*
X105912454Y-56001286D01*
X105531286Y-56382454D01*
X105416675Y-56659151D01*
X105327611Y-56444131D01*
X105089774Y-56379831D01*
X104319605Y-57150000D01*
X105089774Y-57920169D01*
X105327611Y-57855869D01*
X105409649Y-57623886D01*
X105531286Y-57917546D01*
X105912454Y-58298714D01*
X106410474Y-58505000D01*
X106949526Y-58505000D01*
X107447546Y-58298714D01*
X107828714Y-57917546D01*
X107950000Y-57624735D01*
X108071286Y-57917546D01*
X108452454Y-58298714D01*
X108471073Y-58306426D01*
X107622899Y-59154600D01*
X107538446Y-59154600D01*
X107463599Y-59139712D01*
X107388752Y-59154600D01*
X107388748Y-59154600D01*
X107167063Y-59198696D01*
X106915671Y-59366671D01*
X106873271Y-59430127D01*
X105131730Y-61171669D01*
X105071917Y-61211635D01*
X105025337Y-61165055D01*
X104910168Y-61280224D01*
X104845869Y-61042389D01*
X104337658Y-60862667D01*
X103799356Y-60891108D01*
X103434131Y-61042389D01*
X103369831Y-61280226D01*
X104140000Y-62050395D01*
X104154143Y-62036253D01*
X104333748Y-62215858D01*
X104319605Y-62230000D01*
X104333748Y-62244143D01*
X104154143Y-62423748D01*
X104140000Y-62409605D01*
X103369831Y-63179774D01*
X103434131Y-63417611D01*
X103942342Y-63597333D01*
X104480644Y-63568892D01*
X104845869Y-63417611D01*
X104856200Y-63379396D01*
X104856201Y-64949248D01*
X104841312Y-65024100D01*
X104900297Y-65320637D01*
X105000948Y-65471271D01*
X105068272Y-65572029D01*
X105103788Y-65595760D01*
X104127300Y-65595760D01*
X103879535Y-65645043D01*
X103669491Y-65785391D01*
X103658643Y-65801627D01*
X103505463Y-65832096D01*
X103254071Y-66000071D01*
X103086096Y-66251463D01*
X103027111Y-66548000D01*
X103042001Y-66622857D01*
X103042000Y-69013148D01*
X103027111Y-69088000D01*
X103086096Y-69384537D01*
X103181379Y-69527138D01*
X103254071Y-69635929D01*
X103505463Y-69803904D01*
X103528535Y-69808493D01*
X103479860Y-70053200D01*
X103479860Y-70662800D01*
X103529143Y-70910565D01*
X103579613Y-70986098D01*
X103492300Y-71196890D01*
X103492300Y-71342250D01*
X103651050Y-71501000D01*
X105029000Y-71501000D01*
X105029000Y-71481000D01*
X105283000Y-71481000D01*
X105283000Y-71775000D01*
X105029000Y-71775000D01*
X105029000Y-71755000D01*
X103651050Y-71755000D01*
X103492300Y-71913750D01*
X103492300Y-72059110D01*
X103540367Y-72175153D01*
X103505463Y-72182096D01*
X103254071Y-72350071D01*
X103086096Y-72601463D01*
X103027111Y-72898000D01*
X103042001Y-72972857D01*
X103042000Y-75179853D01*
X103035820Y-75210920D01*
X102914191Y-75292191D01*
X102773843Y-75502235D01*
X102724560Y-75750000D01*
X102724560Y-76650000D01*
X102758943Y-76822856D01*
X102538830Y-77042969D01*
X102475371Y-77085371D01*
X102307396Y-77336764D01*
X102263300Y-77558449D01*
X102263300Y-77558453D01*
X102248412Y-77633300D01*
X102263300Y-77708147D01*
X102263301Y-78843451D01*
X102248412Y-78918302D01*
X102263301Y-78993154D01*
X102264180Y-78997571D01*
X102307397Y-79214839D01*
X102427435Y-79394488D01*
X102475372Y-79466231D01*
X102528541Y-79501758D01*
X102564070Y-79554930D01*
X102815462Y-79722905D01*
X103037147Y-79767001D01*
X103037151Y-79767001D01*
X103111998Y-79781889D01*
X103186845Y-79767001D01*
X104092200Y-79767001D01*
X104819670Y-80494472D01*
X104862071Y-80557929D01*
X104925527Y-80600329D01*
X105113462Y-80725904D01*
X105157829Y-80734729D01*
X105335148Y-80770000D01*
X105335152Y-80770000D01*
X105410000Y-80784888D01*
X105468034Y-80773345D01*
X105549659Y-80854970D01*
X105592061Y-80918429D01*
X105843453Y-81086404D01*
X106065138Y-81130500D01*
X106065143Y-81130500D01*
X106139990Y-81145388D01*
X106214837Y-81130500D01*
X107670600Y-81130500D01*
X107670600Y-81400650D01*
X107829350Y-81559400D01*
X108458000Y-81559400D01*
X108458000Y-81539400D01*
X108460000Y-81539400D01*
X108460001Y-82765748D01*
X108458000Y-82775808D01*
X108458000Y-81813400D01*
X107829350Y-81813400D01*
X107670600Y-81972150D01*
X107670600Y-82803309D01*
X107767273Y-83036698D01*
X107945901Y-83215327D01*
X108179290Y-83312000D01*
X108299250Y-83312000D01*
X108458000Y-83153250D01*
X108458000Y-82905392D01*
X108504097Y-83137137D01*
X108612142Y-83298837D01*
X108672072Y-83388529D01*
X108735527Y-83430928D01*
X108791370Y-83486772D01*
X108833771Y-83550229D01*
X109085163Y-83718204D01*
X109306848Y-83762300D01*
X109306852Y-83762300D01*
X109381699Y-83777188D01*
X109456546Y-83762300D01*
X111050148Y-83762300D01*
X111125000Y-83777189D01*
X111199852Y-83762300D01*
X111421537Y-83718204D01*
X111536536Y-83641364D01*
X111727563Y-83769004D01*
X111949248Y-83813100D01*
X111949252Y-83813100D01*
X112024099Y-83827988D01*
X112098946Y-83813100D01*
X114671583Y-83813100D01*
X114644971Y-83852927D01*
X109517480Y-88980419D01*
X109462431Y-88847520D01*
X109171280Y-88556369D01*
X108790874Y-88398800D01*
X108379126Y-88398800D01*
X107998720Y-88556369D01*
X107707569Y-88847520D01*
X107550000Y-89227926D01*
X107550000Y-89639674D01*
X107677269Y-89946930D01*
X107658160Y-90043000D01*
X107658160Y-92024200D01*
X107707443Y-92271965D01*
X107847791Y-92482009D01*
X108057835Y-92622357D01*
X108305600Y-92671640D01*
X108864400Y-92671640D01*
X109112165Y-92622357D01*
X109220000Y-92550303D01*
X109327835Y-92622357D01*
X109575600Y-92671640D01*
X110134400Y-92671640D01*
X110382165Y-92622357D01*
X110490000Y-92550303D01*
X110597835Y-92622357D01*
X110845600Y-92671640D01*
X111404400Y-92671640D01*
X111652165Y-92622357D01*
X111760000Y-92550303D01*
X111867835Y-92622357D01*
X112115600Y-92671640D01*
X112290512Y-92671640D01*
X112300200Y-92720347D01*
X112300200Y-92720351D01*
X112344296Y-92942036D01*
X112512271Y-93193429D01*
X112575730Y-93235831D01*
X115074371Y-95734473D01*
X115116771Y-95797929D01*
X115342560Y-95948797D01*
X115342560Y-96100000D01*
X115391843Y-96347765D01*
X115532191Y-96557809D01*
X115742235Y-96698157D01*
X115787619Y-96707184D01*
X115769375Y-96719375D01*
X115441161Y-97210582D01*
X115325908Y-97790000D01*
X115441161Y-98369418D01*
X115769375Y-98860625D01*
X116067761Y-99060000D01*
X115769375Y-99259375D01*
X115441161Y-99750582D01*
X115325908Y-100330000D01*
X115441161Y-100909418D01*
X115769375Y-101400625D01*
X116067761Y-101600000D01*
X115769375Y-101799375D01*
X115441161Y-102290582D01*
X115325908Y-102870000D01*
X115441161Y-103449418D01*
X115769375Y-103940625D01*
X116067761Y-104140000D01*
X115769375Y-104339375D01*
X115441161Y-104830582D01*
X115325908Y-105410000D01*
X115441161Y-105989418D01*
X115769375Y-106480625D01*
X116067761Y-106680000D01*
X115769375Y-106879375D01*
X115441161Y-107370582D01*
X115325908Y-107950000D01*
X115441161Y-108529418D01*
X115769375Y-109020625D01*
X116067761Y-109220000D01*
X115769375Y-109419375D01*
X115441161Y-109910582D01*
X115325908Y-110490000D01*
X115441161Y-111069418D01*
X115769375Y-111560625D01*
X116067761Y-111760000D01*
X115769375Y-111959375D01*
X115441161Y-112450582D01*
X115325908Y-113030000D01*
X115441161Y-113609418D01*
X115769375Y-114100625D01*
X116067761Y-114300000D01*
X115769375Y-114499375D01*
X115441161Y-114990582D01*
X115325908Y-115570000D01*
X115441161Y-116149418D01*
X115769375Y-116640625D01*
X116260582Y-116968839D01*
X116693744Y-117055000D01*
X116986256Y-117055000D01*
X117419418Y-116968839D01*
X117910625Y-116640625D01*
X118110000Y-116342239D01*
X118309375Y-116640625D01*
X118800582Y-116968839D01*
X119233744Y-117055000D01*
X119526256Y-117055000D01*
X119959418Y-116968839D01*
X120450625Y-116640625D01*
X120778839Y-116149418D01*
X120894092Y-115570000D01*
X120792647Y-115060000D01*
X133207353Y-115060000D01*
X133105908Y-115570000D01*
X133221161Y-116149418D01*
X133549375Y-116640625D01*
X134040582Y-116968839D01*
X134473744Y-117055000D01*
X134766256Y-117055000D01*
X135199418Y-116968839D01*
X135690625Y-116640625D01*
X135890000Y-116342239D01*
X136089375Y-116640625D01*
X136580582Y-116968839D01*
X137013744Y-117055000D01*
X137306256Y-117055000D01*
X137739418Y-116968839D01*
X138230625Y-116640625D01*
X138558839Y-116149418D01*
X138674092Y-115570000D01*
X138558839Y-114990582D01*
X138230625Y-114499375D01*
X137932239Y-114300000D01*
X138230625Y-114100625D01*
X138558839Y-113609418D01*
X138617252Y-113315750D01*
X142000000Y-113315750D01*
X142000000Y-114031310D01*
X142096673Y-114264699D01*
X142275302Y-114443327D01*
X142508691Y-114540000D01*
X143224250Y-114540000D01*
X143383000Y-114381250D01*
X143383000Y-113157000D01*
X142158750Y-113157000D01*
X142000000Y-113315750D01*
X138617252Y-113315750D01*
X138674092Y-113030000D01*
X138558839Y-112450582D01*
X138276940Y-112028690D01*
X142000000Y-112028690D01*
X142000000Y-112744250D01*
X142158750Y-112903000D01*
X143383000Y-112903000D01*
X143383000Y-111678750D01*
X143224250Y-111520000D01*
X142508691Y-111520000D01*
X142275302Y-111616673D01*
X142096673Y-111795301D01*
X142000000Y-112028690D01*
X138276940Y-112028690D01*
X138230625Y-111959375D01*
X137932239Y-111760000D01*
X138230625Y-111560625D01*
X138558839Y-111069418D01*
X138674092Y-110490000D01*
X138558839Y-109910582D01*
X138230625Y-109419375D01*
X137932239Y-109220000D01*
X138230625Y-109020625D01*
X138558839Y-108529418D01*
X138674092Y-107950000D01*
X138558839Y-107370582D01*
X138230625Y-106879375D01*
X137932239Y-106680000D01*
X138230625Y-106480625D01*
X138558839Y-105989418D01*
X138674092Y-105410000D01*
X138558839Y-104830582D01*
X138288339Y-104425750D01*
X142000000Y-104425750D01*
X142000000Y-105141310D01*
X142096673Y-105374699D01*
X142275302Y-105553327D01*
X142508691Y-105650000D01*
X143224250Y-105650000D01*
X143383000Y-105491250D01*
X143383000Y-104267000D01*
X142158750Y-104267000D01*
X142000000Y-104425750D01*
X138288339Y-104425750D01*
X138230625Y-104339375D01*
X137932239Y-104140000D01*
X138230625Y-103940625D01*
X138558839Y-103449418D01*
X138620646Y-103138690D01*
X142000000Y-103138690D01*
X142000000Y-103854250D01*
X142158750Y-104013000D01*
X143383000Y-104013000D01*
X143383000Y-102788750D01*
X143224250Y-102630000D01*
X142508691Y-102630000D01*
X142275302Y-102726673D01*
X142096673Y-102905301D01*
X142000000Y-103138690D01*
X138620646Y-103138690D01*
X138674092Y-102870000D01*
X138558839Y-102290582D01*
X138230625Y-101799375D01*
X137932239Y-101600000D01*
X138230625Y-101400625D01*
X138558839Y-100909418D01*
X138674092Y-100330000D01*
X138558839Y-99750582D01*
X138230625Y-99259375D01*
X137932239Y-99060000D01*
X138230625Y-98860625D01*
X138558839Y-98369418D01*
X138674092Y-97790000D01*
X138558839Y-97210582D01*
X138274675Y-96785300D01*
X143605148Y-96785300D01*
X143680000Y-96800189D01*
X143976537Y-96741204D01*
X144227929Y-96573229D01*
X144393940Y-96324776D01*
X144527765Y-96298157D01*
X144737809Y-96157809D01*
X144780000Y-96094666D01*
X144822191Y-96157809D01*
X145032235Y-96298157D01*
X145166061Y-96324776D01*
X145250001Y-96450401D01*
X145250000Y-102820390D01*
X145154654Y-102859884D01*
X144977779Y-103036759D01*
X144923327Y-102905301D01*
X144744698Y-102726673D01*
X144511309Y-102630000D01*
X143795750Y-102630000D01*
X143637000Y-102788750D01*
X143637000Y-104013000D01*
X143657000Y-104013000D01*
X143657000Y-104267000D01*
X143637000Y-104267000D01*
X143637000Y-105491250D01*
X143795750Y-105650000D01*
X144511309Y-105650000D01*
X144744698Y-105553327D01*
X144875001Y-105423025D01*
X144875000Y-111746974D01*
X144744698Y-111616673D01*
X144511309Y-111520000D01*
X143795750Y-111520000D01*
X143637000Y-111678750D01*
X143637000Y-112903000D01*
X143657000Y-112903000D01*
X143657000Y-113157000D01*
X143637000Y-113157000D01*
X143637000Y-114381250D01*
X143795750Y-114540000D01*
X144511309Y-114540000D01*
X144744698Y-114443327D01*
X144923327Y-114264699D01*
X144977779Y-114133241D01*
X145154654Y-114310116D01*
X145709642Y-114540000D01*
X146310358Y-114540000D01*
X146865346Y-114310116D01*
X147260000Y-113915462D01*
X147654654Y-114310116D01*
X148209642Y-114540000D01*
X148810358Y-114540000D01*
X149365346Y-114310116D01*
X149790116Y-113885346D01*
X150020000Y-113330358D01*
X150020000Y-112729642D01*
X149790116Y-112174654D01*
X149645000Y-112029538D01*
X149645000Y-105140462D01*
X149790116Y-104995346D01*
X150020000Y-104440358D01*
X150020000Y-103839642D01*
X149790116Y-103284654D01*
X149365346Y-102859884D01*
X148810358Y-102630000D01*
X148209642Y-102630000D01*
X147654654Y-102859884D01*
X147260000Y-103254538D01*
X146865346Y-102859884D01*
X146770000Y-102820390D01*
X146770000Y-96269936D01*
X146937809Y-96157809D01*
X147078157Y-95947765D01*
X147127440Y-95700000D01*
X147127440Y-94800000D01*
X147078157Y-94552235D01*
X146937809Y-94342191D01*
X146727765Y-94201843D01*
X146593940Y-94175224D01*
X146427929Y-93926771D01*
X146364472Y-93884371D01*
X146175000Y-93694899D01*
X146175000Y-92447900D01*
X146292557Y-92271965D01*
X146341840Y-92024200D01*
X146341840Y-90043000D01*
X146292557Y-89795235D01*
X146152209Y-89585191D01*
X145942165Y-89444843D01*
X145694400Y-89395560D01*
X145562962Y-89395560D01*
X144582931Y-88415530D01*
X144540529Y-88352071D01*
X144289137Y-88184096D01*
X144067452Y-88140000D01*
X144067447Y-88140000D01*
X143992600Y-88125112D01*
X143917753Y-88140000D01*
X140219912Y-88140000D01*
X137920000Y-85840089D01*
X137920000Y-83894851D01*
X137934889Y-83820000D01*
X137923412Y-83762300D01*
X142195348Y-83762300D01*
X142270200Y-83777189D01*
X142345052Y-83762300D01*
X142566737Y-83718204D01*
X142572600Y-83714286D01*
X142578463Y-83718204D01*
X142800148Y-83762300D01*
X142875000Y-83777189D01*
X142949852Y-83762300D01*
X145879255Y-83762300D01*
X145954102Y-83777188D01*
X146028949Y-83762300D01*
X146028954Y-83762300D01*
X146250639Y-83718204D01*
X146502031Y-83550229D01*
X146540442Y-83492742D01*
X146597929Y-83454331D01*
X146650648Y-83375431D01*
X147625000Y-83375431D01*
X147625000Y-84264569D01*
X147965259Y-85086026D01*
X148593974Y-85714741D01*
X149415431Y-86055000D01*
X150304569Y-86055000D01*
X151126026Y-85714741D01*
X151754741Y-85086026D01*
X152095000Y-84264569D01*
X152095000Y-83375431D01*
X151754741Y-82553974D01*
X151126026Y-81925259D01*
X150304569Y-81585000D01*
X149415431Y-81585000D01*
X148593974Y-81925259D01*
X147965259Y-82553974D01*
X147625000Y-83375431D01*
X146650648Y-83375431D01*
X146765904Y-83202939D01*
X146810000Y-82981254D01*
X146810000Y-82981250D01*
X146824888Y-82906403D01*
X146810000Y-82831556D01*
X146810000Y-81594801D01*
X147274302Y-81130500D01*
X148421953Y-81130500D01*
X148496800Y-81145388D01*
X148571647Y-81130500D01*
X148571652Y-81130500D01*
X148793337Y-81086404D01*
X149044729Y-80918429D01*
X149087131Y-80854970D01*
X150344473Y-79597629D01*
X150407929Y-79555229D01*
X150573940Y-79306776D01*
X150707765Y-79280157D01*
X150917809Y-79139809D01*
X151058157Y-78929765D01*
X151107440Y-78682000D01*
X151107440Y-77782000D01*
X151073057Y-77609145D01*
X151269876Y-77412327D01*
X151333329Y-77369929D01*
X151375727Y-77306476D01*
X151375729Y-77306474D01*
X151482773Y-77146271D01*
X151501304Y-77118537D01*
X151545400Y-76896852D01*
X151545400Y-76896848D01*
X151560288Y-76822001D01*
X151545400Y-76747154D01*
X151545400Y-73331648D01*
X151560288Y-73256800D01*
X151545400Y-73181952D01*
X151545400Y-73181948D01*
X151501304Y-72960263D01*
X151501304Y-72960262D01*
X151409687Y-72823149D01*
X151333329Y-72708871D01*
X151269870Y-72666469D01*
X151016931Y-72413530D01*
X150974529Y-72350071D01*
X150723137Y-72182096D01*
X150700065Y-72177507D01*
X150748740Y-71932800D01*
X150748740Y-71323200D01*
X150699457Y-71075435D01*
X150644375Y-70993000D01*
X150699457Y-70910565D01*
X150748740Y-70662800D01*
X150748740Y-70053200D01*
X150699457Y-69805435D01*
X150644375Y-69723000D01*
X150699457Y-69640565D01*
X150748740Y-69392800D01*
X150748740Y-68783200D01*
X150700065Y-68538493D01*
X150723137Y-68533904D01*
X150974529Y-68365929D01*
X151016930Y-68302471D01*
X151570475Y-67748928D01*
X151633929Y-67706529D01*
X151676327Y-67643076D01*
X151676329Y-67643074D01*
X151801903Y-67455138D01*
X151801904Y-67455137D01*
X151846000Y-67233452D01*
X151846000Y-67233448D01*
X151860888Y-67158601D01*
X151846000Y-67083754D01*
X151846000Y-43532848D01*
X151860888Y-43458000D01*
X151846000Y-43383152D01*
X151846000Y-43383148D01*
X151801904Y-43161463D01*
X151633929Y-42910071D01*
X151570470Y-42867669D01*
X151492931Y-42790130D01*
X151450529Y-42726671D01*
X151253470Y-42595000D01*
X152985000Y-42595000D01*
X152985001Y-117425000D01*
X101015000Y-117425000D01*
X101015000Y-83375431D01*
X101905000Y-83375431D01*
X101905000Y-84264569D01*
X102245259Y-85086026D01*
X102873974Y-85714741D01*
X103695431Y-86055000D01*
X104584569Y-86055000D01*
X105406026Y-85714741D01*
X106034741Y-85086026D01*
X106375000Y-84264569D01*
X106375000Y-83375431D01*
X106034741Y-82553974D01*
X105406026Y-81925259D01*
X104584569Y-81585000D01*
X103695431Y-81585000D01*
X102873974Y-81925259D01*
X102245259Y-82553974D01*
X101905000Y-83375431D01*
X101015000Y-83375431D01*
X101015000Y-62032342D01*
X102772667Y-62032342D01*
X102801108Y-62570644D01*
X102952389Y-62935869D01*
X103190226Y-63000169D01*
X103960395Y-62230000D01*
X103190226Y-61459831D01*
X102952389Y-61524131D01*
X102772667Y-62032342D01*
X101015000Y-62032342D01*
X101015000Y-58099774D01*
X103369831Y-58099774D01*
X103434131Y-58337611D01*
X103942342Y-58517333D01*
X104480644Y-58488892D01*
X104845869Y-58337611D01*
X104910169Y-58099774D01*
X104140000Y-57329605D01*
X103369831Y-58099774D01*
X101015000Y-58099774D01*
X101015000Y-56952342D01*
X102772667Y-56952342D01*
X102801108Y-57490644D01*
X102952389Y-57855869D01*
X103190226Y-57920169D01*
X103960395Y-57150000D01*
X103190226Y-56379831D01*
X102952389Y-56444131D01*
X102772667Y-56952342D01*
X101015000Y-56952342D01*
X101015000Y-56200226D01*
X103369831Y-56200226D01*
X104140000Y-56970395D01*
X104910169Y-56200226D01*
X104845869Y-55962389D01*
X104337658Y-55782667D01*
X103799356Y-55811108D01*
X103434131Y-55962389D01*
X103369831Y-56200226D01*
X101015000Y-56200226D01*
X101015000Y-53019774D01*
X103369831Y-53019774D01*
X103434131Y-53257611D01*
X103942342Y-53437333D01*
X104480644Y-53408892D01*
X104845869Y-53257611D01*
X104910169Y-53019774D01*
X104140000Y-52249605D01*
X103369831Y-53019774D01*
X101015000Y-53019774D01*
X101015000Y-51872342D01*
X102772667Y-51872342D01*
X102801108Y-52410644D01*
X102952389Y-52775869D01*
X103190226Y-52840169D01*
X103960395Y-52070000D01*
X103190226Y-51299831D01*
X102952389Y-51364131D01*
X102772667Y-51872342D01*
X101015000Y-51872342D01*
X101015000Y-51120226D01*
X103369831Y-51120226D01*
X104140000Y-51890395D01*
X104910169Y-51120226D01*
X104845869Y-50882389D01*
X104337658Y-50702667D01*
X103799356Y-50731108D01*
X103434131Y-50882389D01*
X103369831Y-51120226D01*
X101015000Y-51120226D01*
X101015000Y-44450000D01*
X102625908Y-44450000D01*
X102741161Y-45029418D01*
X103069375Y-45520625D01*
X103560582Y-45848839D01*
X103993744Y-45935000D01*
X104286256Y-45935000D01*
X104719418Y-45848839D01*
X105210625Y-45520625D01*
X105410000Y-45222239D01*
X105609375Y-45520625D01*
X105669619Y-45560879D01*
X105095528Y-46134971D01*
X105032072Y-46177371D01*
X104989672Y-46240827D01*
X104989671Y-46240828D01*
X104864097Y-46428763D01*
X104838861Y-46555634D01*
X104732235Y-46576843D01*
X104522191Y-46717191D01*
X104381843Y-46927235D01*
X104332560Y-47175000D01*
X104332560Y-48075000D01*
X104381843Y-48322765D01*
X104522191Y-48532809D01*
X104732235Y-48673157D01*
X104980000Y-48722440D01*
X106180000Y-48722440D01*
X106427765Y-48673157D01*
X106637809Y-48532809D01*
X106678654Y-48471680D01*
X106820302Y-48613327D01*
X107053691Y-48710000D01*
X107494250Y-48710000D01*
X107653000Y-48551250D01*
X107653000Y-47752000D01*
X107907000Y-47752000D01*
X107907000Y-48551250D01*
X108065750Y-48710000D01*
X108506309Y-48710000D01*
X108739698Y-48613327D01*
X108918327Y-48434699D01*
X109015000Y-48201310D01*
X109015000Y-47910750D01*
X108856250Y-47752000D01*
X107907000Y-47752000D01*
X107653000Y-47752000D01*
X107633000Y-47752000D01*
X107633000Y-47498000D01*
X107653000Y-47498000D01*
X107653000Y-46698750D01*
X107907000Y-46698750D01*
X107907000Y-47498000D01*
X108856250Y-47498000D01*
X109015000Y-47339250D01*
X109015000Y-47048690D01*
X108918327Y-46815301D01*
X108739698Y-46636673D01*
X108506309Y-46540000D01*
X108065750Y-46540000D01*
X107907000Y-46698750D01*
X107653000Y-46698750D01*
X107494250Y-46540000D01*
X107053691Y-46540000D01*
X106820302Y-46636673D01*
X106678654Y-46778320D01*
X106647863Y-46732238D01*
X107164473Y-46215629D01*
X107227929Y-46173229D01*
X107395904Y-45921837D01*
X107433571Y-45732474D01*
X107750625Y-45520625D01*
X107765096Y-45498967D01*
X107831673Y-45659698D01*
X108010301Y-45838327D01*
X108243690Y-45935000D01*
X108934250Y-45935000D01*
X109093000Y-45776250D01*
X109093000Y-44577000D01*
X109347000Y-44577000D01*
X109347000Y-45776250D01*
X109505750Y-45935000D01*
X110196310Y-45935000D01*
X110429699Y-45838327D01*
X110608327Y-45659698D01*
X110705000Y-45426309D01*
X110705000Y-44735750D01*
X110546250Y-44577000D01*
X109347000Y-44577000D01*
X109093000Y-44577000D01*
X109073000Y-44577000D01*
X109073000Y-44323000D01*
X109093000Y-44323000D01*
X109093000Y-43123750D01*
X109347000Y-43123750D01*
X109347000Y-44323000D01*
X110546250Y-44323000D01*
X110705000Y-44164250D01*
X110705000Y-43473691D01*
X110608327Y-43240302D01*
X110429699Y-43061673D01*
X110196310Y-42965000D01*
X109505750Y-42965000D01*
X109347000Y-43123750D01*
X109093000Y-43123750D01*
X108934250Y-42965000D01*
X108243690Y-42965000D01*
X108010301Y-43061673D01*
X107831673Y-43240302D01*
X107765096Y-43401033D01*
X107750625Y-43379375D01*
X107259418Y-43051161D01*
X106826256Y-42965000D01*
X106533744Y-42965000D01*
X106100582Y-43051161D01*
X105609375Y-43379375D01*
X105410000Y-43677761D01*
X105210625Y-43379375D01*
X104719418Y-43051161D01*
X104286256Y-42965000D01*
X103993744Y-42965000D01*
X103560582Y-43051161D01*
X103069375Y-43379375D01*
X102741161Y-43870582D01*
X102625908Y-44450000D01*
X101015000Y-44450000D01*
X101015000Y-42595000D01*
X115925577Y-42595000D01*
X115749171Y-42712871D01*
X115749171Y-42712871D01*
G37*
X115749171Y-42712871D02*
X115706771Y-42776327D01*
X115210629Y-43272469D01*
X114879418Y-43051161D01*
X114446256Y-42965000D01*
X114153744Y-42965000D01*
X113720582Y-43051161D01*
X113229375Y-43379375D01*
X112901161Y-43870582D01*
X112785908Y-44450000D01*
X112901161Y-45029418D01*
X113229375Y-45520625D01*
X113720582Y-45848839D01*
X113784037Y-45861461D01*
X110375630Y-49269869D01*
X110312171Y-49312271D01*
X110144196Y-49563664D01*
X110100100Y-49785349D01*
X110100100Y-49785353D01*
X110085212Y-49860200D01*
X110100100Y-49935047D01*
X110100100Y-51033840D01*
X109987546Y-50921286D01*
X109489526Y-50715000D01*
X108950474Y-50715000D01*
X108452454Y-50921286D01*
X108071286Y-51302454D01*
X107950000Y-51595265D01*
X107828714Y-51302454D01*
X107447546Y-50921286D01*
X106949526Y-50715000D01*
X106410474Y-50715000D01*
X105912454Y-50921286D01*
X105531286Y-51302454D01*
X105416675Y-51579151D01*
X105327611Y-51364131D01*
X105089774Y-51299831D01*
X104319605Y-52070000D01*
X105089774Y-52840169D01*
X105327611Y-52775869D01*
X105409649Y-52543886D01*
X105531286Y-52837546D01*
X105912454Y-53218714D01*
X106410474Y-53425000D01*
X106949526Y-53425000D01*
X107447546Y-53218714D01*
X107828714Y-52837546D01*
X107950000Y-52544735D01*
X108071286Y-52837546D01*
X108452454Y-53218714D01*
X108460001Y-53221840D01*
X108460000Y-55998160D01*
X108452454Y-56001286D01*
X108071286Y-56382454D01*
X107950000Y-56675265D01*
X107828714Y-56382454D01*
X107447546Y-56001286D01*
X106949526Y-55795000D01*
X106410474Y-55795000D01*
X105912454Y-56001286D01*
X105531286Y-56382454D01*
X105416675Y-56659151D01*
X105327611Y-56444131D01*
X105089774Y-56379831D01*
X104319605Y-57150000D01*
X105089774Y-57920169D01*
X105327611Y-57855869D01*
X105409649Y-57623886D01*
X105531286Y-57917546D01*
X105912454Y-58298714D01*
X106410474Y-58505000D01*
X106949526Y-58505000D01*
X107447546Y-58298714D01*
X107828714Y-57917546D01*
X107950000Y-57624735D01*
X108071286Y-57917546D01*
X108452454Y-58298714D01*
X108471073Y-58306426D01*
X107622899Y-59154600D01*
X107538446Y-59154600D01*
X107463599Y-59139712D01*
X107388752Y-59154600D01*
X107388748Y-59154600D01*
X107167063Y-59198696D01*
X106915671Y-59366671D01*
X106873271Y-59430127D01*
X105131730Y-61171669D01*
X105071917Y-61211635D01*
X105025337Y-61165055D01*
X104910168Y-61280224D01*
X104845869Y-61042389D01*
X104337658Y-60862667D01*
X103799356Y-60891108D01*
X103434131Y-61042389D01*
X103369831Y-61280226D01*
X104140000Y-62050395D01*
X104154143Y-62036253D01*
X104333748Y-62215858D01*
X104319605Y-62230000D01*
X104333748Y-62244143D01*
X104154143Y-62423748D01*
X104140000Y-62409605D01*
X103369831Y-63179774D01*
X103434131Y-63417611D01*
X103942342Y-63597333D01*
X104480644Y-63568892D01*
X104845869Y-63417611D01*
X104856200Y-63379396D01*
X104856201Y-64949248D01*
X104841312Y-65024100D01*
X104900297Y-65320637D01*
X105000948Y-65471271D01*
X105068272Y-65572029D01*
X105103788Y-65595760D01*
X104127300Y-65595760D01*
X103879535Y-65645043D01*
X103669491Y-65785391D01*
X103658643Y-65801627D01*
X103505463Y-65832096D01*
X103254071Y-66000071D01*
X103086096Y-66251463D01*
X103027111Y-66548000D01*
X103042001Y-66622857D01*
X103042000Y-69013148D01*
X103027111Y-69088000D01*
X103086096Y-69384537D01*
X103181379Y-69527138D01*
X103254071Y-69635929D01*
X103505463Y-69803904D01*
X103528535Y-69808493D01*
X103479860Y-70053200D01*
X103479860Y-70662800D01*
X103529143Y-70910565D01*
X103579613Y-70986098D01*
X103492300Y-71196890D01*
X103492300Y-71342250D01*
X103651050Y-71501000D01*
X105029000Y-71501000D01*
X105029000Y-71481000D01*
X105283000Y-71481000D01*
X105283000Y-71775000D01*
X105029000Y-71775000D01*
X105029000Y-71755000D01*
X103651050Y-71755000D01*
X103492300Y-71913750D01*
X103492300Y-72059110D01*
X103540367Y-72175153D01*
X103505463Y-72182096D01*
X103254071Y-72350071D01*
X103086096Y-72601463D01*
X103027111Y-72898000D01*
X103042001Y-72972857D01*
X103042000Y-75179853D01*
X103035820Y-75210920D01*
X102914191Y-75292191D01*
X102773843Y-75502235D01*
X102724560Y-75750000D01*
X102724560Y-76650000D01*
X102758943Y-76822856D01*
X102538830Y-77042969D01*
X102475371Y-77085371D01*
X102307396Y-77336764D01*
X102263300Y-77558449D01*
X102263300Y-77558453D01*
X102248412Y-77633300D01*
X102263300Y-77708147D01*
X102263301Y-78843451D01*
X102248412Y-78918302D01*
X102263301Y-78993154D01*
X102264180Y-78997571D01*
X102307397Y-79214839D01*
X102427435Y-79394488D01*
X102475372Y-79466231D01*
X102528541Y-79501758D01*
X102564070Y-79554930D01*
X102815462Y-79722905D01*
X103037147Y-79767001D01*
X103037151Y-79767001D01*
X103111998Y-79781889D01*
X103186845Y-79767001D01*
X104092200Y-79767001D01*
X104819670Y-80494472D01*
X104862071Y-80557929D01*
X104925527Y-80600329D01*
X105113462Y-80725904D01*
X105157829Y-80734729D01*
X105335148Y-80770000D01*
X105335152Y-80770000D01*
X105410000Y-80784888D01*
X105468034Y-80773345D01*
X105549659Y-80854970D01*
X105592061Y-80918429D01*
X105843453Y-81086404D01*
X106065138Y-81130500D01*
X106065143Y-81130500D01*
X106139990Y-81145388D01*
X106214837Y-81130500D01*
X107670600Y-81130500D01*
X107670600Y-81400650D01*
X107829350Y-81559400D01*
X108458000Y-81559400D01*
X108458000Y-81539400D01*
X108460000Y-81539400D01*
X108460001Y-82765748D01*
X108458000Y-82775808D01*
X108458000Y-81813400D01*
X107829350Y-81813400D01*
X107670600Y-81972150D01*
X107670600Y-82803309D01*
X107767273Y-83036698D01*
X107945901Y-83215327D01*
X108179290Y-83312000D01*
X108299250Y-83312000D01*
X108458000Y-83153250D01*
X108458000Y-82905392D01*
X108504097Y-83137137D01*
X108612142Y-83298837D01*
X108672072Y-83388529D01*
X108735527Y-83430928D01*
X108791370Y-83486772D01*
X108833771Y-83550229D01*
X109085163Y-83718204D01*
X109306848Y-83762300D01*
X109306852Y-83762300D01*
X109381699Y-83777188D01*
X109456546Y-83762300D01*
X111050148Y-83762300D01*
X111125000Y-83777189D01*
X111199852Y-83762300D01*
X111421537Y-83718204D01*
X111536536Y-83641364D01*
X111727563Y-83769004D01*
X111949248Y-83813100D01*
X111949252Y-83813100D01*
X112024099Y-83827988D01*
X112098946Y-83813100D01*
X114671583Y-83813100D01*
X114644971Y-83852927D01*
X109517480Y-88980419D01*
X109462431Y-88847520D01*
X109171280Y-88556369D01*
X108790874Y-88398800D01*
X108379126Y-88398800D01*
X107998720Y-88556369D01*
X107707569Y-88847520D01*
X107550000Y-89227926D01*
X107550000Y-89639674D01*
X107677269Y-89946930D01*
X107658160Y-90043000D01*
X107658160Y-92024200D01*
X107707443Y-92271965D01*
X107847791Y-92482009D01*
X108057835Y-92622357D01*
X108305600Y-92671640D01*
X108864400Y-92671640D01*
X109112165Y-92622357D01*
X109220000Y-92550303D01*
X109327835Y-92622357D01*
X109575600Y-92671640D01*
X110134400Y-92671640D01*
X110382165Y-92622357D01*
X110490000Y-92550303D01*
X110597835Y-92622357D01*
X110845600Y-92671640D01*
X111404400Y-92671640D01*
X111652165Y-92622357D01*
X111760000Y-92550303D01*
X111867835Y-92622357D01*
X112115600Y-92671640D01*
X112290512Y-92671640D01*
X112300200Y-92720347D01*
X112300200Y-92720351D01*
X112344296Y-92942036D01*
X112512271Y-93193429D01*
X112575730Y-93235831D01*
X115074371Y-95734473D01*
X115116771Y-95797929D01*
X115342560Y-95948797D01*
X115342560Y-96100000D01*
X115391843Y-96347765D01*
X115532191Y-96557809D01*
X115742235Y-96698157D01*
X115787619Y-96707184D01*
X115769375Y-96719375D01*
X115441161Y-97210582D01*
X115325908Y-97790000D01*
X115441161Y-98369418D01*
X115769375Y-98860625D01*
X116067761Y-99060000D01*
X115769375Y-99259375D01*
X115441161Y-99750582D01*
X115325908Y-100330000D01*
X115441161Y-100909418D01*
X115769375Y-101400625D01*
X116067761Y-101600000D01*
X115769375Y-101799375D01*
X115441161Y-102290582D01*
X115325908Y-102870000D01*
X115441161Y-103449418D01*
X115769375Y-103940625D01*
X116067761Y-104140000D01*
X115769375Y-104339375D01*
X115441161Y-104830582D01*
X115325908Y-105410000D01*
X115441161Y-105989418D01*
X115769375Y-106480625D01*
X116067761Y-106680000D01*
X115769375Y-106879375D01*
X115441161Y-107370582D01*
X115325908Y-107950000D01*
X115441161Y-108529418D01*
X115769375Y-109020625D01*
X116067761Y-109220000D01*
X115769375Y-109419375D01*
X115441161Y-109910582D01*
X115325908Y-110490000D01*
X115441161Y-111069418D01*
X115769375Y-111560625D01*
X116067761Y-111760000D01*
X115769375Y-111959375D01*
X115441161Y-112450582D01*
X115325908Y-113030000D01*
X115441161Y-113609418D01*
X115769375Y-114100625D01*
X116067761Y-114300000D01*
X115769375Y-114499375D01*
X115441161Y-114990582D01*
X115325908Y-115570000D01*
X115441161Y-116149418D01*
X115769375Y-116640625D01*
X116260582Y-116968839D01*
X116693744Y-117055000D01*
X116986256Y-117055000D01*
X117419418Y-116968839D01*
X117910625Y-116640625D01*
X118110000Y-116342239D01*
X118309375Y-116640625D01*
X118800582Y-116968839D01*
X119233744Y-117055000D01*
X119526256Y-117055000D01*
X119959418Y-116968839D01*
X120450625Y-116640625D01*
X120778839Y-116149418D01*
X120894092Y-115570000D01*
X120792647Y-115060000D01*
X133207353Y-115060000D01*
X133105908Y-115570000D01*
X133221161Y-116149418D01*
X133549375Y-116640625D01*
X134040582Y-116968839D01*
X134473744Y-117055000D01*
X134766256Y-117055000D01*
X135199418Y-116968839D01*
X135690625Y-116640625D01*
X135890000Y-116342239D01*
X136089375Y-116640625D01*
X136580582Y-116968839D01*
X137013744Y-117055000D01*
X137306256Y-117055000D01*
X137739418Y-116968839D01*
X138230625Y-116640625D01*
X138558839Y-116149418D01*
X138674092Y-115570000D01*
X138558839Y-114990582D01*
X138230625Y-114499375D01*
X137932239Y-114300000D01*
X138230625Y-114100625D01*
X138558839Y-113609418D01*
X138617252Y-113315750D01*
X142000000Y-113315750D01*
X142000000Y-114031310D01*
X142096673Y-114264699D01*
X142275302Y-114443327D01*
X142508691Y-114540000D01*
X143224250Y-114540000D01*
X143383000Y-114381250D01*
X143383000Y-113157000D01*
X142158750Y-113157000D01*
X142000000Y-113315750D01*
X138617252Y-113315750D01*
X138674092Y-113030000D01*
X138558839Y-112450582D01*
X138276940Y-112028690D01*
X142000000Y-112028690D01*
X142000000Y-112744250D01*
X142158750Y-112903000D01*
X143383000Y-112903000D01*
X143383000Y-111678750D01*
X143224250Y-111520000D01*
X142508691Y-111520000D01*
X142275302Y-111616673D01*
X142096673Y-111795301D01*
X142000000Y-112028690D01*
X138276940Y-112028690D01*
X138230625Y-111959375D01*
X137932239Y-111760000D01*
X138230625Y-111560625D01*
X138558839Y-111069418D01*
X138674092Y-110490000D01*
X138558839Y-109910582D01*
X138230625Y-109419375D01*
X137932239Y-109220000D01*
X138230625Y-109020625D01*
X138558839Y-108529418D01*
X138674092Y-107950000D01*
X138558839Y-107370582D01*
X138230625Y-106879375D01*
X137932239Y-106680000D01*
X138230625Y-106480625D01*
X138558839Y-105989418D01*
X138674092Y-105410000D01*
X138558839Y-104830582D01*
X138288339Y-104425750D01*
X142000000Y-104425750D01*
X142000000Y-105141310D01*
X142096673Y-105374699D01*
X142275302Y-105553327D01*
X142508691Y-105650000D01*
X143224250Y-105650000D01*
X143383000Y-105491250D01*
X143383000Y-104267000D01*
X142158750Y-104267000D01*
X142000000Y-104425750D01*
X138288339Y-104425750D01*
X138230625Y-104339375D01*
X137932239Y-104140000D01*
X138230625Y-103940625D01*
X138558839Y-103449418D01*
X138620646Y-103138690D01*
X142000000Y-103138690D01*
X142000000Y-103854250D01*
X142158750Y-104013000D01*
X143383000Y-104013000D01*
X143383000Y-102788750D01*
X143224250Y-102630000D01*
X142508691Y-102630000D01*
X142275302Y-102726673D01*
X142096673Y-102905301D01*
X142000000Y-103138690D01*
X138620646Y-103138690D01*
X138674092Y-102870000D01*
X138558839Y-102290582D01*
X138230625Y-101799375D01*
X137932239Y-101600000D01*
X138230625Y-101400625D01*
X138558839Y-100909418D01*
X138674092Y-100330000D01*
X138558839Y-99750582D01*
X138230625Y-99259375D01*
X137932239Y-99060000D01*
X138230625Y-98860625D01*
X138558839Y-98369418D01*
X138674092Y-97790000D01*
X138558839Y-97210582D01*
X138274675Y-96785300D01*
X143605148Y-96785300D01*
X143680000Y-96800189D01*
X143976537Y-96741204D01*
X144227929Y-96573229D01*
X144393940Y-96324776D01*
X144527765Y-96298157D01*
X144737809Y-96157809D01*
X144780000Y-96094666D01*
X144822191Y-96157809D01*
X145032235Y-96298157D01*
X145166061Y-96324776D01*
X145250001Y-96450401D01*
X145250000Y-102820390D01*
X145154654Y-102859884D01*
X144977779Y-103036759D01*
X144923327Y-102905301D01*
X144744698Y-102726673D01*
X144511309Y-102630000D01*
X143795750Y-102630000D01*
X143637000Y-102788750D01*
X143637000Y-104013000D01*
X143657000Y-104013000D01*
X143657000Y-104267000D01*
X143637000Y-104267000D01*
X143637000Y-105491250D01*
X143795750Y-105650000D01*
X144511309Y-105650000D01*
X144744698Y-105553327D01*
X144875001Y-105423025D01*
X144875000Y-111746974D01*
X144744698Y-111616673D01*
X144511309Y-111520000D01*
X143795750Y-111520000D01*
X143637000Y-111678750D01*
X143637000Y-112903000D01*
X143657000Y-112903000D01*
X143657000Y-113157000D01*
X143637000Y-113157000D01*
X143637000Y-114381250D01*
X143795750Y-114540000D01*
X144511309Y-114540000D01*
X144744698Y-114443327D01*
X144923327Y-114264699D01*
X144977779Y-114133241D01*
X145154654Y-114310116D01*
X145709642Y-114540000D01*
X146310358Y-114540000D01*
X146865346Y-114310116D01*
X147260000Y-113915462D01*
X147654654Y-114310116D01*
X148209642Y-114540000D01*
X148810358Y-114540000D01*
X149365346Y-114310116D01*
X149790116Y-113885346D01*
X150020000Y-113330358D01*
X150020000Y-112729642D01*
X149790116Y-112174654D01*
X149645000Y-112029538D01*
X149645000Y-105140462D01*
X149790116Y-104995346D01*
X150020000Y-104440358D01*
X150020000Y-103839642D01*
X149790116Y-103284654D01*
X149365346Y-102859884D01*
X148810358Y-102630000D01*
X148209642Y-102630000D01*
X147654654Y-102859884D01*
X147260000Y-103254538D01*
X146865346Y-102859884D01*
X146770000Y-102820390D01*
X146770000Y-96269936D01*
X146937809Y-96157809D01*
X147078157Y-95947765D01*
X147127440Y-95700000D01*
X147127440Y-94800000D01*
X147078157Y-94552235D01*
X146937809Y-94342191D01*
X146727765Y-94201843D01*
X146593940Y-94175224D01*
X146427929Y-93926771D01*
X146364472Y-93884371D01*
X146175000Y-93694899D01*
X146175000Y-92447900D01*
X146292557Y-92271965D01*
X146341840Y-92024200D01*
X146341840Y-90043000D01*
X146292557Y-89795235D01*
X146152209Y-89585191D01*
X145942165Y-89444843D01*
X145694400Y-89395560D01*
X145562962Y-89395560D01*
X144582931Y-88415530D01*
X144540529Y-88352071D01*
X144289137Y-88184096D01*
X144067452Y-88140000D01*
X144067447Y-88140000D01*
X143992600Y-88125112D01*
X143917753Y-88140000D01*
X140219912Y-88140000D01*
X137920000Y-85840089D01*
X137920000Y-83894851D01*
X137934889Y-83820000D01*
X137923412Y-83762300D01*
X142195348Y-83762300D01*
X142270200Y-83777189D01*
X142345052Y-83762300D01*
X142566737Y-83718204D01*
X142572600Y-83714286D01*
X142578463Y-83718204D01*
X142800148Y-83762300D01*
X142875000Y-83777189D01*
X142949852Y-83762300D01*
X145879255Y-83762300D01*
X145954102Y-83777188D01*
X146028949Y-83762300D01*
X146028954Y-83762300D01*
X146250639Y-83718204D01*
X146502031Y-83550229D01*
X146540442Y-83492742D01*
X146597929Y-83454331D01*
X146650648Y-83375431D01*
X147625000Y-83375431D01*
X147625000Y-84264569D01*
X147965259Y-85086026D01*
X148593974Y-85714741D01*
X149415431Y-86055000D01*
X150304569Y-86055000D01*
X151126026Y-85714741D01*
X151754741Y-85086026D01*
X152095000Y-84264569D01*
X152095000Y-83375431D01*
X151754741Y-82553974D01*
X151126026Y-81925259D01*
X150304569Y-81585000D01*
X149415431Y-81585000D01*
X148593974Y-81925259D01*
X147965259Y-82553974D01*
X147625000Y-83375431D01*
X146650648Y-83375431D01*
X146765904Y-83202939D01*
X146810000Y-82981254D01*
X146810000Y-82981250D01*
X146824888Y-82906403D01*
X146810000Y-82831556D01*
X146810000Y-81594801D01*
X147274302Y-81130500D01*
X148421953Y-81130500D01*
X148496800Y-81145388D01*
X148571647Y-81130500D01*
X148571652Y-81130500D01*
X148793337Y-81086404D01*
X149044729Y-80918429D01*
X149087131Y-80854970D01*
X150344473Y-79597629D01*
X150407929Y-79555229D01*
X150573940Y-79306776D01*
X150707765Y-79280157D01*
X150917809Y-79139809D01*
X151058157Y-78929765D01*
X151107440Y-78682000D01*
X151107440Y-77782000D01*
X151073057Y-77609145D01*
X151269876Y-77412327D01*
X151333329Y-77369929D01*
X151375727Y-77306476D01*
X151375729Y-77306474D01*
X151482773Y-77146271D01*
X151501304Y-77118537D01*
X151545400Y-76896852D01*
X151545400Y-76896848D01*
X151560288Y-76822001D01*
X151545400Y-76747154D01*
X151545400Y-73331648D01*
X151560288Y-73256800D01*
X151545400Y-73181952D01*
X151545400Y-73181948D01*
X151501304Y-72960263D01*
X151501304Y-72960262D01*
X151409687Y-72823149D01*
X151333329Y-72708871D01*
X151269870Y-72666469D01*
X151016931Y-72413530D01*
X150974529Y-72350071D01*
X150723137Y-72182096D01*
X150700065Y-72177507D01*
X150748740Y-71932800D01*
X150748740Y-71323200D01*
X150699457Y-71075435D01*
X150644375Y-70993000D01*
X150699457Y-70910565D01*
X150748740Y-70662800D01*
X150748740Y-70053200D01*
X150699457Y-69805435D01*
X150644375Y-69723000D01*
X150699457Y-69640565D01*
X150748740Y-69392800D01*
X150748740Y-68783200D01*
X150700065Y-68538493D01*
X150723137Y-68533904D01*
X150974529Y-68365929D01*
X151016930Y-68302471D01*
X151570475Y-67748928D01*
X151633929Y-67706529D01*
X151676327Y-67643076D01*
X151676329Y-67643074D01*
X151801903Y-67455138D01*
X151801904Y-67455137D01*
X151846000Y-67233452D01*
X151846000Y-67233448D01*
X151860888Y-67158601D01*
X151846000Y-67083754D01*
X151846000Y-43532848D01*
X151860888Y-43458000D01*
X151846000Y-43383152D01*
X151846000Y-43383148D01*
X151801904Y-43161463D01*
X151633929Y-42910071D01*
X151570470Y-42867669D01*
X151492931Y-42790130D01*
X151450529Y-42726671D01*
X151253470Y-42595000D01*
X152985000Y-42595000D01*
X152985001Y-117425000D01*
X101015000Y-117425000D01*
X101015000Y-83375431D01*
X101905000Y-83375431D01*
X101905000Y-84264569D01*
X102245259Y-85086026D01*
X102873974Y-85714741D01*
X103695431Y-86055000D01*
X104584569Y-86055000D01*
X105406026Y-85714741D01*
X106034741Y-85086026D01*
X106375000Y-84264569D01*
X106375000Y-83375431D01*
X106034741Y-82553974D01*
X105406026Y-81925259D01*
X104584569Y-81585000D01*
X103695431Y-81585000D01*
X102873974Y-81925259D01*
X102245259Y-82553974D01*
X101905000Y-83375431D01*
X101015000Y-83375431D01*
X101015000Y-62032342D01*
X102772667Y-62032342D01*
X102801108Y-62570644D01*
X102952389Y-62935869D01*
X103190226Y-63000169D01*
X103960395Y-62230000D01*
X103190226Y-61459831D01*
X102952389Y-61524131D01*
X102772667Y-62032342D01*
X101015000Y-62032342D01*
X101015000Y-58099774D01*
X103369831Y-58099774D01*
X103434131Y-58337611D01*
X103942342Y-58517333D01*
X104480644Y-58488892D01*
X104845869Y-58337611D01*
X104910169Y-58099774D01*
X104140000Y-57329605D01*
X103369831Y-58099774D01*
X101015000Y-58099774D01*
X101015000Y-56952342D01*
X102772667Y-56952342D01*
X102801108Y-57490644D01*
X102952389Y-57855869D01*
X103190226Y-57920169D01*
X103960395Y-57150000D01*
X103190226Y-56379831D01*
X102952389Y-56444131D01*
X102772667Y-56952342D01*
X101015000Y-56952342D01*
X101015000Y-56200226D01*
X103369831Y-56200226D01*
X104140000Y-56970395D01*
X104910169Y-56200226D01*
X104845869Y-55962389D01*
X104337658Y-55782667D01*
X103799356Y-55811108D01*
X103434131Y-55962389D01*
X103369831Y-56200226D01*
X101015000Y-56200226D01*
X101015000Y-53019774D01*
X103369831Y-53019774D01*
X103434131Y-53257611D01*
X103942342Y-53437333D01*
X104480644Y-53408892D01*
X104845869Y-53257611D01*
X104910169Y-53019774D01*
X104140000Y-52249605D01*
X103369831Y-53019774D01*
X101015000Y-53019774D01*
X101015000Y-51872342D01*
X102772667Y-51872342D01*
X102801108Y-52410644D01*
X102952389Y-52775869D01*
X103190226Y-52840169D01*
X103960395Y-52070000D01*
X103190226Y-51299831D01*
X102952389Y-51364131D01*
X102772667Y-51872342D01*
X101015000Y-51872342D01*
X101015000Y-51120226D01*
X103369831Y-51120226D01*
X104140000Y-51890395D01*
X104910169Y-51120226D01*
X104845869Y-50882389D01*
X104337658Y-50702667D01*
X103799356Y-50731108D01*
X103434131Y-50882389D01*
X103369831Y-51120226D01*
X101015000Y-51120226D01*
X101015000Y-44450000D01*
X102625908Y-44450000D01*
X102741161Y-45029418D01*
X103069375Y-45520625D01*
X103560582Y-45848839D01*
X103993744Y-45935000D01*
X104286256Y-45935000D01*
X104719418Y-45848839D01*
X105210625Y-45520625D01*
X105410000Y-45222239D01*
X105609375Y-45520625D01*
X105669619Y-45560879D01*
X105095528Y-46134971D01*
X105032072Y-46177371D01*
X104989672Y-46240827D01*
X104989671Y-46240828D01*
X104864097Y-46428763D01*
X104838861Y-46555634D01*
X104732235Y-46576843D01*
X104522191Y-46717191D01*
X104381843Y-46927235D01*
X104332560Y-47175000D01*
X104332560Y-48075000D01*
X104381843Y-48322765D01*
X104522191Y-48532809D01*
X104732235Y-48673157D01*
X104980000Y-48722440D01*
X106180000Y-48722440D01*
X106427765Y-48673157D01*
X106637809Y-48532809D01*
X106678654Y-48471680D01*
X106820302Y-48613327D01*
X107053691Y-48710000D01*
X107494250Y-48710000D01*
X107653000Y-48551250D01*
X107653000Y-47752000D01*
X107907000Y-47752000D01*
X107907000Y-48551250D01*
X108065750Y-48710000D01*
X108506309Y-48710000D01*
X108739698Y-48613327D01*
X108918327Y-48434699D01*
X109015000Y-48201310D01*
X109015000Y-47910750D01*
X108856250Y-47752000D01*
X107907000Y-47752000D01*
X107653000Y-47752000D01*
X107633000Y-47752000D01*
X107633000Y-47498000D01*
X107653000Y-47498000D01*
X107653000Y-46698750D01*
X107907000Y-46698750D01*
X107907000Y-47498000D01*
X108856250Y-47498000D01*
X109015000Y-47339250D01*
X109015000Y-47048690D01*
X108918327Y-46815301D01*
X108739698Y-46636673D01*
X108506309Y-46540000D01*
X108065750Y-46540000D01*
X107907000Y-46698750D01*
X107653000Y-46698750D01*
X107494250Y-46540000D01*
X107053691Y-46540000D01*
X106820302Y-46636673D01*
X106678654Y-46778320D01*
X106647863Y-46732238D01*
X107164473Y-46215629D01*
X107227929Y-46173229D01*
X107395904Y-45921837D01*
X107433571Y-45732474D01*
X107750625Y-45520625D01*
X107765096Y-45498967D01*
X107831673Y-45659698D01*
X108010301Y-45838327D01*
X108243690Y-45935000D01*
X108934250Y-45935000D01*
X109093000Y-45776250D01*
X109093000Y-44577000D01*
X109347000Y-44577000D01*
X109347000Y-45776250D01*
X109505750Y-45935000D01*
X110196310Y-45935000D01*
X110429699Y-45838327D01*
X110608327Y-45659698D01*
X110705000Y-45426309D01*
X110705000Y-44735750D01*
X110546250Y-44577000D01*
X109347000Y-44577000D01*
X109093000Y-44577000D01*
X109073000Y-44577000D01*
X109073000Y-44323000D01*
X109093000Y-44323000D01*
X109093000Y-43123750D01*
X109347000Y-43123750D01*
X109347000Y-44323000D01*
X110546250Y-44323000D01*
X110705000Y-44164250D01*
X110705000Y-43473691D01*
X110608327Y-43240302D01*
X110429699Y-43061673D01*
X110196310Y-42965000D01*
X109505750Y-42965000D01*
X109347000Y-43123750D01*
X109093000Y-43123750D01*
X108934250Y-42965000D01*
X108243690Y-42965000D01*
X108010301Y-43061673D01*
X107831673Y-43240302D01*
X107765096Y-43401033D01*
X107750625Y-43379375D01*
X107259418Y-43051161D01*
X106826256Y-42965000D01*
X106533744Y-42965000D01*
X106100582Y-43051161D01*
X105609375Y-43379375D01*
X105410000Y-43677761D01*
X105210625Y-43379375D01*
X104719418Y-43051161D01*
X104286256Y-42965000D01*
X103993744Y-42965000D01*
X103560582Y-43051161D01*
X103069375Y-43379375D01*
X102741161Y-43870582D01*
X102625908Y-44450000D01*
X101015000Y-44450000D01*
X101015000Y-42595000D01*
X115925577Y-42595000D01*
X115749171Y-42712871D01*
G36*
X128463748Y-88885858D02*
X128449605Y-88900000D01*
X129313958Y-89764353D01*
X129565259Y-89684080D01*
X129766718Y-89128721D01*
X129757483Y-88922284D01*
X131655200Y-90820002D01*
X131655201Y-91815049D01*
X131640312Y-91889900D01*
X131699297Y-92186437D01*
X131807894Y-92348963D01*
X131867272Y-92437829D01*
X131930728Y-92480229D01*
X133360446Y-93909948D01*
X133312191Y-93942191D01*
X133171843Y-94152235D01*
X133122560Y-94400000D01*
X133122560Y-96100000D01*
X133171843Y-96347765D01*
X133312191Y-96557809D01*
X133522235Y-96698157D01*
X133567619Y-96707184D01*
X133549375Y-96719375D01*
X133221161Y-97210582D01*
X133105908Y-97790000D01*
X133221161Y-98369418D01*
X133549375Y-98860625D01*
X133847761Y-99060000D01*
X133549375Y-99259375D01*
X133221161Y-99750582D01*
X133105908Y-100330000D01*
X133221161Y-100909418D01*
X133549375Y-101400625D01*
X133847761Y-101600000D01*
X133549375Y-101799375D01*
X133221161Y-102290582D01*
X133105908Y-102870000D01*
X133221161Y-103449418D01*
X133549375Y-103940625D01*
X133847761Y-104140000D01*
X133549375Y-104339375D01*
X133221161Y-104830582D01*
X133105908Y-105410000D01*
X133221161Y-105989418D01*
X133549375Y-106480625D01*
X133847761Y-106680000D01*
X133549375Y-106879375D01*
X133221161Y-107370582D01*
X133105908Y-107950000D01*
X133221161Y-108529418D01*
X133549375Y-109020625D01*
X133847761Y-109220000D01*
X133549375Y-109419375D01*
X133221161Y-109910582D01*
X133105908Y-110490000D01*
X133221161Y-111069418D01*
X133549375Y-111560625D01*
X133847761Y-111760000D01*
X133549375Y-111959375D01*
X133221161Y-112450582D01*
X133105908Y-113030000D01*
X133207353Y-113540000D01*
X120792647Y-113540000D01*
X120894092Y-113030000D01*
X120778839Y-112450582D01*
X120450625Y-111959375D01*
X120152239Y-111760000D01*
X120450625Y-111560625D01*
X120778839Y-111069418D01*
X120894092Y-110490000D01*
X120778839Y-109910582D01*
X120450625Y-109419375D01*
X120152239Y-109220000D01*
X120450625Y-109020625D01*
X120778839Y-108529418D01*
X120894092Y-107950000D01*
X120778839Y-107370582D01*
X120450625Y-106879375D01*
X120152239Y-106680000D01*
X120450625Y-106480625D01*
X120778839Y-105989418D01*
X120894092Y-105410000D01*
X120778839Y-104830582D01*
X120450625Y-104339375D01*
X120152239Y-104140000D01*
X120450625Y-103940625D01*
X120778839Y-103449418D01*
X120894092Y-102870000D01*
X120778839Y-102290582D01*
X120450625Y-101799375D01*
X120152239Y-101600000D01*
X120450625Y-101400625D01*
X120778839Y-100909418D01*
X120894092Y-100330000D01*
X120778839Y-99750582D01*
X120450625Y-99259375D01*
X120152239Y-99060000D01*
X120450625Y-98860625D01*
X120778839Y-98369418D01*
X120894092Y-97790000D01*
X120778839Y-97210582D01*
X120450625Y-96719375D01*
X120152239Y-96520000D01*
X120450625Y-96320625D01*
X120778839Y-95829418D01*
X120894092Y-95250000D01*
X120778839Y-94670582D01*
X120671274Y-94509600D01*
X120882053Y-94509600D01*
X120956900Y-94524488D01*
X121031747Y-94509600D01*
X121031752Y-94509600D01*
X121253437Y-94465504D01*
X121504829Y-94297529D01*
X121547231Y-94234070D01*
X124245000Y-91536302D01*
X124245000Y-91735385D01*
X124471078Y-92281185D01*
X124888815Y-92698922D01*
X124915560Y-92710000D01*
X124888815Y-92721078D01*
X124471078Y-93138815D01*
X124245000Y-93684615D01*
X124245000Y-94275385D01*
X124471078Y-94821185D01*
X124888815Y-95238922D01*
X124915560Y-95250000D01*
X124888815Y-95261078D01*
X124471078Y-95678815D01*
X124245000Y-96224615D01*
X124245000Y-96815385D01*
X124471078Y-97361185D01*
X124888815Y-97778922D01*
X124915560Y-97790000D01*
X124888815Y-97801078D01*
X124471078Y-98218815D01*
X124245000Y-98764615D01*
X124245000Y-99355385D01*
X124471078Y-99901185D01*
X124888815Y-100318922D01*
X124915560Y-100330000D01*
X124888815Y-100341078D01*
X124471078Y-100758815D01*
X124245000Y-101304615D01*
X124245000Y-101895385D01*
X124471078Y-102441185D01*
X124888815Y-102858922D01*
X124915560Y-102870000D01*
X124888815Y-102881078D01*
X124471078Y-103298815D01*
X124245000Y-103844615D01*
X124245000Y-104435385D01*
X124471078Y-104981185D01*
X124888815Y-105398922D01*
X124915560Y-105410000D01*
X124888815Y-105421078D01*
X124471078Y-105838815D01*
X124245000Y-106384615D01*
X124245000Y-106975385D01*
X124471078Y-107521185D01*
X124888815Y-107938922D01*
X124915560Y-107950000D01*
X124888815Y-107961078D01*
X124471078Y-108378815D01*
X124245000Y-108924615D01*
X124245000Y-109515385D01*
X124471078Y-110061185D01*
X124888815Y-110478922D01*
X124915560Y-110490000D01*
X124888815Y-110501078D01*
X124471078Y-110918815D01*
X124245000Y-111464615D01*
X124245000Y-112055385D01*
X124471078Y-112601185D01*
X124888815Y-113018922D01*
X125434615Y-113245000D01*
X126025385Y-113245000D01*
X126571185Y-113018922D01*
X126988922Y-112601185D01*
X127000000Y-112574440D01*
X127011078Y-112601185D01*
X127428815Y-113018922D01*
X127974615Y-113245000D01*
X128565385Y-113245000D01*
X129111185Y-113018922D01*
X129528922Y-112601185D01*
X129755000Y-112055385D01*
X129755000Y-111464615D01*
X129528922Y-110918815D01*
X129111185Y-110501078D01*
X129084440Y-110490000D01*
X129111185Y-110478922D01*
X129528922Y-110061185D01*
X129755000Y-109515385D01*
X129755000Y-108924615D01*
X129528922Y-108378815D01*
X129111185Y-107961078D01*
X129084440Y-107950000D01*
X129111185Y-107938922D01*
X129528922Y-107521185D01*
X129755000Y-106975385D01*
X129755000Y-106384615D01*
X129528922Y-105838815D01*
X129111185Y-105421078D01*
X129084440Y-105410000D01*
X129111185Y-105398922D01*
X129528922Y-104981185D01*
X129755000Y-104435385D01*
X129755000Y-103844615D01*
X129528922Y-103298815D01*
X129111185Y-102881078D01*
X129084440Y-102870000D01*
X129111185Y-102858922D01*
X129528922Y-102441185D01*
X129755000Y-101895385D01*
X129755000Y-101304615D01*
X129528922Y-100758815D01*
X129111185Y-100341078D01*
X129084440Y-100330000D01*
X129111185Y-100318922D01*
X129528922Y-99901185D01*
X129755000Y-99355385D01*
X129755000Y-98764615D01*
X129528922Y-98218815D01*
X129111185Y-97801078D01*
X129084440Y-97790000D01*
X129111185Y-97778922D01*
X129528922Y-97361185D01*
X129755000Y-96815385D01*
X129755000Y-96224615D01*
X129528922Y-95678815D01*
X129111185Y-95261078D01*
X129084440Y-95250000D01*
X129111185Y-95238922D01*
X129528922Y-94821185D01*
X129755000Y-94275385D01*
X129755000Y-93684615D01*
X129528922Y-93138815D01*
X129111185Y-92721078D01*
X129084440Y-92710000D01*
X129111185Y-92698922D01*
X129528922Y-92281185D01*
X129755000Y-91735385D01*
X129755000Y-91144615D01*
X129528922Y-90598815D01*
X129111185Y-90181078D01*
X129064753Y-90161845D01*
X129134353Y-89943958D01*
X128397000Y-89206605D01*
X128397000Y-88819110D01*
X128463748Y-88885858D01*
X128463748Y-88885858D01*
G37*
X128463748Y-88885858D02*
X128449605Y-88900000D01*
X129313958Y-89764353D01*
X129565259Y-89684080D01*
X129766718Y-89128721D01*
X129757483Y-88922284D01*
X131655200Y-90820002D01*
X131655201Y-91815049D01*
X131640312Y-91889900D01*
X131699297Y-92186437D01*
X131807894Y-92348963D01*
X131867272Y-92437829D01*
X131930728Y-92480229D01*
X133360446Y-93909948D01*
X133312191Y-93942191D01*
X133171843Y-94152235D01*
X133122560Y-94400000D01*
X133122560Y-96100000D01*
X133171843Y-96347765D01*
X133312191Y-96557809D01*
X133522235Y-96698157D01*
X133567619Y-96707184D01*
X133549375Y-96719375D01*
X133221161Y-97210582D01*
X133105908Y-97790000D01*
X133221161Y-98369418D01*
X133549375Y-98860625D01*
X133847761Y-99060000D01*
X133549375Y-99259375D01*
X133221161Y-99750582D01*
X133105908Y-100330000D01*
X133221161Y-100909418D01*
X133549375Y-101400625D01*
X133847761Y-101600000D01*
X133549375Y-101799375D01*
X133221161Y-102290582D01*
X133105908Y-102870000D01*
X133221161Y-103449418D01*
X133549375Y-103940625D01*
X133847761Y-104140000D01*
X133549375Y-104339375D01*
X133221161Y-104830582D01*
X133105908Y-105410000D01*
X133221161Y-105989418D01*
X133549375Y-106480625D01*
X133847761Y-106680000D01*
X133549375Y-106879375D01*
X133221161Y-107370582D01*
X133105908Y-107950000D01*
X133221161Y-108529418D01*
X133549375Y-109020625D01*
X133847761Y-109220000D01*
X133549375Y-109419375D01*
X133221161Y-109910582D01*
X133105908Y-110490000D01*
X133221161Y-111069418D01*
X133549375Y-111560625D01*
X133847761Y-111760000D01*
X133549375Y-111959375D01*
X133221161Y-112450582D01*
X133105908Y-113030000D01*
X133207353Y-113540000D01*
X120792647Y-113540000D01*
X120894092Y-113030000D01*
X120778839Y-112450582D01*
X120450625Y-111959375D01*
X120152239Y-111760000D01*
X120450625Y-111560625D01*
X120778839Y-111069418D01*
X120894092Y-110490000D01*
X120778839Y-109910582D01*
X120450625Y-109419375D01*
X120152239Y-109220000D01*
X120450625Y-109020625D01*
X120778839Y-108529418D01*
X120894092Y-107950000D01*
X120778839Y-107370582D01*
X120450625Y-106879375D01*
X120152239Y-106680000D01*
X120450625Y-106480625D01*
X120778839Y-105989418D01*
X120894092Y-105410000D01*
X120778839Y-104830582D01*
X120450625Y-104339375D01*
X120152239Y-104140000D01*
X120450625Y-103940625D01*
X120778839Y-103449418D01*
X120894092Y-102870000D01*
X120778839Y-102290582D01*
X120450625Y-101799375D01*
X120152239Y-101600000D01*
X120450625Y-101400625D01*
X120778839Y-100909418D01*
X120894092Y-100330000D01*
X120778839Y-99750582D01*
X120450625Y-99259375D01*
X120152239Y-99060000D01*
X120450625Y-98860625D01*
X120778839Y-98369418D01*
X120894092Y-97790000D01*
X120778839Y-97210582D01*
X120450625Y-96719375D01*
X120152239Y-96520000D01*
X120450625Y-96320625D01*
X120778839Y-95829418D01*
X120894092Y-95250000D01*
X120778839Y-94670582D01*
X120671274Y-94509600D01*
X120882053Y-94509600D01*
X120956900Y-94524488D01*
X121031747Y-94509600D01*
X121031752Y-94509600D01*
X121253437Y-94465504D01*
X121504829Y-94297529D01*
X121547231Y-94234070D01*
X124245000Y-91536302D01*
X124245000Y-91735385D01*
X124471078Y-92281185D01*
X124888815Y-92698922D01*
X124915560Y-92710000D01*
X124888815Y-92721078D01*
X124471078Y-93138815D01*
X124245000Y-93684615D01*
X124245000Y-94275385D01*
X124471078Y-94821185D01*
X124888815Y-95238922D01*
X124915560Y-95250000D01*
X124888815Y-95261078D01*
X124471078Y-95678815D01*
X124245000Y-96224615D01*
X124245000Y-96815385D01*
X124471078Y-97361185D01*
X124888815Y-97778922D01*
X124915560Y-97790000D01*
X124888815Y-97801078D01*
X124471078Y-98218815D01*
X124245000Y-98764615D01*
X124245000Y-99355385D01*
X124471078Y-99901185D01*
X124888815Y-100318922D01*
X124915560Y-100330000D01*
X124888815Y-100341078D01*
X124471078Y-100758815D01*
X124245000Y-101304615D01*
X124245000Y-101895385D01*
X124471078Y-102441185D01*
X124888815Y-102858922D01*
X124915560Y-102870000D01*
X124888815Y-102881078D01*
X124471078Y-103298815D01*
X124245000Y-103844615D01*
X124245000Y-104435385D01*
X124471078Y-104981185D01*
X124888815Y-105398922D01*
X124915560Y-105410000D01*
X124888815Y-105421078D01*
X124471078Y-105838815D01*
X124245000Y-106384615D01*
X124245000Y-106975385D01*
X124471078Y-107521185D01*
X124888815Y-107938922D01*
X124915560Y-107950000D01*
X124888815Y-107961078D01*
X124471078Y-108378815D01*
X124245000Y-108924615D01*
X124245000Y-109515385D01*
X124471078Y-110061185D01*
X124888815Y-110478922D01*
X124915560Y-110490000D01*
X124888815Y-110501078D01*
X124471078Y-110918815D01*
X124245000Y-111464615D01*
X124245000Y-112055385D01*
X124471078Y-112601185D01*
X124888815Y-113018922D01*
X125434615Y-113245000D01*
X126025385Y-113245000D01*
X126571185Y-113018922D01*
X126988922Y-112601185D01*
X127000000Y-112574440D01*
X127011078Y-112601185D01*
X127428815Y-113018922D01*
X127974615Y-113245000D01*
X128565385Y-113245000D01*
X129111185Y-113018922D01*
X129528922Y-112601185D01*
X129755000Y-112055385D01*
X129755000Y-111464615D01*
X129528922Y-110918815D01*
X129111185Y-110501078D01*
X129084440Y-110490000D01*
X129111185Y-110478922D01*
X129528922Y-110061185D01*
X129755000Y-109515385D01*
X129755000Y-108924615D01*
X129528922Y-108378815D01*
X129111185Y-107961078D01*
X129084440Y-107950000D01*
X129111185Y-107938922D01*
X129528922Y-107521185D01*
X129755000Y-106975385D01*
X129755000Y-106384615D01*
X129528922Y-105838815D01*
X129111185Y-105421078D01*
X129084440Y-105410000D01*
X129111185Y-105398922D01*
X129528922Y-104981185D01*
X129755000Y-104435385D01*
X129755000Y-103844615D01*
X129528922Y-103298815D01*
X129111185Y-102881078D01*
X129084440Y-102870000D01*
X129111185Y-102858922D01*
X129528922Y-102441185D01*
X129755000Y-101895385D01*
X129755000Y-101304615D01*
X129528922Y-100758815D01*
X129111185Y-100341078D01*
X129084440Y-100330000D01*
X129111185Y-100318922D01*
X129528922Y-99901185D01*
X129755000Y-99355385D01*
X129755000Y-98764615D01*
X129528922Y-98218815D01*
X129111185Y-97801078D01*
X129084440Y-97790000D01*
X129111185Y-97778922D01*
X129528922Y-97361185D01*
X129755000Y-96815385D01*
X129755000Y-96224615D01*
X129528922Y-95678815D01*
X129111185Y-95261078D01*
X129084440Y-95250000D01*
X129111185Y-95238922D01*
X129528922Y-94821185D01*
X129755000Y-94275385D01*
X129755000Y-93684615D01*
X129528922Y-93138815D01*
X129111185Y-92721078D01*
X129084440Y-92710000D01*
X129111185Y-92698922D01*
X129528922Y-92281185D01*
X129755000Y-91735385D01*
X129755000Y-91144615D01*
X129528922Y-90598815D01*
X129111185Y-90181078D01*
X129064753Y-90161845D01*
X129134353Y-89943958D01*
X128397000Y-89206605D01*
X128397000Y-88819110D01*
X128463748Y-88885858D01*
G36*
X134112000Y-81559400D02*
X134132000Y-81559400D01*
X134132000Y-81813400D01*
X134112000Y-81813400D01*
X134112000Y-81833400D01*
X133858000Y-81833400D01*
X133858000Y-81813400D01*
X133838000Y-81813400D01*
X133838000Y-81559400D01*
X133858000Y-81559400D01*
X133858000Y-81539400D01*
X134112000Y-81539400D01*
X134112000Y-81559400D01*
X134112000Y-81559400D01*
G37*
X134112000Y-81559400D02*
X134132000Y-81559400D01*
X134132000Y-81813400D01*
X134112000Y-81813400D01*
X134112000Y-81833400D01*
X133858000Y-81833400D01*
X133858000Y-81813400D01*
X133838000Y-81813400D01*
X133838000Y-81559400D01*
X133858000Y-81559400D01*
X133858000Y-81539400D01*
X134112000Y-81539400D01*
X134112000Y-81559400D01*
G36*
X122945908Y-44450000D02*
X123061161Y-45029418D01*
X123389375Y-45520625D01*
X123880582Y-45848839D01*
X124313744Y-45935000D01*
X124606256Y-45935000D01*
X125039418Y-45848839D01*
X125530625Y-45520625D01*
X125730000Y-45222239D01*
X125929375Y-45520625D01*
X125989619Y-45560879D01*
X125382953Y-46167546D01*
X125182071Y-46301771D01*
X125016060Y-46550224D01*
X124882235Y-46576843D01*
X124672191Y-46717191D01*
X124531843Y-46927235D01*
X124482560Y-47175000D01*
X124482560Y-48075000D01*
X124531843Y-48322765D01*
X124672191Y-48532809D01*
X124882235Y-48673157D01*
X124970001Y-48690615D01*
X124970001Y-50813123D01*
X124657658Y-50702667D01*
X124119356Y-50731108D01*
X123754131Y-50882389D01*
X123689831Y-51120226D01*
X124460000Y-51890395D01*
X124474143Y-51876253D01*
X124653748Y-52055858D01*
X124639605Y-52070000D01*
X124653748Y-52084143D01*
X124474143Y-52263748D01*
X124460000Y-52249605D01*
X123689831Y-53019774D01*
X123754131Y-53257611D01*
X124262342Y-53437333D01*
X124800644Y-53408892D01*
X124970000Y-53338742D01*
X124970000Y-54310553D01*
X124955112Y-54385400D01*
X124970000Y-54460247D01*
X124970000Y-54460251D01*
X125014096Y-54681936D01*
X125182071Y-54933329D01*
X125245530Y-54975731D01*
X126259770Y-55989971D01*
X126232454Y-56001286D01*
X125851286Y-56382454D01*
X125736675Y-56659151D01*
X125647611Y-56444131D01*
X125409774Y-56379831D01*
X124639605Y-57150000D01*
X124653748Y-57164143D01*
X124474143Y-57343748D01*
X124460000Y-57329605D01*
X123689831Y-58099774D01*
X123754131Y-58337611D01*
X124262342Y-58517333D01*
X124800644Y-58488892D01*
X125129400Y-58352717D01*
X125129401Y-61029492D01*
X124657658Y-60862667D01*
X124119356Y-60891108D01*
X123754131Y-61042389D01*
X123689831Y-61280226D01*
X124460000Y-62050395D01*
X124474143Y-62036253D01*
X124653748Y-62215858D01*
X124639605Y-62230000D01*
X124653748Y-62244143D01*
X124474143Y-62423748D01*
X124460000Y-62409605D01*
X123689831Y-63179774D01*
X123754131Y-63417611D01*
X124262342Y-63597333D01*
X124800644Y-63568892D01*
X125165869Y-63417611D01*
X125230168Y-63179776D01*
X125345337Y-63294945D01*
X125426190Y-63214092D01*
X133687573Y-71475476D01*
X133729971Y-71538929D01*
X133793424Y-71581327D01*
X133793426Y-71581329D01*
X133898900Y-71651804D01*
X133972300Y-71700848D01*
X133972300Y-71755002D01*
X134131048Y-71755002D01*
X133972300Y-71913750D01*
X133972300Y-72059110D01*
X134059613Y-72269902D01*
X134009143Y-72345435D01*
X133959860Y-72593200D01*
X133959860Y-73202800D01*
X134008535Y-73447507D01*
X133985463Y-73452096D01*
X133734071Y-73620071D01*
X133691669Y-73683530D01*
X133459528Y-73915671D01*
X133396072Y-73958071D01*
X133353672Y-74021527D01*
X133353671Y-74021528D01*
X133228097Y-74209463D01*
X133169112Y-74506000D01*
X133184001Y-74580851D01*
X133184000Y-75134386D01*
X133096235Y-75151843D01*
X132886191Y-75292191D01*
X132745843Y-75502235D01*
X132696560Y-75750000D01*
X132696560Y-76650000D01*
X132745843Y-76897765D01*
X132748683Y-76902016D01*
X132588428Y-77062271D01*
X132524972Y-77104671D01*
X132482572Y-77168127D01*
X132482571Y-77168128D01*
X132361674Y-77349063D01*
X132356997Y-77356063D01*
X132320827Y-77537904D01*
X132298012Y-77652600D01*
X132312901Y-77727451D01*
X132312900Y-78718253D01*
X132298012Y-78793100D01*
X132312900Y-78867947D01*
X132312900Y-78867951D01*
X132356996Y-79089636D01*
X132524971Y-79341029D01*
X132588430Y-79383431D01*
X133357618Y-80152620D01*
X133345901Y-80157473D01*
X133167273Y-80336102D01*
X133125547Y-80436837D01*
X132798574Y-80301400D01*
X132386826Y-80301400D01*
X132006420Y-80458969D01*
X131811700Y-80653689D01*
X131811700Y-76516547D01*
X131826588Y-76441700D01*
X131811700Y-76366853D01*
X131811700Y-76366848D01*
X131767604Y-76145163D01*
X131599629Y-75893771D01*
X131536173Y-75851371D01*
X129721372Y-74036570D01*
X129755000Y-73955385D01*
X129755000Y-73364615D01*
X129528922Y-72818815D01*
X129111185Y-72401078D01*
X129084440Y-72390000D01*
X129111185Y-72378922D01*
X129528922Y-71961185D01*
X129755000Y-71415385D01*
X129755000Y-70824615D01*
X129528922Y-70278815D01*
X129111185Y-69861078D01*
X128565385Y-69635000D01*
X127974615Y-69635000D01*
X127428815Y-69861078D01*
X127193006Y-70096887D01*
X127178157Y-70022235D01*
X127037809Y-69812191D01*
X126827765Y-69671843D01*
X126580000Y-69622560D01*
X124880000Y-69622560D01*
X124632235Y-69671843D01*
X124422191Y-69812191D01*
X124281843Y-70022235D01*
X124232560Y-70270000D01*
X124232560Y-71970000D01*
X124281843Y-72217765D01*
X124315285Y-72267814D01*
X124070228Y-72512871D01*
X124006772Y-72555271D01*
X123964372Y-72618727D01*
X123964371Y-72618728D01*
X123838797Y-72806663D01*
X123779812Y-73103200D01*
X123794701Y-73178051D01*
X123794700Y-73883598D01*
X121581000Y-76097299D01*
X121581000Y-73847246D01*
X121595888Y-73772399D01*
X121581000Y-73697552D01*
X121581000Y-73697548D01*
X121536904Y-73475863D01*
X121486038Y-73399737D01*
X121411329Y-73287926D01*
X121411327Y-73287924D01*
X121368929Y-73224471D01*
X121305475Y-73182073D01*
X120536931Y-72413529D01*
X120494529Y-72350071D01*
X120269668Y-72199824D01*
X120305429Y-72175929D01*
X120347831Y-72112470D01*
X120934073Y-71526229D01*
X120997529Y-71483829D01*
X121165504Y-71232437D01*
X121209600Y-71010752D01*
X121209600Y-71010748D01*
X121224488Y-70935901D01*
X121209600Y-70861054D01*
X121209600Y-63374448D01*
X121224488Y-63299600D01*
X121209600Y-63224752D01*
X121209600Y-63224748D01*
X121165504Y-63003063D01*
X121165504Y-63003062D01*
X121039929Y-62815127D01*
X120997529Y-62751671D01*
X120934073Y-62709271D01*
X120731874Y-62507072D01*
X120735000Y-62499526D01*
X120735000Y-62032342D01*
X123092667Y-62032342D01*
X123121108Y-62570644D01*
X123272389Y-62935869D01*
X123510226Y-63000169D01*
X124280395Y-62230000D01*
X123510226Y-61459831D01*
X123272389Y-61524131D01*
X123092667Y-62032342D01*
X120735000Y-62032342D01*
X120735000Y-61960474D01*
X120528714Y-61462454D01*
X120147546Y-61081286D01*
X120140000Y-61078160D01*
X120140000Y-58301840D01*
X120147546Y-58298714D01*
X120528714Y-57917546D01*
X120735000Y-57419526D01*
X120735000Y-56952342D01*
X123092667Y-56952342D01*
X123121108Y-57490644D01*
X123272389Y-57855869D01*
X123510226Y-57920169D01*
X124280395Y-57150000D01*
X123510226Y-56379831D01*
X123272389Y-56444131D01*
X123092667Y-56952342D01*
X120735000Y-56952342D01*
X120735000Y-56880474D01*
X120528714Y-56382454D01*
X120346486Y-56200226D01*
X123689831Y-56200226D01*
X124460000Y-56970395D01*
X125230169Y-56200226D01*
X125165869Y-55962389D01*
X124657658Y-55782667D01*
X124119356Y-55811108D01*
X123754131Y-55962389D01*
X123689831Y-56200226D01*
X120346486Y-56200226D01*
X120147546Y-56001286D01*
X120140000Y-55998160D01*
X120140000Y-53221840D01*
X120147546Y-53218714D01*
X120528714Y-52837546D01*
X120735000Y-52339526D01*
X120735000Y-51872342D01*
X123092667Y-51872342D01*
X123121108Y-52410644D01*
X123272389Y-52775869D01*
X123510226Y-52840169D01*
X124280395Y-52070000D01*
X123510226Y-51299831D01*
X123272389Y-51364131D01*
X123092667Y-51872342D01*
X120735000Y-51872342D01*
X120735000Y-51800474D01*
X120528714Y-51302454D01*
X120147546Y-50921286D01*
X119649526Y-50715000D01*
X119110474Y-50715000D01*
X118612454Y-50921286D01*
X118231286Y-51302454D01*
X118110000Y-51595265D01*
X117988714Y-51302454D01*
X117607546Y-50921286D01*
X117109526Y-50715000D01*
X116570474Y-50715000D01*
X116072454Y-50921286D01*
X115691286Y-51302454D01*
X115576675Y-51579151D01*
X115487611Y-51364131D01*
X115249774Y-51299831D01*
X114479605Y-52070000D01*
X115249774Y-52840169D01*
X115487611Y-52775869D01*
X115569649Y-52543886D01*
X115691286Y-52837546D01*
X116072454Y-53218714D01*
X116570474Y-53425000D01*
X117109526Y-53425000D01*
X117117073Y-53421874D01*
X117350000Y-53654802D01*
X117350000Y-55894607D01*
X117109526Y-55795000D01*
X116570474Y-55795000D01*
X116562927Y-55798126D01*
X116370731Y-55605930D01*
X116328329Y-55542471D01*
X116076937Y-55374496D01*
X115855252Y-55330400D01*
X115855247Y-55330400D01*
X115780400Y-55315512D01*
X115705553Y-55330400D01*
X113921946Y-55330400D01*
X113847099Y-55315512D01*
X113772252Y-55330400D01*
X113772248Y-55330400D01*
X113550563Y-55374496D01*
X113299171Y-55542471D01*
X113256771Y-55605927D01*
X112520700Y-56341999D01*
X112520700Y-53019774D01*
X113529831Y-53019774D01*
X113594131Y-53257611D01*
X114102342Y-53437333D01*
X114640644Y-53408892D01*
X115005869Y-53257611D01*
X115070169Y-53019774D01*
X114300000Y-52249605D01*
X113529831Y-53019774D01*
X112520700Y-53019774D01*
X112520700Y-52524401D01*
X112944716Y-52100386D01*
X112961108Y-52410644D01*
X113112389Y-52775869D01*
X113350226Y-52840169D01*
X114120395Y-52070000D01*
X114106253Y-52055858D01*
X114285858Y-51876253D01*
X114300000Y-51890395D01*
X115070169Y-51120226D01*
X115005869Y-50882389D01*
X114497658Y-50702667D01*
X114333776Y-50711326D01*
X116054473Y-48990629D01*
X116117929Y-48948229D01*
X116277109Y-48710000D01*
X116283941Y-48699776D01*
X116417765Y-48673157D01*
X116627809Y-48532809D01*
X116668654Y-48471680D01*
X116810302Y-48613327D01*
X117043691Y-48710000D01*
X117484250Y-48710000D01*
X117643000Y-48551250D01*
X117643000Y-47752000D01*
X117897000Y-47752000D01*
X117897000Y-48551250D01*
X118055750Y-48710000D01*
X118496309Y-48710000D01*
X118729698Y-48613327D01*
X118908327Y-48434699D01*
X119005000Y-48201310D01*
X119005000Y-47910750D01*
X118846250Y-47752000D01*
X117897000Y-47752000D01*
X117643000Y-47752000D01*
X117623000Y-47752000D01*
X117623000Y-47498000D01*
X117643000Y-47498000D01*
X117643000Y-46698750D01*
X117897000Y-46698750D01*
X117897000Y-47498000D01*
X118846250Y-47498000D01*
X119005000Y-47339250D01*
X119005000Y-47048690D01*
X118908327Y-46815301D01*
X118729698Y-46636673D01*
X118496309Y-46540000D01*
X118055750Y-46540000D01*
X117897000Y-46698750D01*
X117643000Y-46698750D01*
X117484250Y-46540000D01*
X117043691Y-46540000D01*
X116969279Y-46570822D01*
X117324473Y-46215629D01*
X117387929Y-46173229D01*
X117555904Y-45921837D01*
X117593571Y-45732474D01*
X117910625Y-45520625D01*
X117925096Y-45498967D01*
X117991673Y-45659698D01*
X118170301Y-45838327D01*
X118403690Y-45935000D01*
X119094250Y-45935000D01*
X119253000Y-45776250D01*
X119253000Y-44577000D01*
X119507000Y-44577000D01*
X119507000Y-45776250D01*
X119665750Y-45935000D01*
X120356310Y-45935000D01*
X120589699Y-45838327D01*
X120768327Y-45659698D01*
X120865000Y-45426309D01*
X120865000Y-44735750D01*
X120706250Y-44577000D01*
X119507000Y-44577000D01*
X119253000Y-44577000D01*
X119233000Y-44577000D01*
X119233000Y-44323000D01*
X119253000Y-44323000D01*
X119253000Y-44303000D01*
X119507000Y-44303000D01*
X119507000Y-44323000D01*
X120706250Y-44323000D01*
X120865000Y-44164250D01*
X120865000Y-44020800D01*
X123031281Y-44020800D01*
X122945908Y-44450000D01*
X122945908Y-44450000D01*
G37*
X122945908Y-44450000D02*
X123061161Y-45029418D01*
X123389375Y-45520625D01*
X123880582Y-45848839D01*
X124313744Y-45935000D01*
X124606256Y-45935000D01*
X125039418Y-45848839D01*
X125530625Y-45520625D01*
X125730000Y-45222239D01*
X125929375Y-45520625D01*
X125989619Y-45560879D01*
X125382953Y-46167546D01*
X125182071Y-46301771D01*
X125016060Y-46550224D01*
X124882235Y-46576843D01*
X124672191Y-46717191D01*
X124531843Y-46927235D01*
X124482560Y-47175000D01*
X124482560Y-48075000D01*
X124531843Y-48322765D01*
X124672191Y-48532809D01*
X124882235Y-48673157D01*
X124970001Y-48690615D01*
X124970001Y-50813123D01*
X124657658Y-50702667D01*
X124119356Y-50731108D01*
X123754131Y-50882389D01*
X123689831Y-51120226D01*
X124460000Y-51890395D01*
X124474143Y-51876253D01*
X124653748Y-52055858D01*
X124639605Y-52070000D01*
X124653748Y-52084143D01*
X124474143Y-52263748D01*
X124460000Y-52249605D01*
X123689831Y-53019774D01*
X123754131Y-53257611D01*
X124262342Y-53437333D01*
X124800644Y-53408892D01*
X124970000Y-53338742D01*
X124970000Y-54310553D01*
X124955112Y-54385400D01*
X124970000Y-54460247D01*
X124970000Y-54460251D01*
X125014096Y-54681936D01*
X125182071Y-54933329D01*
X125245530Y-54975731D01*
X126259770Y-55989971D01*
X126232454Y-56001286D01*
X125851286Y-56382454D01*
X125736675Y-56659151D01*
X125647611Y-56444131D01*
X125409774Y-56379831D01*
X124639605Y-57150000D01*
X124653748Y-57164143D01*
X124474143Y-57343748D01*
X124460000Y-57329605D01*
X123689831Y-58099774D01*
X123754131Y-58337611D01*
X124262342Y-58517333D01*
X124800644Y-58488892D01*
X125129400Y-58352717D01*
X125129401Y-61029492D01*
X124657658Y-60862667D01*
X124119356Y-60891108D01*
X123754131Y-61042389D01*
X123689831Y-61280226D01*
X124460000Y-62050395D01*
X124474143Y-62036253D01*
X124653748Y-62215858D01*
X124639605Y-62230000D01*
X124653748Y-62244143D01*
X124474143Y-62423748D01*
X124460000Y-62409605D01*
X123689831Y-63179774D01*
X123754131Y-63417611D01*
X124262342Y-63597333D01*
X124800644Y-63568892D01*
X125165869Y-63417611D01*
X125230168Y-63179776D01*
X125345337Y-63294945D01*
X125426190Y-63214092D01*
X133687573Y-71475476D01*
X133729971Y-71538929D01*
X133793424Y-71581327D01*
X133793426Y-71581329D01*
X133898900Y-71651804D01*
X133972300Y-71700848D01*
X133972300Y-71755002D01*
X134131048Y-71755002D01*
X133972300Y-71913750D01*
X133972300Y-72059110D01*
X134059613Y-72269902D01*
X134009143Y-72345435D01*
X133959860Y-72593200D01*
X133959860Y-73202800D01*
X134008535Y-73447507D01*
X133985463Y-73452096D01*
X133734071Y-73620071D01*
X133691669Y-73683530D01*
X133459528Y-73915671D01*
X133396072Y-73958071D01*
X133353672Y-74021527D01*
X133353671Y-74021528D01*
X133228097Y-74209463D01*
X133169112Y-74506000D01*
X133184001Y-74580851D01*
X133184000Y-75134386D01*
X133096235Y-75151843D01*
X132886191Y-75292191D01*
X132745843Y-75502235D01*
X132696560Y-75750000D01*
X132696560Y-76650000D01*
X132745843Y-76897765D01*
X132748683Y-76902016D01*
X132588428Y-77062271D01*
X132524972Y-77104671D01*
X132482572Y-77168127D01*
X132482571Y-77168128D01*
X132361674Y-77349063D01*
X132356997Y-77356063D01*
X132320827Y-77537904D01*
X132298012Y-77652600D01*
X132312901Y-77727451D01*
X132312900Y-78718253D01*
X132298012Y-78793100D01*
X132312900Y-78867947D01*
X132312900Y-78867951D01*
X132356996Y-79089636D01*
X132524971Y-79341029D01*
X132588430Y-79383431D01*
X133357618Y-80152620D01*
X133345901Y-80157473D01*
X133167273Y-80336102D01*
X133125547Y-80436837D01*
X132798574Y-80301400D01*
X132386826Y-80301400D01*
X132006420Y-80458969D01*
X131811700Y-80653689D01*
X131811700Y-76516547D01*
X131826588Y-76441700D01*
X131811700Y-76366853D01*
X131811700Y-76366848D01*
X131767604Y-76145163D01*
X131599629Y-75893771D01*
X131536173Y-75851371D01*
X129721372Y-74036570D01*
X129755000Y-73955385D01*
X129755000Y-73364615D01*
X129528922Y-72818815D01*
X129111185Y-72401078D01*
X129084440Y-72390000D01*
X129111185Y-72378922D01*
X129528922Y-71961185D01*
X129755000Y-71415385D01*
X129755000Y-70824615D01*
X129528922Y-70278815D01*
X129111185Y-69861078D01*
X128565385Y-69635000D01*
X127974615Y-69635000D01*
X127428815Y-69861078D01*
X127193006Y-70096887D01*
X127178157Y-70022235D01*
X127037809Y-69812191D01*
X126827765Y-69671843D01*
X126580000Y-69622560D01*
X124880000Y-69622560D01*
X124632235Y-69671843D01*
X124422191Y-69812191D01*
X124281843Y-70022235D01*
X124232560Y-70270000D01*
X124232560Y-71970000D01*
X124281843Y-72217765D01*
X124315285Y-72267814D01*
X124070228Y-72512871D01*
X124006772Y-72555271D01*
X123964372Y-72618727D01*
X123964371Y-72618728D01*
X123838797Y-72806663D01*
X123779812Y-73103200D01*
X123794701Y-73178051D01*
X123794700Y-73883598D01*
X121581000Y-76097299D01*
X121581000Y-73847246D01*
X121595888Y-73772399D01*
X121581000Y-73697552D01*
X121581000Y-73697548D01*
X121536904Y-73475863D01*
X121486038Y-73399737D01*
X121411329Y-73287926D01*
X121411327Y-73287924D01*
X121368929Y-73224471D01*
X121305475Y-73182073D01*
X120536931Y-72413529D01*
X120494529Y-72350071D01*
X120269668Y-72199824D01*
X120305429Y-72175929D01*
X120347831Y-72112470D01*
X120934073Y-71526229D01*
X120997529Y-71483829D01*
X121165504Y-71232437D01*
X121209600Y-71010752D01*
X121209600Y-71010748D01*
X121224488Y-70935901D01*
X121209600Y-70861054D01*
X121209600Y-63374448D01*
X121224488Y-63299600D01*
X121209600Y-63224752D01*
X121209600Y-63224748D01*
X121165504Y-63003063D01*
X121165504Y-63003062D01*
X121039929Y-62815127D01*
X120997529Y-62751671D01*
X120934073Y-62709271D01*
X120731874Y-62507072D01*
X120735000Y-62499526D01*
X120735000Y-62032342D01*
X123092667Y-62032342D01*
X123121108Y-62570644D01*
X123272389Y-62935869D01*
X123510226Y-63000169D01*
X124280395Y-62230000D01*
X123510226Y-61459831D01*
X123272389Y-61524131D01*
X123092667Y-62032342D01*
X120735000Y-62032342D01*
X120735000Y-61960474D01*
X120528714Y-61462454D01*
X120147546Y-61081286D01*
X120140000Y-61078160D01*
X120140000Y-58301840D01*
X120147546Y-58298714D01*
X120528714Y-57917546D01*
X120735000Y-57419526D01*
X120735000Y-56952342D01*
X123092667Y-56952342D01*
X123121108Y-57490644D01*
X123272389Y-57855869D01*
X123510226Y-57920169D01*
X124280395Y-57150000D01*
X123510226Y-56379831D01*
X123272389Y-56444131D01*
X123092667Y-56952342D01*
X120735000Y-56952342D01*
X120735000Y-56880474D01*
X120528714Y-56382454D01*
X120346486Y-56200226D01*
X123689831Y-56200226D01*
X124460000Y-56970395D01*
X125230169Y-56200226D01*
X125165869Y-55962389D01*
X124657658Y-55782667D01*
X124119356Y-55811108D01*
X123754131Y-55962389D01*
X123689831Y-56200226D01*
X120346486Y-56200226D01*
X120147546Y-56001286D01*
X120140000Y-55998160D01*
X120140000Y-53221840D01*
X120147546Y-53218714D01*
X120528714Y-52837546D01*
X120735000Y-52339526D01*
X120735000Y-51872342D01*
X123092667Y-51872342D01*
X123121108Y-52410644D01*
X123272389Y-52775869D01*
X123510226Y-52840169D01*
X124280395Y-52070000D01*
X123510226Y-51299831D01*
X123272389Y-51364131D01*
X123092667Y-51872342D01*
X120735000Y-51872342D01*
X120735000Y-51800474D01*
X120528714Y-51302454D01*
X120147546Y-50921286D01*
X119649526Y-50715000D01*
X119110474Y-50715000D01*
X118612454Y-50921286D01*
X118231286Y-51302454D01*
X118110000Y-51595265D01*
X117988714Y-51302454D01*
X117607546Y-50921286D01*
X117109526Y-50715000D01*
X116570474Y-50715000D01*
X116072454Y-50921286D01*
X115691286Y-51302454D01*
X115576675Y-51579151D01*
X115487611Y-51364131D01*
X115249774Y-51299831D01*
X114479605Y-52070000D01*
X115249774Y-52840169D01*
X115487611Y-52775869D01*
X115569649Y-52543886D01*
X115691286Y-52837546D01*
X116072454Y-53218714D01*
X116570474Y-53425000D01*
X117109526Y-53425000D01*
X117117073Y-53421874D01*
X117350000Y-53654802D01*
X117350000Y-55894607D01*
X117109526Y-55795000D01*
X116570474Y-55795000D01*
X116562927Y-55798126D01*
X116370731Y-55605930D01*
X116328329Y-55542471D01*
X116076937Y-55374496D01*
X115855252Y-55330400D01*
X115855247Y-55330400D01*
X115780400Y-55315512D01*
X115705553Y-55330400D01*
X113921946Y-55330400D01*
X113847099Y-55315512D01*
X113772252Y-55330400D01*
X113772248Y-55330400D01*
X113550563Y-55374496D01*
X113299171Y-55542471D01*
X113256771Y-55605927D01*
X112520700Y-56341999D01*
X112520700Y-53019774D01*
X113529831Y-53019774D01*
X113594131Y-53257611D01*
X114102342Y-53437333D01*
X114640644Y-53408892D01*
X115005869Y-53257611D01*
X115070169Y-53019774D01*
X114300000Y-52249605D01*
X113529831Y-53019774D01*
X112520700Y-53019774D01*
X112520700Y-52524401D01*
X112944716Y-52100386D01*
X112961108Y-52410644D01*
X113112389Y-52775869D01*
X113350226Y-52840169D01*
X114120395Y-52070000D01*
X114106253Y-52055858D01*
X114285858Y-51876253D01*
X114300000Y-51890395D01*
X115070169Y-51120226D01*
X115005869Y-50882389D01*
X114497658Y-50702667D01*
X114333776Y-50711326D01*
X116054473Y-48990629D01*
X116117929Y-48948229D01*
X116277109Y-48710000D01*
X116283941Y-48699776D01*
X116417765Y-48673157D01*
X116627809Y-48532809D01*
X116668654Y-48471680D01*
X116810302Y-48613327D01*
X117043691Y-48710000D01*
X117484250Y-48710000D01*
X117643000Y-48551250D01*
X117643000Y-47752000D01*
X117897000Y-47752000D01*
X117897000Y-48551250D01*
X118055750Y-48710000D01*
X118496309Y-48710000D01*
X118729698Y-48613327D01*
X118908327Y-48434699D01*
X119005000Y-48201310D01*
X119005000Y-47910750D01*
X118846250Y-47752000D01*
X117897000Y-47752000D01*
X117643000Y-47752000D01*
X117623000Y-47752000D01*
X117623000Y-47498000D01*
X117643000Y-47498000D01*
X117643000Y-46698750D01*
X117897000Y-46698750D01*
X117897000Y-47498000D01*
X118846250Y-47498000D01*
X119005000Y-47339250D01*
X119005000Y-47048690D01*
X118908327Y-46815301D01*
X118729698Y-46636673D01*
X118496309Y-46540000D01*
X118055750Y-46540000D01*
X117897000Y-46698750D01*
X117643000Y-46698750D01*
X117484250Y-46540000D01*
X117043691Y-46540000D01*
X116969279Y-46570822D01*
X117324473Y-46215629D01*
X117387929Y-46173229D01*
X117555904Y-45921837D01*
X117593571Y-45732474D01*
X117910625Y-45520625D01*
X117925096Y-45498967D01*
X117991673Y-45659698D01*
X118170301Y-45838327D01*
X118403690Y-45935000D01*
X119094250Y-45935000D01*
X119253000Y-45776250D01*
X119253000Y-44577000D01*
X119507000Y-44577000D01*
X119507000Y-45776250D01*
X119665750Y-45935000D01*
X120356310Y-45935000D01*
X120589699Y-45838327D01*
X120768327Y-45659698D01*
X120865000Y-45426309D01*
X120865000Y-44735750D01*
X120706250Y-44577000D01*
X119507000Y-44577000D01*
X119253000Y-44577000D01*
X119233000Y-44577000D01*
X119233000Y-44323000D01*
X119253000Y-44323000D01*
X119253000Y-44303000D01*
X119507000Y-44303000D01*
X119507000Y-44323000D01*
X120706250Y-44323000D01*
X120865000Y-44164250D01*
X120865000Y-44020800D01*
X123031281Y-44020800D01*
X122945908Y-44450000D01*
G36*
X144419000Y-71755000D02*
X144399000Y-71755000D01*
X144399000Y-71775000D01*
X144145000Y-71775000D01*
X144145000Y-71755000D01*
X144125000Y-71755000D01*
X144125000Y-71748200D01*
X144419000Y-71748200D01*
X144419000Y-71755000D01*
X144419000Y-71755000D01*
G37*
X144419000Y-71755000D02*
X144399000Y-71755000D01*
X144399000Y-71775000D01*
X144145000Y-71775000D01*
X144145000Y-71755000D01*
X144125000Y-71755000D01*
X144125000Y-71748200D01*
X144419000Y-71748200D01*
X144419000Y-71755000D01*
G36*
X135783000Y-71755000D02*
X135763000Y-71755000D01*
X135763000Y-71775000D01*
X135509000Y-71775000D01*
X135509000Y-71755000D01*
X135489000Y-71755000D01*
X135489000Y-71751000D01*
X135783000Y-71751000D01*
X135783000Y-71755000D01*
X135783000Y-71755000D01*
G37*
X135783000Y-71755000D02*
X135763000Y-71755000D01*
X135763000Y-71775000D01*
X135509000Y-71775000D01*
X135509000Y-71755000D01*
X135489000Y-71755000D01*
X135489000Y-71751000D01*
X135783000Y-71751000D01*
X135783000Y-71755000D01*
G36*
X113919000Y-71775000D02*
X113665000Y-71775000D01*
X113665000Y-71757800D01*
X113919000Y-71757800D01*
X113919000Y-71775000D01*
X113919000Y-71775000D01*
G37*
X113919000Y-71775000D02*
X113665000Y-71775000D01*
X113665000Y-71757800D01*
X113919000Y-71757800D01*
X113919000Y-71775000D01*
G36*
X133898543Y-56020045D02*
X133849831Y-56200226D01*
X134620000Y-56970395D01*
X134634143Y-56956253D01*
X134813748Y-57135858D01*
X134799605Y-57150000D01*
X134813748Y-57164143D01*
X134634143Y-57343748D01*
X134620000Y-57329605D01*
X133849831Y-58099774D01*
X133914131Y-58337611D01*
X134422342Y-58517333D01*
X134905400Y-58491811D01*
X134905401Y-60893696D01*
X134817658Y-60862667D01*
X134279356Y-60891108D01*
X133914131Y-61042389D01*
X133849831Y-61280226D01*
X134620000Y-62050395D01*
X134634143Y-62036253D01*
X134813748Y-62215858D01*
X134799605Y-62230000D01*
X134813748Y-62244143D01*
X134634143Y-62423748D01*
X134620000Y-62409605D01*
X133849831Y-63179774D01*
X133914131Y-63417611D01*
X134422342Y-63597333D01*
X134960644Y-63568892D01*
X135025994Y-63541823D01*
X135066869Y-63602996D01*
X135117472Y-63678729D01*
X135180928Y-63721129D01*
X138492270Y-67032472D01*
X138534671Y-67095929D01*
X138664982Y-67183000D01*
X138534671Y-67270071D01*
X138492271Y-67333527D01*
X137497799Y-68328000D01*
X137267023Y-68328000D01*
X137299700Y-68249110D01*
X137299700Y-68103750D01*
X137140950Y-67945000D01*
X135763000Y-67945000D01*
X135763000Y-67965000D01*
X135509000Y-67965000D01*
X135509000Y-67945000D01*
X135489000Y-67945000D01*
X135489000Y-67691000D01*
X135509000Y-67691000D01*
X135509000Y-66675000D01*
X135763000Y-66675000D01*
X135763000Y-67691000D01*
X137140950Y-67691000D01*
X137299700Y-67532250D01*
X137299700Y-67386890D01*
X137215246Y-67183000D01*
X137299700Y-66979110D01*
X137299700Y-66833750D01*
X137140950Y-66675000D01*
X135763000Y-66675000D01*
X135509000Y-66675000D01*
X134131050Y-66675000D01*
X133972300Y-66833750D01*
X133972300Y-66979110D01*
X134056754Y-67183000D01*
X133972300Y-67386890D01*
X133972300Y-67532250D01*
X134131048Y-67690998D01*
X133972300Y-67690998D01*
X133972300Y-67703498D01*
X132385692Y-66116890D01*
X133972300Y-66116890D01*
X133972300Y-66262250D01*
X134131050Y-66421000D01*
X135509000Y-66421000D01*
X135509000Y-65766950D01*
X135763000Y-65766950D01*
X135763000Y-66421000D01*
X137140950Y-66421000D01*
X137299700Y-66262250D01*
X137299700Y-66116890D01*
X137203027Y-65883501D01*
X137024398Y-65704873D01*
X136791009Y-65608200D01*
X135921750Y-65608200D01*
X135763000Y-65766950D01*
X135509000Y-65766950D01*
X135350250Y-65608200D01*
X134480991Y-65608200D01*
X134247602Y-65704873D01*
X134068973Y-65883501D01*
X133972300Y-66116890D01*
X132385692Y-66116890D01*
X129840833Y-63572032D01*
X130307546Y-63378714D01*
X130688714Y-62997546D01*
X130895000Y-62499526D01*
X130895000Y-62032342D01*
X133252667Y-62032342D01*
X133281108Y-62570644D01*
X133432389Y-62935869D01*
X133670226Y-63000169D01*
X134440395Y-62230000D01*
X133670226Y-61459831D01*
X133432389Y-61524131D01*
X133252667Y-62032342D01*
X130895000Y-62032342D01*
X130895000Y-61960474D01*
X130688714Y-61462454D01*
X130307546Y-61081286D01*
X130300000Y-61078160D01*
X130300000Y-58301840D01*
X130307546Y-58298714D01*
X130688714Y-57917546D01*
X130895000Y-57419526D01*
X130895000Y-56952342D01*
X133252667Y-56952342D01*
X133281108Y-57490644D01*
X133432389Y-57855869D01*
X133670226Y-57920169D01*
X134440395Y-57150000D01*
X133670226Y-56379831D01*
X133432389Y-56444131D01*
X133252667Y-56952342D01*
X130895000Y-56952342D01*
X130895000Y-56880474D01*
X130688714Y-56382454D01*
X130307546Y-56001286D01*
X130300000Y-55998160D01*
X130300000Y-53221840D01*
X130307546Y-53218714D01*
X130688714Y-52837546D01*
X130696719Y-52818220D01*
X133898543Y-56020045D01*
X133898543Y-56020045D01*
G37*
X133898543Y-56020045D02*
X133849831Y-56200226D01*
X134620000Y-56970395D01*
X134634143Y-56956253D01*
X134813748Y-57135858D01*
X134799605Y-57150000D01*
X134813748Y-57164143D01*
X134634143Y-57343748D01*
X134620000Y-57329605D01*
X133849831Y-58099774D01*
X133914131Y-58337611D01*
X134422342Y-58517333D01*
X134905400Y-58491811D01*
X134905401Y-60893696D01*
X134817658Y-60862667D01*
X134279356Y-60891108D01*
X133914131Y-61042389D01*
X133849831Y-61280226D01*
X134620000Y-62050395D01*
X134634143Y-62036253D01*
X134813748Y-62215858D01*
X134799605Y-62230000D01*
X134813748Y-62244143D01*
X134634143Y-62423748D01*
X134620000Y-62409605D01*
X133849831Y-63179774D01*
X133914131Y-63417611D01*
X134422342Y-63597333D01*
X134960644Y-63568892D01*
X135025994Y-63541823D01*
X135066869Y-63602996D01*
X135117472Y-63678729D01*
X135180928Y-63721129D01*
X138492270Y-67032472D01*
X138534671Y-67095929D01*
X138664982Y-67183000D01*
X138534671Y-67270071D01*
X138492271Y-67333527D01*
X137497799Y-68328000D01*
X137267023Y-68328000D01*
X137299700Y-68249110D01*
X137299700Y-68103750D01*
X137140950Y-67945000D01*
X135763000Y-67945000D01*
X135763000Y-67965000D01*
X135509000Y-67965000D01*
X135509000Y-67945000D01*
X135489000Y-67945000D01*
X135489000Y-67691000D01*
X135509000Y-67691000D01*
X135509000Y-66675000D01*
X135763000Y-66675000D01*
X135763000Y-67691000D01*
X137140950Y-67691000D01*
X137299700Y-67532250D01*
X137299700Y-67386890D01*
X137215246Y-67183000D01*
X137299700Y-66979110D01*
X137299700Y-66833750D01*
X137140950Y-66675000D01*
X135763000Y-66675000D01*
X135509000Y-66675000D01*
X134131050Y-66675000D01*
X133972300Y-66833750D01*
X133972300Y-66979110D01*
X134056754Y-67183000D01*
X133972300Y-67386890D01*
X133972300Y-67532250D01*
X134131048Y-67690998D01*
X133972300Y-67690998D01*
X133972300Y-67703498D01*
X132385692Y-66116890D01*
X133972300Y-66116890D01*
X133972300Y-66262250D01*
X134131050Y-66421000D01*
X135509000Y-66421000D01*
X135509000Y-65766950D01*
X135763000Y-65766950D01*
X135763000Y-66421000D01*
X137140950Y-66421000D01*
X137299700Y-66262250D01*
X137299700Y-66116890D01*
X137203027Y-65883501D01*
X137024398Y-65704873D01*
X136791009Y-65608200D01*
X135921750Y-65608200D01*
X135763000Y-65766950D01*
X135509000Y-65766950D01*
X135350250Y-65608200D01*
X134480991Y-65608200D01*
X134247602Y-65704873D01*
X134068973Y-65883501D01*
X133972300Y-66116890D01*
X132385692Y-66116890D01*
X129840833Y-63572032D01*
X130307546Y-63378714D01*
X130688714Y-62997546D01*
X130895000Y-62499526D01*
X130895000Y-62032342D01*
X133252667Y-62032342D01*
X133281108Y-62570644D01*
X133432389Y-62935869D01*
X133670226Y-63000169D01*
X134440395Y-62230000D01*
X133670226Y-61459831D01*
X133432389Y-61524131D01*
X133252667Y-62032342D01*
X130895000Y-62032342D01*
X130895000Y-61960474D01*
X130688714Y-61462454D01*
X130307546Y-61081286D01*
X130300000Y-61078160D01*
X130300000Y-58301840D01*
X130307546Y-58298714D01*
X130688714Y-57917546D01*
X130895000Y-57419526D01*
X130895000Y-56952342D01*
X133252667Y-56952342D01*
X133281108Y-57490644D01*
X133432389Y-57855869D01*
X133670226Y-57920169D01*
X134440395Y-57150000D01*
X133670226Y-56379831D01*
X133432389Y-56444131D01*
X133252667Y-56952342D01*
X130895000Y-56952342D01*
X130895000Y-56880474D01*
X130688714Y-56382454D01*
X130307546Y-56001286D01*
X130300000Y-55998160D01*
X130300000Y-53221840D01*
X130307546Y-53218714D01*
X130688714Y-52837546D01*
X130696719Y-52818220D01*
X133898543Y-56020045D01*
G36*
X134642560Y-47255962D02*
X134642560Y-48075000D01*
X134691843Y-48322765D01*
X134832191Y-48532809D01*
X135042235Y-48673157D01*
X135290000Y-48722440D01*
X136490000Y-48722440D01*
X136737765Y-48673157D01*
X136947809Y-48532809D01*
X136988654Y-48471680D01*
X137130302Y-48613327D01*
X137363691Y-48710000D01*
X137804250Y-48710000D01*
X137963000Y-48551250D01*
X137963000Y-47752000D01*
X138217000Y-47752000D01*
X138217000Y-48551250D01*
X138375750Y-48710000D01*
X138816309Y-48710000D01*
X139049698Y-48613327D01*
X139228327Y-48434699D01*
X139325000Y-48201310D01*
X139325000Y-47910750D01*
X139166250Y-47752000D01*
X138217000Y-47752000D01*
X137963000Y-47752000D01*
X137943000Y-47752000D01*
X137943000Y-47498000D01*
X137963000Y-47498000D01*
X137963000Y-46698750D01*
X138217000Y-46698750D01*
X138217000Y-47498000D01*
X139166250Y-47498000D01*
X139325000Y-47339250D01*
X139325000Y-47048690D01*
X139228327Y-46815301D01*
X139049698Y-46636673D01*
X138816309Y-46540000D01*
X138375750Y-46540000D01*
X138217000Y-46698750D01*
X137963000Y-46698750D01*
X137804250Y-46540000D01*
X137363691Y-46540000D01*
X137289279Y-46570822D01*
X137644473Y-46215629D01*
X137707929Y-46173229D01*
X137875904Y-45921837D01*
X137913571Y-45732474D01*
X138230625Y-45520625D01*
X138245096Y-45498967D01*
X138311673Y-45659698D01*
X138490301Y-45838327D01*
X138723690Y-45935000D01*
X139414250Y-45935000D01*
X139573000Y-45776250D01*
X139573000Y-44577000D01*
X139827000Y-44577000D01*
X139827000Y-45776250D01*
X139985750Y-45935000D01*
X140676310Y-45935000D01*
X140909699Y-45838327D01*
X141088327Y-45659698D01*
X141185000Y-45426309D01*
X141185000Y-44735750D01*
X141026250Y-44577000D01*
X139827000Y-44577000D01*
X139573000Y-44577000D01*
X139553000Y-44577000D01*
X139553000Y-44323000D01*
X139573000Y-44323000D01*
X139573000Y-44303000D01*
X139827000Y-44303000D01*
X139827000Y-44323000D01*
X141026250Y-44323000D01*
X141185000Y-44164250D01*
X141185000Y-44034600D01*
X143348536Y-44034600D01*
X143265908Y-44450000D01*
X143381161Y-45029418D01*
X143709375Y-45520625D01*
X144200582Y-45848839D01*
X144633744Y-45935000D01*
X144926256Y-45935000D01*
X145359418Y-45848839D01*
X145850625Y-45520625D01*
X146050000Y-45222239D01*
X146249375Y-45520625D01*
X146309619Y-45560879D01*
X145702953Y-46167546D01*
X145502071Y-46301771D01*
X145336060Y-46550224D01*
X145202235Y-46576843D01*
X144992191Y-46717191D01*
X144851843Y-46927235D01*
X144802560Y-47175000D01*
X144802560Y-48075000D01*
X144851843Y-48322765D01*
X144932309Y-48443189D01*
X142433530Y-50941969D01*
X142370071Y-50984371D01*
X142202096Y-51235764D01*
X142158000Y-51457449D01*
X142158000Y-51457453D01*
X142143112Y-51532300D01*
X142158000Y-51607147D01*
X142158001Y-66473143D01*
X142143111Y-66548000D01*
X142158000Y-66622852D01*
X142158000Y-67149445D01*
X142087137Y-67102096D01*
X142064065Y-67097507D01*
X142112740Y-66852800D01*
X142112740Y-66243200D01*
X142063457Y-65995435D01*
X141923109Y-65785391D01*
X141713065Y-65645043D01*
X141465300Y-65595760D01*
X139407900Y-65595760D01*
X139238798Y-65629396D01*
X137194401Y-63585000D01*
X137429526Y-63585000D01*
X137927546Y-63378714D01*
X138308714Y-62997546D01*
X138430000Y-62704735D01*
X138551286Y-62997546D01*
X138932454Y-63378714D01*
X139430474Y-63585000D01*
X139969526Y-63585000D01*
X140467546Y-63378714D01*
X140848714Y-62997546D01*
X141055000Y-62499526D01*
X141055000Y-61960474D01*
X140848714Y-61462454D01*
X140467546Y-61081286D01*
X140460000Y-61078160D01*
X140460000Y-58301840D01*
X140467546Y-58298714D01*
X140848714Y-57917546D01*
X141055000Y-57419526D01*
X141055000Y-56880474D01*
X140848714Y-56382454D01*
X140467546Y-56001286D01*
X140460000Y-55998160D01*
X140460000Y-53221840D01*
X140467546Y-53218714D01*
X140848714Y-52837546D01*
X141055000Y-52339526D01*
X141055000Y-51800474D01*
X140848714Y-51302454D01*
X140467546Y-50921286D01*
X139969526Y-50715000D01*
X139430474Y-50715000D01*
X138932454Y-50921286D01*
X138551286Y-51302454D01*
X138430000Y-51595265D01*
X138308714Y-51302454D01*
X137927546Y-50921286D01*
X137429526Y-50715000D01*
X136890474Y-50715000D01*
X136392454Y-50921286D01*
X136011286Y-51302454D01*
X135896675Y-51579151D01*
X135807611Y-51364131D01*
X135569774Y-51299831D01*
X134799605Y-52070000D01*
X135569774Y-52840169D01*
X135807611Y-52775869D01*
X135889649Y-52543886D01*
X136011286Y-52837546D01*
X136392454Y-53218714D01*
X136890474Y-53425000D01*
X137429526Y-53425000D01*
X137927546Y-53218714D01*
X138308714Y-52837546D01*
X138430000Y-52544735D01*
X138551286Y-52837546D01*
X138932454Y-53218714D01*
X138940001Y-53221840D01*
X138940000Y-55998160D01*
X138932454Y-56001286D01*
X138551286Y-56382454D01*
X138430000Y-56675265D01*
X138308714Y-56382454D01*
X137927546Y-56001286D01*
X137429526Y-55795000D01*
X136890474Y-55795000D01*
X136392454Y-56001286D01*
X136219834Y-56173906D01*
X136213329Y-56164171D01*
X136149873Y-56121771D01*
X133047876Y-53019774D01*
X133849831Y-53019774D01*
X133914131Y-53257611D01*
X134422342Y-53437333D01*
X134960644Y-53408892D01*
X135325869Y-53257611D01*
X135390169Y-53019774D01*
X134620000Y-52249605D01*
X133849831Y-53019774D01*
X133047876Y-53019774D01*
X131900444Y-51872342D01*
X133252667Y-51872342D01*
X133281108Y-52410644D01*
X133432389Y-52775869D01*
X133670226Y-52840169D01*
X134440395Y-52070000D01*
X133670226Y-51299831D01*
X133432389Y-51364131D01*
X133252667Y-51872342D01*
X131900444Y-51872342D01*
X131148328Y-51120226D01*
X133849831Y-51120226D01*
X134620000Y-51890395D01*
X135390169Y-51120226D01*
X135325869Y-50882389D01*
X134817658Y-50702667D01*
X134279356Y-50731108D01*
X133914131Y-50882389D01*
X133849831Y-51120226D01*
X131148328Y-51120226D01*
X130566031Y-50537930D01*
X130523629Y-50474471D01*
X130272237Y-50306496D01*
X130050552Y-50262400D01*
X130050547Y-50262400D01*
X129975700Y-50247512D01*
X129900853Y-50262400D01*
X128122446Y-50262400D01*
X128047599Y-50247512D01*
X127972752Y-50262400D01*
X127972748Y-50262400D01*
X127751063Y-50306496D01*
X127499671Y-50474471D01*
X127457271Y-50537927D01*
X127277072Y-50718126D01*
X127269526Y-50715000D01*
X126730474Y-50715000D01*
X126490000Y-50814607D01*
X126490000Y-48690614D01*
X126577765Y-48673157D01*
X126787809Y-48532809D01*
X126828654Y-48471680D01*
X126970302Y-48613327D01*
X127203691Y-48710000D01*
X127644250Y-48710000D01*
X127803000Y-48551250D01*
X127803000Y-47752000D01*
X128057000Y-47752000D01*
X128057000Y-48551250D01*
X128215750Y-48710000D01*
X128656309Y-48710000D01*
X128889698Y-48613327D01*
X129068327Y-48434699D01*
X129165000Y-48201310D01*
X129165000Y-47910750D01*
X129006250Y-47752000D01*
X128057000Y-47752000D01*
X127803000Y-47752000D01*
X127783000Y-47752000D01*
X127783000Y-47498000D01*
X127803000Y-47498000D01*
X127803000Y-46698750D01*
X128057000Y-46698750D01*
X128057000Y-47498000D01*
X129006250Y-47498000D01*
X129165000Y-47339250D01*
X129165000Y-47048690D01*
X129068327Y-46815301D01*
X128889698Y-46636673D01*
X128656309Y-46540000D01*
X128215750Y-46540000D01*
X128057000Y-46698750D01*
X127803000Y-46698750D01*
X127644250Y-46540000D01*
X127203691Y-46540000D01*
X127129279Y-46570822D01*
X127484473Y-46215629D01*
X127547929Y-46173229D01*
X127715904Y-45921837D01*
X127753571Y-45732474D01*
X128070625Y-45520625D01*
X128085096Y-45498967D01*
X128151673Y-45659698D01*
X128330301Y-45838327D01*
X128563690Y-45935000D01*
X129254250Y-45935000D01*
X129413000Y-45776250D01*
X129413000Y-44577000D01*
X129667000Y-44577000D01*
X129667000Y-45776250D01*
X129825750Y-45935000D01*
X130516310Y-45935000D01*
X130749699Y-45838327D01*
X130928327Y-45659698D01*
X131025000Y-45426309D01*
X131025000Y-44735750D01*
X130866250Y-44577000D01*
X129667000Y-44577000D01*
X129413000Y-44577000D01*
X129393000Y-44577000D01*
X129393000Y-44323000D01*
X129413000Y-44323000D01*
X129413000Y-44303000D01*
X129667000Y-44303000D01*
X129667000Y-44323000D01*
X130866250Y-44323000D01*
X131025000Y-44164250D01*
X131025000Y-44020800D01*
X131407399Y-44020800D01*
X134642560Y-47255962D01*
X134642560Y-47255962D01*
G37*
X134642560Y-47255962D02*
X134642560Y-48075000D01*
X134691843Y-48322765D01*
X134832191Y-48532809D01*
X135042235Y-48673157D01*
X135290000Y-48722440D01*
X136490000Y-48722440D01*
X136737765Y-48673157D01*
X136947809Y-48532809D01*
X136988654Y-48471680D01*
X137130302Y-48613327D01*
X137363691Y-48710000D01*
X137804250Y-48710000D01*
X137963000Y-48551250D01*
X137963000Y-47752000D01*
X138217000Y-47752000D01*
X138217000Y-48551250D01*
X138375750Y-48710000D01*
X138816309Y-48710000D01*
X139049698Y-48613327D01*
X139228327Y-48434699D01*
X139325000Y-48201310D01*
X139325000Y-47910750D01*
X139166250Y-47752000D01*
X138217000Y-47752000D01*
X137963000Y-47752000D01*
X137943000Y-47752000D01*
X137943000Y-47498000D01*
X137963000Y-47498000D01*
X137963000Y-46698750D01*
X138217000Y-46698750D01*
X138217000Y-47498000D01*
X139166250Y-47498000D01*
X139325000Y-47339250D01*
X139325000Y-47048690D01*
X139228327Y-46815301D01*
X139049698Y-46636673D01*
X138816309Y-46540000D01*
X138375750Y-46540000D01*
X138217000Y-46698750D01*
X137963000Y-46698750D01*
X137804250Y-46540000D01*
X137363691Y-46540000D01*
X137289279Y-46570822D01*
X137644473Y-46215629D01*
X137707929Y-46173229D01*
X137875904Y-45921837D01*
X137913571Y-45732474D01*
X138230625Y-45520625D01*
X138245096Y-45498967D01*
X138311673Y-45659698D01*
X138490301Y-45838327D01*
X138723690Y-45935000D01*
X139414250Y-45935000D01*
X139573000Y-45776250D01*
X139573000Y-44577000D01*
X139827000Y-44577000D01*
X139827000Y-45776250D01*
X139985750Y-45935000D01*
X140676310Y-45935000D01*
X140909699Y-45838327D01*
X141088327Y-45659698D01*
X141185000Y-45426309D01*
X141185000Y-44735750D01*
X141026250Y-44577000D01*
X139827000Y-44577000D01*
X139573000Y-44577000D01*
X139553000Y-44577000D01*
X139553000Y-44323000D01*
X139573000Y-44323000D01*
X139573000Y-44303000D01*
X139827000Y-44303000D01*
X139827000Y-44323000D01*
X141026250Y-44323000D01*
X141185000Y-44164250D01*
X141185000Y-44034600D01*
X143348536Y-44034600D01*
X143265908Y-44450000D01*
X143381161Y-45029418D01*
X143709375Y-45520625D01*
X144200582Y-45848839D01*
X144633744Y-45935000D01*
X144926256Y-45935000D01*
X145359418Y-45848839D01*
X145850625Y-45520625D01*
X146050000Y-45222239D01*
X146249375Y-45520625D01*
X146309619Y-45560879D01*
X145702953Y-46167546D01*
X145502071Y-46301771D01*
X145336060Y-46550224D01*
X145202235Y-46576843D01*
X144992191Y-46717191D01*
X144851843Y-46927235D01*
X144802560Y-47175000D01*
X144802560Y-48075000D01*
X144851843Y-48322765D01*
X144932309Y-48443189D01*
X142433530Y-50941969D01*
X142370071Y-50984371D01*
X142202096Y-51235764D01*
X142158000Y-51457449D01*
X142158000Y-51457453D01*
X142143112Y-51532300D01*
X142158000Y-51607147D01*
X142158001Y-66473143D01*
X142143111Y-66548000D01*
X142158000Y-66622852D01*
X142158000Y-67149445D01*
X142087137Y-67102096D01*
X142064065Y-67097507D01*
X142112740Y-66852800D01*
X142112740Y-66243200D01*
X142063457Y-65995435D01*
X141923109Y-65785391D01*
X141713065Y-65645043D01*
X141465300Y-65595760D01*
X139407900Y-65595760D01*
X139238798Y-65629396D01*
X137194401Y-63585000D01*
X137429526Y-63585000D01*
X137927546Y-63378714D01*
X138308714Y-62997546D01*
X138430000Y-62704735D01*
X138551286Y-62997546D01*
X138932454Y-63378714D01*
X139430474Y-63585000D01*
X139969526Y-63585000D01*
X140467546Y-63378714D01*
X140848714Y-62997546D01*
X141055000Y-62499526D01*
X141055000Y-61960474D01*
X140848714Y-61462454D01*
X140467546Y-61081286D01*
X140460000Y-61078160D01*
X140460000Y-58301840D01*
X140467546Y-58298714D01*
X140848714Y-57917546D01*
X141055000Y-57419526D01*
X141055000Y-56880474D01*
X140848714Y-56382454D01*
X140467546Y-56001286D01*
X140460000Y-55998160D01*
X140460000Y-53221840D01*
X140467546Y-53218714D01*
X140848714Y-52837546D01*
X141055000Y-52339526D01*
X141055000Y-51800474D01*
X140848714Y-51302454D01*
X140467546Y-50921286D01*
X139969526Y-50715000D01*
X139430474Y-50715000D01*
X138932454Y-50921286D01*
X138551286Y-51302454D01*
X138430000Y-51595265D01*
X138308714Y-51302454D01*
X137927546Y-50921286D01*
X137429526Y-50715000D01*
X136890474Y-50715000D01*
X136392454Y-50921286D01*
X136011286Y-51302454D01*
X135896675Y-51579151D01*
X135807611Y-51364131D01*
X135569774Y-51299831D01*
X134799605Y-52070000D01*
X135569774Y-52840169D01*
X135807611Y-52775869D01*
X135889649Y-52543886D01*
X136011286Y-52837546D01*
X136392454Y-53218714D01*
X136890474Y-53425000D01*
X137429526Y-53425000D01*
X137927546Y-53218714D01*
X138308714Y-52837546D01*
X138430000Y-52544735D01*
X138551286Y-52837546D01*
X138932454Y-53218714D01*
X138940001Y-53221840D01*
X138940000Y-55998160D01*
X138932454Y-56001286D01*
X138551286Y-56382454D01*
X138430000Y-56675265D01*
X138308714Y-56382454D01*
X137927546Y-56001286D01*
X137429526Y-55795000D01*
X136890474Y-55795000D01*
X136392454Y-56001286D01*
X136219834Y-56173906D01*
X136213329Y-56164171D01*
X136149873Y-56121771D01*
X133047876Y-53019774D01*
X133849831Y-53019774D01*
X133914131Y-53257611D01*
X134422342Y-53437333D01*
X134960644Y-53408892D01*
X135325869Y-53257611D01*
X135390169Y-53019774D01*
X134620000Y-52249605D01*
X133849831Y-53019774D01*
X133047876Y-53019774D01*
X131900444Y-51872342D01*
X133252667Y-51872342D01*
X133281108Y-52410644D01*
X133432389Y-52775869D01*
X133670226Y-52840169D01*
X134440395Y-52070000D01*
X133670226Y-51299831D01*
X133432389Y-51364131D01*
X133252667Y-51872342D01*
X131900444Y-51872342D01*
X131148328Y-51120226D01*
X133849831Y-51120226D01*
X134620000Y-51890395D01*
X135390169Y-51120226D01*
X135325869Y-50882389D01*
X134817658Y-50702667D01*
X134279356Y-50731108D01*
X133914131Y-50882389D01*
X133849831Y-51120226D01*
X131148328Y-51120226D01*
X130566031Y-50537930D01*
X130523629Y-50474471D01*
X130272237Y-50306496D01*
X130050552Y-50262400D01*
X130050547Y-50262400D01*
X129975700Y-50247512D01*
X129900853Y-50262400D01*
X128122446Y-50262400D01*
X128047599Y-50247512D01*
X127972752Y-50262400D01*
X127972748Y-50262400D01*
X127751063Y-50306496D01*
X127499671Y-50474471D01*
X127457271Y-50537927D01*
X127277072Y-50718126D01*
X127269526Y-50715000D01*
X126730474Y-50715000D01*
X126490000Y-50814607D01*
X126490000Y-48690614D01*
X126577765Y-48673157D01*
X126787809Y-48532809D01*
X126828654Y-48471680D01*
X126970302Y-48613327D01*
X127203691Y-48710000D01*
X127644250Y-48710000D01*
X127803000Y-48551250D01*
X127803000Y-47752000D01*
X128057000Y-47752000D01*
X128057000Y-48551250D01*
X128215750Y-48710000D01*
X128656309Y-48710000D01*
X128889698Y-48613327D01*
X129068327Y-48434699D01*
X129165000Y-48201310D01*
X129165000Y-47910750D01*
X129006250Y-47752000D01*
X128057000Y-47752000D01*
X127803000Y-47752000D01*
X127783000Y-47752000D01*
X127783000Y-47498000D01*
X127803000Y-47498000D01*
X127803000Y-46698750D01*
X128057000Y-46698750D01*
X128057000Y-47498000D01*
X129006250Y-47498000D01*
X129165000Y-47339250D01*
X129165000Y-47048690D01*
X129068327Y-46815301D01*
X128889698Y-46636673D01*
X128656309Y-46540000D01*
X128215750Y-46540000D01*
X128057000Y-46698750D01*
X127803000Y-46698750D01*
X127644250Y-46540000D01*
X127203691Y-46540000D01*
X127129279Y-46570822D01*
X127484473Y-46215629D01*
X127547929Y-46173229D01*
X127715904Y-45921837D01*
X127753571Y-45732474D01*
X128070625Y-45520625D01*
X128085096Y-45498967D01*
X128151673Y-45659698D01*
X128330301Y-45838327D01*
X128563690Y-45935000D01*
X129254250Y-45935000D01*
X129413000Y-45776250D01*
X129413000Y-44577000D01*
X129667000Y-44577000D01*
X129667000Y-45776250D01*
X129825750Y-45935000D01*
X130516310Y-45935000D01*
X130749699Y-45838327D01*
X130928327Y-45659698D01*
X131025000Y-45426309D01*
X131025000Y-44735750D01*
X130866250Y-44577000D01*
X129667000Y-44577000D01*
X129413000Y-44577000D01*
X129393000Y-44577000D01*
X129393000Y-44323000D01*
X129413000Y-44323000D01*
X129413000Y-44303000D01*
X129667000Y-44303000D01*
X129667000Y-44323000D01*
X130866250Y-44323000D01*
X131025000Y-44164250D01*
X131025000Y-44020800D01*
X131407399Y-44020800D01*
X134642560Y-47255962D01*
G36*
X149987000Y-44323000D02*
X150007000Y-44323000D01*
X150007000Y-44577000D01*
X149987000Y-44577000D01*
X149987000Y-45776250D01*
X150145750Y-45935000D01*
X150326000Y-45935000D01*
X150326000Y-50796382D01*
X150129526Y-50715000D01*
X149590474Y-50715000D01*
X149092454Y-50921286D01*
X148711286Y-51302454D01*
X148590000Y-51595265D01*
X148468714Y-51302454D01*
X148087546Y-50921286D01*
X147589526Y-50715000D01*
X147050474Y-50715000D01*
X146552454Y-50921286D01*
X146171286Y-51302454D01*
X146056675Y-51579151D01*
X145967611Y-51364131D01*
X145729774Y-51299831D01*
X144959605Y-52070000D01*
X145729774Y-52840169D01*
X145967611Y-52775869D01*
X146049649Y-52543886D01*
X146171286Y-52837546D01*
X146552454Y-53218714D01*
X147050474Y-53425000D01*
X147589526Y-53425000D01*
X147597072Y-53421874D01*
X147642900Y-53467702D01*
X147642900Y-55817108D01*
X147589526Y-55795000D01*
X147050474Y-55795000D01*
X146552454Y-56001286D01*
X146171286Y-56382454D01*
X146056675Y-56659151D01*
X145967611Y-56444131D01*
X145729774Y-56379831D01*
X144959605Y-57150000D01*
X144973748Y-57164143D01*
X144794143Y-57343748D01*
X144780000Y-57329605D01*
X144009831Y-58099774D01*
X144074131Y-58337611D01*
X144582342Y-58517333D01*
X145120644Y-58488892D01*
X145471200Y-58343687D01*
X145471200Y-61037202D01*
X144977658Y-60862667D01*
X144439356Y-60891108D01*
X144074131Y-61042389D01*
X144009831Y-61280226D01*
X144780000Y-62050395D01*
X144794143Y-62036253D01*
X144973748Y-62215858D01*
X144959605Y-62230000D01*
X144973748Y-62244143D01*
X144794143Y-62423748D01*
X144780000Y-62409605D01*
X144009831Y-63179774D01*
X144074131Y-63417611D01*
X144582342Y-63597333D01*
X145120644Y-63568892D01*
X145471201Y-63423687D01*
X145471201Y-65629674D01*
X145300700Y-65595760D01*
X143678000Y-65595760D01*
X143678000Y-62959014D01*
X143830226Y-63000169D01*
X144600395Y-62230000D01*
X143830226Y-61459831D01*
X143678000Y-61500986D01*
X143678000Y-57879014D01*
X143830226Y-57920169D01*
X144600395Y-57150000D01*
X143830226Y-56379831D01*
X143678000Y-56420986D01*
X143678000Y-56200226D01*
X144009831Y-56200226D01*
X144780000Y-56970395D01*
X145550169Y-56200226D01*
X145485869Y-55962389D01*
X144977658Y-55782667D01*
X144439356Y-55811108D01*
X144074131Y-55962389D01*
X144009831Y-56200226D01*
X143678000Y-56200226D01*
X143678000Y-53019774D01*
X144009831Y-53019774D01*
X144074131Y-53257611D01*
X144582342Y-53437333D01*
X145120644Y-53408892D01*
X145485869Y-53257611D01*
X145550169Y-53019774D01*
X144780000Y-52249605D01*
X144009831Y-53019774D01*
X143678000Y-53019774D01*
X143678000Y-52799014D01*
X143830226Y-52840169D01*
X144600395Y-52070000D01*
X144586253Y-52055858D01*
X144765858Y-51876253D01*
X144780000Y-51890395D01*
X145550169Y-51120226D01*
X145485869Y-50882389D01*
X144977658Y-50702667D01*
X144813776Y-50711326D01*
X146534473Y-48990629D01*
X146597929Y-48948229D01*
X146763940Y-48699776D01*
X146897765Y-48673157D01*
X147107809Y-48532809D01*
X147148654Y-48471680D01*
X147290302Y-48613327D01*
X147523691Y-48710000D01*
X147964250Y-48710000D01*
X148123000Y-48551250D01*
X148123000Y-47752000D01*
X148377000Y-47752000D01*
X148377000Y-48551250D01*
X148535750Y-48710000D01*
X148976309Y-48710000D01*
X149209698Y-48613327D01*
X149388327Y-48434699D01*
X149485000Y-48201310D01*
X149485000Y-47910750D01*
X149326250Y-47752000D01*
X148377000Y-47752000D01*
X148123000Y-47752000D01*
X148103000Y-47752000D01*
X148103000Y-47498000D01*
X148123000Y-47498000D01*
X148123000Y-46698750D01*
X148377000Y-46698750D01*
X148377000Y-47498000D01*
X149326250Y-47498000D01*
X149485000Y-47339250D01*
X149485000Y-47048690D01*
X149388327Y-46815301D01*
X149209698Y-46636673D01*
X148976309Y-46540000D01*
X148535750Y-46540000D01*
X148377000Y-46698750D01*
X148123000Y-46698750D01*
X147964250Y-46540000D01*
X147523691Y-46540000D01*
X147449279Y-46570822D01*
X147804473Y-46215629D01*
X147867929Y-46173229D01*
X148035904Y-45921837D01*
X148073571Y-45732474D01*
X148390625Y-45520625D01*
X148405096Y-45498967D01*
X148471673Y-45659698D01*
X148650301Y-45838327D01*
X148883690Y-45935000D01*
X149574250Y-45935000D01*
X149733000Y-45776250D01*
X149733000Y-44577000D01*
X149713000Y-44577000D01*
X149713000Y-44323000D01*
X149733000Y-44323000D01*
X149733000Y-44303000D01*
X149987000Y-44303000D01*
X149987000Y-44323000D01*
X149987000Y-44323000D01*
G37*
X149987000Y-44323000D02*
X150007000Y-44323000D01*
X150007000Y-44577000D01*
X149987000Y-44577000D01*
X149987000Y-45776250D01*
X150145750Y-45935000D01*
X150326000Y-45935000D01*
X150326000Y-50796382D01*
X150129526Y-50715000D01*
X149590474Y-50715000D01*
X149092454Y-50921286D01*
X148711286Y-51302454D01*
X148590000Y-51595265D01*
X148468714Y-51302454D01*
X148087546Y-50921286D01*
X147589526Y-50715000D01*
X147050474Y-50715000D01*
X146552454Y-50921286D01*
X146171286Y-51302454D01*
X146056675Y-51579151D01*
X145967611Y-51364131D01*
X145729774Y-51299831D01*
X144959605Y-52070000D01*
X145729774Y-52840169D01*
X145967611Y-52775869D01*
X146049649Y-52543886D01*
X146171286Y-52837546D01*
X146552454Y-53218714D01*
X147050474Y-53425000D01*
X147589526Y-53425000D01*
X147597072Y-53421874D01*
X147642900Y-53467702D01*
X147642900Y-55817108D01*
X147589526Y-55795000D01*
X147050474Y-55795000D01*
X146552454Y-56001286D01*
X146171286Y-56382454D01*
X146056675Y-56659151D01*
X145967611Y-56444131D01*
X145729774Y-56379831D01*
X144959605Y-57150000D01*
X144973748Y-57164143D01*
X144794143Y-57343748D01*
X144780000Y-57329605D01*
X144009831Y-58099774D01*
X144074131Y-58337611D01*
X144582342Y-58517333D01*
X145120644Y-58488892D01*
X145471200Y-58343687D01*
X145471200Y-61037202D01*
X144977658Y-60862667D01*
X144439356Y-60891108D01*
X144074131Y-61042389D01*
X144009831Y-61280226D01*
X144780000Y-62050395D01*
X144794143Y-62036253D01*
X144973748Y-62215858D01*
X144959605Y-62230000D01*
X144973748Y-62244143D01*
X144794143Y-62423748D01*
X144780000Y-62409605D01*
X144009831Y-63179774D01*
X144074131Y-63417611D01*
X144582342Y-63597333D01*
X145120644Y-63568892D01*
X145471201Y-63423687D01*
X145471201Y-65629674D01*
X145300700Y-65595760D01*
X143678000Y-65595760D01*
X143678000Y-62959014D01*
X143830226Y-63000169D01*
X144600395Y-62230000D01*
X143830226Y-61459831D01*
X143678000Y-61500986D01*
X143678000Y-57879014D01*
X143830226Y-57920169D01*
X144600395Y-57150000D01*
X143830226Y-56379831D01*
X143678000Y-56420986D01*
X143678000Y-56200226D01*
X144009831Y-56200226D01*
X144780000Y-56970395D01*
X145550169Y-56200226D01*
X145485869Y-55962389D01*
X144977658Y-55782667D01*
X144439356Y-55811108D01*
X144074131Y-55962389D01*
X144009831Y-56200226D01*
X143678000Y-56200226D01*
X143678000Y-53019774D01*
X144009831Y-53019774D01*
X144074131Y-53257611D01*
X144582342Y-53437333D01*
X145120644Y-53408892D01*
X145485869Y-53257611D01*
X145550169Y-53019774D01*
X144780000Y-52249605D01*
X144009831Y-53019774D01*
X143678000Y-53019774D01*
X143678000Y-52799014D01*
X143830226Y-52840169D01*
X144600395Y-52070000D01*
X144586253Y-52055858D01*
X144765858Y-51876253D01*
X144780000Y-51890395D01*
X145550169Y-51120226D01*
X145485869Y-50882389D01*
X144977658Y-50702667D01*
X144813776Y-50711326D01*
X146534473Y-48990629D01*
X146597929Y-48948229D01*
X146763940Y-48699776D01*
X146897765Y-48673157D01*
X147107809Y-48532809D01*
X147148654Y-48471680D01*
X147290302Y-48613327D01*
X147523691Y-48710000D01*
X147964250Y-48710000D01*
X148123000Y-48551250D01*
X148123000Y-47752000D01*
X148377000Y-47752000D01*
X148377000Y-48551250D01*
X148535750Y-48710000D01*
X148976309Y-48710000D01*
X149209698Y-48613327D01*
X149388327Y-48434699D01*
X149485000Y-48201310D01*
X149485000Y-47910750D01*
X149326250Y-47752000D01*
X148377000Y-47752000D01*
X148123000Y-47752000D01*
X148103000Y-47752000D01*
X148103000Y-47498000D01*
X148123000Y-47498000D01*
X148123000Y-46698750D01*
X148377000Y-46698750D01*
X148377000Y-47498000D01*
X149326250Y-47498000D01*
X149485000Y-47339250D01*
X149485000Y-47048690D01*
X149388327Y-46815301D01*
X149209698Y-46636673D01*
X148976309Y-46540000D01*
X148535750Y-46540000D01*
X148377000Y-46698750D01*
X148123000Y-46698750D01*
X147964250Y-46540000D01*
X147523691Y-46540000D01*
X147449279Y-46570822D01*
X147804473Y-46215629D01*
X147867929Y-46173229D01*
X148035904Y-45921837D01*
X148073571Y-45732474D01*
X148390625Y-45520625D01*
X148405096Y-45498967D01*
X148471673Y-45659698D01*
X148650301Y-45838327D01*
X148883690Y-45935000D01*
X149574250Y-45935000D01*
X149733000Y-45776250D01*
X149733000Y-44577000D01*
X149713000Y-44577000D01*
X149713000Y-44323000D01*
X149733000Y-44323000D01*
X149733000Y-44303000D01*
X149987000Y-44303000D01*
X149987000Y-44323000D01*
G36*
X114493748Y-57135858D02*
X114479605Y-57150000D01*
X115249774Y-57920169D01*
X115487611Y-57855869D01*
X115569649Y-57623886D01*
X115691286Y-57917546D01*
X116072454Y-58298714D01*
X116570474Y-58505000D01*
X117109526Y-58505000D01*
X117350001Y-58405392D01*
X117350001Y-60974608D01*
X117109526Y-60875000D01*
X116570474Y-60875000D01*
X116072454Y-61081286D01*
X115691286Y-61462454D01*
X115576675Y-61739151D01*
X115487611Y-61524131D01*
X115249774Y-61459831D01*
X114479605Y-62230000D01*
X114493748Y-62244143D01*
X114314143Y-62423748D01*
X114300000Y-62409605D01*
X113529831Y-63179774D01*
X113594131Y-63417611D01*
X113846900Y-63506999D01*
X113741630Y-63612269D01*
X113678171Y-63654671D01*
X113510196Y-63906064D01*
X113496803Y-63973395D01*
X113319300Y-64150898D01*
X113319300Y-62991808D01*
X113350226Y-63000169D01*
X114120395Y-62230000D01*
X113350226Y-61459831D01*
X113319300Y-61468192D01*
X113319300Y-61280226D01*
X113529831Y-61280226D01*
X114300000Y-62050395D01*
X115070169Y-61280226D01*
X115005869Y-61042389D01*
X114497658Y-60862667D01*
X113959356Y-60891108D01*
X113594131Y-61042389D01*
X113529831Y-61280226D01*
X113319300Y-61280226D01*
X113319300Y-58099774D01*
X113529831Y-58099774D01*
X113594131Y-58337611D01*
X114102342Y-58517333D01*
X114640644Y-58488892D01*
X115005869Y-58337611D01*
X115070169Y-58099774D01*
X114300000Y-57329605D01*
X113529831Y-58099774D01*
X113319300Y-58099774D01*
X113319300Y-57911808D01*
X113350226Y-57920169D01*
X114120395Y-57150000D01*
X114106253Y-57135858D01*
X114285858Y-56956253D01*
X114300000Y-56970395D01*
X114314143Y-56956253D01*
X114493748Y-57135858D01*
X114493748Y-57135858D01*
G37*
X114493748Y-57135858D02*
X114479605Y-57150000D01*
X115249774Y-57920169D01*
X115487611Y-57855869D01*
X115569649Y-57623886D01*
X115691286Y-57917546D01*
X116072454Y-58298714D01*
X116570474Y-58505000D01*
X117109526Y-58505000D01*
X117350001Y-58405392D01*
X117350001Y-60974608D01*
X117109526Y-60875000D01*
X116570474Y-60875000D01*
X116072454Y-61081286D01*
X115691286Y-61462454D01*
X115576675Y-61739151D01*
X115487611Y-61524131D01*
X115249774Y-61459831D01*
X114479605Y-62230000D01*
X114493748Y-62244143D01*
X114314143Y-62423748D01*
X114300000Y-62409605D01*
X113529831Y-63179774D01*
X113594131Y-63417611D01*
X113846900Y-63506999D01*
X113741630Y-63612269D01*
X113678171Y-63654671D01*
X113510196Y-63906064D01*
X113496803Y-63973395D01*
X113319300Y-64150898D01*
X113319300Y-62991808D01*
X113350226Y-63000169D01*
X114120395Y-62230000D01*
X113350226Y-61459831D01*
X113319300Y-61468192D01*
X113319300Y-61280226D01*
X113529831Y-61280226D01*
X114300000Y-62050395D01*
X115070169Y-61280226D01*
X115005869Y-61042389D01*
X114497658Y-60862667D01*
X113959356Y-60891108D01*
X113594131Y-61042389D01*
X113529831Y-61280226D01*
X113319300Y-61280226D01*
X113319300Y-58099774D01*
X113529831Y-58099774D01*
X113594131Y-58337611D01*
X114102342Y-58517333D01*
X114640644Y-58488892D01*
X115005869Y-58337611D01*
X115070169Y-58099774D01*
X114300000Y-57329605D01*
X113529831Y-58099774D01*
X113319300Y-58099774D01*
X113319300Y-57911808D01*
X113350226Y-57920169D01*
X114120395Y-57150000D01*
X114106253Y-57135858D01*
X114285858Y-56956253D01*
X114300000Y-56970395D01*
X114314143Y-56956253D01*
X114493748Y-57135858D01*
G04 #@! TD*
M02*
