M48
;DRILL file {KiCad (5.0.2-4-g3082e92af)} date 2019 February 04, Monday 02:23:51
;FORMAT={-:-/ absolute / metric / decimal}
FMAT,2
METRIC,TZ
T1C0.400
T2C0.800
T3C1.000
%
G90
G05
T1
X106.796Y-70.072
X107.032Y-67.611
X107.696Y-71.628
X108.585Y-89.434
X115.146Y-64.349
X116.332Y-71.628
X116.95Y-68.668
X117.239Y-64.322
X117.378Y-85.817
X118.241Y-85.091
X119.432Y-83.695
X119.684Y-86.363
X127.Y-85.09
X132.593Y-81.336
X135.89Y-83.82
X138.176Y-71.628
X146.05Y-80.189
X146.812Y-71.628
X148.789Y-65.487
T2
X104.14Y-62.23
X106.68Y-62.23
X109.22Y-62.23
X124.46Y-52.07
X127.Y-52.07
X129.54Y-52.07
X104.14Y-57.15
X106.68Y-57.15
X109.22Y-57.15
X134.62Y-52.07
X137.16Y-52.07
X139.7Y-52.07
X124.46Y-62.23
X127.Y-62.23
X129.54Y-62.23
X144.78Y-57.15
X147.32Y-57.15
X149.86Y-57.15
X124.46Y-57.15
X127.Y-57.15
X129.54Y-57.15
X114.3Y-52.07
X116.84Y-52.07
X119.38Y-52.07
X134.62Y-62.23
X137.16Y-62.23
X139.7Y-62.23
X144.78Y-62.23
X147.32Y-62.23
X149.86Y-62.23
X134.62Y-57.15
X137.16Y-57.15
X139.7Y-57.15
X104.14Y-52.07
X106.68Y-52.07
X109.22Y-52.07
X114.3Y-62.23
X116.84Y-62.23
X119.38Y-62.23
X114.3Y-57.15
X116.84Y-57.15
X119.38Y-57.15
X144.78Y-52.07
X147.32Y-52.07
X149.86Y-52.07
T3
X144.78Y-44.45
X147.32Y-44.45
X149.86Y-44.45
X134.62Y-95.25
X134.62Y-97.79
X134.62Y-100.33
X134.62Y-102.87
X134.62Y-105.41
X134.62Y-107.95
X134.62Y-110.49
X134.62Y-113.03
X134.62Y-115.57
X137.16Y-95.25
X137.16Y-97.79
X137.16Y-100.33
X137.16Y-102.87
X137.16Y-105.41
X137.16Y-107.95
X137.16Y-110.49
X137.16Y-113.03
X137.16Y-115.57
X104.14Y-44.45
X106.68Y-44.45
X109.22Y-44.45
X116.84Y-95.25
X116.84Y-97.79
X116.84Y-100.33
X116.84Y-102.87
X116.84Y-105.41
X116.84Y-107.95
X116.84Y-110.49
X116.84Y-113.03
X116.84Y-115.57
X119.38Y-95.25
X119.38Y-97.79
X119.38Y-100.33
X119.38Y-102.87
X119.38Y-105.41
X119.38Y-107.95
X119.38Y-110.49
X119.38Y-113.03
X119.38Y-115.57
X143.51Y-104.14
X146.01Y-104.14
X148.51Y-104.14
X134.62Y-44.45
X137.16Y-44.45
X139.7Y-44.45
X125.73Y-71.12
X125.73Y-73.66
X125.73Y-76.2
X125.73Y-78.74
X125.73Y-81.28
X125.73Y-83.82
X125.73Y-86.36
X125.73Y-88.9
X125.73Y-91.44
X125.73Y-93.98
X125.73Y-96.52
X125.73Y-99.06
X125.73Y-101.6
X125.73Y-104.14
X125.73Y-106.68
X125.73Y-109.22
X125.73Y-111.76
X128.27Y-71.12
X128.27Y-73.66
X128.27Y-76.2
X128.27Y-78.74
X128.27Y-81.28
X128.27Y-83.82
X128.27Y-86.36
X128.27Y-88.9
X128.27Y-91.44
X128.27Y-93.98
X128.27Y-96.52
X128.27Y-99.06
X128.27Y-101.6
X128.27Y-104.14
X128.27Y-106.68
X128.27Y-109.22
X128.27Y-111.76
X124.46Y-44.45
X127.Y-44.45
X129.54Y-44.45
X114.3Y-44.45
X116.84Y-44.45
X119.38Y-44.45
X143.51Y-113.03
X146.01Y-113.03
X148.51Y-113.03
T0
M30
