G04 #@! TF.GenerationSoftware,KiCad,Pcbnew,(5.0.1-3-g963ef8bb5)*
G04 #@! TF.CreationDate,2018-11-14T23:09:44+02:00*
G04 #@! TF.ProjectId,My Piano Controller - Sensor (3-wire),4D79205069616E6F20436F6E74726F6C,rev?*
G04 #@! TF.SameCoordinates,Original*
G04 #@! TF.FileFunction,Soldermask,Bot*
G04 #@! TF.FilePolarity,Negative*
%FSLAX46Y46*%
G04 Gerber Fmt 4.6, Leading zero omitted, Abs format (unit mm)*
G04 Created by KiCad (PCBNEW (5.0.1-3-g963ef8bb5)) date 2018 November 14, Wednesday 23:09:44*
%MOMM*%
%LPD*%
G01*
G04 APERTURE LIST*
%ADD10C,0.100000*%
G04 APERTURE END LIST*
D10*
G36*
X156955442Y-96895518D02*
X157021627Y-96902037D01*
X157134853Y-96936384D01*
X157191467Y-96953557D01*
X157330087Y-97027652D01*
X157347991Y-97037222D01*
X157383729Y-97066552D01*
X157485186Y-97149814D01*
X157568448Y-97251271D01*
X157597778Y-97287009D01*
X157597779Y-97287011D01*
X157681443Y-97443533D01*
X157681443Y-97443534D01*
X157732963Y-97613373D01*
X157750359Y-97790000D01*
X157732963Y-97966627D01*
X157698616Y-98079853D01*
X157681443Y-98136467D01*
X157607348Y-98275087D01*
X157597778Y-98292991D01*
X157568448Y-98328729D01*
X157485186Y-98430186D01*
X157383729Y-98513448D01*
X157347991Y-98542778D01*
X157347989Y-98542779D01*
X157191467Y-98626443D01*
X157134853Y-98643616D01*
X157021627Y-98677963D01*
X156955442Y-98684482D01*
X156889260Y-98691000D01*
X156800740Y-98691000D01*
X156734558Y-98684482D01*
X156668373Y-98677963D01*
X156555147Y-98643616D01*
X156498533Y-98626443D01*
X156342011Y-98542779D01*
X156342009Y-98542778D01*
X156306271Y-98513448D01*
X156204814Y-98430186D01*
X156121552Y-98328729D01*
X156092222Y-98292991D01*
X156082652Y-98275087D01*
X156008557Y-98136467D01*
X155991384Y-98079853D01*
X155957037Y-97966627D01*
X155939641Y-97790000D01*
X155957037Y-97613373D01*
X156008557Y-97443534D01*
X156008557Y-97443533D01*
X156092221Y-97287011D01*
X156092222Y-97287009D01*
X156121552Y-97251271D01*
X156204814Y-97149814D01*
X156306271Y-97066552D01*
X156342009Y-97037222D01*
X156359913Y-97027652D01*
X156498533Y-96953557D01*
X156555147Y-96936384D01*
X156668373Y-96902037D01*
X156734558Y-96895518D01*
X156800740Y-96889000D01*
X156889260Y-96889000D01*
X156955442Y-96895518D01*
X156955442Y-96895518D01*
G37*
G36*
X152735638Y-95842092D02*
X152735640Y-95842093D01*
X152735641Y-95842093D01*
X152863943Y-95895237D01*
X152978890Y-95972043D01*
X152979414Y-95972393D01*
X153077607Y-96070586D01*
X153077609Y-96070589D01*
X153154763Y-96186057D01*
X153202976Y-96302454D01*
X153207908Y-96314362D01*
X153235000Y-96450562D01*
X153235000Y-96589438D01*
X153210403Y-96713097D01*
X153207907Y-96725641D01*
X153154763Y-96853943D01*
X153131338Y-96889000D01*
X153077607Y-96969414D01*
X152979414Y-97067607D01*
X152979411Y-97067609D01*
X152863943Y-97144763D01*
X152735641Y-97197907D01*
X152735640Y-97197907D01*
X152735638Y-97197908D01*
X152599438Y-97225000D01*
X152460562Y-97225000D01*
X152324362Y-97197908D01*
X152324360Y-97197907D01*
X152324359Y-97197907D01*
X152196057Y-97144763D01*
X152080589Y-97067609D01*
X152080586Y-97067607D01*
X151982393Y-96969414D01*
X151928662Y-96889000D01*
X151905237Y-96853943D01*
X151852093Y-96725641D01*
X151849598Y-96713097D01*
X151825000Y-96589438D01*
X151825000Y-96450562D01*
X151852092Y-96314362D01*
X151857024Y-96302454D01*
X151905237Y-96186057D01*
X151982391Y-96070589D01*
X151982393Y-96070586D01*
X152080586Y-95972393D01*
X152081110Y-95972043D01*
X152196057Y-95895237D01*
X152324359Y-95842093D01*
X152324360Y-95842093D01*
X152324362Y-95842092D01*
X152460562Y-95815000D01*
X152599438Y-95815000D01*
X152735638Y-95842092D01*
X152735638Y-95842092D01*
G37*
G36*
X149935638Y-95842092D02*
X149935640Y-95842093D01*
X149935641Y-95842093D01*
X150063943Y-95895237D01*
X150178890Y-95972043D01*
X150179414Y-95972393D01*
X150277607Y-96070586D01*
X150277609Y-96070589D01*
X150354763Y-96186057D01*
X150402976Y-96302454D01*
X150407908Y-96314362D01*
X150435000Y-96450562D01*
X150435000Y-96589438D01*
X150410403Y-96713097D01*
X150407907Y-96725641D01*
X150354763Y-96853943D01*
X150331338Y-96889000D01*
X150277607Y-96969414D01*
X150179414Y-97067607D01*
X150179411Y-97067609D01*
X150063943Y-97144763D01*
X149935641Y-97197907D01*
X149935640Y-97197907D01*
X149935638Y-97197908D01*
X149799438Y-97225000D01*
X149660562Y-97225000D01*
X149524362Y-97197908D01*
X149524360Y-97197907D01*
X149524359Y-97197907D01*
X149396057Y-97144763D01*
X149280589Y-97067609D01*
X149280586Y-97067607D01*
X149182393Y-96969414D01*
X149128662Y-96889000D01*
X149105237Y-96853943D01*
X149052093Y-96725641D01*
X149049598Y-96713097D01*
X149025000Y-96589438D01*
X149025000Y-96450562D01*
X149052092Y-96314362D01*
X149057024Y-96302454D01*
X149105237Y-96186057D01*
X149182391Y-96070589D01*
X149182393Y-96070586D01*
X149280586Y-95972393D01*
X149281110Y-95972043D01*
X149396057Y-95895237D01*
X149524359Y-95842093D01*
X149524360Y-95842093D01*
X149524362Y-95842092D01*
X149660562Y-95815000D01*
X149799438Y-95815000D01*
X149935638Y-95842092D01*
X149935638Y-95842092D01*
G37*
G36*
X140075256Y-93641298D02*
X140181579Y-93662447D01*
X140394037Y-93750450D01*
X140451766Y-93774362D01*
X140482042Y-93786903D01*
X140667110Y-93910562D01*
X140752454Y-93967587D01*
X140982413Y-94197546D01*
X140982415Y-94197549D01*
X141137343Y-94429414D01*
X141163098Y-94467960D01*
X141187805Y-94527609D01*
X141287553Y-94768421D01*
X141351000Y-95087391D01*
X141351000Y-95412609D01*
X141287553Y-95731579D01*
X141219763Y-95895238D01*
X141187805Y-95972393D01*
X141163097Y-96032042D01*
X141060187Y-96186057D01*
X140982413Y-96302454D01*
X140752454Y-96532413D01*
X140752451Y-96532415D01*
X140482042Y-96713097D01*
X140482041Y-96713098D01*
X140482040Y-96713098D01*
X140451758Y-96725641D01*
X140181579Y-96837553D01*
X140099181Y-96853943D01*
X139862611Y-96901000D01*
X139537389Y-96901000D01*
X139300819Y-96853943D01*
X139218421Y-96837553D01*
X138948242Y-96725641D01*
X138917960Y-96713098D01*
X138917959Y-96713098D01*
X138917958Y-96713097D01*
X138647549Y-96532415D01*
X138647546Y-96532413D01*
X138417587Y-96302454D01*
X138339813Y-96186057D01*
X138236903Y-96032042D01*
X138212196Y-95972393D01*
X138180237Y-95895238D01*
X138112447Y-95731579D01*
X138049000Y-95412609D01*
X138049000Y-95087391D01*
X138112447Y-94768421D01*
X138212195Y-94527609D01*
X138236902Y-94467960D01*
X138262658Y-94429414D01*
X138417585Y-94197549D01*
X138417587Y-94197546D01*
X138647546Y-93967587D01*
X138732890Y-93910562D01*
X138917958Y-93786903D01*
X138948235Y-93774362D01*
X139005963Y-93750450D01*
X139218421Y-93662447D01*
X139324744Y-93641298D01*
X139537389Y-93599000D01*
X139862611Y-93599000D01*
X140075256Y-93641298D01*
X140075256Y-93641298D01*
G37*
G36*
X156955442Y-94355518D02*
X157021627Y-94362037D01*
X157134853Y-94396384D01*
X157191467Y-94413557D01*
X157293246Y-94467960D01*
X157347991Y-94497222D01*
X157383729Y-94526552D01*
X157485186Y-94609814D01*
X157568448Y-94711271D01*
X157597778Y-94747009D01*
X157597779Y-94747011D01*
X157681443Y-94903533D01*
X157681443Y-94903534D01*
X157732963Y-95073373D01*
X157750359Y-95250000D01*
X157732963Y-95426627D01*
X157698616Y-95539853D01*
X157681443Y-95596467D01*
X157609224Y-95731578D01*
X157597778Y-95752991D01*
X157568448Y-95788729D01*
X157485186Y-95890186D01*
X157385017Y-95972391D01*
X157347991Y-96002778D01*
X157347989Y-96002779D01*
X157191467Y-96086443D01*
X157134853Y-96103616D01*
X157021627Y-96137963D01*
X156955443Y-96144481D01*
X156889260Y-96151000D01*
X156800740Y-96151000D01*
X156734558Y-96144482D01*
X156668373Y-96137963D01*
X156555147Y-96103616D01*
X156498533Y-96086443D01*
X156342011Y-96002779D01*
X156342009Y-96002778D01*
X156304983Y-95972391D01*
X156204814Y-95890186D01*
X156121552Y-95788729D01*
X156092222Y-95752991D01*
X156080776Y-95731578D01*
X156008557Y-95596467D01*
X155991384Y-95539853D01*
X155957037Y-95426627D01*
X155939641Y-95250000D01*
X155957037Y-95073373D01*
X156008557Y-94903534D01*
X156008557Y-94903533D01*
X156092221Y-94747011D01*
X156092222Y-94747009D01*
X156121552Y-94711271D01*
X156204814Y-94609814D01*
X156306271Y-94526552D01*
X156342009Y-94497222D01*
X156396754Y-94467960D01*
X156498533Y-94413557D01*
X156555147Y-94396384D01*
X156668373Y-94362037D01*
X156734557Y-94355519D01*
X156800740Y-94349000D01*
X156889260Y-94349000D01*
X156955442Y-94355518D01*
X156955442Y-94355518D01*
G37*
G36*
X152735638Y-93302092D02*
X152735640Y-93302093D01*
X152735641Y-93302093D01*
X152863943Y-93355237D01*
X152978890Y-93432043D01*
X152979414Y-93432393D01*
X153077607Y-93530586D01*
X153077609Y-93530589D01*
X153154763Y-93646057D01*
X153207907Y-93774359D01*
X153207908Y-93774362D01*
X153235000Y-93910562D01*
X153235000Y-94049436D01*
X153207907Y-94185641D01*
X153154763Y-94313943D01*
X153131338Y-94349000D01*
X153077607Y-94429414D01*
X152979414Y-94527607D01*
X152979411Y-94527609D01*
X152863943Y-94604763D01*
X152735641Y-94657907D01*
X152735640Y-94657907D01*
X152735638Y-94657908D01*
X152599438Y-94685000D01*
X152460562Y-94685000D01*
X152324362Y-94657908D01*
X152324360Y-94657907D01*
X152324359Y-94657907D01*
X152196057Y-94604763D01*
X152080589Y-94527609D01*
X152080586Y-94527607D01*
X151982393Y-94429414D01*
X151928662Y-94349000D01*
X151905237Y-94313943D01*
X151852093Y-94185641D01*
X151825000Y-94049436D01*
X151825000Y-93910562D01*
X151852092Y-93774362D01*
X151852093Y-93774359D01*
X151905237Y-93646057D01*
X151982391Y-93530589D01*
X151982393Y-93530586D01*
X152080586Y-93432393D01*
X152081110Y-93432043D01*
X152196057Y-93355237D01*
X152324359Y-93302093D01*
X152324360Y-93302093D01*
X152324362Y-93302092D01*
X152460562Y-93275000D01*
X152599438Y-93275000D01*
X152735638Y-93302092D01*
X152735638Y-93302092D01*
G37*
G36*
X149935638Y-93302092D02*
X149935640Y-93302093D01*
X149935641Y-93302093D01*
X150063943Y-93355237D01*
X150178890Y-93432043D01*
X150179414Y-93432393D01*
X150277607Y-93530586D01*
X150277609Y-93530589D01*
X150354763Y-93646057D01*
X150407907Y-93774359D01*
X150407908Y-93774362D01*
X150435000Y-93910562D01*
X150435000Y-94049436D01*
X150407907Y-94185641D01*
X150354763Y-94313943D01*
X150331338Y-94349000D01*
X150277607Y-94429414D01*
X150179414Y-94527607D01*
X150179411Y-94527609D01*
X150063943Y-94604763D01*
X149935641Y-94657907D01*
X149935640Y-94657907D01*
X149935638Y-94657908D01*
X149799438Y-94685000D01*
X149660562Y-94685000D01*
X149524362Y-94657908D01*
X149524360Y-94657907D01*
X149524359Y-94657907D01*
X149396057Y-94604763D01*
X149280589Y-94527609D01*
X149280586Y-94527607D01*
X149182393Y-94429414D01*
X149128662Y-94349000D01*
X149105237Y-94313943D01*
X149052093Y-94185641D01*
X149025000Y-94049436D01*
X149025000Y-93910562D01*
X149052092Y-93774362D01*
X149052093Y-93774359D01*
X149105237Y-93646057D01*
X149182391Y-93530589D01*
X149182393Y-93530586D01*
X149280586Y-93432393D01*
X149281110Y-93432043D01*
X149396057Y-93355237D01*
X149524359Y-93302093D01*
X149524360Y-93302093D01*
X149524362Y-93302092D01*
X149660562Y-93275000D01*
X149799438Y-93275000D01*
X149935638Y-93302092D01*
X149935638Y-93302092D01*
G37*
G36*
X157746000Y-93611000D02*
X155944000Y-93611000D01*
X155944000Y-91809000D01*
X157746000Y-91809000D01*
X157746000Y-93611000D01*
X157746000Y-93611000D01*
G37*
M02*
