M48
;DRILL file {KiCad (5.0.2-4-g3082e92af)} date 2019 February 05, Tuesday 21:12:35
;FORMAT={-:-/ absolute / metric / decimal}
FMAT,2
METRIC,TZ
T1C0.800
T2C0.810
T3C1.000
T4C1.001
T5C1.020
T6C2.300
%
G90
G05
T1
X158.242Y-47.498
X153.162Y-67.818
X148.082Y-52.578
X153.162Y-47.498
X148.082Y-67.818
X153.162Y-57.658
X153.162Y-72.898
X148.082Y-77.978
X148.082Y-72.898
X153.162Y-83.058
X158.242Y-57.658
X153.162Y-37.338
X158.242Y-77.978
X148.082Y-83.058
X148.082Y-37.338
X158.242Y-42.418
X148.082Y-57.658
X158.242Y-83.058
X153.162Y-42.418
X148.082Y-62.738
X158.242Y-62.738
X153.162Y-77.978
X158.242Y-52.578
X148.082Y-42.418
X158.242Y-67.818
X153.162Y-62.738
X158.242Y-72.898
X153.162Y-52.578
X148.082Y-47.498
T2
X129.54Y-105.918
X129.54Y-107.918
X132.08Y-105.918
X132.08Y-107.918
T3
X143.59Y-107.442
X146.09Y-107.442
X148.59Y-107.442
X157.48Y-93.345
X160.02Y-93.345
X143.59Y-117.602
X146.09Y-117.602
X148.59Y-117.602
X114.3Y-47.625
X114.3Y-50.165
X114.3Y-52.705
X114.3Y-55.245
X114.3Y-57.785
X114.3Y-60.325
X114.3Y-62.865
X114.3Y-65.405
X114.3Y-67.945
X114.3Y-70.485
X114.3Y-73.025
X114.3Y-75.565
X114.3Y-78.105
X114.3Y-80.645
X114.3Y-83.185
X114.3Y-85.725
X114.3Y-88.265
X116.84Y-47.625
X116.84Y-50.165
X116.84Y-52.705
X116.84Y-55.245
X116.84Y-57.785
X116.84Y-60.325
X116.84Y-62.865
X116.84Y-65.405
X116.84Y-67.945
X116.84Y-70.485
X116.84Y-73.025
X116.84Y-75.565
X116.84Y-78.105
X116.84Y-80.645
X116.84Y-83.185
X116.84Y-85.725
X116.84Y-88.265
X156.29Y-107.442
X158.79Y-107.442
X161.29Y-107.442
X156.29Y-117.602
X158.79Y-117.602
X161.29Y-117.602
T4
X153.162Y-93.345
X148.082Y-93.345
X118.11Y-35.56
X153.162Y-98.298
X121.92Y-35.56
X148.082Y-98.298
T5
X126.492Y-36.068
X126.492Y-38.608
X126.492Y-41.148
X126.492Y-43.688
X126.492Y-46.228
X126.492Y-48.768
X126.492Y-51.308
X126.492Y-53.848
X126.492Y-56.388
X126.492Y-58.928
X126.492Y-61.468
X126.492Y-64.008
X126.492Y-66.548
X126.492Y-69.088
X126.492Y-71.628
X126.492Y-74.168
X126.492Y-76.708
X126.492Y-79.248
X126.492Y-81.788
X126.492Y-84.328
X126.492Y-86.868
X126.492Y-89.408
X126.492Y-91.948
X126.492Y-94.488
X141.732Y-36.068
X141.732Y-38.608
X141.732Y-41.148
X141.732Y-43.688
X141.732Y-46.228
X141.732Y-48.768
X141.732Y-51.308
X141.732Y-53.848
X141.732Y-56.388
X141.732Y-58.928
X141.732Y-61.468
X141.732Y-64.008
X141.732Y-66.548
X141.732Y-69.088
X141.732Y-71.628
X141.732Y-74.168
X141.732Y-76.708
X141.732Y-79.248
X141.732Y-81.788
X141.732Y-84.328
X141.732Y-86.868
X141.732Y-89.408
X141.732Y-91.948
X141.732Y-94.488
T6
X124.81Y-110.618
X136.81Y-110.618
T3
X112.792Y-107.188G85X114.792Y-107.188
G05
X112.792Y-113.188G85X114.792Y-113.188
G05
X118.492Y-111.188G85X118.492Y-109.188
G05
T0
M30
