G04 #@! TF.GenerationSoftware,KiCad,Pcbnew,(5.0.2-4-g3082e92af)*
G04 #@! TF.CreationDate,2019-02-05T21:12:24+02:00*
G04 #@! TF.ProjectId,My Piano Controller 6 (Full SMD),4d792050-6961-46e6-9f20-436f6e74726f,rev?*
G04 #@! TF.SameCoordinates,Original*
G04 #@! TF.FileFunction,Legend,Top*
G04 #@! TF.FilePolarity,Positive*
%FSLAX46Y46*%
G04 Gerber Fmt 4.6, Leading zero omitted, Abs format (unit mm)*
G04 Created by KiCad (PCBNEW (5.0.2-4-g3082e92af)) date 2019 February 05, Tuesday 21:12:24*
%MOMM*%
%LPD*%
G01*
G04 APERTURE LIST*
%ADD10C,0.300000*%
%ADD11C,0.200000*%
%ADD12C,0.150000*%
%ADD13C,0.100000*%
%ADD14C,0.127000*%
%ADD15C,0.152400*%
%ADD16C,0.120000*%
G04 APERTURE END LIST*
D10*
X130012857Y-98955714D02*
X129941428Y-99027142D01*
X129727142Y-99098571D01*
X129584285Y-99098571D01*
X129370000Y-99027142D01*
X129227142Y-98884285D01*
X129155714Y-98741428D01*
X129084285Y-98455714D01*
X129084285Y-98241428D01*
X129155714Y-97955714D01*
X129227142Y-97812857D01*
X129370000Y-97670000D01*
X129584285Y-97598571D01*
X129727142Y-97598571D01*
X129941428Y-97670000D01*
X130012857Y-97741428D01*
X130512857Y-98098571D02*
X130870000Y-99098571D01*
X131227142Y-98098571D02*
X130870000Y-99098571D01*
X130727142Y-99455714D01*
X130655714Y-99527142D01*
X130512857Y-99598571D01*
X131798571Y-99098571D02*
X131798571Y-97598571D01*
X131798571Y-98170000D02*
X131941428Y-98098571D01*
X132227142Y-98098571D01*
X132370000Y-98170000D01*
X132441428Y-98241428D01*
X132512857Y-98384285D01*
X132512857Y-98812857D01*
X132441428Y-98955714D01*
X132370000Y-99027142D01*
X132227142Y-99098571D01*
X131941428Y-99098571D01*
X131798571Y-99027142D01*
X133727142Y-99027142D02*
X133584285Y-99098571D01*
X133298571Y-99098571D01*
X133155714Y-99027142D01*
X133084285Y-98884285D01*
X133084285Y-98312857D01*
X133155714Y-98170000D01*
X133298571Y-98098571D01*
X133584285Y-98098571D01*
X133727142Y-98170000D01*
X133798571Y-98312857D01*
X133798571Y-98455714D01*
X133084285Y-98598571D01*
X134441428Y-99098571D02*
X134441428Y-98098571D01*
X134441428Y-98384285D02*
X134512857Y-98241428D01*
X134584285Y-98170000D01*
X134727142Y-98098571D01*
X134870000Y-98098571D01*
X136155714Y-97670000D02*
X136012857Y-97598571D01*
X135798571Y-97598571D01*
X135584285Y-97670000D01*
X135441428Y-97812857D01*
X135370000Y-97955714D01*
X135298571Y-98241428D01*
X135298571Y-98455714D01*
X135370000Y-98741428D01*
X135441428Y-98884285D01*
X135584285Y-99027142D01*
X135798571Y-99098571D01*
X135941428Y-99098571D01*
X136155714Y-99027142D01*
X136227142Y-98955714D01*
X136227142Y-98455714D01*
X135941428Y-98455714D01*
X137441428Y-99027142D02*
X137298571Y-99098571D01*
X137012857Y-99098571D01*
X136870000Y-99027142D01*
X136798571Y-98884285D01*
X136798571Y-98312857D01*
X136870000Y-98170000D01*
X137012857Y-98098571D01*
X137298571Y-98098571D01*
X137441428Y-98170000D01*
X137512857Y-98312857D01*
X137512857Y-98455714D01*
X136798571Y-98598571D01*
X138155714Y-98098571D02*
X138155714Y-99098571D01*
X138155714Y-98241428D02*
X138227142Y-98170000D01*
X138370000Y-98098571D01*
X138584285Y-98098571D01*
X138727142Y-98170000D01*
X138798571Y-98312857D01*
X138798571Y-99098571D01*
X140084285Y-99027142D02*
X139941428Y-99098571D01*
X139655714Y-99098571D01*
X139512857Y-99027142D01*
X139441428Y-98884285D01*
X139441428Y-98312857D01*
X139512857Y-98170000D01*
X139655714Y-98098571D01*
X139941428Y-98098571D01*
X140084285Y-98170000D01*
X140155714Y-98312857D01*
X140155714Y-98455714D01*
X139441428Y-98598571D01*
X127727142Y-101648571D02*
X127727142Y-100148571D01*
X127727142Y-100862857D02*
X128584285Y-100862857D01*
X128584285Y-101648571D02*
X128584285Y-100148571D01*
X129155714Y-100648571D02*
X129512857Y-101648571D01*
X129870000Y-100648571D02*
X129512857Y-101648571D01*
X129370000Y-102005714D01*
X129298571Y-102077142D01*
X129155714Y-102148571D01*
X130441428Y-101648571D02*
X130441428Y-100148571D01*
X130441428Y-100720000D02*
X130584285Y-100648571D01*
X130870000Y-100648571D01*
X131012857Y-100720000D01*
X131084285Y-100791428D01*
X131155714Y-100934285D01*
X131155714Y-101362857D01*
X131084285Y-101505714D01*
X131012857Y-101577142D01*
X130870000Y-101648571D01*
X130584285Y-101648571D01*
X130441428Y-101577142D01*
X131798571Y-101648571D02*
X131798571Y-100648571D01*
X131798571Y-100934285D02*
X131870000Y-100791428D01*
X131941428Y-100720000D01*
X132084285Y-100648571D01*
X132227142Y-100648571D01*
X132727142Y-101648571D02*
X132727142Y-100648571D01*
X132727142Y-100148571D02*
X132655714Y-100220000D01*
X132727142Y-100291428D01*
X132798571Y-100220000D01*
X132727142Y-100148571D01*
X132727142Y-100291428D01*
X134084285Y-101648571D02*
X134084285Y-100148571D01*
X134084285Y-101577142D02*
X133941428Y-101648571D01*
X133655714Y-101648571D01*
X133512857Y-101577142D01*
X133441428Y-101505714D01*
X133370000Y-101362857D01*
X133370000Y-100934285D01*
X133441428Y-100791428D01*
X133512857Y-100720000D01*
X133655714Y-100648571D01*
X133941428Y-100648571D01*
X134084285Y-100720000D01*
X135941428Y-101648571D02*
X135941428Y-100148571D01*
X136512857Y-100148571D01*
X136655714Y-100220000D01*
X136727142Y-100291428D01*
X136798571Y-100434285D01*
X136798571Y-100648571D01*
X136727142Y-100791428D01*
X136655714Y-100862857D01*
X136512857Y-100934285D01*
X135941428Y-100934285D01*
X137441428Y-101648571D02*
X137441428Y-100648571D01*
X137441428Y-100148571D02*
X137370000Y-100220000D01*
X137441428Y-100291428D01*
X137512857Y-100220000D01*
X137441428Y-100148571D01*
X137441428Y-100291428D01*
X138798571Y-101648571D02*
X138798571Y-100862857D01*
X138727142Y-100720000D01*
X138584285Y-100648571D01*
X138298571Y-100648571D01*
X138155714Y-100720000D01*
X138798571Y-101577142D02*
X138655714Y-101648571D01*
X138298571Y-101648571D01*
X138155714Y-101577142D01*
X138084285Y-101434285D01*
X138084285Y-101291428D01*
X138155714Y-101148571D01*
X138298571Y-101077142D01*
X138655714Y-101077142D01*
X138798571Y-101005714D01*
X139512857Y-100648571D02*
X139512857Y-101648571D01*
X139512857Y-100791428D02*
X139584285Y-100720000D01*
X139727142Y-100648571D01*
X139941428Y-100648571D01*
X140084285Y-100720000D01*
X140155714Y-100862857D01*
X140155714Y-101648571D01*
X141084285Y-101648571D02*
X140941428Y-101577142D01*
X140870000Y-101505714D01*
X140798571Y-101362857D01*
X140798571Y-100934285D01*
X140870000Y-100791428D01*
X140941428Y-100720000D01*
X141084285Y-100648571D01*
X141298571Y-100648571D01*
X141441428Y-100720000D01*
X141512857Y-100791428D01*
X141584285Y-100934285D01*
X141584285Y-101362857D01*
X141512857Y-101505714D01*
X141441428Y-101577142D01*
X141298571Y-101648571D01*
X141084285Y-101648571D01*
D11*
X151349295Y-35421866D02*
X151825485Y-35421866D01*
X151254057Y-35707580D02*
X151587390Y-34707580D01*
X151920723Y-35707580D01*
X152777866Y-34755200D02*
X152682628Y-34707580D01*
X152539771Y-34707580D01*
X152396914Y-34755200D01*
X152301676Y-34850438D01*
X152254057Y-34945676D01*
X152206438Y-35136152D01*
X152206438Y-35279009D01*
X152254057Y-35469485D01*
X152301676Y-35564723D01*
X152396914Y-35659961D01*
X152539771Y-35707580D01*
X152635009Y-35707580D01*
X152777866Y-35659961D01*
X152825485Y-35612342D01*
X152825485Y-35279009D01*
X152635009Y-35279009D01*
X153254057Y-35707580D02*
X153254057Y-34707580D01*
X153825485Y-35707580D01*
X153825485Y-34707580D01*
X154301676Y-35707580D02*
X154301676Y-34707580D01*
X154539771Y-34707580D01*
X154682628Y-34755200D01*
X154777866Y-34850438D01*
X154825485Y-34945676D01*
X154873104Y-35136152D01*
X154873104Y-35279009D01*
X154825485Y-35469485D01*
X154777866Y-35564723D01*
X154682628Y-35659961D01*
X154539771Y-35707580D01*
X154301676Y-35707580D01*
X121158095Y-37600000D02*
X121062857Y-37552380D01*
X120920000Y-37552380D01*
X120777142Y-37600000D01*
X120681904Y-37695238D01*
X120634285Y-37790476D01*
X120586666Y-37980952D01*
X120586666Y-38123809D01*
X120634285Y-38314285D01*
X120681904Y-38409523D01*
X120777142Y-38504761D01*
X120920000Y-38552380D01*
X121015238Y-38552380D01*
X121158095Y-38504761D01*
X121205714Y-38457142D01*
X121205714Y-38123809D01*
X121015238Y-38123809D01*
X121634285Y-38552380D02*
X121634285Y-37552380D01*
X122205714Y-38552380D01*
X122205714Y-37552380D01*
X122681904Y-38552380D02*
X122681904Y-37552380D01*
X122920000Y-37552380D01*
X123062857Y-37600000D01*
X123158095Y-37695238D01*
X123205714Y-37790476D01*
X123253333Y-37980952D01*
X123253333Y-38123809D01*
X123205714Y-38314285D01*
X123158095Y-38409523D01*
X123062857Y-38504761D01*
X122920000Y-38552380D01*
X122681904Y-38552380D01*
D12*
X160915000Y-112585428D02*
X160879285Y-112656857D01*
X160879285Y-112764000D01*
X160915000Y-112871142D01*
X160986428Y-112942571D01*
X161057857Y-112978285D01*
X161200714Y-113014000D01*
X161307857Y-113014000D01*
X161450714Y-112978285D01*
X161522142Y-112942571D01*
X161593571Y-112871142D01*
X161629285Y-112764000D01*
X161629285Y-112692571D01*
X161593571Y-112585428D01*
X161557857Y-112549714D01*
X161307857Y-112549714D01*
X161307857Y-112692571D01*
X161629285Y-112228285D02*
X160879285Y-112228285D01*
X161629285Y-111799714D01*
X160879285Y-111799714D01*
X161629285Y-111442571D02*
X160879285Y-111442571D01*
X160879285Y-111264000D01*
X160915000Y-111156857D01*
X160986428Y-111085428D01*
X161057857Y-111049714D01*
X161200714Y-111014000D01*
X161307857Y-111014000D01*
X161450714Y-111049714D01*
X161522142Y-111085428D01*
X161593571Y-111156857D01*
X161629285Y-111264000D01*
X161629285Y-111442571D01*
X148215000Y-112585428D02*
X148179285Y-112656857D01*
X148179285Y-112764000D01*
X148215000Y-112871142D01*
X148286428Y-112942571D01*
X148357857Y-112978285D01*
X148500714Y-113014000D01*
X148607857Y-113014000D01*
X148750714Y-112978285D01*
X148822142Y-112942571D01*
X148893571Y-112871142D01*
X148929285Y-112764000D01*
X148929285Y-112692571D01*
X148893571Y-112585428D01*
X148857857Y-112549714D01*
X148607857Y-112549714D01*
X148607857Y-112692571D01*
X148929285Y-112228285D02*
X148179285Y-112228285D01*
X148929285Y-111799714D01*
X148179285Y-111799714D01*
X148929285Y-111442571D02*
X148179285Y-111442571D01*
X148179285Y-111264000D01*
X148215000Y-111156857D01*
X148286428Y-111085428D01*
X148357857Y-111049714D01*
X148500714Y-111014000D01*
X148607857Y-111014000D01*
X148750714Y-111049714D01*
X148822142Y-111085428D01*
X148893571Y-111156857D01*
X148929285Y-111264000D01*
X148929285Y-111442571D01*
X155799285Y-112156857D02*
X155799285Y-112514000D01*
X156156428Y-112549714D01*
X156120714Y-112514000D01*
X156085000Y-112442571D01*
X156085000Y-112264000D01*
X156120714Y-112192571D01*
X156156428Y-112156857D01*
X156227857Y-112121142D01*
X156406428Y-112121142D01*
X156477857Y-112156857D01*
X156513571Y-112192571D01*
X156549285Y-112264000D01*
X156549285Y-112442571D01*
X156513571Y-112514000D01*
X156477857Y-112549714D01*
X155799285Y-111906857D02*
X156549285Y-111656857D01*
X155799285Y-111406857D01*
X143353285Y-112156857D02*
X143353285Y-112514000D01*
X143710428Y-112549714D01*
X143674714Y-112514000D01*
X143639000Y-112442571D01*
X143639000Y-112264000D01*
X143674714Y-112192571D01*
X143710428Y-112156857D01*
X143781857Y-112121142D01*
X143960428Y-112121142D01*
X144031857Y-112156857D01*
X144067571Y-112192571D01*
X144103285Y-112264000D01*
X144103285Y-112442571D01*
X144067571Y-112514000D01*
X144031857Y-112549714D01*
X143353285Y-111906857D02*
X144103285Y-111656857D01*
X143353285Y-111406857D01*
X158339285Y-113121142D02*
X158339285Y-112656857D01*
X158625000Y-112906857D01*
X158625000Y-112799714D01*
X158660714Y-112728285D01*
X158696428Y-112692571D01*
X158767857Y-112656857D01*
X158946428Y-112656857D01*
X159017857Y-112692571D01*
X159053571Y-112728285D01*
X159089285Y-112799714D01*
X159089285Y-113014000D01*
X159053571Y-113085428D01*
X159017857Y-113121142D01*
X159017857Y-112335428D02*
X159053571Y-112299714D01*
X159089285Y-112335428D01*
X159053571Y-112371142D01*
X159017857Y-112335428D01*
X159089285Y-112335428D01*
X158339285Y-112049714D02*
X158339285Y-111585428D01*
X158625000Y-111835428D01*
X158625000Y-111728285D01*
X158660714Y-111656857D01*
X158696428Y-111621142D01*
X158767857Y-111585428D01*
X158946428Y-111585428D01*
X159017857Y-111621142D01*
X159053571Y-111656857D01*
X159089285Y-111728285D01*
X159089285Y-111942571D01*
X159053571Y-112014000D01*
X159017857Y-112049714D01*
X158339285Y-111371142D02*
X159089285Y-111121142D01*
X158339285Y-110871142D01*
X145639285Y-113121142D02*
X145639285Y-112656857D01*
X145925000Y-112906857D01*
X145925000Y-112799714D01*
X145960714Y-112728285D01*
X145996428Y-112692571D01*
X146067857Y-112656857D01*
X146246428Y-112656857D01*
X146317857Y-112692571D01*
X146353571Y-112728285D01*
X146389285Y-112799714D01*
X146389285Y-113014000D01*
X146353571Y-113085428D01*
X146317857Y-113121142D01*
X146317857Y-112335428D02*
X146353571Y-112299714D01*
X146389285Y-112335428D01*
X146353571Y-112371142D01*
X146317857Y-112335428D01*
X146389285Y-112335428D01*
X145639285Y-112049714D02*
X145639285Y-111585428D01*
X145925000Y-111835428D01*
X145925000Y-111728285D01*
X145960714Y-111656857D01*
X145996428Y-111621142D01*
X146067857Y-111585428D01*
X146246428Y-111585428D01*
X146317857Y-111621142D01*
X146353571Y-111656857D01*
X146389285Y-111728285D01*
X146389285Y-111942571D01*
X146353571Y-112014000D01*
X146317857Y-112049714D01*
X145639285Y-111371142D02*
X146389285Y-111121142D01*
X145639285Y-110871142D01*
D11*
X161290095Y-41965619D02*
X161337714Y-41918000D01*
X161432952Y-41870380D01*
X161671047Y-41870380D01*
X161766285Y-41918000D01*
X161813904Y-41965619D01*
X161861523Y-42060857D01*
X161861523Y-42156095D01*
X161813904Y-42298952D01*
X161242476Y-42870380D01*
X161861523Y-42870380D01*
X162194857Y-41870380D02*
X162813904Y-41870380D01*
X162480571Y-42251333D01*
X162623428Y-42251333D01*
X162718666Y-42298952D01*
X162766285Y-42346571D01*
X162813904Y-42441809D01*
X162813904Y-42679904D01*
X162766285Y-42775142D01*
X162718666Y-42822761D01*
X162623428Y-42870380D01*
X162337714Y-42870380D01*
X162242476Y-42822761D01*
X162194857Y-42775142D01*
X161290095Y-47045619D02*
X161337714Y-46998000D01*
X161432952Y-46950380D01*
X161671047Y-46950380D01*
X161766285Y-46998000D01*
X161813904Y-47045619D01*
X161861523Y-47140857D01*
X161861523Y-47236095D01*
X161813904Y-47378952D01*
X161242476Y-47950380D01*
X161861523Y-47950380D01*
X162242476Y-47045619D02*
X162290095Y-46998000D01*
X162385333Y-46950380D01*
X162623428Y-46950380D01*
X162718666Y-46998000D01*
X162766285Y-47045619D01*
X162813904Y-47140857D01*
X162813904Y-47236095D01*
X162766285Y-47378952D01*
X162194857Y-47950380D01*
X162813904Y-47950380D01*
X161290095Y-52125619D02*
X161337714Y-52078000D01*
X161432952Y-52030380D01*
X161671047Y-52030380D01*
X161766285Y-52078000D01*
X161813904Y-52125619D01*
X161861523Y-52220857D01*
X161861523Y-52316095D01*
X161813904Y-52458952D01*
X161242476Y-53030380D01*
X161861523Y-53030380D01*
X162813904Y-53030380D02*
X162242476Y-53030380D01*
X162528190Y-53030380D02*
X162528190Y-52030380D01*
X162432952Y-52173238D01*
X162337714Y-52268476D01*
X162242476Y-52316095D01*
X161290095Y-57205619D02*
X161337714Y-57158000D01*
X161432952Y-57110380D01*
X161671047Y-57110380D01*
X161766285Y-57158000D01*
X161813904Y-57205619D01*
X161861523Y-57300857D01*
X161861523Y-57396095D01*
X161813904Y-57538952D01*
X161242476Y-58110380D01*
X161861523Y-58110380D01*
X162480571Y-57110380D02*
X162575809Y-57110380D01*
X162671047Y-57158000D01*
X162718666Y-57205619D01*
X162766285Y-57300857D01*
X162813904Y-57491333D01*
X162813904Y-57729428D01*
X162766285Y-57919904D01*
X162718666Y-58015142D01*
X162671047Y-58062761D01*
X162575809Y-58110380D01*
X162480571Y-58110380D01*
X162385333Y-58062761D01*
X162337714Y-58015142D01*
X162290095Y-57919904D01*
X162242476Y-57729428D01*
X162242476Y-57491333D01*
X162290095Y-57300857D01*
X162337714Y-57205619D01*
X162385333Y-57158000D01*
X162480571Y-57110380D01*
X161861523Y-63190380D02*
X161290095Y-63190380D01*
X161575809Y-63190380D02*
X161575809Y-62190380D01*
X161480571Y-62333238D01*
X161385333Y-62428476D01*
X161290095Y-62476095D01*
X162337714Y-63190380D02*
X162528190Y-63190380D01*
X162623428Y-63142761D01*
X162671047Y-63095142D01*
X162766285Y-62952285D01*
X162813904Y-62761809D01*
X162813904Y-62380857D01*
X162766285Y-62285619D01*
X162718666Y-62238000D01*
X162623428Y-62190380D01*
X162432952Y-62190380D01*
X162337714Y-62238000D01*
X162290095Y-62285619D01*
X162242476Y-62380857D01*
X162242476Y-62618952D01*
X162290095Y-62714190D01*
X162337714Y-62761809D01*
X162432952Y-62809428D01*
X162623428Y-62809428D01*
X162718666Y-62761809D01*
X162766285Y-62714190D01*
X162813904Y-62618952D01*
X161861523Y-68270380D02*
X161290095Y-68270380D01*
X161575809Y-68270380D02*
X161575809Y-67270380D01*
X161480571Y-67413238D01*
X161385333Y-67508476D01*
X161290095Y-67556095D01*
X162432952Y-67698952D02*
X162337714Y-67651333D01*
X162290095Y-67603714D01*
X162242476Y-67508476D01*
X162242476Y-67460857D01*
X162290095Y-67365619D01*
X162337714Y-67318000D01*
X162432952Y-67270380D01*
X162623428Y-67270380D01*
X162718666Y-67318000D01*
X162766285Y-67365619D01*
X162813904Y-67460857D01*
X162813904Y-67508476D01*
X162766285Y-67603714D01*
X162718666Y-67651333D01*
X162623428Y-67698952D01*
X162432952Y-67698952D01*
X162337714Y-67746571D01*
X162290095Y-67794190D01*
X162242476Y-67889428D01*
X162242476Y-68079904D01*
X162290095Y-68175142D01*
X162337714Y-68222761D01*
X162432952Y-68270380D01*
X162623428Y-68270380D01*
X162718666Y-68222761D01*
X162766285Y-68175142D01*
X162813904Y-68079904D01*
X162813904Y-67889428D01*
X162766285Y-67794190D01*
X162718666Y-67746571D01*
X162623428Y-67698952D01*
X160861523Y-73064666D02*
X161337714Y-73064666D01*
X160766285Y-73350380D02*
X161099619Y-72350380D01*
X161432952Y-73350380D01*
X161718666Y-72445619D02*
X161766285Y-72398000D01*
X161861523Y-72350380D01*
X162099619Y-72350380D01*
X162194857Y-72398000D01*
X162242476Y-72445619D01*
X162290095Y-72540857D01*
X162290095Y-72636095D01*
X162242476Y-72778952D01*
X161671047Y-73350380D01*
X162290095Y-73350380D01*
X162671047Y-72445619D02*
X162718666Y-72398000D01*
X162813904Y-72350380D01*
X163052000Y-72350380D01*
X163147238Y-72398000D01*
X163194857Y-72445619D01*
X163242476Y-72540857D01*
X163242476Y-72636095D01*
X163194857Y-72778952D01*
X162623428Y-73350380D01*
X163242476Y-73350380D01*
X160861523Y-78144666D02*
X161337714Y-78144666D01*
X160766285Y-78430380D02*
X161099619Y-77430380D01*
X161432952Y-78430380D01*
X161718666Y-77525619D02*
X161766285Y-77478000D01*
X161861523Y-77430380D01*
X162099619Y-77430380D01*
X162194857Y-77478000D01*
X162242476Y-77525619D01*
X162290095Y-77620857D01*
X162290095Y-77716095D01*
X162242476Y-77858952D01*
X161671047Y-78430380D01*
X162290095Y-78430380D01*
X163242476Y-78430380D02*
X162671047Y-78430380D01*
X162956761Y-78430380D02*
X162956761Y-77430380D01*
X162861523Y-77573238D01*
X162766285Y-77668476D01*
X162671047Y-77716095D01*
D13*
X162496190Y-94083095D02*
X162496190Y-93773571D01*
X162686666Y-93940238D01*
X162686666Y-93868809D01*
X162710476Y-93821190D01*
X162734285Y-93797380D01*
X162781904Y-93773571D01*
X162900952Y-93773571D01*
X162948571Y-93797380D01*
X162972380Y-93821190D01*
X162996190Y-93868809D01*
X162996190Y-94011666D01*
X162972380Y-94059285D01*
X162948571Y-94083095D01*
X162948571Y-93559285D02*
X162972380Y-93535476D01*
X162996190Y-93559285D01*
X162972380Y-93583095D01*
X162948571Y-93559285D01*
X162996190Y-93559285D01*
X162496190Y-93368809D02*
X162496190Y-93059285D01*
X162686666Y-93225952D01*
X162686666Y-93154523D01*
X162710476Y-93106904D01*
X162734285Y-93083095D01*
X162781904Y-93059285D01*
X162900952Y-93059285D01*
X162948571Y-93083095D01*
X162972380Y-93106904D01*
X162996190Y-93154523D01*
X162996190Y-93297380D01*
X162972380Y-93345000D01*
X162948571Y-93368809D01*
X162496190Y-92916428D02*
X162996190Y-92749761D01*
X162496190Y-92583095D01*
X163512857Y-95583095D02*
X163512857Y-95392619D01*
X163846190Y-95511666D02*
X163417619Y-95511666D01*
X163370000Y-95487857D01*
X163346190Y-95440238D01*
X163346190Y-95392619D01*
X163846190Y-95225952D02*
X163512857Y-95225952D01*
X163608095Y-95225952D02*
X163560476Y-95202142D01*
X163536666Y-95178333D01*
X163512857Y-95130714D01*
X163512857Y-95083095D01*
X163846190Y-94845000D02*
X163822380Y-94892619D01*
X163798571Y-94916428D01*
X163750952Y-94940238D01*
X163608095Y-94940238D01*
X163560476Y-94916428D01*
X163536666Y-94892619D01*
X163512857Y-94845000D01*
X163512857Y-94773571D01*
X163536666Y-94725952D01*
X163560476Y-94702142D01*
X163608095Y-94678333D01*
X163750952Y-94678333D01*
X163798571Y-94702142D01*
X163822380Y-94725952D01*
X163846190Y-94773571D01*
X163846190Y-94845000D01*
X163846190Y-94464047D02*
X163512857Y-94464047D01*
X163560476Y-94464047D02*
X163536666Y-94440238D01*
X163512857Y-94392619D01*
X163512857Y-94321190D01*
X163536666Y-94273571D01*
X163584285Y-94249761D01*
X163846190Y-94249761D01*
X163584285Y-94249761D02*
X163536666Y-94225952D01*
X163512857Y-94178333D01*
X163512857Y-94106904D01*
X163536666Y-94059285D01*
X163584285Y-94035476D01*
X163846190Y-94035476D01*
X163346190Y-93487857D02*
X163346190Y-93202142D01*
X163846190Y-93345000D02*
X163346190Y-93345000D01*
X163822380Y-92845000D02*
X163846190Y-92892619D01*
X163846190Y-92987857D01*
X163822380Y-93035476D01*
X163774761Y-93059285D01*
X163584285Y-93059285D01*
X163536666Y-93035476D01*
X163512857Y-92987857D01*
X163512857Y-92892619D01*
X163536666Y-92845000D01*
X163584285Y-92821190D01*
X163631904Y-92821190D01*
X163679523Y-93059285D01*
X163822380Y-92416428D02*
X163846190Y-92464047D01*
X163846190Y-92559285D01*
X163822380Y-92606904D01*
X163774761Y-92630714D01*
X163584285Y-92630714D01*
X163536666Y-92606904D01*
X163512857Y-92559285D01*
X163512857Y-92464047D01*
X163536666Y-92416428D01*
X163584285Y-92392619D01*
X163631904Y-92392619D01*
X163679523Y-92630714D01*
X163512857Y-92178333D02*
X163846190Y-92178333D01*
X163560476Y-92178333D02*
X163536666Y-92154523D01*
X163512857Y-92106904D01*
X163512857Y-92035476D01*
X163536666Y-91987857D01*
X163584285Y-91964047D01*
X163846190Y-91964047D01*
X163822380Y-91749761D02*
X163846190Y-91702142D01*
X163846190Y-91606904D01*
X163822380Y-91559285D01*
X163774761Y-91535476D01*
X163750952Y-91535476D01*
X163703333Y-91559285D01*
X163679523Y-91606904D01*
X163679523Y-91678333D01*
X163655714Y-91725952D01*
X163608095Y-91749761D01*
X163584285Y-91749761D01*
X163536666Y-91725952D01*
X163512857Y-91678333D01*
X163512857Y-91606904D01*
X163536666Y-91559285D01*
X163512857Y-91368809D02*
X163846190Y-91249761D01*
X163512857Y-91130714D02*
X163846190Y-91249761D01*
X163965238Y-91297380D01*
X163989047Y-91321190D01*
X164012857Y-91368809D01*
D11*
X146320095Y-35472666D02*
X146796285Y-35472666D01*
X146224857Y-35758380D02*
X146558190Y-34758380D01*
X146891523Y-35758380D01*
X147748666Y-34806000D02*
X147653428Y-34758380D01*
X147510571Y-34758380D01*
X147367714Y-34806000D01*
X147272476Y-34901238D01*
X147224857Y-34996476D01*
X147177238Y-35186952D01*
X147177238Y-35329809D01*
X147224857Y-35520285D01*
X147272476Y-35615523D01*
X147367714Y-35710761D01*
X147510571Y-35758380D01*
X147605809Y-35758380D01*
X147748666Y-35710761D01*
X147796285Y-35663142D01*
X147796285Y-35329809D01*
X147605809Y-35329809D01*
X148224857Y-35758380D02*
X148224857Y-34758380D01*
X148796285Y-35758380D01*
X148796285Y-34758380D01*
X149272476Y-35758380D02*
X149272476Y-34758380D01*
X149510571Y-34758380D01*
X149653428Y-34806000D01*
X149748666Y-34901238D01*
X149796285Y-34996476D01*
X149843904Y-35186952D01*
X149843904Y-35329809D01*
X149796285Y-35520285D01*
X149748666Y-35615523D01*
X149653428Y-35710761D01*
X149510571Y-35758380D01*
X149272476Y-35758380D01*
X117348095Y-37600000D02*
X117252857Y-37552380D01*
X117110000Y-37552380D01*
X116967142Y-37600000D01*
X116871904Y-37695238D01*
X116824285Y-37790476D01*
X116776666Y-37980952D01*
X116776666Y-38123809D01*
X116824285Y-38314285D01*
X116871904Y-38409523D01*
X116967142Y-38504761D01*
X117110000Y-38552380D01*
X117205238Y-38552380D01*
X117348095Y-38504761D01*
X117395714Y-38457142D01*
X117395714Y-38123809D01*
X117205238Y-38123809D01*
X117824285Y-38552380D02*
X117824285Y-37552380D01*
X118395714Y-38552380D01*
X118395714Y-37552380D01*
X118871904Y-38552380D02*
X118871904Y-37552380D01*
X119110000Y-37552380D01*
X119252857Y-37600000D01*
X119348095Y-37695238D01*
X119395714Y-37790476D01*
X119443333Y-37980952D01*
X119443333Y-38123809D01*
X119395714Y-38314285D01*
X119348095Y-38409523D01*
X119252857Y-38504761D01*
X119110000Y-38552380D01*
X118871904Y-38552380D01*
X160575809Y-81660380D02*
X161194857Y-81660380D01*
X160861523Y-82041333D01*
X161004380Y-82041333D01*
X161099619Y-82088952D01*
X161147238Y-82136571D01*
X161194857Y-82231809D01*
X161194857Y-82469904D01*
X161147238Y-82565142D01*
X161099619Y-82612761D01*
X161004380Y-82660380D01*
X160718666Y-82660380D01*
X160623428Y-82612761D01*
X160575809Y-82565142D01*
X161623428Y-82565142D02*
X161671047Y-82612761D01*
X161623428Y-82660380D01*
X161575809Y-82612761D01*
X161623428Y-82565142D01*
X161623428Y-82660380D01*
X162004380Y-81660380D02*
X162623428Y-81660380D01*
X162290095Y-82041333D01*
X162432952Y-82041333D01*
X162528190Y-82088952D01*
X162575809Y-82136571D01*
X162623428Y-82231809D01*
X162623428Y-82469904D01*
X162575809Y-82565142D01*
X162528190Y-82612761D01*
X162432952Y-82660380D01*
X162147238Y-82660380D01*
X162052000Y-82612761D01*
X162004380Y-82565142D01*
X162909142Y-81660380D02*
X163242476Y-82660380D01*
X163575809Y-81660380D01*
X161552000Y-84360380D02*
X161075809Y-84360380D01*
X161075809Y-83360380D01*
X161885333Y-84360380D02*
X161885333Y-83360380D01*
X162361523Y-84360380D02*
X162361523Y-83360380D01*
X162694857Y-84074666D01*
X163028190Y-83360380D01*
X163028190Y-84360380D01*
X149084849Y-90811100D02*
X149703897Y-90811100D01*
X149370563Y-91192053D01*
X149513420Y-91192053D01*
X149608659Y-91239672D01*
X149656278Y-91287291D01*
X149703897Y-91382529D01*
X149703897Y-91620624D01*
X149656278Y-91715862D01*
X149608659Y-91763481D01*
X149513420Y-91811100D01*
X149227706Y-91811100D01*
X149132468Y-91763481D01*
X149084849Y-91715862D01*
X150132468Y-91715862D02*
X150180087Y-91763481D01*
X150132468Y-91811100D01*
X150084849Y-91763481D01*
X150132468Y-91715862D01*
X150132468Y-91811100D01*
X150513420Y-90811100D02*
X151132468Y-90811100D01*
X150799135Y-91192053D01*
X150941992Y-91192053D01*
X151037230Y-91239672D01*
X151084849Y-91287291D01*
X151132468Y-91382529D01*
X151132468Y-91620624D01*
X151084849Y-91715862D01*
X151037230Y-91763481D01*
X150941992Y-91811100D01*
X150656278Y-91811100D01*
X150561040Y-91763481D01*
X150513420Y-91715862D01*
X151418182Y-90811100D02*
X151751516Y-91811100D01*
X152084849Y-90811100D01*
X150497563Y-99193100D02*
X150021373Y-99193100D01*
X149973754Y-99669291D01*
X150021373Y-99621672D01*
X150116611Y-99574053D01*
X150354706Y-99574053D01*
X150449944Y-99621672D01*
X150497563Y-99669291D01*
X150545182Y-99764529D01*
X150545182Y-100002624D01*
X150497563Y-100097862D01*
X150449944Y-100145481D01*
X150354706Y-100193100D01*
X150116611Y-100193100D01*
X150021373Y-100145481D01*
X149973754Y-100097862D01*
X150830897Y-99193100D02*
X151164230Y-100193100D01*
X151497563Y-99193100D01*
D12*
G04 #@! TO.C,COMM1*
X116840000Y-89865000D02*
X117440000Y-90465000D01*
X116240000Y-90465000D02*
X116840000Y-89865000D01*
X117440000Y-90465000D02*
X116240000Y-90465000D01*
X111000000Y-90915000D02*
X111000000Y-90415000D01*
X110900000Y-90415000D02*
X111100000Y-90415000D01*
X110900000Y-90915000D02*
X110900000Y-90415000D01*
X111100000Y-90915000D02*
X110900000Y-90915000D01*
X111000000Y-45475000D02*
X111000000Y-44975000D01*
X110900000Y-44975000D02*
X111100000Y-44975000D01*
X110900000Y-45475000D02*
X110900000Y-44975000D01*
X111100000Y-45475000D02*
X110900000Y-45475000D01*
X111000000Y-68195000D02*
X111000000Y-67695000D01*
X110900000Y-67695000D02*
X111100000Y-67695000D01*
X110900000Y-68195000D02*
X110900000Y-67695000D01*
X111100000Y-68195000D02*
X110900000Y-68195000D01*
X118740000Y-65720000D02*
X120040000Y-65720000D01*
X118740000Y-43755000D02*
X118740000Y-65720000D01*
X112400000Y-43755000D02*
X118740000Y-43755000D01*
X112400000Y-92135000D02*
X112400000Y-43755000D01*
X118740000Y-92135000D02*
X112400000Y-92135000D01*
X118740000Y-70170000D02*
X118740000Y-92135000D01*
X120040000Y-70170000D02*
X118740000Y-70170000D01*
X120040000Y-42555000D02*
X120040000Y-93335000D01*
X111100000Y-42555000D02*
X120040000Y-42555000D01*
X111100000Y-93335000D02*
X111100000Y-42555000D01*
X120040000Y-93335000D02*
X111100000Y-93335000D01*
D14*
G04 #@! TO.C,CTL1*
X125112000Y-34128000D02*
X125112000Y-96428000D01*
X125112000Y-96428000D02*
X143112000Y-96428000D01*
X143112000Y-96428000D02*
X143112000Y-34128000D01*
X143112000Y-34128000D02*
X125112000Y-34128000D01*
D15*
X124253420Y-41178000D02*
G75*
G03X124253420Y-41178000I-141420J0D01*
G01*
X137512000Y-36878000D02*
X137612000Y-36878000D01*
D16*
G04 #@! TO.C,J11*
X109192000Y-106288000D02*
X111792000Y-106288000D01*
X109192000Y-120988000D02*
X109192000Y-106288000D01*
X118392000Y-106288000D02*
X118392000Y-108188000D01*
X115692000Y-106288000D02*
X118392000Y-106288000D01*
X118392000Y-120988000D02*
X109192000Y-120988000D01*
X118392000Y-112188000D02*
X118392000Y-120988000D01*
G04 #@! TO.C,R1*
X158922000Y-87130000D02*
X158922000Y-88130000D01*
X157562000Y-88130000D02*
X157562000Y-87130000D01*
G04 #@! TO.C,R2*
X147402000Y-88300000D02*
X147402000Y-87300000D01*
X148762000Y-87300000D02*
X148762000Y-88300000D01*
G04 #@! TO.C,R3*
X152482000Y-88214000D02*
X152482000Y-87214000D01*
X153842000Y-87214000D02*
X153842000Y-88214000D01*
G04 #@! TO.C,USB1*
X124710000Y-103888000D02*
X136910000Y-103888000D01*
X136910000Y-120908000D02*
X124710000Y-120908000D01*
X136910000Y-103888000D02*
X136910000Y-108968000D01*
X136910000Y-112268000D02*
X136910000Y-120908000D01*
X124710000Y-103888000D02*
X124710000Y-108968000D01*
X124710000Y-112268000D02*
X124710000Y-120908000D01*
G04 #@! TO.C,PWR1*
X151440000Y-110192000D02*
X151440000Y-107692000D01*
X148940000Y-110192000D02*
X151440000Y-110192000D01*
X141790000Y-104692000D02*
X146090000Y-104692000D01*
X141790000Y-107642000D02*
X141790000Y-104692000D01*
X141040000Y-107642000D02*
X141790000Y-107642000D01*
X150390000Y-104692000D02*
X146090000Y-104692000D01*
X150390000Y-107642000D02*
X150390000Y-104692000D01*
X151140000Y-107642000D02*
X150390000Y-107642000D01*
X141040000Y-109892000D02*
X142840000Y-109892000D01*
X141040000Y-109142000D02*
X141040000Y-109892000D01*
X142840000Y-109142000D02*
X141040000Y-109142000D01*
X142840000Y-109892000D02*
X142840000Y-109142000D01*
X149340000Y-109892000D02*
X151140000Y-109892000D01*
X149340000Y-109142000D02*
X149340000Y-109892000D01*
X151140000Y-109142000D02*
X149340000Y-109142000D01*
X151140000Y-109892000D02*
X151140000Y-109142000D01*
X144340000Y-109892000D02*
X147840000Y-109892000D01*
X144340000Y-109142000D02*
X144340000Y-109892000D01*
X147840000Y-109142000D02*
X144340000Y-109142000D01*
X147840000Y-109892000D02*
X147840000Y-109142000D01*
X141040000Y-109892000D02*
X151140000Y-109892000D01*
X141040000Y-103942000D02*
X141040000Y-109892000D01*
X151140000Y-103942000D02*
X141040000Y-103942000D01*
X151140000Y-109892000D02*
X151140000Y-103942000D01*
G04 #@! TO.C,PWR2*
X151140000Y-120052000D02*
X151140000Y-114102000D01*
X151140000Y-114102000D02*
X141040000Y-114102000D01*
X141040000Y-114102000D02*
X141040000Y-120052000D01*
X141040000Y-120052000D02*
X151140000Y-120052000D01*
X147840000Y-120052000D02*
X147840000Y-119302000D01*
X147840000Y-119302000D02*
X144340000Y-119302000D01*
X144340000Y-119302000D02*
X144340000Y-120052000D01*
X144340000Y-120052000D02*
X147840000Y-120052000D01*
X151140000Y-120052000D02*
X151140000Y-119302000D01*
X151140000Y-119302000D02*
X149340000Y-119302000D01*
X149340000Y-119302000D02*
X149340000Y-120052000D01*
X149340000Y-120052000D02*
X151140000Y-120052000D01*
X142840000Y-120052000D02*
X142840000Y-119302000D01*
X142840000Y-119302000D02*
X141040000Y-119302000D01*
X141040000Y-119302000D02*
X141040000Y-120052000D01*
X141040000Y-120052000D02*
X142840000Y-120052000D01*
X151140000Y-117802000D02*
X150390000Y-117802000D01*
X150390000Y-117802000D02*
X150390000Y-114852000D01*
X150390000Y-114852000D02*
X146090000Y-114852000D01*
X141040000Y-117802000D02*
X141790000Y-117802000D01*
X141790000Y-117802000D02*
X141790000Y-114852000D01*
X141790000Y-114852000D02*
X146090000Y-114852000D01*
X148940000Y-120352000D02*
X151440000Y-120352000D01*
X151440000Y-120352000D02*
X151440000Y-117852000D01*
G04 #@! TO.C,PWR3*
X164140000Y-110192000D02*
X164140000Y-107692000D01*
X161640000Y-110192000D02*
X164140000Y-110192000D01*
X154490000Y-104692000D02*
X158790000Y-104692000D01*
X154490000Y-107642000D02*
X154490000Y-104692000D01*
X153740000Y-107642000D02*
X154490000Y-107642000D01*
X163090000Y-104692000D02*
X158790000Y-104692000D01*
X163090000Y-107642000D02*
X163090000Y-104692000D01*
X163840000Y-107642000D02*
X163090000Y-107642000D01*
X153740000Y-109892000D02*
X155540000Y-109892000D01*
X153740000Y-109142000D02*
X153740000Y-109892000D01*
X155540000Y-109142000D02*
X153740000Y-109142000D01*
X155540000Y-109892000D02*
X155540000Y-109142000D01*
X162040000Y-109892000D02*
X163840000Y-109892000D01*
X162040000Y-109142000D02*
X162040000Y-109892000D01*
X163840000Y-109142000D02*
X162040000Y-109142000D01*
X163840000Y-109892000D02*
X163840000Y-109142000D01*
X157040000Y-109892000D02*
X160540000Y-109892000D01*
X157040000Y-109142000D02*
X157040000Y-109892000D01*
X160540000Y-109142000D02*
X157040000Y-109142000D01*
X160540000Y-109892000D02*
X160540000Y-109142000D01*
X153740000Y-109892000D02*
X163840000Y-109892000D01*
X153740000Y-103942000D02*
X153740000Y-109892000D01*
X163840000Y-103942000D02*
X153740000Y-103942000D01*
X163840000Y-109892000D02*
X163840000Y-103942000D01*
G04 #@! TO.C,PWR4*
X163840000Y-120052000D02*
X163840000Y-114102000D01*
X163840000Y-114102000D02*
X153740000Y-114102000D01*
X153740000Y-114102000D02*
X153740000Y-120052000D01*
X153740000Y-120052000D02*
X163840000Y-120052000D01*
X160540000Y-120052000D02*
X160540000Y-119302000D01*
X160540000Y-119302000D02*
X157040000Y-119302000D01*
X157040000Y-119302000D02*
X157040000Y-120052000D01*
X157040000Y-120052000D02*
X160540000Y-120052000D01*
X163840000Y-120052000D02*
X163840000Y-119302000D01*
X163840000Y-119302000D02*
X162040000Y-119302000D01*
X162040000Y-119302000D02*
X162040000Y-120052000D01*
X162040000Y-120052000D02*
X163840000Y-120052000D01*
X155540000Y-120052000D02*
X155540000Y-119302000D01*
X155540000Y-119302000D02*
X153740000Y-119302000D01*
X153740000Y-119302000D02*
X153740000Y-120052000D01*
X153740000Y-120052000D02*
X155540000Y-120052000D01*
X163840000Y-117802000D02*
X163090000Y-117802000D01*
X163090000Y-117802000D02*
X163090000Y-114852000D01*
X163090000Y-114852000D02*
X158790000Y-114852000D01*
X153740000Y-117802000D02*
X154490000Y-117802000D01*
X154490000Y-117802000D02*
X154490000Y-114852000D01*
X154490000Y-114852000D02*
X158790000Y-114852000D01*
X161640000Y-120352000D02*
X164140000Y-120352000D01*
X164140000Y-120352000D02*
X164140000Y-117852000D01*
G04 #@! TO.C,JP1*
X161350000Y-92015000D02*
X161350000Y-93345000D01*
X160020000Y-92015000D02*
X161350000Y-92015000D01*
X158750000Y-92015000D02*
X158750000Y-94675000D01*
X158750000Y-94675000D02*
X156150000Y-94675000D01*
X158750000Y-92015000D02*
X156150000Y-92015000D01*
X156150000Y-92015000D02*
X156150000Y-94675000D01*
G04 #@! TD*
M02*
