G04 #@! TF.GenerationSoftware,KiCad,Pcbnew,(5.0.2-4-g3082e92af)*
G04 #@! TF.CreationDate,2019-02-05T21:12:24+02:00*
G04 #@! TF.ProjectId,My Piano Controller 6 (Full SMD),4d792050-6961-46e6-9f20-436f6e74726f,rev?*
G04 #@! TF.SameCoordinates,Original*
G04 #@! TF.FileFunction,Soldermask,Top*
G04 #@! TF.FilePolarity,Negative*
%FSLAX46Y46*%
G04 Gerber Fmt 4.6, Leading zero omitted, Abs format (unit mm)*
G04 Created by KiCad (PCBNEW (5.0.2-4-g3082e92af)) date 2019 February 05, Tuesday 21:12:24*
%MOMM*%
%LPD*%
G01*
G04 APERTURE LIST*
%ADD10C,0.100000*%
G04 APERTURE END LIST*
D10*
G36*
X162216000Y-118528000D02*
X160364000Y-118528000D01*
X160364000Y-116676000D01*
X162216000Y-116676000D01*
X162216000Y-118528000D01*
X162216000Y-118528000D01*
G37*
G36*
X159060104Y-116711585D02*
X159228626Y-116781389D01*
X159380291Y-116882728D01*
X159509272Y-117011709D01*
X159610611Y-117163374D01*
X159680415Y-117331896D01*
X159716000Y-117510797D01*
X159716000Y-117693203D01*
X159680415Y-117872104D01*
X159610611Y-118040626D01*
X159509272Y-118192291D01*
X159380291Y-118321272D01*
X159228626Y-118422611D01*
X159060104Y-118492415D01*
X158881203Y-118528000D01*
X158698797Y-118528000D01*
X158519896Y-118492415D01*
X158351374Y-118422611D01*
X158199709Y-118321272D01*
X158070728Y-118192291D01*
X157969389Y-118040626D01*
X157899585Y-117872104D01*
X157864000Y-117693203D01*
X157864000Y-117510797D01*
X157899585Y-117331896D01*
X157969389Y-117163374D01*
X158070728Y-117011709D01*
X158199709Y-116882728D01*
X158351374Y-116781389D01*
X158519896Y-116711585D01*
X158698797Y-116676000D01*
X158881203Y-116676000D01*
X159060104Y-116711585D01*
X159060104Y-116711585D01*
G37*
G36*
X156560104Y-116711585D02*
X156728626Y-116781389D01*
X156880291Y-116882728D01*
X157009272Y-117011709D01*
X157110611Y-117163374D01*
X157180415Y-117331896D01*
X157216000Y-117510797D01*
X157216000Y-117693203D01*
X157180415Y-117872104D01*
X157110611Y-118040626D01*
X157009272Y-118192291D01*
X156880291Y-118321272D01*
X156728626Y-118422611D01*
X156560104Y-118492415D01*
X156381203Y-118528000D01*
X156198797Y-118528000D01*
X156019896Y-118492415D01*
X155851374Y-118422611D01*
X155699709Y-118321272D01*
X155570728Y-118192291D01*
X155469389Y-118040626D01*
X155399585Y-117872104D01*
X155364000Y-117693203D01*
X155364000Y-117510797D01*
X155399585Y-117331896D01*
X155469389Y-117163374D01*
X155570728Y-117011709D01*
X155699709Y-116882728D01*
X155851374Y-116781389D01*
X156019896Y-116711585D01*
X156198797Y-116676000D01*
X156381203Y-116676000D01*
X156560104Y-116711585D01*
X156560104Y-116711585D01*
G37*
G36*
X149516000Y-118528000D02*
X147664000Y-118528000D01*
X147664000Y-116676000D01*
X149516000Y-116676000D01*
X149516000Y-118528000D01*
X149516000Y-118528000D01*
G37*
G36*
X146360104Y-116711585D02*
X146528626Y-116781389D01*
X146680291Y-116882728D01*
X146809272Y-117011709D01*
X146910611Y-117163374D01*
X146980415Y-117331896D01*
X147016000Y-117510797D01*
X147016000Y-117693203D01*
X146980415Y-117872104D01*
X146910611Y-118040626D01*
X146809272Y-118192291D01*
X146680291Y-118321272D01*
X146528626Y-118422611D01*
X146360104Y-118492415D01*
X146181203Y-118528000D01*
X145998797Y-118528000D01*
X145819896Y-118492415D01*
X145651374Y-118422611D01*
X145499709Y-118321272D01*
X145370728Y-118192291D01*
X145269389Y-118040626D01*
X145199585Y-117872104D01*
X145164000Y-117693203D01*
X145164000Y-117510797D01*
X145199585Y-117331896D01*
X145269389Y-117163374D01*
X145370728Y-117011709D01*
X145499709Y-116882728D01*
X145651374Y-116781389D01*
X145819896Y-116711585D01*
X145998797Y-116676000D01*
X146181203Y-116676000D01*
X146360104Y-116711585D01*
X146360104Y-116711585D01*
G37*
G36*
X143860104Y-116711585D02*
X144028626Y-116781389D01*
X144180291Y-116882728D01*
X144309272Y-117011709D01*
X144410611Y-117163374D01*
X144480415Y-117331896D01*
X144516000Y-117510797D01*
X144516000Y-117693203D01*
X144480415Y-117872104D01*
X144410611Y-118040626D01*
X144309272Y-118192291D01*
X144180291Y-118321272D01*
X144028626Y-118422611D01*
X143860104Y-118492415D01*
X143681203Y-118528000D01*
X143498797Y-118528000D01*
X143319896Y-118492415D01*
X143151374Y-118422611D01*
X142999709Y-118321272D01*
X142870728Y-118192291D01*
X142769389Y-118040626D01*
X142699585Y-117872104D01*
X142664000Y-117693203D01*
X142664000Y-117510797D01*
X142699585Y-117331896D01*
X142769389Y-117163374D01*
X142870728Y-117011709D01*
X142999709Y-116882728D01*
X143151374Y-116781389D01*
X143319896Y-116711585D01*
X143498797Y-116676000D01*
X143681203Y-116676000D01*
X143860104Y-116711585D01*
X143860104Y-116711585D01*
G37*
G36*
X115593000Y-114989000D02*
X111991000Y-114989000D01*
X111991000Y-111387000D01*
X115593000Y-111387000D01*
X115593000Y-114989000D01*
X115593000Y-114989000D01*
G37*
G36*
X125128433Y-109252893D02*
X125218657Y-109270839D01*
X125324267Y-109314585D01*
X125473621Y-109376449D01*
X125703089Y-109529774D01*
X125898226Y-109724911D01*
X126051551Y-109954379D01*
X126157161Y-110209344D01*
X126211000Y-110480012D01*
X126211000Y-110755988D01*
X126157161Y-111026656D01*
X126051551Y-111281621D01*
X125898226Y-111511089D01*
X125703089Y-111706226D01*
X125473621Y-111859551D01*
X125324267Y-111921415D01*
X125218657Y-111965161D01*
X125128433Y-111983107D01*
X124947988Y-112019000D01*
X124672012Y-112019000D01*
X124491567Y-111983107D01*
X124401343Y-111965161D01*
X124295733Y-111921415D01*
X124146379Y-111859551D01*
X123916911Y-111706226D01*
X123721774Y-111511089D01*
X123568449Y-111281621D01*
X123462839Y-111026656D01*
X123409000Y-110755988D01*
X123409000Y-110480012D01*
X123462839Y-110209344D01*
X123568449Y-109954379D01*
X123721774Y-109724911D01*
X123916911Y-109529774D01*
X124146379Y-109376449D01*
X124295733Y-109314585D01*
X124401343Y-109270839D01*
X124491567Y-109252893D01*
X124672012Y-109217000D01*
X124947988Y-109217000D01*
X125128433Y-109252893D01*
X125128433Y-109252893D01*
G37*
G36*
X137128433Y-109252893D02*
X137218657Y-109270839D01*
X137324267Y-109314585D01*
X137473621Y-109376449D01*
X137703089Y-109529774D01*
X137898226Y-109724911D01*
X138051551Y-109954379D01*
X138157161Y-110209344D01*
X138211000Y-110480012D01*
X138211000Y-110755988D01*
X138157161Y-111026656D01*
X138051551Y-111281621D01*
X137898226Y-111511089D01*
X137703089Y-111706226D01*
X137473621Y-111859551D01*
X137324267Y-111921415D01*
X137218657Y-111965161D01*
X137128433Y-111983107D01*
X136947988Y-112019000D01*
X136672012Y-112019000D01*
X136491567Y-111983107D01*
X136401343Y-111965161D01*
X136295733Y-111921415D01*
X136146379Y-111859551D01*
X135916911Y-111706226D01*
X135721774Y-111511089D01*
X135568449Y-111281621D01*
X135462839Y-111026656D01*
X135409000Y-110755988D01*
X135409000Y-110480012D01*
X135462839Y-110209344D01*
X135568449Y-109954379D01*
X135721774Y-109724911D01*
X135916911Y-109529774D01*
X136146379Y-109376449D01*
X136295733Y-109314585D01*
X136401343Y-109270839D01*
X136491567Y-109252893D01*
X136672012Y-109217000D01*
X136947988Y-109217000D01*
X137128433Y-109252893D01*
X137128433Y-109252893D01*
G37*
G36*
X120293000Y-111989000D02*
X116691000Y-111989000D01*
X116691000Y-108387000D01*
X120293000Y-108387000D01*
X120293000Y-111989000D01*
X120293000Y-111989000D01*
G37*
G36*
X115593000Y-108989000D02*
X111991000Y-108989000D01*
X111991000Y-105387000D01*
X115593000Y-105387000D01*
X115593000Y-108989000D01*
X115593000Y-108989000D01*
G37*
G36*
X129776560Y-107138166D02*
X129857992Y-107171896D01*
X129924153Y-107199301D01*
X130055213Y-107286873D01*
X130056985Y-107288057D01*
X130169943Y-107401015D01*
X130169945Y-107401018D01*
X130258269Y-107533203D01*
X130258700Y-107533849D01*
X130319834Y-107681440D01*
X130351000Y-107838122D01*
X130351000Y-107997878D01*
X130319834Y-108154560D01*
X130258700Y-108302151D01*
X130169943Y-108434985D01*
X130056985Y-108547943D01*
X130056982Y-108547945D01*
X129924153Y-108636699D01*
X129924152Y-108636700D01*
X129924151Y-108636700D01*
X129776560Y-108697834D01*
X129619878Y-108729000D01*
X129460122Y-108729000D01*
X129303440Y-108697834D01*
X129155849Y-108636700D01*
X129155848Y-108636700D01*
X129155847Y-108636699D01*
X129023018Y-108547945D01*
X129023015Y-108547943D01*
X128910057Y-108434985D01*
X128821300Y-108302151D01*
X128760166Y-108154560D01*
X128729000Y-107997878D01*
X128729000Y-107838122D01*
X128760166Y-107681440D01*
X128821300Y-107533849D01*
X128821732Y-107533203D01*
X128910055Y-107401018D01*
X128910057Y-107401015D01*
X129023015Y-107288057D01*
X129024787Y-107286873D01*
X129155847Y-107199301D01*
X129222009Y-107171896D01*
X129303440Y-107138166D01*
X129460122Y-107107000D01*
X129619878Y-107107000D01*
X129776560Y-107138166D01*
X129776560Y-107138166D01*
G37*
G36*
X132316560Y-107138166D02*
X132397992Y-107171896D01*
X132464153Y-107199301D01*
X132595213Y-107286873D01*
X132596985Y-107288057D01*
X132709943Y-107401015D01*
X132709945Y-107401018D01*
X132798269Y-107533203D01*
X132798700Y-107533849D01*
X132859834Y-107681440D01*
X132891000Y-107838122D01*
X132891000Y-107997878D01*
X132859834Y-108154560D01*
X132798700Y-108302151D01*
X132709943Y-108434985D01*
X132596985Y-108547943D01*
X132596982Y-108547945D01*
X132464153Y-108636699D01*
X132464152Y-108636700D01*
X132464151Y-108636700D01*
X132316560Y-108697834D01*
X132159878Y-108729000D01*
X132000122Y-108729000D01*
X131843440Y-108697834D01*
X131695849Y-108636700D01*
X131695848Y-108636700D01*
X131695847Y-108636699D01*
X131563018Y-108547945D01*
X131563015Y-108547943D01*
X131450057Y-108434985D01*
X131361300Y-108302151D01*
X131300166Y-108154560D01*
X131269000Y-107997878D01*
X131269000Y-107838122D01*
X131300166Y-107681440D01*
X131361300Y-107533849D01*
X131361732Y-107533203D01*
X131450055Y-107401018D01*
X131450057Y-107401015D01*
X131563015Y-107288057D01*
X131564787Y-107286873D01*
X131695847Y-107199301D01*
X131762009Y-107171896D01*
X131843440Y-107138166D01*
X132000122Y-107107000D01*
X132159878Y-107107000D01*
X132316560Y-107138166D01*
X132316560Y-107138166D01*
G37*
G36*
X162216000Y-108368000D02*
X160364000Y-108368000D01*
X160364000Y-106516000D01*
X162216000Y-106516000D01*
X162216000Y-108368000D01*
X162216000Y-108368000D01*
G37*
G36*
X159060104Y-106551585D02*
X159228626Y-106621389D01*
X159380291Y-106722728D01*
X159509272Y-106851709D01*
X159610611Y-107003374D01*
X159680415Y-107171896D01*
X159716000Y-107350797D01*
X159716000Y-107533203D01*
X159680415Y-107712104D01*
X159610611Y-107880626D01*
X159509272Y-108032291D01*
X159380291Y-108161272D01*
X159228626Y-108262611D01*
X159060104Y-108332415D01*
X158881203Y-108368000D01*
X158698797Y-108368000D01*
X158519896Y-108332415D01*
X158351374Y-108262611D01*
X158199709Y-108161272D01*
X158070728Y-108032291D01*
X157969389Y-107880626D01*
X157899585Y-107712104D01*
X157864000Y-107533203D01*
X157864000Y-107350797D01*
X157899585Y-107171896D01*
X157969389Y-107003374D01*
X158070728Y-106851709D01*
X158199709Y-106722728D01*
X158351374Y-106621389D01*
X158519896Y-106551585D01*
X158698797Y-106516000D01*
X158881203Y-106516000D01*
X159060104Y-106551585D01*
X159060104Y-106551585D01*
G37*
G36*
X156560104Y-106551585D02*
X156728626Y-106621389D01*
X156880291Y-106722728D01*
X157009272Y-106851709D01*
X157110611Y-107003374D01*
X157180415Y-107171896D01*
X157216000Y-107350797D01*
X157216000Y-107533203D01*
X157180415Y-107712104D01*
X157110611Y-107880626D01*
X157009272Y-108032291D01*
X156880291Y-108161272D01*
X156728626Y-108262611D01*
X156560104Y-108332415D01*
X156381203Y-108368000D01*
X156198797Y-108368000D01*
X156019896Y-108332415D01*
X155851374Y-108262611D01*
X155699709Y-108161272D01*
X155570728Y-108032291D01*
X155469389Y-107880626D01*
X155399585Y-107712104D01*
X155364000Y-107533203D01*
X155364000Y-107350797D01*
X155399585Y-107171896D01*
X155469389Y-107003374D01*
X155570728Y-106851709D01*
X155699709Y-106722728D01*
X155851374Y-106621389D01*
X156019896Y-106551585D01*
X156198797Y-106516000D01*
X156381203Y-106516000D01*
X156560104Y-106551585D01*
X156560104Y-106551585D01*
G37*
G36*
X149516000Y-108368000D02*
X147664000Y-108368000D01*
X147664000Y-106516000D01*
X149516000Y-106516000D01*
X149516000Y-108368000D01*
X149516000Y-108368000D01*
G37*
G36*
X146360104Y-106551585D02*
X146528626Y-106621389D01*
X146680291Y-106722728D01*
X146809272Y-106851709D01*
X146910611Y-107003374D01*
X146980415Y-107171896D01*
X147016000Y-107350797D01*
X147016000Y-107533203D01*
X146980415Y-107712104D01*
X146910611Y-107880626D01*
X146809272Y-108032291D01*
X146680291Y-108161272D01*
X146528626Y-108262611D01*
X146360104Y-108332415D01*
X146181203Y-108368000D01*
X145998797Y-108368000D01*
X145819896Y-108332415D01*
X145651374Y-108262611D01*
X145499709Y-108161272D01*
X145370728Y-108032291D01*
X145269389Y-107880626D01*
X145199585Y-107712104D01*
X145164000Y-107533203D01*
X145164000Y-107350797D01*
X145199585Y-107171896D01*
X145269389Y-107003374D01*
X145370728Y-106851709D01*
X145499709Y-106722728D01*
X145651374Y-106621389D01*
X145819896Y-106551585D01*
X145998797Y-106516000D01*
X146181203Y-106516000D01*
X146360104Y-106551585D01*
X146360104Y-106551585D01*
G37*
G36*
X143860104Y-106551585D02*
X144028626Y-106621389D01*
X144180291Y-106722728D01*
X144309272Y-106851709D01*
X144410611Y-107003374D01*
X144480415Y-107171896D01*
X144516000Y-107350797D01*
X144516000Y-107533203D01*
X144480415Y-107712104D01*
X144410611Y-107880626D01*
X144309272Y-108032291D01*
X144180291Y-108161272D01*
X144028626Y-108262611D01*
X143860104Y-108332415D01*
X143681203Y-108368000D01*
X143498797Y-108368000D01*
X143319896Y-108332415D01*
X143151374Y-108262611D01*
X142999709Y-108161272D01*
X142870728Y-108032291D01*
X142769389Y-107880626D01*
X142699585Y-107712104D01*
X142664000Y-107533203D01*
X142664000Y-107350797D01*
X142699585Y-107171896D01*
X142769389Y-107003374D01*
X142870728Y-106851709D01*
X142999709Y-106722728D01*
X143151374Y-106621389D01*
X143319896Y-106551585D01*
X143498797Y-106516000D01*
X143681203Y-106516000D01*
X143860104Y-106551585D01*
X143860104Y-106551585D01*
G37*
G36*
X132316560Y-105138166D02*
X132464153Y-105199301D01*
X132595213Y-105286873D01*
X132596985Y-105288057D01*
X132709943Y-105401015D01*
X132798700Y-105533849D01*
X132859834Y-105681440D01*
X132891000Y-105838122D01*
X132891000Y-105997878D01*
X132859834Y-106154560D01*
X132798700Y-106302151D01*
X132709943Y-106434985D01*
X132596985Y-106547943D01*
X132596982Y-106547945D01*
X132464153Y-106636699D01*
X132464152Y-106636700D01*
X132464151Y-106636700D01*
X132316560Y-106697834D01*
X132159878Y-106729000D01*
X132000122Y-106729000D01*
X131843440Y-106697834D01*
X131695849Y-106636700D01*
X131695848Y-106636700D01*
X131695847Y-106636699D01*
X131563018Y-106547945D01*
X131563015Y-106547943D01*
X131450057Y-106434985D01*
X131361300Y-106302151D01*
X131300166Y-106154560D01*
X131269000Y-105997878D01*
X131269000Y-105838122D01*
X131300166Y-105681440D01*
X131361300Y-105533849D01*
X131450057Y-105401015D01*
X131563015Y-105288057D01*
X131564787Y-105286873D01*
X131695847Y-105199301D01*
X131843440Y-105138166D01*
X132000122Y-105107000D01*
X132159878Y-105107000D01*
X132316560Y-105138166D01*
X132316560Y-105138166D01*
G37*
G36*
X129776560Y-105138166D02*
X129924153Y-105199301D01*
X130055213Y-105286873D01*
X130056985Y-105288057D01*
X130169943Y-105401015D01*
X130258700Y-105533849D01*
X130319834Y-105681440D01*
X130351000Y-105838122D01*
X130351000Y-105997878D01*
X130319834Y-106154560D01*
X130258700Y-106302151D01*
X130169943Y-106434985D01*
X130056985Y-106547943D01*
X130056982Y-106547945D01*
X129924153Y-106636699D01*
X129924152Y-106636700D01*
X129924151Y-106636700D01*
X129776560Y-106697834D01*
X129619878Y-106729000D01*
X129460122Y-106729000D01*
X129303440Y-106697834D01*
X129155849Y-106636700D01*
X129155848Y-106636700D01*
X129155847Y-106636699D01*
X129023018Y-106547945D01*
X129023015Y-106547943D01*
X128910057Y-106434985D01*
X128821300Y-106302151D01*
X128760166Y-106154560D01*
X128729000Y-105997878D01*
X128729000Y-105838122D01*
X128760166Y-105681440D01*
X128821300Y-105533849D01*
X128910057Y-105401015D01*
X129023015Y-105288057D01*
X129024787Y-105286873D01*
X129155847Y-105199301D01*
X129303440Y-105138166D01*
X129460122Y-105107000D01*
X129619878Y-105107000D01*
X129776560Y-105138166D01*
X129776560Y-105138166D01*
G37*
G36*
X161665256Y-97451298D02*
X161771579Y-97472447D01*
X162072042Y-97596903D01*
X162338852Y-97775180D01*
X162342454Y-97777587D01*
X162572413Y-98007546D01*
X162753098Y-98277960D01*
X162877553Y-98578422D01*
X162941000Y-98897389D01*
X162941000Y-99222611D01*
X162877553Y-99541578D01*
X162753098Y-99842040D01*
X162572413Y-100112454D01*
X162342454Y-100342413D01*
X162342451Y-100342415D01*
X162072042Y-100523097D01*
X161771579Y-100647553D01*
X161665256Y-100668702D01*
X161452611Y-100711000D01*
X161127389Y-100711000D01*
X160914744Y-100668702D01*
X160808421Y-100647553D01*
X160507958Y-100523097D01*
X160237549Y-100342415D01*
X160237546Y-100342413D01*
X160007587Y-100112454D01*
X159826902Y-99842040D01*
X159702447Y-99541578D01*
X159639000Y-99222611D01*
X159639000Y-98897389D01*
X159702447Y-98578422D01*
X159826902Y-98277960D01*
X160007587Y-98007546D01*
X160237546Y-97777587D01*
X160241148Y-97775180D01*
X160507958Y-97596903D01*
X160808421Y-97472447D01*
X160914744Y-97451298D01*
X161127389Y-97409000D01*
X161452611Y-97409000D01*
X161665256Y-97451298D01*
X161665256Y-97451298D01*
G37*
G36*
X112135256Y-97451298D02*
X112241579Y-97472447D01*
X112542042Y-97596903D01*
X112808852Y-97775180D01*
X112812454Y-97777587D01*
X113042413Y-98007546D01*
X113223098Y-98277960D01*
X113347553Y-98578422D01*
X113411000Y-98897389D01*
X113411000Y-99222611D01*
X113347553Y-99541578D01*
X113223098Y-99842040D01*
X113042413Y-100112454D01*
X112812454Y-100342413D01*
X112812451Y-100342415D01*
X112542042Y-100523097D01*
X112241579Y-100647553D01*
X112135256Y-100668702D01*
X111922611Y-100711000D01*
X111597389Y-100711000D01*
X111384744Y-100668702D01*
X111278421Y-100647553D01*
X110977958Y-100523097D01*
X110707549Y-100342415D01*
X110707546Y-100342413D01*
X110477587Y-100112454D01*
X110296902Y-99842040D01*
X110172447Y-99541578D01*
X110109000Y-99222611D01*
X110109000Y-98897389D01*
X110172447Y-98578422D01*
X110296902Y-98277960D01*
X110477587Y-98007546D01*
X110707546Y-97777587D01*
X110711148Y-97775180D01*
X110977958Y-97596903D01*
X111278421Y-97472447D01*
X111384744Y-97451298D01*
X111597389Y-97409000D01*
X111922611Y-97409000D01*
X112135256Y-97451298D01*
X112135256Y-97451298D01*
G37*
G36*
X153541393Y-97047304D02*
X153778102Y-97145352D01*
X153991138Y-97287698D01*
X154172302Y-97468862D01*
X154314648Y-97681898D01*
X154412696Y-97918607D01*
X154462680Y-98169893D01*
X154462680Y-98426107D01*
X154412696Y-98677393D01*
X154314648Y-98914102D01*
X154172302Y-99127138D01*
X153991138Y-99308302D01*
X153778102Y-99450648D01*
X153541393Y-99548696D01*
X153290107Y-99598680D01*
X153033893Y-99598680D01*
X152782607Y-99548696D01*
X152545898Y-99450648D01*
X152332862Y-99308302D01*
X152151698Y-99127138D01*
X152009352Y-98914102D01*
X151911304Y-98677393D01*
X151861320Y-98426107D01*
X151861320Y-98169893D01*
X151911304Y-97918607D01*
X152009352Y-97681898D01*
X152151698Y-97468862D01*
X152332862Y-97287698D01*
X152545898Y-97145352D01*
X152782607Y-97047304D01*
X153033893Y-96997320D01*
X153290107Y-96997320D01*
X153541393Y-97047304D01*
X153541393Y-97047304D01*
G37*
G36*
X148461393Y-97047304D02*
X148698102Y-97145352D01*
X148911138Y-97287698D01*
X149092302Y-97468862D01*
X149234648Y-97681898D01*
X149332696Y-97918607D01*
X149382680Y-98169893D01*
X149382680Y-98426107D01*
X149332696Y-98677393D01*
X149234648Y-98914102D01*
X149092302Y-99127138D01*
X148911138Y-99308302D01*
X148698102Y-99450648D01*
X148461393Y-99548696D01*
X148210107Y-99598680D01*
X147953893Y-99598680D01*
X147702607Y-99548696D01*
X147465898Y-99450648D01*
X147252862Y-99308302D01*
X147071698Y-99127138D01*
X146929352Y-98914102D01*
X146831304Y-98677393D01*
X146781320Y-98426107D01*
X146781320Y-98169893D01*
X146831304Y-97918607D01*
X146929352Y-97681898D01*
X147071698Y-97468862D01*
X147252862Y-97287698D01*
X147465898Y-97145352D01*
X147702607Y-97047304D01*
X147953893Y-96997320D01*
X148210107Y-96997320D01*
X148461393Y-97047304D01*
X148461393Y-97047304D01*
G37*
G36*
X126730016Y-93703358D02*
X126730019Y-93703359D01*
X126730018Y-93703359D01*
X126878521Y-93764870D01*
X127012170Y-93854172D01*
X127125828Y-93967830D01*
X127215130Y-94101479D01*
X127266087Y-94224503D01*
X127276642Y-94249984D01*
X127308000Y-94407630D01*
X127308000Y-94568370D01*
X127276642Y-94726016D01*
X127276641Y-94726018D01*
X127215130Y-94874521D01*
X127125828Y-95008170D01*
X127012170Y-95121828D01*
X126878521Y-95211130D01*
X126755497Y-95262087D01*
X126730016Y-95272642D01*
X126572370Y-95304000D01*
X126411630Y-95304000D01*
X126253984Y-95272642D01*
X126228503Y-95262087D01*
X126105479Y-95211130D01*
X125971830Y-95121828D01*
X125858172Y-95008170D01*
X125768870Y-94874521D01*
X125707359Y-94726018D01*
X125707358Y-94726016D01*
X125676000Y-94568370D01*
X125676000Y-94407630D01*
X125707358Y-94249984D01*
X125717913Y-94224503D01*
X125768870Y-94101479D01*
X125858172Y-93967830D01*
X125971830Y-93854172D01*
X126105479Y-93764870D01*
X126253982Y-93703359D01*
X126253981Y-93703359D01*
X126253984Y-93703358D01*
X126411630Y-93672000D01*
X126572370Y-93672000D01*
X126730016Y-93703358D01*
X126730016Y-93703358D01*
G37*
G36*
X141970016Y-93703358D02*
X141970019Y-93703359D01*
X141970018Y-93703359D01*
X142118521Y-93764870D01*
X142252170Y-93854172D01*
X142365828Y-93967830D01*
X142455130Y-94101479D01*
X142506087Y-94224503D01*
X142516642Y-94249984D01*
X142548000Y-94407630D01*
X142548000Y-94568370D01*
X142516642Y-94726016D01*
X142516641Y-94726018D01*
X142455130Y-94874521D01*
X142365828Y-95008170D01*
X142252170Y-95121828D01*
X142118521Y-95211130D01*
X141995497Y-95262087D01*
X141970016Y-95272642D01*
X141812370Y-95304000D01*
X141651630Y-95304000D01*
X141493984Y-95272642D01*
X141468503Y-95262087D01*
X141345479Y-95211130D01*
X141211830Y-95121828D01*
X141098172Y-95008170D01*
X141008870Y-94874521D01*
X140947359Y-94726018D01*
X140947358Y-94726016D01*
X140916000Y-94568370D01*
X140916000Y-94407630D01*
X140947358Y-94249984D01*
X140957913Y-94224503D01*
X141008870Y-94101479D01*
X141098172Y-93967830D01*
X141211830Y-93854172D01*
X141345479Y-93764870D01*
X141493982Y-93703359D01*
X141493981Y-93703359D01*
X141493984Y-93703358D01*
X141651630Y-93672000D01*
X141812370Y-93672000D01*
X141970016Y-93703358D01*
X141970016Y-93703358D01*
G37*
G36*
X153541393Y-92094304D02*
X153778102Y-92192352D01*
X153991138Y-92334698D01*
X154172302Y-92515862D01*
X154314648Y-92728898D01*
X154412696Y-92965607D01*
X154462680Y-93216893D01*
X154462680Y-93473107D01*
X154412696Y-93724393D01*
X154314648Y-93961102D01*
X154172302Y-94174138D01*
X153991138Y-94355302D01*
X153778102Y-94497648D01*
X153541393Y-94595696D01*
X153290107Y-94645680D01*
X153033893Y-94645680D01*
X152782607Y-94595696D01*
X152545898Y-94497648D01*
X152332862Y-94355302D01*
X152151698Y-94174138D01*
X152009352Y-93961102D01*
X151911304Y-93724393D01*
X151861320Y-93473107D01*
X151861320Y-93216893D01*
X151911304Y-92965607D01*
X152009352Y-92728898D01*
X152151698Y-92515862D01*
X152332862Y-92334698D01*
X152545898Y-92192352D01*
X152782607Y-92094304D01*
X153033893Y-92044320D01*
X153290107Y-92044320D01*
X153541393Y-92094304D01*
X153541393Y-92094304D01*
G37*
G36*
X148461393Y-92094304D02*
X148698102Y-92192352D01*
X148911138Y-92334698D01*
X149092302Y-92515862D01*
X149234648Y-92728898D01*
X149332696Y-92965607D01*
X149382680Y-93216893D01*
X149382680Y-93473107D01*
X149332696Y-93724393D01*
X149234648Y-93961102D01*
X149092302Y-94174138D01*
X148911138Y-94355302D01*
X148698102Y-94497648D01*
X148461393Y-94595696D01*
X148210107Y-94645680D01*
X147953893Y-94645680D01*
X147702607Y-94595696D01*
X147465898Y-94497648D01*
X147252862Y-94355302D01*
X147071698Y-94174138D01*
X146929352Y-93961102D01*
X146831304Y-93724393D01*
X146781320Y-93473107D01*
X146781320Y-93216893D01*
X146831304Y-92965607D01*
X146929352Y-92728898D01*
X147071698Y-92515862D01*
X147252862Y-92334698D01*
X147465898Y-92192352D01*
X147702607Y-92094304D01*
X147953893Y-92044320D01*
X148210107Y-92044320D01*
X148461393Y-92094304D01*
X148461393Y-92094304D01*
G37*
G36*
X160921000Y-94246000D02*
X159119000Y-94246000D01*
X159119000Y-92444000D01*
X160921000Y-92444000D01*
X160921000Y-94246000D01*
X160921000Y-94246000D01*
G37*
G36*
X157590443Y-92450519D02*
X157656627Y-92457037D01*
X157769853Y-92491384D01*
X157826467Y-92508557D01*
X157963540Y-92581825D01*
X157982991Y-92592222D01*
X158018729Y-92621552D01*
X158120186Y-92704814D01*
X158203448Y-92806271D01*
X158232778Y-92842009D01*
X158232779Y-92842011D01*
X158316443Y-92998533D01*
X158316443Y-92998534D01*
X158367963Y-93168373D01*
X158385359Y-93345000D01*
X158367963Y-93521627D01*
X158333616Y-93634853D01*
X158316443Y-93691467D01*
X158242348Y-93830087D01*
X158232778Y-93847991D01*
X158203448Y-93883729D01*
X158120186Y-93985186D01*
X158018729Y-94068448D01*
X157982991Y-94097778D01*
X157982989Y-94097779D01*
X157826467Y-94181443D01*
X157769853Y-94198616D01*
X157656627Y-94232963D01*
X157590443Y-94239481D01*
X157524260Y-94246000D01*
X157435740Y-94246000D01*
X157369557Y-94239481D01*
X157303373Y-94232963D01*
X157190147Y-94198616D01*
X157133533Y-94181443D01*
X156977011Y-94097779D01*
X156977009Y-94097778D01*
X156941271Y-94068448D01*
X156839814Y-93985186D01*
X156756552Y-93883729D01*
X156727222Y-93847991D01*
X156717652Y-93830087D01*
X156643557Y-93691467D01*
X156626384Y-93634853D01*
X156592037Y-93521627D01*
X156574641Y-93345000D01*
X156592037Y-93168373D01*
X156643557Y-92998534D01*
X156643557Y-92998533D01*
X156727221Y-92842011D01*
X156727222Y-92842009D01*
X156756552Y-92806271D01*
X156839814Y-92704814D01*
X156941271Y-92621552D01*
X156977009Y-92592222D01*
X156996460Y-92581825D01*
X157133533Y-92508557D01*
X157190147Y-92491384D01*
X157303373Y-92457037D01*
X157369557Y-92450519D01*
X157435740Y-92444000D01*
X157524260Y-92444000D01*
X157590443Y-92450519D01*
X157590443Y-92450519D01*
G37*
G36*
X126730016Y-91163358D02*
X126730019Y-91163359D01*
X126730018Y-91163359D01*
X126878521Y-91224870D01*
X127012170Y-91314172D01*
X127125828Y-91427830D01*
X127215130Y-91561479D01*
X127266087Y-91684503D01*
X127276642Y-91709984D01*
X127308000Y-91867630D01*
X127308000Y-92028370D01*
X127276642Y-92186016D01*
X127274017Y-92192353D01*
X127215130Y-92334521D01*
X127125828Y-92468170D01*
X127012170Y-92581828D01*
X126878521Y-92671130D01*
X126755497Y-92722087D01*
X126730016Y-92732642D01*
X126572370Y-92764000D01*
X126411630Y-92764000D01*
X126253984Y-92732642D01*
X126228503Y-92722087D01*
X126105479Y-92671130D01*
X125971830Y-92581828D01*
X125858172Y-92468170D01*
X125768870Y-92334521D01*
X125709983Y-92192353D01*
X125707358Y-92186016D01*
X125676000Y-92028370D01*
X125676000Y-91867630D01*
X125707358Y-91709984D01*
X125717913Y-91684503D01*
X125768870Y-91561479D01*
X125858172Y-91427830D01*
X125971830Y-91314172D01*
X126105479Y-91224870D01*
X126253982Y-91163359D01*
X126253981Y-91163359D01*
X126253984Y-91163358D01*
X126411630Y-91132000D01*
X126572370Y-91132000D01*
X126730016Y-91163358D01*
X126730016Y-91163358D01*
G37*
G36*
X141970016Y-91163358D02*
X141970019Y-91163359D01*
X141970018Y-91163359D01*
X142118521Y-91224870D01*
X142252170Y-91314172D01*
X142365828Y-91427830D01*
X142455130Y-91561479D01*
X142506087Y-91684503D01*
X142516642Y-91709984D01*
X142548000Y-91867630D01*
X142548000Y-92028370D01*
X142516642Y-92186016D01*
X142514017Y-92192353D01*
X142455130Y-92334521D01*
X142365828Y-92468170D01*
X142252170Y-92581828D01*
X142118521Y-92671130D01*
X141995497Y-92722087D01*
X141970016Y-92732642D01*
X141812370Y-92764000D01*
X141651630Y-92764000D01*
X141493984Y-92732642D01*
X141468503Y-92722087D01*
X141345479Y-92671130D01*
X141211830Y-92581828D01*
X141098172Y-92468170D01*
X141008870Y-92334521D01*
X140949983Y-92192353D01*
X140947358Y-92186016D01*
X140916000Y-92028370D01*
X140916000Y-91867630D01*
X140947358Y-91709984D01*
X140957913Y-91684503D01*
X141008870Y-91561479D01*
X141098172Y-91427830D01*
X141211830Y-91314172D01*
X141345479Y-91224870D01*
X141493982Y-91163359D01*
X141493981Y-91163359D01*
X141493984Y-91163358D01*
X141651630Y-91132000D01*
X141812370Y-91132000D01*
X141970016Y-91163358D01*
X141970016Y-91163358D01*
G37*
G36*
X141970016Y-88623358D02*
X141970019Y-88623359D01*
X141970018Y-88623359D01*
X142118521Y-88684870D01*
X142252170Y-88774172D01*
X142365828Y-88887830D01*
X142455130Y-89021479D01*
X142472517Y-89063456D01*
X142516642Y-89169984D01*
X142548000Y-89327630D01*
X142548000Y-89488370D01*
X142516642Y-89646016D01*
X142516641Y-89646018D01*
X142455130Y-89794521D01*
X142365828Y-89928170D01*
X142252170Y-90041828D01*
X142118521Y-90131130D01*
X141995497Y-90182087D01*
X141970016Y-90192642D01*
X141812370Y-90224000D01*
X141651630Y-90224000D01*
X141493984Y-90192642D01*
X141468503Y-90182087D01*
X141345479Y-90131130D01*
X141211830Y-90041828D01*
X141098172Y-89928170D01*
X141008870Y-89794521D01*
X140947359Y-89646018D01*
X140947358Y-89646016D01*
X140916000Y-89488370D01*
X140916000Y-89327630D01*
X140947358Y-89169984D01*
X140991483Y-89063456D01*
X141008870Y-89021479D01*
X141098172Y-88887830D01*
X141211830Y-88774172D01*
X141345479Y-88684870D01*
X141493982Y-88623359D01*
X141493981Y-88623359D01*
X141493984Y-88623358D01*
X141651630Y-88592000D01*
X141812370Y-88592000D01*
X141970016Y-88623358D01*
X141970016Y-88623358D01*
G37*
G36*
X126730016Y-88623358D02*
X126730019Y-88623359D01*
X126730018Y-88623359D01*
X126878521Y-88684870D01*
X127012170Y-88774172D01*
X127125828Y-88887830D01*
X127215130Y-89021479D01*
X127232517Y-89063456D01*
X127276642Y-89169984D01*
X127308000Y-89327630D01*
X127308000Y-89488370D01*
X127276642Y-89646016D01*
X127276641Y-89646018D01*
X127215130Y-89794521D01*
X127125828Y-89928170D01*
X127012170Y-90041828D01*
X126878521Y-90131130D01*
X126755497Y-90182087D01*
X126730016Y-90192642D01*
X126572370Y-90224000D01*
X126411630Y-90224000D01*
X126253984Y-90192642D01*
X126228503Y-90182087D01*
X126105479Y-90131130D01*
X125971830Y-90041828D01*
X125858172Y-89928170D01*
X125768870Y-89794521D01*
X125707359Y-89646018D01*
X125707358Y-89646016D01*
X125676000Y-89488370D01*
X125676000Y-89327630D01*
X125707358Y-89169984D01*
X125751483Y-89063456D01*
X125768870Y-89021479D01*
X125858172Y-88887830D01*
X125971830Y-88774172D01*
X126105479Y-88684870D01*
X126253982Y-88623359D01*
X126253981Y-88623359D01*
X126253984Y-88623358D01*
X126411630Y-88592000D01*
X126572370Y-88592000D01*
X126730016Y-88623358D01*
X126730016Y-88623358D01*
G37*
G36*
X148583000Y-89551000D02*
X147581000Y-89551000D01*
X147581000Y-88249000D01*
X148583000Y-88249000D01*
X148583000Y-89551000D01*
X148583000Y-89551000D01*
G37*
G36*
X153663000Y-89465000D02*
X152661000Y-89465000D01*
X152661000Y-88163000D01*
X153663000Y-88163000D01*
X153663000Y-89465000D01*
X153663000Y-89465000D01*
G37*
G36*
X158743000Y-89381000D02*
X157741000Y-89381000D01*
X157741000Y-88079000D01*
X158743000Y-88079000D01*
X158743000Y-89381000D01*
X158743000Y-89381000D01*
G37*
G36*
X117741000Y-89166000D02*
X115939000Y-89166000D01*
X115939000Y-87364000D01*
X117741000Y-87364000D01*
X117741000Y-89166000D01*
X117741000Y-89166000D01*
G37*
G36*
X114562812Y-87398624D02*
X114726784Y-87466544D01*
X114874354Y-87565147D01*
X114999853Y-87690646D01*
X115098456Y-87838216D01*
X115166376Y-88002188D01*
X115201000Y-88176259D01*
X115201000Y-88353741D01*
X115166376Y-88527812D01*
X115098456Y-88691784D01*
X114999853Y-88839354D01*
X114874354Y-88964853D01*
X114726784Y-89063456D01*
X114562812Y-89131376D01*
X114388741Y-89166000D01*
X114211259Y-89166000D01*
X114037188Y-89131376D01*
X113873216Y-89063456D01*
X113725646Y-88964853D01*
X113600147Y-88839354D01*
X113501544Y-88691784D01*
X113433624Y-88527812D01*
X113399000Y-88353741D01*
X113399000Y-88176259D01*
X113433624Y-88002188D01*
X113501544Y-87838216D01*
X113600147Y-87690646D01*
X113725646Y-87565147D01*
X113873216Y-87466544D01*
X114037188Y-87398624D01*
X114211259Y-87364000D01*
X114388741Y-87364000D01*
X114562812Y-87398624D01*
X114562812Y-87398624D01*
G37*
G36*
X141970016Y-86083358D02*
X141970019Y-86083359D01*
X141970018Y-86083359D01*
X142118521Y-86144870D01*
X142252170Y-86234172D01*
X142365828Y-86347830D01*
X142455130Y-86481479D01*
X142472517Y-86523456D01*
X142516642Y-86629984D01*
X142548000Y-86787630D01*
X142548000Y-86948370D01*
X142516642Y-87106016D01*
X142516641Y-87106018D01*
X142455130Y-87254521D01*
X142365828Y-87388170D01*
X142252170Y-87501828D01*
X142118521Y-87591130D01*
X141995497Y-87642087D01*
X141970016Y-87652642D01*
X141812370Y-87684000D01*
X141651630Y-87684000D01*
X141493984Y-87652642D01*
X141468503Y-87642087D01*
X141345479Y-87591130D01*
X141211830Y-87501828D01*
X141098172Y-87388170D01*
X141008870Y-87254521D01*
X140947359Y-87106018D01*
X140947358Y-87106016D01*
X140916000Y-86948370D01*
X140916000Y-86787630D01*
X140947358Y-86629984D01*
X140991483Y-86523456D01*
X141008870Y-86481479D01*
X141098172Y-86347830D01*
X141211830Y-86234172D01*
X141345479Y-86144870D01*
X141493982Y-86083359D01*
X141493981Y-86083359D01*
X141493984Y-86083358D01*
X141651630Y-86052000D01*
X141812370Y-86052000D01*
X141970016Y-86083358D01*
X141970016Y-86083358D01*
G37*
G36*
X126730016Y-86083358D02*
X126730019Y-86083359D01*
X126730018Y-86083359D01*
X126878521Y-86144870D01*
X127012170Y-86234172D01*
X127125828Y-86347830D01*
X127215130Y-86481479D01*
X127232517Y-86523456D01*
X127276642Y-86629984D01*
X127308000Y-86787630D01*
X127308000Y-86948370D01*
X127276642Y-87106016D01*
X127276641Y-87106018D01*
X127215130Y-87254521D01*
X127125828Y-87388170D01*
X127012170Y-87501828D01*
X126878521Y-87591130D01*
X126755497Y-87642087D01*
X126730016Y-87652642D01*
X126572370Y-87684000D01*
X126411630Y-87684000D01*
X126253984Y-87652642D01*
X126228503Y-87642087D01*
X126105479Y-87591130D01*
X125971830Y-87501828D01*
X125858172Y-87388170D01*
X125768870Y-87254521D01*
X125707359Y-87106018D01*
X125707358Y-87106016D01*
X125676000Y-86948370D01*
X125676000Y-86787630D01*
X125707358Y-86629984D01*
X125751483Y-86523456D01*
X125768870Y-86481479D01*
X125858172Y-86347830D01*
X125971830Y-86234172D01*
X126105479Y-86144870D01*
X126253982Y-86083359D01*
X126253981Y-86083359D01*
X126253984Y-86083358D01*
X126411630Y-86052000D01*
X126572370Y-86052000D01*
X126730016Y-86083358D01*
X126730016Y-86083358D01*
G37*
G36*
X148583000Y-87351000D02*
X147581000Y-87351000D01*
X147581000Y-86049000D01*
X148583000Y-86049000D01*
X148583000Y-87351000D01*
X148583000Y-87351000D01*
G37*
G36*
X153663000Y-87265000D02*
X152661000Y-87265000D01*
X152661000Y-85963000D01*
X153663000Y-85963000D01*
X153663000Y-87265000D01*
X153663000Y-87265000D01*
G37*
G36*
X158743000Y-87181000D02*
X157741000Y-87181000D01*
X157741000Y-85879000D01*
X158743000Y-85879000D01*
X158743000Y-87181000D01*
X158743000Y-87181000D01*
G37*
G36*
X117102812Y-84858624D02*
X117266784Y-84926544D01*
X117414354Y-85025147D01*
X117539853Y-85150646D01*
X117638456Y-85298216D01*
X117706376Y-85462188D01*
X117741000Y-85636259D01*
X117741000Y-85813741D01*
X117706376Y-85987812D01*
X117638456Y-86151784D01*
X117539853Y-86299354D01*
X117414354Y-86424853D01*
X117266784Y-86523456D01*
X117102812Y-86591376D01*
X116928741Y-86626000D01*
X116751259Y-86626000D01*
X116577188Y-86591376D01*
X116413216Y-86523456D01*
X116265646Y-86424853D01*
X116140147Y-86299354D01*
X116041544Y-86151784D01*
X115973624Y-85987812D01*
X115939000Y-85813741D01*
X115939000Y-85636259D01*
X115973624Y-85462188D01*
X116041544Y-85298216D01*
X116140147Y-85150646D01*
X116265646Y-85025147D01*
X116413216Y-84926544D01*
X116577188Y-84858624D01*
X116751259Y-84824000D01*
X116928741Y-84824000D01*
X117102812Y-84858624D01*
X117102812Y-84858624D01*
G37*
G36*
X114562812Y-84858624D02*
X114726784Y-84926544D01*
X114874354Y-85025147D01*
X114999853Y-85150646D01*
X115098456Y-85298216D01*
X115166376Y-85462188D01*
X115201000Y-85636259D01*
X115201000Y-85813741D01*
X115166376Y-85987812D01*
X115098456Y-86151784D01*
X114999853Y-86299354D01*
X114874354Y-86424853D01*
X114726784Y-86523456D01*
X114562812Y-86591376D01*
X114388741Y-86626000D01*
X114211259Y-86626000D01*
X114037188Y-86591376D01*
X113873216Y-86523456D01*
X113725646Y-86424853D01*
X113600147Y-86299354D01*
X113501544Y-86151784D01*
X113433624Y-85987812D01*
X113399000Y-85813741D01*
X113399000Y-85636259D01*
X113433624Y-85462188D01*
X113501544Y-85298216D01*
X113600147Y-85150646D01*
X113725646Y-85025147D01*
X113873216Y-84926544D01*
X114037188Y-84858624D01*
X114211259Y-84824000D01*
X114388741Y-84824000D01*
X114562812Y-84858624D01*
X114562812Y-84858624D01*
G37*
G36*
X141970016Y-83543358D02*
X141970019Y-83543359D01*
X141970018Y-83543359D01*
X142118521Y-83604870D01*
X142252170Y-83694172D01*
X142365828Y-83807830D01*
X142455130Y-83941479D01*
X142472517Y-83983456D01*
X142516642Y-84089984D01*
X142548000Y-84247630D01*
X142548000Y-84408370D01*
X142516642Y-84566016D01*
X142516641Y-84566018D01*
X142455130Y-84714521D01*
X142365828Y-84848170D01*
X142252170Y-84961828D01*
X142118521Y-85051130D01*
X141995497Y-85102087D01*
X141970016Y-85112642D01*
X141812370Y-85144000D01*
X141651630Y-85144000D01*
X141493984Y-85112642D01*
X141468503Y-85102087D01*
X141345479Y-85051130D01*
X141211830Y-84961828D01*
X141098172Y-84848170D01*
X141008870Y-84714521D01*
X140947359Y-84566018D01*
X140947358Y-84566016D01*
X140916000Y-84408370D01*
X140916000Y-84247630D01*
X140947358Y-84089984D01*
X140991483Y-83983456D01*
X141008870Y-83941479D01*
X141098172Y-83807830D01*
X141211830Y-83694172D01*
X141345479Y-83604870D01*
X141493982Y-83543359D01*
X141493981Y-83543359D01*
X141493984Y-83543358D01*
X141651630Y-83512000D01*
X141812370Y-83512000D01*
X141970016Y-83543358D01*
X141970016Y-83543358D01*
G37*
G36*
X126730016Y-83543358D02*
X126730019Y-83543359D01*
X126730018Y-83543359D01*
X126878521Y-83604870D01*
X127012170Y-83694172D01*
X127125828Y-83807830D01*
X127215130Y-83941479D01*
X127232517Y-83983456D01*
X127276642Y-84089984D01*
X127308000Y-84247630D01*
X127308000Y-84408370D01*
X127276642Y-84566016D01*
X127276641Y-84566018D01*
X127215130Y-84714521D01*
X127125828Y-84848170D01*
X127012170Y-84961828D01*
X126878521Y-85051130D01*
X126755497Y-85102087D01*
X126730016Y-85112642D01*
X126572370Y-85144000D01*
X126411630Y-85144000D01*
X126253984Y-85112642D01*
X126228503Y-85102087D01*
X126105479Y-85051130D01*
X125971830Y-84961828D01*
X125858172Y-84848170D01*
X125768870Y-84714521D01*
X125707359Y-84566018D01*
X125707358Y-84566016D01*
X125676000Y-84408370D01*
X125676000Y-84247630D01*
X125707358Y-84089984D01*
X125751483Y-83983456D01*
X125768870Y-83941479D01*
X125858172Y-83807830D01*
X125971830Y-83694172D01*
X126105479Y-83604870D01*
X126253982Y-83543359D01*
X126253981Y-83543359D01*
X126253984Y-83543358D01*
X126411630Y-83512000D01*
X126572370Y-83512000D01*
X126730016Y-83543358D01*
X126730016Y-83543358D01*
G37*
G36*
X153468414Y-82047879D02*
X153468416Y-82047880D01*
X153468417Y-82047880D01*
X153659594Y-82127068D01*
X153831651Y-82242033D01*
X153977967Y-82388349D01*
X154092932Y-82560406D01*
X154172121Y-82751586D01*
X154212490Y-82954534D01*
X154212490Y-83161466D01*
X154172121Y-83364414D01*
X154092932Y-83555594D01*
X153977967Y-83727651D01*
X153831651Y-83873967D01*
X153831648Y-83873969D01*
X153659594Y-83988932D01*
X153468417Y-84068120D01*
X153468416Y-84068120D01*
X153468414Y-84068121D01*
X153265466Y-84108490D01*
X153058534Y-84108490D01*
X152855586Y-84068121D01*
X152855584Y-84068120D01*
X152855583Y-84068120D01*
X152664406Y-83988932D01*
X152492352Y-83873969D01*
X152492349Y-83873967D01*
X152346033Y-83727651D01*
X152231068Y-83555594D01*
X152151879Y-83364414D01*
X152111510Y-83161466D01*
X152111510Y-82954534D01*
X152151879Y-82751586D01*
X152231068Y-82560406D01*
X152346033Y-82388349D01*
X152492349Y-82242033D01*
X152664406Y-82127068D01*
X152855583Y-82047880D01*
X152855584Y-82047880D01*
X152855586Y-82047879D01*
X153058534Y-82007510D01*
X153265466Y-82007510D01*
X153468414Y-82047879D01*
X153468414Y-82047879D01*
G37*
G36*
X158548414Y-82047879D02*
X158548416Y-82047880D01*
X158548417Y-82047880D01*
X158739594Y-82127068D01*
X158911651Y-82242033D01*
X159057967Y-82388349D01*
X159172932Y-82560406D01*
X159252121Y-82751586D01*
X159292490Y-82954534D01*
X159292490Y-83161466D01*
X159252121Y-83364414D01*
X159172932Y-83555594D01*
X159057967Y-83727651D01*
X158911651Y-83873967D01*
X158911648Y-83873969D01*
X158739594Y-83988932D01*
X158548417Y-84068120D01*
X158548416Y-84068120D01*
X158548414Y-84068121D01*
X158345466Y-84108490D01*
X158138534Y-84108490D01*
X157935586Y-84068121D01*
X157935584Y-84068120D01*
X157935583Y-84068120D01*
X157744406Y-83988932D01*
X157572352Y-83873969D01*
X157572349Y-83873967D01*
X157426033Y-83727651D01*
X157311068Y-83555594D01*
X157231879Y-83364414D01*
X157191510Y-83161466D01*
X157191510Y-82954534D01*
X157231879Y-82751586D01*
X157311068Y-82560406D01*
X157426033Y-82388349D01*
X157572349Y-82242033D01*
X157744406Y-82127068D01*
X157935583Y-82047880D01*
X157935584Y-82047880D01*
X157935586Y-82047879D01*
X158138534Y-82007510D01*
X158345466Y-82007510D01*
X158548414Y-82047879D01*
X158548414Y-82047879D01*
G37*
G36*
X148388414Y-82047879D02*
X148388416Y-82047880D01*
X148388417Y-82047880D01*
X148579594Y-82127068D01*
X148751651Y-82242033D01*
X148897967Y-82388349D01*
X149012932Y-82560406D01*
X149092121Y-82751586D01*
X149132490Y-82954534D01*
X149132490Y-83161466D01*
X149092121Y-83364414D01*
X149012932Y-83555594D01*
X148897967Y-83727651D01*
X148751651Y-83873967D01*
X148751648Y-83873969D01*
X148579594Y-83988932D01*
X148388417Y-84068120D01*
X148388416Y-84068120D01*
X148388414Y-84068121D01*
X148185466Y-84108490D01*
X147978534Y-84108490D01*
X147775586Y-84068121D01*
X147775584Y-84068120D01*
X147775583Y-84068120D01*
X147584406Y-83988932D01*
X147412352Y-83873969D01*
X147412349Y-83873967D01*
X147266033Y-83727651D01*
X147151068Y-83555594D01*
X147071879Y-83364414D01*
X147031510Y-83161466D01*
X147031510Y-82954534D01*
X147071879Y-82751586D01*
X147151068Y-82560406D01*
X147266033Y-82388349D01*
X147412349Y-82242033D01*
X147584406Y-82127068D01*
X147775583Y-82047880D01*
X147775584Y-82047880D01*
X147775586Y-82047879D01*
X147978534Y-82007510D01*
X148185466Y-82007510D01*
X148388414Y-82047879D01*
X148388414Y-82047879D01*
G37*
G36*
X114562812Y-82318624D02*
X114726784Y-82386544D01*
X114874354Y-82485147D01*
X114999853Y-82610646D01*
X115098456Y-82758216D01*
X115166376Y-82922188D01*
X115201000Y-83096259D01*
X115201000Y-83273741D01*
X115166376Y-83447812D01*
X115098456Y-83611784D01*
X114999853Y-83759354D01*
X114874354Y-83884853D01*
X114726784Y-83983456D01*
X114562812Y-84051376D01*
X114388741Y-84086000D01*
X114211259Y-84086000D01*
X114037188Y-84051376D01*
X113873216Y-83983456D01*
X113725646Y-83884853D01*
X113600147Y-83759354D01*
X113501544Y-83611784D01*
X113433624Y-83447812D01*
X113399000Y-83273741D01*
X113399000Y-83096259D01*
X113433624Y-82922188D01*
X113501544Y-82758216D01*
X113600147Y-82610646D01*
X113725646Y-82485147D01*
X113873216Y-82386544D01*
X114037188Y-82318624D01*
X114211259Y-82284000D01*
X114388741Y-82284000D01*
X114562812Y-82318624D01*
X114562812Y-82318624D01*
G37*
G36*
X117102812Y-82318624D02*
X117266784Y-82386544D01*
X117414354Y-82485147D01*
X117539853Y-82610646D01*
X117638456Y-82758216D01*
X117706376Y-82922188D01*
X117741000Y-83096259D01*
X117741000Y-83273741D01*
X117706376Y-83447812D01*
X117638456Y-83611784D01*
X117539853Y-83759354D01*
X117414354Y-83884853D01*
X117266784Y-83983456D01*
X117102812Y-84051376D01*
X116928741Y-84086000D01*
X116751259Y-84086000D01*
X116577188Y-84051376D01*
X116413216Y-83983456D01*
X116265646Y-83884853D01*
X116140147Y-83759354D01*
X116041544Y-83611784D01*
X115973624Y-83447812D01*
X115939000Y-83273741D01*
X115939000Y-83096259D01*
X115973624Y-82922188D01*
X116041544Y-82758216D01*
X116140147Y-82610646D01*
X116265646Y-82485147D01*
X116413216Y-82386544D01*
X116577188Y-82318624D01*
X116751259Y-82284000D01*
X116928741Y-82284000D01*
X117102812Y-82318624D01*
X117102812Y-82318624D01*
G37*
G36*
X141970016Y-81003358D02*
X141970019Y-81003359D01*
X141970018Y-81003359D01*
X142118521Y-81064870D01*
X142252170Y-81154172D01*
X142365828Y-81267830D01*
X142455130Y-81401479D01*
X142472517Y-81443456D01*
X142516642Y-81549984D01*
X142548000Y-81707630D01*
X142548000Y-81868370D01*
X142516642Y-82026016D01*
X142516641Y-82026018D01*
X142455130Y-82174521D01*
X142365828Y-82308170D01*
X142252170Y-82421828D01*
X142118521Y-82511130D01*
X141999556Y-82560406D01*
X141970016Y-82572642D01*
X141812370Y-82604000D01*
X141651630Y-82604000D01*
X141493984Y-82572642D01*
X141464444Y-82560406D01*
X141345479Y-82511130D01*
X141211830Y-82421828D01*
X141098172Y-82308170D01*
X141008870Y-82174521D01*
X140947359Y-82026018D01*
X140947358Y-82026016D01*
X140916000Y-81868370D01*
X140916000Y-81707630D01*
X140947358Y-81549984D01*
X140991483Y-81443456D01*
X141008870Y-81401479D01*
X141098172Y-81267830D01*
X141211830Y-81154172D01*
X141345479Y-81064870D01*
X141493982Y-81003359D01*
X141493981Y-81003359D01*
X141493984Y-81003358D01*
X141651630Y-80972000D01*
X141812370Y-80972000D01*
X141970016Y-81003358D01*
X141970016Y-81003358D01*
G37*
G36*
X126730016Y-81003358D02*
X126730019Y-81003359D01*
X126730018Y-81003359D01*
X126878521Y-81064870D01*
X127012170Y-81154172D01*
X127125828Y-81267830D01*
X127215130Y-81401479D01*
X127232517Y-81443456D01*
X127276642Y-81549984D01*
X127308000Y-81707630D01*
X127308000Y-81868370D01*
X127276642Y-82026016D01*
X127276641Y-82026018D01*
X127215130Y-82174521D01*
X127125828Y-82308170D01*
X127012170Y-82421828D01*
X126878521Y-82511130D01*
X126759556Y-82560406D01*
X126730016Y-82572642D01*
X126572370Y-82604000D01*
X126411630Y-82604000D01*
X126253984Y-82572642D01*
X126224444Y-82560406D01*
X126105479Y-82511130D01*
X125971830Y-82421828D01*
X125858172Y-82308170D01*
X125768870Y-82174521D01*
X125707359Y-82026018D01*
X125707358Y-82026016D01*
X125676000Y-81868370D01*
X125676000Y-81707630D01*
X125707358Y-81549984D01*
X125751483Y-81443456D01*
X125768870Y-81401479D01*
X125858172Y-81267830D01*
X125971830Y-81154172D01*
X126105479Y-81064870D01*
X126253982Y-81003359D01*
X126253981Y-81003359D01*
X126253984Y-81003358D01*
X126411630Y-80972000D01*
X126572370Y-80972000D01*
X126730016Y-81003358D01*
X126730016Y-81003358D01*
G37*
G36*
X117102812Y-79778624D02*
X117266784Y-79846544D01*
X117414354Y-79945147D01*
X117539853Y-80070646D01*
X117638456Y-80218216D01*
X117706376Y-80382188D01*
X117741000Y-80556259D01*
X117741000Y-80733741D01*
X117706376Y-80907812D01*
X117638456Y-81071784D01*
X117539853Y-81219354D01*
X117414354Y-81344853D01*
X117266784Y-81443456D01*
X117102812Y-81511376D01*
X116928741Y-81546000D01*
X116751259Y-81546000D01*
X116577188Y-81511376D01*
X116413216Y-81443456D01*
X116265646Y-81344853D01*
X116140147Y-81219354D01*
X116041544Y-81071784D01*
X115973624Y-80907812D01*
X115939000Y-80733741D01*
X115939000Y-80556259D01*
X115973624Y-80382188D01*
X116041544Y-80218216D01*
X116140147Y-80070646D01*
X116265646Y-79945147D01*
X116413216Y-79846544D01*
X116577188Y-79778624D01*
X116751259Y-79744000D01*
X116928741Y-79744000D01*
X117102812Y-79778624D01*
X117102812Y-79778624D01*
G37*
G36*
X114562812Y-79778624D02*
X114726784Y-79846544D01*
X114874354Y-79945147D01*
X114999853Y-80070646D01*
X115098456Y-80218216D01*
X115166376Y-80382188D01*
X115201000Y-80556259D01*
X115201000Y-80733741D01*
X115166376Y-80907812D01*
X115098456Y-81071784D01*
X114999853Y-81219354D01*
X114874354Y-81344853D01*
X114726784Y-81443456D01*
X114562812Y-81511376D01*
X114388741Y-81546000D01*
X114211259Y-81546000D01*
X114037188Y-81511376D01*
X113873216Y-81443456D01*
X113725646Y-81344853D01*
X113600147Y-81219354D01*
X113501544Y-81071784D01*
X113433624Y-80907812D01*
X113399000Y-80733741D01*
X113399000Y-80556259D01*
X113433624Y-80382188D01*
X113501544Y-80218216D01*
X113600147Y-80070646D01*
X113725646Y-79945147D01*
X113873216Y-79846544D01*
X114037188Y-79778624D01*
X114211259Y-79744000D01*
X114388741Y-79744000D01*
X114562812Y-79778624D01*
X114562812Y-79778624D01*
G37*
G36*
X141970016Y-78463358D02*
X141970019Y-78463359D01*
X141970018Y-78463359D01*
X142118521Y-78524870D01*
X142252170Y-78614172D01*
X142365828Y-78727830D01*
X142455130Y-78861479D01*
X142472517Y-78903456D01*
X142516642Y-79009984D01*
X142548000Y-79167630D01*
X142548000Y-79328370D01*
X142516642Y-79486016D01*
X142516641Y-79486018D01*
X142455130Y-79634521D01*
X142365828Y-79768170D01*
X142252170Y-79881828D01*
X142118521Y-79971130D01*
X141995497Y-80022087D01*
X141970016Y-80032642D01*
X141812370Y-80064000D01*
X141651630Y-80064000D01*
X141493984Y-80032642D01*
X141468503Y-80022087D01*
X141345479Y-79971130D01*
X141211830Y-79881828D01*
X141098172Y-79768170D01*
X141008870Y-79634521D01*
X140947359Y-79486018D01*
X140947358Y-79486016D01*
X140916000Y-79328370D01*
X140916000Y-79167630D01*
X140947358Y-79009984D01*
X140991483Y-78903456D01*
X141008870Y-78861479D01*
X141098172Y-78727830D01*
X141211830Y-78614172D01*
X141345479Y-78524870D01*
X141493982Y-78463359D01*
X141493981Y-78463359D01*
X141493984Y-78463358D01*
X141651630Y-78432000D01*
X141812370Y-78432000D01*
X141970016Y-78463358D01*
X141970016Y-78463358D01*
G37*
G36*
X126730016Y-78463358D02*
X126730019Y-78463359D01*
X126730018Y-78463359D01*
X126878521Y-78524870D01*
X127012170Y-78614172D01*
X127125828Y-78727830D01*
X127215130Y-78861479D01*
X127232517Y-78903456D01*
X127276642Y-79009984D01*
X127308000Y-79167630D01*
X127308000Y-79328370D01*
X127276642Y-79486016D01*
X127276641Y-79486018D01*
X127215130Y-79634521D01*
X127125828Y-79768170D01*
X127012170Y-79881828D01*
X126878521Y-79971130D01*
X126755497Y-80022087D01*
X126730016Y-80032642D01*
X126572370Y-80064000D01*
X126411630Y-80064000D01*
X126253984Y-80032642D01*
X126228503Y-80022087D01*
X126105479Y-79971130D01*
X125971830Y-79881828D01*
X125858172Y-79768170D01*
X125768870Y-79634521D01*
X125707359Y-79486018D01*
X125707358Y-79486016D01*
X125676000Y-79328370D01*
X125676000Y-79167630D01*
X125707358Y-79009984D01*
X125751483Y-78903456D01*
X125768870Y-78861479D01*
X125858172Y-78727830D01*
X125971830Y-78614172D01*
X126105479Y-78524870D01*
X126253982Y-78463359D01*
X126253981Y-78463359D01*
X126253984Y-78463358D01*
X126411630Y-78432000D01*
X126572370Y-78432000D01*
X126730016Y-78463358D01*
X126730016Y-78463358D01*
G37*
G36*
X158548414Y-76967879D02*
X158548416Y-76967880D01*
X158548417Y-76967880D01*
X158739594Y-77047068D01*
X158911651Y-77162033D01*
X159057967Y-77308349D01*
X159172932Y-77480406D01*
X159252121Y-77671586D01*
X159292490Y-77874534D01*
X159292490Y-78081466D01*
X159252121Y-78284414D01*
X159172932Y-78475594D01*
X159057967Y-78647651D01*
X158911651Y-78793967D01*
X158911648Y-78793969D01*
X158739594Y-78908932D01*
X158548417Y-78988120D01*
X158548416Y-78988120D01*
X158548414Y-78988121D01*
X158345466Y-79028490D01*
X158138534Y-79028490D01*
X157935586Y-78988121D01*
X157935584Y-78988120D01*
X157935583Y-78988120D01*
X157744406Y-78908932D01*
X157572352Y-78793969D01*
X157572349Y-78793967D01*
X157426033Y-78647651D01*
X157311068Y-78475594D01*
X157231879Y-78284414D01*
X157191510Y-78081466D01*
X157191510Y-77874534D01*
X157231879Y-77671586D01*
X157311068Y-77480406D01*
X157426033Y-77308349D01*
X157572349Y-77162033D01*
X157744406Y-77047068D01*
X157935583Y-76967880D01*
X157935584Y-76967880D01*
X157935586Y-76967879D01*
X158138534Y-76927510D01*
X158345466Y-76927510D01*
X158548414Y-76967879D01*
X158548414Y-76967879D01*
G37*
G36*
X148388414Y-76967879D02*
X148388416Y-76967880D01*
X148388417Y-76967880D01*
X148579594Y-77047068D01*
X148751651Y-77162033D01*
X148897967Y-77308349D01*
X149012932Y-77480406D01*
X149092121Y-77671586D01*
X149132490Y-77874534D01*
X149132490Y-78081466D01*
X149092121Y-78284414D01*
X149012932Y-78475594D01*
X148897967Y-78647651D01*
X148751651Y-78793967D01*
X148751648Y-78793969D01*
X148579594Y-78908932D01*
X148388417Y-78988120D01*
X148388416Y-78988120D01*
X148388414Y-78988121D01*
X148185466Y-79028490D01*
X147978534Y-79028490D01*
X147775586Y-78988121D01*
X147775584Y-78988120D01*
X147775583Y-78988120D01*
X147584406Y-78908932D01*
X147412352Y-78793969D01*
X147412349Y-78793967D01*
X147266033Y-78647651D01*
X147151068Y-78475594D01*
X147071879Y-78284414D01*
X147031510Y-78081466D01*
X147031510Y-77874534D01*
X147071879Y-77671586D01*
X147151068Y-77480406D01*
X147266033Y-77308349D01*
X147412349Y-77162033D01*
X147584406Y-77047068D01*
X147775583Y-76967880D01*
X147775584Y-76967880D01*
X147775586Y-76967879D01*
X147978534Y-76927510D01*
X148185466Y-76927510D01*
X148388414Y-76967879D01*
X148388414Y-76967879D01*
G37*
G36*
X153468414Y-76967879D02*
X153468416Y-76967880D01*
X153468417Y-76967880D01*
X153659594Y-77047068D01*
X153831651Y-77162033D01*
X153977967Y-77308349D01*
X154092932Y-77480406D01*
X154172121Y-77671586D01*
X154212490Y-77874534D01*
X154212490Y-78081466D01*
X154172121Y-78284414D01*
X154092932Y-78475594D01*
X153977967Y-78647651D01*
X153831651Y-78793967D01*
X153831648Y-78793969D01*
X153659594Y-78908932D01*
X153468417Y-78988120D01*
X153468416Y-78988120D01*
X153468414Y-78988121D01*
X153265466Y-79028490D01*
X153058534Y-79028490D01*
X152855586Y-78988121D01*
X152855584Y-78988120D01*
X152855583Y-78988120D01*
X152664406Y-78908932D01*
X152492352Y-78793969D01*
X152492349Y-78793967D01*
X152346033Y-78647651D01*
X152231068Y-78475594D01*
X152151879Y-78284414D01*
X152111510Y-78081466D01*
X152111510Y-77874534D01*
X152151879Y-77671586D01*
X152231068Y-77480406D01*
X152346033Y-77308349D01*
X152492349Y-77162033D01*
X152664406Y-77047068D01*
X152855583Y-76967880D01*
X152855584Y-76967880D01*
X152855586Y-76967879D01*
X153058534Y-76927510D01*
X153265466Y-76927510D01*
X153468414Y-76967879D01*
X153468414Y-76967879D01*
G37*
G36*
X114562812Y-77238624D02*
X114726784Y-77306544D01*
X114874354Y-77405147D01*
X114999853Y-77530646D01*
X115098456Y-77678216D01*
X115166376Y-77842188D01*
X115201000Y-78016259D01*
X115201000Y-78193741D01*
X115166376Y-78367812D01*
X115098456Y-78531784D01*
X114999853Y-78679354D01*
X114874354Y-78804853D01*
X114726784Y-78903456D01*
X114562812Y-78971376D01*
X114388741Y-79006000D01*
X114211259Y-79006000D01*
X114037188Y-78971376D01*
X113873216Y-78903456D01*
X113725646Y-78804853D01*
X113600147Y-78679354D01*
X113501544Y-78531784D01*
X113433624Y-78367812D01*
X113399000Y-78193741D01*
X113399000Y-78016259D01*
X113433624Y-77842188D01*
X113501544Y-77678216D01*
X113600147Y-77530646D01*
X113725646Y-77405147D01*
X113873216Y-77306544D01*
X114037188Y-77238624D01*
X114211259Y-77204000D01*
X114388741Y-77204000D01*
X114562812Y-77238624D01*
X114562812Y-77238624D01*
G37*
G36*
X117102812Y-77238624D02*
X117266784Y-77306544D01*
X117414354Y-77405147D01*
X117539853Y-77530646D01*
X117638456Y-77678216D01*
X117706376Y-77842188D01*
X117741000Y-78016259D01*
X117741000Y-78193741D01*
X117706376Y-78367812D01*
X117638456Y-78531784D01*
X117539853Y-78679354D01*
X117414354Y-78804853D01*
X117266784Y-78903456D01*
X117102812Y-78971376D01*
X116928741Y-79006000D01*
X116751259Y-79006000D01*
X116577188Y-78971376D01*
X116413216Y-78903456D01*
X116265646Y-78804853D01*
X116140147Y-78679354D01*
X116041544Y-78531784D01*
X115973624Y-78367812D01*
X115939000Y-78193741D01*
X115939000Y-78016259D01*
X115973624Y-77842188D01*
X116041544Y-77678216D01*
X116140147Y-77530646D01*
X116265646Y-77405147D01*
X116413216Y-77306544D01*
X116577188Y-77238624D01*
X116751259Y-77204000D01*
X116928741Y-77204000D01*
X117102812Y-77238624D01*
X117102812Y-77238624D01*
G37*
G36*
X126730016Y-75923358D02*
X126730019Y-75923359D01*
X126730018Y-75923359D01*
X126878521Y-75984870D01*
X127012170Y-76074172D01*
X127125828Y-76187830D01*
X127215130Y-76321479D01*
X127232517Y-76363456D01*
X127276642Y-76469984D01*
X127308000Y-76627630D01*
X127308000Y-76788370D01*
X127276642Y-76946016D01*
X127276641Y-76946018D01*
X127215130Y-77094521D01*
X127125828Y-77228170D01*
X127012170Y-77341828D01*
X126878521Y-77431130D01*
X126759556Y-77480406D01*
X126730016Y-77492642D01*
X126572370Y-77524000D01*
X126411630Y-77524000D01*
X126253984Y-77492642D01*
X126224444Y-77480406D01*
X126105479Y-77431130D01*
X125971830Y-77341828D01*
X125858172Y-77228170D01*
X125768870Y-77094521D01*
X125707359Y-76946018D01*
X125707358Y-76946016D01*
X125676000Y-76788370D01*
X125676000Y-76627630D01*
X125707358Y-76469984D01*
X125751483Y-76363456D01*
X125768870Y-76321479D01*
X125858172Y-76187830D01*
X125971830Y-76074172D01*
X126105479Y-75984870D01*
X126253982Y-75923359D01*
X126253981Y-75923359D01*
X126253984Y-75923358D01*
X126411630Y-75892000D01*
X126572370Y-75892000D01*
X126730016Y-75923358D01*
X126730016Y-75923358D01*
G37*
G36*
X141970016Y-75923358D02*
X141970019Y-75923359D01*
X141970018Y-75923359D01*
X142118521Y-75984870D01*
X142252170Y-76074172D01*
X142365828Y-76187830D01*
X142455130Y-76321479D01*
X142472517Y-76363456D01*
X142516642Y-76469984D01*
X142548000Y-76627630D01*
X142548000Y-76788370D01*
X142516642Y-76946016D01*
X142516641Y-76946018D01*
X142455130Y-77094521D01*
X142365828Y-77228170D01*
X142252170Y-77341828D01*
X142118521Y-77431130D01*
X141999556Y-77480406D01*
X141970016Y-77492642D01*
X141812370Y-77524000D01*
X141651630Y-77524000D01*
X141493984Y-77492642D01*
X141464444Y-77480406D01*
X141345479Y-77431130D01*
X141211830Y-77341828D01*
X141098172Y-77228170D01*
X141008870Y-77094521D01*
X140947359Y-76946018D01*
X140947358Y-76946016D01*
X140916000Y-76788370D01*
X140916000Y-76627630D01*
X140947358Y-76469984D01*
X140991483Y-76363456D01*
X141008870Y-76321479D01*
X141098172Y-76187830D01*
X141211830Y-76074172D01*
X141345479Y-75984870D01*
X141493982Y-75923359D01*
X141493981Y-75923359D01*
X141493984Y-75923358D01*
X141651630Y-75892000D01*
X141812370Y-75892000D01*
X141970016Y-75923358D01*
X141970016Y-75923358D01*
G37*
G36*
X117102812Y-74698624D02*
X117266784Y-74766544D01*
X117414354Y-74865147D01*
X117539853Y-74990646D01*
X117638456Y-75138216D01*
X117706376Y-75302188D01*
X117741000Y-75476259D01*
X117741000Y-75653741D01*
X117706376Y-75827812D01*
X117638456Y-75991784D01*
X117539853Y-76139354D01*
X117414354Y-76264853D01*
X117266784Y-76363456D01*
X117102812Y-76431376D01*
X116928741Y-76466000D01*
X116751259Y-76466000D01*
X116577188Y-76431376D01*
X116413216Y-76363456D01*
X116265646Y-76264853D01*
X116140147Y-76139354D01*
X116041544Y-75991784D01*
X115973624Y-75827812D01*
X115939000Y-75653741D01*
X115939000Y-75476259D01*
X115973624Y-75302188D01*
X116041544Y-75138216D01*
X116140147Y-74990646D01*
X116265646Y-74865147D01*
X116413216Y-74766544D01*
X116577188Y-74698624D01*
X116751259Y-74664000D01*
X116928741Y-74664000D01*
X117102812Y-74698624D01*
X117102812Y-74698624D01*
G37*
G36*
X114562812Y-74698624D02*
X114726784Y-74766544D01*
X114874354Y-74865147D01*
X114999853Y-74990646D01*
X115098456Y-75138216D01*
X115166376Y-75302188D01*
X115201000Y-75476259D01*
X115201000Y-75653741D01*
X115166376Y-75827812D01*
X115098456Y-75991784D01*
X114999853Y-76139354D01*
X114874354Y-76264853D01*
X114726784Y-76363456D01*
X114562812Y-76431376D01*
X114388741Y-76466000D01*
X114211259Y-76466000D01*
X114037188Y-76431376D01*
X113873216Y-76363456D01*
X113725646Y-76264853D01*
X113600147Y-76139354D01*
X113501544Y-75991784D01*
X113433624Y-75827812D01*
X113399000Y-75653741D01*
X113399000Y-75476259D01*
X113433624Y-75302188D01*
X113501544Y-75138216D01*
X113600147Y-74990646D01*
X113725646Y-74865147D01*
X113873216Y-74766544D01*
X114037188Y-74698624D01*
X114211259Y-74664000D01*
X114388741Y-74664000D01*
X114562812Y-74698624D01*
X114562812Y-74698624D01*
G37*
G36*
X141970016Y-73383358D02*
X141970019Y-73383359D01*
X141970018Y-73383359D01*
X142118521Y-73444870D01*
X142252170Y-73534172D01*
X142365828Y-73647830D01*
X142455130Y-73781479D01*
X142472517Y-73823456D01*
X142516642Y-73929984D01*
X142548000Y-74087630D01*
X142548000Y-74248370D01*
X142516642Y-74406016D01*
X142516641Y-74406018D01*
X142455130Y-74554521D01*
X142365828Y-74688170D01*
X142252170Y-74801828D01*
X142118521Y-74891130D01*
X141995497Y-74942087D01*
X141970016Y-74952642D01*
X141812370Y-74984000D01*
X141651630Y-74984000D01*
X141493984Y-74952642D01*
X141468503Y-74942087D01*
X141345479Y-74891130D01*
X141211830Y-74801828D01*
X141098172Y-74688170D01*
X141008870Y-74554521D01*
X140947359Y-74406018D01*
X140947358Y-74406016D01*
X140916000Y-74248370D01*
X140916000Y-74087630D01*
X140947358Y-73929984D01*
X140991483Y-73823456D01*
X141008870Y-73781479D01*
X141098172Y-73647830D01*
X141211830Y-73534172D01*
X141345479Y-73444870D01*
X141493982Y-73383359D01*
X141493981Y-73383359D01*
X141493984Y-73383358D01*
X141651630Y-73352000D01*
X141812370Y-73352000D01*
X141970016Y-73383358D01*
X141970016Y-73383358D01*
G37*
G36*
X126730016Y-73383358D02*
X126730019Y-73383359D01*
X126730018Y-73383359D01*
X126878521Y-73444870D01*
X127012170Y-73534172D01*
X127125828Y-73647830D01*
X127215130Y-73781479D01*
X127232517Y-73823456D01*
X127276642Y-73929984D01*
X127308000Y-74087630D01*
X127308000Y-74248370D01*
X127276642Y-74406016D01*
X127276641Y-74406018D01*
X127215130Y-74554521D01*
X127125828Y-74688170D01*
X127012170Y-74801828D01*
X126878521Y-74891130D01*
X126755497Y-74942087D01*
X126730016Y-74952642D01*
X126572370Y-74984000D01*
X126411630Y-74984000D01*
X126253984Y-74952642D01*
X126228503Y-74942087D01*
X126105479Y-74891130D01*
X125971830Y-74801828D01*
X125858172Y-74688170D01*
X125768870Y-74554521D01*
X125707359Y-74406018D01*
X125707358Y-74406016D01*
X125676000Y-74248370D01*
X125676000Y-74087630D01*
X125707358Y-73929984D01*
X125751483Y-73823456D01*
X125768870Y-73781479D01*
X125858172Y-73647830D01*
X125971830Y-73534172D01*
X126105479Y-73444870D01*
X126253982Y-73383359D01*
X126253981Y-73383359D01*
X126253984Y-73383358D01*
X126411630Y-73352000D01*
X126572370Y-73352000D01*
X126730016Y-73383358D01*
X126730016Y-73383358D01*
G37*
G36*
X158548414Y-71887879D02*
X158548416Y-71887880D01*
X158548417Y-71887880D01*
X158739594Y-71967068D01*
X158911651Y-72082033D01*
X159057967Y-72228349D01*
X159172932Y-72400406D01*
X159252121Y-72591586D01*
X159292490Y-72794534D01*
X159292490Y-73001466D01*
X159252121Y-73204414D01*
X159172932Y-73395594D01*
X159057967Y-73567651D01*
X158911651Y-73713967D01*
X158911648Y-73713969D01*
X158739594Y-73828932D01*
X158548417Y-73908120D01*
X158548416Y-73908120D01*
X158548414Y-73908121D01*
X158345466Y-73948490D01*
X158138534Y-73948490D01*
X157935586Y-73908121D01*
X157935584Y-73908120D01*
X157935583Y-73908120D01*
X157744406Y-73828932D01*
X157572352Y-73713969D01*
X157572349Y-73713967D01*
X157426033Y-73567651D01*
X157311068Y-73395594D01*
X157231879Y-73204414D01*
X157191510Y-73001466D01*
X157191510Y-72794534D01*
X157231879Y-72591586D01*
X157311068Y-72400406D01*
X157426033Y-72228349D01*
X157572349Y-72082033D01*
X157744406Y-71967068D01*
X157935583Y-71887880D01*
X157935584Y-71887880D01*
X157935586Y-71887879D01*
X158138534Y-71847510D01*
X158345466Y-71847510D01*
X158548414Y-71887879D01*
X158548414Y-71887879D01*
G37*
G36*
X153468414Y-71887879D02*
X153468416Y-71887880D01*
X153468417Y-71887880D01*
X153659594Y-71967068D01*
X153831651Y-72082033D01*
X153977967Y-72228349D01*
X154092932Y-72400406D01*
X154172121Y-72591586D01*
X154212490Y-72794534D01*
X154212490Y-73001466D01*
X154172121Y-73204414D01*
X154092932Y-73395594D01*
X153977967Y-73567651D01*
X153831651Y-73713967D01*
X153831648Y-73713969D01*
X153659594Y-73828932D01*
X153468417Y-73908120D01*
X153468416Y-73908120D01*
X153468414Y-73908121D01*
X153265466Y-73948490D01*
X153058534Y-73948490D01*
X152855586Y-73908121D01*
X152855584Y-73908120D01*
X152855583Y-73908120D01*
X152664406Y-73828932D01*
X152492352Y-73713969D01*
X152492349Y-73713967D01*
X152346033Y-73567651D01*
X152231068Y-73395594D01*
X152151879Y-73204414D01*
X152111510Y-73001466D01*
X152111510Y-72794534D01*
X152151879Y-72591586D01*
X152231068Y-72400406D01*
X152346033Y-72228349D01*
X152492349Y-72082033D01*
X152664406Y-71967068D01*
X152855583Y-71887880D01*
X152855584Y-71887880D01*
X152855586Y-71887879D01*
X153058534Y-71847510D01*
X153265466Y-71847510D01*
X153468414Y-71887879D01*
X153468414Y-71887879D01*
G37*
G36*
X148388414Y-71887879D02*
X148388416Y-71887880D01*
X148388417Y-71887880D01*
X148579594Y-71967068D01*
X148751651Y-72082033D01*
X148897967Y-72228349D01*
X149012932Y-72400406D01*
X149092121Y-72591586D01*
X149132490Y-72794534D01*
X149132490Y-73001466D01*
X149092121Y-73204414D01*
X149012932Y-73395594D01*
X148897967Y-73567651D01*
X148751651Y-73713967D01*
X148751648Y-73713969D01*
X148579594Y-73828932D01*
X148388417Y-73908120D01*
X148388416Y-73908120D01*
X148388414Y-73908121D01*
X148185466Y-73948490D01*
X147978534Y-73948490D01*
X147775586Y-73908121D01*
X147775584Y-73908120D01*
X147775583Y-73908120D01*
X147584406Y-73828932D01*
X147412352Y-73713969D01*
X147412349Y-73713967D01*
X147266033Y-73567651D01*
X147151068Y-73395594D01*
X147071879Y-73204414D01*
X147031510Y-73001466D01*
X147031510Y-72794534D01*
X147071879Y-72591586D01*
X147151068Y-72400406D01*
X147266033Y-72228349D01*
X147412349Y-72082033D01*
X147584406Y-71967068D01*
X147775583Y-71887880D01*
X147775584Y-71887880D01*
X147775586Y-71887879D01*
X147978534Y-71847510D01*
X148185466Y-71847510D01*
X148388414Y-71887879D01*
X148388414Y-71887879D01*
G37*
G36*
X117102812Y-72158624D02*
X117266784Y-72226544D01*
X117414354Y-72325147D01*
X117539853Y-72450646D01*
X117638456Y-72598216D01*
X117706376Y-72762188D01*
X117741000Y-72936259D01*
X117741000Y-73113741D01*
X117706376Y-73287812D01*
X117638456Y-73451784D01*
X117539853Y-73599354D01*
X117414354Y-73724853D01*
X117266784Y-73823456D01*
X117102812Y-73891376D01*
X116928741Y-73926000D01*
X116751259Y-73926000D01*
X116577188Y-73891376D01*
X116413216Y-73823456D01*
X116265646Y-73724853D01*
X116140147Y-73599354D01*
X116041544Y-73451784D01*
X115973624Y-73287812D01*
X115939000Y-73113741D01*
X115939000Y-72936259D01*
X115973624Y-72762188D01*
X116041544Y-72598216D01*
X116140147Y-72450646D01*
X116265646Y-72325147D01*
X116413216Y-72226544D01*
X116577188Y-72158624D01*
X116751259Y-72124000D01*
X116928741Y-72124000D01*
X117102812Y-72158624D01*
X117102812Y-72158624D01*
G37*
G36*
X114562812Y-72158624D02*
X114726784Y-72226544D01*
X114874354Y-72325147D01*
X114999853Y-72450646D01*
X115098456Y-72598216D01*
X115166376Y-72762188D01*
X115201000Y-72936259D01*
X115201000Y-73113741D01*
X115166376Y-73287812D01*
X115098456Y-73451784D01*
X114999853Y-73599354D01*
X114874354Y-73724853D01*
X114726784Y-73823456D01*
X114562812Y-73891376D01*
X114388741Y-73926000D01*
X114211259Y-73926000D01*
X114037188Y-73891376D01*
X113873216Y-73823456D01*
X113725646Y-73724853D01*
X113600147Y-73599354D01*
X113501544Y-73451784D01*
X113433624Y-73287812D01*
X113399000Y-73113741D01*
X113399000Y-72936259D01*
X113433624Y-72762188D01*
X113501544Y-72598216D01*
X113600147Y-72450646D01*
X113725646Y-72325147D01*
X113873216Y-72226544D01*
X114037188Y-72158624D01*
X114211259Y-72124000D01*
X114388741Y-72124000D01*
X114562812Y-72158624D01*
X114562812Y-72158624D01*
G37*
G36*
X126730016Y-70843358D02*
X126730019Y-70843359D01*
X126730018Y-70843359D01*
X126878521Y-70904870D01*
X127012170Y-70994172D01*
X127125828Y-71107830D01*
X127215130Y-71241479D01*
X127232517Y-71283456D01*
X127276642Y-71389984D01*
X127308000Y-71547630D01*
X127308000Y-71708370D01*
X127276642Y-71866016D01*
X127276641Y-71866018D01*
X127215130Y-72014521D01*
X127125828Y-72148170D01*
X127012170Y-72261828D01*
X126878521Y-72351130D01*
X126759556Y-72400406D01*
X126730016Y-72412642D01*
X126572370Y-72444000D01*
X126411630Y-72444000D01*
X126253984Y-72412642D01*
X126224444Y-72400406D01*
X126105479Y-72351130D01*
X125971830Y-72261828D01*
X125858172Y-72148170D01*
X125768870Y-72014521D01*
X125707359Y-71866018D01*
X125707358Y-71866016D01*
X125676000Y-71708370D01*
X125676000Y-71547630D01*
X125707358Y-71389984D01*
X125751483Y-71283456D01*
X125768870Y-71241479D01*
X125858172Y-71107830D01*
X125971830Y-70994172D01*
X126105479Y-70904870D01*
X126253982Y-70843359D01*
X126253981Y-70843359D01*
X126253984Y-70843358D01*
X126411630Y-70812000D01*
X126572370Y-70812000D01*
X126730016Y-70843358D01*
X126730016Y-70843358D01*
G37*
G36*
X141970016Y-70843358D02*
X141970019Y-70843359D01*
X141970018Y-70843359D01*
X142118521Y-70904870D01*
X142252170Y-70994172D01*
X142365828Y-71107830D01*
X142455130Y-71241479D01*
X142472517Y-71283456D01*
X142516642Y-71389984D01*
X142548000Y-71547630D01*
X142548000Y-71708370D01*
X142516642Y-71866016D01*
X142516641Y-71866018D01*
X142455130Y-72014521D01*
X142365828Y-72148170D01*
X142252170Y-72261828D01*
X142118521Y-72351130D01*
X141999556Y-72400406D01*
X141970016Y-72412642D01*
X141812370Y-72444000D01*
X141651630Y-72444000D01*
X141493984Y-72412642D01*
X141464444Y-72400406D01*
X141345479Y-72351130D01*
X141211830Y-72261828D01*
X141098172Y-72148170D01*
X141008870Y-72014521D01*
X140947359Y-71866018D01*
X140947358Y-71866016D01*
X140916000Y-71708370D01*
X140916000Y-71547630D01*
X140947358Y-71389984D01*
X140991483Y-71283456D01*
X141008870Y-71241479D01*
X141098172Y-71107830D01*
X141211830Y-70994172D01*
X141345479Y-70904870D01*
X141493982Y-70843359D01*
X141493981Y-70843359D01*
X141493984Y-70843358D01*
X141651630Y-70812000D01*
X141812370Y-70812000D01*
X141970016Y-70843358D01*
X141970016Y-70843358D01*
G37*
G36*
X114562812Y-69618624D02*
X114726784Y-69686544D01*
X114874354Y-69785147D01*
X114999853Y-69910646D01*
X115098456Y-70058216D01*
X115166376Y-70222188D01*
X115201000Y-70396259D01*
X115201000Y-70573741D01*
X115166376Y-70747812D01*
X115098456Y-70911784D01*
X114999853Y-71059354D01*
X114874354Y-71184853D01*
X114726784Y-71283456D01*
X114562812Y-71351376D01*
X114388741Y-71386000D01*
X114211259Y-71386000D01*
X114037188Y-71351376D01*
X113873216Y-71283456D01*
X113725646Y-71184853D01*
X113600147Y-71059354D01*
X113501544Y-70911784D01*
X113433624Y-70747812D01*
X113399000Y-70573741D01*
X113399000Y-70396259D01*
X113433624Y-70222188D01*
X113501544Y-70058216D01*
X113600147Y-69910646D01*
X113725646Y-69785147D01*
X113873216Y-69686544D01*
X114037188Y-69618624D01*
X114211259Y-69584000D01*
X114388741Y-69584000D01*
X114562812Y-69618624D01*
X114562812Y-69618624D01*
G37*
G36*
X117102812Y-69618624D02*
X117266784Y-69686544D01*
X117414354Y-69785147D01*
X117539853Y-69910646D01*
X117638456Y-70058216D01*
X117706376Y-70222188D01*
X117741000Y-70396259D01*
X117741000Y-70573741D01*
X117706376Y-70747812D01*
X117638456Y-70911784D01*
X117539853Y-71059354D01*
X117414354Y-71184853D01*
X117266784Y-71283456D01*
X117102812Y-71351376D01*
X116928741Y-71386000D01*
X116751259Y-71386000D01*
X116577188Y-71351376D01*
X116413216Y-71283456D01*
X116265646Y-71184853D01*
X116140147Y-71059354D01*
X116041544Y-70911784D01*
X115973624Y-70747812D01*
X115939000Y-70573741D01*
X115939000Y-70396259D01*
X115973624Y-70222188D01*
X116041544Y-70058216D01*
X116140147Y-69910646D01*
X116265646Y-69785147D01*
X116413216Y-69686544D01*
X116577188Y-69618624D01*
X116751259Y-69584000D01*
X116928741Y-69584000D01*
X117102812Y-69618624D01*
X117102812Y-69618624D01*
G37*
G36*
X126730016Y-68303358D02*
X126730019Y-68303359D01*
X126730018Y-68303359D01*
X126878521Y-68364870D01*
X127012170Y-68454172D01*
X127125828Y-68567830D01*
X127215130Y-68701479D01*
X127232517Y-68743456D01*
X127276642Y-68849984D01*
X127308000Y-69007630D01*
X127308000Y-69168370D01*
X127276642Y-69326016D01*
X127276641Y-69326018D01*
X127215130Y-69474521D01*
X127125828Y-69608170D01*
X127012170Y-69721828D01*
X126878521Y-69811130D01*
X126755497Y-69862087D01*
X126730016Y-69872642D01*
X126572370Y-69904000D01*
X126411630Y-69904000D01*
X126253984Y-69872642D01*
X126228503Y-69862087D01*
X126105479Y-69811130D01*
X125971830Y-69721828D01*
X125858172Y-69608170D01*
X125768870Y-69474521D01*
X125707359Y-69326018D01*
X125707358Y-69326016D01*
X125676000Y-69168370D01*
X125676000Y-69007630D01*
X125707358Y-68849984D01*
X125751483Y-68743456D01*
X125768870Y-68701479D01*
X125858172Y-68567830D01*
X125971830Y-68454172D01*
X126105479Y-68364870D01*
X126253982Y-68303359D01*
X126253981Y-68303359D01*
X126253984Y-68303358D01*
X126411630Y-68272000D01*
X126572370Y-68272000D01*
X126730016Y-68303358D01*
X126730016Y-68303358D01*
G37*
G36*
X141970016Y-68303358D02*
X141970019Y-68303359D01*
X141970018Y-68303359D01*
X142118521Y-68364870D01*
X142252170Y-68454172D01*
X142365828Y-68567830D01*
X142455130Y-68701479D01*
X142472517Y-68743456D01*
X142516642Y-68849984D01*
X142548000Y-69007630D01*
X142548000Y-69168370D01*
X142516642Y-69326016D01*
X142516641Y-69326018D01*
X142455130Y-69474521D01*
X142365828Y-69608170D01*
X142252170Y-69721828D01*
X142118521Y-69811130D01*
X141995497Y-69862087D01*
X141970016Y-69872642D01*
X141812370Y-69904000D01*
X141651630Y-69904000D01*
X141493984Y-69872642D01*
X141468503Y-69862087D01*
X141345479Y-69811130D01*
X141211830Y-69721828D01*
X141098172Y-69608170D01*
X141008870Y-69474521D01*
X140947359Y-69326018D01*
X140947358Y-69326016D01*
X140916000Y-69168370D01*
X140916000Y-69007630D01*
X140947358Y-68849984D01*
X140991483Y-68743456D01*
X141008870Y-68701479D01*
X141098172Y-68567830D01*
X141211830Y-68454172D01*
X141345479Y-68364870D01*
X141493982Y-68303359D01*
X141493981Y-68303359D01*
X141493984Y-68303358D01*
X141651630Y-68272000D01*
X141812370Y-68272000D01*
X141970016Y-68303358D01*
X141970016Y-68303358D01*
G37*
G36*
X158548414Y-66807879D02*
X158548416Y-66807880D01*
X158548417Y-66807880D01*
X158739594Y-66887068D01*
X158911651Y-67002033D01*
X159057967Y-67148349D01*
X159172932Y-67320406D01*
X159252121Y-67511586D01*
X159292490Y-67714534D01*
X159292490Y-67921466D01*
X159252121Y-68124414D01*
X159172932Y-68315594D01*
X159057967Y-68487651D01*
X158911651Y-68633967D01*
X158911648Y-68633969D01*
X158739594Y-68748932D01*
X158548417Y-68828120D01*
X158548416Y-68828120D01*
X158548414Y-68828121D01*
X158345466Y-68868490D01*
X158138534Y-68868490D01*
X157935586Y-68828121D01*
X157935584Y-68828120D01*
X157935583Y-68828120D01*
X157744406Y-68748932D01*
X157572352Y-68633969D01*
X157572349Y-68633967D01*
X157426033Y-68487651D01*
X157311068Y-68315594D01*
X157231879Y-68124414D01*
X157191510Y-67921466D01*
X157191510Y-67714534D01*
X157231879Y-67511586D01*
X157311068Y-67320406D01*
X157426033Y-67148349D01*
X157572349Y-67002033D01*
X157744406Y-66887068D01*
X157935583Y-66807880D01*
X157935584Y-66807880D01*
X157935586Y-66807879D01*
X158138534Y-66767510D01*
X158345466Y-66767510D01*
X158548414Y-66807879D01*
X158548414Y-66807879D01*
G37*
G36*
X148388414Y-66807879D02*
X148388416Y-66807880D01*
X148388417Y-66807880D01*
X148579594Y-66887068D01*
X148751651Y-67002033D01*
X148897967Y-67148349D01*
X149012932Y-67320406D01*
X149092121Y-67511586D01*
X149132490Y-67714534D01*
X149132490Y-67921466D01*
X149092121Y-68124414D01*
X149012932Y-68315594D01*
X148897967Y-68487651D01*
X148751651Y-68633967D01*
X148751648Y-68633969D01*
X148579594Y-68748932D01*
X148388417Y-68828120D01*
X148388416Y-68828120D01*
X148388414Y-68828121D01*
X148185466Y-68868490D01*
X147978534Y-68868490D01*
X147775586Y-68828121D01*
X147775584Y-68828120D01*
X147775583Y-68828120D01*
X147584406Y-68748932D01*
X147412352Y-68633969D01*
X147412349Y-68633967D01*
X147266033Y-68487651D01*
X147151068Y-68315594D01*
X147071879Y-68124414D01*
X147031510Y-67921466D01*
X147031510Y-67714534D01*
X147071879Y-67511586D01*
X147151068Y-67320406D01*
X147266033Y-67148349D01*
X147412349Y-67002033D01*
X147584406Y-66887068D01*
X147775583Y-66807880D01*
X147775584Y-66807880D01*
X147775586Y-66807879D01*
X147978534Y-66767510D01*
X148185466Y-66767510D01*
X148388414Y-66807879D01*
X148388414Y-66807879D01*
G37*
G36*
X153468414Y-66807879D02*
X153468416Y-66807880D01*
X153468417Y-66807880D01*
X153659594Y-66887068D01*
X153831651Y-67002033D01*
X153977967Y-67148349D01*
X154092932Y-67320406D01*
X154172121Y-67511586D01*
X154212490Y-67714534D01*
X154212490Y-67921466D01*
X154172121Y-68124414D01*
X154092932Y-68315594D01*
X153977967Y-68487651D01*
X153831651Y-68633967D01*
X153831648Y-68633969D01*
X153659594Y-68748932D01*
X153468417Y-68828120D01*
X153468416Y-68828120D01*
X153468414Y-68828121D01*
X153265466Y-68868490D01*
X153058534Y-68868490D01*
X152855586Y-68828121D01*
X152855584Y-68828120D01*
X152855583Y-68828120D01*
X152664406Y-68748932D01*
X152492352Y-68633969D01*
X152492349Y-68633967D01*
X152346033Y-68487651D01*
X152231068Y-68315594D01*
X152151879Y-68124414D01*
X152111510Y-67921466D01*
X152111510Y-67714534D01*
X152151879Y-67511586D01*
X152231068Y-67320406D01*
X152346033Y-67148349D01*
X152492349Y-67002033D01*
X152664406Y-66887068D01*
X152855583Y-66807880D01*
X152855584Y-66807880D01*
X152855586Y-66807879D01*
X153058534Y-66767510D01*
X153265466Y-66767510D01*
X153468414Y-66807879D01*
X153468414Y-66807879D01*
G37*
G36*
X117102812Y-67078624D02*
X117266784Y-67146544D01*
X117414354Y-67245147D01*
X117539853Y-67370646D01*
X117638456Y-67518216D01*
X117706376Y-67682188D01*
X117741000Y-67856259D01*
X117741000Y-68033741D01*
X117706376Y-68207812D01*
X117638456Y-68371784D01*
X117539853Y-68519354D01*
X117414354Y-68644853D01*
X117266784Y-68743456D01*
X117102812Y-68811376D01*
X116928741Y-68846000D01*
X116751259Y-68846000D01*
X116577188Y-68811376D01*
X116413216Y-68743456D01*
X116265646Y-68644853D01*
X116140147Y-68519354D01*
X116041544Y-68371784D01*
X115973624Y-68207812D01*
X115939000Y-68033741D01*
X115939000Y-67856259D01*
X115973624Y-67682188D01*
X116041544Y-67518216D01*
X116140147Y-67370646D01*
X116265646Y-67245147D01*
X116413216Y-67146544D01*
X116577188Y-67078624D01*
X116751259Y-67044000D01*
X116928741Y-67044000D01*
X117102812Y-67078624D01*
X117102812Y-67078624D01*
G37*
G36*
X114562812Y-67078624D02*
X114726784Y-67146544D01*
X114874354Y-67245147D01*
X114999853Y-67370646D01*
X115098456Y-67518216D01*
X115166376Y-67682188D01*
X115201000Y-67856259D01*
X115201000Y-68033741D01*
X115166376Y-68207812D01*
X115098456Y-68371784D01*
X114999853Y-68519354D01*
X114874354Y-68644853D01*
X114726784Y-68743456D01*
X114562812Y-68811376D01*
X114388741Y-68846000D01*
X114211259Y-68846000D01*
X114037188Y-68811376D01*
X113873216Y-68743456D01*
X113725646Y-68644853D01*
X113600147Y-68519354D01*
X113501544Y-68371784D01*
X113433624Y-68207812D01*
X113399000Y-68033741D01*
X113399000Y-67856259D01*
X113433624Y-67682188D01*
X113501544Y-67518216D01*
X113600147Y-67370646D01*
X113725646Y-67245147D01*
X113873216Y-67146544D01*
X114037188Y-67078624D01*
X114211259Y-67044000D01*
X114388741Y-67044000D01*
X114562812Y-67078624D01*
X114562812Y-67078624D01*
G37*
G36*
X141970016Y-65763358D02*
X141970019Y-65763359D01*
X141970018Y-65763359D01*
X142118521Y-65824870D01*
X142252170Y-65914172D01*
X142365828Y-66027830D01*
X142455130Y-66161479D01*
X142472517Y-66203456D01*
X142516642Y-66309984D01*
X142548000Y-66467630D01*
X142548000Y-66628370D01*
X142516642Y-66786016D01*
X142516641Y-66786018D01*
X142455130Y-66934521D01*
X142365828Y-67068170D01*
X142252170Y-67181828D01*
X142118521Y-67271130D01*
X141999556Y-67320406D01*
X141970016Y-67332642D01*
X141812370Y-67364000D01*
X141651630Y-67364000D01*
X141493984Y-67332642D01*
X141464444Y-67320406D01*
X141345479Y-67271130D01*
X141211830Y-67181828D01*
X141098172Y-67068170D01*
X141008870Y-66934521D01*
X140947359Y-66786018D01*
X140947358Y-66786016D01*
X140916000Y-66628370D01*
X140916000Y-66467630D01*
X140947358Y-66309984D01*
X140991483Y-66203456D01*
X141008870Y-66161479D01*
X141098172Y-66027830D01*
X141211830Y-65914172D01*
X141345479Y-65824870D01*
X141493982Y-65763359D01*
X141493981Y-65763359D01*
X141493984Y-65763358D01*
X141651630Y-65732000D01*
X141812370Y-65732000D01*
X141970016Y-65763358D01*
X141970016Y-65763358D01*
G37*
G36*
X126730016Y-65763358D02*
X126730019Y-65763359D01*
X126730018Y-65763359D01*
X126878521Y-65824870D01*
X127012170Y-65914172D01*
X127125828Y-66027830D01*
X127215130Y-66161479D01*
X127232517Y-66203456D01*
X127276642Y-66309984D01*
X127308000Y-66467630D01*
X127308000Y-66628370D01*
X127276642Y-66786016D01*
X127276641Y-66786018D01*
X127215130Y-66934521D01*
X127125828Y-67068170D01*
X127012170Y-67181828D01*
X126878521Y-67271130D01*
X126759556Y-67320406D01*
X126730016Y-67332642D01*
X126572370Y-67364000D01*
X126411630Y-67364000D01*
X126253984Y-67332642D01*
X126224444Y-67320406D01*
X126105479Y-67271130D01*
X125971830Y-67181828D01*
X125858172Y-67068170D01*
X125768870Y-66934521D01*
X125707359Y-66786018D01*
X125707358Y-66786016D01*
X125676000Y-66628370D01*
X125676000Y-66467630D01*
X125707358Y-66309984D01*
X125751483Y-66203456D01*
X125768870Y-66161479D01*
X125858172Y-66027830D01*
X125971830Y-65914172D01*
X126105479Y-65824870D01*
X126253982Y-65763359D01*
X126253981Y-65763359D01*
X126253984Y-65763358D01*
X126411630Y-65732000D01*
X126572370Y-65732000D01*
X126730016Y-65763358D01*
X126730016Y-65763358D01*
G37*
G36*
X114562812Y-64538624D02*
X114726784Y-64606544D01*
X114874354Y-64705147D01*
X114999853Y-64830646D01*
X115098456Y-64978216D01*
X115166376Y-65142188D01*
X115201000Y-65316259D01*
X115201000Y-65493741D01*
X115166376Y-65667812D01*
X115098456Y-65831784D01*
X114999853Y-65979354D01*
X114874354Y-66104853D01*
X114726784Y-66203456D01*
X114562812Y-66271376D01*
X114388741Y-66306000D01*
X114211259Y-66306000D01*
X114037188Y-66271376D01*
X113873216Y-66203456D01*
X113725646Y-66104853D01*
X113600147Y-65979354D01*
X113501544Y-65831784D01*
X113433624Y-65667812D01*
X113399000Y-65493741D01*
X113399000Y-65316259D01*
X113433624Y-65142188D01*
X113501544Y-64978216D01*
X113600147Y-64830646D01*
X113725646Y-64705147D01*
X113873216Y-64606544D01*
X114037188Y-64538624D01*
X114211259Y-64504000D01*
X114388741Y-64504000D01*
X114562812Y-64538624D01*
X114562812Y-64538624D01*
G37*
G36*
X117102812Y-64538624D02*
X117266784Y-64606544D01*
X117414354Y-64705147D01*
X117539853Y-64830646D01*
X117638456Y-64978216D01*
X117706376Y-65142188D01*
X117741000Y-65316259D01*
X117741000Y-65493741D01*
X117706376Y-65667812D01*
X117638456Y-65831784D01*
X117539853Y-65979354D01*
X117414354Y-66104853D01*
X117266784Y-66203456D01*
X117102812Y-66271376D01*
X116928741Y-66306000D01*
X116751259Y-66306000D01*
X116577188Y-66271376D01*
X116413216Y-66203456D01*
X116265646Y-66104853D01*
X116140147Y-65979354D01*
X116041544Y-65831784D01*
X115973624Y-65667812D01*
X115939000Y-65493741D01*
X115939000Y-65316259D01*
X115973624Y-65142188D01*
X116041544Y-64978216D01*
X116140147Y-64830646D01*
X116265646Y-64705147D01*
X116413216Y-64606544D01*
X116577188Y-64538624D01*
X116751259Y-64504000D01*
X116928741Y-64504000D01*
X117102812Y-64538624D01*
X117102812Y-64538624D01*
G37*
G36*
X141970016Y-63223358D02*
X141970019Y-63223359D01*
X141970018Y-63223359D01*
X142118521Y-63284870D01*
X142252170Y-63374172D01*
X142365828Y-63487830D01*
X142455130Y-63621479D01*
X142472517Y-63663456D01*
X142516642Y-63769984D01*
X142548000Y-63927630D01*
X142548000Y-64088370D01*
X142516642Y-64246016D01*
X142516641Y-64246018D01*
X142455130Y-64394521D01*
X142365828Y-64528170D01*
X142252170Y-64641828D01*
X142118521Y-64731130D01*
X141995497Y-64782087D01*
X141970016Y-64792642D01*
X141812370Y-64824000D01*
X141651630Y-64824000D01*
X141493984Y-64792642D01*
X141468503Y-64782087D01*
X141345479Y-64731130D01*
X141211830Y-64641828D01*
X141098172Y-64528170D01*
X141008870Y-64394521D01*
X140947359Y-64246018D01*
X140947358Y-64246016D01*
X140916000Y-64088370D01*
X140916000Y-63927630D01*
X140947358Y-63769984D01*
X140991483Y-63663456D01*
X141008870Y-63621479D01*
X141098172Y-63487830D01*
X141211830Y-63374172D01*
X141345479Y-63284870D01*
X141493982Y-63223359D01*
X141493981Y-63223359D01*
X141493984Y-63223358D01*
X141651630Y-63192000D01*
X141812370Y-63192000D01*
X141970016Y-63223358D01*
X141970016Y-63223358D01*
G37*
G36*
X126730016Y-63223358D02*
X126730019Y-63223359D01*
X126730018Y-63223359D01*
X126878521Y-63284870D01*
X127012170Y-63374172D01*
X127125828Y-63487830D01*
X127215130Y-63621479D01*
X127232517Y-63663456D01*
X127276642Y-63769984D01*
X127308000Y-63927630D01*
X127308000Y-64088370D01*
X127276642Y-64246016D01*
X127276641Y-64246018D01*
X127215130Y-64394521D01*
X127125828Y-64528170D01*
X127012170Y-64641828D01*
X126878521Y-64731130D01*
X126755497Y-64782087D01*
X126730016Y-64792642D01*
X126572370Y-64824000D01*
X126411630Y-64824000D01*
X126253984Y-64792642D01*
X126228503Y-64782087D01*
X126105479Y-64731130D01*
X125971830Y-64641828D01*
X125858172Y-64528170D01*
X125768870Y-64394521D01*
X125707359Y-64246018D01*
X125707358Y-64246016D01*
X125676000Y-64088370D01*
X125676000Y-63927630D01*
X125707358Y-63769984D01*
X125751483Y-63663456D01*
X125768870Y-63621479D01*
X125858172Y-63487830D01*
X125971830Y-63374172D01*
X126105479Y-63284870D01*
X126253982Y-63223359D01*
X126253981Y-63223359D01*
X126253984Y-63223358D01*
X126411630Y-63192000D01*
X126572370Y-63192000D01*
X126730016Y-63223358D01*
X126730016Y-63223358D01*
G37*
G36*
X148388414Y-61727879D02*
X148388416Y-61727880D01*
X148388417Y-61727880D01*
X148579594Y-61807068D01*
X148751651Y-61922033D01*
X148897967Y-62068349D01*
X149012932Y-62240406D01*
X149092121Y-62431586D01*
X149132490Y-62634534D01*
X149132490Y-62841466D01*
X149092121Y-63044414D01*
X149012932Y-63235594D01*
X148897967Y-63407651D01*
X148751651Y-63553967D01*
X148751648Y-63553969D01*
X148579594Y-63668932D01*
X148388417Y-63748120D01*
X148388416Y-63748120D01*
X148388414Y-63748121D01*
X148185466Y-63788490D01*
X147978534Y-63788490D01*
X147775586Y-63748121D01*
X147775584Y-63748120D01*
X147775583Y-63748120D01*
X147584406Y-63668932D01*
X147412352Y-63553969D01*
X147412349Y-63553967D01*
X147266033Y-63407651D01*
X147151068Y-63235594D01*
X147071879Y-63044414D01*
X147031510Y-62841466D01*
X147031510Y-62634534D01*
X147071879Y-62431586D01*
X147151068Y-62240406D01*
X147266033Y-62068349D01*
X147412349Y-61922033D01*
X147584406Y-61807068D01*
X147775583Y-61727880D01*
X147775584Y-61727880D01*
X147775586Y-61727879D01*
X147978534Y-61687510D01*
X148185466Y-61687510D01*
X148388414Y-61727879D01*
X148388414Y-61727879D01*
G37*
G36*
X153468414Y-61727879D02*
X153468416Y-61727880D01*
X153468417Y-61727880D01*
X153659594Y-61807068D01*
X153831651Y-61922033D01*
X153977967Y-62068349D01*
X154092932Y-62240406D01*
X154172121Y-62431586D01*
X154212490Y-62634534D01*
X154212490Y-62841466D01*
X154172121Y-63044414D01*
X154092932Y-63235594D01*
X153977967Y-63407651D01*
X153831651Y-63553967D01*
X153831648Y-63553969D01*
X153659594Y-63668932D01*
X153468417Y-63748120D01*
X153468416Y-63748120D01*
X153468414Y-63748121D01*
X153265466Y-63788490D01*
X153058534Y-63788490D01*
X152855586Y-63748121D01*
X152855584Y-63748120D01*
X152855583Y-63748120D01*
X152664406Y-63668932D01*
X152492352Y-63553969D01*
X152492349Y-63553967D01*
X152346033Y-63407651D01*
X152231068Y-63235594D01*
X152151879Y-63044414D01*
X152111510Y-62841466D01*
X152111510Y-62634534D01*
X152151879Y-62431586D01*
X152231068Y-62240406D01*
X152346033Y-62068349D01*
X152492349Y-61922033D01*
X152664406Y-61807068D01*
X152855583Y-61727880D01*
X152855584Y-61727880D01*
X152855586Y-61727879D01*
X153058534Y-61687510D01*
X153265466Y-61687510D01*
X153468414Y-61727879D01*
X153468414Y-61727879D01*
G37*
G36*
X158548414Y-61727879D02*
X158548416Y-61727880D01*
X158548417Y-61727880D01*
X158739594Y-61807068D01*
X158911651Y-61922033D01*
X159057967Y-62068349D01*
X159172932Y-62240406D01*
X159252121Y-62431586D01*
X159292490Y-62634534D01*
X159292490Y-62841466D01*
X159252121Y-63044414D01*
X159172932Y-63235594D01*
X159057967Y-63407651D01*
X158911651Y-63553967D01*
X158911648Y-63553969D01*
X158739594Y-63668932D01*
X158548417Y-63748120D01*
X158548416Y-63748120D01*
X158548414Y-63748121D01*
X158345466Y-63788490D01*
X158138534Y-63788490D01*
X157935586Y-63748121D01*
X157935584Y-63748120D01*
X157935583Y-63748120D01*
X157744406Y-63668932D01*
X157572352Y-63553969D01*
X157572349Y-63553967D01*
X157426033Y-63407651D01*
X157311068Y-63235594D01*
X157231879Y-63044414D01*
X157191510Y-62841466D01*
X157191510Y-62634534D01*
X157231879Y-62431586D01*
X157311068Y-62240406D01*
X157426033Y-62068349D01*
X157572349Y-61922033D01*
X157744406Y-61807068D01*
X157935583Y-61727880D01*
X157935584Y-61727880D01*
X157935586Y-61727879D01*
X158138534Y-61687510D01*
X158345466Y-61687510D01*
X158548414Y-61727879D01*
X158548414Y-61727879D01*
G37*
G36*
X114562812Y-61998624D02*
X114726784Y-62066544D01*
X114874354Y-62165147D01*
X114999853Y-62290646D01*
X115098456Y-62438216D01*
X115166376Y-62602188D01*
X115201000Y-62776259D01*
X115201000Y-62953741D01*
X115166376Y-63127812D01*
X115098456Y-63291784D01*
X114999853Y-63439354D01*
X114874354Y-63564853D01*
X114726784Y-63663456D01*
X114562812Y-63731376D01*
X114388741Y-63766000D01*
X114211259Y-63766000D01*
X114037188Y-63731376D01*
X113873216Y-63663456D01*
X113725646Y-63564853D01*
X113600147Y-63439354D01*
X113501544Y-63291784D01*
X113433624Y-63127812D01*
X113399000Y-62953741D01*
X113399000Y-62776259D01*
X113433624Y-62602188D01*
X113501544Y-62438216D01*
X113600147Y-62290646D01*
X113725646Y-62165147D01*
X113873216Y-62066544D01*
X114037188Y-61998624D01*
X114211259Y-61964000D01*
X114388741Y-61964000D01*
X114562812Y-61998624D01*
X114562812Y-61998624D01*
G37*
G36*
X117102812Y-61998624D02*
X117266784Y-62066544D01*
X117414354Y-62165147D01*
X117539853Y-62290646D01*
X117638456Y-62438216D01*
X117706376Y-62602188D01*
X117741000Y-62776259D01*
X117741000Y-62953741D01*
X117706376Y-63127812D01*
X117638456Y-63291784D01*
X117539853Y-63439354D01*
X117414354Y-63564853D01*
X117266784Y-63663456D01*
X117102812Y-63731376D01*
X116928741Y-63766000D01*
X116751259Y-63766000D01*
X116577188Y-63731376D01*
X116413216Y-63663456D01*
X116265646Y-63564853D01*
X116140147Y-63439354D01*
X116041544Y-63291784D01*
X115973624Y-63127812D01*
X115939000Y-62953741D01*
X115939000Y-62776259D01*
X115973624Y-62602188D01*
X116041544Y-62438216D01*
X116140147Y-62290646D01*
X116265646Y-62165147D01*
X116413216Y-62066544D01*
X116577188Y-61998624D01*
X116751259Y-61964000D01*
X116928741Y-61964000D01*
X117102812Y-61998624D01*
X117102812Y-61998624D01*
G37*
G36*
X141970016Y-60683358D02*
X141970019Y-60683359D01*
X141970018Y-60683359D01*
X142118521Y-60744870D01*
X142252170Y-60834172D01*
X142365828Y-60947830D01*
X142455130Y-61081479D01*
X142472517Y-61123456D01*
X142516642Y-61229984D01*
X142548000Y-61387630D01*
X142548000Y-61548370D01*
X142516642Y-61706016D01*
X142516641Y-61706018D01*
X142455130Y-61854521D01*
X142365828Y-61988170D01*
X142252170Y-62101828D01*
X142118521Y-62191130D01*
X141999556Y-62240406D01*
X141970016Y-62252642D01*
X141812370Y-62284000D01*
X141651630Y-62284000D01*
X141493984Y-62252642D01*
X141464444Y-62240406D01*
X141345479Y-62191130D01*
X141211830Y-62101828D01*
X141098172Y-61988170D01*
X141008870Y-61854521D01*
X140947359Y-61706018D01*
X140947358Y-61706016D01*
X140916000Y-61548370D01*
X140916000Y-61387630D01*
X140947358Y-61229984D01*
X140991483Y-61123456D01*
X141008870Y-61081479D01*
X141098172Y-60947830D01*
X141211830Y-60834172D01*
X141345479Y-60744870D01*
X141493982Y-60683359D01*
X141493981Y-60683359D01*
X141493984Y-60683358D01*
X141651630Y-60652000D01*
X141812370Y-60652000D01*
X141970016Y-60683358D01*
X141970016Y-60683358D01*
G37*
G36*
X126730016Y-60683358D02*
X126730019Y-60683359D01*
X126730018Y-60683359D01*
X126878521Y-60744870D01*
X127012170Y-60834172D01*
X127125828Y-60947830D01*
X127215130Y-61081479D01*
X127232517Y-61123456D01*
X127276642Y-61229984D01*
X127308000Y-61387630D01*
X127308000Y-61548370D01*
X127276642Y-61706016D01*
X127276641Y-61706018D01*
X127215130Y-61854521D01*
X127125828Y-61988170D01*
X127012170Y-62101828D01*
X126878521Y-62191130D01*
X126759556Y-62240406D01*
X126730016Y-62252642D01*
X126572370Y-62284000D01*
X126411630Y-62284000D01*
X126253984Y-62252642D01*
X126224444Y-62240406D01*
X126105479Y-62191130D01*
X125971830Y-62101828D01*
X125858172Y-61988170D01*
X125768870Y-61854521D01*
X125707359Y-61706018D01*
X125707358Y-61706016D01*
X125676000Y-61548370D01*
X125676000Y-61387630D01*
X125707358Y-61229984D01*
X125751483Y-61123456D01*
X125768870Y-61081479D01*
X125858172Y-60947830D01*
X125971830Y-60834172D01*
X126105479Y-60744870D01*
X126253982Y-60683359D01*
X126253981Y-60683359D01*
X126253984Y-60683358D01*
X126411630Y-60652000D01*
X126572370Y-60652000D01*
X126730016Y-60683358D01*
X126730016Y-60683358D01*
G37*
G36*
X114562812Y-59458624D02*
X114726784Y-59526544D01*
X114874354Y-59625147D01*
X114999853Y-59750646D01*
X115098456Y-59898216D01*
X115166376Y-60062188D01*
X115201000Y-60236259D01*
X115201000Y-60413741D01*
X115166376Y-60587812D01*
X115098456Y-60751784D01*
X114999853Y-60899354D01*
X114874354Y-61024853D01*
X114726784Y-61123456D01*
X114562812Y-61191376D01*
X114388741Y-61226000D01*
X114211259Y-61226000D01*
X114037188Y-61191376D01*
X113873216Y-61123456D01*
X113725646Y-61024853D01*
X113600147Y-60899354D01*
X113501544Y-60751784D01*
X113433624Y-60587812D01*
X113399000Y-60413741D01*
X113399000Y-60236259D01*
X113433624Y-60062188D01*
X113501544Y-59898216D01*
X113600147Y-59750646D01*
X113725646Y-59625147D01*
X113873216Y-59526544D01*
X114037188Y-59458624D01*
X114211259Y-59424000D01*
X114388741Y-59424000D01*
X114562812Y-59458624D01*
X114562812Y-59458624D01*
G37*
G36*
X117102812Y-59458624D02*
X117266784Y-59526544D01*
X117414354Y-59625147D01*
X117539853Y-59750646D01*
X117638456Y-59898216D01*
X117706376Y-60062188D01*
X117741000Y-60236259D01*
X117741000Y-60413741D01*
X117706376Y-60587812D01*
X117638456Y-60751784D01*
X117539853Y-60899354D01*
X117414354Y-61024853D01*
X117266784Y-61123456D01*
X117102812Y-61191376D01*
X116928741Y-61226000D01*
X116751259Y-61226000D01*
X116577188Y-61191376D01*
X116413216Y-61123456D01*
X116265646Y-61024853D01*
X116140147Y-60899354D01*
X116041544Y-60751784D01*
X115973624Y-60587812D01*
X115939000Y-60413741D01*
X115939000Y-60236259D01*
X115973624Y-60062188D01*
X116041544Y-59898216D01*
X116140147Y-59750646D01*
X116265646Y-59625147D01*
X116413216Y-59526544D01*
X116577188Y-59458624D01*
X116751259Y-59424000D01*
X116928741Y-59424000D01*
X117102812Y-59458624D01*
X117102812Y-59458624D01*
G37*
G36*
X126730016Y-58143358D02*
X126730019Y-58143359D01*
X126730018Y-58143359D01*
X126878521Y-58204870D01*
X127012170Y-58294172D01*
X127125828Y-58407830D01*
X127215130Y-58541479D01*
X127232517Y-58583456D01*
X127276642Y-58689984D01*
X127308000Y-58847630D01*
X127308000Y-59008370D01*
X127276642Y-59166016D01*
X127276641Y-59166018D01*
X127215130Y-59314521D01*
X127125828Y-59448170D01*
X127012170Y-59561828D01*
X126878521Y-59651130D01*
X126755497Y-59702087D01*
X126730016Y-59712642D01*
X126572370Y-59744000D01*
X126411630Y-59744000D01*
X126253984Y-59712642D01*
X126228503Y-59702087D01*
X126105479Y-59651130D01*
X125971830Y-59561828D01*
X125858172Y-59448170D01*
X125768870Y-59314521D01*
X125707359Y-59166018D01*
X125707358Y-59166016D01*
X125676000Y-59008370D01*
X125676000Y-58847630D01*
X125707358Y-58689984D01*
X125751483Y-58583456D01*
X125768870Y-58541479D01*
X125858172Y-58407830D01*
X125971830Y-58294172D01*
X126105479Y-58204870D01*
X126253982Y-58143359D01*
X126253981Y-58143359D01*
X126253984Y-58143358D01*
X126411630Y-58112000D01*
X126572370Y-58112000D01*
X126730016Y-58143358D01*
X126730016Y-58143358D01*
G37*
G36*
X141970016Y-58143358D02*
X141970019Y-58143359D01*
X141970018Y-58143359D01*
X142118521Y-58204870D01*
X142252170Y-58294172D01*
X142365828Y-58407830D01*
X142455130Y-58541479D01*
X142472517Y-58583456D01*
X142516642Y-58689984D01*
X142548000Y-58847630D01*
X142548000Y-59008370D01*
X142516642Y-59166016D01*
X142516641Y-59166018D01*
X142455130Y-59314521D01*
X142365828Y-59448170D01*
X142252170Y-59561828D01*
X142118521Y-59651130D01*
X141995497Y-59702087D01*
X141970016Y-59712642D01*
X141812370Y-59744000D01*
X141651630Y-59744000D01*
X141493984Y-59712642D01*
X141468503Y-59702087D01*
X141345479Y-59651130D01*
X141211830Y-59561828D01*
X141098172Y-59448170D01*
X141008870Y-59314521D01*
X140947359Y-59166018D01*
X140947358Y-59166016D01*
X140916000Y-59008370D01*
X140916000Y-58847630D01*
X140947358Y-58689984D01*
X140991483Y-58583456D01*
X141008870Y-58541479D01*
X141098172Y-58407830D01*
X141211830Y-58294172D01*
X141345479Y-58204870D01*
X141493982Y-58143359D01*
X141493981Y-58143359D01*
X141493984Y-58143358D01*
X141651630Y-58112000D01*
X141812370Y-58112000D01*
X141970016Y-58143358D01*
X141970016Y-58143358D01*
G37*
G36*
X148388414Y-56647879D02*
X148388416Y-56647880D01*
X148388417Y-56647880D01*
X148579594Y-56727068D01*
X148751651Y-56842033D01*
X148897967Y-56988349D01*
X149012932Y-57160406D01*
X149092121Y-57351586D01*
X149132490Y-57554534D01*
X149132490Y-57761466D01*
X149092121Y-57964414D01*
X149012932Y-58155594D01*
X148897967Y-58327651D01*
X148751651Y-58473967D01*
X148751648Y-58473969D01*
X148579594Y-58588932D01*
X148388417Y-58668120D01*
X148388416Y-58668120D01*
X148388414Y-58668121D01*
X148185466Y-58708490D01*
X147978534Y-58708490D01*
X147775586Y-58668121D01*
X147775584Y-58668120D01*
X147775583Y-58668120D01*
X147584406Y-58588932D01*
X147412352Y-58473969D01*
X147412349Y-58473967D01*
X147266033Y-58327651D01*
X147151068Y-58155594D01*
X147071879Y-57964414D01*
X147031510Y-57761466D01*
X147031510Y-57554534D01*
X147071879Y-57351586D01*
X147151068Y-57160406D01*
X147266033Y-56988349D01*
X147412349Y-56842033D01*
X147584406Y-56727068D01*
X147775583Y-56647880D01*
X147775584Y-56647880D01*
X147775586Y-56647879D01*
X147978534Y-56607510D01*
X148185466Y-56607510D01*
X148388414Y-56647879D01*
X148388414Y-56647879D01*
G37*
G36*
X153468414Y-56647879D02*
X153468416Y-56647880D01*
X153468417Y-56647880D01*
X153659594Y-56727068D01*
X153831651Y-56842033D01*
X153977967Y-56988349D01*
X154092932Y-57160406D01*
X154172121Y-57351586D01*
X154212490Y-57554534D01*
X154212490Y-57761466D01*
X154172121Y-57964414D01*
X154092932Y-58155594D01*
X153977967Y-58327651D01*
X153831651Y-58473967D01*
X153831648Y-58473969D01*
X153659594Y-58588932D01*
X153468417Y-58668120D01*
X153468416Y-58668120D01*
X153468414Y-58668121D01*
X153265466Y-58708490D01*
X153058534Y-58708490D01*
X152855586Y-58668121D01*
X152855584Y-58668120D01*
X152855583Y-58668120D01*
X152664406Y-58588932D01*
X152492352Y-58473969D01*
X152492349Y-58473967D01*
X152346033Y-58327651D01*
X152231068Y-58155594D01*
X152151879Y-57964414D01*
X152111510Y-57761466D01*
X152111510Y-57554534D01*
X152151879Y-57351586D01*
X152231068Y-57160406D01*
X152346033Y-56988349D01*
X152492349Y-56842033D01*
X152664406Y-56727068D01*
X152855583Y-56647880D01*
X152855584Y-56647880D01*
X152855586Y-56647879D01*
X153058534Y-56607510D01*
X153265466Y-56607510D01*
X153468414Y-56647879D01*
X153468414Y-56647879D01*
G37*
G36*
X158548414Y-56647879D02*
X158548416Y-56647880D01*
X158548417Y-56647880D01*
X158739594Y-56727068D01*
X158911651Y-56842033D01*
X159057967Y-56988349D01*
X159172932Y-57160406D01*
X159252121Y-57351586D01*
X159292490Y-57554534D01*
X159292490Y-57761466D01*
X159252121Y-57964414D01*
X159172932Y-58155594D01*
X159057967Y-58327651D01*
X158911651Y-58473967D01*
X158911648Y-58473969D01*
X158739594Y-58588932D01*
X158548417Y-58668120D01*
X158548416Y-58668120D01*
X158548414Y-58668121D01*
X158345466Y-58708490D01*
X158138534Y-58708490D01*
X157935586Y-58668121D01*
X157935584Y-58668120D01*
X157935583Y-58668120D01*
X157744406Y-58588932D01*
X157572352Y-58473969D01*
X157572349Y-58473967D01*
X157426033Y-58327651D01*
X157311068Y-58155594D01*
X157231879Y-57964414D01*
X157191510Y-57761466D01*
X157191510Y-57554534D01*
X157231879Y-57351586D01*
X157311068Y-57160406D01*
X157426033Y-56988349D01*
X157572349Y-56842033D01*
X157744406Y-56727068D01*
X157935583Y-56647880D01*
X157935584Y-56647880D01*
X157935586Y-56647879D01*
X158138534Y-56607510D01*
X158345466Y-56607510D01*
X158548414Y-56647879D01*
X158548414Y-56647879D01*
G37*
G36*
X114562812Y-56918624D02*
X114726784Y-56986544D01*
X114874354Y-57085147D01*
X114999853Y-57210646D01*
X115098456Y-57358216D01*
X115166376Y-57522188D01*
X115201000Y-57696259D01*
X115201000Y-57873741D01*
X115166376Y-58047812D01*
X115098456Y-58211784D01*
X114999853Y-58359354D01*
X114874354Y-58484853D01*
X114726784Y-58583456D01*
X114562812Y-58651376D01*
X114388741Y-58686000D01*
X114211259Y-58686000D01*
X114037188Y-58651376D01*
X113873216Y-58583456D01*
X113725646Y-58484853D01*
X113600147Y-58359354D01*
X113501544Y-58211784D01*
X113433624Y-58047812D01*
X113399000Y-57873741D01*
X113399000Y-57696259D01*
X113433624Y-57522188D01*
X113501544Y-57358216D01*
X113600147Y-57210646D01*
X113725646Y-57085147D01*
X113873216Y-56986544D01*
X114037188Y-56918624D01*
X114211259Y-56884000D01*
X114388741Y-56884000D01*
X114562812Y-56918624D01*
X114562812Y-56918624D01*
G37*
G36*
X117102812Y-56918624D02*
X117266784Y-56986544D01*
X117414354Y-57085147D01*
X117539853Y-57210646D01*
X117638456Y-57358216D01*
X117706376Y-57522188D01*
X117741000Y-57696259D01*
X117741000Y-57873741D01*
X117706376Y-58047812D01*
X117638456Y-58211784D01*
X117539853Y-58359354D01*
X117414354Y-58484853D01*
X117266784Y-58583456D01*
X117102812Y-58651376D01*
X116928741Y-58686000D01*
X116751259Y-58686000D01*
X116577188Y-58651376D01*
X116413216Y-58583456D01*
X116265646Y-58484853D01*
X116140147Y-58359354D01*
X116041544Y-58211784D01*
X115973624Y-58047812D01*
X115939000Y-57873741D01*
X115939000Y-57696259D01*
X115973624Y-57522188D01*
X116041544Y-57358216D01*
X116140147Y-57210646D01*
X116265646Y-57085147D01*
X116413216Y-56986544D01*
X116577188Y-56918624D01*
X116751259Y-56884000D01*
X116928741Y-56884000D01*
X117102812Y-56918624D01*
X117102812Y-56918624D01*
G37*
G36*
X141970016Y-55603358D02*
X141970019Y-55603359D01*
X141970018Y-55603359D01*
X142118521Y-55664870D01*
X142252170Y-55754172D01*
X142365828Y-55867830D01*
X142455130Y-56001479D01*
X142472517Y-56043456D01*
X142516642Y-56149984D01*
X142548000Y-56307630D01*
X142548000Y-56468370D01*
X142516642Y-56626016D01*
X142516641Y-56626018D01*
X142455130Y-56774521D01*
X142365828Y-56908170D01*
X142252170Y-57021828D01*
X142118521Y-57111130D01*
X141999556Y-57160406D01*
X141970016Y-57172642D01*
X141812370Y-57204000D01*
X141651630Y-57204000D01*
X141493984Y-57172642D01*
X141464444Y-57160406D01*
X141345479Y-57111130D01*
X141211830Y-57021828D01*
X141098172Y-56908170D01*
X141008870Y-56774521D01*
X140947359Y-56626018D01*
X140947358Y-56626016D01*
X140916000Y-56468370D01*
X140916000Y-56307630D01*
X140947358Y-56149984D01*
X140991483Y-56043456D01*
X141008870Y-56001479D01*
X141098172Y-55867830D01*
X141211830Y-55754172D01*
X141345479Y-55664870D01*
X141493982Y-55603359D01*
X141493981Y-55603359D01*
X141493984Y-55603358D01*
X141651630Y-55572000D01*
X141812370Y-55572000D01*
X141970016Y-55603358D01*
X141970016Y-55603358D01*
G37*
G36*
X126730016Y-55603358D02*
X126730019Y-55603359D01*
X126730018Y-55603359D01*
X126878521Y-55664870D01*
X127012170Y-55754172D01*
X127125828Y-55867830D01*
X127215130Y-56001479D01*
X127232517Y-56043456D01*
X127276642Y-56149984D01*
X127308000Y-56307630D01*
X127308000Y-56468370D01*
X127276642Y-56626016D01*
X127276641Y-56626018D01*
X127215130Y-56774521D01*
X127125828Y-56908170D01*
X127012170Y-57021828D01*
X126878521Y-57111130D01*
X126759556Y-57160406D01*
X126730016Y-57172642D01*
X126572370Y-57204000D01*
X126411630Y-57204000D01*
X126253984Y-57172642D01*
X126224444Y-57160406D01*
X126105479Y-57111130D01*
X125971830Y-57021828D01*
X125858172Y-56908170D01*
X125768870Y-56774521D01*
X125707359Y-56626018D01*
X125707358Y-56626016D01*
X125676000Y-56468370D01*
X125676000Y-56307630D01*
X125707358Y-56149984D01*
X125751483Y-56043456D01*
X125768870Y-56001479D01*
X125858172Y-55867830D01*
X125971830Y-55754172D01*
X126105479Y-55664870D01*
X126253982Y-55603359D01*
X126253981Y-55603359D01*
X126253984Y-55603358D01*
X126411630Y-55572000D01*
X126572370Y-55572000D01*
X126730016Y-55603358D01*
X126730016Y-55603358D01*
G37*
G36*
X117102812Y-54378624D02*
X117266784Y-54446544D01*
X117414354Y-54545147D01*
X117539853Y-54670646D01*
X117638456Y-54818216D01*
X117706376Y-54982188D01*
X117741000Y-55156259D01*
X117741000Y-55333741D01*
X117706376Y-55507812D01*
X117638456Y-55671784D01*
X117539853Y-55819354D01*
X117414354Y-55944853D01*
X117266784Y-56043456D01*
X117102812Y-56111376D01*
X116928741Y-56146000D01*
X116751259Y-56146000D01*
X116577188Y-56111376D01*
X116413216Y-56043456D01*
X116265646Y-55944853D01*
X116140147Y-55819354D01*
X116041544Y-55671784D01*
X115973624Y-55507812D01*
X115939000Y-55333741D01*
X115939000Y-55156259D01*
X115973624Y-54982188D01*
X116041544Y-54818216D01*
X116140147Y-54670646D01*
X116265646Y-54545147D01*
X116413216Y-54446544D01*
X116577188Y-54378624D01*
X116751259Y-54344000D01*
X116928741Y-54344000D01*
X117102812Y-54378624D01*
X117102812Y-54378624D01*
G37*
G36*
X114562812Y-54378624D02*
X114726784Y-54446544D01*
X114874354Y-54545147D01*
X114999853Y-54670646D01*
X115098456Y-54818216D01*
X115166376Y-54982188D01*
X115201000Y-55156259D01*
X115201000Y-55333741D01*
X115166376Y-55507812D01*
X115098456Y-55671784D01*
X114999853Y-55819354D01*
X114874354Y-55944853D01*
X114726784Y-56043456D01*
X114562812Y-56111376D01*
X114388741Y-56146000D01*
X114211259Y-56146000D01*
X114037188Y-56111376D01*
X113873216Y-56043456D01*
X113725646Y-55944853D01*
X113600147Y-55819354D01*
X113501544Y-55671784D01*
X113433624Y-55507812D01*
X113399000Y-55333741D01*
X113399000Y-55156259D01*
X113433624Y-54982188D01*
X113501544Y-54818216D01*
X113600147Y-54670646D01*
X113725646Y-54545147D01*
X113873216Y-54446544D01*
X114037188Y-54378624D01*
X114211259Y-54344000D01*
X114388741Y-54344000D01*
X114562812Y-54378624D01*
X114562812Y-54378624D01*
G37*
G36*
X141970016Y-53063358D02*
X141970019Y-53063359D01*
X141970018Y-53063359D01*
X142118521Y-53124870D01*
X142252170Y-53214172D01*
X142365828Y-53327830D01*
X142455130Y-53461479D01*
X142472517Y-53503456D01*
X142516642Y-53609984D01*
X142548000Y-53767630D01*
X142548000Y-53928370D01*
X142516642Y-54086016D01*
X142516641Y-54086018D01*
X142455130Y-54234521D01*
X142365828Y-54368170D01*
X142252170Y-54481828D01*
X142118521Y-54571130D01*
X141995497Y-54622087D01*
X141970016Y-54632642D01*
X141812370Y-54664000D01*
X141651630Y-54664000D01*
X141493984Y-54632642D01*
X141468503Y-54622087D01*
X141345479Y-54571130D01*
X141211830Y-54481828D01*
X141098172Y-54368170D01*
X141008870Y-54234521D01*
X140947359Y-54086018D01*
X140947358Y-54086016D01*
X140916000Y-53928370D01*
X140916000Y-53767630D01*
X140947358Y-53609984D01*
X140991483Y-53503456D01*
X141008870Y-53461479D01*
X141098172Y-53327830D01*
X141211830Y-53214172D01*
X141345479Y-53124870D01*
X141493982Y-53063359D01*
X141493981Y-53063359D01*
X141493984Y-53063358D01*
X141651630Y-53032000D01*
X141812370Y-53032000D01*
X141970016Y-53063358D01*
X141970016Y-53063358D01*
G37*
G36*
X126730016Y-53063358D02*
X126730019Y-53063359D01*
X126730018Y-53063359D01*
X126878521Y-53124870D01*
X127012170Y-53214172D01*
X127125828Y-53327830D01*
X127215130Y-53461479D01*
X127232517Y-53503456D01*
X127276642Y-53609984D01*
X127308000Y-53767630D01*
X127308000Y-53928370D01*
X127276642Y-54086016D01*
X127276641Y-54086018D01*
X127215130Y-54234521D01*
X127125828Y-54368170D01*
X127012170Y-54481828D01*
X126878521Y-54571130D01*
X126755497Y-54622087D01*
X126730016Y-54632642D01*
X126572370Y-54664000D01*
X126411630Y-54664000D01*
X126253984Y-54632642D01*
X126228503Y-54622087D01*
X126105479Y-54571130D01*
X125971830Y-54481828D01*
X125858172Y-54368170D01*
X125768870Y-54234521D01*
X125707359Y-54086018D01*
X125707358Y-54086016D01*
X125676000Y-53928370D01*
X125676000Y-53767630D01*
X125707358Y-53609984D01*
X125751483Y-53503456D01*
X125768870Y-53461479D01*
X125858172Y-53327830D01*
X125971830Y-53214172D01*
X126105479Y-53124870D01*
X126253982Y-53063359D01*
X126253981Y-53063359D01*
X126253984Y-53063358D01*
X126411630Y-53032000D01*
X126572370Y-53032000D01*
X126730016Y-53063358D01*
X126730016Y-53063358D01*
G37*
G36*
X148388414Y-51567879D02*
X148388416Y-51567880D01*
X148388417Y-51567880D01*
X148579594Y-51647068D01*
X148751651Y-51762033D01*
X148897967Y-51908349D01*
X149012932Y-52080406D01*
X149092121Y-52271586D01*
X149132490Y-52474534D01*
X149132490Y-52681466D01*
X149092121Y-52884414D01*
X149012932Y-53075594D01*
X148897967Y-53247651D01*
X148751651Y-53393967D01*
X148751648Y-53393969D01*
X148579594Y-53508932D01*
X148388417Y-53588120D01*
X148388416Y-53588120D01*
X148388414Y-53588121D01*
X148185466Y-53628490D01*
X147978534Y-53628490D01*
X147775586Y-53588121D01*
X147775584Y-53588120D01*
X147775583Y-53588120D01*
X147584406Y-53508932D01*
X147412352Y-53393969D01*
X147412349Y-53393967D01*
X147266033Y-53247651D01*
X147151068Y-53075594D01*
X147071879Y-52884414D01*
X147031510Y-52681466D01*
X147031510Y-52474534D01*
X147071879Y-52271586D01*
X147151068Y-52080406D01*
X147266033Y-51908349D01*
X147412349Y-51762033D01*
X147584406Y-51647068D01*
X147775583Y-51567880D01*
X147775584Y-51567880D01*
X147775586Y-51567879D01*
X147978534Y-51527510D01*
X148185466Y-51527510D01*
X148388414Y-51567879D01*
X148388414Y-51567879D01*
G37*
G36*
X153468414Y-51567879D02*
X153468416Y-51567880D01*
X153468417Y-51567880D01*
X153659594Y-51647068D01*
X153831651Y-51762033D01*
X153977967Y-51908349D01*
X154092932Y-52080406D01*
X154172121Y-52271586D01*
X154212490Y-52474534D01*
X154212490Y-52681466D01*
X154172121Y-52884414D01*
X154092932Y-53075594D01*
X153977967Y-53247651D01*
X153831651Y-53393967D01*
X153831648Y-53393969D01*
X153659594Y-53508932D01*
X153468417Y-53588120D01*
X153468416Y-53588120D01*
X153468414Y-53588121D01*
X153265466Y-53628490D01*
X153058534Y-53628490D01*
X152855586Y-53588121D01*
X152855584Y-53588120D01*
X152855583Y-53588120D01*
X152664406Y-53508932D01*
X152492352Y-53393969D01*
X152492349Y-53393967D01*
X152346033Y-53247651D01*
X152231068Y-53075594D01*
X152151879Y-52884414D01*
X152111510Y-52681466D01*
X152111510Y-52474534D01*
X152151879Y-52271586D01*
X152231068Y-52080406D01*
X152346033Y-51908349D01*
X152492349Y-51762033D01*
X152664406Y-51647068D01*
X152855583Y-51567880D01*
X152855584Y-51567880D01*
X152855586Y-51567879D01*
X153058534Y-51527510D01*
X153265466Y-51527510D01*
X153468414Y-51567879D01*
X153468414Y-51567879D01*
G37*
G36*
X158548414Y-51567879D02*
X158548416Y-51567880D01*
X158548417Y-51567880D01*
X158739594Y-51647068D01*
X158911651Y-51762033D01*
X159057967Y-51908349D01*
X159172932Y-52080406D01*
X159252121Y-52271586D01*
X159292490Y-52474534D01*
X159292490Y-52681466D01*
X159252121Y-52884414D01*
X159172932Y-53075594D01*
X159057967Y-53247651D01*
X158911651Y-53393967D01*
X158911648Y-53393969D01*
X158739594Y-53508932D01*
X158548417Y-53588120D01*
X158548416Y-53588120D01*
X158548414Y-53588121D01*
X158345466Y-53628490D01*
X158138534Y-53628490D01*
X157935586Y-53588121D01*
X157935584Y-53588120D01*
X157935583Y-53588120D01*
X157744406Y-53508932D01*
X157572352Y-53393969D01*
X157572349Y-53393967D01*
X157426033Y-53247651D01*
X157311068Y-53075594D01*
X157231879Y-52884414D01*
X157191510Y-52681466D01*
X157191510Y-52474534D01*
X157231879Y-52271586D01*
X157311068Y-52080406D01*
X157426033Y-51908349D01*
X157572349Y-51762033D01*
X157744406Y-51647068D01*
X157935583Y-51567880D01*
X157935584Y-51567880D01*
X157935586Y-51567879D01*
X158138534Y-51527510D01*
X158345466Y-51527510D01*
X158548414Y-51567879D01*
X158548414Y-51567879D01*
G37*
G36*
X114562812Y-51838624D02*
X114726784Y-51906544D01*
X114874354Y-52005147D01*
X114999853Y-52130646D01*
X115098456Y-52278216D01*
X115166376Y-52442188D01*
X115201000Y-52616259D01*
X115201000Y-52793741D01*
X115166376Y-52967812D01*
X115098456Y-53131784D01*
X114999853Y-53279354D01*
X114874354Y-53404853D01*
X114726784Y-53503456D01*
X114562812Y-53571376D01*
X114388741Y-53606000D01*
X114211259Y-53606000D01*
X114037188Y-53571376D01*
X113873216Y-53503456D01*
X113725646Y-53404853D01*
X113600147Y-53279354D01*
X113501544Y-53131784D01*
X113433624Y-52967812D01*
X113399000Y-52793741D01*
X113399000Y-52616259D01*
X113433624Y-52442188D01*
X113501544Y-52278216D01*
X113600147Y-52130646D01*
X113725646Y-52005147D01*
X113873216Y-51906544D01*
X114037188Y-51838624D01*
X114211259Y-51804000D01*
X114388741Y-51804000D01*
X114562812Y-51838624D01*
X114562812Y-51838624D01*
G37*
G36*
X117102812Y-51838624D02*
X117266784Y-51906544D01*
X117414354Y-52005147D01*
X117539853Y-52130646D01*
X117638456Y-52278216D01*
X117706376Y-52442188D01*
X117741000Y-52616259D01*
X117741000Y-52793741D01*
X117706376Y-52967812D01*
X117638456Y-53131784D01*
X117539853Y-53279354D01*
X117414354Y-53404853D01*
X117266784Y-53503456D01*
X117102812Y-53571376D01*
X116928741Y-53606000D01*
X116751259Y-53606000D01*
X116577188Y-53571376D01*
X116413216Y-53503456D01*
X116265646Y-53404853D01*
X116140147Y-53279354D01*
X116041544Y-53131784D01*
X115973624Y-52967812D01*
X115939000Y-52793741D01*
X115939000Y-52616259D01*
X115973624Y-52442188D01*
X116041544Y-52278216D01*
X116140147Y-52130646D01*
X116265646Y-52005147D01*
X116413216Y-51906544D01*
X116577188Y-51838624D01*
X116751259Y-51804000D01*
X116928741Y-51804000D01*
X117102812Y-51838624D01*
X117102812Y-51838624D01*
G37*
G36*
X126730016Y-50523358D02*
X126730019Y-50523359D01*
X126730018Y-50523359D01*
X126878521Y-50584870D01*
X127012170Y-50674172D01*
X127125828Y-50787830D01*
X127215130Y-50921479D01*
X127232517Y-50963456D01*
X127276642Y-51069984D01*
X127308000Y-51227630D01*
X127308000Y-51388370D01*
X127276642Y-51546016D01*
X127276641Y-51546018D01*
X127215130Y-51694521D01*
X127125828Y-51828170D01*
X127012170Y-51941828D01*
X126878521Y-52031130D01*
X126759556Y-52080406D01*
X126730016Y-52092642D01*
X126572370Y-52124000D01*
X126411630Y-52124000D01*
X126253984Y-52092642D01*
X126224444Y-52080406D01*
X126105479Y-52031130D01*
X125971830Y-51941828D01*
X125858172Y-51828170D01*
X125768870Y-51694521D01*
X125707359Y-51546018D01*
X125707358Y-51546016D01*
X125676000Y-51388370D01*
X125676000Y-51227630D01*
X125707358Y-51069984D01*
X125751483Y-50963456D01*
X125768870Y-50921479D01*
X125858172Y-50787830D01*
X125971830Y-50674172D01*
X126105479Y-50584870D01*
X126253982Y-50523359D01*
X126253981Y-50523359D01*
X126253984Y-50523358D01*
X126411630Y-50492000D01*
X126572370Y-50492000D01*
X126730016Y-50523358D01*
X126730016Y-50523358D01*
G37*
G36*
X141970016Y-50523358D02*
X141970019Y-50523359D01*
X141970018Y-50523359D01*
X142118521Y-50584870D01*
X142252170Y-50674172D01*
X142365828Y-50787830D01*
X142455130Y-50921479D01*
X142472517Y-50963456D01*
X142516642Y-51069984D01*
X142548000Y-51227630D01*
X142548000Y-51388370D01*
X142516642Y-51546016D01*
X142516641Y-51546018D01*
X142455130Y-51694521D01*
X142365828Y-51828170D01*
X142252170Y-51941828D01*
X142118521Y-52031130D01*
X141999556Y-52080406D01*
X141970016Y-52092642D01*
X141812370Y-52124000D01*
X141651630Y-52124000D01*
X141493984Y-52092642D01*
X141464444Y-52080406D01*
X141345479Y-52031130D01*
X141211830Y-51941828D01*
X141098172Y-51828170D01*
X141008870Y-51694521D01*
X140947359Y-51546018D01*
X140947358Y-51546016D01*
X140916000Y-51388370D01*
X140916000Y-51227630D01*
X140947358Y-51069984D01*
X140991483Y-50963456D01*
X141008870Y-50921479D01*
X141098172Y-50787830D01*
X141211830Y-50674172D01*
X141345479Y-50584870D01*
X141493982Y-50523359D01*
X141493981Y-50523359D01*
X141493984Y-50523358D01*
X141651630Y-50492000D01*
X141812370Y-50492000D01*
X141970016Y-50523358D01*
X141970016Y-50523358D01*
G37*
G36*
X114562812Y-49298624D02*
X114726784Y-49366544D01*
X114874354Y-49465147D01*
X114999853Y-49590646D01*
X115098456Y-49738216D01*
X115166376Y-49902188D01*
X115201000Y-50076259D01*
X115201000Y-50253741D01*
X115166376Y-50427812D01*
X115098456Y-50591784D01*
X114999853Y-50739354D01*
X114874354Y-50864853D01*
X114726784Y-50963456D01*
X114562812Y-51031376D01*
X114388741Y-51066000D01*
X114211259Y-51066000D01*
X114037188Y-51031376D01*
X113873216Y-50963456D01*
X113725646Y-50864853D01*
X113600147Y-50739354D01*
X113501544Y-50591784D01*
X113433624Y-50427812D01*
X113399000Y-50253741D01*
X113399000Y-50076259D01*
X113433624Y-49902188D01*
X113501544Y-49738216D01*
X113600147Y-49590646D01*
X113725646Y-49465147D01*
X113873216Y-49366544D01*
X114037188Y-49298624D01*
X114211259Y-49264000D01*
X114388741Y-49264000D01*
X114562812Y-49298624D01*
X114562812Y-49298624D01*
G37*
G36*
X117102812Y-49298624D02*
X117266784Y-49366544D01*
X117414354Y-49465147D01*
X117539853Y-49590646D01*
X117638456Y-49738216D01*
X117706376Y-49902188D01*
X117741000Y-50076259D01*
X117741000Y-50253741D01*
X117706376Y-50427812D01*
X117638456Y-50591784D01*
X117539853Y-50739354D01*
X117414354Y-50864853D01*
X117266784Y-50963456D01*
X117102812Y-51031376D01*
X116928741Y-51066000D01*
X116751259Y-51066000D01*
X116577188Y-51031376D01*
X116413216Y-50963456D01*
X116265646Y-50864853D01*
X116140147Y-50739354D01*
X116041544Y-50591784D01*
X115973624Y-50427812D01*
X115939000Y-50253741D01*
X115939000Y-50076259D01*
X115973624Y-49902188D01*
X116041544Y-49738216D01*
X116140147Y-49590646D01*
X116265646Y-49465147D01*
X116413216Y-49366544D01*
X116577188Y-49298624D01*
X116751259Y-49264000D01*
X116928741Y-49264000D01*
X117102812Y-49298624D01*
X117102812Y-49298624D01*
G37*
G36*
X141970016Y-47983358D02*
X141970019Y-47983359D01*
X141970018Y-47983359D01*
X142118521Y-48044870D01*
X142252170Y-48134172D01*
X142365828Y-48247830D01*
X142455130Y-48381479D01*
X142472517Y-48423456D01*
X142516642Y-48529984D01*
X142548000Y-48687630D01*
X142548000Y-48848370D01*
X142516642Y-49006016D01*
X142516641Y-49006018D01*
X142455130Y-49154521D01*
X142365828Y-49288170D01*
X142252170Y-49401828D01*
X142118521Y-49491130D01*
X141995497Y-49542087D01*
X141970016Y-49552642D01*
X141812370Y-49584000D01*
X141651630Y-49584000D01*
X141493984Y-49552642D01*
X141468503Y-49542087D01*
X141345479Y-49491130D01*
X141211830Y-49401828D01*
X141098172Y-49288170D01*
X141008870Y-49154521D01*
X140947359Y-49006018D01*
X140947358Y-49006016D01*
X140916000Y-48848370D01*
X140916000Y-48687630D01*
X140947358Y-48529984D01*
X140991483Y-48423456D01*
X141008870Y-48381479D01*
X141098172Y-48247830D01*
X141211830Y-48134172D01*
X141345479Y-48044870D01*
X141493982Y-47983359D01*
X141493981Y-47983359D01*
X141493984Y-47983358D01*
X141651630Y-47952000D01*
X141812370Y-47952000D01*
X141970016Y-47983358D01*
X141970016Y-47983358D01*
G37*
G36*
X126730016Y-47983358D02*
X126730019Y-47983359D01*
X126730018Y-47983359D01*
X126878521Y-48044870D01*
X127012170Y-48134172D01*
X127125828Y-48247830D01*
X127215130Y-48381479D01*
X127232517Y-48423456D01*
X127276642Y-48529984D01*
X127308000Y-48687630D01*
X127308000Y-48848370D01*
X127276642Y-49006016D01*
X127276641Y-49006018D01*
X127215130Y-49154521D01*
X127125828Y-49288170D01*
X127012170Y-49401828D01*
X126878521Y-49491130D01*
X126755497Y-49542087D01*
X126730016Y-49552642D01*
X126572370Y-49584000D01*
X126411630Y-49584000D01*
X126253984Y-49552642D01*
X126228503Y-49542087D01*
X126105479Y-49491130D01*
X125971830Y-49401828D01*
X125858172Y-49288170D01*
X125768870Y-49154521D01*
X125707359Y-49006018D01*
X125707358Y-49006016D01*
X125676000Y-48848370D01*
X125676000Y-48687630D01*
X125707358Y-48529984D01*
X125751483Y-48423456D01*
X125768870Y-48381479D01*
X125858172Y-48247830D01*
X125971830Y-48134172D01*
X126105479Y-48044870D01*
X126253982Y-47983359D01*
X126253981Y-47983359D01*
X126253984Y-47983358D01*
X126411630Y-47952000D01*
X126572370Y-47952000D01*
X126730016Y-47983358D01*
X126730016Y-47983358D01*
G37*
G36*
X148388414Y-46487879D02*
X148388416Y-46487880D01*
X148388417Y-46487880D01*
X148579594Y-46567068D01*
X148751651Y-46682033D01*
X148897967Y-46828349D01*
X149012932Y-47000406D01*
X149092121Y-47191586D01*
X149132490Y-47394534D01*
X149132490Y-47601466D01*
X149092121Y-47804414D01*
X149012932Y-47995594D01*
X148897967Y-48167651D01*
X148751651Y-48313967D01*
X148751648Y-48313969D01*
X148579594Y-48428932D01*
X148388417Y-48508120D01*
X148388416Y-48508120D01*
X148388414Y-48508121D01*
X148185466Y-48548490D01*
X147978534Y-48548490D01*
X147775586Y-48508121D01*
X147775584Y-48508120D01*
X147775583Y-48508120D01*
X147584406Y-48428932D01*
X147412352Y-48313969D01*
X147412349Y-48313967D01*
X147266033Y-48167651D01*
X147151068Y-47995594D01*
X147071879Y-47804414D01*
X147031510Y-47601466D01*
X147031510Y-47394534D01*
X147071879Y-47191586D01*
X147151068Y-47000406D01*
X147266033Y-46828349D01*
X147412349Y-46682033D01*
X147584406Y-46567068D01*
X147775583Y-46487880D01*
X147775584Y-46487880D01*
X147775586Y-46487879D01*
X147978534Y-46447510D01*
X148185466Y-46447510D01*
X148388414Y-46487879D01*
X148388414Y-46487879D01*
G37*
G36*
X153468414Y-46487879D02*
X153468416Y-46487880D01*
X153468417Y-46487880D01*
X153659594Y-46567068D01*
X153831651Y-46682033D01*
X153977967Y-46828349D01*
X154092932Y-47000406D01*
X154172121Y-47191586D01*
X154212490Y-47394534D01*
X154212490Y-47601466D01*
X154172121Y-47804414D01*
X154092932Y-47995594D01*
X153977967Y-48167651D01*
X153831651Y-48313967D01*
X153831648Y-48313969D01*
X153659594Y-48428932D01*
X153468417Y-48508120D01*
X153468416Y-48508120D01*
X153468414Y-48508121D01*
X153265466Y-48548490D01*
X153058534Y-48548490D01*
X152855586Y-48508121D01*
X152855584Y-48508120D01*
X152855583Y-48508120D01*
X152664406Y-48428932D01*
X152492352Y-48313969D01*
X152492349Y-48313967D01*
X152346033Y-48167651D01*
X152231068Y-47995594D01*
X152151879Y-47804414D01*
X152111510Y-47601466D01*
X152111510Y-47394534D01*
X152151879Y-47191586D01*
X152231068Y-47000406D01*
X152346033Y-46828349D01*
X152492349Y-46682033D01*
X152664406Y-46567068D01*
X152855583Y-46487880D01*
X152855584Y-46487880D01*
X152855586Y-46487879D01*
X153058534Y-46447510D01*
X153265466Y-46447510D01*
X153468414Y-46487879D01*
X153468414Y-46487879D01*
G37*
G36*
X158548414Y-46487879D02*
X158548416Y-46487880D01*
X158548417Y-46487880D01*
X158739594Y-46567068D01*
X158911651Y-46682033D01*
X159057967Y-46828349D01*
X159172932Y-47000406D01*
X159252121Y-47191586D01*
X159292490Y-47394534D01*
X159292490Y-47601466D01*
X159252121Y-47804414D01*
X159172932Y-47995594D01*
X159057967Y-48167651D01*
X158911651Y-48313967D01*
X158911648Y-48313969D01*
X158739594Y-48428932D01*
X158548417Y-48508120D01*
X158548416Y-48508120D01*
X158548414Y-48508121D01*
X158345466Y-48548490D01*
X158138534Y-48548490D01*
X157935586Y-48508121D01*
X157935584Y-48508120D01*
X157935583Y-48508120D01*
X157744406Y-48428932D01*
X157572352Y-48313969D01*
X157572349Y-48313967D01*
X157426033Y-48167651D01*
X157311068Y-47995594D01*
X157231879Y-47804414D01*
X157191510Y-47601466D01*
X157191510Y-47394534D01*
X157231879Y-47191586D01*
X157311068Y-47000406D01*
X157426033Y-46828349D01*
X157572349Y-46682033D01*
X157744406Y-46567068D01*
X157935583Y-46487880D01*
X157935584Y-46487880D01*
X157935586Y-46487879D01*
X158138534Y-46447510D01*
X158345466Y-46447510D01*
X158548414Y-46487879D01*
X158548414Y-46487879D01*
G37*
G36*
X114562812Y-46758624D02*
X114726784Y-46826544D01*
X114874354Y-46925147D01*
X114999853Y-47050646D01*
X115098456Y-47198216D01*
X115166376Y-47362188D01*
X115201000Y-47536259D01*
X115201000Y-47713741D01*
X115166376Y-47887812D01*
X115098456Y-48051784D01*
X114999853Y-48199354D01*
X114874354Y-48324853D01*
X114726784Y-48423456D01*
X114562812Y-48491376D01*
X114388741Y-48526000D01*
X114211259Y-48526000D01*
X114037188Y-48491376D01*
X113873216Y-48423456D01*
X113725646Y-48324853D01*
X113600147Y-48199354D01*
X113501544Y-48051784D01*
X113433624Y-47887812D01*
X113399000Y-47713741D01*
X113399000Y-47536259D01*
X113433624Y-47362188D01*
X113501544Y-47198216D01*
X113600147Y-47050646D01*
X113725646Y-46925147D01*
X113873216Y-46826544D01*
X114037188Y-46758624D01*
X114211259Y-46724000D01*
X114388741Y-46724000D01*
X114562812Y-46758624D01*
X114562812Y-46758624D01*
G37*
G36*
X117102812Y-46758624D02*
X117266784Y-46826544D01*
X117414354Y-46925147D01*
X117539853Y-47050646D01*
X117638456Y-47198216D01*
X117706376Y-47362188D01*
X117741000Y-47536259D01*
X117741000Y-47713741D01*
X117706376Y-47887812D01*
X117638456Y-48051784D01*
X117539853Y-48199354D01*
X117414354Y-48324853D01*
X117266784Y-48423456D01*
X117102812Y-48491376D01*
X116928741Y-48526000D01*
X116751259Y-48526000D01*
X116577188Y-48491376D01*
X116413216Y-48423456D01*
X116265646Y-48324853D01*
X116140147Y-48199354D01*
X116041544Y-48051784D01*
X115973624Y-47887812D01*
X115939000Y-47713741D01*
X115939000Y-47536259D01*
X115973624Y-47362188D01*
X116041544Y-47198216D01*
X116140147Y-47050646D01*
X116265646Y-46925147D01*
X116413216Y-46826544D01*
X116577188Y-46758624D01*
X116751259Y-46724000D01*
X116928741Y-46724000D01*
X117102812Y-46758624D01*
X117102812Y-46758624D01*
G37*
G36*
X141970016Y-45443358D02*
X141970019Y-45443359D01*
X141970018Y-45443359D01*
X142118521Y-45504870D01*
X142252170Y-45594172D01*
X142365828Y-45707830D01*
X142455130Y-45841479D01*
X142506087Y-45964503D01*
X142516642Y-45989984D01*
X142548000Y-46147630D01*
X142548000Y-46308370D01*
X142516642Y-46466016D01*
X142516641Y-46466018D01*
X142455130Y-46614521D01*
X142365828Y-46748170D01*
X142252170Y-46861828D01*
X142118521Y-46951130D01*
X141999556Y-47000406D01*
X141970016Y-47012642D01*
X141812370Y-47044000D01*
X141651630Y-47044000D01*
X141493984Y-47012642D01*
X141464444Y-47000406D01*
X141345479Y-46951130D01*
X141211830Y-46861828D01*
X141098172Y-46748170D01*
X141008870Y-46614521D01*
X140947359Y-46466018D01*
X140947358Y-46466016D01*
X140916000Y-46308370D01*
X140916000Y-46147630D01*
X140947358Y-45989984D01*
X140957913Y-45964503D01*
X141008870Y-45841479D01*
X141098172Y-45707830D01*
X141211830Y-45594172D01*
X141345479Y-45504870D01*
X141493982Y-45443359D01*
X141493981Y-45443359D01*
X141493984Y-45443358D01*
X141651630Y-45412000D01*
X141812370Y-45412000D01*
X141970016Y-45443358D01*
X141970016Y-45443358D01*
G37*
G36*
X126730016Y-45443358D02*
X126730019Y-45443359D01*
X126730018Y-45443359D01*
X126878521Y-45504870D01*
X127012170Y-45594172D01*
X127125828Y-45707830D01*
X127215130Y-45841479D01*
X127266087Y-45964503D01*
X127276642Y-45989984D01*
X127308000Y-46147630D01*
X127308000Y-46308370D01*
X127276642Y-46466016D01*
X127276641Y-46466018D01*
X127215130Y-46614521D01*
X127125828Y-46748170D01*
X127012170Y-46861828D01*
X126878521Y-46951130D01*
X126759556Y-47000406D01*
X126730016Y-47012642D01*
X126572370Y-47044000D01*
X126411630Y-47044000D01*
X126253984Y-47012642D01*
X126224444Y-47000406D01*
X126105479Y-46951130D01*
X125971830Y-46861828D01*
X125858172Y-46748170D01*
X125768870Y-46614521D01*
X125707359Y-46466018D01*
X125707358Y-46466016D01*
X125676000Y-46308370D01*
X125676000Y-46147630D01*
X125707358Y-45989984D01*
X125717913Y-45964503D01*
X125768870Y-45841479D01*
X125858172Y-45707830D01*
X125971830Y-45594172D01*
X126105479Y-45504870D01*
X126253982Y-45443359D01*
X126253981Y-45443359D01*
X126253984Y-45443358D01*
X126411630Y-45412000D01*
X126572370Y-45412000D01*
X126730016Y-45443358D01*
X126730016Y-45443358D01*
G37*
G36*
X141970016Y-42903358D02*
X141970019Y-42903359D01*
X141970018Y-42903359D01*
X142118521Y-42964870D01*
X142252170Y-43054172D01*
X142365828Y-43167830D01*
X142455130Y-43301479D01*
X142474785Y-43348932D01*
X142516642Y-43449984D01*
X142548000Y-43607630D01*
X142548000Y-43768370D01*
X142516642Y-43926016D01*
X142516641Y-43926018D01*
X142455130Y-44074521D01*
X142365828Y-44208170D01*
X142252170Y-44321828D01*
X142118521Y-44411130D01*
X141995497Y-44462087D01*
X141970016Y-44472642D01*
X141812370Y-44504000D01*
X141651630Y-44504000D01*
X141493984Y-44472642D01*
X141468503Y-44462087D01*
X141345479Y-44411130D01*
X141211830Y-44321828D01*
X141098172Y-44208170D01*
X141008870Y-44074521D01*
X140947359Y-43926018D01*
X140947358Y-43926016D01*
X140916000Y-43768370D01*
X140916000Y-43607630D01*
X140947358Y-43449984D01*
X140989215Y-43348932D01*
X141008870Y-43301479D01*
X141098172Y-43167830D01*
X141211830Y-43054172D01*
X141345479Y-42964870D01*
X141493982Y-42903359D01*
X141493981Y-42903359D01*
X141493984Y-42903358D01*
X141651630Y-42872000D01*
X141812370Y-42872000D01*
X141970016Y-42903358D01*
X141970016Y-42903358D01*
G37*
G36*
X126730016Y-42903358D02*
X126730019Y-42903359D01*
X126730018Y-42903359D01*
X126878521Y-42964870D01*
X127012170Y-43054172D01*
X127125828Y-43167830D01*
X127215130Y-43301479D01*
X127234785Y-43348932D01*
X127276642Y-43449984D01*
X127308000Y-43607630D01*
X127308000Y-43768370D01*
X127276642Y-43926016D01*
X127276641Y-43926018D01*
X127215130Y-44074521D01*
X127125828Y-44208170D01*
X127012170Y-44321828D01*
X126878521Y-44411130D01*
X126755497Y-44462087D01*
X126730016Y-44472642D01*
X126572370Y-44504000D01*
X126411630Y-44504000D01*
X126253984Y-44472642D01*
X126228503Y-44462087D01*
X126105479Y-44411130D01*
X125971830Y-44321828D01*
X125858172Y-44208170D01*
X125768870Y-44074521D01*
X125707359Y-43926018D01*
X125707358Y-43926016D01*
X125676000Y-43768370D01*
X125676000Y-43607630D01*
X125707358Y-43449984D01*
X125749215Y-43348932D01*
X125768870Y-43301479D01*
X125858172Y-43167830D01*
X125971830Y-43054172D01*
X126105479Y-42964870D01*
X126253982Y-42903359D01*
X126253981Y-42903359D01*
X126253984Y-42903358D01*
X126411630Y-42872000D01*
X126572370Y-42872000D01*
X126730016Y-42903358D01*
X126730016Y-42903358D01*
G37*
G36*
X158548414Y-41407879D02*
X158548416Y-41407880D01*
X158548417Y-41407880D01*
X158739594Y-41487068D01*
X158911651Y-41602033D01*
X159057967Y-41748349D01*
X159172932Y-41920406D01*
X159252121Y-42111586D01*
X159292490Y-42314534D01*
X159292490Y-42521466D01*
X159252121Y-42724414D01*
X159172932Y-42915594D01*
X159057967Y-43087651D01*
X158911651Y-43233967D01*
X158911648Y-43233969D01*
X158739594Y-43348932D01*
X158548417Y-43428120D01*
X158548416Y-43428120D01*
X158548414Y-43428121D01*
X158345466Y-43468490D01*
X158138534Y-43468490D01*
X157935586Y-43428121D01*
X157935584Y-43428120D01*
X157935583Y-43428120D01*
X157744406Y-43348932D01*
X157572352Y-43233969D01*
X157572349Y-43233967D01*
X157426033Y-43087651D01*
X157311068Y-42915594D01*
X157231879Y-42724414D01*
X157191510Y-42521466D01*
X157191510Y-42314534D01*
X157231879Y-42111586D01*
X157311068Y-41920406D01*
X157426033Y-41748349D01*
X157572349Y-41602033D01*
X157744406Y-41487068D01*
X157935583Y-41407880D01*
X157935584Y-41407880D01*
X157935586Y-41407879D01*
X158138534Y-41367510D01*
X158345466Y-41367510D01*
X158548414Y-41407879D01*
X158548414Y-41407879D01*
G37*
G36*
X153468414Y-41407879D02*
X153468416Y-41407880D01*
X153468417Y-41407880D01*
X153659594Y-41487068D01*
X153831651Y-41602033D01*
X153977967Y-41748349D01*
X154092932Y-41920406D01*
X154172121Y-42111586D01*
X154212490Y-42314534D01*
X154212490Y-42521466D01*
X154172121Y-42724414D01*
X154092932Y-42915594D01*
X153977967Y-43087651D01*
X153831651Y-43233967D01*
X153831648Y-43233969D01*
X153659594Y-43348932D01*
X153468417Y-43428120D01*
X153468416Y-43428120D01*
X153468414Y-43428121D01*
X153265466Y-43468490D01*
X153058534Y-43468490D01*
X152855586Y-43428121D01*
X152855584Y-43428120D01*
X152855583Y-43428120D01*
X152664406Y-43348932D01*
X152492352Y-43233969D01*
X152492349Y-43233967D01*
X152346033Y-43087651D01*
X152231068Y-42915594D01*
X152151879Y-42724414D01*
X152111510Y-42521466D01*
X152111510Y-42314534D01*
X152151879Y-42111586D01*
X152231068Y-41920406D01*
X152346033Y-41748349D01*
X152492349Y-41602033D01*
X152664406Y-41487068D01*
X152855583Y-41407880D01*
X152855584Y-41407880D01*
X152855586Y-41407879D01*
X153058534Y-41367510D01*
X153265466Y-41367510D01*
X153468414Y-41407879D01*
X153468414Y-41407879D01*
G37*
G36*
X148388414Y-41407879D02*
X148388416Y-41407880D01*
X148388417Y-41407880D01*
X148579594Y-41487068D01*
X148751651Y-41602033D01*
X148897967Y-41748349D01*
X149012932Y-41920406D01*
X149092121Y-42111586D01*
X149132490Y-42314534D01*
X149132490Y-42521466D01*
X149092121Y-42724414D01*
X149012932Y-42915594D01*
X148897967Y-43087651D01*
X148751651Y-43233967D01*
X148751648Y-43233969D01*
X148579594Y-43348932D01*
X148388417Y-43428120D01*
X148388416Y-43428120D01*
X148388414Y-43428121D01*
X148185466Y-43468490D01*
X147978534Y-43468490D01*
X147775586Y-43428121D01*
X147775584Y-43428120D01*
X147775583Y-43428120D01*
X147584406Y-43348932D01*
X147412352Y-43233969D01*
X147412349Y-43233967D01*
X147266033Y-43087651D01*
X147151068Y-42915594D01*
X147071879Y-42724414D01*
X147031510Y-42521466D01*
X147031510Y-42314534D01*
X147071879Y-42111586D01*
X147151068Y-41920406D01*
X147266033Y-41748349D01*
X147412349Y-41602033D01*
X147584406Y-41487068D01*
X147775583Y-41407880D01*
X147775584Y-41407880D01*
X147775586Y-41407879D01*
X147978534Y-41367510D01*
X148185466Y-41367510D01*
X148388414Y-41407879D01*
X148388414Y-41407879D01*
G37*
G36*
X141970016Y-40363358D02*
X141970019Y-40363359D01*
X141970018Y-40363359D01*
X142118521Y-40424870D01*
X142252170Y-40514172D01*
X142365828Y-40627830D01*
X142455130Y-40761479D01*
X142506087Y-40884503D01*
X142516642Y-40909984D01*
X142548000Y-41067630D01*
X142548000Y-41228370D01*
X142516642Y-41386016D01*
X142516641Y-41386018D01*
X142455130Y-41534521D01*
X142365828Y-41668170D01*
X142252170Y-41781828D01*
X142118521Y-41871130D01*
X141999556Y-41920406D01*
X141970016Y-41932642D01*
X141812370Y-41964000D01*
X141651630Y-41964000D01*
X141493984Y-41932642D01*
X141464444Y-41920406D01*
X141345479Y-41871130D01*
X141211830Y-41781828D01*
X141098172Y-41668170D01*
X141008870Y-41534521D01*
X140947359Y-41386018D01*
X140947358Y-41386016D01*
X140916000Y-41228370D01*
X140916000Y-41067630D01*
X140947358Y-40909984D01*
X140957913Y-40884503D01*
X141008870Y-40761479D01*
X141098172Y-40627830D01*
X141211830Y-40514172D01*
X141345479Y-40424870D01*
X141493982Y-40363359D01*
X141493981Y-40363359D01*
X141493984Y-40363358D01*
X141651630Y-40332000D01*
X141812370Y-40332000D01*
X141970016Y-40363358D01*
X141970016Y-40363358D01*
G37*
G36*
X126730016Y-40363358D02*
X126730019Y-40363359D01*
X126730018Y-40363359D01*
X126878521Y-40424870D01*
X127012170Y-40514172D01*
X127125828Y-40627830D01*
X127215130Y-40761479D01*
X127266087Y-40884503D01*
X127276642Y-40909984D01*
X127308000Y-41067630D01*
X127308000Y-41228370D01*
X127276642Y-41386016D01*
X127276641Y-41386018D01*
X127215130Y-41534521D01*
X127125828Y-41668170D01*
X127012170Y-41781828D01*
X126878521Y-41871130D01*
X126759556Y-41920406D01*
X126730016Y-41932642D01*
X126572370Y-41964000D01*
X126411630Y-41964000D01*
X126253984Y-41932642D01*
X126224444Y-41920406D01*
X126105479Y-41871130D01*
X125971830Y-41781828D01*
X125858172Y-41668170D01*
X125768870Y-41534521D01*
X125707359Y-41386018D01*
X125707358Y-41386016D01*
X125676000Y-41228370D01*
X125676000Y-41067630D01*
X125707358Y-40909984D01*
X125717913Y-40884503D01*
X125768870Y-40761479D01*
X125858172Y-40627830D01*
X125971830Y-40514172D01*
X126105479Y-40424870D01*
X126253982Y-40363359D01*
X126253981Y-40363359D01*
X126253984Y-40363358D01*
X126411630Y-40332000D01*
X126572370Y-40332000D01*
X126730016Y-40363358D01*
X126730016Y-40363358D01*
G37*
G36*
X141970016Y-37823358D02*
X141970019Y-37823359D01*
X141970018Y-37823359D01*
X142118521Y-37884870D01*
X142252170Y-37974172D01*
X142365828Y-38087830D01*
X142455130Y-38221479D01*
X142484795Y-38293098D01*
X142516642Y-38369984D01*
X142548000Y-38527630D01*
X142548000Y-38688370D01*
X142516642Y-38846016D01*
X142516641Y-38846018D01*
X142455130Y-38994521D01*
X142365828Y-39128170D01*
X142252170Y-39241828D01*
X142118521Y-39331130D01*
X141995497Y-39382087D01*
X141970016Y-39392642D01*
X141812370Y-39424000D01*
X141651630Y-39424000D01*
X141493984Y-39392642D01*
X141468503Y-39382087D01*
X141345479Y-39331130D01*
X141211830Y-39241828D01*
X141098172Y-39128170D01*
X141008870Y-38994521D01*
X140947359Y-38846018D01*
X140947358Y-38846016D01*
X140916000Y-38688370D01*
X140916000Y-38527630D01*
X140947358Y-38369984D01*
X140979205Y-38293098D01*
X141008870Y-38221479D01*
X141098172Y-38087830D01*
X141211830Y-37974172D01*
X141345479Y-37884870D01*
X141493982Y-37823359D01*
X141493981Y-37823359D01*
X141493984Y-37823358D01*
X141651630Y-37792000D01*
X141812370Y-37792000D01*
X141970016Y-37823358D01*
X141970016Y-37823358D01*
G37*
G36*
X126730016Y-37823358D02*
X126730019Y-37823359D01*
X126730018Y-37823359D01*
X126878521Y-37884870D01*
X127012170Y-37974172D01*
X127125828Y-38087830D01*
X127215130Y-38221479D01*
X127244795Y-38293098D01*
X127276642Y-38369984D01*
X127308000Y-38527630D01*
X127308000Y-38688370D01*
X127276642Y-38846016D01*
X127276641Y-38846018D01*
X127215130Y-38994521D01*
X127125828Y-39128170D01*
X127012170Y-39241828D01*
X126878521Y-39331130D01*
X126755497Y-39382087D01*
X126730016Y-39392642D01*
X126572370Y-39424000D01*
X126411630Y-39424000D01*
X126253984Y-39392642D01*
X126228503Y-39382087D01*
X126105479Y-39331130D01*
X125971830Y-39241828D01*
X125858172Y-39128170D01*
X125768870Y-38994521D01*
X125707359Y-38846018D01*
X125707358Y-38846016D01*
X125676000Y-38688370D01*
X125676000Y-38527630D01*
X125707358Y-38369984D01*
X125739205Y-38293098D01*
X125768870Y-38221479D01*
X125858172Y-38087830D01*
X125971830Y-37974172D01*
X126105479Y-37884870D01*
X126253982Y-37823359D01*
X126253981Y-37823359D01*
X126253984Y-37823358D01*
X126411630Y-37792000D01*
X126572370Y-37792000D01*
X126730016Y-37823358D01*
X126730016Y-37823358D01*
G37*
G36*
X161665256Y-35221298D02*
X161771579Y-35242447D01*
X162072042Y-35366903D01*
X162172717Y-35434172D01*
X162342454Y-35547587D01*
X162572413Y-35777546D01*
X162572415Y-35777549D01*
X162753097Y-36047958D01*
X162877553Y-36348421D01*
X162941000Y-36667391D01*
X162941000Y-36992609D01*
X162877553Y-37311579D01*
X162753097Y-37612042D01*
X162611900Y-37823358D01*
X162572413Y-37882454D01*
X162342454Y-38112413D01*
X162342451Y-38112415D01*
X162072042Y-38293097D01*
X161771579Y-38417553D01*
X161665256Y-38438702D01*
X161452611Y-38481000D01*
X161127389Y-38481000D01*
X160914744Y-38438702D01*
X160808421Y-38417553D01*
X160507958Y-38293097D01*
X160237549Y-38112415D01*
X160237546Y-38112413D01*
X160007587Y-37882454D01*
X159968100Y-37823358D01*
X159826903Y-37612042D01*
X159702447Y-37311579D01*
X159639000Y-36992609D01*
X159639000Y-36667391D01*
X159702447Y-36348421D01*
X159826903Y-36047958D01*
X160007585Y-35777549D01*
X160007587Y-35777546D01*
X160237546Y-35547587D01*
X160407283Y-35434172D01*
X160507958Y-35366903D01*
X160808421Y-35242447D01*
X160914744Y-35221298D01*
X161127389Y-35179000D01*
X161452611Y-35179000D01*
X161665256Y-35221298D01*
X161665256Y-35221298D01*
G37*
G36*
X112135256Y-35221298D02*
X112241579Y-35242447D01*
X112542042Y-35366903D01*
X112642717Y-35434172D01*
X112812454Y-35547587D01*
X113042413Y-35777546D01*
X113042415Y-35777549D01*
X113223097Y-36047958D01*
X113347553Y-36348421D01*
X113411000Y-36667391D01*
X113411000Y-36992609D01*
X113347553Y-37311579D01*
X113223097Y-37612042D01*
X113081900Y-37823358D01*
X113042413Y-37882454D01*
X112812454Y-38112413D01*
X112812451Y-38112415D01*
X112542042Y-38293097D01*
X112241579Y-38417553D01*
X112135256Y-38438702D01*
X111922611Y-38481000D01*
X111597389Y-38481000D01*
X111384744Y-38438702D01*
X111278421Y-38417553D01*
X110977958Y-38293097D01*
X110707549Y-38112415D01*
X110707546Y-38112413D01*
X110477587Y-37882454D01*
X110438100Y-37823358D01*
X110296903Y-37612042D01*
X110172447Y-37311579D01*
X110109000Y-36992609D01*
X110109000Y-36667391D01*
X110172447Y-36348421D01*
X110296903Y-36047958D01*
X110477585Y-35777549D01*
X110477587Y-35777546D01*
X110707546Y-35547587D01*
X110877283Y-35434172D01*
X110977958Y-35366903D01*
X111278421Y-35242447D01*
X111384744Y-35221298D01*
X111597389Y-35179000D01*
X111922611Y-35179000D01*
X112135256Y-35221298D01*
X112135256Y-35221298D01*
G37*
G36*
X153468414Y-36327879D02*
X153468416Y-36327880D01*
X153468417Y-36327880D01*
X153616300Y-36389135D01*
X153659594Y-36407068D01*
X153831651Y-36522033D01*
X153977967Y-36668349D01*
X154092932Y-36840406D01*
X154172121Y-37031586D01*
X154212490Y-37234534D01*
X154212490Y-37441466D01*
X154172121Y-37644414D01*
X154092932Y-37835594D01*
X153977967Y-38007651D01*
X153831651Y-38153967D01*
X153831648Y-38153969D01*
X153659594Y-38268932D01*
X153468417Y-38348120D01*
X153468416Y-38348120D01*
X153468414Y-38348121D01*
X153265466Y-38388490D01*
X153058534Y-38388490D01*
X152855586Y-38348121D01*
X152855584Y-38348120D01*
X152855583Y-38348120D01*
X152664406Y-38268932D01*
X152492352Y-38153969D01*
X152492349Y-38153967D01*
X152346033Y-38007651D01*
X152231068Y-37835594D01*
X152151879Y-37644414D01*
X152111510Y-37441466D01*
X152111510Y-37234534D01*
X152151879Y-37031586D01*
X152231068Y-36840406D01*
X152346033Y-36668349D01*
X152492349Y-36522033D01*
X152664406Y-36407068D01*
X152707700Y-36389135D01*
X152855583Y-36327880D01*
X152855584Y-36327880D01*
X152855586Y-36327879D01*
X153058534Y-36287510D01*
X153265466Y-36287510D01*
X153468414Y-36327879D01*
X153468414Y-36327879D01*
G37*
G36*
X148388414Y-36327879D02*
X148388416Y-36327880D01*
X148388417Y-36327880D01*
X148536300Y-36389135D01*
X148579594Y-36407068D01*
X148751651Y-36522033D01*
X148897967Y-36668349D01*
X149012932Y-36840406D01*
X149092121Y-37031586D01*
X149132490Y-37234534D01*
X149132490Y-37441466D01*
X149092121Y-37644414D01*
X149012932Y-37835594D01*
X148897967Y-38007651D01*
X148751651Y-38153967D01*
X148751648Y-38153969D01*
X148579594Y-38268932D01*
X148388417Y-38348120D01*
X148388416Y-38348120D01*
X148388414Y-38348121D01*
X148185466Y-38388490D01*
X147978534Y-38388490D01*
X147775586Y-38348121D01*
X147775584Y-38348120D01*
X147775583Y-38348120D01*
X147584406Y-38268932D01*
X147412352Y-38153969D01*
X147412349Y-38153967D01*
X147266033Y-38007651D01*
X147151068Y-37835594D01*
X147071879Y-37644414D01*
X147031510Y-37441466D01*
X147031510Y-37234534D01*
X147071879Y-37031586D01*
X147151068Y-36840406D01*
X147266033Y-36668349D01*
X147412349Y-36522033D01*
X147584406Y-36407068D01*
X147627700Y-36389135D01*
X147775583Y-36327880D01*
X147775584Y-36327880D01*
X147775586Y-36327879D01*
X147978534Y-36287510D01*
X148185466Y-36287510D01*
X148388414Y-36327879D01*
X148388414Y-36327879D01*
G37*
G36*
X141970016Y-35283358D02*
X141970019Y-35283359D01*
X141970018Y-35283359D01*
X142118521Y-35344870D01*
X142252170Y-35434172D01*
X142365828Y-35547830D01*
X142455130Y-35681479D01*
X142494923Y-35777549D01*
X142516642Y-35829984D01*
X142548000Y-35987630D01*
X142548000Y-36148370D01*
X142516642Y-36306016D01*
X142516641Y-36306018D01*
X142455130Y-36454521D01*
X142365828Y-36588170D01*
X142252170Y-36701828D01*
X142118521Y-36791130D01*
X141999556Y-36840406D01*
X141970016Y-36852642D01*
X141812370Y-36884000D01*
X141651630Y-36884000D01*
X141493984Y-36852642D01*
X141464444Y-36840406D01*
X141345479Y-36791130D01*
X141211830Y-36701828D01*
X141098172Y-36588170D01*
X141008870Y-36454521D01*
X140947359Y-36306018D01*
X140947358Y-36306016D01*
X140916000Y-36148370D01*
X140916000Y-35987630D01*
X140947358Y-35829984D01*
X140969077Y-35777549D01*
X141008870Y-35681479D01*
X141098172Y-35547830D01*
X141211830Y-35434172D01*
X141345479Y-35344870D01*
X141493982Y-35283359D01*
X141493981Y-35283359D01*
X141493984Y-35283358D01*
X141651630Y-35252000D01*
X141812370Y-35252000D01*
X141970016Y-35283358D01*
X141970016Y-35283358D01*
G37*
G36*
X126730016Y-35283358D02*
X126730019Y-35283359D01*
X126730018Y-35283359D01*
X126878521Y-35344870D01*
X127012170Y-35434172D01*
X127125828Y-35547830D01*
X127215130Y-35681479D01*
X127254923Y-35777549D01*
X127276642Y-35829984D01*
X127308000Y-35987630D01*
X127308000Y-36148370D01*
X127276642Y-36306016D01*
X127276641Y-36306018D01*
X127215130Y-36454521D01*
X127125828Y-36588170D01*
X127012170Y-36701828D01*
X126878521Y-36791130D01*
X126759556Y-36840406D01*
X126730016Y-36852642D01*
X126572370Y-36884000D01*
X126411630Y-36884000D01*
X126253984Y-36852642D01*
X126224444Y-36840406D01*
X126105479Y-36791130D01*
X125971830Y-36701828D01*
X125858172Y-36588170D01*
X125768870Y-36454521D01*
X125707359Y-36306018D01*
X125707358Y-36306016D01*
X125676000Y-36148370D01*
X125676000Y-35987630D01*
X125707358Y-35829984D01*
X125729077Y-35777549D01*
X125768870Y-35681479D01*
X125858172Y-35547830D01*
X125971830Y-35434172D01*
X126105479Y-35344870D01*
X126253982Y-35283359D01*
X126253981Y-35283359D01*
X126253984Y-35283358D01*
X126411630Y-35252000D01*
X126572370Y-35252000D01*
X126730016Y-35283358D01*
X126730016Y-35283358D01*
G37*
G36*
X118489393Y-34309304D02*
X118726102Y-34407352D01*
X118939138Y-34549698D01*
X119120302Y-34730862D01*
X119262648Y-34943898D01*
X119360696Y-35180607D01*
X119410680Y-35431893D01*
X119410680Y-35688107D01*
X119360696Y-35939393D01*
X119262648Y-36176102D01*
X119120302Y-36389138D01*
X118939138Y-36570302D01*
X118726102Y-36712648D01*
X118489393Y-36810696D01*
X118238107Y-36860680D01*
X117981893Y-36860680D01*
X117730607Y-36810696D01*
X117493898Y-36712648D01*
X117280862Y-36570302D01*
X117099698Y-36389138D01*
X116957352Y-36176102D01*
X116859304Y-35939393D01*
X116809320Y-35688107D01*
X116809320Y-35431893D01*
X116859304Y-35180607D01*
X116957352Y-34943898D01*
X117099698Y-34730862D01*
X117280862Y-34549698D01*
X117493898Y-34407352D01*
X117730607Y-34309304D01*
X117981893Y-34259320D01*
X118238107Y-34259320D01*
X118489393Y-34309304D01*
X118489393Y-34309304D01*
G37*
G36*
X122299393Y-34309304D02*
X122536102Y-34407352D01*
X122749138Y-34549698D01*
X122930302Y-34730862D01*
X123072648Y-34943898D01*
X123170696Y-35180607D01*
X123220680Y-35431893D01*
X123220680Y-35688107D01*
X123170696Y-35939393D01*
X123072648Y-36176102D01*
X122930302Y-36389138D01*
X122749138Y-36570302D01*
X122536102Y-36712648D01*
X122299393Y-36810696D01*
X122048107Y-36860680D01*
X121791893Y-36860680D01*
X121540607Y-36810696D01*
X121303898Y-36712648D01*
X121090862Y-36570302D01*
X120909698Y-36389138D01*
X120767352Y-36176102D01*
X120669304Y-35939393D01*
X120619320Y-35688107D01*
X120619320Y-35431893D01*
X120669304Y-35180607D01*
X120767352Y-34943898D01*
X120909698Y-34730862D01*
X121090862Y-34549698D01*
X121303898Y-34407352D01*
X121540607Y-34309304D01*
X121791893Y-34259320D01*
X122048107Y-34259320D01*
X122299393Y-34309304D01*
X122299393Y-34309304D01*
G37*
M02*
