G04 #@! TF.GenerationSoftware,KiCad,Pcbnew,(5.0.2-4-g3082e92af)*
G04 #@! TF.CreationDate,2019-02-05T21:12:24+02:00*
G04 #@! TF.ProjectId,My Piano Controller 6 (Full SMD),4d792050-6961-46e6-9f20-436f6e74726f,rev?*
G04 #@! TF.SameCoordinates,Original*
G04 #@! TF.FileFunction,Copper,L1,Top*
G04 #@! TF.FilePolarity,Positive*
%FSLAX46Y46*%
G04 Gerber Fmt 4.6, Leading zero omitted, Abs format (unit mm)*
G04 Created by KiCad (PCBNEW (5.0.2-4-g3082e92af)) date 2019 February 05, Tuesday 21:12:24*
%MOMM*%
%LPD*%
G01*
G04 APERTURE LIST*
G04 #@! TA.AperFunction,ComponentPad*
%ADD10C,1.998980*%
G04 #@! TD*
G04 #@! TA.AperFunction,ComponentPad*
%ADD11C,1.700000*%
G04 #@! TD*
G04 #@! TA.AperFunction,ComponentPad*
%ADD12R,1.700000X1.700000*%
G04 #@! TD*
G04 #@! TA.AperFunction,ComponentPad*
%ADD13C,1.530000*%
G04 #@! TD*
G04 #@! TA.AperFunction,ComponentPad*
%ADD14C,2.499360*%
G04 #@! TD*
G04 #@! TA.AperFunction,ComponentPad*
%ADD15R,3.500000X3.500000*%
G04 #@! TD*
G04 #@! TA.AperFunction,SMDPad,CuDef*
%ADD16R,0.900000X1.200000*%
G04 #@! TD*
G04 #@! TA.AperFunction,ComponentPad*
%ADD17C,2.700000*%
G04 #@! TD*
G04 #@! TA.AperFunction,ComponentPad*
%ADD18C,1.520000*%
G04 #@! TD*
G04 #@! TA.AperFunction,ComponentPad*
%ADD19C,1.750000*%
G04 #@! TD*
G04 #@! TA.AperFunction,ComponentPad*
%ADD20R,1.750000X1.750000*%
G04 #@! TD*
G04 #@! TA.AperFunction,ComponentPad*
%ADD21O,1.700000X1.700000*%
G04 #@! TD*
G04 #@! TA.AperFunction,Conductor*
%ADD22C,0.250000*%
G04 #@! TD*
G04 #@! TA.AperFunction,Conductor*
%ADD23C,1.000000*%
G04 #@! TD*
G04 #@! TA.AperFunction,Conductor*
%ADD24C,0.500000*%
G04 #@! TD*
G04 #@! TA.AperFunction,Conductor*
%ADD25C,0.254000*%
G04 #@! TD*
G04 APERTURE END LIST*
D10*
G04 #@! TO.P,AGND1,1*
G04 #@! TO.N,Net-(AGND1-Pad1)*
X148082000Y-37338000D03*
G04 #@! TD*
G04 #@! TO.P,AGND2,1*
G04 #@! TO.N,Net-(AGND1-Pad1)*
X153162000Y-37338000D03*
G04 #@! TD*
G04 #@! TO.P,AIN11,1*
G04 #@! TO.N,Net-(AIN11-Pad1)*
X148082000Y-77978000D03*
G04 #@! TD*
G04 #@! TO.P,AIN12,1*
G04 #@! TO.N,Net-(AIN11-Pad1)*
X153162000Y-77978000D03*
G04 #@! TD*
G04 #@! TO.P,AIN13,1*
G04 #@! TO.N,Net-(AIN11-Pad1)*
X158242000Y-77978000D03*
G04 #@! TD*
G04 #@! TO.P,AIN21,1*
G04 #@! TO.N,Net-(AIN21-Pad1)*
X148082000Y-72898000D03*
G04 #@! TD*
G04 #@! TO.P,AIN22,1*
G04 #@! TO.N,Net-(AIN21-Pad1)*
X153162000Y-72898000D03*
G04 #@! TD*
G04 #@! TO.P,AIN23,1*
G04 #@! TO.N,Net-(AIN21-Pad1)*
X158242000Y-72898000D03*
G04 #@! TD*
D11*
G04 #@! TO.P,COMM1,34*
G04 #@! TO.N,/G18*
X114300000Y-47625000D03*
G04 #@! TO.P,COMM1,33*
G04 #@! TO.N,/G9*
X116840000Y-47625000D03*
G04 #@! TO.P,COMM1,32*
G04 #@! TO.N,/G17*
X114300000Y-50165000D03*
G04 #@! TO.P,COMM1,31*
G04 #@! TO.N,/G8*
X116840000Y-50165000D03*
G04 #@! TO.P,COMM1,30*
G04 #@! TO.N,/G16*
X114300000Y-52705000D03*
G04 #@! TO.P,COMM1,29*
G04 #@! TO.N,/G7*
X116840000Y-52705000D03*
G04 #@! TO.P,COMM1,28*
G04 #@! TO.N,/G15*
X114300000Y-55245000D03*
G04 #@! TO.P,COMM1,27*
G04 #@! TO.N,/G6*
X116840000Y-55245000D03*
G04 #@! TO.P,COMM1,26*
G04 #@! TO.N,/G14*
X114300000Y-57785000D03*
G04 #@! TO.P,COMM1,25*
G04 #@! TO.N,/G5*
X116840000Y-57785000D03*
G04 #@! TO.P,COMM1,24*
G04 #@! TO.N,/G13*
X114300000Y-60325000D03*
G04 #@! TO.P,COMM1,23*
G04 #@! TO.N,/G4*
X116840000Y-60325000D03*
G04 #@! TO.P,COMM1,22*
G04 #@! TO.N,/G12*
X114300000Y-62865000D03*
G04 #@! TO.P,COMM1,21*
G04 #@! TO.N,/G3*
X116840000Y-62865000D03*
G04 #@! TO.P,COMM1,20*
G04 #@! TO.N,/G11*
X114300000Y-65405000D03*
G04 #@! TO.P,COMM1,19*
G04 #@! TO.N,/G2*
X116840000Y-65405000D03*
G04 #@! TO.P,COMM1,18*
G04 #@! TO.N,/G10*
X114300000Y-67945000D03*
G04 #@! TO.P,COMM1,17*
G04 #@! TO.N,/G1*
X116840000Y-67945000D03*
G04 #@! TO.P,COMM1,16*
G04 #@! TO.N,GND*
X114300000Y-70485000D03*
G04 #@! TO.P,COMM1,15*
G04 #@! TO.N,/NOTE41*
X116840000Y-70485000D03*
G04 #@! TO.P,COMM1,14*
G04 #@! TO.N,/NOTE43*
X114300000Y-73025000D03*
G04 #@! TO.P,COMM1,13*
G04 #@! TO.N,/NOTE42*
X116840000Y-73025000D03*
G04 #@! TO.P,COMM1,12*
G04 #@! TO.N,/NOTE51*
X114300000Y-75565000D03*
G04 #@! TO.P,COMM1,11*
G04 #@! TO.N,/NOTE22*
X116840000Y-75565000D03*
G04 #@! TO.P,COMM1,10*
G04 #@! TO.N,/NOTE52*
X114300000Y-78105000D03*
G04 #@! TO.P,COMM1,9*
G04 #@! TO.N,/NOTE23*
X116840000Y-78105000D03*
G04 #@! TO.P,COMM1,8*
G04 #@! TO.N,/NOTE53*
X114300000Y-80645000D03*
G04 #@! TO.P,COMM1,7*
G04 #@! TO.N,/NOTE21*
X116840000Y-80645000D03*
G04 #@! TO.P,COMM1,6*
G04 #@! TO.N,/NOTE32*
X114300000Y-83185000D03*
G04 #@! TO.P,COMM1,5*
G04 #@! TO.N,/NOTE13*
X116840000Y-83185000D03*
G04 #@! TO.P,COMM1,4*
G04 #@! TO.N,/NOTE31*
X114300000Y-85725000D03*
G04 #@! TO.P,COMM1,3*
G04 #@! TO.N,/NOTE12*
X116840000Y-85725000D03*
G04 #@! TO.P,COMM1,2*
G04 #@! TO.N,/NOTE33*
X114300000Y-88265000D03*
D12*
G04 #@! TO.P,COMM1,1*
G04 #@! TO.N,/NOTE11*
X116840000Y-88265000D03*
G04 #@! TD*
D13*
G04 #@! TO.P,CTL1,GND_1*
G04 #@! TO.N,GND*
X126492000Y-36068000D03*
G04 #@! TO.P,CTL1,0*
G04 #@! TO.N,/G18*
X126492000Y-38608000D03*
G04 #@! TO.P,CTL1,1*
G04 #@! TO.N,/G17*
X126492000Y-41148000D03*
G04 #@! TO.P,CTL1,2*
G04 #@! TO.N,/G16*
X126492000Y-43688000D03*
G04 #@! TO.P,CTL1,3*
G04 #@! TO.N,/G15*
X126492000Y-46228000D03*
G04 #@! TO.P,CTL1,4*
G04 #@! TO.N,/G14*
X126492000Y-48768000D03*
G04 #@! TO.P,CTL1,5*
G04 #@! TO.N,/G13*
X126492000Y-51308000D03*
G04 #@! TO.P,CTL1,6*
G04 #@! TO.N,/G12*
X126492000Y-53848000D03*
G04 #@! TO.P,CTL1,7*
G04 #@! TO.N,/G11*
X126492000Y-56388000D03*
G04 #@! TO.P,CTL1,8*
G04 #@! TO.N,/G10*
X126492000Y-58928000D03*
G04 #@! TO.P,CTL1,9*
G04 #@! TO.N,/NOTE43*
X126492000Y-61468000D03*
G04 #@! TO.P,CTL1,10*
G04 #@! TO.N,/NOTE51*
X126492000Y-64008000D03*
G04 #@! TO.P,CTL1,11*
G04 #@! TO.N,/NOTE52*
X126492000Y-66548000D03*
G04 #@! TO.P,CTL1,12*
G04 #@! TO.N,/NOTE53*
X126492000Y-69088000D03*
G04 #@! TO.P,CTL1,3V3_1*
G04 #@! TO.N,Net-(CTL1-Pad3V3_1)*
X126492000Y-71628000D03*
G04 #@! TO.P,CTL1,24*
G04 #@! TO.N,/NOTE32*
X126492000Y-74168000D03*
G04 #@! TO.P,CTL1,13*
G04 #@! TO.N,Net-(CTL1-Pad13)*
X141732000Y-69088000D03*
G04 #@! TO.P,CTL1,14*
G04 #@! TO.N,/G6*
X141732000Y-66548000D03*
G04 #@! TO.P,CTL1,15*
G04 #@! TO.N,/G7*
X141732000Y-64008000D03*
G04 #@! TO.P,CTL1,16*
G04 #@! TO.N,/G8*
X141732000Y-61468000D03*
G04 #@! TO.P,CTL1,17*
G04 #@! TO.N,/G9*
X141732000Y-58928000D03*
G04 #@! TO.P,CTL1,18*
G04 #@! TO.N,Net-(CTL1-Pad18)*
X141732000Y-56388000D03*
G04 #@! TO.P,CTL1,19*
G04 #@! TO.N,Net-(CTL1-Pad19)*
X141732000Y-53848000D03*
G04 #@! TO.P,CTL1,20*
G04 #@! TO.N,Net-(CTL1-Pad20)*
X141732000Y-51308000D03*
G04 #@! TO.P,CTL1,21*
G04 #@! TO.N,Net-(CTL1-Pad21)*
X141732000Y-48768000D03*
G04 #@! TO.P,CTL1,22*
G04 #@! TO.N,Net-(CTL1-Pad22)*
X141732000Y-46228000D03*
G04 #@! TO.P,CTL1,23*
G04 #@! TO.N,Net-(CTL1-Pad23)*
X141732000Y-43688000D03*
G04 #@! TO.P,CTL1,3V3_2*
G04 #@! TO.N,Net-(CTL1-Pad3V3_2)*
X141732000Y-41148000D03*
G04 #@! TO.P,CTL1,AGND*
G04 #@! TO.N,Net-(AGND1-Pad1)*
X141732000Y-38608000D03*
G04 #@! TO.P,CTL1,VIN*
G04 #@! TO.N,Net-(CTL1-PadVIN)*
X141732000Y-36068000D03*
G04 #@! TO.P,CTL1,25*
G04 #@! TO.N,/NOTE31*
X126492000Y-76708000D03*
G04 #@! TO.P,CTL1,26*
G04 #@! TO.N,/NOTE33*
X126492000Y-79248000D03*
G04 #@! TO.P,CTL1,27*
G04 #@! TO.N,/NOTE22*
X126492000Y-81788000D03*
G04 #@! TO.P,CTL1,28*
G04 #@! TO.N,/NOTE23*
X126492000Y-84328000D03*
G04 #@! TO.P,CTL1,29*
G04 #@! TO.N,/NOTE21*
X126492000Y-86868000D03*
G04 #@! TO.P,CTL1,30*
G04 #@! TO.N,/NOTE13*
X126492000Y-89408000D03*
G04 #@! TO.P,CTL1,31*
G04 #@! TO.N,/NOTE12*
X126492000Y-91948000D03*
G04 #@! TO.P,CTL1,32*
G04 #@! TO.N,/NOTE11*
X126492000Y-94488000D03*
G04 #@! TO.P,CTL1,GND_2*
G04 #@! TO.N,GND*
X141732000Y-71628000D03*
G04 #@! TO.P,CTL1,A22*
G04 #@! TO.N,Net-(AIN21-Pad1)*
X141732000Y-74168000D03*
G04 #@! TO.P,CTL1,A21*
G04 #@! TO.N,Net-(AIN11-Pad1)*
X141732000Y-76708000D03*
G04 #@! TO.P,CTL1,33*
G04 #@! TO.N,/NOTE42*
X141732000Y-94488000D03*
G04 #@! TO.P,CTL1,34*
G04 #@! TO.N,/NOTE41*
X141732000Y-91948000D03*
G04 #@! TO.P,CTL1,35*
G04 #@! TO.N,/G1*
X141732000Y-89408000D03*
G04 #@! TO.P,CTL1,36*
G04 #@! TO.N,/G2*
X141732000Y-86868000D03*
G04 #@! TO.P,CTL1,37*
G04 #@! TO.N,/G3*
X141732000Y-84328000D03*
G04 #@! TO.P,CTL1,38*
G04 #@! TO.N,/G4*
X141732000Y-81788000D03*
G04 #@! TO.P,CTL1,39*
G04 #@! TO.N,/G5*
X141732000Y-79248000D03*
G04 #@! TD*
D14*
G04 #@! TO.P,GN1,1*
G04 #@! TO.N,GND*
X121920000Y-35560000D03*
G04 #@! TD*
G04 #@! TO.P,GN2,1*
G04 #@! TO.N,GND*
X118110000Y-35560000D03*
G04 #@! TD*
D10*
G04 #@! TO.P,IN181,1*
G04 #@! TO.N,Net-(CTL1-Pad18)*
X148082000Y-67818000D03*
G04 #@! TD*
G04 #@! TO.P,IN182,1*
G04 #@! TO.N,Net-(CTL1-Pad18)*
X153162000Y-67818000D03*
G04 #@! TD*
G04 #@! TO.P,IN183,1*
G04 #@! TO.N,Net-(CTL1-Pad18)*
X158242000Y-67818000D03*
G04 #@! TD*
G04 #@! TO.P,IN191,1*
G04 #@! TO.N,Net-(CTL1-Pad19)*
X148082000Y-62738000D03*
G04 #@! TD*
G04 #@! TO.P,IN192,1*
G04 #@! TO.N,Net-(CTL1-Pad19)*
X153162000Y-62738000D03*
G04 #@! TD*
G04 #@! TO.P,IN193,1*
G04 #@! TO.N,Net-(CTL1-Pad19)*
X158242000Y-62738000D03*
G04 #@! TD*
G04 #@! TO.P,IN201,1*
G04 #@! TO.N,Net-(CTL1-Pad20)*
X148082000Y-57658000D03*
G04 #@! TD*
G04 #@! TO.P,IN202,1*
G04 #@! TO.N,Net-(CTL1-Pad20)*
X158242000Y-57658000D03*
G04 #@! TD*
G04 #@! TO.P,IN203,1*
G04 #@! TO.N,Net-(CTL1-Pad20)*
X153162000Y-57658000D03*
G04 #@! TD*
G04 #@! TO.P,IN211,1*
G04 #@! TO.N,Net-(CTL1-Pad21)*
X148082000Y-52578000D03*
G04 #@! TD*
G04 #@! TO.P,IN212,1*
G04 #@! TO.N,Net-(CTL1-Pad21)*
X153162000Y-52578000D03*
G04 #@! TD*
G04 #@! TO.P,IN213,1*
G04 #@! TO.N,Net-(CTL1-Pad21)*
X158242000Y-52578000D03*
G04 #@! TD*
G04 #@! TO.P,IN221,1*
G04 #@! TO.N,Net-(CTL1-Pad22)*
X148082000Y-47498000D03*
G04 #@! TD*
G04 #@! TO.P,IN222,1*
G04 #@! TO.N,Net-(CTL1-Pad22)*
X153162000Y-47498000D03*
G04 #@! TD*
G04 #@! TO.P,IN223,1*
G04 #@! TO.N,Net-(CTL1-Pad22)*
X158242000Y-47498000D03*
G04 #@! TD*
G04 #@! TO.P,IN231,1*
G04 #@! TO.N,Net-(CTL1-Pad23)*
X148082000Y-42418000D03*
G04 #@! TD*
G04 #@! TO.P,IN232,1*
G04 #@! TO.N,Net-(CTL1-Pad23)*
X153162000Y-42418000D03*
G04 #@! TD*
G04 #@! TO.P,IN233,1*
G04 #@! TO.N,Net-(CTL1-Pad23)*
X158242000Y-42418000D03*
G04 #@! TD*
D15*
G04 #@! TO.P,J11,3*
G04 #@! TO.N,N/C*
X118492000Y-110188000D03*
G04 #@! TO.P,J11,2*
G04 #@! TO.N,GND*
X113792000Y-113188000D03*
G04 #@! TO.P,J11,1*
G04 #@! TO.N,+5V*
X113792000Y-107188000D03*
G04 #@! TD*
D16*
G04 #@! TO.P,R1,1*
G04 #@! TO.N,+3V3*
X158242000Y-88730000D03*
G04 #@! TO.P,R1,2*
G04 #@! TO.N,Net-(R1-Pad2)*
X158242000Y-86530000D03*
G04 #@! TD*
G04 #@! TO.P,R2,2*
G04 #@! TO.N,Net-(R2-Pad2)*
X148082000Y-86700000D03*
G04 #@! TO.P,R2,1*
G04 #@! TO.N,+3V3*
X148082000Y-88900000D03*
G04 #@! TD*
G04 #@! TO.P,R3,2*
G04 #@! TO.N,Net-(R3-Pad2)*
X153162000Y-86614000D03*
G04 #@! TO.P,R3,1*
G04 #@! TO.N,+3V3*
X153162000Y-88814000D03*
G04 #@! TD*
D17*
G04 #@! TO.P,USB1,5*
G04 #@! TO.N,Net-(USB1-Pad5)*
X136810000Y-110618000D03*
X124810000Y-110618000D03*
D18*
G04 #@! TO.P,USB1,3*
G04 #@! TO.N,Net-(USB1-Pad3)*
X129540000Y-107918000D03*
G04 #@! TO.P,USB1,4*
G04 #@! TO.N,GND*
X132080000Y-107918000D03*
G04 #@! TO.P,USB1,1*
G04 #@! TO.N,+5V*
X132080000Y-105918000D03*
G04 #@! TO.P,USB1,2*
G04 #@! TO.N,Net-(USB1-Pad2)*
X129540000Y-105918000D03*
G04 #@! TD*
D14*
G04 #@! TO.P,VOUT51,1*
G04 #@! TO.N,+5V*
X148082000Y-98298000D03*
G04 #@! TD*
G04 #@! TO.P,VOUT52,1*
G04 #@! TO.N,+5V*
X153162000Y-98298000D03*
G04 #@! TD*
G04 #@! TO.P,VOUT331,1*
G04 #@! TO.N,+3V3*
X148082000Y-93345000D03*
G04 #@! TD*
G04 #@! TO.P,VOUT332,1*
G04 #@! TO.N,+3V3*
X153162000Y-93345000D03*
G04 #@! TD*
D10*
G04 #@! TO.P,VOUT337,1*
G04 #@! TO.N,Net-(R1-Pad2)*
X158242000Y-83058000D03*
G04 #@! TD*
G04 #@! TO.P,VOUT338,1*
G04 #@! TO.N,Net-(R2-Pad2)*
X148082000Y-83058000D03*
G04 #@! TD*
G04 #@! TO.P,VOUT339,1*
G04 #@! TO.N,Net-(R3-Pad2)*
X153162000Y-83058000D03*
G04 #@! TD*
D19*
G04 #@! TO.P,PWR1,3*
G04 #@! TO.N,+5V*
X143590000Y-107442000D03*
G04 #@! TO.P,PWR1,2*
G04 #@! TO.N,+3V3*
X146090000Y-107442000D03*
D20*
G04 #@! TO.P,PWR1,1*
G04 #@! TO.N,GND*
X148590000Y-107442000D03*
G04 #@! TD*
G04 #@! TO.P,PWR2,1*
G04 #@! TO.N,GND*
X148590000Y-117602000D03*
D19*
G04 #@! TO.P,PWR2,2*
G04 #@! TO.N,+3V3*
X146090000Y-117602000D03*
G04 #@! TO.P,PWR2,3*
G04 #@! TO.N,+5V*
X143590000Y-117602000D03*
G04 #@! TD*
G04 #@! TO.P,PWR3,3*
G04 #@! TO.N,+5V*
X156290000Y-107442000D03*
G04 #@! TO.P,PWR3,2*
G04 #@! TO.N,+3V3*
X158790000Y-107442000D03*
D20*
G04 #@! TO.P,PWR3,1*
G04 #@! TO.N,GND*
X161290000Y-107442000D03*
G04 #@! TD*
G04 #@! TO.P,PWR4,1*
G04 #@! TO.N,GND*
X161290000Y-117602000D03*
D19*
G04 #@! TO.P,PWR4,2*
G04 #@! TO.N,+3V3*
X158790000Y-117602000D03*
G04 #@! TO.P,PWR4,3*
G04 #@! TO.N,+5V*
X156290000Y-117602000D03*
G04 #@! TD*
D21*
G04 #@! TO.P,JP1,2*
G04 #@! TO.N,+3V3*
X157480000Y-93345000D03*
D12*
G04 #@! TO.P,JP1,1*
G04 #@! TO.N,Net-(CTL1-Pad3V3_2)*
X160020000Y-93345000D03*
G04 #@! TD*
D22*
G04 #@! TO.N,/G18*
X126492000Y-38608000D02*
X123317000Y-38608000D01*
X123317000Y-38608000D02*
X114300000Y-47625000D01*
G04 #@! TO.N,/G17*
X126492000Y-41148000D02*
X118745000Y-48895000D01*
X118745000Y-48895000D02*
X115570000Y-48895000D01*
X115570000Y-48895000D02*
X114300000Y-50165000D01*
G04 #@! TO.N,/G16*
X126492000Y-43688000D02*
X118745000Y-51435000D01*
X118745000Y-51435000D02*
X115570000Y-51435000D01*
X115570000Y-51435000D02*
X114300000Y-52705000D01*
G04 #@! TO.N,/G15*
X114300000Y-55245000D02*
X115570000Y-53975000D01*
X115570000Y-53975000D02*
X118745000Y-53975000D01*
X118745000Y-53975000D02*
X126492000Y-46228000D01*
G04 #@! TO.N,/G14*
X126492000Y-48768000D02*
X118745000Y-56515000D01*
X118745000Y-56515000D02*
X115570000Y-56515000D01*
X115570000Y-56515000D02*
X114300000Y-57785000D01*
G04 #@! TO.N,/G13*
X126492000Y-51308000D02*
X118745000Y-59055000D01*
X118745000Y-59055000D02*
X115570000Y-59055000D01*
X115570000Y-59055000D02*
X114300000Y-60325000D01*
G04 #@! TO.N,/G12*
X126492000Y-53848000D02*
X118745000Y-61595000D01*
X118745000Y-61595000D02*
X115570000Y-61595000D01*
X115570000Y-61595000D02*
X114300000Y-62865000D01*
G04 #@! TO.N,/G11*
X126492000Y-56388000D02*
X118745000Y-64135000D01*
X118745000Y-64135000D02*
X115570000Y-64135000D01*
X115570000Y-64135000D02*
X114300000Y-65405000D01*
G04 #@! TO.N,/G10*
X114300000Y-67945000D02*
X115570000Y-66675000D01*
X115570000Y-66675000D02*
X118745000Y-66675000D01*
X118745000Y-66675000D02*
X126492000Y-58928000D01*
G04 #@! TO.N,/NOTE43*
X126492000Y-61468000D02*
X118442900Y-69517100D01*
X118442900Y-69517100D02*
X118442900Y-70557300D01*
X118442900Y-70557300D02*
X117245200Y-71755000D01*
X117245200Y-71755000D02*
X115570000Y-71755000D01*
X115570000Y-71755000D02*
X114300000Y-73025000D01*
G04 #@! TO.N,/NOTE51*
X126492000Y-64008000D02*
X121867900Y-68632100D01*
X121867900Y-68632100D02*
X121867900Y-69726900D01*
X121867900Y-69726900D02*
X117299800Y-74295000D01*
X117299800Y-74295000D02*
X115570000Y-74295000D01*
X115570000Y-74295000D02*
X114300000Y-75565000D01*
G04 #@! TO.N,/NOTE52*
X126492000Y-66548000D02*
X118620500Y-74419500D01*
X118620500Y-74419500D02*
X118620500Y-75526300D01*
X118620500Y-75526300D02*
X117311800Y-76835000D01*
X117311800Y-76835000D02*
X115570000Y-76835000D01*
X115570000Y-76835000D02*
X114300000Y-78105000D01*
G04 #@! TO.N,/NOTE53*
X126492000Y-69088000D02*
X119165500Y-76414500D01*
X119165500Y-76414500D02*
X119165500Y-77478300D01*
X119165500Y-77478300D02*
X117268800Y-79375000D01*
X117268800Y-79375000D02*
X115570000Y-79375000D01*
X115570000Y-79375000D02*
X114300000Y-80645000D01*
G04 #@! TO.N,/NOTE32*
X126492000Y-74168000D02*
X118745000Y-81915000D01*
X118745000Y-81915000D02*
X115570000Y-81915000D01*
X115570000Y-81915000D02*
X114300000Y-83185000D01*
G04 #@! TO.N,/NOTE31*
X126492000Y-76708000D02*
X118745000Y-84455000D01*
X118745000Y-84455000D02*
X115570000Y-84455000D01*
X115570000Y-84455000D02*
X114300000Y-85725000D01*
G04 #@! TO.N,/NOTE33*
X126492000Y-79248000D02*
X118650400Y-87089600D01*
X118650400Y-87089600D02*
X115475400Y-87089600D01*
X115475400Y-87089600D02*
X114300000Y-88265000D01*
G04 #@! TO.N,+3V3*
X153162000Y-88814000D02*
X153937300Y-88814000D01*
X158242000Y-88730000D02*
X157466700Y-88730000D01*
X148357100Y-93345000D02*
X148082000Y-93069900D01*
D23*
X148082000Y-93345000D02*
X148357100Y-93345000D01*
X158790000Y-107442000D02*
X158790000Y-117602000D01*
X146090000Y-107442000D02*
X146090000Y-117602000D01*
D24*
X148082000Y-93345000D02*
X148082000Y-88900000D01*
X153162000Y-93345000D02*
X153162000Y-88814000D01*
X158242000Y-92583000D02*
X157480000Y-93345000D01*
X158242000Y-88730000D02*
X158242000Y-92583000D01*
D23*
G04 #@! TO.N,+5V*
X148082000Y-98298000D02*
X153162000Y-98298000D01*
X156290000Y-107442000D02*
X156290000Y-117602000D01*
X143590000Y-107442000D02*
X143590000Y-117602000D01*
X113792000Y-107188000D02*
X116542000Y-107188000D01*
X116542000Y-107188000D02*
X119272000Y-104458000D01*
X119272000Y-104458000D02*
X130620000Y-104458000D01*
X130620000Y-104458000D02*
X132080000Y-105918000D01*
X142066000Y-105918000D02*
X143590000Y-107442000D01*
X132080000Y-105918000D02*
X142066000Y-105918000D01*
X142066000Y-104314000D02*
X148082000Y-98298000D01*
X142066000Y-105918000D02*
X142066000Y-104314000D01*
X156290000Y-101426000D02*
X156290000Y-107442000D01*
X153162000Y-98298000D02*
X156290000Y-101426000D01*
D24*
G04 #@! TO.N,Net-(R1-Pad2)*
X158242000Y-83058000D02*
X158242000Y-86530000D01*
G04 #@! TO.N,Net-(R2-Pad2)*
X148082000Y-83058000D02*
X148082000Y-86700000D01*
G04 #@! TO.N,Net-(R3-Pad2)*
X153162000Y-83058000D02*
X153162000Y-86614000D01*
G04 #@! TD*
D25*
G04 #@! TO.N,GND*
G36*
X117085725Y-33934141D02*
X116956517Y-34226911D01*
X118110000Y-35380395D01*
X119263483Y-34226911D01*
X119134275Y-33934141D01*
X118601372Y-33730000D01*
X121388565Y-33730000D01*
X120895725Y-33934141D01*
X120766517Y-34226911D01*
X121920000Y-35380395D01*
X123073483Y-34226911D01*
X122944275Y-33934141D01*
X122411372Y-33730000D01*
X164390000Y-33730000D01*
X164390001Y-119940000D01*
X108660000Y-119940000D01*
X108660000Y-113473750D01*
X111407000Y-113473750D01*
X111407000Y-115064309D01*
X111503673Y-115297698D01*
X111682301Y-115476327D01*
X111915690Y-115573000D01*
X113506250Y-115573000D01*
X113665000Y-115414250D01*
X113665000Y-113315000D01*
X113919000Y-113315000D01*
X113919000Y-115414250D01*
X114077750Y-115573000D01*
X115668310Y-115573000D01*
X115901699Y-115476327D01*
X116080327Y-115297698D01*
X116177000Y-115064309D01*
X116177000Y-113473750D01*
X116018250Y-113315000D01*
X113919000Y-113315000D01*
X113665000Y-113315000D01*
X111565750Y-113315000D01*
X111407000Y-113473750D01*
X108660000Y-113473750D01*
X108660000Y-111311691D01*
X111407000Y-111311691D01*
X111407000Y-112902250D01*
X111565750Y-113061000D01*
X113665000Y-113061000D01*
X113665000Y-110961750D01*
X113506250Y-110803000D01*
X111915690Y-110803000D01*
X111682301Y-110899673D01*
X111503673Y-111078302D01*
X111407000Y-111311691D01*
X108660000Y-111311691D01*
X108660000Y-105438000D01*
X111394560Y-105438000D01*
X111394560Y-108938000D01*
X111443843Y-109185765D01*
X111584191Y-109395809D01*
X111794235Y-109536157D01*
X112042000Y-109585440D01*
X115542000Y-109585440D01*
X115789765Y-109536157D01*
X115999809Y-109395809D01*
X116094560Y-109254005D01*
X116094560Y-111112663D01*
X116080327Y-111078302D01*
X115901699Y-110899673D01*
X115668310Y-110803000D01*
X114077750Y-110803000D01*
X113919000Y-110961750D01*
X113919000Y-113061000D01*
X116018250Y-113061000D01*
X116177000Y-112902250D01*
X116177000Y-112235388D01*
X116284191Y-112395809D01*
X116494235Y-112536157D01*
X116742000Y-112585440D01*
X120242000Y-112585440D01*
X120489765Y-112536157D01*
X120699809Y-112395809D01*
X120840157Y-112185765D01*
X120889440Y-111938000D01*
X120889440Y-110223159D01*
X122825000Y-110223159D01*
X122825000Y-111012841D01*
X123127199Y-111742412D01*
X123685588Y-112300801D01*
X124415159Y-112603000D01*
X125204841Y-112603000D01*
X125934412Y-112300801D01*
X126492801Y-111742412D01*
X126795000Y-111012841D01*
X126795000Y-110223159D01*
X134825000Y-110223159D01*
X134825000Y-111012841D01*
X135127199Y-111742412D01*
X135685588Y-112300801D01*
X136415159Y-112603000D01*
X137204841Y-112603000D01*
X137934412Y-112300801D01*
X138492801Y-111742412D01*
X138795000Y-111012841D01*
X138795000Y-110223159D01*
X138492801Y-109493588D01*
X137934412Y-108935199D01*
X137204841Y-108633000D01*
X136415159Y-108633000D01*
X135685588Y-108935199D01*
X135127199Y-109493588D01*
X134825000Y-110223159D01*
X126795000Y-110223159D01*
X126492801Y-109493588D01*
X125934412Y-108935199D01*
X125204841Y-108633000D01*
X124415159Y-108633000D01*
X123685588Y-108935199D01*
X123127199Y-109493588D01*
X122825000Y-110223159D01*
X120889440Y-110223159D01*
X120889440Y-108438000D01*
X120840157Y-108190235D01*
X120699809Y-107980191D01*
X120489765Y-107839843D01*
X120242000Y-107790560D01*
X117544571Y-107790560D01*
X119742132Y-105593000D01*
X128164682Y-105593000D01*
X128145000Y-105640517D01*
X128145000Y-106195483D01*
X128357376Y-106708204D01*
X128567172Y-106918000D01*
X128357376Y-107127796D01*
X128145000Y-107640517D01*
X128145000Y-108195483D01*
X128357376Y-108708204D01*
X128749796Y-109100624D01*
X129262517Y-109313000D01*
X129817483Y-109313000D01*
X130330204Y-109100624D01*
X130534064Y-108896764D01*
X131280841Y-108896764D01*
X131350059Y-109138742D01*
X131872780Y-109325155D01*
X132427049Y-109297341D01*
X132809941Y-109138742D01*
X132879159Y-108896764D01*
X132080000Y-108097605D01*
X131280841Y-108896764D01*
X130534064Y-108896764D01*
X130722624Y-108708204D01*
X130803422Y-108513141D01*
X130859258Y-108647941D01*
X131101236Y-108717159D01*
X131900395Y-107918000D01*
X131101236Y-107118841D01*
X130859258Y-107188059D01*
X130807594Y-107332931D01*
X130722624Y-107127796D01*
X130512828Y-106918000D01*
X130722624Y-106708204D01*
X130810000Y-106497260D01*
X130897376Y-106708204D01*
X131289796Y-107100624D01*
X131550015Y-107208410D01*
X132080000Y-107738395D01*
X132094143Y-107724253D01*
X132273748Y-107903858D01*
X132259605Y-107918000D01*
X133058764Y-108717159D01*
X133300742Y-108647941D01*
X133487155Y-108125220D01*
X133459341Y-107570951D01*
X133300742Y-107188059D01*
X133058766Y-107118842D01*
X133124608Y-107053000D01*
X141595869Y-107053000D01*
X142080000Y-107537132D01*
X142080000Y-107742358D01*
X142309884Y-108297346D01*
X142455000Y-108442462D01*
X142455001Y-116601537D01*
X142309884Y-116746654D01*
X142080000Y-117301642D01*
X142080000Y-117902358D01*
X142309884Y-118457346D01*
X142734654Y-118882116D01*
X143289642Y-119112000D01*
X143890358Y-119112000D01*
X144445346Y-118882116D01*
X144840000Y-118487462D01*
X145234654Y-118882116D01*
X145789642Y-119112000D01*
X146390358Y-119112000D01*
X146945346Y-118882116D01*
X147122221Y-118705241D01*
X147176673Y-118836699D01*
X147355302Y-119015327D01*
X147588691Y-119112000D01*
X148304250Y-119112000D01*
X148463000Y-118953250D01*
X148463000Y-117729000D01*
X148717000Y-117729000D01*
X148717000Y-118953250D01*
X148875750Y-119112000D01*
X149591309Y-119112000D01*
X149824698Y-119015327D01*
X150003327Y-118836699D01*
X150100000Y-118603310D01*
X150100000Y-117887750D01*
X149941250Y-117729000D01*
X148717000Y-117729000D01*
X148463000Y-117729000D01*
X148443000Y-117729000D01*
X148443000Y-117475000D01*
X148463000Y-117475000D01*
X148463000Y-116250750D01*
X148717000Y-116250750D01*
X148717000Y-117475000D01*
X149941250Y-117475000D01*
X150100000Y-117316250D01*
X150100000Y-116600690D01*
X150003327Y-116367301D01*
X149824698Y-116188673D01*
X149591309Y-116092000D01*
X148875750Y-116092000D01*
X148717000Y-116250750D01*
X148463000Y-116250750D01*
X148304250Y-116092000D01*
X147588691Y-116092000D01*
X147355302Y-116188673D01*
X147225000Y-116318974D01*
X147225000Y-108725026D01*
X147355302Y-108855327D01*
X147588691Y-108952000D01*
X148304250Y-108952000D01*
X148463000Y-108793250D01*
X148463000Y-107569000D01*
X148717000Y-107569000D01*
X148717000Y-108793250D01*
X148875750Y-108952000D01*
X149591309Y-108952000D01*
X149824698Y-108855327D01*
X150003327Y-108676699D01*
X150100000Y-108443310D01*
X150100000Y-107727750D01*
X149941250Y-107569000D01*
X148717000Y-107569000D01*
X148463000Y-107569000D01*
X148443000Y-107569000D01*
X148443000Y-107315000D01*
X148463000Y-107315000D01*
X148463000Y-106090750D01*
X148717000Y-106090750D01*
X148717000Y-107315000D01*
X149941250Y-107315000D01*
X150100000Y-107156250D01*
X150100000Y-106440690D01*
X150003327Y-106207301D01*
X149824698Y-106028673D01*
X149591309Y-105932000D01*
X148875750Y-105932000D01*
X148717000Y-106090750D01*
X148463000Y-106090750D01*
X148304250Y-105932000D01*
X147588691Y-105932000D01*
X147355302Y-106028673D01*
X147176673Y-106207301D01*
X147122221Y-106338759D01*
X146945346Y-106161884D01*
X146390358Y-105932000D01*
X145789642Y-105932000D01*
X145234654Y-106161884D01*
X144840000Y-106556538D01*
X144445346Y-106161884D01*
X143890358Y-105932000D01*
X143685132Y-105932000D01*
X143201000Y-105447869D01*
X143201000Y-104784131D01*
X147802452Y-100182680D01*
X148456886Y-100182680D01*
X149149585Y-99895755D01*
X149612340Y-99433000D01*
X151631660Y-99433000D01*
X152094415Y-99895755D01*
X152787114Y-100182680D01*
X153441549Y-100182680D01*
X155155000Y-101896132D01*
X155155001Y-106441537D01*
X155009884Y-106586654D01*
X154780000Y-107141642D01*
X154780000Y-107742358D01*
X155009884Y-108297346D01*
X155155000Y-108442462D01*
X155155001Y-116601537D01*
X155009884Y-116746654D01*
X154780000Y-117301642D01*
X154780000Y-117902358D01*
X155009884Y-118457346D01*
X155434654Y-118882116D01*
X155989642Y-119112000D01*
X156590358Y-119112000D01*
X157145346Y-118882116D01*
X157540000Y-118487462D01*
X157934654Y-118882116D01*
X158489642Y-119112000D01*
X159090358Y-119112000D01*
X159645346Y-118882116D01*
X159822221Y-118705241D01*
X159876673Y-118836699D01*
X160055302Y-119015327D01*
X160288691Y-119112000D01*
X161004250Y-119112000D01*
X161163000Y-118953250D01*
X161163000Y-117729000D01*
X161417000Y-117729000D01*
X161417000Y-118953250D01*
X161575750Y-119112000D01*
X162291309Y-119112000D01*
X162524698Y-119015327D01*
X162703327Y-118836699D01*
X162800000Y-118603310D01*
X162800000Y-117887750D01*
X162641250Y-117729000D01*
X161417000Y-117729000D01*
X161163000Y-117729000D01*
X161143000Y-117729000D01*
X161143000Y-117475000D01*
X161163000Y-117475000D01*
X161163000Y-116250750D01*
X161417000Y-116250750D01*
X161417000Y-117475000D01*
X162641250Y-117475000D01*
X162800000Y-117316250D01*
X162800000Y-116600690D01*
X162703327Y-116367301D01*
X162524698Y-116188673D01*
X162291309Y-116092000D01*
X161575750Y-116092000D01*
X161417000Y-116250750D01*
X161163000Y-116250750D01*
X161004250Y-116092000D01*
X160288691Y-116092000D01*
X160055302Y-116188673D01*
X159925000Y-116318974D01*
X159925000Y-108725026D01*
X160055302Y-108855327D01*
X160288691Y-108952000D01*
X161004250Y-108952000D01*
X161163000Y-108793250D01*
X161163000Y-107569000D01*
X161417000Y-107569000D01*
X161417000Y-108793250D01*
X161575750Y-108952000D01*
X162291309Y-108952000D01*
X162524698Y-108855327D01*
X162703327Y-108676699D01*
X162800000Y-108443310D01*
X162800000Y-107727750D01*
X162641250Y-107569000D01*
X161417000Y-107569000D01*
X161163000Y-107569000D01*
X161143000Y-107569000D01*
X161143000Y-107315000D01*
X161163000Y-107315000D01*
X161163000Y-106090750D01*
X161417000Y-106090750D01*
X161417000Y-107315000D01*
X162641250Y-107315000D01*
X162800000Y-107156250D01*
X162800000Y-106440690D01*
X162703327Y-106207301D01*
X162524698Y-106028673D01*
X162291309Y-105932000D01*
X161575750Y-105932000D01*
X161417000Y-106090750D01*
X161163000Y-106090750D01*
X161004250Y-105932000D01*
X160288691Y-105932000D01*
X160055302Y-106028673D01*
X159876673Y-106207301D01*
X159822221Y-106338759D01*
X159645346Y-106161884D01*
X159090358Y-105932000D01*
X158489642Y-105932000D01*
X157934654Y-106161884D01*
X157540000Y-106556538D01*
X157425000Y-106441538D01*
X157425000Y-101537782D01*
X157447235Y-101425999D01*
X157359146Y-100983145D01*
X157340167Y-100954741D01*
X157108289Y-100607711D01*
X157013521Y-100544390D01*
X155084562Y-98615431D01*
X159055000Y-98615431D01*
X159055000Y-99504569D01*
X159395259Y-100326026D01*
X160023974Y-100954741D01*
X160845431Y-101295000D01*
X161734569Y-101295000D01*
X162556026Y-100954741D01*
X163184741Y-100326026D01*
X163525000Y-99504569D01*
X163525000Y-98615431D01*
X163184741Y-97793974D01*
X162556026Y-97165259D01*
X161734569Y-96825000D01*
X160845431Y-96825000D01*
X160023974Y-97165259D01*
X159395259Y-97793974D01*
X159055000Y-98615431D01*
X155084562Y-98615431D01*
X155046680Y-98577549D01*
X155046680Y-97923114D01*
X154759755Y-97230415D01*
X154229585Y-96700245D01*
X153536886Y-96413320D01*
X152787114Y-96413320D01*
X152094415Y-96700245D01*
X151631660Y-97163000D01*
X149612340Y-97163000D01*
X149149585Y-96700245D01*
X148456886Y-96413320D01*
X147707114Y-96413320D01*
X147014415Y-96700245D01*
X146484245Y-97230415D01*
X146197320Y-97923114D01*
X146197320Y-98577548D01*
X141342480Y-103432389D01*
X141247712Y-103495711D01*
X141151494Y-103639712D01*
X140996854Y-103871146D01*
X140908765Y-104314000D01*
X140931000Y-104425783D01*
X140931000Y-104783000D01*
X132917828Y-104783000D01*
X132870204Y-104735376D01*
X132357483Y-104523000D01*
X132290132Y-104523000D01*
X131501613Y-103734482D01*
X131438289Y-103639711D01*
X131062855Y-103388854D01*
X130731783Y-103323000D01*
X130620000Y-103300765D01*
X130508217Y-103323000D01*
X119383782Y-103323000D01*
X119271999Y-103300765D01*
X118829145Y-103388854D01*
X118453711Y-103639711D01*
X118390389Y-103734479D01*
X116189440Y-105935429D01*
X116189440Y-105438000D01*
X116140157Y-105190235D01*
X115999809Y-104980191D01*
X115789765Y-104839843D01*
X115542000Y-104790560D01*
X112042000Y-104790560D01*
X111794235Y-104839843D01*
X111584191Y-104980191D01*
X111443843Y-105190235D01*
X111394560Y-105438000D01*
X108660000Y-105438000D01*
X108660000Y-98615431D01*
X109525000Y-98615431D01*
X109525000Y-99504569D01*
X109865259Y-100326026D01*
X110493974Y-100954741D01*
X111315431Y-101295000D01*
X112204569Y-101295000D01*
X113026026Y-100954741D01*
X113654741Y-100326026D01*
X113995000Y-99504569D01*
X113995000Y-98615431D01*
X113654741Y-97793974D01*
X113026026Y-97165259D01*
X112204569Y-96825000D01*
X111315431Y-96825000D01*
X110493974Y-97165259D01*
X109865259Y-97793974D01*
X109525000Y-98615431D01*
X108660000Y-98615431D01*
X108660000Y-70256279D01*
X112803282Y-70256279D01*
X112829685Y-70846458D01*
X113004741Y-71269080D01*
X113256042Y-71349353D01*
X114120395Y-70485000D01*
X113256042Y-69620647D01*
X113004741Y-69700920D01*
X112803282Y-70256279D01*
X108660000Y-70256279D01*
X108660000Y-47329615D01*
X112815000Y-47329615D01*
X112815000Y-47920385D01*
X113041078Y-48466185D01*
X113458815Y-48883922D01*
X113485560Y-48895000D01*
X113458815Y-48906078D01*
X113041078Y-49323815D01*
X112815000Y-49869615D01*
X112815000Y-50460385D01*
X113041078Y-51006185D01*
X113458815Y-51423922D01*
X113485560Y-51435000D01*
X113458815Y-51446078D01*
X113041078Y-51863815D01*
X112815000Y-52409615D01*
X112815000Y-53000385D01*
X113041078Y-53546185D01*
X113458815Y-53963922D01*
X113485560Y-53975000D01*
X113458815Y-53986078D01*
X113041078Y-54403815D01*
X112815000Y-54949615D01*
X112815000Y-55540385D01*
X113041078Y-56086185D01*
X113458815Y-56503922D01*
X113485560Y-56515000D01*
X113458815Y-56526078D01*
X113041078Y-56943815D01*
X112815000Y-57489615D01*
X112815000Y-58080385D01*
X113041078Y-58626185D01*
X113458815Y-59043922D01*
X113485560Y-59055000D01*
X113458815Y-59066078D01*
X113041078Y-59483815D01*
X112815000Y-60029615D01*
X112815000Y-60620385D01*
X113041078Y-61166185D01*
X113458815Y-61583922D01*
X113485560Y-61595000D01*
X113458815Y-61606078D01*
X113041078Y-62023815D01*
X112815000Y-62569615D01*
X112815000Y-63160385D01*
X113041078Y-63706185D01*
X113458815Y-64123922D01*
X113485560Y-64135000D01*
X113458815Y-64146078D01*
X113041078Y-64563815D01*
X112815000Y-65109615D01*
X112815000Y-65700385D01*
X113041078Y-66246185D01*
X113458815Y-66663922D01*
X113485560Y-66675000D01*
X113458815Y-66686078D01*
X113041078Y-67103815D01*
X112815000Y-67649615D01*
X112815000Y-68240385D01*
X113041078Y-68786185D01*
X113458815Y-69203922D01*
X113505247Y-69223155D01*
X113435647Y-69441042D01*
X114300000Y-70305395D01*
X115164353Y-69441042D01*
X115094753Y-69223155D01*
X115141185Y-69203922D01*
X115558922Y-68786185D01*
X115570000Y-68759440D01*
X115581078Y-68786185D01*
X115998815Y-69203922D01*
X116025560Y-69215000D01*
X115998815Y-69226078D01*
X115581078Y-69643815D01*
X115561845Y-69690247D01*
X115343958Y-69620647D01*
X114479605Y-70485000D01*
X114493748Y-70499143D01*
X114314143Y-70678748D01*
X114300000Y-70664605D01*
X113435647Y-71528958D01*
X113505247Y-71746845D01*
X113458815Y-71766078D01*
X113041078Y-72183815D01*
X112815000Y-72729615D01*
X112815000Y-73320385D01*
X113041078Y-73866185D01*
X113458815Y-74283922D01*
X113485560Y-74295000D01*
X113458815Y-74306078D01*
X113041078Y-74723815D01*
X112815000Y-75269615D01*
X112815000Y-75860385D01*
X113041078Y-76406185D01*
X113458815Y-76823922D01*
X113485560Y-76835000D01*
X113458815Y-76846078D01*
X113041078Y-77263815D01*
X112815000Y-77809615D01*
X112815000Y-78400385D01*
X113041078Y-78946185D01*
X113458815Y-79363922D01*
X113485560Y-79375000D01*
X113458815Y-79386078D01*
X113041078Y-79803815D01*
X112815000Y-80349615D01*
X112815000Y-80940385D01*
X113041078Y-81486185D01*
X113458815Y-81903922D01*
X113485560Y-81915000D01*
X113458815Y-81926078D01*
X113041078Y-82343815D01*
X112815000Y-82889615D01*
X112815000Y-83480385D01*
X113041078Y-84026185D01*
X113458815Y-84443922D01*
X113485560Y-84455000D01*
X113458815Y-84466078D01*
X113041078Y-84883815D01*
X112815000Y-85429615D01*
X112815000Y-86020385D01*
X113041078Y-86566185D01*
X113458815Y-86983922D01*
X113485560Y-86995000D01*
X113458815Y-87006078D01*
X113041078Y-87423815D01*
X112815000Y-87969615D01*
X112815000Y-88560385D01*
X113041078Y-89106185D01*
X113458815Y-89523922D01*
X114004615Y-89750000D01*
X114595385Y-89750000D01*
X115141185Y-89523922D01*
X115376994Y-89288113D01*
X115391843Y-89362765D01*
X115532191Y-89572809D01*
X115742235Y-89713157D01*
X115990000Y-89762440D01*
X117690000Y-89762440D01*
X117937765Y-89713157D01*
X118147809Y-89572809D01*
X118288157Y-89362765D01*
X118337440Y-89115000D01*
X118337440Y-87849600D01*
X118575553Y-87849600D01*
X118650400Y-87864488D01*
X118725247Y-87849600D01*
X118725252Y-87849600D01*
X118946937Y-87805504D01*
X119198329Y-87637529D01*
X119240731Y-87574070D01*
X125092000Y-81722802D01*
X125092000Y-82066477D01*
X125305137Y-82581037D01*
X125698963Y-82974863D01*
X125899674Y-83058000D01*
X125698963Y-83141137D01*
X125305137Y-83534963D01*
X125092000Y-84049523D01*
X125092000Y-84606477D01*
X125305137Y-85121037D01*
X125698963Y-85514863D01*
X125899674Y-85598000D01*
X125698963Y-85681137D01*
X125305137Y-86074963D01*
X125092000Y-86589523D01*
X125092000Y-87146477D01*
X125305137Y-87661037D01*
X125698963Y-88054863D01*
X125899674Y-88138000D01*
X125698963Y-88221137D01*
X125305137Y-88614963D01*
X125092000Y-89129523D01*
X125092000Y-89686477D01*
X125305137Y-90201037D01*
X125698963Y-90594863D01*
X125899674Y-90678000D01*
X125698963Y-90761137D01*
X125305137Y-91154963D01*
X125092000Y-91669523D01*
X125092000Y-92226477D01*
X125305137Y-92741037D01*
X125698963Y-93134863D01*
X125899674Y-93218000D01*
X125698963Y-93301137D01*
X125305137Y-93694963D01*
X125092000Y-94209523D01*
X125092000Y-94766477D01*
X125305137Y-95281037D01*
X125698963Y-95674863D01*
X126213523Y-95888000D01*
X126770477Y-95888000D01*
X127285037Y-95674863D01*
X127678863Y-95281037D01*
X127892000Y-94766477D01*
X127892000Y-94209523D01*
X127678863Y-93694963D01*
X127285037Y-93301137D01*
X127084326Y-93218000D01*
X127285037Y-93134863D01*
X127678863Y-92741037D01*
X127892000Y-92226477D01*
X127892000Y-91669523D01*
X127678863Y-91154963D01*
X127285037Y-90761137D01*
X127084326Y-90678000D01*
X127285037Y-90594863D01*
X127678863Y-90201037D01*
X127892000Y-89686477D01*
X127892000Y-89129523D01*
X127678863Y-88614963D01*
X127285037Y-88221137D01*
X127084326Y-88138000D01*
X127285037Y-88054863D01*
X127678863Y-87661037D01*
X127892000Y-87146477D01*
X127892000Y-86589523D01*
X127678863Y-86074963D01*
X127285037Y-85681137D01*
X127084326Y-85598000D01*
X127285037Y-85514863D01*
X127678863Y-85121037D01*
X127892000Y-84606477D01*
X127892000Y-84049523D01*
X127678863Y-83534963D01*
X127285037Y-83141137D01*
X127084326Y-83058000D01*
X127285037Y-82974863D01*
X127678863Y-82581037D01*
X127892000Y-82066477D01*
X127892000Y-81509523D01*
X127678863Y-80994963D01*
X127285037Y-80601137D01*
X127084326Y-80518000D01*
X127285037Y-80434863D01*
X127678863Y-80041037D01*
X127892000Y-79526477D01*
X127892000Y-78969523D01*
X127678863Y-78454963D01*
X127285037Y-78061137D01*
X127084326Y-77978000D01*
X127285037Y-77894863D01*
X127678863Y-77501037D01*
X127892000Y-76986477D01*
X127892000Y-76429523D01*
X127678863Y-75914963D01*
X127285037Y-75521137D01*
X127084326Y-75438000D01*
X127285037Y-75354863D01*
X127678863Y-74961037D01*
X127892000Y-74446477D01*
X127892000Y-73889523D01*
X140332000Y-73889523D01*
X140332000Y-74446477D01*
X140545137Y-74961037D01*
X140938963Y-75354863D01*
X141139674Y-75438000D01*
X140938963Y-75521137D01*
X140545137Y-75914963D01*
X140332000Y-76429523D01*
X140332000Y-76986477D01*
X140545137Y-77501037D01*
X140938963Y-77894863D01*
X141139674Y-77978000D01*
X140938963Y-78061137D01*
X140545137Y-78454963D01*
X140332000Y-78969523D01*
X140332000Y-79526477D01*
X140545137Y-80041037D01*
X140938963Y-80434863D01*
X141139674Y-80518000D01*
X140938963Y-80601137D01*
X140545137Y-80994963D01*
X140332000Y-81509523D01*
X140332000Y-82066477D01*
X140545137Y-82581037D01*
X140938963Y-82974863D01*
X141139674Y-83058000D01*
X140938963Y-83141137D01*
X140545137Y-83534963D01*
X140332000Y-84049523D01*
X140332000Y-84606477D01*
X140545137Y-85121037D01*
X140938963Y-85514863D01*
X141139674Y-85598000D01*
X140938963Y-85681137D01*
X140545137Y-86074963D01*
X140332000Y-86589523D01*
X140332000Y-87146477D01*
X140545137Y-87661037D01*
X140938963Y-88054863D01*
X141139674Y-88138000D01*
X140938963Y-88221137D01*
X140545137Y-88614963D01*
X140332000Y-89129523D01*
X140332000Y-89686477D01*
X140545137Y-90201037D01*
X140938963Y-90594863D01*
X141139674Y-90678000D01*
X140938963Y-90761137D01*
X140545137Y-91154963D01*
X140332000Y-91669523D01*
X140332000Y-92226477D01*
X140545137Y-92741037D01*
X140938963Y-93134863D01*
X141139674Y-93218000D01*
X140938963Y-93301137D01*
X140545137Y-93694963D01*
X140332000Y-94209523D01*
X140332000Y-94766477D01*
X140545137Y-95281037D01*
X140938963Y-95674863D01*
X141453523Y-95888000D01*
X142010477Y-95888000D01*
X142525037Y-95674863D01*
X142918863Y-95281037D01*
X143132000Y-94766477D01*
X143132000Y-94209523D01*
X142918863Y-93694963D01*
X142525037Y-93301137D01*
X142324326Y-93218000D01*
X142525037Y-93134863D01*
X142689786Y-92970114D01*
X146197320Y-92970114D01*
X146197320Y-93719886D01*
X146484245Y-94412585D01*
X147014415Y-94942755D01*
X147707114Y-95229680D01*
X148456886Y-95229680D01*
X149149585Y-94942755D01*
X149679755Y-94412585D01*
X149966680Y-93719886D01*
X149966680Y-92970114D01*
X151277320Y-92970114D01*
X151277320Y-93719886D01*
X151564245Y-94412585D01*
X152094415Y-94942755D01*
X152787114Y-95229680D01*
X153536886Y-95229680D01*
X154229585Y-94942755D01*
X154759755Y-94412585D01*
X155046680Y-93719886D01*
X155046680Y-93345000D01*
X155965908Y-93345000D01*
X156081161Y-93924418D01*
X156409375Y-94415625D01*
X156900582Y-94743839D01*
X157333744Y-94830000D01*
X157626256Y-94830000D01*
X158059418Y-94743839D01*
X158550625Y-94415625D01*
X158562816Y-94397381D01*
X158571843Y-94442765D01*
X158712191Y-94652809D01*
X158922235Y-94793157D01*
X159170000Y-94842440D01*
X160870000Y-94842440D01*
X161117765Y-94793157D01*
X161327809Y-94652809D01*
X161468157Y-94442765D01*
X161517440Y-94195000D01*
X161517440Y-92495000D01*
X161468157Y-92247235D01*
X161327809Y-92037191D01*
X161117765Y-91896843D01*
X160870000Y-91847560D01*
X159170000Y-91847560D01*
X159127000Y-91856113D01*
X159127000Y-89803050D01*
X159149809Y-89787809D01*
X159290157Y-89577765D01*
X159339440Y-89330000D01*
X159339440Y-88130000D01*
X159290157Y-87882235D01*
X159149809Y-87672191D01*
X159086666Y-87630000D01*
X159149809Y-87587809D01*
X159290157Y-87377765D01*
X159339440Y-87130000D01*
X159339440Y-85930000D01*
X159290157Y-85682235D01*
X159149809Y-85472191D01*
X159127000Y-85456950D01*
X159127000Y-84460580D01*
X159167864Y-84443654D01*
X159627654Y-83983864D01*
X159876490Y-83383120D01*
X159876490Y-82732880D01*
X159627654Y-82132136D01*
X159167864Y-81672346D01*
X158567120Y-81423510D01*
X157916880Y-81423510D01*
X157316136Y-81672346D01*
X156856346Y-82132136D01*
X156607510Y-82732880D01*
X156607510Y-83383120D01*
X156856346Y-83983864D01*
X157316136Y-84443654D01*
X157357000Y-84460581D01*
X157357001Y-85456950D01*
X157334191Y-85472191D01*
X157193843Y-85682235D01*
X157144560Y-85930000D01*
X157144560Y-87130000D01*
X157193843Y-87377765D01*
X157334191Y-87587809D01*
X157397334Y-87630000D01*
X157334191Y-87672191D01*
X157193843Y-87882235D01*
X157167224Y-88016060D01*
X156918771Y-88182071D01*
X156750796Y-88433463D01*
X156691811Y-88730000D01*
X156750796Y-89026537D01*
X156918771Y-89277929D01*
X157167224Y-89443940D01*
X157193843Y-89577765D01*
X157334191Y-89787809D01*
X157357000Y-89803050D01*
X157357001Y-91860000D01*
X157333744Y-91860000D01*
X156900582Y-91946161D01*
X156409375Y-92274375D01*
X156081161Y-92765582D01*
X155965908Y-93345000D01*
X155046680Y-93345000D01*
X155046680Y-92970114D01*
X154759755Y-92277415D01*
X154229585Y-91747245D01*
X154047000Y-91671616D01*
X154047000Y-89887050D01*
X154069809Y-89871809D01*
X154210157Y-89661765D01*
X154236776Y-89527940D01*
X154485229Y-89361929D01*
X154653204Y-89110537D01*
X154712189Y-88814000D01*
X154653204Y-88517463D01*
X154485229Y-88266071D01*
X154236776Y-88100060D01*
X154210157Y-87966235D01*
X154069809Y-87756191D01*
X154006666Y-87714000D01*
X154069809Y-87671809D01*
X154210157Y-87461765D01*
X154259440Y-87214000D01*
X154259440Y-86014000D01*
X154210157Y-85766235D01*
X154069809Y-85556191D01*
X154047000Y-85540950D01*
X154047000Y-84460580D01*
X154087864Y-84443654D01*
X154547654Y-83983864D01*
X154796490Y-83383120D01*
X154796490Y-82732880D01*
X154547654Y-82132136D01*
X154087864Y-81672346D01*
X153487120Y-81423510D01*
X152836880Y-81423510D01*
X152236136Y-81672346D01*
X151776346Y-82132136D01*
X151527510Y-82732880D01*
X151527510Y-83383120D01*
X151776346Y-83983864D01*
X152236136Y-84443654D01*
X152277000Y-84460581D01*
X152277001Y-85540950D01*
X152254191Y-85556191D01*
X152113843Y-85766235D01*
X152064560Y-86014000D01*
X152064560Y-87214000D01*
X152113843Y-87461765D01*
X152254191Y-87671809D01*
X152317334Y-87714000D01*
X152254191Y-87756191D01*
X152113843Y-87966235D01*
X152064560Y-88214000D01*
X152064560Y-89414000D01*
X152113843Y-89661765D01*
X152254191Y-89871809D01*
X152277001Y-89887050D01*
X152277000Y-91671616D01*
X152094415Y-91747245D01*
X151564245Y-92277415D01*
X151277320Y-92970114D01*
X149966680Y-92970114D01*
X149679755Y-92277415D01*
X149149585Y-91747245D01*
X148967000Y-91671616D01*
X148967000Y-89973050D01*
X148989809Y-89957809D01*
X149130157Y-89747765D01*
X149179440Y-89500000D01*
X149179440Y-88300000D01*
X149130157Y-88052235D01*
X148989809Y-87842191D01*
X148926666Y-87800000D01*
X148989809Y-87757809D01*
X149130157Y-87547765D01*
X149179440Y-87300000D01*
X149179440Y-86100000D01*
X149130157Y-85852235D01*
X148989809Y-85642191D01*
X148967000Y-85626950D01*
X148967000Y-84460580D01*
X149007864Y-84443654D01*
X149467654Y-83983864D01*
X149716490Y-83383120D01*
X149716490Y-82732880D01*
X149467654Y-82132136D01*
X149007864Y-81672346D01*
X148407120Y-81423510D01*
X147756880Y-81423510D01*
X147156136Y-81672346D01*
X146696346Y-82132136D01*
X146447510Y-82732880D01*
X146447510Y-83383120D01*
X146696346Y-83983864D01*
X147156136Y-84443654D01*
X147197000Y-84460581D01*
X147197001Y-85626950D01*
X147174191Y-85642191D01*
X147033843Y-85852235D01*
X146984560Y-86100000D01*
X146984560Y-87300000D01*
X147033843Y-87547765D01*
X147174191Y-87757809D01*
X147237334Y-87800000D01*
X147174191Y-87842191D01*
X147033843Y-88052235D01*
X146984560Y-88300000D01*
X146984560Y-89500000D01*
X147033843Y-89747765D01*
X147174191Y-89957809D01*
X147197001Y-89973050D01*
X147197000Y-91671616D01*
X147014415Y-91747245D01*
X146484245Y-92277415D01*
X146197320Y-92970114D01*
X142689786Y-92970114D01*
X142918863Y-92741037D01*
X143132000Y-92226477D01*
X143132000Y-91669523D01*
X142918863Y-91154963D01*
X142525037Y-90761137D01*
X142324326Y-90678000D01*
X142525037Y-90594863D01*
X142918863Y-90201037D01*
X143132000Y-89686477D01*
X143132000Y-89129523D01*
X142918863Y-88614963D01*
X142525037Y-88221137D01*
X142324326Y-88138000D01*
X142525037Y-88054863D01*
X142918863Y-87661037D01*
X143132000Y-87146477D01*
X143132000Y-86589523D01*
X142918863Y-86074963D01*
X142525037Y-85681137D01*
X142324326Y-85598000D01*
X142525037Y-85514863D01*
X142918863Y-85121037D01*
X143132000Y-84606477D01*
X143132000Y-84049523D01*
X142918863Y-83534963D01*
X142525037Y-83141137D01*
X142324326Y-83058000D01*
X142525037Y-82974863D01*
X142918863Y-82581037D01*
X143132000Y-82066477D01*
X143132000Y-81509523D01*
X142918863Y-80994963D01*
X142525037Y-80601137D01*
X142324326Y-80518000D01*
X142525037Y-80434863D01*
X142918863Y-80041037D01*
X143132000Y-79526477D01*
X143132000Y-78969523D01*
X142918863Y-78454963D01*
X142525037Y-78061137D01*
X142324326Y-77978000D01*
X142525037Y-77894863D01*
X142767020Y-77652880D01*
X146447510Y-77652880D01*
X146447510Y-78303120D01*
X146696346Y-78903864D01*
X147156136Y-79363654D01*
X147756880Y-79612490D01*
X148407120Y-79612490D01*
X149007864Y-79363654D01*
X149467654Y-78903864D01*
X149716490Y-78303120D01*
X149716490Y-77652880D01*
X151527510Y-77652880D01*
X151527510Y-78303120D01*
X151776346Y-78903864D01*
X152236136Y-79363654D01*
X152836880Y-79612490D01*
X153487120Y-79612490D01*
X154087864Y-79363654D01*
X154547654Y-78903864D01*
X154796490Y-78303120D01*
X154796490Y-77652880D01*
X156607510Y-77652880D01*
X156607510Y-78303120D01*
X156856346Y-78903864D01*
X157316136Y-79363654D01*
X157916880Y-79612490D01*
X158567120Y-79612490D01*
X159167864Y-79363654D01*
X159627654Y-78903864D01*
X159876490Y-78303120D01*
X159876490Y-77652880D01*
X159627654Y-77052136D01*
X159167864Y-76592346D01*
X158567120Y-76343510D01*
X157916880Y-76343510D01*
X157316136Y-76592346D01*
X156856346Y-77052136D01*
X156607510Y-77652880D01*
X154796490Y-77652880D01*
X154547654Y-77052136D01*
X154087864Y-76592346D01*
X153487120Y-76343510D01*
X152836880Y-76343510D01*
X152236136Y-76592346D01*
X151776346Y-77052136D01*
X151527510Y-77652880D01*
X149716490Y-77652880D01*
X149467654Y-77052136D01*
X149007864Y-76592346D01*
X148407120Y-76343510D01*
X147756880Y-76343510D01*
X147156136Y-76592346D01*
X146696346Y-77052136D01*
X146447510Y-77652880D01*
X142767020Y-77652880D01*
X142918863Y-77501037D01*
X143132000Y-76986477D01*
X143132000Y-76429523D01*
X142918863Y-75914963D01*
X142525037Y-75521137D01*
X142324326Y-75438000D01*
X142525037Y-75354863D01*
X142918863Y-74961037D01*
X143132000Y-74446477D01*
X143132000Y-73889523D01*
X142918863Y-73374963D01*
X142525037Y-72981137D01*
X142340176Y-72904565D01*
X142464949Y-72852883D01*
X142534782Y-72610387D01*
X142497275Y-72572880D01*
X146447510Y-72572880D01*
X146447510Y-73223120D01*
X146696346Y-73823864D01*
X147156136Y-74283654D01*
X147756880Y-74532490D01*
X148407120Y-74532490D01*
X149007864Y-74283654D01*
X149467654Y-73823864D01*
X149716490Y-73223120D01*
X149716490Y-72572880D01*
X151527510Y-72572880D01*
X151527510Y-73223120D01*
X151776346Y-73823864D01*
X152236136Y-74283654D01*
X152836880Y-74532490D01*
X153487120Y-74532490D01*
X154087864Y-74283654D01*
X154547654Y-73823864D01*
X154796490Y-73223120D01*
X154796490Y-72572880D01*
X156607510Y-72572880D01*
X156607510Y-73223120D01*
X156856346Y-73823864D01*
X157316136Y-74283654D01*
X157916880Y-74532490D01*
X158567120Y-74532490D01*
X159167864Y-74283654D01*
X159627654Y-73823864D01*
X159876490Y-73223120D01*
X159876490Y-72572880D01*
X159627654Y-71972136D01*
X159167864Y-71512346D01*
X158567120Y-71263510D01*
X157916880Y-71263510D01*
X157316136Y-71512346D01*
X156856346Y-71972136D01*
X156607510Y-72572880D01*
X154796490Y-72572880D01*
X154547654Y-71972136D01*
X154087864Y-71512346D01*
X153487120Y-71263510D01*
X152836880Y-71263510D01*
X152236136Y-71512346D01*
X151776346Y-71972136D01*
X151527510Y-72572880D01*
X149716490Y-72572880D01*
X149467654Y-71972136D01*
X149007864Y-71512346D01*
X148407120Y-71263510D01*
X147756880Y-71263510D01*
X147156136Y-71512346D01*
X146696346Y-71972136D01*
X146447510Y-72572880D01*
X142497275Y-72572880D01*
X141732000Y-71807605D01*
X140929218Y-72610387D01*
X140999051Y-72852883D01*
X141133083Y-72900730D01*
X140938963Y-72981137D01*
X140545137Y-73374963D01*
X140332000Y-73889523D01*
X127892000Y-73889523D01*
X127678863Y-73374963D01*
X127285037Y-72981137D01*
X127084326Y-72898000D01*
X127285037Y-72814863D01*
X127678863Y-72421037D01*
X127892000Y-71906477D01*
X127892000Y-71419586D01*
X140319868Y-71419586D01*
X140347604Y-71975850D01*
X140507117Y-72360949D01*
X140749613Y-72430782D01*
X141552395Y-71628000D01*
X141911605Y-71628000D01*
X142714387Y-72430782D01*
X142956883Y-72360949D01*
X143144132Y-71836414D01*
X143116396Y-71280150D01*
X142956883Y-70895051D01*
X142714387Y-70825218D01*
X141911605Y-71628000D01*
X141552395Y-71628000D01*
X140749613Y-70825218D01*
X140507117Y-70895051D01*
X140319868Y-71419586D01*
X127892000Y-71419586D01*
X127892000Y-71349523D01*
X127678863Y-70834963D01*
X127285037Y-70441137D01*
X127084326Y-70358000D01*
X127285037Y-70274863D01*
X127678863Y-69881037D01*
X127892000Y-69366477D01*
X127892000Y-68809523D01*
X127678863Y-68294963D01*
X127285037Y-67901137D01*
X127084326Y-67818000D01*
X127285037Y-67734863D01*
X127678863Y-67341037D01*
X127892000Y-66826477D01*
X127892000Y-66269523D01*
X127678863Y-65754963D01*
X127285037Y-65361137D01*
X127084326Y-65278000D01*
X127285037Y-65194863D01*
X127678863Y-64801037D01*
X127892000Y-64286477D01*
X127892000Y-63729523D01*
X127678863Y-63214963D01*
X127285037Y-62821137D01*
X127084326Y-62738000D01*
X127285037Y-62654863D01*
X127678863Y-62261037D01*
X127892000Y-61746477D01*
X127892000Y-61189523D01*
X127678863Y-60674963D01*
X127285037Y-60281137D01*
X127084326Y-60198000D01*
X127285037Y-60114863D01*
X127678863Y-59721037D01*
X127892000Y-59206477D01*
X127892000Y-58649523D01*
X127678863Y-58134963D01*
X127285037Y-57741137D01*
X127084326Y-57658000D01*
X127285037Y-57574863D01*
X127678863Y-57181037D01*
X127892000Y-56666477D01*
X127892000Y-56109523D01*
X127678863Y-55594963D01*
X127285037Y-55201137D01*
X127084326Y-55118000D01*
X127285037Y-55034863D01*
X127678863Y-54641037D01*
X127892000Y-54126477D01*
X127892000Y-53569523D01*
X127678863Y-53054963D01*
X127285037Y-52661137D01*
X127084326Y-52578000D01*
X127285037Y-52494863D01*
X127678863Y-52101037D01*
X127892000Y-51586477D01*
X127892000Y-51029523D01*
X127678863Y-50514963D01*
X127285037Y-50121137D01*
X127084326Y-50038000D01*
X127285037Y-49954863D01*
X127678863Y-49561037D01*
X127892000Y-49046477D01*
X127892000Y-48489523D01*
X127678863Y-47974963D01*
X127285037Y-47581137D01*
X127084326Y-47498000D01*
X127285037Y-47414863D01*
X127678863Y-47021037D01*
X127892000Y-46506477D01*
X127892000Y-45949523D01*
X127678863Y-45434963D01*
X127285037Y-45041137D01*
X127084326Y-44958000D01*
X127285037Y-44874863D01*
X127678863Y-44481037D01*
X127892000Y-43966477D01*
X127892000Y-43409523D01*
X127678863Y-42894963D01*
X127285037Y-42501137D01*
X127084326Y-42418000D01*
X127285037Y-42334863D01*
X127678863Y-41941037D01*
X127892000Y-41426477D01*
X127892000Y-40869523D01*
X127678863Y-40354963D01*
X127285037Y-39961137D01*
X127084326Y-39878000D01*
X127285037Y-39794863D01*
X127678863Y-39401037D01*
X127892000Y-38886477D01*
X127892000Y-38329523D01*
X127678863Y-37814963D01*
X127285037Y-37421137D01*
X127100176Y-37344565D01*
X127224949Y-37292883D01*
X127294782Y-37050387D01*
X126492000Y-36247605D01*
X125689218Y-37050387D01*
X125759051Y-37292883D01*
X125893083Y-37340730D01*
X125698963Y-37421137D01*
X125305137Y-37814963D01*
X125291453Y-37848000D01*
X123391848Y-37848000D01*
X123317000Y-37833112D01*
X123242152Y-37848000D01*
X123242148Y-37848000D01*
X123068605Y-37882520D01*
X123020462Y-37892096D01*
X122833418Y-38017076D01*
X122769071Y-38060071D01*
X122726671Y-38123527D01*
X114676571Y-46173628D01*
X114595385Y-46140000D01*
X114004615Y-46140000D01*
X113458815Y-46366078D01*
X113041078Y-46783815D01*
X112815000Y-47329615D01*
X108660000Y-47329615D01*
X108660000Y-36385431D01*
X109525000Y-36385431D01*
X109525000Y-37274569D01*
X109865259Y-38096026D01*
X110493974Y-38724741D01*
X111315431Y-39065000D01*
X112204569Y-39065000D01*
X113026026Y-38724741D01*
X113654741Y-38096026D01*
X113995000Y-37274569D01*
X113995000Y-36893089D01*
X116956517Y-36893089D01*
X117085725Y-37185859D01*
X117785883Y-37454071D01*
X118535384Y-37433928D01*
X119134275Y-37185859D01*
X119263483Y-36893089D01*
X120766517Y-36893089D01*
X120895725Y-37185859D01*
X121595883Y-37454071D01*
X122345384Y-37433928D01*
X122944275Y-37185859D01*
X123073483Y-36893089D01*
X121920000Y-35739605D01*
X120766517Y-36893089D01*
X119263483Y-36893089D01*
X118110000Y-35739605D01*
X116956517Y-36893089D01*
X113995000Y-36893089D01*
X113995000Y-36385431D01*
X113654741Y-35563974D01*
X113326650Y-35235883D01*
X116215929Y-35235883D01*
X116236072Y-35985384D01*
X116484141Y-36584275D01*
X116776911Y-36713483D01*
X117930395Y-35560000D01*
X118289605Y-35560000D01*
X119443089Y-36713483D01*
X119735859Y-36584275D01*
X120004071Y-35884117D01*
X119986650Y-35235883D01*
X120025929Y-35235883D01*
X120046072Y-35985384D01*
X120294141Y-36584275D01*
X120586911Y-36713483D01*
X121740395Y-35560000D01*
X122099605Y-35560000D01*
X123253089Y-36713483D01*
X123545859Y-36584275D01*
X123814071Y-35884117D01*
X123813412Y-35859586D01*
X125079868Y-35859586D01*
X125107604Y-36415850D01*
X125267117Y-36800949D01*
X125509613Y-36870782D01*
X126312395Y-36068000D01*
X126671605Y-36068000D01*
X127474387Y-36870782D01*
X127716883Y-36800949D01*
X127904132Y-36276414D01*
X127879856Y-35789523D01*
X140332000Y-35789523D01*
X140332000Y-36346477D01*
X140545137Y-36861037D01*
X140938963Y-37254863D01*
X141139674Y-37338000D01*
X140938963Y-37421137D01*
X140545137Y-37814963D01*
X140332000Y-38329523D01*
X140332000Y-38886477D01*
X140545137Y-39401037D01*
X140938963Y-39794863D01*
X141139674Y-39878000D01*
X140938963Y-39961137D01*
X140545137Y-40354963D01*
X140332000Y-40869523D01*
X140332000Y-41426477D01*
X140545137Y-41941037D01*
X140938963Y-42334863D01*
X141139674Y-42418000D01*
X140938963Y-42501137D01*
X140545137Y-42894963D01*
X140332000Y-43409523D01*
X140332000Y-43966477D01*
X140545137Y-44481037D01*
X140938963Y-44874863D01*
X141139674Y-44958000D01*
X140938963Y-45041137D01*
X140545137Y-45434963D01*
X140332000Y-45949523D01*
X140332000Y-46506477D01*
X140545137Y-47021037D01*
X140938963Y-47414863D01*
X141139674Y-47498000D01*
X140938963Y-47581137D01*
X140545137Y-47974963D01*
X140332000Y-48489523D01*
X140332000Y-49046477D01*
X140545137Y-49561037D01*
X140938963Y-49954863D01*
X141139674Y-50038000D01*
X140938963Y-50121137D01*
X140545137Y-50514963D01*
X140332000Y-51029523D01*
X140332000Y-51586477D01*
X140545137Y-52101037D01*
X140938963Y-52494863D01*
X141139674Y-52578000D01*
X140938963Y-52661137D01*
X140545137Y-53054963D01*
X140332000Y-53569523D01*
X140332000Y-54126477D01*
X140545137Y-54641037D01*
X140938963Y-55034863D01*
X141139674Y-55118000D01*
X140938963Y-55201137D01*
X140545137Y-55594963D01*
X140332000Y-56109523D01*
X140332000Y-56666477D01*
X140545137Y-57181037D01*
X140938963Y-57574863D01*
X141139674Y-57658000D01*
X140938963Y-57741137D01*
X140545137Y-58134963D01*
X140332000Y-58649523D01*
X140332000Y-59206477D01*
X140545137Y-59721037D01*
X140938963Y-60114863D01*
X141139674Y-60198000D01*
X140938963Y-60281137D01*
X140545137Y-60674963D01*
X140332000Y-61189523D01*
X140332000Y-61746477D01*
X140545137Y-62261037D01*
X140938963Y-62654863D01*
X141139674Y-62738000D01*
X140938963Y-62821137D01*
X140545137Y-63214963D01*
X140332000Y-63729523D01*
X140332000Y-64286477D01*
X140545137Y-64801037D01*
X140938963Y-65194863D01*
X141139674Y-65278000D01*
X140938963Y-65361137D01*
X140545137Y-65754963D01*
X140332000Y-66269523D01*
X140332000Y-66826477D01*
X140545137Y-67341037D01*
X140938963Y-67734863D01*
X141139674Y-67818000D01*
X140938963Y-67901137D01*
X140545137Y-68294963D01*
X140332000Y-68809523D01*
X140332000Y-69366477D01*
X140545137Y-69881037D01*
X140938963Y-70274863D01*
X141123824Y-70351435D01*
X140999051Y-70403117D01*
X140929218Y-70645613D01*
X141732000Y-71448395D01*
X142534782Y-70645613D01*
X142464949Y-70403117D01*
X142330917Y-70355270D01*
X142525037Y-70274863D01*
X142918863Y-69881037D01*
X143132000Y-69366477D01*
X143132000Y-68809523D01*
X142918863Y-68294963D01*
X142525037Y-67901137D01*
X142324326Y-67818000D01*
X142525037Y-67734863D01*
X142767020Y-67492880D01*
X146447510Y-67492880D01*
X146447510Y-68143120D01*
X146696346Y-68743864D01*
X147156136Y-69203654D01*
X147756880Y-69452490D01*
X148407120Y-69452490D01*
X149007864Y-69203654D01*
X149467654Y-68743864D01*
X149716490Y-68143120D01*
X149716490Y-67492880D01*
X151527510Y-67492880D01*
X151527510Y-68143120D01*
X151776346Y-68743864D01*
X152236136Y-69203654D01*
X152836880Y-69452490D01*
X153487120Y-69452490D01*
X154087864Y-69203654D01*
X154547654Y-68743864D01*
X154796490Y-68143120D01*
X154796490Y-67492880D01*
X156607510Y-67492880D01*
X156607510Y-68143120D01*
X156856346Y-68743864D01*
X157316136Y-69203654D01*
X157916880Y-69452490D01*
X158567120Y-69452490D01*
X159167864Y-69203654D01*
X159627654Y-68743864D01*
X159876490Y-68143120D01*
X159876490Y-67492880D01*
X159627654Y-66892136D01*
X159167864Y-66432346D01*
X158567120Y-66183510D01*
X157916880Y-66183510D01*
X157316136Y-66432346D01*
X156856346Y-66892136D01*
X156607510Y-67492880D01*
X154796490Y-67492880D01*
X154547654Y-66892136D01*
X154087864Y-66432346D01*
X153487120Y-66183510D01*
X152836880Y-66183510D01*
X152236136Y-66432346D01*
X151776346Y-66892136D01*
X151527510Y-67492880D01*
X149716490Y-67492880D01*
X149467654Y-66892136D01*
X149007864Y-66432346D01*
X148407120Y-66183510D01*
X147756880Y-66183510D01*
X147156136Y-66432346D01*
X146696346Y-66892136D01*
X146447510Y-67492880D01*
X142767020Y-67492880D01*
X142918863Y-67341037D01*
X143132000Y-66826477D01*
X143132000Y-66269523D01*
X142918863Y-65754963D01*
X142525037Y-65361137D01*
X142324326Y-65278000D01*
X142525037Y-65194863D01*
X142918863Y-64801037D01*
X143132000Y-64286477D01*
X143132000Y-63729523D01*
X142918863Y-63214963D01*
X142525037Y-62821137D01*
X142324326Y-62738000D01*
X142525037Y-62654863D01*
X142767020Y-62412880D01*
X146447510Y-62412880D01*
X146447510Y-63063120D01*
X146696346Y-63663864D01*
X147156136Y-64123654D01*
X147756880Y-64372490D01*
X148407120Y-64372490D01*
X149007864Y-64123654D01*
X149467654Y-63663864D01*
X149716490Y-63063120D01*
X149716490Y-62412880D01*
X151527510Y-62412880D01*
X151527510Y-63063120D01*
X151776346Y-63663864D01*
X152236136Y-64123654D01*
X152836880Y-64372490D01*
X153487120Y-64372490D01*
X154087864Y-64123654D01*
X154547654Y-63663864D01*
X154796490Y-63063120D01*
X154796490Y-62412880D01*
X156607510Y-62412880D01*
X156607510Y-63063120D01*
X156856346Y-63663864D01*
X157316136Y-64123654D01*
X157916880Y-64372490D01*
X158567120Y-64372490D01*
X159167864Y-64123654D01*
X159627654Y-63663864D01*
X159876490Y-63063120D01*
X159876490Y-62412880D01*
X159627654Y-61812136D01*
X159167864Y-61352346D01*
X158567120Y-61103510D01*
X157916880Y-61103510D01*
X157316136Y-61352346D01*
X156856346Y-61812136D01*
X156607510Y-62412880D01*
X154796490Y-62412880D01*
X154547654Y-61812136D01*
X154087864Y-61352346D01*
X153487120Y-61103510D01*
X152836880Y-61103510D01*
X152236136Y-61352346D01*
X151776346Y-61812136D01*
X151527510Y-62412880D01*
X149716490Y-62412880D01*
X149467654Y-61812136D01*
X149007864Y-61352346D01*
X148407120Y-61103510D01*
X147756880Y-61103510D01*
X147156136Y-61352346D01*
X146696346Y-61812136D01*
X146447510Y-62412880D01*
X142767020Y-62412880D01*
X142918863Y-62261037D01*
X143132000Y-61746477D01*
X143132000Y-61189523D01*
X142918863Y-60674963D01*
X142525037Y-60281137D01*
X142324326Y-60198000D01*
X142525037Y-60114863D01*
X142918863Y-59721037D01*
X143132000Y-59206477D01*
X143132000Y-58649523D01*
X142918863Y-58134963D01*
X142525037Y-57741137D01*
X142324326Y-57658000D01*
X142525037Y-57574863D01*
X142767020Y-57332880D01*
X146447510Y-57332880D01*
X146447510Y-57983120D01*
X146696346Y-58583864D01*
X147156136Y-59043654D01*
X147756880Y-59292490D01*
X148407120Y-59292490D01*
X149007864Y-59043654D01*
X149467654Y-58583864D01*
X149716490Y-57983120D01*
X149716490Y-57332880D01*
X151527510Y-57332880D01*
X151527510Y-57983120D01*
X151776346Y-58583864D01*
X152236136Y-59043654D01*
X152836880Y-59292490D01*
X153487120Y-59292490D01*
X154087864Y-59043654D01*
X154547654Y-58583864D01*
X154796490Y-57983120D01*
X154796490Y-57332880D01*
X156607510Y-57332880D01*
X156607510Y-57983120D01*
X156856346Y-58583864D01*
X157316136Y-59043654D01*
X157916880Y-59292490D01*
X158567120Y-59292490D01*
X159167864Y-59043654D01*
X159627654Y-58583864D01*
X159876490Y-57983120D01*
X159876490Y-57332880D01*
X159627654Y-56732136D01*
X159167864Y-56272346D01*
X158567120Y-56023510D01*
X157916880Y-56023510D01*
X157316136Y-56272346D01*
X156856346Y-56732136D01*
X156607510Y-57332880D01*
X154796490Y-57332880D01*
X154547654Y-56732136D01*
X154087864Y-56272346D01*
X153487120Y-56023510D01*
X152836880Y-56023510D01*
X152236136Y-56272346D01*
X151776346Y-56732136D01*
X151527510Y-57332880D01*
X149716490Y-57332880D01*
X149467654Y-56732136D01*
X149007864Y-56272346D01*
X148407120Y-56023510D01*
X147756880Y-56023510D01*
X147156136Y-56272346D01*
X146696346Y-56732136D01*
X146447510Y-57332880D01*
X142767020Y-57332880D01*
X142918863Y-57181037D01*
X143132000Y-56666477D01*
X143132000Y-56109523D01*
X142918863Y-55594963D01*
X142525037Y-55201137D01*
X142324326Y-55118000D01*
X142525037Y-55034863D01*
X142918863Y-54641037D01*
X143132000Y-54126477D01*
X143132000Y-53569523D01*
X142918863Y-53054963D01*
X142525037Y-52661137D01*
X142324326Y-52578000D01*
X142525037Y-52494863D01*
X142767020Y-52252880D01*
X146447510Y-52252880D01*
X146447510Y-52903120D01*
X146696346Y-53503864D01*
X147156136Y-53963654D01*
X147756880Y-54212490D01*
X148407120Y-54212490D01*
X149007864Y-53963654D01*
X149467654Y-53503864D01*
X149716490Y-52903120D01*
X149716490Y-52252880D01*
X151527510Y-52252880D01*
X151527510Y-52903120D01*
X151776346Y-53503864D01*
X152236136Y-53963654D01*
X152836880Y-54212490D01*
X153487120Y-54212490D01*
X154087864Y-53963654D01*
X154547654Y-53503864D01*
X154796490Y-52903120D01*
X154796490Y-52252880D01*
X156607510Y-52252880D01*
X156607510Y-52903120D01*
X156856346Y-53503864D01*
X157316136Y-53963654D01*
X157916880Y-54212490D01*
X158567120Y-54212490D01*
X159167864Y-53963654D01*
X159627654Y-53503864D01*
X159876490Y-52903120D01*
X159876490Y-52252880D01*
X159627654Y-51652136D01*
X159167864Y-51192346D01*
X158567120Y-50943510D01*
X157916880Y-50943510D01*
X157316136Y-51192346D01*
X156856346Y-51652136D01*
X156607510Y-52252880D01*
X154796490Y-52252880D01*
X154547654Y-51652136D01*
X154087864Y-51192346D01*
X153487120Y-50943510D01*
X152836880Y-50943510D01*
X152236136Y-51192346D01*
X151776346Y-51652136D01*
X151527510Y-52252880D01*
X149716490Y-52252880D01*
X149467654Y-51652136D01*
X149007864Y-51192346D01*
X148407120Y-50943510D01*
X147756880Y-50943510D01*
X147156136Y-51192346D01*
X146696346Y-51652136D01*
X146447510Y-52252880D01*
X142767020Y-52252880D01*
X142918863Y-52101037D01*
X143132000Y-51586477D01*
X143132000Y-51029523D01*
X142918863Y-50514963D01*
X142525037Y-50121137D01*
X142324326Y-50038000D01*
X142525037Y-49954863D01*
X142918863Y-49561037D01*
X143132000Y-49046477D01*
X143132000Y-48489523D01*
X142918863Y-47974963D01*
X142525037Y-47581137D01*
X142324326Y-47498000D01*
X142525037Y-47414863D01*
X142767020Y-47172880D01*
X146447510Y-47172880D01*
X146447510Y-47823120D01*
X146696346Y-48423864D01*
X147156136Y-48883654D01*
X147756880Y-49132490D01*
X148407120Y-49132490D01*
X149007864Y-48883654D01*
X149467654Y-48423864D01*
X149716490Y-47823120D01*
X149716490Y-47172880D01*
X151527510Y-47172880D01*
X151527510Y-47823120D01*
X151776346Y-48423864D01*
X152236136Y-48883654D01*
X152836880Y-49132490D01*
X153487120Y-49132490D01*
X154087864Y-48883654D01*
X154547654Y-48423864D01*
X154796490Y-47823120D01*
X154796490Y-47172880D01*
X156607510Y-47172880D01*
X156607510Y-47823120D01*
X156856346Y-48423864D01*
X157316136Y-48883654D01*
X157916880Y-49132490D01*
X158567120Y-49132490D01*
X159167864Y-48883654D01*
X159627654Y-48423864D01*
X159876490Y-47823120D01*
X159876490Y-47172880D01*
X159627654Y-46572136D01*
X159167864Y-46112346D01*
X158567120Y-45863510D01*
X157916880Y-45863510D01*
X157316136Y-46112346D01*
X156856346Y-46572136D01*
X156607510Y-47172880D01*
X154796490Y-47172880D01*
X154547654Y-46572136D01*
X154087864Y-46112346D01*
X153487120Y-45863510D01*
X152836880Y-45863510D01*
X152236136Y-46112346D01*
X151776346Y-46572136D01*
X151527510Y-47172880D01*
X149716490Y-47172880D01*
X149467654Y-46572136D01*
X149007864Y-46112346D01*
X148407120Y-45863510D01*
X147756880Y-45863510D01*
X147156136Y-46112346D01*
X146696346Y-46572136D01*
X146447510Y-47172880D01*
X142767020Y-47172880D01*
X142918863Y-47021037D01*
X143132000Y-46506477D01*
X143132000Y-45949523D01*
X142918863Y-45434963D01*
X142525037Y-45041137D01*
X142324326Y-44958000D01*
X142525037Y-44874863D01*
X142918863Y-44481037D01*
X143132000Y-43966477D01*
X143132000Y-43409523D01*
X142918863Y-42894963D01*
X142525037Y-42501137D01*
X142324326Y-42418000D01*
X142525037Y-42334863D01*
X142767020Y-42092880D01*
X146447510Y-42092880D01*
X146447510Y-42743120D01*
X146696346Y-43343864D01*
X147156136Y-43803654D01*
X147756880Y-44052490D01*
X148407120Y-44052490D01*
X149007864Y-43803654D01*
X149467654Y-43343864D01*
X149716490Y-42743120D01*
X149716490Y-42092880D01*
X151527510Y-42092880D01*
X151527510Y-42743120D01*
X151776346Y-43343864D01*
X152236136Y-43803654D01*
X152836880Y-44052490D01*
X153487120Y-44052490D01*
X154087864Y-43803654D01*
X154547654Y-43343864D01*
X154796490Y-42743120D01*
X154796490Y-42092880D01*
X156607510Y-42092880D01*
X156607510Y-42743120D01*
X156856346Y-43343864D01*
X157316136Y-43803654D01*
X157916880Y-44052490D01*
X158567120Y-44052490D01*
X159167864Y-43803654D01*
X159627654Y-43343864D01*
X159876490Y-42743120D01*
X159876490Y-42092880D01*
X159627654Y-41492136D01*
X159167864Y-41032346D01*
X158567120Y-40783510D01*
X157916880Y-40783510D01*
X157316136Y-41032346D01*
X156856346Y-41492136D01*
X156607510Y-42092880D01*
X154796490Y-42092880D01*
X154547654Y-41492136D01*
X154087864Y-41032346D01*
X153487120Y-40783510D01*
X152836880Y-40783510D01*
X152236136Y-41032346D01*
X151776346Y-41492136D01*
X151527510Y-42092880D01*
X149716490Y-42092880D01*
X149467654Y-41492136D01*
X149007864Y-41032346D01*
X148407120Y-40783510D01*
X147756880Y-40783510D01*
X147156136Y-41032346D01*
X146696346Y-41492136D01*
X146447510Y-42092880D01*
X142767020Y-42092880D01*
X142918863Y-41941037D01*
X143132000Y-41426477D01*
X143132000Y-40869523D01*
X142918863Y-40354963D01*
X142525037Y-39961137D01*
X142324326Y-39878000D01*
X142525037Y-39794863D01*
X142918863Y-39401037D01*
X143132000Y-38886477D01*
X143132000Y-38329523D01*
X142918863Y-37814963D01*
X142525037Y-37421137D01*
X142324326Y-37338000D01*
X142525037Y-37254863D01*
X142767020Y-37012880D01*
X146447510Y-37012880D01*
X146447510Y-37663120D01*
X146696346Y-38263864D01*
X147156136Y-38723654D01*
X147756880Y-38972490D01*
X148407120Y-38972490D01*
X149007864Y-38723654D01*
X149467654Y-38263864D01*
X149716490Y-37663120D01*
X149716490Y-37012880D01*
X151527510Y-37012880D01*
X151527510Y-37663120D01*
X151776346Y-38263864D01*
X152236136Y-38723654D01*
X152836880Y-38972490D01*
X153487120Y-38972490D01*
X154087864Y-38723654D01*
X154547654Y-38263864D01*
X154796490Y-37663120D01*
X154796490Y-37012880D01*
X154547654Y-36412136D01*
X154520949Y-36385431D01*
X159055000Y-36385431D01*
X159055000Y-37274569D01*
X159395259Y-38096026D01*
X160023974Y-38724741D01*
X160845431Y-39065000D01*
X161734569Y-39065000D01*
X162556026Y-38724741D01*
X163184741Y-38096026D01*
X163525000Y-37274569D01*
X163525000Y-36385431D01*
X163184741Y-35563974D01*
X162556026Y-34935259D01*
X161734569Y-34595000D01*
X160845431Y-34595000D01*
X160023974Y-34935259D01*
X159395259Y-35563974D01*
X159055000Y-36385431D01*
X154520949Y-36385431D01*
X154087864Y-35952346D01*
X153487120Y-35703510D01*
X152836880Y-35703510D01*
X152236136Y-35952346D01*
X151776346Y-36412136D01*
X151527510Y-37012880D01*
X149716490Y-37012880D01*
X149467654Y-36412136D01*
X149007864Y-35952346D01*
X148407120Y-35703510D01*
X147756880Y-35703510D01*
X147156136Y-35952346D01*
X146696346Y-36412136D01*
X146447510Y-37012880D01*
X142767020Y-37012880D01*
X142918863Y-36861037D01*
X143132000Y-36346477D01*
X143132000Y-35789523D01*
X142918863Y-35274963D01*
X142525037Y-34881137D01*
X142010477Y-34668000D01*
X141453523Y-34668000D01*
X140938963Y-34881137D01*
X140545137Y-35274963D01*
X140332000Y-35789523D01*
X127879856Y-35789523D01*
X127876396Y-35720150D01*
X127716883Y-35335051D01*
X127474387Y-35265218D01*
X126671605Y-36068000D01*
X126312395Y-36068000D01*
X125509613Y-35265218D01*
X125267117Y-35335051D01*
X125079868Y-35859586D01*
X123813412Y-35859586D01*
X123793928Y-35134616D01*
X123773631Y-35085613D01*
X125689218Y-35085613D01*
X126492000Y-35888395D01*
X127294782Y-35085613D01*
X127224949Y-34843117D01*
X126700414Y-34655868D01*
X126144150Y-34683604D01*
X125759051Y-34843117D01*
X125689218Y-35085613D01*
X123773631Y-35085613D01*
X123545859Y-34535725D01*
X123253089Y-34406517D01*
X122099605Y-35560000D01*
X121740395Y-35560000D01*
X120586911Y-34406517D01*
X120294141Y-34535725D01*
X120025929Y-35235883D01*
X119986650Y-35235883D01*
X119983928Y-35134616D01*
X119735859Y-34535725D01*
X119443089Y-34406517D01*
X118289605Y-35560000D01*
X117930395Y-35560000D01*
X116776911Y-34406517D01*
X116484141Y-34535725D01*
X116215929Y-35235883D01*
X113326650Y-35235883D01*
X113026026Y-34935259D01*
X112204569Y-34595000D01*
X111315431Y-34595000D01*
X110493974Y-34935259D01*
X109865259Y-35563974D01*
X109525000Y-36385431D01*
X108660000Y-36385431D01*
X108660000Y-33730000D01*
X117578565Y-33730000D01*
X117085725Y-33934141D01*
X117085725Y-33934141D01*
G37*
X117085725Y-33934141D02*
X116956517Y-34226911D01*
X118110000Y-35380395D01*
X119263483Y-34226911D01*
X119134275Y-33934141D01*
X118601372Y-33730000D01*
X121388565Y-33730000D01*
X120895725Y-33934141D01*
X120766517Y-34226911D01*
X121920000Y-35380395D01*
X123073483Y-34226911D01*
X122944275Y-33934141D01*
X122411372Y-33730000D01*
X164390000Y-33730000D01*
X164390001Y-119940000D01*
X108660000Y-119940000D01*
X108660000Y-113473750D01*
X111407000Y-113473750D01*
X111407000Y-115064309D01*
X111503673Y-115297698D01*
X111682301Y-115476327D01*
X111915690Y-115573000D01*
X113506250Y-115573000D01*
X113665000Y-115414250D01*
X113665000Y-113315000D01*
X113919000Y-113315000D01*
X113919000Y-115414250D01*
X114077750Y-115573000D01*
X115668310Y-115573000D01*
X115901699Y-115476327D01*
X116080327Y-115297698D01*
X116177000Y-115064309D01*
X116177000Y-113473750D01*
X116018250Y-113315000D01*
X113919000Y-113315000D01*
X113665000Y-113315000D01*
X111565750Y-113315000D01*
X111407000Y-113473750D01*
X108660000Y-113473750D01*
X108660000Y-111311691D01*
X111407000Y-111311691D01*
X111407000Y-112902250D01*
X111565750Y-113061000D01*
X113665000Y-113061000D01*
X113665000Y-110961750D01*
X113506250Y-110803000D01*
X111915690Y-110803000D01*
X111682301Y-110899673D01*
X111503673Y-111078302D01*
X111407000Y-111311691D01*
X108660000Y-111311691D01*
X108660000Y-105438000D01*
X111394560Y-105438000D01*
X111394560Y-108938000D01*
X111443843Y-109185765D01*
X111584191Y-109395809D01*
X111794235Y-109536157D01*
X112042000Y-109585440D01*
X115542000Y-109585440D01*
X115789765Y-109536157D01*
X115999809Y-109395809D01*
X116094560Y-109254005D01*
X116094560Y-111112663D01*
X116080327Y-111078302D01*
X115901699Y-110899673D01*
X115668310Y-110803000D01*
X114077750Y-110803000D01*
X113919000Y-110961750D01*
X113919000Y-113061000D01*
X116018250Y-113061000D01*
X116177000Y-112902250D01*
X116177000Y-112235388D01*
X116284191Y-112395809D01*
X116494235Y-112536157D01*
X116742000Y-112585440D01*
X120242000Y-112585440D01*
X120489765Y-112536157D01*
X120699809Y-112395809D01*
X120840157Y-112185765D01*
X120889440Y-111938000D01*
X120889440Y-110223159D01*
X122825000Y-110223159D01*
X122825000Y-111012841D01*
X123127199Y-111742412D01*
X123685588Y-112300801D01*
X124415159Y-112603000D01*
X125204841Y-112603000D01*
X125934412Y-112300801D01*
X126492801Y-111742412D01*
X126795000Y-111012841D01*
X126795000Y-110223159D01*
X134825000Y-110223159D01*
X134825000Y-111012841D01*
X135127199Y-111742412D01*
X135685588Y-112300801D01*
X136415159Y-112603000D01*
X137204841Y-112603000D01*
X137934412Y-112300801D01*
X138492801Y-111742412D01*
X138795000Y-111012841D01*
X138795000Y-110223159D01*
X138492801Y-109493588D01*
X137934412Y-108935199D01*
X137204841Y-108633000D01*
X136415159Y-108633000D01*
X135685588Y-108935199D01*
X135127199Y-109493588D01*
X134825000Y-110223159D01*
X126795000Y-110223159D01*
X126492801Y-109493588D01*
X125934412Y-108935199D01*
X125204841Y-108633000D01*
X124415159Y-108633000D01*
X123685588Y-108935199D01*
X123127199Y-109493588D01*
X122825000Y-110223159D01*
X120889440Y-110223159D01*
X120889440Y-108438000D01*
X120840157Y-108190235D01*
X120699809Y-107980191D01*
X120489765Y-107839843D01*
X120242000Y-107790560D01*
X117544571Y-107790560D01*
X119742132Y-105593000D01*
X128164682Y-105593000D01*
X128145000Y-105640517D01*
X128145000Y-106195483D01*
X128357376Y-106708204D01*
X128567172Y-106918000D01*
X128357376Y-107127796D01*
X128145000Y-107640517D01*
X128145000Y-108195483D01*
X128357376Y-108708204D01*
X128749796Y-109100624D01*
X129262517Y-109313000D01*
X129817483Y-109313000D01*
X130330204Y-109100624D01*
X130534064Y-108896764D01*
X131280841Y-108896764D01*
X131350059Y-109138742D01*
X131872780Y-109325155D01*
X132427049Y-109297341D01*
X132809941Y-109138742D01*
X132879159Y-108896764D01*
X132080000Y-108097605D01*
X131280841Y-108896764D01*
X130534064Y-108896764D01*
X130722624Y-108708204D01*
X130803422Y-108513141D01*
X130859258Y-108647941D01*
X131101236Y-108717159D01*
X131900395Y-107918000D01*
X131101236Y-107118841D01*
X130859258Y-107188059D01*
X130807594Y-107332931D01*
X130722624Y-107127796D01*
X130512828Y-106918000D01*
X130722624Y-106708204D01*
X130810000Y-106497260D01*
X130897376Y-106708204D01*
X131289796Y-107100624D01*
X131550015Y-107208410D01*
X132080000Y-107738395D01*
X132094143Y-107724253D01*
X132273748Y-107903858D01*
X132259605Y-107918000D01*
X133058764Y-108717159D01*
X133300742Y-108647941D01*
X133487155Y-108125220D01*
X133459341Y-107570951D01*
X133300742Y-107188059D01*
X133058766Y-107118842D01*
X133124608Y-107053000D01*
X141595869Y-107053000D01*
X142080000Y-107537132D01*
X142080000Y-107742358D01*
X142309884Y-108297346D01*
X142455000Y-108442462D01*
X142455001Y-116601537D01*
X142309884Y-116746654D01*
X142080000Y-117301642D01*
X142080000Y-117902358D01*
X142309884Y-118457346D01*
X142734654Y-118882116D01*
X143289642Y-119112000D01*
X143890358Y-119112000D01*
X144445346Y-118882116D01*
X144840000Y-118487462D01*
X145234654Y-118882116D01*
X145789642Y-119112000D01*
X146390358Y-119112000D01*
X146945346Y-118882116D01*
X147122221Y-118705241D01*
X147176673Y-118836699D01*
X147355302Y-119015327D01*
X147588691Y-119112000D01*
X148304250Y-119112000D01*
X148463000Y-118953250D01*
X148463000Y-117729000D01*
X148717000Y-117729000D01*
X148717000Y-118953250D01*
X148875750Y-119112000D01*
X149591309Y-119112000D01*
X149824698Y-119015327D01*
X150003327Y-118836699D01*
X150100000Y-118603310D01*
X150100000Y-117887750D01*
X149941250Y-117729000D01*
X148717000Y-117729000D01*
X148463000Y-117729000D01*
X148443000Y-117729000D01*
X148443000Y-117475000D01*
X148463000Y-117475000D01*
X148463000Y-116250750D01*
X148717000Y-116250750D01*
X148717000Y-117475000D01*
X149941250Y-117475000D01*
X150100000Y-117316250D01*
X150100000Y-116600690D01*
X150003327Y-116367301D01*
X149824698Y-116188673D01*
X149591309Y-116092000D01*
X148875750Y-116092000D01*
X148717000Y-116250750D01*
X148463000Y-116250750D01*
X148304250Y-116092000D01*
X147588691Y-116092000D01*
X147355302Y-116188673D01*
X147225000Y-116318974D01*
X147225000Y-108725026D01*
X147355302Y-108855327D01*
X147588691Y-108952000D01*
X148304250Y-108952000D01*
X148463000Y-108793250D01*
X148463000Y-107569000D01*
X148717000Y-107569000D01*
X148717000Y-108793250D01*
X148875750Y-108952000D01*
X149591309Y-108952000D01*
X149824698Y-108855327D01*
X150003327Y-108676699D01*
X150100000Y-108443310D01*
X150100000Y-107727750D01*
X149941250Y-107569000D01*
X148717000Y-107569000D01*
X148463000Y-107569000D01*
X148443000Y-107569000D01*
X148443000Y-107315000D01*
X148463000Y-107315000D01*
X148463000Y-106090750D01*
X148717000Y-106090750D01*
X148717000Y-107315000D01*
X149941250Y-107315000D01*
X150100000Y-107156250D01*
X150100000Y-106440690D01*
X150003327Y-106207301D01*
X149824698Y-106028673D01*
X149591309Y-105932000D01*
X148875750Y-105932000D01*
X148717000Y-106090750D01*
X148463000Y-106090750D01*
X148304250Y-105932000D01*
X147588691Y-105932000D01*
X147355302Y-106028673D01*
X147176673Y-106207301D01*
X147122221Y-106338759D01*
X146945346Y-106161884D01*
X146390358Y-105932000D01*
X145789642Y-105932000D01*
X145234654Y-106161884D01*
X144840000Y-106556538D01*
X144445346Y-106161884D01*
X143890358Y-105932000D01*
X143685132Y-105932000D01*
X143201000Y-105447869D01*
X143201000Y-104784131D01*
X147802452Y-100182680D01*
X148456886Y-100182680D01*
X149149585Y-99895755D01*
X149612340Y-99433000D01*
X151631660Y-99433000D01*
X152094415Y-99895755D01*
X152787114Y-100182680D01*
X153441549Y-100182680D01*
X155155000Y-101896132D01*
X155155001Y-106441537D01*
X155009884Y-106586654D01*
X154780000Y-107141642D01*
X154780000Y-107742358D01*
X155009884Y-108297346D01*
X155155000Y-108442462D01*
X155155001Y-116601537D01*
X155009884Y-116746654D01*
X154780000Y-117301642D01*
X154780000Y-117902358D01*
X155009884Y-118457346D01*
X155434654Y-118882116D01*
X155989642Y-119112000D01*
X156590358Y-119112000D01*
X157145346Y-118882116D01*
X157540000Y-118487462D01*
X157934654Y-118882116D01*
X158489642Y-119112000D01*
X159090358Y-119112000D01*
X159645346Y-118882116D01*
X159822221Y-118705241D01*
X159876673Y-118836699D01*
X160055302Y-119015327D01*
X160288691Y-119112000D01*
X161004250Y-119112000D01*
X161163000Y-118953250D01*
X161163000Y-117729000D01*
X161417000Y-117729000D01*
X161417000Y-118953250D01*
X161575750Y-119112000D01*
X162291309Y-119112000D01*
X162524698Y-119015327D01*
X162703327Y-118836699D01*
X162800000Y-118603310D01*
X162800000Y-117887750D01*
X162641250Y-117729000D01*
X161417000Y-117729000D01*
X161163000Y-117729000D01*
X161143000Y-117729000D01*
X161143000Y-117475000D01*
X161163000Y-117475000D01*
X161163000Y-116250750D01*
X161417000Y-116250750D01*
X161417000Y-117475000D01*
X162641250Y-117475000D01*
X162800000Y-117316250D01*
X162800000Y-116600690D01*
X162703327Y-116367301D01*
X162524698Y-116188673D01*
X162291309Y-116092000D01*
X161575750Y-116092000D01*
X161417000Y-116250750D01*
X161163000Y-116250750D01*
X161004250Y-116092000D01*
X160288691Y-116092000D01*
X160055302Y-116188673D01*
X159925000Y-116318974D01*
X159925000Y-108725026D01*
X160055302Y-108855327D01*
X160288691Y-108952000D01*
X161004250Y-108952000D01*
X161163000Y-108793250D01*
X161163000Y-107569000D01*
X161417000Y-107569000D01*
X161417000Y-108793250D01*
X161575750Y-108952000D01*
X162291309Y-108952000D01*
X162524698Y-108855327D01*
X162703327Y-108676699D01*
X162800000Y-108443310D01*
X162800000Y-107727750D01*
X162641250Y-107569000D01*
X161417000Y-107569000D01*
X161163000Y-107569000D01*
X161143000Y-107569000D01*
X161143000Y-107315000D01*
X161163000Y-107315000D01*
X161163000Y-106090750D01*
X161417000Y-106090750D01*
X161417000Y-107315000D01*
X162641250Y-107315000D01*
X162800000Y-107156250D01*
X162800000Y-106440690D01*
X162703327Y-106207301D01*
X162524698Y-106028673D01*
X162291309Y-105932000D01*
X161575750Y-105932000D01*
X161417000Y-106090750D01*
X161163000Y-106090750D01*
X161004250Y-105932000D01*
X160288691Y-105932000D01*
X160055302Y-106028673D01*
X159876673Y-106207301D01*
X159822221Y-106338759D01*
X159645346Y-106161884D01*
X159090358Y-105932000D01*
X158489642Y-105932000D01*
X157934654Y-106161884D01*
X157540000Y-106556538D01*
X157425000Y-106441538D01*
X157425000Y-101537782D01*
X157447235Y-101425999D01*
X157359146Y-100983145D01*
X157340167Y-100954741D01*
X157108289Y-100607711D01*
X157013521Y-100544390D01*
X155084562Y-98615431D01*
X159055000Y-98615431D01*
X159055000Y-99504569D01*
X159395259Y-100326026D01*
X160023974Y-100954741D01*
X160845431Y-101295000D01*
X161734569Y-101295000D01*
X162556026Y-100954741D01*
X163184741Y-100326026D01*
X163525000Y-99504569D01*
X163525000Y-98615431D01*
X163184741Y-97793974D01*
X162556026Y-97165259D01*
X161734569Y-96825000D01*
X160845431Y-96825000D01*
X160023974Y-97165259D01*
X159395259Y-97793974D01*
X159055000Y-98615431D01*
X155084562Y-98615431D01*
X155046680Y-98577549D01*
X155046680Y-97923114D01*
X154759755Y-97230415D01*
X154229585Y-96700245D01*
X153536886Y-96413320D01*
X152787114Y-96413320D01*
X152094415Y-96700245D01*
X151631660Y-97163000D01*
X149612340Y-97163000D01*
X149149585Y-96700245D01*
X148456886Y-96413320D01*
X147707114Y-96413320D01*
X147014415Y-96700245D01*
X146484245Y-97230415D01*
X146197320Y-97923114D01*
X146197320Y-98577548D01*
X141342480Y-103432389D01*
X141247712Y-103495711D01*
X141151494Y-103639712D01*
X140996854Y-103871146D01*
X140908765Y-104314000D01*
X140931000Y-104425783D01*
X140931000Y-104783000D01*
X132917828Y-104783000D01*
X132870204Y-104735376D01*
X132357483Y-104523000D01*
X132290132Y-104523000D01*
X131501613Y-103734482D01*
X131438289Y-103639711D01*
X131062855Y-103388854D01*
X130731783Y-103323000D01*
X130620000Y-103300765D01*
X130508217Y-103323000D01*
X119383782Y-103323000D01*
X119271999Y-103300765D01*
X118829145Y-103388854D01*
X118453711Y-103639711D01*
X118390389Y-103734479D01*
X116189440Y-105935429D01*
X116189440Y-105438000D01*
X116140157Y-105190235D01*
X115999809Y-104980191D01*
X115789765Y-104839843D01*
X115542000Y-104790560D01*
X112042000Y-104790560D01*
X111794235Y-104839843D01*
X111584191Y-104980191D01*
X111443843Y-105190235D01*
X111394560Y-105438000D01*
X108660000Y-105438000D01*
X108660000Y-98615431D01*
X109525000Y-98615431D01*
X109525000Y-99504569D01*
X109865259Y-100326026D01*
X110493974Y-100954741D01*
X111315431Y-101295000D01*
X112204569Y-101295000D01*
X113026026Y-100954741D01*
X113654741Y-100326026D01*
X113995000Y-99504569D01*
X113995000Y-98615431D01*
X113654741Y-97793974D01*
X113026026Y-97165259D01*
X112204569Y-96825000D01*
X111315431Y-96825000D01*
X110493974Y-97165259D01*
X109865259Y-97793974D01*
X109525000Y-98615431D01*
X108660000Y-98615431D01*
X108660000Y-70256279D01*
X112803282Y-70256279D01*
X112829685Y-70846458D01*
X113004741Y-71269080D01*
X113256042Y-71349353D01*
X114120395Y-70485000D01*
X113256042Y-69620647D01*
X113004741Y-69700920D01*
X112803282Y-70256279D01*
X108660000Y-70256279D01*
X108660000Y-47329615D01*
X112815000Y-47329615D01*
X112815000Y-47920385D01*
X113041078Y-48466185D01*
X113458815Y-48883922D01*
X113485560Y-48895000D01*
X113458815Y-48906078D01*
X113041078Y-49323815D01*
X112815000Y-49869615D01*
X112815000Y-50460385D01*
X113041078Y-51006185D01*
X113458815Y-51423922D01*
X113485560Y-51435000D01*
X113458815Y-51446078D01*
X113041078Y-51863815D01*
X112815000Y-52409615D01*
X112815000Y-53000385D01*
X113041078Y-53546185D01*
X113458815Y-53963922D01*
X113485560Y-53975000D01*
X113458815Y-53986078D01*
X113041078Y-54403815D01*
X112815000Y-54949615D01*
X112815000Y-55540385D01*
X113041078Y-56086185D01*
X113458815Y-56503922D01*
X113485560Y-56515000D01*
X113458815Y-56526078D01*
X113041078Y-56943815D01*
X112815000Y-57489615D01*
X112815000Y-58080385D01*
X113041078Y-58626185D01*
X113458815Y-59043922D01*
X113485560Y-59055000D01*
X113458815Y-59066078D01*
X113041078Y-59483815D01*
X112815000Y-60029615D01*
X112815000Y-60620385D01*
X113041078Y-61166185D01*
X113458815Y-61583922D01*
X113485560Y-61595000D01*
X113458815Y-61606078D01*
X113041078Y-62023815D01*
X112815000Y-62569615D01*
X112815000Y-63160385D01*
X113041078Y-63706185D01*
X113458815Y-64123922D01*
X113485560Y-64135000D01*
X113458815Y-64146078D01*
X113041078Y-64563815D01*
X112815000Y-65109615D01*
X112815000Y-65700385D01*
X113041078Y-66246185D01*
X113458815Y-66663922D01*
X113485560Y-66675000D01*
X113458815Y-66686078D01*
X113041078Y-67103815D01*
X112815000Y-67649615D01*
X112815000Y-68240385D01*
X113041078Y-68786185D01*
X113458815Y-69203922D01*
X113505247Y-69223155D01*
X113435647Y-69441042D01*
X114300000Y-70305395D01*
X115164353Y-69441042D01*
X115094753Y-69223155D01*
X115141185Y-69203922D01*
X115558922Y-68786185D01*
X115570000Y-68759440D01*
X115581078Y-68786185D01*
X115998815Y-69203922D01*
X116025560Y-69215000D01*
X115998815Y-69226078D01*
X115581078Y-69643815D01*
X115561845Y-69690247D01*
X115343958Y-69620647D01*
X114479605Y-70485000D01*
X114493748Y-70499143D01*
X114314143Y-70678748D01*
X114300000Y-70664605D01*
X113435647Y-71528958D01*
X113505247Y-71746845D01*
X113458815Y-71766078D01*
X113041078Y-72183815D01*
X112815000Y-72729615D01*
X112815000Y-73320385D01*
X113041078Y-73866185D01*
X113458815Y-74283922D01*
X113485560Y-74295000D01*
X113458815Y-74306078D01*
X113041078Y-74723815D01*
X112815000Y-75269615D01*
X112815000Y-75860385D01*
X113041078Y-76406185D01*
X113458815Y-76823922D01*
X113485560Y-76835000D01*
X113458815Y-76846078D01*
X113041078Y-77263815D01*
X112815000Y-77809615D01*
X112815000Y-78400385D01*
X113041078Y-78946185D01*
X113458815Y-79363922D01*
X113485560Y-79375000D01*
X113458815Y-79386078D01*
X113041078Y-79803815D01*
X112815000Y-80349615D01*
X112815000Y-80940385D01*
X113041078Y-81486185D01*
X113458815Y-81903922D01*
X113485560Y-81915000D01*
X113458815Y-81926078D01*
X113041078Y-82343815D01*
X112815000Y-82889615D01*
X112815000Y-83480385D01*
X113041078Y-84026185D01*
X113458815Y-84443922D01*
X113485560Y-84455000D01*
X113458815Y-84466078D01*
X113041078Y-84883815D01*
X112815000Y-85429615D01*
X112815000Y-86020385D01*
X113041078Y-86566185D01*
X113458815Y-86983922D01*
X113485560Y-86995000D01*
X113458815Y-87006078D01*
X113041078Y-87423815D01*
X112815000Y-87969615D01*
X112815000Y-88560385D01*
X113041078Y-89106185D01*
X113458815Y-89523922D01*
X114004615Y-89750000D01*
X114595385Y-89750000D01*
X115141185Y-89523922D01*
X115376994Y-89288113D01*
X115391843Y-89362765D01*
X115532191Y-89572809D01*
X115742235Y-89713157D01*
X115990000Y-89762440D01*
X117690000Y-89762440D01*
X117937765Y-89713157D01*
X118147809Y-89572809D01*
X118288157Y-89362765D01*
X118337440Y-89115000D01*
X118337440Y-87849600D01*
X118575553Y-87849600D01*
X118650400Y-87864488D01*
X118725247Y-87849600D01*
X118725252Y-87849600D01*
X118946937Y-87805504D01*
X119198329Y-87637529D01*
X119240731Y-87574070D01*
X125092000Y-81722802D01*
X125092000Y-82066477D01*
X125305137Y-82581037D01*
X125698963Y-82974863D01*
X125899674Y-83058000D01*
X125698963Y-83141137D01*
X125305137Y-83534963D01*
X125092000Y-84049523D01*
X125092000Y-84606477D01*
X125305137Y-85121037D01*
X125698963Y-85514863D01*
X125899674Y-85598000D01*
X125698963Y-85681137D01*
X125305137Y-86074963D01*
X125092000Y-86589523D01*
X125092000Y-87146477D01*
X125305137Y-87661037D01*
X125698963Y-88054863D01*
X125899674Y-88138000D01*
X125698963Y-88221137D01*
X125305137Y-88614963D01*
X125092000Y-89129523D01*
X125092000Y-89686477D01*
X125305137Y-90201037D01*
X125698963Y-90594863D01*
X125899674Y-90678000D01*
X125698963Y-90761137D01*
X125305137Y-91154963D01*
X125092000Y-91669523D01*
X125092000Y-92226477D01*
X125305137Y-92741037D01*
X125698963Y-93134863D01*
X125899674Y-93218000D01*
X125698963Y-93301137D01*
X125305137Y-93694963D01*
X125092000Y-94209523D01*
X125092000Y-94766477D01*
X125305137Y-95281037D01*
X125698963Y-95674863D01*
X126213523Y-95888000D01*
X126770477Y-95888000D01*
X127285037Y-95674863D01*
X127678863Y-95281037D01*
X127892000Y-94766477D01*
X127892000Y-94209523D01*
X127678863Y-93694963D01*
X127285037Y-93301137D01*
X127084326Y-93218000D01*
X127285037Y-93134863D01*
X127678863Y-92741037D01*
X127892000Y-92226477D01*
X127892000Y-91669523D01*
X127678863Y-91154963D01*
X127285037Y-90761137D01*
X127084326Y-90678000D01*
X127285037Y-90594863D01*
X127678863Y-90201037D01*
X127892000Y-89686477D01*
X127892000Y-89129523D01*
X127678863Y-88614963D01*
X127285037Y-88221137D01*
X127084326Y-88138000D01*
X127285037Y-88054863D01*
X127678863Y-87661037D01*
X127892000Y-87146477D01*
X127892000Y-86589523D01*
X127678863Y-86074963D01*
X127285037Y-85681137D01*
X127084326Y-85598000D01*
X127285037Y-85514863D01*
X127678863Y-85121037D01*
X127892000Y-84606477D01*
X127892000Y-84049523D01*
X127678863Y-83534963D01*
X127285037Y-83141137D01*
X127084326Y-83058000D01*
X127285037Y-82974863D01*
X127678863Y-82581037D01*
X127892000Y-82066477D01*
X127892000Y-81509523D01*
X127678863Y-80994963D01*
X127285037Y-80601137D01*
X127084326Y-80518000D01*
X127285037Y-80434863D01*
X127678863Y-80041037D01*
X127892000Y-79526477D01*
X127892000Y-78969523D01*
X127678863Y-78454963D01*
X127285037Y-78061137D01*
X127084326Y-77978000D01*
X127285037Y-77894863D01*
X127678863Y-77501037D01*
X127892000Y-76986477D01*
X127892000Y-76429523D01*
X127678863Y-75914963D01*
X127285037Y-75521137D01*
X127084326Y-75438000D01*
X127285037Y-75354863D01*
X127678863Y-74961037D01*
X127892000Y-74446477D01*
X127892000Y-73889523D01*
X140332000Y-73889523D01*
X140332000Y-74446477D01*
X140545137Y-74961037D01*
X140938963Y-75354863D01*
X141139674Y-75438000D01*
X140938963Y-75521137D01*
X140545137Y-75914963D01*
X140332000Y-76429523D01*
X140332000Y-76986477D01*
X140545137Y-77501037D01*
X140938963Y-77894863D01*
X141139674Y-77978000D01*
X140938963Y-78061137D01*
X140545137Y-78454963D01*
X140332000Y-78969523D01*
X140332000Y-79526477D01*
X140545137Y-80041037D01*
X140938963Y-80434863D01*
X141139674Y-80518000D01*
X140938963Y-80601137D01*
X140545137Y-80994963D01*
X140332000Y-81509523D01*
X140332000Y-82066477D01*
X140545137Y-82581037D01*
X140938963Y-82974863D01*
X141139674Y-83058000D01*
X140938963Y-83141137D01*
X140545137Y-83534963D01*
X140332000Y-84049523D01*
X140332000Y-84606477D01*
X140545137Y-85121037D01*
X140938963Y-85514863D01*
X141139674Y-85598000D01*
X140938963Y-85681137D01*
X140545137Y-86074963D01*
X140332000Y-86589523D01*
X140332000Y-87146477D01*
X140545137Y-87661037D01*
X140938963Y-88054863D01*
X141139674Y-88138000D01*
X140938963Y-88221137D01*
X140545137Y-88614963D01*
X140332000Y-89129523D01*
X140332000Y-89686477D01*
X140545137Y-90201037D01*
X140938963Y-90594863D01*
X141139674Y-90678000D01*
X140938963Y-90761137D01*
X140545137Y-91154963D01*
X140332000Y-91669523D01*
X140332000Y-92226477D01*
X140545137Y-92741037D01*
X140938963Y-93134863D01*
X141139674Y-93218000D01*
X140938963Y-93301137D01*
X140545137Y-93694963D01*
X140332000Y-94209523D01*
X140332000Y-94766477D01*
X140545137Y-95281037D01*
X140938963Y-95674863D01*
X141453523Y-95888000D01*
X142010477Y-95888000D01*
X142525037Y-95674863D01*
X142918863Y-95281037D01*
X143132000Y-94766477D01*
X143132000Y-94209523D01*
X142918863Y-93694963D01*
X142525037Y-93301137D01*
X142324326Y-93218000D01*
X142525037Y-93134863D01*
X142689786Y-92970114D01*
X146197320Y-92970114D01*
X146197320Y-93719886D01*
X146484245Y-94412585D01*
X147014415Y-94942755D01*
X147707114Y-95229680D01*
X148456886Y-95229680D01*
X149149585Y-94942755D01*
X149679755Y-94412585D01*
X149966680Y-93719886D01*
X149966680Y-92970114D01*
X151277320Y-92970114D01*
X151277320Y-93719886D01*
X151564245Y-94412585D01*
X152094415Y-94942755D01*
X152787114Y-95229680D01*
X153536886Y-95229680D01*
X154229585Y-94942755D01*
X154759755Y-94412585D01*
X155046680Y-93719886D01*
X155046680Y-93345000D01*
X155965908Y-93345000D01*
X156081161Y-93924418D01*
X156409375Y-94415625D01*
X156900582Y-94743839D01*
X157333744Y-94830000D01*
X157626256Y-94830000D01*
X158059418Y-94743839D01*
X158550625Y-94415625D01*
X158562816Y-94397381D01*
X158571843Y-94442765D01*
X158712191Y-94652809D01*
X158922235Y-94793157D01*
X159170000Y-94842440D01*
X160870000Y-94842440D01*
X161117765Y-94793157D01*
X161327809Y-94652809D01*
X161468157Y-94442765D01*
X161517440Y-94195000D01*
X161517440Y-92495000D01*
X161468157Y-92247235D01*
X161327809Y-92037191D01*
X161117765Y-91896843D01*
X160870000Y-91847560D01*
X159170000Y-91847560D01*
X159127000Y-91856113D01*
X159127000Y-89803050D01*
X159149809Y-89787809D01*
X159290157Y-89577765D01*
X159339440Y-89330000D01*
X159339440Y-88130000D01*
X159290157Y-87882235D01*
X159149809Y-87672191D01*
X159086666Y-87630000D01*
X159149809Y-87587809D01*
X159290157Y-87377765D01*
X159339440Y-87130000D01*
X159339440Y-85930000D01*
X159290157Y-85682235D01*
X159149809Y-85472191D01*
X159127000Y-85456950D01*
X159127000Y-84460580D01*
X159167864Y-84443654D01*
X159627654Y-83983864D01*
X159876490Y-83383120D01*
X159876490Y-82732880D01*
X159627654Y-82132136D01*
X159167864Y-81672346D01*
X158567120Y-81423510D01*
X157916880Y-81423510D01*
X157316136Y-81672346D01*
X156856346Y-82132136D01*
X156607510Y-82732880D01*
X156607510Y-83383120D01*
X156856346Y-83983864D01*
X157316136Y-84443654D01*
X157357000Y-84460581D01*
X157357001Y-85456950D01*
X157334191Y-85472191D01*
X157193843Y-85682235D01*
X157144560Y-85930000D01*
X157144560Y-87130000D01*
X157193843Y-87377765D01*
X157334191Y-87587809D01*
X157397334Y-87630000D01*
X157334191Y-87672191D01*
X157193843Y-87882235D01*
X157167224Y-88016060D01*
X156918771Y-88182071D01*
X156750796Y-88433463D01*
X156691811Y-88730000D01*
X156750796Y-89026537D01*
X156918771Y-89277929D01*
X157167224Y-89443940D01*
X157193843Y-89577765D01*
X157334191Y-89787809D01*
X157357000Y-89803050D01*
X157357001Y-91860000D01*
X157333744Y-91860000D01*
X156900582Y-91946161D01*
X156409375Y-92274375D01*
X156081161Y-92765582D01*
X155965908Y-93345000D01*
X155046680Y-93345000D01*
X155046680Y-92970114D01*
X154759755Y-92277415D01*
X154229585Y-91747245D01*
X154047000Y-91671616D01*
X154047000Y-89887050D01*
X154069809Y-89871809D01*
X154210157Y-89661765D01*
X154236776Y-89527940D01*
X154485229Y-89361929D01*
X154653204Y-89110537D01*
X154712189Y-88814000D01*
X154653204Y-88517463D01*
X154485229Y-88266071D01*
X154236776Y-88100060D01*
X154210157Y-87966235D01*
X154069809Y-87756191D01*
X154006666Y-87714000D01*
X154069809Y-87671809D01*
X154210157Y-87461765D01*
X154259440Y-87214000D01*
X154259440Y-86014000D01*
X154210157Y-85766235D01*
X154069809Y-85556191D01*
X154047000Y-85540950D01*
X154047000Y-84460580D01*
X154087864Y-84443654D01*
X154547654Y-83983864D01*
X154796490Y-83383120D01*
X154796490Y-82732880D01*
X154547654Y-82132136D01*
X154087864Y-81672346D01*
X153487120Y-81423510D01*
X152836880Y-81423510D01*
X152236136Y-81672346D01*
X151776346Y-82132136D01*
X151527510Y-82732880D01*
X151527510Y-83383120D01*
X151776346Y-83983864D01*
X152236136Y-84443654D01*
X152277000Y-84460581D01*
X152277001Y-85540950D01*
X152254191Y-85556191D01*
X152113843Y-85766235D01*
X152064560Y-86014000D01*
X152064560Y-87214000D01*
X152113843Y-87461765D01*
X152254191Y-87671809D01*
X152317334Y-87714000D01*
X152254191Y-87756191D01*
X152113843Y-87966235D01*
X152064560Y-88214000D01*
X152064560Y-89414000D01*
X152113843Y-89661765D01*
X152254191Y-89871809D01*
X152277001Y-89887050D01*
X152277000Y-91671616D01*
X152094415Y-91747245D01*
X151564245Y-92277415D01*
X151277320Y-92970114D01*
X149966680Y-92970114D01*
X149679755Y-92277415D01*
X149149585Y-91747245D01*
X148967000Y-91671616D01*
X148967000Y-89973050D01*
X148989809Y-89957809D01*
X149130157Y-89747765D01*
X149179440Y-89500000D01*
X149179440Y-88300000D01*
X149130157Y-88052235D01*
X148989809Y-87842191D01*
X148926666Y-87800000D01*
X148989809Y-87757809D01*
X149130157Y-87547765D01*
X149179440Y-87300000D01*
X149179440Y-86100000D01*
X149130157Y-85852235D01*
X148989809Y-85642191D01*
X148967000Y-85626950D01*
X148967000Y-84460580D01*
X149007864Y-84443654D01*
X149467654Y-83983864D01*
X149716490Y-83383120D01*
X149716490Y-82732880D01*
X149467654Y-82132136D01*
X149007864Y-81672346D01*
X148407120Y-81423510D01*
X147756880Y-81423510D01*
X147156136Y-81672346D01*
X146696346Y-82132136D01*
X146447510Y-82732880D01*
X146447510Y-83383120D01*
X146696346Y-83983864D01*
X147156136Y-84443654D01*
X147197000Y-84460581D01*
X147197001Y-85626950D01*
X147174191Y-85642191D01*
X147033843Y-85852235D01*
X146984560Y-86100000D01*
X146984560Y-87300000D01*
X147033843Y-87547765D01*
X147174191Y-87757809D01*
X147237334Y-87800000D01*
X147174191Y-87842191D01*
X147033843Y-88052235D01*
X146984560Y-88300000D01*
X146984560Y-89500000D01*
X147033843Y-89747765D01*
X147174191Y-89957809D01*
X147197001Y-89973050D01*
X147197000Y-91671616D01*
X147014415Y-91747245D01*
X146484245Y-92277415D01*
X146197320Y-92970114D01*
X142689786Y-92970114D01*
X142918863Y-92741037D01*
X143132000Y-92226477D01*
X143132000Y-91669523D01*
X142918863Y-91154963D01*
X142525037Y-90761137D01*
X142324326Y-90678000D01*
X142525037Y-90594863D01*
X142918863Y-90201037D01*
X143132000Y-89686477D01*
X143132000Y-89129523D01*
X142918863Y-88614963D01*
X142525037Y-88221137D01*
X142324326Y-88138000D01*
X142525037Y-88054863D01*
X142918863Y-87661037D01*
X143132000Y-87146477D01*
X143132000Y-86589523D01*
X142918863Y-86074963D01*
X142525037Y-85681137D01*
X142324326Y-85598000D01*
X142525037Y-85514863D01*
X142918863Y-85121037D01*
X143132000Y-84606477D01*
X143132000Y-84049523D01*
X142918863Y-83534963D01*
X142525037Y-83141137D01*
X142324326Y-83058000D01*
X142525037Y-82974863D01*
X142918863Y-82581037D01*
X143132000Y-82066477D01*
X143132000Y-81509523D01*
X142918863Y-80994963D01*
X142525037Y-80601137D01*
X142324326Y-80518000D01*
X142525037Y-80434863D01*
X142918863Y-80041037D01*
X143132000Y-79526477D01*
X143132000Y-78969523D01*
X142918863Y-78454963D01*
X142525037Y-78061137D01*
X142324326Y-77978000D01*
X142525037Y-77894863D01*
X142767020Y-77652880D01*
X146447510Y-77652880D01*
X146447510Y-78303120D01*
X146696346Y-78903864D01*
X147156136Y-79363654D01*
X147756880Y-79612490D01*
X148407120Y-79612490D01*
X149007864Y-79363654D01*
X149467654Y-78903864D01*
X149716490Y-78303120D01*
X149716490Y-77652880D01*
X151527510Y-77652880D01*
X151527510Y-78303120D01*
X151776346Y-78903864D01*
X152236136Y-79363654D01*
X152836880Y-79612490D01*
X153487120Y-79612490D01*
X154087864Y-79363654D01*
X154547654Y-78903864D01*
X154796490Y-78303120D01*
X154796490Y-77652880D01*
X156607510Y-77652880D01*
X156607510Y-78303120D01*
X156856346Y-78903864D01*
X157316136Y-79363654D01*
X157916880Y-79612490D01*
X158567120Y-79612490D01*
X159167864Y-79363654D01*
X159627654Y-78903864D01*
X159876490Y-78303120D01*
X159876490Y-77652880D01*
X159627654Y-77052136D01*
X159167864Y-76592346D01*
X158567120Y-76343510D01*
X157916880Y-76343510D01*
X157316136Y-76592346D01*
X156856346Y-77052136D01*
X156607510Y-77652880D01*
X154796490Y-77652880D01*
X154547654Y-77052136D01*
X154087864Y-76592346D01*
X153487120Y-76343510D01*
X152836880Y-76343510D01*
X152236136Y-76592346D01*
X151776346Y-77052136D01*
X151527510Y-77652880D01*
X149716490Y-77652880D01*
X149467654Y-77052136D01*
X149007864Y-76592346D01*
X148407120Y-76343510D01*
X147756880Y-76343510D01*
X147156136Y-76592346D01*
X146696346Y-77052136D01*
X146447510Y-77652880D01*
X142767020Y-77652880D01*
X142918863Y-77501037D01*
X143132000Y-76986477D01*
X143132000Y-76429523D01*
X142918863Y-75914963D01*
X142525037Y-75521137D01*
X142324326Y-75438000D01*
X142525037Y-75354863D01*
X142918863Y-74961037D01*
X143132000Y-74446477D01*
X143132000Y-73889523D01*
X142918863Y-73374963D01*
X142525037Y-72981137D01*
X142340176Y-72904565D01*
X142464949Y-72852883D01*
X142534782Y-72610387D01*
X142497275Y-72572880D01*
X146447510Y-72572880D01*
X146447510Y-73223120D01*
X146696346Y-73823864D01*
X147156136Y-74283654D01*
X147756880Y-74532490D01*
X148407120Y-74532490D01*
X149007864Y-74283654D01*
X149467654Y-73823864D01*
X149716490Y-73223120D01*
X149716490Y-72572880D01*
X151527510Y-72572880D01*
X151527510Y-73223120D01*
X151776346Y-73823864D01*
X152236136Y-74283654D01*
X152836880Y-74532490D01*
X153487120Y-74532490D01*
X154087864Y-74283654D01*
X154547654Y-73823864D01*
X154796490Y-73223120D01*
X154796490Y-72572880D01*
X156607510Y-72572880D01*
X156607510Y-73223120D01*
X156856346Y-73823864D01*
X157316136Y-74283654D01*
X157916880Y-74532490D01*
X158567120Y-74532490D01*
X159167864Y-74283654D01*
X159627654Y-73823864D01*
X159876490Y-73223120D01*
X159876490Y-72572880D01*
X159627654Y-71972136D01*
X159167864Y-71512346D01*
X158567120Y-71263510D01*
X157916880Y-71263510D01*
X157316136Y-71512346D01*
X156856346Y-71972136D01*
X156607510Y-72572880D01*
X154796490Y-72572880D01*
X154547654Y-71972136D01*
X154087864Y-71512346D01*
X153487120Y-71263510D01*
X152836880Y-71263510D01*
X152236136Y-71512346D01*
X151776346Y-71972136D01*
X151527510Y-72572880D01*
X149716490Y-72572880D01*
X149467654Y-71972136D01*
X149007864Y-71512346D01*
X148407120Y-71263510D01*
X147756880Y-71263510D01*
X147156136Y-71512346D01*
X146696346Y-71972136D01*
X146447510Y-72572880D01*
X142497275Y-72572880D01*
X141732000Y-71807605D01*
X140929218Y-72610387D01*
X140999051Y-72852883D01*
X141133083Y-72900730D01*
X140938963Y-72981137D01*
X140545137Y-73374963D01*
X140332000Y-73889523D01*
X127892000Y-73889523D01*
X127678863Y-73374963D01*
X127285037Y-72981137D01*
X127084326Y-72898000D01*
X127285037Y-72814863D01*
X127678863Y-72421037D01*
X127892000Y-71906477D01*
X127892000Y-71419586D01*
X140319868Y-71419586D01*
X140347604Y-71975850D01*
X140507117Y-72360949D01*
X140749613Y-72430782D01*
X141552395Y-71628000D01*
X141911605Y-71628000D01*
X142714387Y-72430782D01*
X142956883Y-72360949D01*
X143144132Y-71836414D01*
X143116396Y-71280150D01*
X142956883Y-70895051D01*
X142714387Y-70825218D01*
X141911605Y-71628000D01*
X141552395Y-71628000D01*
X140749613Y-70825218D01*
X140507117Y-70895051D01*
X140319868Y-71419586D01*
X127892000Y-71419586D01*
X127892000Y-71349523D01*
X127678863Y-70834963D01*
X127285037Y-70441137D01*
X127084326Y-70358000D01*
X127285037Y-70274863D01*
X127678863Y-69881037D01*
X127892000Y-69366477D01*
X127892000Y-68809523D01*
X127678863Y-68294963D01*
X127285037Y-67901137D01*
X127084326Y-67818000D01*
X127285037Y-67734863D01*
X127678863Y-67341037D01*
X127892000Y-66826477D01*
X127892000Y-66269523D01*
X127678863Y-65754963D01*
X127285037Y-65361137D01*
X127084326Y-65278000D01*
X127285037Y-65194863D01*
X127678863Y-64801037D01*
X127892000Y-64286477D01*
X127892000Y-63729523D01*
X127678863Y-63214963D01*
X127285037Y-62821137D01*
X127084326Y-62738000D01*
X127285037Y-62654863D01*
X127678863Y-62261037D01*
X127892000Y-61746477D01*
X127892000Y-61189523D01*
X127678863Y-60674963D01*
X127285037Y-60281137D01*
X127084326Y-60198000D01*
X127285037Y-60114863D01*
X127678863Y-59721037D01*
X127892000Y-59206477D01*
X127892000Y-58649523D01*
X127678863Y-58134963D01*
X127285037Y-57741137D01*
X127084326Y-57658000D01*
X127285037Y-57574863D01*
X127678863Y-57181037D01*
X127892000Y-56666477D01*
X127892000Y-56109523D01*
X127678863Y-55594963D01*
X127285037Y-55201137D01*
X127084326Y-55118000D01*
X127285037Y-55034863D01*
X127678863Y-54641037D01*
X127892000Y-54126477D01*
X127892000Y-53569523D01*
X127678863Y-53054963D01*
X127285037Y-52661137D01*
X127084326Y-52578000D01*
X127285037Y-52494863D01*
X127678863Y-52101037D01*
X127892000Y-51586477D01*
X127892000Y-51029523D01*
X127678863Y-50514963D01*
X127285037Y-50121137D01*
X127084326Y-50038000D01*
X127285037Y-49954863D01*
X127678863Y-49561037D01*
X127892000Y-49046477D01*
X127892000Y-48489523D01*
X127678863Y-47974963D01*
X127285037Y-47581137D01*
X127084326Y-47498000D01*
X127285037Y-47414863D01*
X127678863Y-47021037D01*
X127892000Y-46506477D01*
X127892000Y-45949523D01*
X127678863Y-45434963D01*
X127285037Y-45041137D01*
X127084326Y-44958000D01*
X127285037Y-44874863D01*
X127678863Y-44481037D01*
X127892000Y-43966477D01*
X127892000Y-43409523D01*
X127678863Y-42894963D01*
X127285037Y-42501137D01*
X127084326Y-42418000D01*
X127285037Y-42334863D01*
X127678863Y-41941037D01*
X127892000Y-41426477D01*
X127892000Y-40869523D01*
X127678863Y-40354963D01*
X127285037Y-39961137D01*
X127084326Y-39878000D01*
X127285037Y-39794863D01*
X127678863Y-39401037D01*
X127892000Y-38886477D01*
X127892000Y-38329523D01*
X127678863Y-37814963D01*
X127285037Y-37421137D01*
X127100176Y-37344565D01*
X127224949Y-37292883D01*
X127294782Y-37050387D01*
X126492000Y-36247605D01*
X125689218Y-37050387D01*
X125759051Y-37292883D01*
X125893083Y-37340730D01*
X125698963Y-37421137D01*
X125305137Y-37814963D01*
X125291453Y-37848000D01*
X123391848Y-37848000D01*
X123317000Y-37833112D01*
X123242152Y-37848000D01*
X123242148Y-37848000D01*
X123068605Y-37882520D01*
X123020462Y-37892096D01*
X122833418Y-38017076D01*
X122769071Y-38060071D01*
X122726671Y-38123527D01*
X114676571Y-46173628D01*
X114595385Y-46140000D01*
X114004615Y-46140000D01*
X113458815Y-46366078D01*
X113041078Y-46783815D01*
X112815000Y-47329615D01*
X108660000Y-47329615D01*
X108660000Y-36385431D01*
X109525000Y-36385431D01*
X109525000Y-37274569D01*
X109865259Y-38096026D01*
X110493974Y-38724741D01*
X111315431Y-39065000D01*
X112204569Y-39065000D01*
X113026026Y-38724741D01*
X113654741Y-38096026D01*
X113995000Y-37274569D01*
X113995000Y-36893089D01*
X116956517Y-36893089D01*
X117085725Y-37185859D01*
X117785883Y-37454071D01*
X118535384Y-37433928D01*
X119134275Y-37185859D01*
X119263483Y-36893089D01*
X120766517Y-36893089D01*
X120895725Y-37185859D01*
X121595883Y-37454071D01*
X122345384Y-37433928D01*
X122944275Y-37185859D01*
X123073483Y-36893089D01*
X121920000Y-35739605D01*
X120766517Y-36893089D01*
X119263483Y-36893089D01*
X118110000Y-35739605D01*
X116956517Y-36893089D01*
X113995000Y-36893089D01*
X113995000Y-36385431D01*
X113654741Y-35563974D01*
X113326650Y-35235883D01*
X116215929Y-35235883D01*
X116236072Y-35985384D01*
X116484141Y-36584275D01*
X116776911Y-36713483D01*
X117930395Y-35560000D01*
X118289605Y-35560000D01*
X119443089Y-36713483D01*
X119735859Y-36584275D01*
X120004071Y-35884117D01*
X119986650Y-35235883D01*
X120025929Y-35235883D01*
X120046072Y-35985384D01*
X120294141Y-36584275D01*
X120586911Y-36713483D01*
X121740395Y-35560000D01*
X122099605Y-35560000D01*
X123253089Y-36713483D01*
X123545859Y-36584275D01*
X123814071Y-35884117D01*
X123813412Y-35859586D01*
X125079868Y-35859586D01*
X125107604Y-36415850D01*
X125267117Y-36800949D01*
X125509613Y-36870782D01*
X126312395Y-36068000D01*
X126671605Y-36068000D01*
X127474387Y-36870782D01*
X127716883Y-36800949D01*
X127904132Y-36276414D01*
X127879856Y-35789523D01*
X140332000Y-35789523D01*
X140332000Y-36346477D01*
X140545137Y-36861037D01*
X140938963Y-37254863D01*
X141139674Y-37338000D01*
X140938963Y-37421137D01*
X140545137Y-37814963D01*
X140332000Y-38329523D01*
X140332000Y-38886477D01*
X140545137Y-39401037D01*
X140938963Y-39794863D01*
X141139674Y-39878000D01*
X140938963Y-39961137D01*
X140545137Y-40354963D01*
X140332000Y-40869523D01*
X140332000Y-41426477D01*
X140545137Y-41941037D01*
X140938963Y-42334863D01*
X141139674Y-42418000D01*
X140938963Y-42501137D01*
X140545137Y-42894963D01*
X140332000Y-43409523D01*
X140332000Y-43966477D01*
X140545137Y-44481037D01*
X140938963Y-44874863D01*
X141139674Y-44958000D01*
X140938963Y-45041137D01*
X140545137Y-45434963D01*
X140332000Y-45949523D01*
X140332000Y-46506477D01*
X140545137Y-47021037D01*
X140938963Y-47414863D01*
X141139674Y-47498000D01*
X140938963Y-47581137D01*
X140545137Y-47974963D01*
X140332000Y-48489523D01*
X140332000Y-49046477D01*
X140545137Y-49561037D01*
X140938963Y-49954863D01*
X141139674Y-50038000D01*
X140938963Y-50121137D01*
X140545137Y-50514963D01*
X140332000Y-51029523D01*
X140332000Y-51586477D01*
X140545137Y-52101037D01*
X140938963Y-52494863D01*
X141139674Y-52578000D01*
X140938963Y-52661137D01*
X140545137Y-53054963D01*
X140332000Y-53569523D01*
X140332000Y-54126477D01*
X140545137Y-54641037D01*
X140938963Y-55034863D01*
X141139674Y-55118000D01*
X140938963Y-55201137D01*
X140545137Y-55594963D01*
X140332000Y-56109523D01*
X140332000Y-56666477D01*
X140545137Y-57181037D01*
X140938963Y-57574863D01*
X141139674Y-57658000D01*
X140938963Y-57741137D01*
X140545137Y-58134963D01*
X140332000Y-58649523D01*
X140332000Y-59206477D01*
X140545137Y-59721037D01*
X140938963Y-60114863D01*
X141139674Y-60198000D01*
X140938963Y-60281137D01*
X140545137Y-60674963D01*
X140332000Y-61189523D01*
X140332000Y-61746477D01*
X140545137Y-62261037D01*
X140938963Y-62654863D01*
X141139674Y-62738000D01*
X140938963Y-62821137D01*
X140545137Y-63214963D01*
X140332000Y-63729523D01*
X140332000Y-64286477D01*
X140545137Y-64801037D01*
X140938963Y-65194863D01*
X141139674Y-65278000D01*
X140938963Y-65361137D01*
X140545137Y-65754963D01*
X140332000Y-66269523D01*
X140332000Y-66826477D01*
X140545137Y-67341037D01*
X140938963Y-67734863D01*
X141139674Y-67818000D01*
X140938963Y-67901137D01*
X140545137Y-68294963D01*
X140332000Y-68809523D01*
X140332000Y-69366477D01*
X140545137Y-69881037D01*
X140938963Y-70274863D01*
X141123824Y-70351435D01*
X140999051Y-70403117D01*
X140929218Y-70645613D01*
X141732000Y-71448395D01*
X142534782Y-70645613D01*
X142464949Y-70403117D01*
X142330917Y-70355270D01*
X142525037Y-70274863D01*
X142918863Y-69881037D01*
X143132000Y-69366477D01*
X143132000Y-68809523D01*
X142918863Y-68294963D01*
X142525037Y-67901137D01*
X142324326Y-67818000D01*
X142525037Y-67734863D01*
X142767020Y-67492880D01*
X146447510Y-67492880D01*
X146447510Y-68143120D01*
X146696346Y-68743864D01*
X147156136Y-69203654D01*
X147756880Y-69452490D01*
X148407120Y-69452490D01*
X149007864Y-69203654D01*
X149467654Y-68743864D01*
X149716490Y-68143120D01*
X149716490Y-67492880D01*
X151527510Y-67492880D01*
X151527510Y-68143120D01*
X151776346Y-68743864D01*
X152236136Y-69203654D01*
X152836880Y-69452490D01*
X153487120Y-69452490D01*
X154087864Y-69203654D01*
X154547654Y-68743864D01*
X154796490Y-68143120D01*
X154796490Y-67492880D01*
X156607510Y-67492880D01*
X156607510Y-68143120D01*
X156856346Y-68743864D01*
X157316136Y-69203654D01*
X157916880Y-69452490D01*
X158567120Y-69452490D01*
X159167864Y-69203654D01*
X159627654Y-68743864D01*
X159876490Y-68143120D01*
X159876490Y-67492880D01*
X159627654Y-66892136D01*
X159167864Y-66432346D01*
X158567120Y-66183510D01*
X157916880Y-66183510D01*
X157316136Y-66432346D01*
X156856346Y-66892136D01*
X156607510Y-67492880D01*
X154796490Y-67492880D01*
X154547654Y-66892136D01*
X154087864Y-66432346D01*
X153487120Y-66183510D01*
X152836880Y-66183510D01*
X152236136Y-66432346D01*
X151776346Y-66892136D01*
X151527510Y-67492880D01*
X149716490Y-67492880D01*
X149467654Y-66892136D01*
X149007864Y-66432346D01*
X148407120Y-66183510D01*
X147756880Y-66183510D01*
X147156136Y-66432346D01*
X146696346Y-66892136D01*
X146447510Y-67492880D01*
X142767020Y-67492880D01*
X142918863Y-67341037D01*
X143132000Y-66826477D01*
X143132000Y-66269523D01*
X142918863Y-65754963D01*
X142525037Y-65361137D01*
X142324326Y-65278000D01*
X142525037Y-65194863D01*
X142918863Y-64801037D01*
X143132000Y-64286477D01*
X143132000Y-63729523D01*
X142918863Y-63214963D01*
X142525037Y-62821137D01*
X142324326Y-62738000D01*
X142525037Y-62654863D01*
X142767020Y-62412880D01*
X146447510Y-62412880D01*
X146447510Y-63063120D01*
X146696346Y-63663864D01*
X147156136Y-64123654D01*
X147756880Y-64372490D01*
X148407120Y-64372490D01*
X149007864Y-64123654D01*
X149467654Y-63663864D01*
X149716490Y-63063120D01*
X149716490Y-62412880D01*
X151527510Y-62412880D01*
X151527510Y-63063120D01*
X151776346Y-63663864D01*
X152236136Y-64123654D01*
X152836880Y-64372490D01*
X153487120Y-64372490D01*
X154087864Y-64123654D01*
X154547654Y-63663864D01*
X154796490Y-63063120D01*
X154796490Y-62412880D01*
X156607510Y-62412880D01*
X156607510Y-63063120D01*
X156856346Y-63663864D01*
X157316136Y-64123654D01*
X157916880Y-64372490D01*
X158567120Y-64372490D01*
X159167864Y-64123654D01*
X159627654Y-63663864D01*
X159876490Y-63063120D01*
X159876490Y-62412880D01*
X159627654Y-61812136D01*
X159167864Y-61352346D01*
X158567120Y-61103510D01*
X157916880Y-61103510D01*
X157316136Y-61352346D01*
X156856346Y-61812136D01*
X156607510Y-62412880D01*
X154796490Y-62412880D01*
X154547654Y-61812136D01*
X154087864Y-61352346D01*
X153487120Y-61103510D01*
X152836880Y-61103510D01*
X152236136Y-61352346D01*
X151776346Y-61812136D01*
X151527510Y-62412880D01*
X149716490Y-62412880D01*
X149467654Y-61812136D01*
X149007864Y-61352346D01*
X148407120Y-61103510D01*
X147756880Y-61103510D01*
X147156136Y-61352346D01*
X146696346Y-61812136D01*
X146447510Y-62412880D01*
X142767020Y-62412880D01*
X142918863Y-62261037D01*
X143132000Y-61746477D01*
X143132000Y-61189523D01*
X142918863Y-60674963D01*
X142525037Y-60281137D01*
X142324326Y-60198000D01*
X142525037Y-60114863D01*
X142918863Y-59721037D01*
X143132000Y-59206477D01*
X143132000Y-58649523D01*
X142918863Y-58134963D01*
X142525037Y-57741137D01*
X142324326Y-57658000D01*
X142525037Y-57574863D01*
X142767020Y-57332880D01*
X146447510Y-57332880D01*
X146447510Y-57983120D01*
X146696346Y-58583864D01*
X147156136Y-59043654D01*
X147756880Y-59292490D01*
X148407120Y-59292490D01*
X149007864Y-59043654D01*
X149467654Y-58583864D01*
X149716490Y-57983120D01*
X149716490Y-57332880D01*
X151527510Y-57332880D01*
X151527510Y-57983120D01*
X151776346Y-58583864D01*
X152236136Y-59043654D01*
X152836880Y-59292490D01*
X153487120Y-59292490D01*
X154087864Y-59043654D01*
X154547654Y-58583864D01*
X154796490Y-57983120D01*
X154796490Y-57332880D01*
X156607510Y-57332880D01*
X156607510Y-57983120D01*
X156856346Y-58583864D01*
X157316136Y-59043654D01*
X157916880Y-59292490D01*
X158567120Y-59292490D01*
X159167864Y-59043654D01*
X159627654Y-58583864D01*
X159876490Y-57983120D01*
X159876490Y-57332880D01*
X159627654Y-56732136D01*
X159167864Y-56272346D01*
X158567120Y-56023510D01*
X157916880Y-56023510D01*
X157316136Y-56272346D01*
X156856346Y-56732136D01*
X156607510Y-57332880D01*
X154796490Y-57332880D01*
X154547654Y-56732136D01*
X154087864Y-56272346D01*
X153487120Y-56023510D01*
X152836880Y-56023510D01*
X152236136Y-56272346D01*
X151776346Y-56732136D01*
X151527510Y-57332880D01*
X149716490Y-57332880D01*
X149467654Y-56732136D01*
X149007864Y-56272346D01*
X148407120Y-56023510D01*
X147756880Y-56023510D01*
X147156136Y-56272346D01*
X146696346Y-56732136D01*
X146447510Y-57332880D01*
X142767020Y-57332880D01*
X142918863Y-57181037D01*
X143132000Y-56666477D01*
X143132000Y-56109523D01*
X142918863Y-55594963D01*
X142525037Y-55201137D01*
X142324326Y-55118000D01*
X142525037Y-55034863D01*
X142918863Y-54641037D01*
X143132000Y-54126477D01*
X143132000Y-53569523D01*
X142918863Y-53054963D01*
X142525037Y-52661137D01*
X142324326Y-52578000D01*
X142525037Y-52494863D01*
X142767020Y-52252880D01*
X146447510Y-52252880D01*
X146447510Y-52903120D01*
X146696346Y-53503864D01*
X147156136Y-53963654D01*
X147756880Y-54212490D01*
X148407120Y-54212490D01*
X149007864Y-53963654D01*
X149467654Y-53503864D01*
X149716490Y-52903120D01*
X149716490Y-52252880D01*
X151527510Y-52252880D01*
X151527510Y-52903120D01*
X151776346Y-53503864D01*
X152236136Y-53963654D01*
X152836880Y-54212490D01*
X153487120Y-54212490D01*
X154087864Y-53963654D01*
X154547654Y-53503864D01*
X154796490Y-52903120D01*
X154796490Y-52252880D01*
X156607510Y-52252880D01*
X156607510Y-52903120D01*
X156856346Y-53503864D01*
X157316136Y-53963654D01*
X157916880Y-54212490D01*
X158567120Y-54212490D01*
X159167864Y-53963654D01*
X159627654Y-53503864D01*
X159876490Y-52903120D01*
X159876490Y-52252880D01*
X159627654Y-51652136D01*
X159167864Y-51192346D01*
X158567120Y-50943510D01*
X157916880Y-50943510D01*
X157316136Y-51192346D01*
X156856346Y-51652136D01*
X156607510Y-52252880D01*
X154796490Y-52252880D01*
X154547654Y-51652136D01*
X154087864Y-51192346D01*
X153487120Y-50943510D01*
X152836880Y-50943510D01*
X152236136Y-51192346D01*
X151776346Y-51652136D01*
X151527510Y-52252880D01*
X149716490Y-52252880D01*
X149467654Y-51652136D01*
X149007864Y-51192346D01*
X148407120Y-50943510D01*
X147756880Y-50943510D01*
X147156136Y-51192346D01*
X146696346Y-51652136D01*
X146447510Y-52252880D01*
X142767020Y-52252880D01*
X142918863Y-52101037D01*
X143132000Y-51586477D01*
X143132000Y-51029523D01*
X142918863Y-50514963D01*
X142525037Y-50121137D01*
X142324326Y-50038000D01*
X142525037Y-49954863D01*
X142918863Y-49561037D01*
X143132000Y-49046477D01*
X143132000Y-48489523D01*
X142918863Y-47974963D01*
X142525037Y-47581137D01*
X142324326Y-47498000D01*
X142525037Y-47414863D01*
X142767020Y-47172880D01*
X146447510Y-47172880D01*
X146447510Y-47823120D01*
X146696346Y-48423864D01*
X147156136Y-48883654D01*
X147756880Y-49132490D01*
X148407120Y-49132490D01*
X149007864Y-48883654D01*
X149467654Y-48423864D01*
X149716490Y-47823120D01*
X149716490Y-47172880D01*
X151527510Y-47172880D01*
X151527510Y-47823120D01*
X151776346Y-48423864D01*
X152236136Y-48883654D01*
X152836880Y-49132490D01*
X153487120Y-49132490D01*
X154087864Y-48883654D01*
X154547654Y-48423864D01*
X154796490Y-47823120D01*
X154796490Y-47172880D01*
X156607510Y-47172880D01*
X156607510Y-47823120D01*
X156856346Y-48423864D01*
X157316136Y-48883654D01*
X157916880Y-49132490D01*
X158567120Y-49132490D01*
X159167864Y-48883654D01*
X159627654Y-48423864D01*
X159876490Y-47823120D01*
X159876490Y-47172880D01*
X159627654Y-46572136D01*
X159167864Y-46112346D01*
X158567120Y-45863510D01*
X157916880Y-45863510D01*
X157316136Y-46112346D01*
X156856346Y-46572136D01*
X156607510Y-47172880D01*
X154796490Y-47172880D01*
X154547654Y-46572136D01*
X154087864Y-46112346D01*
X153487120Y-45863510D01*
X152836880Y-45863510D01*
X152236136Y-46112346D01*
X151776346Y-46572136D01*
X151527510Y-47172880D01*
X149716490Y-47172880D01*
X149467654Y-46572136D01*
X149007864Y-46112346D01*
X148407120Y-45863510D01*
X147756880Y-45863510D01*
X147156136Y-46112346D01*
X146696346Y-46572136D01*
X146447510Y-47172880D01*
X142767020Y-47172880D01*
X142918863Y-47021037D01*
X143132000Y-46506477D01*
X143132000Y-45949523D01*
X142918863Y-45434963D01*
X142525037Y-45041137D01*
X142324326Y-44958000D01*
X142525037Y-44874863D01*
X142918863Y-44481037D01*
X143132000Y-43966477D01*
X143132000Y-43409523D01*
X142918863Y-42894963D01*
X142525037Y-42501137D01*
X142324326Y-42418000D01*
X142525037Y-42334863D01*
X142767020Y-42092880D01*
X146447510Y-42092880D01*
X146447510Y-42743120D01*
X146696346Y-43343864D01*
X147156136Y-43803654D01*
X147756880Y-44052490D01*
X148407120Y-44052490D01*
X149007864Y-43803654D01*
X149467654Y-43343864D01*
X149716490Y-42743120D01*
X149716490Y-42092880D01*
X151527510Y-42092880D01*
X151527510Y-42743120D01*
X151776346Y-43343864D01*
X152236136Y-43803654D01*
X152836880Y-44052490D01*
X153487120Y-44052490D01*
X154087864Y-43803654D01*
X154547654Y-43343864D01*
X154796490Y-42743120D01*
X154796490Y-42092880D01*
X156607510Y-42092880D01*
X156607510Y-42743120D01*
X156856346Y-43343864D01*
X157316136Y-43803654D01*
X157916880Y-44052490D01*
X158567120Y-44052490D01*
X159167864Y-43803654D01*
X159627654Y-43343864D01*
X159876490Y-42743120D01*
X159876490Y-42092880D01*
X159627654Y-41492136D01*
X159167864Y-41032346D01*
X158567120Y-40783510D01*
X157916880Y-40783510D01*
X157316136Y-41032346D01*
X156856346Y-41492136D01*
X156607510Y-42092880D01*
X154796490Y-42092880D01*
X154547654Y-41492136D01*
X154087864Y-41032346D01*
X153487120Y-40783510D01*
X152836880Y-40783510D01*
X152236136Y-41032346D01*
X151776346Y-41492136D01*
X151527510Y-42092880D01*
X149716490Y-42092880D01*
X149467654Y-41492136D01*
X149007864Y-41032346D01*
X148407120Y-40783510D01*
X147756880Y-40783510D01*
X147156136Y-41032346D01*
X146696346Y-41492136D01*
X146447510Y-42092880D01*
X142767020Y-42092880D01*
X142918863Y-41941037D01*
X143132000Y-41426477D01*
X143132000Y-40869523D01*
X142918863Y-40354963D01*
X142525037Y-39961137D01*
X142324326Y-39878000D01*
X142525037Y-39794863D01*
X142918863Y-39401037D01*
X143132000Y-38886477D01*
X143132000Y-38329523D01*
X142918863Y-37814963D01*
X142525037Y-37421137D01*
X142324326Y-37338000D01*
X142525037Y-37254863D01*
X142767020Y-37012880D01*
X146447510Y-37012880D01*
X146447510Y-37663120D01*
X146696346Y-38263864D01*
X147156136Y-38723654D01*
X147756880Y-38972490D01*
X148407120Y-38972490D01*
X149007864Y-38723654D01*
X149467654Y-38263864D01*
X149716490Y-37663120D01*
X149716490Y-37012880D01*
X151527510Y-37012880D01*
X151527510Y-37663120D01*
X151776346Y-38263864D01*
X152236136Y-38723654D01*
X152836880Y-38972490D01*
X153487120Y-38972490D01*
X154087864Y-38723654D01*
X154547654Y-38263864D01*
X154796490Y-37663120D01*
X154796490Y-37012880D01*
X154547654Y-36412136D01*
X154520949Y-36385431D01*
X159055000Y-36385431D01*
X159055000Y-37274569D01*
X159395259Y-38096026D01*
X160023974Y-38724741D01*
X160845431Y-39065000D01*
X161734569Y-39065000D01*
X162556026Y-38724741D01*
X163184741Y-38096026D01*
X163525000Y-37274569D01*
X163525000Y-36385431D01*
X163184741Y-35563974D01*
X162556026Y-34935259D01*
X161734569Y-34595000D01*
X160845431Y-34595000D01*
X160023974Y-34935259D01*
X159395259Y-35563974D01*
X159055000Y-36385431D01*
X154520949Y-36385431D01*
X154087864Y-35952346D01*
X153487120Y-35703510D01*
X152836880Y-35703510D01*
X152236136Y-35952346D01*
X151776346Y-36412136D01*
X151527510Y-37012880D01*
X149716490Y-37012880D01*
X149467654Y-36412136D01*
X149007864Y-35952346D01*
X148407120Y-35703510D01*
X147756880Y-35703510D01*
X147156136Y-35952346D01*
X146696346Y-36412136D01*
X146447510Y-37012880D01*
X142767020Y-37012880D01*
X142918863Y-36861037D01*
X143132000Y-36346477D01*
X143132000Y-35789523D01*
X142918863Y-35274963D01*
X142525037Y-34881137D01*
X142010477Y-34668000D01*
X141453523Y-34668000D01*
X140938963Y-34881137D01*
X140545137Y-35274963D01*
X140332000Y-35789523D01*
X127879856Y-35789523D01*
X127876396Y-35720150D01*
X127716883Y-35335051D01*
X127474387Y-35265218D01*
X126671605Y-36068000D01*
X126312395Y-36068000D01*
X125509613Y-35265218D01*
X125267117Y-35335051D01*
X125079868Y-35859586D01*
X123813412Y-35859586D01*
X123793928Y-35134616D01*
X123773631Y-35085613D01*
X125689218Y-35085613D01*
X126492000Y-35888395D01*
X127294782Y-35085613D01*
X127224949Y-34843117D01*
X126700414Y-34655868D01*
X126144150Y-34683604D01*
X125759051Y-34843117D01*
X125689218Y-35085613D01*
X123773631Y-35085613D01*
X123545859Y-34535725D01*
X123253089Y-34406517D01*
X122099605Y-35560000D01*
X121740395Y-35560000D01*
X120586911Y-34406517D01*
X120294141Y-34535725D01*
X120025929Y-35235883D01*
X119986650Y-35235883D01*
X119983928Y-35134616D01*
X119735859Y-34535725D01*
X119443089Y-34406517D01*
X118289605Y-35560000D01*
X117930395Y-35560000D01*
X116776911Y-34406517D01*
X116484141Y-34535725D01*
X116215929Y-35235883D01*
X113326650Y-35235883D01*
X113026026Y-34935259D01*
X112204569Y-34595000D01*
X111315431Y-34595000D01*
X110493974Y-34935259D01*
X109865259Y-35563974D01*
X109525000Y-36385431D01*
X108660000Y-36385431D01*
X108660000Y-33730000D01*
X117578565Y-33730000D01*
X117085725Y-33934141D01*
G04 #@! TD*
M02*
